<svg xmlns="http://www.w3.org/2000/svg" viewBox="0 0 400 400"><circle cx="200" cy="200" r="191.5" fill="#002b4b"/><path d="M200 9c25.8 0 50.8 5 74.3 15 22.7 9.6 43.2 23.4 60.7 40.9s31.3 38 40.9 60.7c10 23.5 15 48.6 15 74.3s-5 50.8-15 74.3c-9.6 22.7-23.4 43.2-40.9 60.7s-38 31.3-60.7 40.9c-23.5 10-48.6 15-74.3 15s-50.8-5-74.3-15c-22.7-9.6-43.2-23.4-60.7-40.9s-31.3-38-40.9-60.7C14 250.8 9 225.8 9 200s5-50.8 15-74.3C33.6 103 47.4 82.5 64.9 65s38-31.3 60.7-40.9C149.2 14 174.2 9 200 9m0-1C94 8 8 94 8 200s86 192 192 192 192-86 192-192S306 8 200 8h0z"/><path d="M207.8.2C147.8-2 96.1 19.1 54.7 62.7 18.3 101.1.1 147.4 0 200.4-.2 310.2 89.4 400.6 199.8 400c110.7.7 201.1-89.8 200.2-201.1C399.1 87.3 311 3.9 207.8.2zm-7.7 381c-99 0-182.2-80.6-180.4-184.7C21.4 103.1 98.5 16.1 209 20.2c88.8 3.2 174.5 78.3 171.9 185.9-2.3 94.2-80.2 175.1-180.8 175.1z" fill="#f1ce56"/><path d="M207.8.2C147.8-2 96.1 19.1 54.7 62.7 18.3 101.1.1 147.4 0 200.4-.2 310.2 89.4 400.6 199.8 400c110.7.7 201.1-89.8 200.2-201.1C399.1 87.3 311 3.9 207.8.2zm-7.7 381c-99 0-182.2-80.6-180.4-184.7C21.4 103.1 98.5 16.1 209 20.2c88.8 3.2 174.5 78.3 171.9 185.9-2.3 94.2-80.2 175.1-180.8 175.1zm142.8-237.4c-2.6-1.3-5.5-2-6.6-5.5-.3-1.1-3-2-4.5-2-2.5.1-5 1-7.4 1.8-10.5 3.7-20.9 8-31.5 11.2-13.7 4.2-27.7 7.9-41.6 11.3-8 2-16.3 3.2-24.4 4.6-2.5.4-5 .4-4.9-3.5 0-2-.8-3.7-3.4-3.6-1.7.1-2.7-.6-2.3-2.7.4-2.7-1.2-4.3-3.7-4.6-2.6-.3-3.4-1.8-3.4-4.1s-.8-4-3.1-4.9-2.5-2.3-1.4-4.5c.6-1.1 1-3 .4-3.8-2.4-3.6-.2-5.9 1.6-8.6 1.5-2.2 4.3-4.2 2.9-7.8l-10.3 4.9c-.3-.4 2.7-3.9 3.3-4.7.5-.6.9-1.3 1.5-1.9 5.4-6.1 11.3-11.7 16.3-18.1 1-1.2.7-3.8.4-4.1l-25.4 15c-.3-.4 19.2-16.6 26.7-29.2.6-1 1-3.6.8-3.9L190.6 97c-.3-.3 5-6.3 8.1-9.3s6.6-6.3 8.8-7.9c8.1-6.1 14.7-13.6 20.2-22 1-1.5 2.7-4.7 2.3-5.3-.7.4-1.5.7-2.2 1.1l-31 22.8c-7.2 5.5-14.2 11.5-21 17.5-9 8-16 17.8-22.5 27.9-3.9 6.2-7.5 12.6-10.7 19.1s-1.5 8.9 5.5 10c8.9 1.4 16.8 4.8 22.3 12.5 3.5 4.9 6.2 10.3 6.1 16.5 0 1.3-1 3-2 3.6-3 1.9-6.4 3-9.4 4.9-9.9 6.4-17.6 14.8-22.3 25.7-2.9 6.8-2.7 14.7.3 20.7.9 1.8 3.8 4.8 7.5 6.8-.1-1 .1-2.3.2-3.3.3-3 2.9-6.5 5.9-7.2 4.3-.9 8.6-1.7 13-2.4a696.01 696.01 0 0 1 20.1-3c2.8-.4 5 .3 5.6 3.7.6 3.5 1.4 7 2.3 10.4 1.7 5.9.6 11.6-2.1 16.8-2.3 4.4-5.6 8.2-8.7 12.1-3.5 4.4-3.3 8 1.8 10.6 7 3.5 14.2 6.9 21.5 9.5 6.8 2.4 13.8 4 20.9 5.3 8.7 1.6 17.6 3.3 26.4 3.4 15 .2 30.1-.6 45.1-1.2 4.2-.2 8.7-.4 12.4-3.8-18.8-4.3-37.7-5.6-56.7-6.9 11.6-3.6 24.1-2.2 35.4-7.3-14-4.8-28.8-4-43.1-6.5.8-.6 10.9-1.8 19.4-2.8 3.1-.3 11.3-1.1 12.5-1.7-2.4-2.9-8.1-4.3-10.2-4.7-5.6-1.1-11.4-1.2-17.1-1.1-2.4 0-4.9-.2-7.3-.4-1.6-.1-8.2-.5-8.3-1l21-4.2c.7-2.1-.3-3.2-2.2-3.7-2.8-.8-5.8-1.5-8.5-2.5-1.1-.4-2.3-1.7-2.5-2.8-.4-2-.7-3.6-3-4.3-.8-.2-1.8-1.1-2.2-1.9-1.6-3.5-1.9-7.1-1.5-11.1s-.4-8.2.5-12.3c0-.2-.1-.4-.2-.6-1.1-2.2-.4-4 1.5-5.2 6.6-4 13.1-8.2 20-11.7 13-6.7 26.2-13.2 39.5-19.4 11.5-5.4 23.3-10.3 35.6-13.6 4.8-1.3 7.7-2.3 7-9.1-.2-1.6.8-3.4 1.6-4.9 1.5-3.6.4-7.2-3.3-9zM160.3 302.6c-34.1-25.9-54.8-60.6-59.1-103.4-6-59.5 16.3-105.9 62.6-141.1 3.2-2.5 8.4-6.2 11.9-8.5-1.6-.2-12 2.3-15.1 3.5l-22.3 8.4c-19.2 8-35.7 20.1-49.4 35.5-7.1 8-13.3 16.9-19.2 25.9-4.1 6.3-7.5 13.3-10.3 20.4-3.1 7.9-5.5 16.2-7.5 24.4-1.6 6.8-1.8 13.9-3 20.8-1.9 10.8-.5 21.5.7 32 1 9.1 3.2 18 6.1 26.8 4.3 12.9 9.7 25.2 17.2 36.4 11.4 17 25.2 31.6 42.5 42.9 14.1 9.2 28.8 16.5 45.3 20.7 10.5 2.7 21 4.6 31.8 5.2 16.3.9 32.4-.6 48.2-5.3 5.5-1.6 11.1-3.1 16.4-5.2 5.6-2.2 20.5-10.8 20.4-11.1-8.3 1.4-17.8 2.1-25.7 2.1-33.2.3-63.9-9.5-91.5-30.4z" fill="#fef5cc"/></svg>