<?xml version="1.0" encoding="utf-8"?>
<!-- Generator: Adobe Illustrator 23.0.0, SVG Export Plug-In . SVG Version: 6.00 Build 0)  -->
<svg version="1.1" id="Layer_1" xmlns="http://www.w3.org/2000/svg" xmlns:xlink="http://www.w3.org/1999/xlink" x="0px" y="0px"
	 viewBox="0 0 400 400" style="enable-background:new 0 0 400 400;" xml:space="preserve">
<style type="text/css">
	.st0{display:none;fill:#002B4B;}
	.st1{fill:#002B4B;}
	.st2{display:none;}
	.st3{display:none;fill:#F1CE56;}
	.st4{fill:#FEF5CC;}
</style>
<ellipse class="st0" cx="220.6" cy="190.4" rx="369.2" ry="289"/>
<g id="Layer_2">
	<rect y="0" class="st1" width="400" height="400"/>
</g>
<path class="st2" d="M200,9c25.8,0,50.8,5,74.3,15c22.7,9.6,43.2,23.4,60.7,40.9s31.3,38,40.9,60.7c10,23.5,15,48.6,15,74.3
	s-5,50.8-15,74.3c-9.6,22.7-23.4,43.2-40.9,60.7s-38,31.3-60.7,40.9c-23.5,10-48.6,15-74.3,15s-50.8-5-74.3-15
	c-22.7-9.6-43.2-23.4-60.7-40.9s-31.3-38-40.9-60.7C14,250.8,9,225.8,9,200s5-50.8,15-74.3C33.6,103,47.4,82.5,64.9,65
	s38-31.3,60.7-40.9C149.2,14,174.2,9,200,9 M200,8C94,8,8,94,8,200s86,192,192,192s192-86,192-192S306,8,200,8L200,8z"/>
<path class="st3" d="M207.8,0.2C147.8-2,96.1,19.1,54.7,62.7C18.3,101.1,0.1,147.4,0,200.4C-0.2,310.2,89.4,400.6,199.8,400
	c110.7,0.7,201.1-89.8,200.2-201.1C399.1,87.3,311,3.9,207.8,0.2z M200.1,381.2c-99,0-182.2-80.6-180.4-184.7
	C21.4,103.1,98.5,16.1,209,20.2c88.8,3.2,174.5,78.3,171.9,185.9C378.6,300.3,300.7,381.2,200.1,381.2L200.1,381.2z"/>
<g id="XMLID_1_">
	<g>
		<path class="st1" d="M400,198.9c0.9,111.3-89.5,201.8-200.2,201.1C89.4,400.6-0.2,310.2,0,200.4c0.1-53,18.3-99.3,54.7-137.7
			C96.1,19.1,147.8-2,207.8,0.2C311,3.9,399.1,87.3,400,198.9z M380.9,206.1C383.5,98.5,297.8,23.4,209,20.2
			C98.5,16.1,21.4,103.1,19.7,196.5c-1.8,104.1,81.4,184.7,180.4,184.7C300.7,381.2,378.6,300.3,380.9,206.1z"/>
		<path class="st4" d="M342.9,143.8c3.7,1.8,4.8,5.4,3.3,9c-0.8,1.5-1.8,3.3-1.6,4.9c0.7,6.8-2.2,7.8-7,9.1
			c-12.3,3.3-24.1,8.2-35.6,13.6c-13.3,6.2-26.5,12.7-39.5,19.4c-6.9,3.5-13.4,7.7-20,11.7c-1.9,1.2-2.6,3-1.5,5.2
			c0.1,0.2,0.2,0.4,0.2,0.6c-0.9,4.1-0.1,8.3-0.5,12.3c-0.4,4-0.1,7.6,1.5,11.1c0.4,0.8,1.4,1.7,2.2,1.9c2.3,0.7,2.6,2.3,3,4.3
			c0.2,1.1,1.4,2.4,2.5,2.8c2.7,1,5.7,1.7,8.5,2.5c1.9,0.5,2.9,1.6,2.2,3.7l-21,4.2c0.1,0.5,6.7,0.9,8.3,1c2.4,0.2,4.9,0.4,7.3,0.4
			c5.7-0.1,11.5,0,17.1,1.1c2.1,0.4,7.8,1.8,10.2,4.7c-1.2,0.6-9.4,1.4-12.5,1.7c-8.5,1-18.6,2.2-19.4,2.8
			c14.3,2.5,29.1,1.7,43.1,6.5c-11.3,5.1-23.8,3.7-35.4,7.3c19,1.3,37.9,2.6,56.7,6.9c-3.7,3.4-8.2,3.6-12.4,3.8
			c-15,0.6-30.1,1.4-45.1,1.2c-8.8-0.1-17.7-1.8-26.4-3.4c-7.1-1.3-14.1-2.9-20.9-5.3c-7.3-2.6-14.5-6-21.5-9.5
			c-5.1-2.6-5.3-6.2-1.8-10.6c3.1-3.9,6.4-7.7,8.7-12.1c2.7-5.2,3.8-10.9,2.1-16.8c-0.9-3.4-1.7-6.9-2.3-10.4
			c-0.6-3.4-2.8-4.1-5.6-3.7c-6.7,0.9-13.4,1.9-20.1,3c-4.4,0.7-8.7,1.5-13,2.4c-3,0.7-5.6,4.2-5.9,7.2c-0.1,1-0.3,2.3-0.2,3.3
			c-3.7-2-6.6-5-7.5-6.8c-3-6-3.2-13.9-0.3-20.7c4.7-10.9,12.4-19.3,22.3-25.7c3-1.9,6.4-3,9.4-4.9c1-0.6,2-2.3,2-3.6
			c0.1-6.2-2.6-11.6-6.1-16.5c-5.5-7.7-13.4-11.1-22.3-12.5c-7-1.1-8.7-3.5-5.5-10c3.2-6.5,6.8-12.9,10.7-19.1
			c6.5-10.1,13.5-19.9,22.5-27.9c6.8-6,13.8-12,21-17.5l31-22.8c0.7-0.4,1.5-0.7,2.2-1.1c0.4,0.6-1.3,3.8-2.3,5.3
			c-5.5,8.4-12.1,15.9-20.2,22c-2.2,1.6-5.7,4.9-8.8,7.9c-3.1,3-8.4,9-8.1,9.3l32.3-21.9c0.2,0.3-0.2,2.9-0.8,3.9
			c-7.5,12.6-27,28.8-26.7,29.2l25.4-15c0.3,0.3,0.6,2.9-0.4,4.1c-5,6.4-10.9,12-16.3,18.1c-0.6,0.6-1,1.3-1.5,1.9
			c-0.6,0.8-3.6,4.3-3.3,4.7l10.3-4.9c1.4,3.6-1.4,5.6-2.9,7.8c-1.8,2.7-4,5-1.6,8.6c0.6,0.8,0.2,2.7-0.4,3.8
			c-1.1,2.2-0.9,3.6,1.4,4.5c2.3,0.9,3.1,2.6,3.1,4.9s0.8,3.8,3.4,4.1c2.5,0.3,4.1,1.9,3.7,4.6c-0.4,2.1,0.6,2.8,2.3,2.7
			c2.6-0.1,3.4,1.6,3.4,3.6c-0.1,3.9,2.4,3.9,4.9,3.5c8.1-1.4,16.4-2.6,24.4-4.6c13.9-3.4,27.9-7.1,41.6-11.3
			c10.6-3.2,21-7.5,31.5-11.2c2.4-0.8,4.9-1.7,7.4-1.8c1.5,0,4.2,0.9,4.5,2C337.4,141.8,340.3,142.5,342.9,143.8z"/>
		<path class="st4" d="M251.8,333c7.9,0,17.4-0.7,25.7-2.1c0,0.4-14.8,8.9-20.4,11.1c-5.3,2.1-10.9,3.6-16.4,5.2
			c-15.8,4.7-31.9,6.2-48.2,5.3c-10.8-0.6-21.3-2.5-31.8-5.2c-16.5-4.2-31.2-11.5-45.3-20.7c-17.3-11.3-31.1-25.9-42.5-42.9
			c-7.5-11.2-12.9-23.5-17.2-36.4c-2.9-8.8-5.1-17.7-6.1-26.8c-1.2-10.5-2.6-21.2-0.7-32c1.2-6.9,1.4-14,3-20.8
			c2-8.2,4.4-16.5,7.5-24.4c2.8-7.1,6.2-14.1,10.3-20.4c5.9-9,12.1-17.9,19.2-25.9c13.7-15.4,30.2-27.5,49.4-35.5l22.3-8.4
			c3.1-1.2,13.5-3.7,15.1-3.5c-3.5,2.3-8.7,6-11.9,8.5c-46.3,35.2-68.6,81.6-62.6,141.1c4.3,42.8,25,77.5,59.1,103.4
			C187.9,323.5,218.6,333.3,251.8,333z"/>
	</g>
	<g>
	</g>
</g>
</svg>
