<svg xmlns="http://www.w3.org/2000/svg" viewBox="0 0 400 400"><circle cx="200" cy="200" r="191.5" fill="#101006"/><path d="M200 9c25.8 0 50.8 5 74.3 15 22.7 9.6 43.2 23.4 60.7 40.9s31.3 38 40.9 60.7c10 23.5 15 48.6 15 74.3s-5 50.8-15 74.3c-9.6 22.7-23.4 43.2-40.9 60.7s-38 31.3-60.7 40.9c-23.5 10-48.6 15-74.3 15s-50.8-5-74.3-15c-22.7-9.6-43.2-23.4-60.7-40.9s-31.3-38-40.9-60.7C14 250.8 9 225.8 9 200s5-50.8 15-74.3C33.6 103 47.4 82.5 64.9 65s38-31.3 60.7-40.9C149.2 14 174.2 9 200 9m0-1C94 8 8 94 8 200s86 192 192 192 192-86 192-192S306 8 200 8h0z"/><g fill="#fcb600"><path d="M207.8.2C147.8-2 96.1 19.1 54.7 62.7 18.3 101.1.1 147.4 0 200.4-.2 310.2 89.4 400.6 199.8 400c110.7.7 201.1-89.8 200.2-201.1C399.1 87.3 311 3.9 207.8.2zm-7.7 381c-99 0-182.2-80.6-180.4-184.7C21.4 103.1 98.5 16.1 209 20.2c88.8 3.2 174.5 78.3 171.9 185.9-2.3 94.2-80.2 175.1-180.8 175.1z"/><path d="M306.7 93.8V91l-.3-3.1c-1.6-8.3-5.4-15.3-11.3-21.3-1-1-2-2.1-3-3.2-.4-.4-.7-.5-1.2-.3s-.7.6-.6 1.1.3 1 .6 1.5.7.9 1.1 1.4a102.33 102.33 0 0 1 4 5.2c1.2 1.7 2.1 3.5 2.6 5.6.6 2.4.5 4.7-.5 6.9-.8 1.9-2.3 2.7-4.3 2.5-1.2-.1-2.4-.5-3.5-1.1-2.2-1.1-4.2-2.5-6-4.2-.2-.2-.5-.4-.7-.6-.3-.2-.7-.4-1.1-.1-.3.3-.3.7-.1 1 .3.6.7 1.2 1.2 1.6.8.6 1.6 1.2 2.5 1.7 2.3 1.4 4.3 3.1 6.2 5.1 1.7 1.8 3 3.8 3.6 6.2.7 3-.3 5.5-2.5 7.6-1.5 1.3-3.2 1.5-4.9.6-.8-.4-1.5-.9-2.2-1.6-1.6-1.5-3.2-3.1-4.4-5-.7-1.1-1.8-1.4-2.9-1.7-.4.8-.2 1.4.1 2 .5.9.9 1.8 1.5 2.7 1.8 2.9 3 6.1 3.1 9.5.1 2.7-.2 5.3-1.4 7.7-1.6 3.1-4 5.1-7.6 5.5-.8.1-1.7.1-2.5.2h-.7c-.1-.7-.2-1.4-.2-2 0-3 .4-5.9.8-8.8.5-2.9 1.7-5.4 3.5-7.6.5-.6.9-1.3 1.3-2 .1-.2.1-.4.1-.7-1.2 0-2 .5-2.7 1.3s-1.4 1.7-2 2.6c-2.4 3.5-4.4 7.2-5.9 11.3-.5 1.4-1 2.8-1.7 4.1-1.3 2.5-3.2 3.4-6 3.1-1.8-.2-3.7-.4-5.5-.7l-12-2.1c-.3-.1-.6-.2-.9-.2 0-.1 0-.1.1-.2h1.5c.7-.1.8-.2.7-.9 0-.7-.1-1.4-.1-2.1.1-2.2.6-4.4 1-6.6.3-1.4.6-2.8.8-4.2.1-.4.2-.9-.2-1.3-.5.1-.8.5-1.1.9-1.3 1.4-2.3 3.1-2.9 5-.8 2.6-1.5 5.3-2.2 7.9v.3c.4.3.9.6 1.3.9 0 .1 0 .1-.1.2l-8-1.3c-.1-.5-.2-1-.2-1.4 0-1.8 0-3.7.1-5.5.2-2.9.2-5.7-.9-8.5-1.9-4.7-4.3-9.1-7.1-13.4-.5-.8-1.2-1.4-1.9-2-.6-.5-1.2-.9-1.9-1.4l-.6-.3c-.5 1.1-.4 1.4.3 2.3a35.16 35.16 0 0 1 6.2 11.8c1.1 3.5 1.4 7.1 1.3 10.8 0 .9-.2 1.8-.3 2.7-.3 1.8-1.4 2.9-3.1 3.4l-1.2.3c-1.6.1-3.2.2-4.8.2h-2.6c.1-.2.2-.3.2-.4.6-.2 1.2-.4 1.9-.6l-.3-1.5c-.5-1.6-1.3-3.1-2.3-4.5a159.88 159.88 0 0 0-5-6.5c-1.4-1.7-2.9-3.2-4.3-4.8-.2-.3-.5-.5-.8-.6-.2-.1-.6-.1-.8 0s-.3.6-.2.8c.2.5.5 1 .9 1.3 2.2 2 3.7 4.4 4.7 7.1 1.2 3.2 2.2 6.4 3.4 9.8-.4.1-.7.3-1 .3-2 .2-4 .8-5.8 1.6-2.2.9-4.4 1.9-6.5 3-1.2.6-2.3.7-3.5.2-.9-.4-1.8-.8-2.7-1.3-1.7-1-3.2-2.3-4.7-3.6-2.6-2.3-4.9-4.8-6.5-7.8-1.1-2-1.9-4-1.9-6.3 0-.2 0-.4-.1-.5-.6-.5-1.1-1-2-1.3.1 1.4.1 2.7.2 4 0 1.8.5 3.5 1.2 5.1 1.1 2.4 2.5 4.7 4.3 6.7l6.6 7.3c1 1.2 2 2.4 2.9 3.7.2.3.5.8.4 1.2-.2 1.5-.5 3-.8 4.5-.4 0-.8 0-1.1.1-1.4.2-2.8.2-4.2.5-3.9.7-7.5 2.3-10.9 4.4-3 1.8-5.9 3.7-8.8 5.6-2.1 1.4-4.4 2.4-6.8 3.1-1.9.5-3.8 1.1-5.6 1.7l-3 .9c-.3 1.1-.6 2.1-.8 3.2-.1.3-.1.7 0 .9.5 1.2 1 2.5 1.6 3.8.6-.2 1.2-.4 1.7-.6.6-.3 1.1-.5 1.7-.5h3.2c.2 0 .4.1.7.2-.5.4-.8.8-1.2 1.1-.9.8-1.3 1.8-1.5 2.9-.2.9.3 1.3 1.2.9.8-.3 1.6-.7 2.4-1 4.4-1.8 9-2.9 13.8-2.5 2.7.2 5.3.1 8-.5 4.5-1.1 7.6-3.7 9.1-8.1.4-1.3.7-2.5.8-3.9.1-1.6.5-1.9 2-2.1h.5l6.2-.3h1.5v.2c-.4.1-.8.3-1.3.4-1 .2-2.1.2-3.2.4s-2.3.3-3.4.6c-1.5.4-1.9 1-1.9 2.6 0 1.4-.4 2.8-.9 4.1-2.1 4.9-8.5 8.3-13.2 7.3-.6-.1-1.1.1-1.6.5-1.7 1.6-3.5 3.3-5.3 4.8-3 2.7-6.1 5.3-9.7 7.1-.3.1-.5.2-.8.4l-1.2-3.5c.3-.3.6-.5.9-.8.5-.5.7-1.2.7-1.9-.1-1.2-1.2-2.4-2.4-2.6-1.1-.3-2.3.3-3 1.3-.4.6-.5 1.2-.1 1.8.3.4.5.8.9 1 1 .8 1.2 1.8.7 3-.1.2-.1.5-.2.7-.6 1.8-1.2 3.6-1.7 5.4-.4 1.3-.9 2.7-1.3 4-.3.9-.9 1.4-1.8 1.6-.8.2-1.7.4-2.5.8-1.4.6-2.7 1.3-4 2-.6.3-1.2.8-1.5 1.6.9.4 1.7-.1 2.4-.2.8-.1 1.7-.3 2.6-.1-.3.8-.9 1.3-1.5 1.7-1.9 1-3.4 2.7-4.8 4.3-.3.4-.6.7-1.1 1.2 1.3-.2 2.5-.7 3.7-.6-2.5 2.7-4.7 5.6-6.5 8.9 1-.1 1.8-.1 2.9-.2-.8 1.1-1.5 2-2.1 2.9l-1.8 3h-.3c.8-1 .1-1.5-.4-2.1-1.6-1.9-3.2-3.7-4.4-5.8-.6-1.1-1.2-2.3-2-3.3-.4-.5-.8-.9-1.4-1.1-2-.7-4-.6-6 .1-.9.3-1.5.8-2 1.6-1 1.3-2.1 2.7-3.2 4-3 3.2-6 6.4-9.4 9.2-1.3 1.1-2.5 2.2-4.1 2.7-1.8.6-3.3 1.7-4.5 3.2-2.8 3.3-5.1 6.9-7.4 10.5-.1.1-.1.2-.1.4 1.3.4 2.6.3 3.9 0 1.3-.4 2.6-.5 3.9-.5a8.33 8.33 0 0 0 2.2-.3c1.3-.4 1.9-1.4 2.1-2.7.1-.8.4-1.7.7-2.5h1c1.8.1 1.8.1 2.3-1.6 0-.1.1-.2.1-.4.3-1.4 1.1-2.5 2-3.5.8-.8 1.5-1.6 2.4-2.3l5.4-4.7c1.7-1.5 3.4-2.9 5.3-4 2-1.1 2.9-.9 4 1.1.5 1 1 2 1.6 3 1.5 2.6 3.8 3.6 6.7 3.5.2-.5.4-.9.6-1.4.2 1 .1 1.9.5 2.7.5.2.7 0 .9-.4.4-1 1.2-1.7 2.3-2.3-.2.8-.4 1.4-.5 2-.1.7-.1 1.3-.1 2 1.8 1.2 7.8 3.9 9.3 4.2 0-.2.1-.3.1-.5a15.69 15.69 0 0 1 2.3-7c.4-.7 1-1.3 1.5-1.9.2-.3.5-.5 1-.5l-3.3 11.3a11.64 11.64 0 0 1-1.5-.6l-14.7-6.3c-1.7-.7-3.1-1.7-4.5-3l-1.1-1.1c-1.6-1.4-3.5-1.5-5.2-.2-1.1.8-1.8 1.8-2.4 2.9s-.7 2.2-.5 3.4l1 8.6c.2 2.4.6 4.7.7 7.1.1 2.5 0 5.1-.1 7.6-.1 1.6-.4 3.3-.6 4.9-.1.9.1 1.6.5 2.4 1 1.8 1.7 3.6 2.1 5.6.3 1.5.3 3.1.3 4.6 0 .4 0 .7.1 1.3.4-.3.6-.4.8-.6.9-.9 1.9-1.7 2.8-2.7.8-.9 1.7-1.8 2.4-2.8 1.2-1.9.9-3.9-.7-5.5-.4-.4-.8-.7-1.2-1.1.3-.5.5-.8.8-1.2.2-.4.5-.8.7-1.1s.3-.6.1-1c-.1-.2-.1-.5-.2-.7-1.4-4.1-2-8.4-2-12.7 0-2.4.2-4.8.4-7.2 0-.6.2-1.2.3-1.9.4.1.7.1 1 .2.8.2 1.5.5 2.3.8 3.9 1.6 7.6 3.6 11.4 5.6 5 2.7 9.8 5.6 14 9.5.3.3.7.5 1.2.5 1.2 0 2.4-.3 3.5-.8.9-.4 1.4-1.1 1.6-2.1.1-.6.1-1.2.1-1.7 0-1.4 0-2.9.1-4.3 0-.8.3-1.4 1.2-1.8l-1 9.7c-1.5.3-2.8 1-3.9 1.8-.7.5-1.5.5-2.2 0-.6-.4-1.2-.8-1.8-1.3-1.5-1.1-2.9-2.3-4.4-3.4-2.1-1.6-4.7-2.6-7.2-3.7.3 3.8.7 7.4 1.8 11.1.7-1.3 1.4-2.3 2.1-3.5.5.7 1 1.3 1.4 1.9s.8 1.2 1.2 1.7a11.51 11.51 0 0 0 1.4 1.7l1.5 1.5c.5.5.9 1.1 1.7 1.4l.3-2.4c.1 0 .1-.1.2-.1 3 2.9 5.9 6 9.3 8.6 0-1.2-.5-2.2-.5-3.4.2.1.3.1.3.2 5.4 3.6 11.2 6.6 17.1 9.4 7.7 3.8 15.4 7.6 22.9 11.8.1.1.3.1.5.2.7-1.4.9-2.9.7-4.4-.2-1.4-.5-2.8-.8-4.2-.1-.3-.1-.7-.1-1h.2c.1.4.3.8.4 1.2.9 4.4 1.2 8.8 1.4 13.2.2 5.2.6 10.4 1.4 15.5.4 2.7 1 5.5 2 8 2.1 5.2 4.9 10 8.4 14.4 2.1 2.7 4.2 5.4 6.5 7.9 1.1 1.2 1.6 2.6 1.7 4.2.3 5.6.5 11.2.2 16.8-.2 3.7-.6 7.3-1.6 10.9-.4 1.5-1 2.9-1.9 4.2-.4.6-1 1.1-1.7 1.3-.8.2-1.2.6-1.5 1.4-.6 1.6-1.3 3.2-1.9 4.8-.1.2-.2.5-.3.7.2.1.3.1.3.1h7.6c.3 0 .7-.1 1-.2-.1-1-.3-1.8-.3-2.7s.1-1.8.1-2.7c2-.4 3.9-.7 5.8-1l-.3-4.3c-.1-1.2-.2-2.4-.2-3.6.1-2 .3-4 .5-6.1.3-2.6.5-5.3 1.1-7.8 1-4.6 2.2-9.2 3.4-13.8l.3-1.5c.1-.9-.2-1.6-.9-2.2-.3-.2-.6-.5-.9-.7-1.1-.8-2-1.7-2.7-2.7-2-3-3.2-6.2-3.5-9.8-.3-4 .4-7.8 1.8-11.5 1.3-3.3 2.9-6.3 4.7-9.3 1.5-2.5 3.1-4.9 4.1-7.7 0-.1.1-.1.2-.3l-.9 3.7c.9-.5 1.6-.9 2.4-1.4 0 .3 0 .5.1.6.2 1.6.3 3.1.5 4.7.1 1.1.8 1.9 1.7 2.6.3-1 .5-1.9.7-2.7.6.5 1.1.9 1.6 1.4.9.8 1.8 1.5 2.9 1.9 1.4.5 2.7.1 3.7-.9.5-.4.9-.9 1.3-1.4.1-.1.2-.3.4-.6l-2.8 1c-1.5.5-2.4.1-3-1.4-.4-.9-.6-1.8-.8-2.8-.3-2.1-.5-4.3-.9-6.4-1-5.7-3.2-10.9-6.1-15.7-3.6-5.9-8.2-10.9-13.3-15.5-3.8-3.4-7.9-6.3-12.2-9.1l-5.4-3.6c-6.3-4.2-11.9-9.1-17.1-14.5-3.9-4.1-6-9-7.6-14.2v-.1c.1-.1.2-.2.3-.2l8.8-6.7c.9-.7 1.7-1.1 2.8-.5.7.3 1.4.2 2.1-.1 1.2-.6 1.8-1.9 1.7-3.1-.2-1.4-1.3-2.5-2.6-2.8-1.3-.2-1.9.1-2.4 1.4-.3 1.1-.7 2.1-1.1 3.2-2.3-.2-4.5-.1-6.8-.4.5-.6.8-1 1.1-1.4 2-2 3.8-4.3 5.4-6.7a55.71 55.71 0 0 0 8.5-17.5c1.2-4.5 1.3-9.1 1.3-13.7 0-.3-.1-.6-.1-.9 0-.5-.3-.8-.8-.9-.7-.2-1.4-.3-2.1-.5-.8-.2-2.3-1.1-2.8-1.8.4 0 .7.1 1 .1 1.1 0 2.2.1 3.4 0 2.4-.1 4.6-1 6.7-2.1 1.4-.7 2.9-1.2 4.4-1.3l2.3-.3c-.4-.6-.8-.6-1.3-.6-1.8.2-3.3-.4-4.8-1.3-1.4-.8-2.7-1.7-4-2.5-1-.6-2.1-1.2-3.2-1.7-1.3-.6-2.6-.8-4-.4-1.2.3-2.5.5-3.7.7-.6.1-1.2.2-2 .3.2-.6.6-.8 1-1 .6-.2 1.2-.5 1.8-.6 1.6-.3 3.3-.5 5.1-.7-.3-.6-.9-.9-1.4-1.2-.6-.3-1.1-.7-1.4-1.4-1.1-2.5-1-5.2 1.5-7.2 1.2-1 2.6-1.6 4-2.1 1.7-.5 3.4-.9 5.1-1.3 4.8-1.1 9.6-1.6 14.5-1l11.7 1.6c8.4 1.3 16.8 2.8 25.2 3.7 2.9.3 5.9.5 8.9.1 2.6-.4 5.2-.8 7.7-1.6 3.8-1.2 7.3-2.9 10.7-4.9 2.7-1.6 4.9-3.8 7.2-5.9.9-.8 1.6-1.8 2.4-2.8 2.8-3.3 5-6.9 6.3-11.1.5-4.3 1.2-7.6 1.1-11zM182.2 150a3.08 3.08 0 0 1-3-3c0-1.6 1.5-3 3.3-3 1.5 0 2.7 1.3 2.7 3s-1.3 3-3 3zm17 40.6c.9 0 1.6.8 1.6 1.8s-.8 1.7-1.8 1.6c-.9 0-1.7-.9-1.7-1.8.1-.8 1-1.6 1.9-1.6zm-12.7-8.9c.8 0 1.5.8 1.5 1.6s-.6 1.3-1.6 1.3c-.9 0-1.2-.3-1.2-1.4 0-.9.5-1.5 1.3-1.5zm-13.3-7.6c.7 0 1.3.7 1.3 1.5s-.6 1.4-1.5 1.5c-.8 0-1.5-.6-1.5-1.4.1-.8.9-1.6 1.7-1.6zm-15.8-5.3c0-.9.5-1.6 1.3-1.6s1.4.7 1.4 1.6-.5 1.3-1.4 1.3c-.7.1-1.3-.5-1.3-1.3zm28.7 32.3c-.3-.2-.6-.3-.9-.5l-25.1-14.8c-1-.6-2-1.1-3-1.7-.4-.3-.9-.6-.8-1.2.7-.2 1.1.2 1.6.4l27.3 15.6c.7.4 1.4.7 2.1 1.2-.4.3-.8.7-1.2 1zm7.4-6c0 .1 0 .1.1.2-1.6 1.3-3.3 2.6-4.9 3.8l-.6-.3-29.5-16.7c-2.1-1.2-1.9-.6-1.2-3 .4-1.5.9-3 1.4-4.5.1-.4.3-.7.5-1.1h.2l2.9 7.7 9.5-2.9 1.5 11.4c3.8-1.1 7.6-2.4 11.5-3.6l.1 8.5c2.9.3 5.7.4 8.5.5zm14.1 105.5c-.4-.7-.6-1.5-.5-2.3a24.06 24.06 0 0 1 1.2-6.5c.3-.9.3-1.7.2-2.7-.3-1.6-.5-3.2-.7-4.8-.3-3.1-.4-6.2-.6-9.3-.1-1.1-.1-2.1-.2-3-1.9-1.7-3.9-2.8-6.1-3.8s-4.4-1.9-6.6-2.8c-.3.5-.6 1-.8 1.4-1.6 3-2.2 6.3-2.4 9.7-.2 4.8 1 9.3 3.3 13.5.9 1.7 1.9 3.3 2.9 5 .6 1 1.1 2 1.6 3.1.3.6.4 1.3.5 2 .1.9-.2 1.6-.9 2.1-.5.4-1.1.8-1.7 1-1.1.4-2.2.8-3.3.9a50.5 50.5 0 0 1-5.6.6c-4.3.3-8.5.6-12.8.7-3.3.1-3.3 0-5.7 2.1-1.6 1.3-3.3 2.4-5.3 3.1-.3.1-.6.2-.9.4 1 1 2.6 1.6 10.6 4.2.9-1.3 1.8-2.7 2.8-4 .7.5 1.2.9 1.8 1.3s1.1 1 1.8 1c1.2-1.7 2.9-2.5 4.8-2.9 1.5-.3 3-.6 4.5-.7 4.2-.2 8.5-.3 12.7-.4 1.2 0 2.3-.2 3.3-.8.4-.2.7-.4 1.1-.6 1.2-.6 2.4-1.3 3.8-2-.3-.8-.5-1.5-.9-2.2-.7-1-1.3-2.1-1.9-3.3zm32.6-197.1c.5.3 1 .6 1.5.8.9.4 1.8.6 2.6 1 1.1.5 2.1 1 3.1 1.5.6.4 1.2.9 1.5 1.6l4.1 9c.3.6.4 1.3.2 2l-.6 3.1c.4.1.7.2 1.1.3l5 .9c1 .2 1.8-.1 2.5-.9 3.2-3.7 5.3-7.9 6.3-12.6 1.1-4.9 1.6-10 1.1-15.1a29 29 0 0 0-1.2-6c-1.9-5.6-5.1-10.6-8.9-15.2-1.9-2.3-4.4-4-6.9-5.6-.6-.4-1.2-.1-1.2.7 0 .2.1.4.1.7.2.8.7 1.3 1.1 1.9l4.8 5.6c1.3 1.6 2.5 3.2 3.3 5.1.4 1 .6 2 .9 3 .1.4-.1.8-.4 1.1-1 1-2 2.1-2.9 3.1-.3.4-.7.5-1.2.5-1.8-.1-3.4-.6-4.9-1.5-.8-.5-1.6-1.1-2.4-1.7-1.2-.8-2.3-1.7-3.6-2.6-.3.2-.5.4-.7.5-.7.6-.8.9-.3 1.7.4.5.8 1 1.3 1.4 2.6 2 4.8 4.4 7 6.9.5.5 1 1.1 1.3 1.8.7 1.3 1.3 2.7 1.9 4.1.1.3.2.7.1 1-.2 1.3-1 2.2-2.4 2.5-1.6.4-3.2.1-4.8-.3-2.1-.5-4.1-1.2-6-2.2-.6-.3-1.1-.5-1.8-.3-.6.2-1.1.5-1.7.7.3.8.6 1.2 1.1 1.5zm-27.3 25.1c-.5.1-1 .1-1.5.1-1.4 0-2.8-.1-4.2 0-.7 0-1.4.1-1.9.5-1.8 1.1-3.5 2.4-5.2 3.6.2.7.4 1.4.5 2.1 1.6-.2 3.1-.4 4.6-.7 3.8-.6 7.6-.8 11.4-.4l15.4 1.4c2.4.2 4.9.2 7.3 0 3.5-.4 6.9-1.4 10.3-2.5 1-.3 1.8-1 2.4-1.8-.5-.8-1.2-1.2-2-1.2-1.2-.1-2.4-.1-3.6-.1a10.68 10.68 0 0 0-2.5.3c-.6.1-1-.1-1.2-.6-.5-.9-1.3-1.3-2.3-1.3-.5 0-1-.1-1.4-.1h-1.9c.1.9.3 1.8.4 2.9-.4 0-.6.1-.8.1-3.6 0-7.2 0-10.8-.1-1.8 0-3.5-.2-5.2-.7-1-.3-1.6-.8-1.6-1.9 0-.8-.4-1.3-1-1.8-.2-.2-.4-.4-.7-.5s-.6-.3-.9-.3c-.9 0-1.8.3-2.7.7 0 .4.1.9.1 1.3.1.4-.2.8-1 1zm-45.5-9.8c3.2 4.7 7.5 8.2 12.6 10.5l7.7 3.3c.5.2 1 .5 1.4.7 0 .8-.1 1.5-.1 2.3 1.2-.2 2.2-.3 3.2-.5.2-1.2.2-2.3 0-3.4-.2-1.5-1-2.6-2.4-3.2-.8-.4-1.7-.7-2.5-.9-3.3-.9-6.5-2-9.4-3.8-2.8-1.7-5.4-3.7-7.6-6.2l-5.4-6.3-.6-.6c0 .5.1.8.1 1 .3 2.6 1.5 4.9 3 7.1zm16.3 15.7c-.3-.3-.8-.6-1.2-.8l-2.1-.6c-.9-.2-1.8-.3-2.8-.4-.8-.1-1.4-.5-1.8-1.3-.3-.8-.8-1.5-1.2-2.2-1 .1-1.2.3-1.2 1.2.1 2.6.9 5.1 2.4 7.2.9 1.3 1.6 1.5 3.1.9l6-2.2c.2-.1.4-.1.6-.2 0-.2 0-.3-.1-.3-.7-.1-1.2-.8-1.7-1.3zm-1.4 10.5c-1.2 0-2.2 1-2.2 2 0 1.1 1 2.1 2.1 2.1s2-.9 2-2c0-1.2-.9-2.1-1.9-2.1z" fill-rule="evenodd"/></g></svg>