<?xml version="1.0" encoding="utf-8"?>
<!-- Generator: Adobe Illustrator 23.0.0, SVG Export Plug-In . SVG Version: 6.00 Build 0)  -->
<svg version="1.1" id="Layer_1" xmlns="http://www.w3.org/2000/svg" xmlns:xlink="http://www.w3.org/1999/xlink" x="0px" y="0px"
	 viewBox="0 0 400 400" style="enable-background:new 0 0 400 400;" xml:space="preserve">
<style type="text/css">
	.st0{fill:#101006;}
	.st1{fill-rule:evenodd;clip-rule:evenodd;fill:#FCB600;}
</style>
<circle class="st0" cx="200" cy="200" r="191.5"/>
<g id="Layer_2">
	<rect x="0" class="st0" width="400" height="400"/>
</g>
<g>
	<path class="st0" d="M207.8,0.2C147.8-2,96.1,19.1,54.7,62.7C18.3,101.1,0.1,147.4,0,200.4C-0.2,310.2,89.4,400.6,199.8,400
		c110.7,0.7,201.1-89.8,200.2-201.1C399.1,87.3,311,3.9,207.8,0.2z M200.1,381.2c-99,0-182.2-80.6-180.4-184.7
		C21.4,103.1,98.5,16.1,209,20.2c88.8,3.2,174.5,78.3,171.9,185.9C378.6,300.3,300.7,381.2,200.1,381.2L200.1,381.2z"/>
	<path class="st1" d="M306.7,93.8V91l-0.3-3.1c-1.6-8.3-5.4-15.3-11.3-21.3c-1-1-2-2.1-3-3.2c-0.4-0.4-0.7-0.5-1.2-0.3
		s-0.7,0.6-0.6,1.1s0.3,1,0.6,1.5s0.7,0.9,1.1,1.4c1.4,1.7,2.7,3.4,4,5.2c1.2,1.7,2.1,3.5,2.6,5.6c0.6,2.4,0.5,4.7-0.5,6.9
		c-0.8,1.9-2.3,2.7-4.3,2.5c-1.2-0.1-2.4-0.5-3.5-1.1c-2.2-1.1-4.2-2.5-6-4.2c-0.2-0.2-0.5-0.4-0.7-0.6c-0.3-0.2-0.7-0.4-1.1-0.1
		c-0.3,0.3-0.3,0.7-0.1,1c0.3,0.6,0.7,1.2,1.2,1.6c0.8,0.6,1.6,1.2,2.5,1.7c2.3,1.4,4.3,3.1,6.2,5.1c1.7,1.8,3,3.8,3.6,6.2
		c0.7,3-0.3,5.5-2.5,7.6c-1.5,1.3-3.2,1.5-4.9,0.6c-0.8-0.4-1.5-0.9-2.2-1.6c-1.6-1.5-3.2-3.1-4.4-5c-0.7-1.1-1.8-1.4-2.9-1.7
		c-0.4,0.8-0.2,1.4,0.1,2c0.5,0.9,0.9,1.8,1.5,2.7c1.8,2.9,3,6.1,3.1,9.5c0.1,2.7-0.2,5.3-1.4,7.7c-1.6,3.1-4,5.1-7.6,5.5
		c-0.8,0.1-1.7,0.1-2.5,0.2h-0.7c-0.1-0.7-0.2-1.4-0.2-2c0-3,0.4-5.9,0.8-8.8c0.5-2.9,1.7-5.4,3.5-7.6c0.5-0.6,0.9-1.3,1.3-2
		c0.1-0.2,0.1-0.4,0.1-0.7c-1.2,0-2,0.5-2.7,1.3s-1.4,1.7-2,2.6c-2.4,3.5-4.4,7.2-5.9,11.3c-0.5,1.4-1,2.8-1.7,4.1
		c-1.3,2.5-3.2,3.4-6,3.1c-1.8-0.2-3.7-0.4-5.5-0.7l-12-2.1c-0.3-0.1-0.6-0.2-0.9-0.2c0-0.1,0-0.1,0.1-0.2h1.5
		c0.7-0.1,0.8-0.2,0.7-0.9c0-0.7-0.1-1.4-0.1-2.1c0.1-2.2,0.6-4.4,1-6.6c0.3-1.4,0.6-2.8,0.8-4.2c0.1-0.4,0.2-0.9-0.2-1.3
		c-0.5,0.1-0.8,0.5-1.1,0.9c-1.3,1.4-2.3,3.1-2.9,5c-0.8,2.6-1.5,5.3-2.2,7.9v0.3c0.4,0.3,0.9,0.6,1.3,0.9c0,0.1,0,0.1-0.1,0.2
		l-8-1.3c-0.1-0.5-0.2-1-0.2-1.4c0-1.8,0-3.7,0.1-5.5c0.2-2.9,0.2-5.7-0.9-8.5c-1.9-4.7-4.3-9.1-7.1-13.4c-0.5-0.8-1.2-1.4-1.9-2
		c-0.6-0.5-1.2-0.9-1.9-1.4l-0.6-0.3c-0.5,1.1-0.4,1.4,0.3,2.3c2.8,3.5,4.9,7.5,6.2,11.8c1.1,3.5,1.4,7.1,1.3,10.8
		c0,0.9-0.2,1.8-0.3,2.7c-0.3,1.8-1.4,2.9-3.1,3.4l-1.2,0.3c-1.6,0.1-3.2,0.2-4.8,0.2h-2.6c0.1-0.2,0.2-0.3,0.2-0.4
		c0.6-0.2,1.2-0.4,1.9-0.6l-0.3-1.5c-0.5-1.6-1.3-3.1-2.3-4.5c-1.6-2.2-3.3-4.4-5-6.5c-1.4-1.7-2.9-3.2-4.3-4.8
		c-0.2-0.3-0.5-0.5-0.8-0.6c-0.2-0.1-0.6-0.1-0.8,0s-0.3,0.6-0.2,0.8c0.2,0.5,0.5,1,0.9,1.3c2.2,2,3.7,4.4,4.7,7.1
		c1.2,3.2,2.2,6.4,3.4,9.8c-0.4,0.1-0.7,0.3-1,0.3c-2,0.2-4,0.8-5.8,1.6c-2.2,0.9-4.4,1.9-6.5,3c-1.2,0.6-2.3,0.7-3.5,0.2
		c-0.9-0.4-1.8-0.8-2.7-1.3c-1.7-1-3.2-2.3-4.7-3.6c-2.6-2.3-4.9-4.8-6.5-7.8c-1.1-2-1.9-4-1.9-6.3c0-0.2,0-0.4-0.1-0.5
		c-0.6-0.5-1.1-1-2-1.3c0.1,1.4,0.1,2.7,0.2,4c0,1.8,0.5,3.5,1.2,5.1c1.1,2.4,2.5,4.7,4.3,6.7l6.6,7.3c1,1.2,2,2.4,2.9,3.7
		c0.2,0.3,0.5,0.8,0.4,1.2c-0.2,1.5-0.5,3-0.8,4.5c-0.4,0-0.8,0-1.1,0.1c-1.4,0.2-2.8,0.2-4.2,0.5c-3.9,0.7-7.5,2.3-10.9,4.4
		c-3,1.8-5.9,3.7-8.8,5.6c-2.1,1.4-4.4,2.4-6.8,3.1c-1.9,0.5-3.8,1.1-5.6,1.7l-3,0.9c-0.3,1.1-0.6,2.1-0.8,3.2
		c-0.1,0.3-0.1,0.7,0,0.9c0.5,1.2,1,2.5,1.6,3.8c0.6-0.2,1.2-0.4,1.7-0.6c0.6-0.3,1.1-0.5,1.7-0.5h3.2c0.2,0,0.4,0.1,0.7,0.2
		c-0.5,0.4-0.8,0.8-1.2,1.1c-0.9,0.8-1.3,1.8-1.5,2.9c-0.2,0.9,0.3,1.3,1.2,0.9c0.8-0.3,1.6-0.7,2.4-1c4.4-1.8,9-2.9,13.8-2.5
		c2.7,0.2,5.3,0.1,8-0.5c4.5-1.1,7.6-3.7,9.1-8.1c0.4-1.3,0.7-2.5,0.8-3.9c0.1-1.6,0.5-1.9,2-2.1h0.5l6.2-0.3h1.5v0.2
		c-0.4,0.1-0.8,0.3-1.3,0.4c-1,0.2-2.1,0.2-3.2,0.4s-2.3,0.3-3.4,0.6c-1.5,0.4-1.9,1-1.9,2.6c0,1.4-0.4,2.8-0.9,4.1
		c-2.1,4.9-8.5,8.3-13.2,7.3c-0.6-0.1-1.1,0.1-1.6,0.5c-1.7,1.6-3.5,3.3-5.3,4.8c-3,2.7-6.1,5.3-9.7,7.1c-0.3,0.1-0.5,0.2-0.8,0.4
		l-1.2-3.5c0.3-0.3,0.6-0.5,0.9-0.8c0.5-0.5,0.7-1.2,0.7-1.9c-0.1-1.2-1.2-2.4-2.4-2.6c-1.1-0.3-2.3,0.3-3,1.3
		c-0.4,0.6-0.5,1.2-0.1,1.8c0.3,0.4,0.5,0.8,0.9,1c1,0.8,1.2,1.8,0.7,3c-0.1,0.2-0.1,0.5-0.2,0.7c-0.6,1.8-1.2,3.6-1.7,5.4
		c-0.4,1.3-0.9,2.7-1.3,4c-0.3,0.9-0.9,1.4-1.8,1.6c-0.8,0.2-1.7,0.4-2.5,0.8c-1.4,0.6-2.7,1.3-4,2c-0.6,0.3-1.2,0.8-1.5,1.6
		c0.9,0.4,1.7-0.1,2.4-0.2c0.8-0.1,1.7-0.3,2.6-0.1c-0.3,0.8-0.9,1.3-1.5,1.7c-1.9,1-3.4,2.7-4.8,4.3c-0.3,0.4-0.6,0.7-1.1,1.2
		c1.3-0.2,2.5-0.7,3.7-0.6c-2.5,2.7-4.7,5.6-6.5,8.9c1-0.1,1.8-0.1,2.9-0.2c-0.8,1.1-1.5,2-2.1,2.9l-1.8,3h-0.3
		c0.8-1,0.1-1.5-0.4-2.1c-1.6-1.9-3.2-3.7-4.4-5.8c-0.6-1.1-1.2-2.3-2-3.3c-0.4-0.5-0.8-0.9-1.4-1.1c-2-0.7-4-0.6-6,0.1
		c-0.9,0.3-1.5,0.8-2,1.6c-1,1.3-2.1,2.7-3.2,4c-3,3.2-6,6.4-9.4,9.2c-1.3,1.1-2.5,2.2-4.1,2.7c-1.8,0.6-3.3,1.7-4.5,3.2
		c-2.8,3.3-5.1,6.9-7.4,10.5c-0.1,0.1-0.1,0.2-0.1,0.4c1.3,0.4,2.6,0.3,3.9,0c1.3-0.4,2.6-0.5,3.9-0.5c0.7,0,1.5-0.1,2.2-0.3
		c1.3-0.4,1.9-1.4,2.1-2.7c0.1-0.8,0.4-1.7,0.7-2.5h1c1.8,0.1,1.8,0.1,2.3-1.6c0-0.1,0.1-0.2,0.1-0.4c0.3-1.4,1.1-2.5,2-3.5
		c0.8-0.8,1.5-1.6,2.4-2.3l5.4-4.7c1.7-1.5,3.4-2.9,5.3-4c2-1.1,2.9-0.9,4,1.1c0.5,1,1,2,1.6,3c1.5,2.6,3.8,3.6,6.7,3.5
		c0.2-0.5,0.4-0.9,0.6-1.4c0.2,1,0.1,1.9,0.5,2.7c0.5,0.2,0.7,0,0.9-0.4c0.4-1,1.2-1.7,2.3-2.3c-0.2,0.8-0.4,1.4-0.5,2
		c-0.1,0.7-0.1,1.3-0.1,2c1.8,1.2,7.8,3.9,9.3,4.2c0-0.2,0.1-0.3,0.1-0.5c0.2-2.5,1-4.9,2.3-7c0.4-0.7,1-1.3,1.5-1.9
		c0.2-0.3,0.5-0.5,1-0.5l-3.3,11.3c-0.5-0.2-1-0.4-1.5-0.6l-14.7-6.3c-1.7-0.7-3.1-1.7-4.5-3l-1.1-1.1c-1.6-1.4-3.5-1.5-5.2-0.2
		c-1.1,0.8-1.8,1.8-2.4,2.9s-0.7,2.2-0.5,3.4l1,8.6c0.2,2.4,0.6,4.7,0.7,7.1c0.1,2.5,0,5.1-0.1,7.6c-0.1,1.6-0.4,3.3-0.6,4.9
		c-0.1,0.9,0.1,1.6,0.5,2.4c1,1.8,1.7,3.6,2.1,5.6c0.3,1.5,0.3,3.1,0.3,4.6c0,0.4,0,0.7,0.1,1.3c0.4-0.3,0.6-0.4,0.8-0.6
		c0.9-0.9,1.9-1.7,2.8-2.7c0.8-0.9,1.7-1.8,2.4-2.8c1.2-1.9,0.9-3.9-0.7-5.5c-0.4-0.4-0.8-0.7-1.2-1.1c0.3-0.5,0.5-0.8,0.8-1.2
		c0.2-0.4,0.5-0.8,0.7-1.1s0.3-0.6,0.1-1c-0.1-0.2-0.1-0.5-0.2-0.7c-1.4-4.1-2-8.4-2-12.7c0-2.4,0.2-4.8,0.4-7.2
		c0-0.6,0.2-1.2,0.3-1.9c0.4,0.1,0.7,0.1,1,0.2c0.8,0.2,1.5,0.5,2.3,0.8c3.9,1.6,7.6,3.6,11.4,5.6c5,2.7,9.8,5.6,14,9.5
		c0.3,0.3,0.7,0.5,1.2,0.5c1.2,0,2.4-0.3,3.5-0.8c0.9-0.4,1.4-1.1,1.6-2.1c0.1-0.6,0.1-1.2,0.1-1.7c0-1.4,0-2.9,0.1-4.3
		c0-0.8,0.3-1.4,1.2-1.8l-1,9.7c-1.5,0.3-2.8,1-3.9,1.8c-0.7,0.5-1.5,0.5-2.2,0c-0.6-0.4-1.2-0.8-1.8-1.3c-1.5-1.1-2.9-2.3-4.4-3.4
		c-2.1-1.6-4.7-2.6-7.2-3.7c0.3,3.8,0.7,7.4,1.8,11.1c0.7-1.3,1.4-2.3,2.1-3.5c0.5,0.7,1,1.3,1.4,1.9s0.8,1.2,1.2,1.7
		c0.4,0.6,0.9,1.2,1.4,1.7l1.5,1.5c0.5,0.5,0.9,1.1,1.7,1.4l0.3-2.4c0.1,0,0.1-0.1,0.2-0.1c3,2.9,5.9,6,9.3,8.6
		c0-1.2-0.5-2.2-0.5-3.4c0.2,0.1,0.3,0.1,0.3,0.2c5.4,3.6,11.2,6.6,17.1,9.4c7.7,3.8,15.4,7.6,22.9,11.8c0.1,0.1,0.3,0.1,0.5,0.2
		c0.7-1.4,0.9-2.9,0.7-4.4c-0.2-1.4-0.5-2.8-0.8-4.2c-0.1-0.3-0.1-0.7-0.1-1h0.2c0.1,0.4,0.3,0.8,0.4,1.2c0.9,4.4,1.2,8.8,1.4,13.2
		c0.2,5.2,0.6,10.4,1.4,15.5c0.4,2.7,1,5.5,2,8c2.1,5.2,4.9,10,8.4,14.4c2.1,2.7,4.2,5.4,6.5,7.9c1.1,1.2,1.6,2.6,1.7,4.2
		c0.3,5.6,0.5,11.2,0.2,16.8c-0.2,3.7-0.6,7.3-1.6,10.9c-0.4,1.5-1,2.9-1.9,4.2c-0.4,0.6-1,1.1-1.7,1.3c-0.8,0.2-1.2,0.6-1.5,1.4
		c-0.6,1.6-1.3,3.2-1.9,4.8c-0.1,0.2-0.2,0.5-0.3,0.7c0.2,0.1,0.3,0.1,0.3,0.1h7.6c0.3,0,0.7-0.1,1-0.2c-0.1-1-0.3-1.8-0.3-2.7
		s0.1-1.8,0.1-2.7c2-0.4,3.9-0.7,5.8-1l-0.3-4.3c-0.1-1.2-0.2-2.4-0.2-3.6c0.1-2,0.3-4,0.5-6.1c0.3-2.6,0.5-5.3,1.1-7.8
		c1-4.6,2.2-9.2,3.4-13.8l0.3-1.5c0.1-0.9-0.2-1.6-0.9-2.2c-0.3-0.2-0.6-0.5-0.9-0.7c-1.1-0.8-2-1.7-2.7-2.7c-2-3-3.2-6.2-3.5-9.8
		c-0.3-4,0.4-7.8,1.8-11.5c1.3-3.3,2.9-6.3,4.7-9.3c1.5-2.5,3.1-4.9,4.1-7.7c0-0.1,0.1-0.1,0.2-0.3l-0.9,3.7
		c0.9-0.5,1.6-0.9,2.4-1.4c0,0.3,0,0.5,0.1,0.6c0.2,1.6,0.3,3.1,0.5,4.7c0.1,1.1,0.8,1.9,1.7,2.6c0.3-1,0.5-1.9,0.7-2.7
		c0.6,0.5,1.1,0.9,1.6,1.4c0.9,0.8,1.8,1.5,2.9,1.9c1.4,0.5,2.7,0.1,3.7-0.9c0.5-0.4,0.9-0.9,1.3-1.4c0.1-0.1,0.2-0.3,0.4-0.6
		l-2.8,1c-1.5,0.5-2.4,0.1-3-1.4c-0.4-0.9-0.6-1.8-0.8-2.8c-0.3-2.1-0.5-4.3-0.9-6.4c-1-5.7-3.2-10.9-6.1-15.7
		c-3.6-5.9-8.2-10.9-13.3-15.5c-3.8-3.4-7.9-6.3-12.2-9.1l-5.4-3.6c-6.3-4.2-11.9-9.1-17.1-14.5c-3.9-4.1-6-9-7.6-14.2v-0.1
		c0.1-0.1,0.2-0.2,0.3-0.2l8.8-6.7c0.9-0.7,1.7-1.1,2.8-0.5c0.7,0.3,1.4,0.2,2.1-0.1c1.2-0.6,1.8-1.9,1.7-3.1
		c-0.2-1.4-1.3-2.5-2.6-2.8c-1.3-0.2-1.9,0.1-2.4,1.4c-0.3,1.1-0.7,2.1-1.1,3.2c-2.3-0.2-4.5-0.1-6.8-0.4c0.5-0.6,0.8-1,1.1-1.4
		c2-2,3.8-4.3,5.4-6.7c3.8-5.3,6.7-11.2,8.5-17.5c1.2-4.5,1.3-9.1,1.3-13.7c0-0.3-0.1-0.6-0.1-0.9c0-0.5-0.3-0.8-0.8-0.9
		c-0.7-0.2-1.4-0.3-2.1-0.5c-0.8-0.2-2.3-1.1-2.8-1.8c0.4,0,0.7,0.1,1,0.1c1.1,0,2.2,0.1,3.4,0c2.4-0.1,4.6-1,6.7-2.1
		c1.4-0.7,2.9-1.2,4.4-1.3l2.3-0.3c-0.4-0.6-0.8-0.6-1.3-0.6c-1.8,0.2-3.3-0.4-4.8-1.3c-1.4-0.8-2.7-1.7-4-2.5
		c-1-0.6-2.1-1.2-3.2-1.7c-1.3-0.6-2.6-0.8-4-0.4c-1.2,0.3-2.5,0.5-3.7,0.7c-0.6,0.1-1.2,0.2-2,0.3c0.2-0.6,0.6-0.8,1-1
		c0.6-0.2,1.2-0.5,1.8-0.6c1.6-0.3,3.3-0.5,5.1-0.7c-0.3-0.6-0.9-0.9-1.4-1.2c-0.6-0.3-1.1-0.7-1.4-1.4c-1.1-2.5-1-5.2,1.5-7.2
		c1.2-1,2.6-1.6,4-2.1c1.7-0.5,3.4-0.9,5.1-1.3c4.8-1.1,9.6-1.6,14.5-1l11.7,1.6c8.4,1.3,16.8,2.8,25.2,3.7c2.9,0.3,5.9,0.5,8.9,0.1
		c2.6-0.4,5.2-0.8,7.7-1.6c3.8-1.2,7.3-2.9,10.7-4.9c2.7-1.6,4.9-3.8,7.2-5.9c0.9-0.8,1.6-1.8,2.4-2.8c2.8-3.3,5-6.9,6.3-11.1
		C306.1,100.5,306.8,97.2,306.7,93.8L306.7,93.8z M182.2,150c-1.6,0-3-1.4-3-3c0-1.6,1.5-3,3.3-3c1.5,0,2.7,1.3,2.7,3
		S183.9,150,182.2,150z M199.2,190.6c0.9,0,1.6,0.8,1.6,1.8s-0.8,1.7-1.8,1.6c-0.9,0-1.7-0.9-1.7-1.8
		C197.4,191.4,198.3,190.6,199.2,190.6z M186.5,181.7c0.8,0,1.5,0.8,1.5,1.6s-0.6,1.3-1.6,1.3c-0.9,0-1.2-0.3-1.2-1.4
		C185.2,182.3,185.7,181.7,186.5,181.7L186.5,181.7z M173.2,174.1c0.7,0,1.3,0.7,1.3,1.5s-0.6,1.4-1.5,1.5c-0.8,0-1.5-0.6-1.5-1.4
		C171.6,174.9,172.4,174.1,173.2,174.1z M157.4,168.8c0-0.9,0.5-1.6,1.3-1.6s1.4,0.7,1.4,1.6s-0.5,1.3-1.4,1.3
		C158,170.2,157.4,169.6,157.4,168.8z M186.1,201.1c-0.3-0.2-0.6-0.3-0.9-0.5l-25.1-14.8c-1-0.6-2-1.1-3-1.7
		c-0.4-0.3-0.9-0.6-0.8-1.2c0.7-0.2,1.1,0.2,1.6,0.4l27.3,15.6c0.7,0.4,1.4,0.7,2.1,1.2C186.9,200.4,186.5,200.8,186.1,201.1
		L186.1,201.1z M193.5,195.1c0,0.1,0,0.1,0.1,0.2c-1.6,1.3-3.3,2.6-4.9,3.8l-0.6-0.3l-29.5-16.7c-2.1-1.2-1.9-0.6-1.2-3
		c0.4-1.5,0.9-3,1.4-4.5c0.1-0.4,0.3-0.7,0.5-1.1h0.2l2.9,7.7l9.5-2.9l1.5,11.4c3.8-1.1,7.6-2.4,11.5-3.6l0.1,8.5
		C187.9,194.9,190.7,195,193.5,195.1L193.5,195.1z M207.6,300.6c-0.4-0.7-0.6-1.5-0.5-2.3c0.1-2.2,0.5-4.4,1.2-6.5
		c0.3-0.9,0.3-1.7,0.2-2.7c-0.3-1.6-0.5-3.2-0.7-4.8c-0.3-3.1-0.4-6.2-0.6-9.3c-0.1-1.1-0.1-2.1-0.2-3c-1.9-1.7-3.9-2.8-6.1-3.8
		s-4.4-1.9-6.6-2.8c-0.3,0.5-0.6,1-0.8,1.4c-1.6,3-2.2,6.3-2.4,9.7c-0.2,4.8,1,9.3,3.3,13.5c0.9,1.7,1.9,3.3,2.9,5
		c0.6,1,1.1,2,1.6,3.1c0.3,0.6,0.4,1.3,0.5,2c0.1,0.9-0.2,1.6-0.9,2.1c-0.5,0.4-1.1,0.8-1.7,1c-1.1,0.4-2.2,0.8-3.3,0.9
		c-1.9,0.3-3.7,0.5-5.6,0.6c-4.3,0.3-8.5,0.6-12.8,0.7c-3.3,0.1-3.3,0-5.7,2.1c-1.6,1.3-3.3,2.4-5.3,3.1c-0.3,0.1-0.6,0.2-0.9,0.4
		c1,1,2.6,1.6,10.6,4.2c0.9-1.3,1.8-2.7,2.8-4c0.7,0.5,1.2,0.9,1.8,1.3s1.1,1,1.8,1c1.2-1.7,2.9-2.5,4.8-2.9c1.5-0.3,3-0.6,4.5-0.7
		c4.2-0.2,8.5-0.3,12.7-0.4c1.2,0,2.3-0.2,3.3-0.8c0.4-0.2,0.7-0.4,1.1-0.6c1.2-0.6,2.4-1.3,3.8-2c-0.3-0.8-0.5-1.5-0.9-2.2
		C208.8,302.9,208.2,301.8,207.6,300.6L207.6,300.6z M240.2,103.5c0.5,0.3,1,0.6,1.5,0.8c0.9,0.4,1.8,0.6,2.6,1
		c1.1,0.5,2.1,1,3.1,1.5c0.6,0.4,1.2,0.9,1.5,1.6l4.1,9c0.3,0.6,0.4,1.3,0.2,2l-0.6,3.1c0.4,0.1,0.7,0.2,1.1,0.3l5,0.9
		c1,0.2,1.8-0.1,2.5-0.9c3.2-3.7,5.3-7.9,6.3-12.6c1.1-4.9,1.6-10,1.1-15.1c-0.2-2-0.6-4-1.2-6c-1.9-5.6-5.1-10.6-8.9-15.2
		c-1.9-2.3-4.4-4-6.9-5.6c-0.6-0.4-1.2-0.1-1.2,0.7c0,0.2,0.1,0.4,0.1,0.7c0.2,0.8,0.7,1.3,1.1,1.9l4.8,5.6c1.3,1.6,2.5,3.2,3.3,5.1
		c0.4,1,0.6,2,0.9,3c0.1,0.4-0.1,0.8-0.4,1.1c-1,1-2,2.1-2.9,3.1c-0.3,0.4-0.7,0.5-1.2,0.5c-1.8-0.1-3.4-0.6-4.9-1.5
		c-0.8-0.5-1.6-1.1-2.4-1.7c-1.2-0.8-2.3-1.7-3.6-2.6c-0.3,0.2-0.5,0.4-0.7,0.5c-0.7,0.6-0.8,0.9-0.3,1.7c0.4,0.5,0.8,1,1.3,1.4
		c2.6,2,4.8,4.4,7,6.9c0.5,0.5,1,1.1,1.3,1.8c0.7,1.3,1.3,2.7,1.9,4.1c0.1,0.3,0.2,0.7,0.1,1c-0.2,1.3-1,2.2-2.4,2.5
		c-1.6,0.4-3.2,0.1-4.8-0.3c-2.1-0.5-4.1-1.2-6-2.2c-0.6-0.3-1.1-0.5-1.8-0.3c-0.6,0.2-1.1,0.5-1.7,0.7
		C239.4,102.8,239.7,103.2,240.2,103.5L240.2,103.5z M212.9,128.6c-0.5,0.1-1,0.1-1.5,0.1c-1.4,0-2.8-0.1-4.2,0
		c-0.7,0-1.4,0.1-1.9,0.5c-1.8,1.1-3.5,2.4-5.2,3.6c0.2,0.7,0.4,1.4,0.5,2.1c1.6-0.2,3.1-0.4,4.6-0.7c3.8-0.6,7.6-0.8,11.4-0.4
		l15.4,1.4c2.4,0.2,4.9,0.2,7.3,0c3.5-0.4,6.9-1.4,10.3-2.5c1-0.3,1.8-1,2.4-1.8c-0.5-0.8-1.2-1.2-2-1.2c-1.2-0.1-2.4-0.1-3.6-0.1
		c-0.8,0-1.7,0.1-2.5,0.3c-0.6,0.1-1-0.1-1.2-0.6c-0.5-0.9-1.3-1.3-2.3-1.3c-0.5,0-1-0.1-1.4-0.1h-1.9c0.1,0.9,0.3,1.8,0.4,2.9
		c-0.4,0-0.6,0.1-0.8,0.1c-3.6,0-7.2,0-10.8-0.1c-1.8,0-3.5-0.2-5.2-0.7c-1-0.3-1.6-0.8-1.6-1.9c0-0.8-0.4-1.3-1-1.8
		c-0.2-0.2-0.4-0.4-0.7-0.5s-0.6-0.3-0.9-0.3c-0.9,0-1.8,0.3-2.7,0.7c0,0.4,0.1,0.9,0.1,1.3C214,128,213.7,128.4,212.9,128.6
		L212.9,128.6z M167.4,118.8c3.2,4.7,7.5,8.2,12.6,10.5l7.7,3.3c0.5,0.2,1,0.5,1.4,0.7c0,0.8-0.1,1.5-0.1,2.3
		c1.2-0.2,2.2-0.3,3.2-0.5c0.2-1.2,0.2-2.3,0-3.4c-0.2-1.5-1-2.6-2.4-3.2c-0.8-0.4-1.7-0.7-2.5-0.9c-3.3-0.9-6.5-2-9.4-3.8
		c-2.8-1.7-5.4-3.7-7.6-6.2l-5.4-6.3l-0.6-0.6c0,0.5,0.1,0.8,0.1,1C164.7,114.3,165.9,116.6,167.4,118.8z M183.7,134.5
		c-0.3-0.3-0.8-0.6-1.2-0.8l-2.1-0.6c-0.9-0.2-1.8-0.3-2.8-0.4c-0.8-0.1-1.4-0.5-1.8-1.3c-0.3-0.8-0.8-1.5-1.2-2.2
		c-1,0.1-1.2,0.3-1.2,1.2c0.1,2.6,0.9,5.1,2.4,7.2c0.9,1.3,1.6,1.5,3.1,0.9l6-2.2c0.2-0.1,0.4-0.1,0.6-0.2c0-0.2,0-0.3-0.1-0.3
		C184.7,135.7,184.2,135,183.7,134.5L183.7,134.5z M182.3,145c-1.2,0-2.2,1-2.2,2c0,1.1,1,2.1,2.1,2.1s2-0.9,2-2
		C184.2,145.9,183.3,145,182.3,145L182.3,145z"/>
</g>
</svg>
