<?xml version="1.0" encoding="utf-8"?>
<!-- Generator: Adobe Illustrator 23.0.0, SVG Export Plug-In . SVG Version: 6.00 Build 0)  -->
<svg version="1.1" id="Layer_3" xmlns="http://www.w3.org/2000/svg" xmlns:xlink="http://www.w3.org/1999/xlink" x="0px" y="0px"
	 viewBox="0 0 493.2 405.7" style="enable-background:new 0 0 493.2 405.7;" xml:space="preserve">
<style type="text/css">
	.st0{fill:#282520;}
	.st1{fill:#1A1810;}
	.st2{fill:#1F1C1A;}
	.st3{fill:#221F1D;}
	.st4{fill:#4F4645;}
	.st5{fill:#38332F;}
	.st6{fill:#1F1C1D;}
	.st7{fill:#35302C;}
	.st8{fill:#1A1815;}
	.st9{fill:#1C1917;}
	.st10{fill:#48413E;}
	.st11{fill:#151515;}
	.st12{fill:#12100D;}
	.st13{fill:#2E2925;}
	.st14{fill:#0E0B0A;}
	.st15{fill:#171412;}
	.st16{fill:#110E0E;}
	.st17{fill:#2D2823;}
	.st18{fill:#23211C;}
	.st19{opacity:0.55;fill:#828485;enable-background:new    ;}
	.st20{opacity:0.86;fill:#828485;enable-background:new    ;}
	.st21{opacity:0.7;fill:#828485;enable-background:new    ;}
	.st22{opacity:0.49;fill:#828485;enable-background:new    ;}
	.st23{opacity:0.3;fill:#828485;enable-background:new    ;}
	.st24{opacity:0.52;fill:#828485;enable-background:new    ;}
	.st25{display:none;fill:#B6A366;}
	.st26{display:none;fill:#282520;}
</style>
<title>alonewebsite_header_1</title>
<polygon class="st0" points="250.8,0.2 243.6,20.4 242.2,109.5 222.6,21.9 210.4,13 201,25.4 189.1,15 184.5,28.3 209.7,113.9 
	173.6,41.6 161.3,33.2 160.7,45.1 190.9,113.9 160.7,66.7 149,60.3 147,70.7 135,60 132.8,71.4 151.2,140.6 112.3,85.4 93.6,76.1 
	93.6,92.3 154.9,180 97.8,120.9 78.4,112.5 81.3,123.8 141.1,188.8 70.4,144.5 47.4,137.6 53.2,149.4 89.2,172.1 79.1,170.1 
	81.3,177 105.1,192.2 104.4,194.7 75.5,179.4 66.1,177.9 69.8,183.9 131.1,221.3 77.6,198.9 63.6,195.5 69.8,204.1 132.2,238.1 
	135.3,225.3 149.2,219.3 165.8,220.1 168.7,255.3 254,253.8 "/>
<polygon class="st0" points="250.7,0 257.1,19.1 260.4,110.8 279.1,21.2 290.3,12.4 297.9,23.1 291.5,56.9 300.7,24.3 312.1,15.7 
	315.5,26.7 294.3,115.4 327,43.2 339.3,34.2 342.2,46 310.6,115.4 339.9,66.7 352.6,59.3 354.5,69.3 364.3,60.2 368.2,74.1 
	350.3,139.2 390.5,83.5 407.3,75.9 407.3,90.8 346.3,180 403.3,119.5 422,112.6 416,126.8 361.2,185.2 436,140.8 453.3,138.3 
	444.8,150.2 410.4,171 421.7,170.4 418.5,176.9 371.4,211.1 422.6,179.4 433.4,176.6 430,184.5 375.2,219 421.1,197.6 436.7,195.3 
	431.1,204.8 368.5,237.8 367.4,226.7 349.1,218.2 334.3,219.1 331.5,255 253.1,253.5 "/>
<polygon class="st1" points="91.2,357.6 71.3,357.6 89.4,321.4 103.4,288.9 114,264.6 121.2,259.6 128.9,257.4 134.7,258 114,357.6 
	"/>
<polygon class="st1" points="413,357.6 432.1,357.6 413.6,322.6 399.5,290.2 389,265.9 381.8,261 374.1,258.6 364.7,259.2 
	389.3,357.6 "/>
<polygon class="st2" points="91,357.6 123.5,293.1 130.7,266.6 130.9,227 159.1,226.7 155.2,289.7 251.2,289.7 249.9,357.6 "/>
<path class="st3" d="M155.8,275.3c2.4,0,187.3-1,187.3-1l3.5,16.7l-192.8,0.5L155.8,275.3z"/>
<polygon class="st4" points="335.2,219.6 343.4,227 367.6,226.8 350.6,219.2 "/>
<polygon class="st5" points="331.7,255.5 344.3,276.7 343.4,227 335.2,219.6 "/>
<polygon class="st6" points="183.4,259.7 138,218.3 130.4,222.3 126.5,219.6 133.3,214.4 121,204.1 122.8,202.8 132.9,211 
	136.9,213.1 149.8,207 153.8,210.4 144.4,215.1 193.1,259.2 "/>
<polygon class="st6" points="187.3,227.4 168.2,190 175,189.2 173.6,184.1 164.3,184.6 157.1,168.8 150.9,169.3 158.8,189.8 
	156.7,196.1 "/>
<polygon class="st6" points="320.8,189.8 327.3,191.5 336.3,176.4 333.4,174.5 335.9,172.3 344.3,176.2 342.8,178.2 338.5,178.9 
	330.9,192.5 339.9,208 323,206.5 310.4,231.1 315.7,202.3 "/>
<polygon class="st6" points="308.2,259.7 338.5,236.6 332.6,228.9 294.8,260.1 "/>
<polygon class="st6" points="333.1,131.2 333.1,130.9 337,116.9 340.6,114.7 333.6,113.5 334.2,116 333.4,119 329.3,131.2 
	318.6,130.4 316.8,134.6 326.9,136.3 308.8,177.2 314.7,188 320.5,175.2 333.1,137.1 342.4,137.1 343.2,134.4 "/>
<path class="st6" d="M300.6,138.3l-28.1-4.4l-1.1-6.1h0.8v-18.3c1.5-0.8,3.1-1.6,4.5-2.6c0.8-0.6-11.5-0.4-11.5-0.4l3.1,3.1v18.2
	h0.9l-0.1,6.9l-29.2,3.4l3.6,4.2l23-1.7l0.3,39.4l7.9,1.2l-1.4-41.3l24.9,4L300.6,138.3z"/>
<polygon class="st6" points="216.2,170.8 212.2,136.3 202.1,135.9 201.5,130.9 212.2,130.2 211.1,108.2 215.1,108 218.4,127.7 
	229.2,129.4 227.8,136.3 222.7,137.4 223.4,168.6 "/>
<path class="st6" d="M212.2,114.3l-2.9-1.6l-0.2-2.3c0,0,0.5-2.1,1.1-2.1c0.5,0,4.8-0.2,4.8-0.2l1.4,5.3L212.2,114.3z"/>
<path class="st6" d="M188.4,168.8c0-1-7.2-21.2-7.2-21.2l-18.8,1v-4.1l18-1.7l-5.4-25.1l3.6,0.2l5,11.6l6.5,10.6
	c0,0,14-2.9,15.1,0.2c0.7,1.8,0,3.7-1.8,5.2l-9.3,1.2l-1.1,21.9L188.4,168.8z"/>
<polygon class="st6" points="180.1,122.2 181.9,120 180.6,117.9 175,117.6 171.6,120 174.4,122.8 176.9,123.1 "/>
<polygon class="st7" points="358.1,207.5 368.9,213.2 372.4,210.7 361.4,203.1 378.6,187.6 381.4,186.5 381.9,185 380.7,183 
	378.3,182.5 376.1,183.1 374.8,185.3 355.7,199.6 344,192.2 339,196.1 348.3,201.3 285.3,253.8 301.1,254.4 "/>
<polygon class="st7" points="310.6,119.5 316.6,121 314.4,124.2 311.4,126.7 309.4,147.7 328.7,152.7 328.7,157.8 309.6,156.5 
	285.4,254.4 271.1,254.1 295.3,154.7 276.2,152.5 276,149.2 299,147.1 307.6,125.2 306.5,119.8 "/>
<path class="st7" d="M264.1,252.9l-5.4-108.2l8.1,2.9l-1.1-7.1l-11.2-1.9l-2.2-20.1l4.3-0.9l-4.5-2.8l-4.3-0.1l-4.8,3.8l3.6,0.1
	l0.3,20.6c0,0-12.1,2.9-12.3,3.3c-0.2,0.4,1.1,6.1,1.1,6.1l8.3-2.9l5.8,107.6L264.1,252.9z"/>
<polygon class="st7" points="226.6,253.8 203.2,154.2 217.9,152.5 215.9,148.4 200.2,149.3 196,128.8 198.8,127.9 195.2,124 
	184.3,125.8 184,130.5 187.7,129.7 192.9,150.2 175.9,152.3 177.6,156.5 192.6,155.3 216.5,254.2 "/>
<polygon class="st7" points="199.9,233.1 161,189.8 168.8,186.3 167.1,183.6 156.8,186.5 138.3,169.3 139.7,168.5 135.9,165.4 
	131.7,167.2 134.1,171.8 135.9,171.2 151.2,188.9 143.1,194 145.3,196.4 153.4,193.4 203.4,250 "/>
<polygon class="st8" points="262.7,253.5 262.7,222.3 273.9,222.3 274.6,219.1 266.2,215.7 258.4,214.9 257.2,196.9 258.5,195.7 
	258.6,194 255.1,192.5 252.5,192.3 249.6,193.2 247.9,194.7 249.1,196.4 250.4,197.1 250.9,215.1 245.7,215.9 239.1,217.8 
	235.4,219.8 234.9,223 247.1,223 249.3,253.5 "/>
<polygon class="st8" points="291.6,254.2 306.8,198.8 292.8,197.3 294.6,190.2 311.8,192.1 319.7,168.1 316.6,167.5 325,161.2 
	328.5,169 326.1,169 319.4,192.9 335.1,194.9 333.6,202.2 317.5,199.9 304.3,254.1 "/>
<polygon class="st8" points="242.3,253.5 235.7,171.7 249.2,170.9 248,163.3 234.7,164.2 227.8,136.1 230.9,135.5 230.1,131.7 
	217.9,132.4 218.6,136.1 222.4,135.9 223.8,164.7 208.7,166 210.1,173.1 225.4,171.9 232.7,253.8 "/>
<polygon class="st8" points="216.6,254.1 202.1,192.5 216.9,190.3 213.3,184.2 199.6,184.8 195.3,173.1 193.8,168.6 188.7,168.9 
	192.4,186.5 176.1,190.3 175.5,195.2 193.5,192.8 204.5,254.4 "/>
<polygon class="st9" points="280.7,253.7 283.3,182.7 287.9,182.4 293.4,175.5 279.2,174.7 278.2,149.4 281.8,149.4 283.3,142 
	269.6,142 269.1,149.4 275,149.4 272.4,174.5 257,175.5 260.1,181.2 267.1,182.4 267.3,253.5 "/>
<polygon class="st10" points="156.1,275.6 343.2,274.8 332,254.7 253.3,253.5 168.9,255.2 "/>
<polygon class="st3" points="251.2,275.5 343.1,275.5 344.9,290.5 250.8,291.4 "/>
<polygon class="st4" points="333.8,219.2 342.3,227 367.8,226.8 349.2,218.1 "/>
<polygon class="st2" points="368,226.7 373.4,294.6 400.7,357.6 249.7,357.6 249.9,291.1 343.4,290.6 342.3,227 "/>
<polygon class="st5" points="330.6,255.5 343.1,274.9 342.3,227 334,219.3 "/>
<polygon class="st5" points="165.8,220.1 158.4,227 155.7,276.2 169.2,255.4 "/>
<polygon class="st4" points="146.5,218.7 166.7,219.9 158.9,227 131.2,226.9 "/>
<polygon class="st0" points="187.2,357.6 180.5,309.3 188,297.4 194.8,308.2 203.3,357.6 "/>
<polygon class="st0" points="232,357.6 229.4,311.3 236.5,295.9 244.6,309.2 249.5,357.6 "/>
<polygon class="st0" points="275.9,308.6 269.7,318.3 272.9,355.5 286.6,355.4 282.6,317 "/>
<polygon class="st11" points="307.6,310.6 308.8,307.1 319.1,308 321.1,301.8 325.9,303.9 326.6,308 340.3,309.1 339.9,312.4 
	328,311.9 325.6,320.2 319.7,319.9 320.4,312.7 "/>
<polygon class="st11" points="161.8,315.2 153.3,315.2 153.1,311.3 160.3,311.4 163.5,309.1 163.2,300.1 160.3,297.8 161.1,295.2 
	164.2,294.6 168,295 170.4,298.2 167.8,300.1 169,311.6 178.1,310.1 179.3,314.2 168.6,315.8 "/>
<polygon class="st11" points="203.7,311.4 210.1,311.1 210.4,301.9 208.2,300.3 208.2,298.2 211.6,297.5 215.2,298.6 215.4,300.6 
	214,301.9 214.2,310.3 223.6,312.2 228.7,313.6 227.7,317 216.6,316.7 218.2,327.4 211.8,328.3 210.6,318 209.9,315.7 204.3,315.8 
	"/>
<polygon class="st11" points="256.9,357.6 255.3,319.8 249.1,316.2 249.1,314.2 256.3,314.6 256.3,299.6 251.5,299.1 251.7,296.8 
	264.6,297.1 264.4,300 259.4,299.7 260.6,313.9 271.4,315 269.2,318.8 261.4,319.9 263,357.6 "/>
<polygon class="st11" points="280.5,357.6 281.5,311.4 276.9,311 280.1,305.5 284.2,305.4 283.9,297.8 281.3,297.3 281.3,295.2 
	290.2,295.5 289.4,297.5 287,297.8 287.8,305.4 290.9,305.5 294.7,310.4 290.4,310.7 291.6,357.6 "/>
<path class="st12" d="M97.6,304.5l-6.4-10.9c0,0,5.8-0.5,5.6-1.3c-0.2-0.8-10.9-24-10.9-24l9.3-1l11,20.8l-7,16.8L97.6,304.5z"/>
<path class="st13" d="M101.7,357.6l7.8-50.8l6.7-10.5c0,0,5.6,7.8,5.9,8.6c0.3,0.8-3.2,52.7-3.2,52.7H101.7z"/>
<path class="st13" d="M127.2,357.6c0,0,2-57.9,2.5-58.2c0.5-0.4,8.9-8.2,8.9-8.2l9,8.2l0.8,58.4L127.2,357.6L127.2,357.6z"/>
<polygon class="st12" points="181.6,357.6 172.8,315.8 164.5,308.6 156.1,317.6 159,357.6 "/>
<polygon class="st12" points="187.1,357.6 180.7,326.8 182.2,316.1 192.7,324.2 203.8,357.6 "/>
<polygon class="st12" points="230.4,357.6 230.3,353.6 234.2,353.6 233.8,348.7 227.8,348.5 224.1,336.8 225.5,336.1 224.1,331.9 
	215.7,332.3 215.9,335.7 217.7,336 218.8,348.8 209.9,349.6 210.5,354.2 214.8,354.1 215.8,357.6 "/>
<polygon class="st12" points="239.7,357.6 239.5,346.4 232.7,346.1 228.6,342 241.7,342 242.9,327.4 241.2,324.9 241.5,322 
	245.9,319.9 249.6,322.9 250.4,324.9 248.7,327.1 249.5,341.4 260.5,341.7 260.5,343.5 259.6,344.8 251.6,345.2 251.6,357.6 "/>
<polygon class="st12" points="266.4,357.6 265.7,355.3 258.5,353.2 258.5,351.1 267.3,351.7 269.8,338.7 268,338.1 269.1,332 
	280.1,333.1 278.9,339.6 276.7,339.4 276.2,352.2 286.2,354.3 285.5,355.4 278.7,355.4 277.8,357.6 "/>
<polygon class="st12" points="318.6,357.6 317.8,323.3 312.9,322.9 312.2,317 321,316.7 321.2,302.4 316.8,302.2 317.6,293.8 
	329.7,294.2 329.6,302.6 327.5,302.6 327.2,316.2 334.1,316.4 334.6,323.3 330.6,323.8 331.5,357.6 "/>
<polygon class="st14" points="408.6,357.6 393.9,322.3 383.1,312.6 379.5,327.1 391.4,357.6 "/>
<polygon class="st15" points="135.9,294.5 139.3,255.6 134.7,255.4 134.7,250.3 139.7,250.3 141.1,237.9 137.3,237.5 138.3,229.8 
	151.8,230 152,238.6 147.2,238.2 146.5,250.3 154,250.7 153.4,255 148.6,255.4 147,309.5 "/>
<polygon class="st12" points="313,357.6 310,313 301.4,307.4 292.6,313.5 291,357.6 "/>
<polygon class="st16" points="207.9,348.1 212.4,341.6 207.4,317.6 212.7,317.6 212.4,312.6 204.9,311.6 203.3,301.1 207.3,300.9 
	206,294 195.5,294.2 193.9,301.5 197,301.1 198.4,312.2 191.6,313.5 191.2,317.7 197.3,317.4 199.5,333.7 "/>
<path class="st14" d="M351.2,345c0-0.6-0.2-20.2-0.2-20.2l-5.9-5.3l-7.3,5.4l-2.4,32.6h16.5L351.2,345z"/>
<polygon class="st14" points="365.8,318.2 367.5,314.7 362.4,246.7 365.4,246.3 364.6,240.4 359.3,240.1 358.2,235.2 359.1,233.6 
	358.5,231.8 356.9,230.4 353.5,230.3 351.3,231.8 351.3,234.4 353.9,235.7 353.4,240.5 345.8,240.7 346.2,246.7 349.7,246.9 
	353.1,304 "/>
<polygon class="st14" points="404,334.2 413.8,346.4 420.4,340.8 418.4,338.1 426.3,332.7 428.3,334 432.6,330.1 428.3,325.7 
	421.6,327.5 422.8,329.2 413.1,333.9 411.2,330.6 "/>
<polygon class="st14" points="396.2,326.2 400.4,323.2 402.1,328.8 409.1,327.4 406.7,319.1 426.1,312.2 429.9,312.2 433.8,309.6 
	432.9,306.6 428.3,305.4 422.8,306.5 422,308.4 423,309.5 407.7,314.1 405.7,314.7 402.5,311.6 397.5,308.6 391.8,307.8 
	389.8,309.9 398.4,316.7 391,318.6 "/>
<polygon class="st14" points="409.3,306.5 407.5,321.2 402.3,317.5 398,297.9 399.2,289.6 407.9,290.2 407.1,299.6 413.6,300.1 
	413.1,305.8 "/>
<path class="st14" d="M370.6,273.5l7.2-7.4l-5-2.5l5.3-5.4l5.8,2.6l7.7-7.6l-0.8-1.8l1.4-1.9l3.8-0.1l2.4,1.1l0.8,1.9
	c0,0-0.8,1.9-1.4,2.1s-2.4,0.5-2.4,0.5l-4.8,7.9l6.5,3.7l-4.3,4.8l-6-1.9l-8.4,8.2L370.6,273.5z"/>
<polygon class="st0" points="130.9,240.3 127.9,240.7 125.4,234.1 116.1,229.4 120.2,242.6 110.1,244.7 112.2,251 116.6,250.3 
	120.2,262.5 131.4,258.9 "/>
<polygon class="st13" points="120.5,280.9 117.2,293.1 106.8,281 101,283.2 96.7,279.1 103.8,275.5 95.1,261.8 93.1,262.5 
	87.7,257.6 98.7,253.8 103,259.1 101.2,260.1 111.9,271.8 120.9,268.2 124.1,273 116.9,276.8 "/>
<polygon class="st13" points="103.4,304.7 90,301.5 92,299.7 85.5,296.4 78.3,301.3 52.8,298.5 51.4,302.3 74.4,310.2 75.5,317.8 
	84.2,317.2 84.8,313.7 100.9,317.3 "/>
<polygon class="st13" points="91.1,341 76.7,332.8 73.6,335.7 65,330.6 70.4,326.5 56.9,316.6 54.7,317.8 49.8,315 57,310.1 
	62,313.1 60,314.5 75.5,322.9 81,319.5 87.7,324.4 85,326.3 94.5,333.4 "/>
<path class="st17" d="M374.9,298.5l5,0.5l4.3,2.8l2.6,2.3l3.1-4l-2.2-3.1l-6.3-3.7l-2.9-1.6l3.1-16.4l1.6-0.5l1-2.5l-0.8-2.1
	l-2.9-1.8l-2.6,0.8c0,0-2,2.6-1.6,3.1c0.2,0.6,0.2,1.2,0.2,1.8l-5.5,12L374.9,298.5z"/>
<polygon class="st17" points="386.2,281.3 391.6,283.3 396.2,286.2 399.9,291 400.9,295.9 408,294.9 406.8,290.3 403.5,284.9 
	412.2,280.9 417.4,278.2 420.5,275.6 425.9,275.4 428.9,272 428.2,268.8 424.7,266.9 418.1,267.5 416.2,269.5 415.7,272 
	410.2,274.6 405.1,277.2 401.5,279.3 399.1,281.3 394.6,279.4 390,278.2 385.9,277.2 "/>
<path class="st13" d="M377.9,357.6l-16.7-49c0,0-8.4-8.2-8.4-7.6c0,0.5-2.9,9.7-2.9,9.7l14.6,46.9H377.9z"/>
<polygon class="st18" points="273.4,298.2 266.5,297.3 199.4,328.9 192.4,322.4 189.3,323.8 190,333.7 174.4,342.8 171.5,342.9 
	168.9,343.9 169.1,346.2 171.5,348 174.4,347.9 176,345.8 194.1,336.7 210.9,342.3 212.9,340.2 204.9,333.9 270.8,303.6 "/>
<polygon class="st18" points="233.7,307.7 235.2,311.9 326.4,343.8 324.2,346.9 319.8,349 321.2,350.9 326.1,349.5 329.2,347.5 
	331.7,344.6 353.5,350.6 355.7,353.3 359.5,354.2 363.1,353 365,350.1 363.6,347.7 359.7,346.7 356.1,347 334.7,339 337.7,332.9 
	332.6,330.4 331.1,333.4 329.9,336.6 244.4,308.3 "/>
<polygon class="st19" points="65.5,196.8 74.7,200.5 130.8,225.2 133.8,223.9 75.6,199.3 "/>
<polygon class="st19" points="68.2,179.1 74.1,181.8 110.2,201.4 104.6,196 75.5,180.3 "/>
<polygon class="st19" points="81,171.4 89.7,176 95,177 89.9,173 "/>
<polygon class="st19" points="50.6,139.5 140.1,190.3 70.2,145.8 "/>
<polygon class="st19" points="79.7,114.2 134.3,161.3 97.2,122.5 "/>
<polygon class="st19" points="96.1,79.9 109.8,86.9 157.4,155.3 108.4,89.3 "/>
<polygon class="st19" points="144.4,194.2 151.6,189.2 155.3,188.9 156.5,187 166.6,184.2 167.1,185.4 145.2,194.9 "/>
<polygon class="st19" points="132.7,167.6 133.6,168.9 137,167.2 135.7,166.2 "/>
<polygon class="st19" points="176.6,192.8 177.1,190.7 193.2,187.4 200.8,186.2 212.4,185.4 213.6,187.4 201.4,187.4 193.4,188.6 
	"/>
<polygon class="st19" points="210.2,166.8 225,165.6 230.3,166.1 234,165.1 246.8,164.2 247.2,166 234.2,166.6 231.1,168.2 
	224.7,166.7 210.7,168.3 "/>
<polygon class="st19" points="184.9,128.1 185,126.4 194.6,125 196.4,126.6 "/>
<polygon class="st20" points="177.2,153 193.9,151 200.9,150.2 215.2,149.1 215.9,150.7 177.7,154.5 "/>
<polygon class="st19" points="219.5,133 219.8,134.5 229.5,134 229.1,132.8 "/>
<polygon class="st19" points="271.6,145.1 271.7,143.3 281.3,143.3 280.8,144.9 "/>
<path class="st19" d="M258.9,176.6l14.6-0.6l3.8,0.7c0,0,1.1-0.7,1.6-0.7c0.5,0,12.3,0.2,12.3,0.2l-1.4,2.2l-9.9-0.5l-3.1,1
	l-3.1-1.7l-13.5,0.9L258.9,176.6z"/>
<polygon class="st19" points="237.1,221.5 244.5,218.3 252.2,217.2 258.5,217.1 275.2,220.5 275.5,219.2 263.2,216.6 258.4,216 
	250.8,216 242.5,217.3 234.7,220.7 "/>
<polygon class="st19" points="249.3,194.8 251.4,193.4 254.4,193.4 257.4,194.7 256.2,195.8 253.9,194.1 "/>
<polygon class="st19" points="295.3,191.6 333,195.7 332.4,198 294.9,193.7 "/>
<polygon class="st19" points="320.4,166 324.7,163 325.9,167.4 "/>
<polygon class="st19" points="245.9,117.7 248.3,115.7 250.9,115.6 253.7,117.5 "/>
<polygon class="st19" points="236.3,143.5 247.9,139.8 252.9,139.5 266.6,142.2 266.6,144.3 253.3,141.2 247.8,140.9 236.9,145.7 
	"/>
<path class="st21" d="M283.4,148.9c1.3-0.1,15.7-1.2,15.7-1.2l10.1,0.6l19.5,4.4l-0.8,1.7l-19-4.6l-10.1-0.4l-15.7,1.3L283.4,148.9z
	"/>
<polygon class="st19" points="308.3,120.1 312.1,119.6 313.9,120 314.2,122.1 309.2,121.6 "/>
<polygon class="st19" points="344.9,193 355.6,199.7 370.7,209.7 369.8,210.7 343.1,194.9 "/>
<polygon class="st19" points="377.9,183.1 380.6,183 382.2,184.5 381.7,185.9 379.1,185.2 "/>
<polygon class="st19" points="135.8,63.5 147,72.4 146.5,74.8 136.1,67.1 "/>
<polygon class="st19" points="150.9,63.7 159.1,68.2 190.9,119.1 157.4,70.4 "/>
<polygon class="st22" points="342.7,273.5 157.5,273.8 156.2,275.9 342.7,275.2 "/>
<polygon class="st19" points="189.8,18.4 200.3,27.5 229.5,116 198.2,28.5 "/>
<polygon class="st19" points="211.4,15.5 220.7,22.4 240.3,110.3 217.9,23.6 "/>
<polygon class="st19" points="162.9,35.6 170.3,42.6 207.5,116.6 172.5,41.8 "/>
<polygon class="st19" points="334.5,219.8 349.1,219.3 367.3,226.4 349.3,218.1 333.8,219.4 "/>
<polygon class="st23" points="109,307.8 116.3,296.7 122.5,303.9 121.5,321.6 119.1,304.2 116.3,300.3 "/>
<polygon class="st22" points="273.1,298.6 266.2,297.5 199.3,328.9 200,329.8 266.2,298.2 "/>
<polygon class="st22" points="174.3,342.9 190.2,333.9 191.1,334.8 174.9,343.7 "/>
<polygon class="st22" points="189.3,323.8 192.4,322.5 193.5,323.5 189.6,325.3 "/>
<polygon class="st22" points="235.7,307.8 243.5,307.9 241.5,309.1 "/>
<polygon class="st22" points="255.3,310.8 329.5,336.7 329.2,337.9 253,311.4 "/>
<polygon class="st22" points="332.7,330.7 337.7,333 337,334.3 332,332 "/>
<polygon class="st22" points="335.2,339.3 334.7,340.2 356.1,348 360.6,347.8 363.8,347.8 359.8,347 356,347 "/>
<polygon class="st23" points="196.3,294.5 205.4,294.5 205.6,296.8 195.7,296.8 "/>
<polygon class="st23" points="191.6,314.8 212.5,314.3 212.3,312.8 204.7,311.5 198.4,312 191.5,313.6 "/>
<polygon class="st22" points="52.9,298.5 78.1,301.2 77.5,302.9 52.5,299.7 "/>
<path class="st23" d="M84.2,297.5l5.8,4c0,0,2.3-1.7,1.6-1.9c-0.7-0.2-5.9-3.3-5.9-3.3L84.2,297.5z"/>
<polygon class="st23" points="92.5,302.3 103.5,304.8 103,307 91.7,304 "/>
<polygon class="st22" points="51.1,315.7 49.9,315 57,310 58.1,310.8 "/>
<polygon class="st22" points="65,330.6 80.9,319.5 82.7,320.6 66.6,331.6 "/>
<polygon class="st23" points="92.3,294.2 105.4,289.8 104.6,292.2 93.1,296.4 "/>
<polyline class="st22" points="86,268.1 95.4,267.2 97.1,270.1 87.2,270.7 86.6,269.3 "/>
<polygon class="st23" points="88.6,257.8 98.4,254.4 99.5,255.9 90.5,259.6 "/>
<polygon class="st23" points="96.7,279.1 120.8,268.1 122.2,270.3 98.9,281.2 "/>
<polygon class="st22" points="131.3,258.9 119,263 113.8,264.6 112.3,268.4 116.1,265.2 123.8,263.1 130.8,261.4 "/>
<polygon class="st22" points="113.3,245.7 131.7,241.5 131.7,243.5 113.6,247.2 "/>
<polygon class="st23" points="164.5,308.8 158.3,317.9 157.1,329.6 156.1,317.6 "/>
<polygon class="st23" points="167.6,311.1 172.8,315.8 175.7,329.8 171,317.1 "/>
<polygon class="st23" points="180.9,325 182.3,316.1 188.6,321 183.4,318.8 "/>
<polygon class="st23" points="230.2,342.7 260.5,342 259.4,343.5 230.9,344.4 "/>
<polygon class="st23" points="242,323.2 244.7,321.1 246,320 249.9,323.8 246,322 "/>
<polygon class="st23" points="270.6,333.3 278.5,334.3 277.8,335.8 270.6,334.8 "/>
<polygon class="st23" points="351,340.2 351,325 345.3,319.8 337.7,325.1 337.2,331.6 338.2,325.7 345,320.5 349.9,325.1 "/>
<polygon class="st23" points="127.3,351.5 129.2,304.6 135.4,294.1 147.1,309.5 147.5,335.1 144.7,310.2 136,297.7 131.6,305 
	129.2,350.6 "/>
<polygon class="st22" points="405.4,334.5 410.3,331.9 411.7,333.7 406.4,335.8 "/>
<polygon class="st22" points="424.5,329.9 427.4,328.6 427.1,327.2 423.1,327.9 "/>
<polygon class="st23" points="378,260.2 394.3,267.1 393.5,268.4 377.7,261.5 "/>
<polygon class="st22" points="347,241.3 363.1,241 363.3,242.5 347.1,242.9 "/>
<polygon class="st22" points="387.4,280.4 394.9,282.1 400.7,286.3 402.5,286.3 398.4,281.8 389.2,278.6 "/>
<polygon class="st22" points="401.6,281.1 403.4,281.5 416.2,275.3 414.5,273.8 407.2,276.7 "/>
<polygon class="st22" points="417.1,270.6 421.8,269.6 425.4,272.6 426.5,270.1 424.1,268.1 418.7,268.4 "/>
<polygon class="st23" points="313.3,317.6 333.1,317.1 332.9,318.9 313.4,319.1 "/>
<polygon class="st23" points="318.2,295.4 327.9,295.7 327.9,297.1 318.2,296.9 "/>
<polygon class="st23" points="293.9,324.1 295,314.9 301.2,309.9 307.6,314.1 309.4,329.6 311.3,330.4 309.9,313 301.4,307.4 
	292.7,313.5 292.2,323.6 "/>
<path class="st23" d="M382.6,334.3l-3.2-7.1l3.5-14.3l10.9,9.7c0,0,5.4,13,3.6,10.7c-1.8-2.2-6.1-11.1-6.1-11.1l-7.2-6.4l-1.4,9.9
	V334.3z"/>
<polygon class="st23" points="358.2,336.9 349.9,310.6 352.8,300.9 361.4,308.6 373.7,344.6 359.6,310.8 354.6,304.7 352.4,310.4 
	"/>
<polygon class="st23" points="390.9,310.1 397.1,311 402.2,315.4 406.9,325 405.9,319.6 403.8,314.5 396.8,309.1 391,308.3 "/>
<polygon class="st22" points="407.2,315.2 421.7,310.7 422,311.6 408.3,316.4 "/>
<polygon class="st22" points="423.2,308.5 424,307 427.9,306.2 431.9,307.6 427.5,307.5 425.2,308.5 424.1,310.1 "/>
<polygon class="st22" points="377.7,271.9 379.4,269.7 381.4,270 383.4,271.1 380,271.3 378.4,273.3 "/>
<polygon class="st24" points="377.6,220 420,199.6 433.4,197.6 420.6,201.9 "/>
<polygon class="st24" points="371.8,211.7 421.6,180.9 430.5,178.5 428.1,181 422.7,181.9 "/>
<polygon class="st24" points="416.5,174 409.5,174 397.2,179.8 409.2,172.4 419.1,171.9 "/>
<polygon class="st24" points="447.8,142.5 436.2,144.7 361.9,185.9 435.5,142.4 450.2,140.1 "/>
<polygon class="st24" points="348.4,179.7 406.1,122.8 418.7,115.3 403.4,121 "/>
<polygon class="st24" points="404.9,78.8 393,86.9 347,147.8 390.8,85.1 "/>
<polygon class="st24" points="360.9,67 355.7,72.6 353.3,71.6 362.8,62.4 "/>
<polygon class="st24" points="350.4,62.2 340.4,68.1 315.3,107.4 343.2,69.9 "/>
<polygon class="st24" points="294.1,115.3 327.5,44.5 337.6,36.8 340.2,47 338.8,49.7 336.5,39.2 329.2,45.4 "/>
<polygon class="st24" points="310.8,18 305.7,26.5 279.2,107.1 301.4,25.6 "/>
<polygon class="st24" points="289.5,13 280.1,22.2 259.9,113 283.3,23.4 "/>
<polygon class="st24" points="242.2,108.8 243.9,22.2 250.2,4 255,20.1 258.5,108.1 252.5,20.4 250.1,7.9 246.2,22.5 "/>
<polygon class="st23" points="374.5,290.8 379.8,293.2 385.4,296.8 388.7,300 388.2,301.6 384.2,297.8 378.4,294.7 373.8,294.1 
	372.1,290.1 "/>
<path class="st22" d="M135.6,250.9c0.3,0.1,17.7,0.2,17.7,0.2l-0.2,1.3l-17.5-0.1L135.6,250.9z"/>
<polygon class="st19" points="139.2,230.8 150.7,231 150.8,233.7 139,233.6 "/>
<polygon class="st22" points="392.2,253.2 391.6,251.6 392.6,250.1 395.8,250 398.2,250.8 395,250.9 393.1,250.9 392.7,251.7 "/>
<polygon class="st22" points="352.4,234.2 352.3,232 353.9,230.9 356.5,230.9 358,232.1 355.9,231.4 354,231.5 353.3,232.3 "/>
<polygon class="st19" points="374,186.1 356.7,198.8 357.9,199.5 374.3,186.8 "/>
<polygon class="st19" points="131.7,226.7 146.5,218.9 166.5,220 147.1,220.3 "/>
<polygon class="st25" points="309.5,378.3 302.4,378.3 302.4,378.3 302.4,379.3 302.4,396.7 302.4,396.7 302.4,378.3 301.4,378.3 
	301.4,395.6 288.7,379.3 288.7,379.3 287.9,378.3 280.7,378.3 280.7,405.9 280.7,405.9 280.7,405.9 287.9,405.9 287.9,404.9 
	287.9,387.5 301.5,404.9 302.4,405.9 302.4,405.9 309.5,405.9 309.5,405.9 309.5,404.9 309.5,404.9 "/>
<polygon class="st25" points="213.1,378.3 213.1,378.3 191.4,378.3 184.3,378.3 184.3,378.3 184.3,378.3 184.3,385.3 184.3,405.9 
	191.4,405.9 213.1,405.9 213.1,405.9 213.1,404.9 213.1,399.9 213.1,398.8 213.1,398.8 192.7,398.8 192.7,395.6 213.1,395.6 
	213.1,389.5 213.1,389.5 213.1,388.8 213.1,388.5 213.1,388.5 213.1,388.4 192.7,388.4 192.7,385.7 213.1,385.7 213.1,385.3 
	213.1,378.3 "/>
<polygon class="st25" points="245.2,378.3 245.2,378.3 216.4,378.3 216.4,378.3 216.4,378.3 216.4,379.3 216.4,379.3 216.4,385.3 
	216.4,385.3 216.4,385.7 216.4,385.7 216.4,385.7 217.7,385.7 224.7,385.7 224.7,398.8 224.7,398.8 216.4,398.8 216.4,405.9 
	216.4,405.9 216.4,405.9 216.4,405.9 216.4,405.9 245.2,405.9 245.2,405.9 245.2,404.9 245.2,399.9 245.2,399.9 245.2,399.4 
	245.2,398.8 245.2,398.8 236.9,398.8 236.9,385.7 245.3,385.7 245.3,385.3 245.3,378.3 "/>
<path class="st25" d="M277.4,378.3L277.4,378.3h-28.8v27.6h29v-17.4H263v1l0,0v6.5h6.3v2.8h-12.6v-13.2h20.8L277.4,378.3
	L277.4,378.3L277.4,378.3z M264.2,395.6L264.2,395.6h5.9l0,0H264.2z"/>
<polygon class="st25" points="341.6,388 341.6,388 341.6,378.3 334.4,378.3 334.4,378.3 312.8,378.3 312.8,378.3 312.8,378.3 
	312.8,385.3 332,398.8 319.9,398.8 319.9,396.5 319.9,395.6 319.9,395.5 314.1,395.5 312.8,395.5 312.8,395.5 312.8,395.6 
	312.8,396.5 312.8,404.9 312.8,404.9 312.8,405.9 312.8,405.9 319.9,405.9 341.6,405.9 341.6,405.9 341.6,404.9 341.6,398.8 
	323.2,385.7 334.4,385.7 334.4,388 334.4,388.6 334.4,388.8 334.4,389 334.4,389 341.6,389 341.6,389 341.6,389 "/>
<path class="st25" d="M180.9,378.3L180.9,378.3L180.9,378.3h-29v27.6h7.2v-10.3h6.5l7.5,9.5l0.7,0.7h7.2l-0.7-0.8l-0.1-0.2l0,0
	l-7.2-9.3h8v-10.3l0,0L180.9,378.3L180.9,378.3L180.9,378.3L180.9,378.3z M160,388.4v-2.8h13.6v2.8l0,0v-0.1H160z"/>
<rect x="364.3" y="389" class="st26" width="128.9" height="6.3"/>
<rect y="389" class="st26" width="128.9" height="6.3"/>
</svg>
