<?xml version="1.0" encoding="utf-8"?>
<!-- Generator: Adobe Illustrator 23.0.0, SVG Export Plug-In . SVG Version: 6.00 Build 0)  -->
<svg version="1.1" id="Layer_2" xmlns="http://www.w3.org/2000/svg" xmlns:xlink="http://www.w3.org/1999/xlink" x="0px" y="0px"
	 viewBox="0 0 493.2 405.7" style="enable-background:new 0 0 493.2 405.7;" xml:space="preserve">
<g>
	<path d="M332.8,166.9c0,1-0.1,2.2-0.1,3.2c0,1.1-0.1,2.2-0.1,3.2c-0.1,1.1-0.1,2.1-0.2,3.2c-0.1,1.1-0.2,2.1-0.3,3.2
		c-0.8,8.4-2.6,16.7-5,24.4c-2.5,7.7-5.9,14.9-10.1,21.2c-0.5,0.7-1,1.5-1.5,2.2c-0.5,0.7-1,1.5-1.5,2.2c-1.1,1.4-2.2,2.9-3.3,4.3
		c-2.2,2.7-4.4,5.3-6.5,7.6c-4.3,4.8-8.5,8.8-12.1,12.5c-0.9,0.9-1.7,1.8-2.5,2.6c-0.2,0.2-0.4,0.5-0.6,0.7
		c-0.2,0.2-0.4,0.5-0.5,0.6c-0.3,0.4-0.6,0.8-0.9,1.2c-1.1,1.7-1.8,3.4-2.1,5c-0.7,3-0.4,5.7-0.2,7.5c0,0.1,0,0.2,0,0.3c0,0,0,0,0,0
		c0,0.1,0,0.1,0,0.2c0,0.2,0,0.4,0.1,0.5c0.1,0.6,0.1,1.1,0.2,1.5c0.1,0.5,0.1,0.8,0.1,0.8v0c0.1,0.9-0.5,1.7-1.4,1.9
		c-0.9,0.1-1.7-0.5-1.9-1.3c0,0,0-0.3-0.1-0.8c-0.1-0.5-0.2-1.3-0.4-2.3c0,0,0,0,0,0c0-0.1,0-0.2-0.1-0.3c-0.1-0.6-0.2-1.3-0.2-2.1
		c0-0.2,0-0.3,0-0.5c0-0.3,0-0.6-0.1-0.9c-0.1-1.5-0.1-3.3,0.3-5.3c0.4-2,1.2-4.2,2.5-6.3c0.3-0.5,0.7-1.1,1.1-1.6
		c0.2-0.3,0.4-0.5,0.6-0.7c0.2-0.2,0.4-0.5,0.6-0.7l0.2-0.2l0.2-0.2l0.3-0.3c0.2-0.2,0.4-0.5,0.6-0.7c0.4-0.5,0.9-0.9,1.3-1.4
		c3.5-3.8,7.6-7.9,11.7-12.6c2.1-2.3,4.1-4.9,6.2-7.5c1-1.3,2-2.7,3-4.1c0.5-0.7,1-1.5,1.5-2.2c0.5-0.7,1-1.5,1.5-2.3
		c3.8-5.8,6.8-12.7,9.2-20.1c2.3-7.4,3.8-15.3,4.6-23.4c0.1-1,0.2-2,0.3-3c0.1-1,0.1-2,0.2-3.1c0.1-1,0.1-2,0.1-3.1
		c0-1,0.1-2,0.1-3.1l0-3.2c0-1-0.1-2-0.1-3c0-2-0.3-4.1-0.5-6.1c-1.1-8.1-3.3-16.1-6.5-23.5c-0.7-1.9-1.7-3.7-2.5-5.5
		c-0.9-1.8-1.8-3.6-2.8-5.3c-1.9-3.5-4.1-6.8-6.3-9.9c-0.6-0.8-1.1-1.6-1.7-2.3c-0.6-0.7-1.2-1.5-1.8-2.2c-0.6-0.7-1.2-1.5-1.8-2.2
		l-0.9-1.1l-0.5-0.5l-0.1-0.1c0,0,0,0,0,0c0,0,0,0,0,0l-0.1-0.1l-0.2-0.3c-1.3-1.4-2.6-2.7-3.8-4c-0.6-0.7-1.3-1.3-1.9-2
		c-0.7-0.6-1.3-1.2-2-1.9c-2.6-2.5-5.1-4.9-7.7-7.1c-1.3-1.1-2.5-2.2-3.8-3.3c-1.2-1.1-2.5-2.1-3.7-3.1c-1.2-1-2.4-2-3.6-3
		c-1.2-1-2.3-1.9-3.4-2.8c-2.2-1.8-4.4-3.5-6.4-5.1c-2-1.6-3.9-3.1-5.7-4.5c-0.5-0.4-0.9-0.7-1.3-1c-0.4-0.3-0.8-0.7-1.2-1
		c-0.2-0.2-0.4-0.3-0.6-0.5l-0.3-0.2l-0.1-0.1l-0.1-0.1l0,0l-0.1-0.1c-0.2-0.3-0.5-0.5-0.6-0.8c-0.2-0.3-0.3-0.5-0.5-0.8
		c-0.1-0.1-0.2-0.3-0.2-0.4c0-0.1-0.1-0.2-0.1-0.3c-0.3-0.8-0.6-1.5-0.8-2.2c-0.1-0.2-0.1-0.5-0.2-0.7c0-0.1,0-0.2-0.1-0.3
		c-0.1-0.5-0.2-1-0.3-1.5c-0.2-1.5-0.3-2.8-0.3-3.8c0-1,0-1.8,0-2.4c0-0.3,0.1-0.7,0.1-0.8c0-0.1,0-0.2,0-0.2c0.2-0.9,1-1.5,1.9-1.3
		c0.9,0.2,1.5,1,1.3,1.8l0,0.1c0,0,0,0.1,0,0.2c0,0.1,0,0.2,0,0.4c0,0.5,0,1.2,0,2.1c0.1,0.9,0.2,2.1,0.4,3.4c0,0.1,0,0.2,0.1,0.3
		c0,0.1,0.1,0.3,0.1,0.4c0.1,0.7,0.3,1.4,0.6,2v0c0.1,0.2,0.1,0.3,0.2,0.4c0.1,0.3,0.3,0.6,0.4,0.9c0.1,0.1,0.2,0.3,0.3,0.4
		c0.1,0.1,0.2,0.2,0.3,0.3l0,0l0,0l0.1,0.1l0.3,0.2c0.2,0.2,0.4,0.3,0.6,0.5c0.4,0.3,0.8,0.6,1.2,1c0.4,0.3,0.8,0.6,1.3,1
		c1.8,1.3,3.7,2.7,5.7,4.3c4.1,3.1,8.8,6.6,13.7,10.6c1.2,1,2.5,2,3.8,3.1c1.3,1.1,2.6,2.2,3.9,3.3c2.7,2.2,5.3,4.6,8,7.1
		c0.7,0.6,1.4,1.2,2,1.9c0.7,0.7,1.3,1.3,2,2c1.3,1.3,2.7,2.7,4,4.1l0.3,0.3l0.1,0.1c0,0,0.1,0.1,0.1,0.1l0.1,0.1l0.5,0.5l0.9,1.1
		c0.6,0.7,1.3,1.4,1.9,2.3c0.6,0.8,1.3,1.6,1.9,2.4c0.6,0.8,1.2,1.6,1.8,2.4c2.4,3.3,4.7,6.7,6.7,10.4c1.1,1.8,2,3.7,3,5.5
		c0.9,1.9,1.9,3.8,2.6,5.8c3.4,7.8,5.8,16.3,6.9,24.9c0.2,2.2,0.5,4.3,0.5,6.5c0,1.1,0.1,2.2,0.1,3.3L332.8,166.9z"/>
	<path d="M201,203.1c-0.2,0.8-0.6,1.9-1.3,3.3c-1.1,2.1-2.9,4.6-5.9,7.3c-1.5,1.3-3.3,2.7-5.5,4c-3.4,2-6,3.2-8,3.9c-2.6,1-4,1-4,1
		c-3.4-5.3-2.9-9-2.2-10.7l0.2-0.4c4.4-5.6,9.6-9.1,13-10.9c2.2-1.2,3.6-1.7,3.6-1.7C196.2,197.4,201,203.1,201,203.1z"/>
	<path d="M201,203.1c-0.2,0.8-0.6,1.9-1.3,3.3c-1.1,2.1-2.9,4.6-5.9,7.3c-1.5-1.9-3.7-4.4-6.5-6.2v-6.8c2.2-1.2,3.6-1.7,3.6-1.7
		C196.2,197.4,201,203.1,201,203.1z"/>
	<path d="M231.6,274.5c-1,1.4-3.1,2.4-5.4,2.7c-2.6,0.4-5.4,0-6.7-1.6c-2.3-2.8-10.6-12.6-18.9-23.9c-7-9.5-17.4-25.3-20.5-30.1
		c1.9-0.7,4.6-1.9,8-3.9c2.1-1.3,3.8-2.5,5.3-3.8c3.2-2.8,5.1-5.4,6.2-7.5c6.3,9.8,27,42.2,30.9,49.7
		C235.4,264.9,233.9,271.4,231.6,274.5z"/>
	<path d="M231.6,274.5c-1,1.4-3.1,2.4-5.4,2.7c-2.4-6.7-7.4-19.6-12.4-29.4c-6.1-11.7-13.9-26.4-20.3-33.9c3.2-2.8,5.1-5.4,6.2-7.5
		c6.3,9.8,27,42.2,30.9,49.7C235.4,264.9,233.9,271.4,231.6,274.5z"/>
	<path d="M187.7,210.4c-1.1,0.9-2.3,1.6-3.4,2.3c-4,2.4-7.4,3.3-9.2,2.1c-2.3-1.5,0.1-6.8,6.2-11.3c2.8-2.1,5.5-3.4,7.7-4.1
		c2.6-0.9,4.5-0.8,5.1,0C195.3,200.9,193.1,206.4,187.7,210.4z"/>
	<g>
		<path d="M177.6,222.7c-0.1,0-0.1,0-0.2-0.1c0-0.1,0-0.2,0.1-0.2c0.1,0,7.8-2.5,11.8-5.5c4.4-3.3,8.5-6.6,10.7-11.5
			c0-0.1,0.1-0.1,0.2-0.1c0.1,0,0.1,0.1,0.1,0.2c-2.3,5-6.4,8.4-10.8,11.7C185.5,220.1,177.7,222.6,177.6,222.7
			C177.6,222.7,177.6,222.7,177.6,222.7z"/>
	</g>
	<path d="M187.7,210.4c-1.1,0.9-2.3,1.6-3.4,2.3c2.5-3.2,3.9-7.3,4.7-13.4c2.6-0.9,4.5-0.8,5.1,0
		C195.3,200.9,193.1,206.4,187.7,210.4z"/>
	<path d="M193.6,203.6c-0.1,0-0.2,0-0.2,0.1c-0.4,1.1-1.2,2.4-2.4,3.7c-0.1-0.2-0.3-0.5-0.5-0.9c0.2-1.2-0.6-9.9-1.6-11.2
		c-0.2-0.2-0.4-0.3-0.6-0.2c-0.2,0.2-0.4,0.6-0.5,1.1c-0.5-1.8-1.6-4.8-2.6-4.8c-0.2-1-0.8-3.3-1.5-3.4c-0.1,0-0.1,0-0.2,0.1
		c-0.2,0.1-0.3,0.6-0.3,1.2c-0.6-1.9-1.4-4.4-1.9-4.4c-0.6,0-0.9,2.3-1.1,4.5c-0.2-0.3-0.4-0.6-0.6-0.9c-0.1-0.1-0.2-0.1-0.2,0
		c-0.1,0.1-0.1,0.2,0,0.2c0.2,0.3,0.5,0.6,0.7,1c-1.5,0.1-5,0.3-5.4,0.8c-0.1,0.1-0.1,0.2,0,0.2c0.2,0.6,1.4,1.3,1.8,1.5
		c0,0,0,0.1-0.1,0.2c-0.1,0.7,1.1,1.7,2.6,2.8l0.1,0.1c1,0.7,2.7,2.1,3.4,2.7c-0.9-0.1-1.7,0-1.9,0.3c-0.1,0.1-0.1,0.3,0.1,0.6
		c0.8,0.9,4.2,3.1,5.7,4.1c-0.2,0-0.5-0.1-0.7-0.1c-1-0.1-1.5,0-1.6,0.4c-0.1,0.3,0,0.7,1.5,1.9c1.9,1.4,4.2,1.6,4.7,1.6
		c0.3,0.5,0.5,0.8,0.5,1c-1.5,1.6-3.6,3.2-6.1,4.8c-0.1-0.1-0.2-0.3-0.3-0.6c0.1-0.6,1-5.2,0.2-6.3c-0.1-0.2-0.3-0.3-0.4-0.3
		c-0.3,0-0.5,0.1-0.7,0.3c-0.1-1.5-0.5-4.7-1.4-4.8h0c-0.3,0-0.6,0.3-0.8,0.8c-0.3-1.1-0.9-3.2-2-3.1c-0.2,0-0.3,0.1-0.4,0.2
		c-0.3-0.9-1.3-3.5-2.1-3.8c-0.2-0.1-0.3,0-0.5,0.1c-0.5,0.3-0.7,1.6-0.7,2.3c-0.3-0.4-0.6-0.7-0.9-1c-0.1-0.1-0.2-0.1-0.2,0
		c-0.1,0.1-0.1,0.2,0,0.2c0.3,0.3,0.6,0.7,0.9,1.1c-0.8,0-2.6,0.1-3,0.7c-0.1,0.1-0.1,0.3,0,0.5c0.4,0.7,1.8,1.6,2.7,2.2
		c-0.5,0-0.8,0-1,0.1c-0.1,0.1-0.2,0.2,0,0.4c0.4,0.7,2.2,2.1,3,2.8c-0.2,0-0.4,0-0.5,0.1c-0.1,0-0.1,0.1-0.2,0.2
		c-0.1,0.7,2.5,3,3.6,4.1c-0.7,0.1-1.3,0.2-1.6,0.2c-0.5-1.5-1-2.8-1.4-3.2c-0.1-0.1-0.2-0.1-0.4-0.1c-0.1,0-0.2,0-0.2,0.2
		c-0.1,0.2-0.2,0.7-0.2,1.3c-0.7-2.1-1.7-5-2.5-5c-0.1,0-0.3,0.1-0.4,0.2c-0.4,0.4-0.5,1.4-0.6,2.5c-0.6-2.7-1.9-8-2.7-8.4
		c-0.2-0.1-0.3-0.1-0.5,0c-0.8,0.5-1.3,3.7-1.3,5.2c-0.5-0.6-1.1-1.1-1.6-1.7c-0.1-0.1-0.2-0.1-0.2,0c-0.1,0.1-0.1,0.2,0,0.2
		c0.6,0.6,1.2,1.1,1.7,1.7c-1.5,0.1-4.1,0.5-4.1,1.3c0,0.6,0.7,0.8,1.7,1.2c0.6,0.2,1.2,0.4,1.9,0.7c1,0.5,1.6,0.9,2,1.2
		c-0.9-0.1-1.8-0.1-2,0.1c-0.1,0.1-0.1,0.2-0.1,0.3c0.1,0.4,1.1,1.1,2.1,1.7c-1-0.2-2.2-0.4-2.6,0c-0.1,0.1-0.2,0.2-0.2,0.5
		c0.2,1,3.1,2.2,4.5,2.8c-0.5,0-0.9,0.2-1,0.3c0,0.1,0,0.2,0,0.3c0.4,0.6,3.4,2.1,5.8,2.9l-0.1,0c-0.1,0-0.2,0-0.2,0.1
		c0,0.1,0,0.2,0.1,0.2l0.1,0c0.3,0.1,0.8,0.1,1.4,0.1c0.1,0,0.3,0,0.4,0c0,0,0.1,0,0.1,0c0,0,0,0,0,0c0,0,0.1,0,0.1,0
		c0.4,0,0.9-0.1,1.5-0.3c1.3-0.3,3-1,5.1-2.4c0,0,0,0,0,0c5-3.2,8.1-6.3,9.1-9C193.7,203.7,193.7,203.6,193.6,203.6z M179.5,214.8
		c-0.1-0.1-0.1-0.2-0.2-0.3c0-0.9-0.2-2.3-0.5-3.7c1.2,0.6,4.5,1,5.2,1.1c0.1,0.3,0.2,0.5,0.3,0.6
		C182.3,213.8,180.7,214.5,179.5,214.8z"/>
	<path d="M209.4,202.8c0,1-0.1,2-0.1,2s-1.8-1.1-5.3-2.3c-0.4-0.1-0.8-0.3-1.3-0.4c-4.3-1.3-8.6,0-8.6,0s0.6-1.2,0.2-2.5
		c-0.3-0.9-1.5-1-1.5-1s3.8-0.8,9.2-0.1c0.2,0,0.3,0,0.5,0.1c5.6,0.9,6.1,1.8,6.1,1.8S209.4,201.8,209.4,202.8z"/>
	<path d="M263.4,147.7c-0.3,3.6-5.5,14.6-11.5,18.7c-6,4.1-16.2,8.8-31.6,5.2c-15.4-3.6-18.5-9.9-18.5-9.9c2.2-4.2-2.5-9.6-5.1-11.6
		c-2.5-2-4.3-3-4.3-3h0c3-10.3,14.4-29.5,23.1-37c8.7-7.6,15.9-7.2,22.2-5.1c6.3,2.1,9.8,7.7,10.5,10.3c1,3.8,1.3,8.7,0.4,13.3
		c-0.6,3.1-2.2,7.6-3.2,10.2c-0.5,1.2-0.8,2-0.8,2s0.8,0.2,2.3,0.7c1.2,0.4,2.7,0.9,4.6,1.6c3.6,1.3,9.9,4,11.5,4.7
		C263.2,147.6,263.4,147.7,263.4,147.7z"/>
	<path d="M246.9,141.2c-1.1,3.1-4.1,9-12,9.1c-10.7,0.2-13.8-5.4-17-8.9c-1.6-1.8-3-3.4-3.9-4.6c-0.6,0.8-1.4,1.6-2.7,2.4
		c-4.8,3.1-16.2,7.6-16.7,7.8c0.5-0.3,7.7-5.2,11.8-12.2c4.2-7.1,3.1-6.3,5-11.6c1.8-5.1,4.6-6.6,4.8-6.7c0,0.1-0.3,0.6-0.7,1.5
		c0.1,5.6,2.1,12.9,7,16.8c0,0,0.3,4.3,2.3,7.2c2,2.9,19.8-3.9,19.8-3.9l1,0.4c-0.5,1.2-0.8,2-0.8,2S245.4,140.8,246.9,141.2z"/>
	<path d="M279.5,153.2c0,0-2.7,5.7-4.3,11c-0.4,1.2-0.7,2.4-1,3.5v0c-0.9,3.8-1.2,6.6-1.2,6.6s-14.4-1-20.3-3.1c0,0,1.4,8,1.8,13.6
		c0.4,5.5,0.2,15.1,0.1,17.9c0,0,0,0,0,0c0,0.5,0,0.8,0,0.8s0,0.2,0,0.4c0.1,0.7,0.2,2.3,0.5,3.9c0,0,0.1,0.2,0.2,0.5
		c0.5,1.6,2.2,7.2,3.6,15.2c1.7,9.5,2.2,12.3,2.2,12.3s-1.6,0.3-4.1,0.8c-4.4,0.8-11.3,2.2-16.3,3.2c-1.2,0.2-2.2,0.5-3.1,0.6
		c0,0-2.5-23.1-3.5-26.6l-2.5,0c0,0-3.4,6-6.2,11.9c-2.8,6-6.2,10.8-6.2,10.8s-9.1,0.7-16,0c-1.3-0.1-2.6-0.3-3.8-0.6
		c-3.1-0.6-5.8-1.4-7.6-2c-1.3-0.4-2.1-0.8-2.1-0.8s7.2-11.7,10.8-16.6c2.6-3.4,5.9-7.6,7.6-9.9c0.7-0.9,1.2-1.5,1.2-1.5l0.1-2.5
		c0,0-0.1-0.2-0.2-0.6c-0.5-1.6-1.9-5.7-3.8-10.1c-2.3-5.5-5.7-13.8-5.7-13.8s-2.4-11.3-11.9-12.6c-9.5-1.3-16.5,8.2-16.5,8.2
		c-2.1-2.6-2.1-7,0.1-11.4c0.6-1.1,1.3-2.2,2.1-3.3c4.3-5.5,14.5-10.2,18.9-12.1h0c0,0,1.8,1,4.3,3c2.5,2,7.3,7.4,5.1,11.6
		c0,0,3.1,6.3,18.5,9.9c12.1,2.9,21,0.6,27.1-2.5c1.5-0.7,2.8-1.5,4-2.3c0.2-0.1,0.3-0.2,0.5-0.3c6-4.1,11.2-15,11.5-18.7
		c0,0-0.2-0.1-0.4-0.2c0,0,3.1,0.7,7.8,2.4C275.5,151.5,279.5,153.2,279.5,153.2z"/>
	<path d="M215.3,206l-0.9,3.1c-5.9,5.3-12.4,20.2-15.1,27c-3.1-0.6-5.8-1.4-7.6-2c-1.3-0.4-2.1-0.8-2.1-0.8s7.2-11.7,10.8-16.6
		c2.6-3.4,5.9-7.6,7.6-9.9c0.7-0.9,1.2-1.5,1.2-1.5l0.1-2.5c0,0-0.1-0.2-0.2-0.6c-0.5-1.6-1.9-5.7-3.8-10.1
		c-2.3-5.5-5.7-13.8-5.7-13.8s-2.4-11.3-11.9-12.6c-9.5-1.3-16.5,8.2-16.5,8.2c-2.1-2.6-2.1-7,0.1-11.4c3.4-2,7.9-4.4,11.7-5.2
		c7-1.4,12.6,0.3,15.2,2c2.6,1.7,2.8,8.2,2.8,8.2s1.9,5.1,8,17.1C215.2,196.4,215.3,206,215.3,206z"/>
	<path d="M240.6,239.8c-1.2,0.2-2.2,0.5-3.1,0.6c0,0-2.5-23.1-3.5-26.6C235.1,215.7,239.6,231.8,240.6,239.8z"/>
	<path d="M273,174.4c0,0-14.4-1-20.3-3.1c0,0,1.4,8,1.8,13.6c0.4,5.5,0.2,15.1,0.1,17.9c-0.4-2.1-1.1-5.8-2.1-12
		c-1.4-8.5-3.6-16.9-5-21.8c1.5-0.7,2.8-1.5,4-2.3c1.1,0.3,2.3,0.5,3.8,0.8c6.2,1.1,15.2,0.7,19,0.3
		C273.3,171.5,273,174.4,273,174.4z"/>
	<path d="M322.5,150.4l-2.1,7l-1.1,3.5c-4.8,4-16.8,8.7-29.5,10.8c-12.7,2.1-16.8,2.2-16.8,2.2s0.1-3.7,1.9-9.4c0-0.1,0-0.2,0.1-0.2
		c2.1-6.7,4.5-11.1,4.5-11.1s3.4,1.5,5.1,1.2c3-0.5,16.9-2.4,23.7-3.2C315.1,150.5,322.5,150.4,322.5,150.4z"/>
	<g>
		<path d="M248.9,121.5c0,4-0.1,12.1-4.5,20c-4,7.2-8.9,8.1-13.6,6.8c-0.4-0.1-0.9-0.3-1.3-0.4c-5.1-1.9-8.3-8.8-8.6-12.7
			c0,0,0.7-3.1,4.8-8.7c4.1-5.6,4.6-5.3,5.1-5c0.1,0.1,0.2,0.1,0.4,0.2c0.9,0.5,4.3,1.7,9.2,1.5
			C246.3,123.1,248.9,121.5,248.9,121.5z"/>
		<path d="M230.8,148.3c-0.4-0.1-0.9-0.3-1.3-0.4c-5.1-1.9-8.3-8.8-8.6-12.7c0,0,0.7-3.1,4.8-8.7c4.1-5.6,4.6-5.3,5.1-5
			c0.1,0.1,0.2,0.1,0.4,0.2c-3.2,4.5-5.6,9.6-5.5,14.8C225.7,141.4,226.4,145.4,230.8,148.3z"/>
	</g>
	<path d="M248.9,121.5c0,0-4.2,2.1-10.7,1.7h0c0,0-0.1,0-0.1,0c-0.4,0-0.7-0.1-1.1-0.1h0c-1.2-0.1-2.2-0.3-3.1-0.4
		c-0.2,0-0.4-0.1-0.6-0.1c0,0,0,0,0,0c-0.7-0.2-1.3-0.3-1.7-0.5c-0.1,0-0.3-0.1-0.4-0.1c-0.9-0.4-1.3-0.6-1.3-0.6s2.3-3.3,6.4-5
		c4.1-1.7,9.6-1.8,10.8-1.7c1.2,0.2,2.5,1.2,2.6,3.1C249.7,119.8,248.9,121.5,248.9,121.5z"/>
	<path d="M231.3,125.3c-1.2-0.1,1.3-1.6,3.5-1.5c2.2,0.1,4.7,2.1,3.8,3.4C238.6,127.3,234.1,125.6,231.3,125.3z"/>
	<path d="M244.1,128c-0.8,0,0.3-1.8,1.9-2.4c1.8-0.7,3.4,0.7,3.4,0.7S245.7,128,244.1,128z"/>
	<path d="M225,161.3c-1.2,1.4-2.7,4.7-3.8,7.3c-0.9,2.1-1.6,3.8-1.6,3.8s-7.8,2.7-13.4,4.4c-5.5,1.8-13.1,4.7-23.7,3.4
		c-10.6-1.3-12.3-7.4-11.7-9.1c0.3-0.8,0.7-1.6,1.3-2.4c2.6-3.5,7.8-6.5,12.5-8.8c5.7-2.8,15.9-0.4,24.6,0.8
		C218,162.1,225,161.3,225,161.3z"/>
	<path d="M211.9,256.7c-0.7,1-1.9,3-3.6,5.5c-5.5,8.4-14.9,22.9-18.8,29c-5.6,8.8-22.5,36.1-25.2,38.5c-0.3,0.3-0.7,0.6-1.1,0.9
		c-1.8,0.9-3.8,1.9-5.2,2.5c-2.9,1.2-3.9,1.2-3.9,1.2l-1.6-1.5c-0.2-0.3-0.3-0.5-0.3-0.5s0.1-0.6,0.3-1.6c0.9-5.7,4.2-24.7,7.6-29.5
		c4-5.6,9.8-7.5,9.8-7.5s3.4-12.6,7.1-22.2c2.5-6.5,5.4-14.1,7.1-18.3c0.8-2,1.3-3.3,1.3-3.3c2,0.9,7.3,3.1,14.7,4.7
		c1.8,0.4,3.7,0.8,5.7,1.1C207.7,256.2,209.7,256.5,211.9,256.7z"/>
	<path d="M253.5,253.1c0,0.8-0.1,2.2-0.1,3.9c-0.2,5.5-0.4,14.3-0.6,18.7c-0.3,6.7-1.9,49.1-2.3,55.7c-0.1,1-0.1,1.9-0.2,2.7
		c-1.1,1.2-2.1,3-2.2,5.6c0,0-1.8-2-3.8-3.4c-0.6-0.4-1.3-0.8-1.9-1c-2.4-6.8-8-26-9.1-34.2c-1.2-9.5,3.1-16.8,3.1-16.8
		c-0.6-3.1-4-21.5-5.2-27.2c5-0.2,9.4-0.6,12.3-1.1C247.5,255.3,251.1,254.1,253.5,253.1z"/>
	<path d="M166.6,328.9c-0.2,0.3-7.5,9.8-9.3,13.4c-1.8,3.7-2.3,10.3-2.3,10.3s-1.3,0.3-3.1,0.7c-2.4,0.5-5.9,1-9.1,1.2
		c-5.7,0.3-10.2-0.7-10.2-0.7s4.3-4,8.3-6.4c4-2.4,7.8-5.9,7.8-5.9c0.1-1.4,0.4-11.4,0.8-11.6l3,2.9l1.6,1.5c0,0,0.9,0,3.7-1.1
		c0.1,0,0.1-0.1,0.2-0.1c1.4-0.6,3.4-1.6,5.2-2.5C165,329.8,166.5,329,166.6,328.9z"/>
	<path d="M267.9,359.5c0,0-5.4-0.5-11.3-1.4c-0.4-0.1-0.8-0.1-1.1-0.2c-5.4-0.9-10-2.5-10-2.5c-0.3-1.4,0-8,0-8
		c-0.7-1.2-6.6-12.8-6.6-12.8s0.2-0.1,0.7-0.1c0.5,0,1.4,0.1,2.8,0.7c0.7,0.3,1.4,0.7,2,1.1c2,1.4,3.7,3.3,3.7,3.3
		c0.1-2.6,1.1-4.4,2.2-5.6c1.2-1.3,2.4-1.9,2.4-1.9s-0.4,7.4,0.8,11.5c1.2,4.1,1.6,4.4,4.9,7.6C261.6,354.4,267.9,359.5,267.9,359.5
		z"/>
	<path d="M255.2,208.3c-2.4,1.7-8.8,4.8-22.5,4.6c-7.3-0.1-12.8-1.2-16.9-2.5c-0.7-0.2-1.4-0.5-2-0.7c-1.1-0.4-2-0.8-2.8-1.2
		c-1.3-0.6-2.3-1.3-3-1.7c0.7-0.9,1.2-1.5,1.2-1.5l0.1-2.5c0,0-0.1-0.2-0.2-0.6c1,0.5,2.4,1.1,3.9,1.7c0.4,0.2,0.9,0.3,1.3,0.5
		c1.4,0.5,3,1,4.7,1.4c3.3,0.8,7.1,1.4,11.5,1.5c12,0.4,20.2-1.9,23.9-3.2c0.1,0.7,0.2,2.3,0.5,3.9
		C255.1,207.9,255.1,208,255.2,208.3z"/>
	<g>
		<path d="M334.4,153.6c-0.1,0.2-0.2,0.3-0.2,0.3c1.6,0.9,1.4,2.1,0.9,3c-0.2,0.4-0.5,0.7-0.6,0.9c-0.1,0.1-0.1,0.1-0.1,0.1
			c0.2,0.2,0.3,0.4,0.4,0.6c0.5,1.6-2.9,3.3-5.5,3.6c-0.8,0.1-1.3,0-1.8-0.1c-0.1,0-0.1,0-0.2-0.1c-0.2-0.1-0.3-0.1-0.4-0.2
			c-0.1,0-0.1-0.1-0.2-0.1c-0.1-0.1-0.1-0.1-0.2-0.2c0-0.1-0.1-0.1-0.1-0.2c0-0.1-0.1-0.1-0.1-0.2c0,0,0-0.1,0-0.1
			c0-0.1,0-0.1,0-0.1c-3.1,1.2-6.8,0-6.8,0s0.4-1.4,1-3.6c0.1-0.3,0.2-0.7,0.3-1.1c0.2-0.6,0.4-1.3,0.6-1.9c0.7-2.1,1.3-3.9,1.3-3.9
			c3.4-1.3,5.5-0.8,6-0.6c0.1,0,0.2,0.1,0.2,0.1s0,0,0.1-0.1c0.4-0.3,1.5-1.3,3.2-2.3c2.1-1.2,2.9-0.4,2.9,0.9
			c0,0.6-0.7,1.4-0.7,1.4s0,0,0.1,0c0.1,0,0.2,0.1,0.3,0.2c0.4,0.2,0.9,0.7,0.8,1.5c0,0.3-0.2,0.7-0.3,1
			C334.9,152.8,334.6,153.3,334.4,153.6z"/>
		<path d="M329.2,162.1c-2.9,0.3-3-1.2-3-1.2c-3.1,1.2-6.8,0-6.8,0s0.4-1.4,1-3.6c1.3,0.4,3.7,0.9,4.6,0.6c0,0-0.6,1.4,1.5,1.6
			c0,0-0.2,1.2,1.6,1.3c1.5,0.1,4.8-0.8,6.6-2.3C335.1,160,331.7,161.8,329.2,162.1z"/>
	</g>
	<path d="M221.2,168.6c-0.9,2.1-1.6,3.8-1.6,3.8s-7.8,2.7-13.4,4.4c-5.5,1.8-13.1,4.7-23.7,3.4c-10.6-1.3-12.3-7.4-11.7-9.1
		c0.3-0.8,0.7-1.6,1.3-2.4c2.4,2.2,6.3,4.4,18.8,3.7C204.1,171.9,217.7,169.3,221.2,168.6z"/>
	<path d="M320.4,157.4l-1.1,3.5c-4.8,4-16.8,8.7-29.5,10.8c-12.7,2.1-16.8,2.2-16.8,2.2s0.1-3.7,1.9-9.4c3.5,0.8,9.1,1.4,17.1,0.4
		C303.9,163.6,315.7,159.2,320.4,157.4z"/>
	<g>
		<path d="M256.9,236.6v15c0,0-1.3,0.7-3.4,1.5c-2.4,1-6,2.1-10,2.8c-2.9,0.5-7.3,0.9-12.3,1.1c-6,0.3-12.9,0.2-19.3-0.3
			c-2.1-0.2-4.2-0.4-6.1-0.8c-6.7-1.1-12.2-2.7-15.9-4.1c-2.1-0.7-3.6-1.4-4.5-1.8c-0.6-0.3-0.9-0.4-0.9-0.4
			c0.7-2.8,2.5-6.7,4.2-9.9c1.6-3.2,3.1-5.7,3.1-5.7c2.5,0.8,6.8,2.1,11.4,2.6c7,0.7,16,0,16,0s3.4-4.9,6.2-10.8
			c2.8-6,6.5-12.5,6.5-12.5l0.2,0.1l1.1,0.3l0.9,0.2c1,3.5,3.5,26.6,3.5,26.6C242.2,239.5,251.6,237.6,256.9,236.6z"/>
		<path d="M256.9,236.6v1.7c-7,2.4-21.3,7.1-21.3,7.1s-1.4-10.8-1.9-22c-0.2-4.9-0.5-7.9-0.6-9.8l0.9,0.2c1,3.5,3.5,26.6,3.5,26.6
			C242.2,239.5,251.6,237.6,256.9,236.6z"/>
		<path d="M232,213.3c-3.1,6.6-11.3,27.1-11.3,27.1s-6.8,2.5-16.5,1.3c-9.6-1.1-9.6-1.1-9.6-1.1s-3.6,5.2-4.8,11.2
			c-2.1-0.7-3.6-1.4-4.5-1.8c-0.6-0.3-0.9-0.4-0.9-0.4c0.7-2.8,2.5-6.7,4.2-9.9c1.6-3.2,3.1-5.7,3.1-5.7c2.5,0.8,6.8,2.1,11.4,2.6
			c7,0.7,16,0,16,0s3.4-4.9,6.2-10.8c2.8-6,6.5-12.5,6.5-12.5L232,213.3z"/>
	</g>
	<path d="M214.4,204.3c-0.5-0.2-0.9-0.3-1.3-0.5l0,0c-1.6-0.6-2.9-1.2-3.9-1.7c0.1,0.4,0.2,0.6,0.2,0.6l-0.1,2.5
		c0,0-0.5,0.6-1.2,1.5c0.7,0.5,1.8,1.2,3.2,1.9c0.2,0.1,0.3,0.2,0.5,0.2c0.1,0.1,0.2,0.1,0.4,0.2c0.2,0.1,0.3,0.1,0.5,0.2
		c0.1,0.1,0.2,0.1,0.3,0.1c0.3,0.1,0.6,0.2,0.9,0.4c0.6,0.2,1.3,0.5,2,0.7c1.3-1.3,2.7-3.4,3.2-4.8
		C217.4,205.3,215.8,204.8,214.4,204.3z"/>
	<path d="M218.6,205.6c-2.1,2.9-6.7,6.2-19.3,8.2c-0.1,0-0.2,0-0.4,0.1c-12.9,2-15-0.9-15-0.9c1.9-1,4.6-3.2,4.6-3.2s1.6-0.1,4-0.4
		c3.1-0.4,7.5-1,11.1-1.8c6.4-1.5,10.7-4,10.7-4C217.8,204.1,218.6,205.6,218.6,205.6z"/>
	<path d="M253.4,257c-2.9,1.7-7.7,3.7-14.2,4.7c0,9.4-0.1,21.1-0.3,24.9c0,0-2.4,8.4,0,22.1c1.7,9.6,4.1,21.4,5.3,27.6
		c-0.6-0.4-1.3-0.8-1.9-1c-2.4-6.8-8-26-9.1-34.2c-1.2-9.5,3.1-16.8,3.1-16.8c-0.6-3.1-4-21.5-5.2-27.2c5-0.2,9.4-0.6,12.3-1.1
		c4-0.6,7.6-1.8,10-2.8C253.5,254,253.4,255.3,253.4,257z"/>
	<path d="M205.7,255.9c-2-0.3-3.9-0.7-5.7-1.1c-7.4-1.7-12.6-3.8-14.7-4.7c0,0-0.5,1.2-1.3,3.3c2.5,1.7,7.3,4.6,13.5,6.7
		c-4.3,9.2-9.8,21.3-13.2,29.3c-6.1,14.4-19.8,38-29,42.8c0,0-1.3-0.6-2.8-1.3c-0.2,1-0.3,1.6-0.3,1.6s0.1,0.2,0.3,0.5l1.6,1.5
		c0,0,1,0,3.9-1.2c1.4-0.6,3.4-1.6,5.2-2.5c0.4-0.3,0.8-0.6,1.1-0.9c2.7-2.4,19.5-29.7,25.2-38.5c3.9-6.1,13.3-20.6,18.8-29
		c1.6-2.5,2.9-4.5,3.6-5.5C209.7,256.5,207.7,256.2,205.7,255.9z"/>
	<path d="M166.6,328.9c-0.2,0.3-7.5,9.8-9.3,13.4c-1.8,3.7-2.3,10.3-2.3,10.3s-1.3,0.3-3.1,0.7c-0.4-6.2,2.1-12.8,5.9-20
		c0.1,0,0.1-0.1,0.2-0.1c1.4-0.6,3.4-1.6,5.2-2.5C165,329.8,166.5,329,166.6,328.9z"/>
	<path d="M255.5,357.9c-5.4-0.9-10-2.5-10-2.5c-0.3-1.4,0-8,0-8c-0.7-1.2-6.6-12.8-6.6-12.8s0.2-0.1,0.7-0.1c0.5,0,1.4,0.1,2.8,0.7
		c0.7,0.3,1.4,0.7,2,1.1c3.5,5.2,3.2,8.9,4.3,11.9C249.5,350.9,253.3,355.4,255.5,357.9z"/>
	<g>
		<path d="M241.1,140.2C241.1,140.2,241.1,140.2,241.1,140.2c-0.1,0-2.7-0.5-4.4-1.9c-0.1-0.1-0.1-0.2,0-0.2c0.1-0.1,0.2-0.1,0.2,0
			c1.4,1.1,3.5,1.6,4.1,1.8c0.2-0.9,0.6-7,0.9-11c0-0.1,0.1-0.2,0.2-0.2c0.1,0,0.2,0.1,0.2,0.2C241.5,139.9,241.3,140.1,241.1,140.2
			C241.2,140.2,241.1,140.2,241.1,140.2z"/>
	</g>
	<path d="M230.1,141.6c0,0,1.3-1.7,3.6-1.7c2.3,0.1,3.2,3.8,3.2,3.8s-1.7-1-3.5-1.5C231.7,141.7,230.1,141.6,230.1,141.6z"/>
	<g>
		<path d="M243.6,115.5c0,0.1,0,0.2-0.1,0.2c-4.8,0.9-8.9,4.1-11.4,6.1c-0.2,0.1-0.3,0.2-0.5,0.4c-0.1,0-0.3-0.1-0.4-0.1
			c0.2-0.1,0.4-0.3,0.6-0.5c2.5-2,6.7-5.2,11.6-6.1C243.5,115.4,243.5,115.4,243.6,115.5z"/>
	</g>
	<g>
		<path d="M246.4,117.1c-2.6,2.1-9.6,4.6-12.5,5.6c-0.2,0-0.4-0.1-0.6-0.1c2.4-0.8,10.2-3.6,12.9-5.8c0.1-0.1,0.2,0,0.2,0
			C246.5,117,246.5,117.1,246.4,117.1z"/>
	</g>
	<g>
		<path d="M247.5,118.8c-2.1,2.4-6.5,3.8-9.2,4.5h0c0,0-0.1,0-0.1,0c-0.4,0-0.7-0.1-1.1-0.1c2.5-0.5,7.8-1.9,10.2-4.6
			c0.1-0.1,0.2-0.1,0.2,0C247.5,118.6,247.5,118.7,247.5,118.8z"/>
	</g>
	<g>
		<path d="M244.6,121.8c-0.1,0-0.1,0-0.2-0.1c0-0.1,0-0.2,0.1-0.2c2.7-1,3.5-2.6,3.6-2.6c0-0.1,0.1-0.1,0.2-0.1
			c0.1,0,0.1,0.1,0.1,0.2C248.4,119.1,247.5,120.7,244.6,121.8C244.7,121.8,244.7,121.8,244.6,121.8z"/>
	</g>
	<g>
		<path d="M239.8,172c-0.1,0-0.1-0.1-0.2-0.1c0-0.1,0-0.2,0.1-0.2c0.1,0,8.4-1.9,14.2-7.2c0.1-0.1,0.2-0.1,0.2,0
			c0.1,0.1,0.1,0.2,0,0.2C248.2,170.1,239.9,172,239.8,172C239.8,172,239.8,172,239.8,172z"/>
	</g>
	<g>
		<path d="M174.9,173.5C174.9,173.5,174.9,173.5,174.9,173.5c-0.7-0.1-1.2-0.4-1.5-1c-0.4-0.7-0.5-1.8-0.1-2.6
			c0-0.1,0.1-0.1,0.2-0.1c0.1,0,0.1,0.1,0.1,0.2c-0.3,0.8-0.3,1.7,0.1,2.4c0.3,0.5,0.7,0.8,1.2,0.8c0.1,0,0.2,0.1,0.1,0.2
			C175.1,173.5,175,173.5,174.9,173.5z"/>
	</g>
	<g>
		<path d="M187.2,180.7c-1.7,0-3.6-0.1-5.8-0.4c-6.5-0.8-9.2-4.5-9.2-4.5c-0.1-0.1,0-0.2,0-0.2c0.1-0.1,0.2,0,0.2,0
			c0,0,2.6,3.5,9,4.4c6,0.8,9.9,0.2,14.1-0.3l1.1-0.1c0.1,0,0.2,0.1,0.2,0.1c0,0.1-0.1,0.2-0.1,0.2l-1.1,0.1
			C193,180.3,190.4,180.7,187.2,180.7z"/>
	</g>
	<g>
		<path d="M273,174c-0.1,0-0.2-0.1-0.2-0.2c0-0.1,0.1-0.2,0.2-0.2c0,0,4.6-0.3,11.6-1.4l0.1,0c7-1.1,15.7-2.6,22.1-5.3
			c0.1,0,0.2,0,0.2,0.1c0,0.1,0,0.2-0.1,0.2c-6.4,2.7-15.2,4.1-22.2,5.3l-0.1,0C277.7,173.8,273.1,174,273,174
			C273,174,273,174,273,174z"/>
	</g>
	<g>
		<path d="M226.8,148.9c-1.7-0.6-3.7-2.2-7.3-5.8c-3.1-3.2-4.8-5.5-5.1-6.9c0.7-2,0.5-5.6,0.2-9.4l-0.1-0.6
			c-0.4-4.2-0.5-5.9,0.9-9.1c0-0.1,0-0.2-0.1-0.2c-0.1,0-0.2,0-0.2,0.1c-1.4,3.3-1.3,5-0.9,9.3l0.1,0.6c0.4,4.3,0.6,8.9-0.7,10.2
			c-1.5,1.5-5.1,3.8-9.7,5.8c-4.8,2.1-9.4,4-9.5,4.1c-0.1,0-0.1,0.1-0.1,0.2c0,0.1,0.1,0.1,0.2,0.1c0,0,0,0,0.1,0
			c0,0,4.7-1.9,9.5-4.1c4.6-2,8.2-4.4,9.8-5.9c0.2-0.2,0.3-0.4,0.4-0.6c0.5,1.5,2.1,3.6,5,6.7c3.6,3.7,5.6,5.3,7.4,5.9
			c0,0,0,0,0.1,0c0.1,0,0.1,0,0.2-0.1C226.9,149,226.9,148.9,226.8,148.9z"/>
		<g>
			<path d="M221.1,136.8c-0.1,0-0.2-0.1-0.2-0.1c-0.1-0.4-0.1-0.8-0.2-1.4c-0.2-1.5-0.6-3.4-0.7-4.8c0-0.1,0.1-0.2,0.1-0.2
				c0.1,0,0.2,0.1,0.2,0.1c0.2,1.4,0.5,3.3,0.7,4.7c0.1,0.5,0.2,1,0.2,1.4C221.2,136.7,221.2,136.8,221.1,136.8
				C221.1,136.8,221.1,136.8,221.1,136.8z"/>
		</g>
		<g>
			<path d="M202.3,160c-0.1,0-0.2-0.1-0.2-0.2c0-2.3-0.6-3.4-1.6-5.1l-0.2-0.4c-1-1.9-3.8-4.1-3.8-4.1c-0.1-0.1-0.1-0.2,0-0.2
				c0.1-0.1,0.2-0.1,0.2,0c0.1,0.1,2.8,2.3,3.9,4.2l0.2,0.4c1,1.7,1.6,2.9,1.7,5.3C202.5,159.9,202.4,160,202.3,160z"/>
		</g>
	</g>
	<path d="M326.3,159.2c0.1,0,6.8-0.4,8.8-2.4c-0.2,0.4-0.5,0.7-0.6,0.9c-2.2,1.3-6.3,1.7-7.6,1.8c0,0.1-0.1,0.2-0.1,0.4c0,0,0,0,0,0
		c-0.1,0.4-0.2,1.1,0.2,1.5c0.1,0.1,0,0.1,0,0.2c0,0,0,0,0,0c0,0-0.1,0-0.1,0c-0.1,0-0.1,0-0.1-0.1c-0.2-0.2-0.2-0.5-0.3-0.7
		c-1.2,0.5-2.3,0.6-3.3,0.6c-2.1,0-3.6-0.6-3.6-0.6c-0.1,0-0.1-0.1-0.1-0.2c0,0,1.4-4.4,1.9-6.4c0-0.1,0.1-0.1,0.1-0.1
		c0,0,0.1,0,0.1,0c0.1,0,0.1,0.1,0.1,0.2c-0.2,0.7-0.5,1.8-0.8,2.8c-0.5,1.5-0.9,2.9-1.1,3.4c0.7,0.2,3.6,1.2,6.6-0.1c0,0,0,0,0.1,0
		c0-0.5,0.1-0.9,0.2-1.1c0,0-0.1,0-0.1,0c-0.1,0-0.1,0-0.2,0c-0.8,0-1.2-0.4-1.3-0.9c-0.1-0.2,0-0.5,0.1-0.8
		c0.1-0.3,0.4-0.5,0.8-0.7c0.7-0.3,3.3-1.1,4.4-1.3c-0.2-0.2-0.4-0.4-0.7-0.6c-0.6-0.5-1.1-1-1.4-1.2c-0.1-0.1-0.1-0.2,0-0.2
		c0-0.1,0.2-0.1,0.2,0c0.3,0.2,0.8,0.7,1.4,1.2c0.3,0.2,0.6,0.5,0.9,0.8h0c0.7,0.6,1.5,1.3,1.7,1.2c0.4-0.2,0.6-1.1-0.1-3.2
		c-0.8-2.2-2.3-3.8-3.3-3.9c-0.1,0-0.2-0.1-0.1-0.2c0,0,0,0,0,0c0-0.1,0.1-0.1,0.2-0.1c0,0,0.1,0,0.1,0c0.7,0.2,1.4,0.8,2.1,1.6
		c0.4-0.1,2.1-0.6,3.3-1.6c0.1,0,0.2,0.1,0.3,0.2c-1.2,0.9-2.8,1.5-3.4,1.7c0.5,0.6,0.9,1.4,1.2,2.2c0.1,0.2,0.1,0.3,0.2,0.5
		c0.5-0.2,1.8-0.7,2.6-1.9c-0.2,0.5-0.5,1-0.7,1.3c-0.7,0.6-1.5,0.9-1.8,1c0.6,2.2,0,2.8-0.3,2.9c0,0-0.1,0-0.1,0
		c-0.3,0-0.9-0.4-1.8-1.2c-0.4,0-3.3,0.8-4.6,1.3c-0.4,0.2-0.6,0.4-0.7,0.7c0,0.1,0,0.3,0,0.4c0.1,0.3,0.3,0.6,0.8,0.6h0
		C326,159.2,326.1,159.2,326.3,159.2z"/>
	<g>
		<path d="M236.7,206.7c0,0-0.1-0.1-0.1-0.1H231c-0.1,0-0.2,0.1-0.2,0.1v6.4c0,0.1,0.1,0.1,0.2,0.1h4.9c0.1,0,0.1-0.1,0.2-0.1
			l0.7-6.4C236.7,206.8,236.7,206.7,236.7,206.7z M235.7,213h-4.6v-6.1h5.3L235.7,213z"/>
	</g>
	<g>
		<path d="M190.2,236.8c-0.1,0-0.1,0-0.1-0.1l-9.9-15.1c0-0.1,0-0.2,0-0.2c0.1-0.1,0.2,0,0.2,0l9.9,15.1
			C190.4,236.6,190.4,236.7,190.2,236.8C190.3,236.8,190.2,236.8,190.2,236.8z"/>
	</g>
	<g>
		<path d="M236,193.8c-0.3,7.2-0.8,11.6-0.9,12.9c0,0.1,0,0.2,0,0.3h-0.3c0-0.1,0-0.2,0-0.3c0.1-1.2,0.6-5.6,0.9-12.9
			c0.4-9.1-0.1-18.7-0.7-20.8c0-0.1,0-0.2,0.1-0.2c0.1,0,0.2,0,0.2,0.1C236,175.2,236.3,185.4,236,193.8z"/>
	</g>
	<g>
		<path d="M224.6,277.4c-1.6,0-2.7-0.3-3.6-0.6c-1.1-0.3-1.8-1.2-2.9-2.7c-0.4-0.5-0.9-1.2-1.5-1.9c-2.1-2.5-8.3-10.2-8.3-10.3
			c-0.1-0.1,0-0.2,0-0.2c0.1-0.1,0.2,0,0.2,0c0.1,0.1,6.2,7.7,8.3,10.3c0.6,0.7,1.1,1.3,1.5,1.9c1.1,1.4,1.7,2.2,2.7,2.6
			c1.4,0.5,3.4,0.9,6.5,0.2c0.1,0,0.2,0,0.2,0.1c0,0.1,0,0.2-0.1,0.2C226.5,277.3,225.5,277.4,224.6,277.4z"/>
	</g>
	<g>
		<path d="M224.9,257.5c-11.7,0-22.3-1.8-27.6-3.2c-8.4-2.2-12.9-4.5-13-4.5c-0.1,0-0.1-0.1-0.1-0.2c2.3-6.5,7.2-15.5,7.3-15.6
			c0-0.1,0.1-0.1,0.2-0.1c0.1,0,0.1,0.1,0.1,0.2c-0.1,0.1-4.9,9-7.2,15.4c0.8,0.4,5.2,2.5,12.8,4.5c7,1.8,23.2,4.4,39.1,2.5
			c0.1,0,0.2,0.1,0.2,0.1c0,0.1-0.1,0.2-0.1,0.2C232.6,257.3,228.7,257.5,224.9,257.5z"/>
	</g>
	<g>
		<path d="M176.6,311.9l-0.3-0.2c0,0,8.7-13.8,14.9-23.6c6.1-9.7,20.3-31.4,20.5-31.7c0.1-0.1,0.2-0.1,0.2,0c0.1,0.1,0.1,0.2,0,0.2
			c-0.1,0.2-14.3,22-20.5,31.7C185.3,298.2,176.6,311.9,176.6,311.9z"/>
	</g>
	<g>
		<path d="M172,301C172,301,172,301,172,301c-1.1-0.4-1-2.1-1-3c0-0.1,0-0.2,0-0.3c0-0.1,0.1-0.2,0.2-0.2s0.2,0.1,0.2,0.2
			c0,0.1,0,0.2,0,0.3c0,0.8-0.1,2.3,0.7,2.7c0.1,0,0.1,0.1,0.1,0.2C172.1,300.9,172.1,301,172,301z"/>
	</g>
	<g>
		<path d="M156.2,312.6C156.2,312.6,156.2,312.6,156.2,312.6c-0.1,0-0.2-0.1-0.2-0.2l0-0.1c0.3-1.5,2.2-9,4.9-12.3
			c2.7-3.3,8.2-6,8.9-6.3c0.3-0.9,3-10.3,3.9-13.2c0-0.1,0.1-0.1,0.2-0.1c0.1,0,0.1,0.1,0.1,0.2c-1,3-3.9,13.1-4,13.3
			c0,0,0,0.1-0.1,0.1c-0.1,0-6,2.8-8.9,6.3c-2.6,3.2-4.5,10.7-4.8,12.2l0,0.1C156.3,312.5,156.3,312.6,156.2,312.6z"/>
	</g>
	<g>
		<path d="M237.7,320.7c-0.1,0-0.1,0-0.2-0.1c0-0.2-4.7-16.5-4.8-23.3c0-6.5,3-12.5,3.3-13.1c-0.2-0.8-2-10.3-2.4-12.6
			c-0.4-2.4-2.8-14.5-2.8-14.5l0.3-0.1c0,0,2.3,12.1,2.8,14.5c0.4,2.4,2.4,12.7,2.4,12.7c0,0,0,0.1,0,0.1c0,0.1-3.3,6.2-3.3,13
			c0,6.8,4.7,23.1,4.7,23.2C237.9,320.6,237.9,320.6,237.7,320.7C237.8,320.7,237.8,320.7,237.7,320.7z"/>
	</g>
	<g>
		<path d="M245,288.9c-0.2,0-0.5-0.1-0.7-0.2c-0.7-0.5-0.7-1.9-0.7-1.9c0-0.1,0.1-0.2,0.2-0.2c0,0,0,0,0,0c0.1,0,0.2,0.1,0.2,0.2
			c0,0,0.1,1.2,0.6,1.7c0.2,0.1,0.4,0.2,0.6,0.1c0.1,0,0.2,0,0.2,0.1c0,0.1,0,0.2-0.1,0.2C245.2,288.9,245.1,288.9,245,288.9z"/>
	</g>
	<g>
		<path d="M218.1,269.7c-0.1,0-0.1,0-0.1-0.1c-1.8-2.7-4-5.7-4.3-5.9c-0.1,0-0.1-0.1-0.1-0.2c0-0.1,0.1-0.1,0.2-0.1
			c0.5,0.1,3.3,4.2,4.5,6C218.3,269.5,218.2,269.6,218.1,269.7C218.1,269.7,218.1,269.7,218.1,269.7z"/>
	</g>
	<g>
		<path d="M283.9,154.5c-0.8,0-1.3-0.1-1.9-0.2c-0.1,0-0.1-0.1-0.1-0.2c0-0.1,0.1-0.1,0.2-0.1c1.1,0.3,2,0.4,5.9-0.2
			c4.2-0.6,18.5-2.6,21.4-2.8c0.1,0,0.2,0.1,0.2,0.2c0,0.1-0.1,0.2-0.1,0.2c-2.9,0.3-17.4,2.2-21.4,2.8
			C285.9,154.4,284.7,154.5,283.9,154.5z"/>
	</g>
	<path d="M236.7,131.8c-0.2,1.2-0.8,2.1-1.1,2c-0.4-0.1-0.5-1.1-0.2-2.3c0.2-1.2,0.8-2.1,1.1-2C236.8,129.6,236.9,130.6,236.7,131.8
		z"/>
	<path d="M246,132.7c-0.2,1.2-0.8,2.1-1.1,2c-0.4-0.1-0.5-1.1-0.2-2.3c0.2-1.2,0.8-2.1,1.1-2C246.2,130.5,246.3,131.6,246,132.7z"/>
	<path d="M179.5,214.9c0,0,0,0-0.1-0.1c-0.1-0.1-0.1-0.2-0.2-0.3c0-0.9-0.2-2.3-0.5-3.7c0-0.2-0.1-0.3-0.1-0.4l0-0.1
		c-0.1-0.4-0.2-0.7-0.3-1.1c0-0.1-0.1-0.2-0.1-0.3c-0.5-1.5-1-2.8-1.4-3.2c-0.1-0.1-0.2-0.1-0.4-0.1c-0.1,0-0.2,0-0.2,0.2
		c-0.1,0.2-0.2,0.7-0.2,1.3c-0.7-2.1-1.7-5-2.5-5c-0.1,0-0.3,0.1-0.4,0.2c-0.4,0.4-0.5,1.4-0.6,2.5c-0.6-2.7-1.9-8-2.7-8.4
		c-0.2-0.1-0.3-0.1-0.5,0c-0.8,0.5-1.3,3.7-1.3,5.2c-0.5-0.6-1.1-1.1-1.6-1.7c-0.1-0.1-0.2-0.1-0.2,0c-0.1,0.1-0.1,0.2,0,0.2
		c0.6,0.6,1.2,1.1,1.7,1.7c-1.5,0.1-4.1,0.5-4.1,1.3c0,0.6,0.7,0.8,1.7,1.2c0.6,0.2,1.2,0.4,1.9,0.7c1,0.5,1.6,0.9,2,1.2
		c-0.9-0.1-1.8-0.1-2,0.1c-0.1,0.1-0.1,0.2-0.1,0.3c0.1,0.4,1.1,1.1,2.1,1.7c-1-0.2-2.2-0.4-2.6,0c-0.1,0.1-0.2,0.2-0.2,0.5
		c0.2,1,3.1,2.2,4.5,2.8c-0.5,0-0.9,0.2-1,0.3c0,0.1,0,0.2,0,0.3c0.4,0.6,3.4,2.1,5.8,2.9c0.7,0.2,1.3,0.4,1.8,0.5c0,0,0.1,0,0.1,0
		c0,0,0,0,0,0c0,0,0.1,0,0.1,0c0,0,0.1-0.1,0.1-0.1c0-0.1-0.1-0.2-0.1-0.2c0,0-0.1,0-0.2,0c-2.3-0.4-7.2-2.7-7.2-3.1
		c0.1-0.1,0.7-0.2,1.5-0.2c0,0,0,0,0,0h0.1c1.3,0,3.1,0.1,4.8,0.3c0.4,0.5,0.7,0.9,1.1,1.3l-1.8-0.3c-0.1,0-0.2,0.1-0.2,0.1
		c0,0.1,0,0.2,0.1,0.2l2.1,0.3c0.4,0.5,0.7,0.9,0.8,1.1c0.1,0.1,0.1,0.2,0.1,0.2c0,0,0.1,0.1,0.1,0.1c0,0,0,0,0,0c0,0,0,0,0.1,0
		C179.6,215.1,179.6,215,179.5,214.9z M169.6,196.5c0.1-0.1,0.1,0,0.2,0c0.6,0.3,2.1,6,2.8,9.4c0,0.2,0,0.4,0,0.6
		c-0.2-0.2-0.3-0.4-0.5-0.5c-0.2-0.2-0.4-0.5-0.6-0.7c-0.1-0.3-0.8-2.5-1-3.2c0-0.1-0.1-0.1-0.2-0.1c-0.1,0-0.1,0.1-0.1,0.2
		c0.2,0.5,0.6,1.7,0.8,2.5c-0.8-0.9-1.7-1.9-2.6-2.8C168.3,200.6,169,197,169.6,196.5z M167.6,204.7c-0.7-0.3-1.3-0.6-1.9-0.8
		c-0.8-0.3-1.5-0.5-1.5-0.9c0-0.3,1.9-0.8,4-1c0.9,0.9,1.7,1.9,2.6,2.8l-3-1.4c-0.1,0-0.2,0-0.2,0.1c0,0.1,0,0.2,0.1,0.2l3.7,1.7
		c0.2,0.2,0.4,0.5,0.6,0.7c0.2,0.2,0.3,0.3,0.5,0.5c-0.6-0.1-1.5-0.3-2.3-0.4C169.9,206.1,169.1,205.5,167.6,204.7z M172.1,211.5
		c-1.9-0.7-4.9-2-5-2.8c0-0.1,0-0.2,0.1-0.2c0.4-0.4,2.4,0,3.6,0.4c0.1,0,0.2,0,0.2-0.1c0-0.1,0-0.2-0.1-0.2c-1.6-0.8-3-1.8-3.1-2
		c0.3-0.2,2.8,0.1,5,0.6c0.5,0.6,1,1.1,1.5,1.7c0.3,0.3,0.6,0.7,0.9,1l-2.8-0.5c-0.1,0-0.2,0-0.2,0.1c0,0.1,0,0.2,0.1,0.2l3.2,0.6
		c0.4,0.5,0.8,1,1.2,1.4C175.4,211.6,173.5,211.4,172.1,211.5z M175.7,210c-0.1-0.2-1.1-2.5-1.2-3.2c0-0.1-0.1-0.1-0.2-0.1
		c-0.1,0-0.1,0.1-0.1,0.2c0.1,0.4,0.5,1.5,0.8,2.3c-0.2-0.2-0.4-0.4-0.5-0.6c-0.5-0.5-1-1.1-1.5-1.7c0-1.1,0-4,0.5-4.6
		c0.1-0.1,0.1-0.1,0.1-0.1c0.5,0,1.8,3.4,2.7,6.5c0.1,0.9,0.3,1.8,0.4,2.5C176.4,210.8,176.1,210.4,175.7,210z M178.5,213.5
		c-0.4-0.5-0.8-1.1-1.3-1.7c-0.5-2-1-5.4-0.6-6c0,0,0,0,0.1,0.1c0.4,0.4,1,1.9,1.5,3.6l0.1,0.4l0.1,0.5c0.3,1.3,0.5,2.6,0.6,3.6
		C178.8,213.9,178.7,213.7,178.5,213.5z"/>
	<path d="M191,207.5c0,0,0-0.1-0.1-0.2c-0.1-0.2-0.3-0.5-0.5-0.9c0.2-1.2-0.6-9.9-1.6-11.2c-0.2-0.2-0.4-0.3-0.6-0.2
		c-0.2,0.2-0.4,0.6-0.5,1.1c-0.5-1.8-1.6-4.8-2.6-4.8c-0.2-1-0.8-3.3-1.5-3.4c-0.1,0-0.1,0-0.2,0.1c-0.2,0.1-0.3,0.6-0.3,1.2
		c-0.6-1.9-1.4-4.4-1.9-4.4c-0.6,0-0.9,2.3-1.1,4.5c-0.2-0.3-0.4-0.6-0.6-0.9c-0.1-0.1-0.2-0.1-0.2,0c-0.1,0.1-0.1,0.2,0,0.2
		c0.2,0.3,0.5,0.6,0.7,1c-1.5,0.1-5,0.3-5.4,0.8c-0.1,0.1-0.1,0.2,0,0.2c0.2,0.6,1.4,1.3,1.8,1.5c0,0,0,0.1-0.1,0.2
		c-0.1,0.7,1.1,1.7,2.6,2.8l0.1,0.1c1,0.7,2.7,2.1,3.4,2.7c-0.9-0.1-1.7,0-1.9,0.3c-0.1,0.1-0.1,0.3,0.1,0.6
		c0.8,0.9,4.2,3.1,5.7,4.1c-0.2,0-0.5-0.1-0.7-0.1c-1-0.1-1.5,0-1.6,0.4c-0.1,0.3,0,0.7,1.5,1.9c1.9,1.4,4.2,1.6,4.7,1.6
		c0.3,0.5,0.5,0.8,0.5,1c0,0.1,0,0.1,0,0.1c0,0.1,0.1,0.1,0.1,0.1c0,0,0.1,0,0.1,0C191,207.7,191.1,207.6,191,207.5z M185.2,191.7
		C185.2,191.6,185.3,191.6,185.2,191.7c0.6-0.2,1.8,2.7,2.6,5.3c-0.1,1.7,0.2,4.1,0.4,5.4c-0.2-0.4-0.5-0.8-0.7-1.2
		c-0.1-1.2-0.3-3-0.3-3.2c0-0.1-0.1-0.2-0.2-0.2c-0.1,0-0.2,0.1-0.2,0.2c0,0.1,0.2,1.5,0.3,2.4c-0.4-0.6-0.7-1.2-1.1-1.9
		C185.4,196.2,184.8,192.4,185.2,191.7z M183.7,188.3c0.3,0,0.9,1.7,1.2,3.2c0,0,0,0,0,0c-0.5,0.8,0.1,4.4,0.5,6.2
		c-0.2-0.4-0.4-0.7-0.7-1.1c0-0.1-0.1-0.6-0.2-1.1c-0.1-0.6-0.1-1.3-0.2-1.8c0-0.1-0.1-0.2-0.2-0.1c-0.1,0-0.2,0.1-0.1,0.2
		c0.1,0.9,0.2,1.6,0.2,2.1c-0.3-0.5-0.6-1-0.9-1.6C183.3,191.6,183.5,188.5,183.7,188.3z M181.2,185.2c0.3,0.1,1.2,2.7,1.9,5
		c-0.1,1.2-0.1,2.7-0.1,3.6c-0.3-0.5-0.6-1-0.9-1.5v-3c0-0.1-0.1-0.2-0.2-0.2c-0.1,0-0.2,0.1-0.2,0.2v2.5c-0.5-0.7-0.9-1.4-1.3-2
		C180.6,187.7,181,185.3,181.2,185.2z M174.9,190.6c0.3-0.3,2.9-0.6,5.3-0.7c0.4,0.6,0.8,1.2,1.3,1.9l-1.6-0.8c-0.1,0-0.2,0-0.2,0.1
		c0,0.1,0,0.2,0.1,0.2l2.1,1c0.3,0.5,0.6,1,0.9,1.5c-1.4-0.7-4.8-2.4-5.9-2.1c-0.1,0-0.2,0.1-0.2,0.1
		C176,191.6,175.1,191,174.9,190.6z M179.2,195L179.2,195c-1-0.7-2.6-2-2.5-2.5c0,0,0-0.2,0.3-0.2c1-0.3,4.7,1.5,6.1,2.3
		c0.4,0.6,0.7,1.2,1.1,1.8c-0.7-0.4-2.2-1.1-3.1-1.7c-0.1,0-0.2,0-0.2,0.1c0,0.1,0,0.2,0.1,0.2c2.4,1.3,3.3,1.8,3.6,1.9
		c0.3,0.5,0.6,1.1,0.9,1.6c-0.6-0.2-1.6-0.3-2.5-0.4c0,0,0,0,0,0C182.9,197.9,180.5,195.9,179.2,195z M180.8,198.6
		c-0.1-0.1-0.1-0.1-0.1-0.2c0.3-0.4,3.7,0,4.9,0.4c0.9,1.5,1.7,2.9,2.5,4.2c-0.3,0-0.6-0.1-1.1-0.1
		C186.7,202.7,181.8,199.6,180.8,198.6z M185.6,204.7c-1.4-1.1-1.4-1.4-1.4-1.5c0-0.1,0.2-0.2,0.7-0.2c0.2,0,0.4,0,0.6,0
		c1.5,0.2,2.6,0.3,2.8,0.3c0.2,0.3,0.3,0.5,0.5,0.8l-2.8-0.6c-0.1,0-0.2,0-0.2,0.1c0,0.1,0,0.2,0.1,0.2l3,0.7
		c0.4,0.6,0.7,1.2,0.9,1.6C189.2,206.2,187.2,205.9,185.6,204.7z M190.1,205.9c-0.2-0.4-0.5-0.9-0.9-1.5c-0.2-0.4-0.4-0.8-0.7-1.2
		c-0.4-2.8-0.9-7.5-0.1-7.9c0,0,0,0,0.1,0.1C189.4,196.5,190.2,203.8,190.1,205.9z"/>
	<path d="M184.5,212.4c-0.1-0.1-0.2-0.3-0.3-0.6c0.1-0.6,1-5.2,0.2-6.3c-0.1-0.2-0.3-0.3-0.4-0.3c-0.3,0-0.5,0.1-0.7,0.3
		c-0.1-1.5-0.5-4.7-1.4-4.8h0c-0.3,0-0.6,0.3-0.8,0.8c-0.3-1.1-0.9-3.2-2-3.1c-0.2,0-0.3,0.1-0.4,0.2c-0.3-0.9-1.3-3.5-2.1-3.8
		c-0.2-0.1-0.3,0-0.5,0.1c-0.5,0.3-0.7,1.6-0.7,2.3c-0.3-0.4-0.6-0.7-0.9-1c-0.1-0.1-0.2-0.1-0.2,0c-0.1,0.1-0.1,0.2,0,0.2
		c0.3,0.3,0.6,0.7,0.9,1.1c-0.8,0-2.6,0.1-3,0.7c-0.1,0.1-0.1,0.3,0,0.5c0.4,0.7,1.8,1.6,2.7,2.2c-0.5,0-0.8,0-1,0.1
		c-0.1,0.1-0.2,0.2,0,0.4c0.4,0.7,2.2,2.1,3,2.8c-0.2,0-0.4,0-0.5,0.1c-0.1,0-0.1,0.1-0.2,0.2c-0.1,0.7,2.5,3,3.6,4.1
		c-0.7,0.1-1.3,0.2-1.6,0.2c-0.1,0-0.1,0-0.2,0c-0.1,0-0.1,0.1-0.1,0.2l0.1,0.4l0.1,0.4l0.1,0.5l0,0.1c0,0,0,0,0,0.1
		c0.1,0.1,0.2,0.2,0.4,0.2c1.2,0.6,4.5,1,5.2,1.1c0.1,0.3,0.2,0.5,0.3,0.6c0,0.1,0.1,0.1,0.1,0.1c0,0.1,0.1,0.1,0.2,0.1
		c0,0,0,0,0.1,0c0,0,0,0,0,0c0.1-0.1,0.1-0.1,0.1-0.2C184.6,212.5,184.6,212.5,184.5,212.4z M181.8,201.1
		C181.9,201.1,181.9,201.1,181.8,201.1c0.5,0,1,2.5,1.1,4.9c-0.4,0.7-0.5,1.9-0.6,2.6c-0.6-1-1.2-2.2-2-3.4
		C180.8,203.2,181.4,201.1,181.8,201.1z M178.8,199c0.1-0.1,0.2-0.2,0.3-0.2c0.7-0.1,1.4,1.9,1.7,3.3c-0.3,0.8-0.5,1.9-0.6,2.5
		c-0.2-0.3-0.4-0.6-0.5-0.9l0.3-1.9c0-0.1,0-0.2-0.1-0.2c-0.1,0-0.2,0-0.2,0.1l-0.3,1.5c-0.2-0.4-0.5-0.8-0.7-1.2
		C178.5,201.4,178.3,199.7,178.8,199z M176.2,195.3c0.1,0,0.1,0,0.2,0c0.6,0.2,1.5,2.4,2,3.8c-0.3,0.6-0.3,1.7-0.2,2.4
		c-0.9-1.4-1.8-2.7-2.6-3.8C175.7,196.9,175.9,195.5,176.2,195.3z M172.5,198.6c-0.1-0.1,0-0.2,0-0.2c0.2-0.4,1.8-0.5,2.9-0.5
		c0.8,1.1,1.7,2.4,2.6,3.8c-0.6-0.3-1.4-0.5-2.1-0.6C175.6,201,173.1,199.5,172.5,198.6z M174.2,201.3
		C174.2,201.3,174.2,201.3,174.2,201.3c0.1-0.2,0.8-0.1,1.6,0.1c0,0,0,0,0,0h0c0.9,0.2,1.8,0.5,2.4,0.9c0.2,0.4,0.5,0.8,0.7,1.1
		c-0.6-0.3-1.6-0.7-1.7-0.7c-0.1,0-0.2,0-0.2,0.1c0,0.1,0,0.2,0.1,0.2c0.1,0,1.3,0.5,2.1,0.9c0.2,0.3,0.4,0.6,0.6,1
		c-0.6-0.2-1.6-0.5-2.5-0.6C177.1,204,174.7,202.1,174.2,201.3z M176.6,204.6c0.1-0.1,0.4-0.1,0.8,0h0c0.8,0.1,2,0.4,2.8,0.6
		c0.7,1.3,1.4,2.5,2,3.5c-0.5-0.1-1-0.2-1.6-0.2c-0.1,0-0.2,0-0.2,0C178.5,207,176.5,205,176.6,204.6z M178.7,210.4l0-0.1l-0.3-1.1
		h0c0.3-0.1,1.1-0.2,1.9-0.3c0.1,0,0.2,0,0.3,0c0.7,0,1.3,0.1,1.8,0.3c0.2,0.3,0.4,0.7,0.5,0.9l-2.3-0.5c-0.1,0-0.2,0-0.2,0.1
		c0,0.1,0,0.2,0.1,0.2l2.6,0.6c0.2,0.4,0.4,0.8,0.6,1.1C181.9,211.3,179.2,210.9,178.7,210.4z M183.4,210.3
		C183.4,210.3,183.4,210.3,183.4,210.3c-0.2-0.4-0.5-0.8-0.7-1.3c0-0.9,0.3-3.5,1.2-3.5c0,0,0,0,0.1,0c0,0,0.1,0,0.2,0.1
		c0.6,0.8,0.1,4-0.2,5.6C183.8,211,183.6,210.7,183.4,210.3z"/>
	<g>
		<path d="M206.2,203.5C206.2,203.5,206.1,203.5,206.2,203.5c-5-2.1-7.6-1.9-9.6-1.7c-0.2,0-0.4,0-0.6,0.1c-0.1,0-0.2-0.1-0.2-0.1
			s0.1-0.2,0.2-0.2c0.2,0,0.4,0,0.6-0.1c2.1-0.2,4.7-0.5,9.7,1.7c0.1,0,0.1,0.1,0.1,0.2C206.3,203.5,206.3,203.5,206.2,203.5z"/>
	</g>
	<path d="M326.6,153.9c0,0,0.3,2.1,0.4,2.9c0,0,3-1,3.5-0.8c0,0-2.1-1.8-2.6-2.1C327.9,153.9,327.3,154.2,326.6,153.9z"/>
	<g>
		<path d="M281.7,272.5c-0.1,0-0.1,0-0.1-0.1c-0.2-0.5-21.4-45.9-24.8-53.3c-0.9-1.9-2.4-5.2-4.3-8.9c-5.3-11.1-13.4-27.9-14.5-32
			c-0.5-1.7-1-3.1-1.6-4.4c-1.1-2.8-2.1-5.1-1.2-9.1c0.4-2.1,3.1-17,6.1-34.3c5.5-31,12.2-69.5,12.9-71c0-0.1,0.1-0.1,0.2-0.1
			c0.1,0,0.1,0.1,0.1,0.2c-0.6,1.5-7.7,41.6-12.9,71c-3.2,18-5.7,32.2-6.1,34.3c-0.8,3.9,0.1,6.1,1.2,8.9c0.5,1.3,1.1,2.7,1.6,4.5
			c1.1,4.1,9.1,20.8,14.4,31.9c1.8,3.8,3.4,7.1,4.3,9c3.4,7.3,24.6,52.8,24.8,53.3C281.9,272.4,281.9,272.5,281.7,272.5
			C281.8,272.5,281.8,272.5,281.7,272.5z"/>
	</g>
	<g>
		<g>
			<path d="M285.3,272.8c-0.1,0.1-0.2,0.1-0.3,0.2c-0.2,0.1-0.5,0.1-0.8,0.1c-0.9,0-2-0.4-2.4-0.6c0,0,0,0,0,0c0-0.1,0-0.2-0.1-0.3
				c0,0,0,0,0,0c0,0,2.2,0.9,3.1,0.5c0.2-0.1,0.3-0.2,0.3-0.4c0,0,0,0,0,0C285.3,272.5,285.3,272.7,285.3,272.8z"/>
		</g>
		<g>
			<path d="M285.2,272.1c-0.1,0-0.2,0.1-0.4,0.1c-1.2,0-2.7-1.4-3.3-2c0-0.2,0-0.3,0-0.5c0.7,0.8,2.7,2.5,3.7,2.1
				C285.2,271.9,285.2,272,285.2,272.1z"/>
		</g>
	</g>
	<path d="M244.1,160.7c0,0-2.9,2.7-4.1,2.9c-1.2,0.2,0.3-1.9,0.3-1.9s-1.4,1.7-3.1,2.2c-1.8,0.6,0-1.6,0-1.6s-1.5,1.5-2.8,1.7
		c-1.3,0.1,0.4-2.3,0.4-2.3s-2-1.9-1.5-2.4c0.6-0.5,4,1.6,4,1.6s-1.3-1.7-0.6-2.1c0.7-0.4,3.5,1.9,3.5,1.9s-1.1-0.8-0.6-1.5
		C240.1,158.6,244.1,160.7,244.1,160.7z"/>
	<g>
		<g>
			<path d="M256.7,54.9C256.7,55,256.7,55,256.7,54.9c-0.8,0.8-2.3,1.7-3.4,1.7c0-0.1,0-0.2-0.1-0.3c0.9,0,2.4-0.8,3.1-1.5
				c0.1-0.1,0.2-0.2,0.2-0.3C256.6,54.7,256.7,54.8,256.7,54.9z"/>
		</g>
		<g>
			<path d="M257.5,57.4c-0.7,1.2-2.9,2.2-3,2.3c0,0,0,0-0.1,0h0c-0.1,0-0.1,0-0.1-0.1c0-0.1,0-0.1,0-0.2c0,0,0,0,0.1,0
				c0.8-0.3,2.7-1.4,2.9-2.4C257.3,57.1,257.4,57.3,257.5,57.4z"/>
		</g>
	</g>
	<g>
		<path d="M235,162.3c-0.1,0-0.2-0.1-0.2-0.1c0-0.1,0-0.2,0.1-0.2L356.6,143c0.1,0,0.2,0,0.2,0.1c0,0.1-0.1,0.2-0.1,0.2L235,162.3
			C235,162.3,235,162.3,235,162.3z"/>
	</g>
	<g>
		<g>
			<path d="M241.6,164c-0.1,0.4-0.7,0.9-1.1,1.2c0,0,0,0,0,0c-0.3,0.2-0.5,0.3-0.5,0.3s0.1,0.1,0.2,0.2c0.5,0.5,1.6,1.8-1.6,2.6
				c0,0,0,0,0.1,0c0.1,0,0.2,0.1,0.4,0.2c0.4,0.3,0.9,0.9,0.3,1.4c-0.3,0.3-0.5,0.4-0.7,0.6c0,0-0.2,0.1-0.6,0.3
				c-0.2,0.1-0.3,0.1-0.3,0.1s0,0,0,0c0,0,0.1,0.1,0.2,0.3c0.1,0.2,0.2,0.4,0.3,0.7c0.1,0.8-0.6,1.9-4.2,2.7
				c-7.4,1.6-8.9,1-10.6,0.3c-1.7-0.7-3.9-2.6-3.9-2.6s0.4-1.2,1.2-3c0.3-0.8,0.7-1.7,1.1-2.6c1.4-3.3,3.1-5.5,3.1-5.5
				c1.5-0.8,5.2-2.8,7.5-1.8c1.6,0.7,2.9,2.3,2.4,3.5c-3.2,0.6-4.1-0.2-4.4-0.5c-0.1-0.1-0.2,0-0.2,0c-0.1,0.1,0,0.2,0,0.2
				c0.4,0.4,1.2,0.7,2.6,0.7c0.8,0,1.7-0.1,3-0.4c0.1,0,0.1-0.1,0.1-0.2c0.5-0.1,1.3-0.2,2.3-0.2C241.6,162.4,241.8,163.3,241.6,164
				z"/>
			<path d="M234,174.7c-7.4,1.6-8.9,1-10.6,0.3c-1.7-0.7-3.9-2.6-3.9-2.6s0.4-1.2,1.2-3c1.5,1.1,3.4,2.4,7,3c2.8,0.5,7.7,0,10.4-0.4
				C238.3,172.8,237.6,173.9,234,174.7z"/>
		</g>
		<g>
			<path d="M213.1,174.8c-0.1,0-0.1,0-0.2-0.1c0-0.1,0-0.2,0.1-0.2c3.1-1,5.9-2,6.4-2.2c1.2-3.6,4.8-10.2,4.8-10.3
				c0-0.1,0.1-0.1,0.2-0.1c0.1,0,0.1,0.1,0.1,0.2c0,0.1-3.6,6.7-4.8,10.3c0,0-0.1,0.1-0.1,0.1C219.7,172.6,216.6,173.6,213.1,174.8
				C213.1,174.8,213.1,174.8,213.1,174.8z"/>
		</g>
		<g>
			<path d="M240,165.6c0,0,0.1,0.1,0.2,0.2c-1.3,0.5-3.3,0.9-6.3,0.9c-0.7,0-1.5,0-2.4-0.1c-0.1,0-0.2-0.1-0.2-0.2
				c0-0.1,0.1-0.2,0.2-0.2c4.7,0.4,7.6-0.4,9-1C240.2,165.5,240,165.6,240,165.6z"/>
		</g>
		<g>
			<path d="M239,168.6c-1,0.3-2.4,0.5-4.2,0.5c-1.1,0-2.3-0.1-3.7-0.3c-0.1,0-0.2-0.1-0.1-0.2c0-0.1,0.1-0.1,0.2-0.1
				c3.5,0.5,6,0.3,7.5-0.1C238.7,168.4,238.8,168.5,239,168.6z"/>
		</g>
		<g>
			<path d="M238,171.3c-0.9,0.4-2.6,0.9-5.3,0.9c-0.4,0-0.8,0-1.2,0c-0.1,0-0.2-0.1-0.2-0.2c0-0.1,0.1-0.2,0.2-0.2
				c3.2,0.2,5.2-0.4,6.2-0.8C237.8,171.1,237.9,171.2,238,171.3z"/>
		</g>
	</g>
	<path d="M199.3,213.8c-0.1,0-0.2,0-0.4,0.1c-12.9,2-15-0.9-15-0.9c1.9-1,4.6-3.2,4.6-3.2s1.6-0.1,4-0.4
		C194.7,211.2,197.3,212.7,199.3,213.8z"/>
	<g>
		<path d="M233.2,163.5c-2.1,0-3-0.8-3.1-0.8c-0.1-0.1-0.1-0.2,0-0.2c0.1-0.1,0.2-0.1,0.2,0c0,0,1.7,1.4,5.6,0.4
			c0.1,0,0.2,0,0.2,0.1c0,0.1,0,0.2-0.1,0.2C234.9,163.4,234,163.5,233.2,163.5z"/>
	</g>
	<g>
		<path d="M239.3,161.5c0,0-0.1,0-0.1,0l-1.5-1.3c-0.1-0.1-0.1-0.2,0-0.2c0.1-0.1,0.2-0.1,0.2,0l1.5,1.3c0.1,0.1,0.1,0.2,0,0.2
			C239.3,161.5,239.3,161.5,239.3,161.5z"/>
	</g>
	<g>
		<path d="M241.4,162.1c0,0-0.1,0-0.1-0.1c-0.1-0.1,0-0.2,0-0.2l1.2-1c0.1-0.1,0.2-0.1,0.2,0c0.1,0.1,0,0.2,0,0.2l-1.2,1
			C241.4,162.1,241.4,162.1,241.4,162.1z"/>
	</g>
	<polygon points="350.9,142.9 351.5,144.7 356.7,143.5 356.3,145.3 360.6,142.1 355.4,141.1 356.3,142.5 	"/>
	<path d="M209.4,202.8c0,1-0.1,2-0.1,2s-1.8-1.1-5.3-2.3c-0.4-1.2-1.1-2.6-2-3.9c0.2,0,0.3,0,0.5,0.1c5.6,0.9,6.1,1.8,6.1,1.8
		S209.4,201.8,209.4,202.8z"/>
	<g>
		<path d="M191.6,209.7c-0.1,0-0.2-0.1-0.2-0.1c0-0.1,0.1-0.2,0.1-0.2c0.1,0,11.3-1.3,14.6-2.5c0.1,0,0.2,0,0.2,0.1
			c0,0.1,0,0.2-0.1,0.2C202.9,208.4,192.1,209.6,191.6,209.7C191.6,209.7,191.6,209.7,191.6,209.7z"/>
	</g>
	<g>
		<path d="M191.6,214.6c-2.7,0-4.5-0.2-4.5-0.2c-0.1,0-0.2-0.1-0.1-0.2c0-0.1,0.1-0.2,0.2-0.1c0.1,0,7.2,0.8,13.9-0.8
			c0.1,0,0.2,0,0.2,0.1c0,0.1,0,0.2-0.1,0.2C197.7,214.4,194.3,214.6,191.6,214.6z"/>
	</g>
	<g>
		<path d="M193.7,203.8c-1,2.7-4.1,5.8-9.1,9c0,0,0,0,0,0c-2.1,1.4-3.8,2.1-5.1,2.4c-0.5,0.2-1,0.2-1.5,0.3c-0.1,0-0.1,0-0.2,0
			c-0.2,0-0.3,0-0.4,0c-0.6,0-1-0.1-1.4-0.1l-0.1,0c-0.1,0-0.2-0.1-0.1-0.2c0-0.1,0.1-0.2,0.2-0.1l0.1,0l0,0c0.4,0.1,1,0.2,1.7,0.1
			c0.4,0,0.8-0.1,1.4-0.2c0.1,0,0.2-0.1,0.3-0.1c1.2-0.3,2.8-1,4.8-2.3c0,0,0.1-0.1,0.1-0.1c0.1,0,0.1-0.1,0.2-0.1
			c2.6-1.7,4.6-3.3,6.1-4.8c0.1-0.1,0.2-0.2,0.2-0.2c1.2-1.3,2-2.5,2.4-3.7c0-0.1,0.1-0.1,0.2-0.1
			C193.7,203.6,193.7,203.7,193.7,203.8z"/>
	</g>
</g>
</svg>
