<svg xmlns="http://www.w3.org/2000/svg" viewBox="0 0 400 400"><circle cx="200" cy="200" r="191.5" fill="#101006"/><path d="M200 9c25.8 0 50.8 5 74.3 15 22.7 9.6 43.2 23.4 60.7 40.9s31.3 38 40.9 60.7c10 23.5 15 48.6 15 74.3s-5 50.8-15 74.3c-9.6 22.7-23.4 43.2-40.9 60.7s-38 31.3-60.7 40.9c-23.5 10-48.6 15-74.3 15s-50.8-5-74.3-15c-22.7-9.6-43.2-23.4-60.7-40.9s-31.3-38-40.9-60.7C14 250.8 9 225.8 9 200s5-50.8 15-74.3C33.6 103 47.4 82.5 64.9 65s38-31.3 60.7-40.9C149.2 14 174.2 9 200 9m0-1C94 8 8 94 8 200s86 192 192 192 192-86 192-192S306 8 200 8h0z"/><g fill="#fcb600"><path d="M207.8.2C147.8-2 96.1 19.1 54.7 62.7 18.3 101.1.1 147.4 0 200.4-.2 310.2 89.4 400.6 199.8 400c110.7.7 201.1-89.8 200.2-201.1C399.1 87.3 311 3.9 207.8.2zm-7.7 381c-99 0-182.2-80.6-180.4-184.7C21.4 103.1 98.5 16.1 209 20.2c88.8 3.2 174.5 78.3 171.9 185.9-2.3 94.2-80.2 175.1-180.8 175.1z"/><g fill-rule="evenodd"><path d="M270.4 54.5c-2.2-2.3-4.9-3.7-8.3-3.4-3.2.2-5.7 1.6-7.8 3.8-3.6 3.7-4.1 7.8-1.5 12.3l5.7 9.6c.7 1.2 1 2.4 1.1 3.7.1 1.1-.3 2.1-1.3 2.6-1.1.5-2.2.4-3.1-.4-.7-.6-1.3-1.3-1.8-1.9-2.4-2.6-4.6-5.4-7.3-7.7-2.9-2.4-6-4.4-9.7-4.8-6.1-.7-12.3-1.2-18.3 1.2-2.9 1.1-5.8 2.1-8.6 3.3-2.3 1-4.5 2.4-6.7 3.5l-13 6.3c-2.3 1.2-4.7 1.4-7.2 1.4-2.4 0-3.9-1.2-4.6-3.6-.1-.4-.5-.8-.7-1.2-.1-.3-.3-.7-.1-.8.6-.6 1.1-1.3 1.8-1.6a51.73 51.73 0 0 1 5.1-1.8c4.9-1.3 8.8-4 11.6-8.2.3-.5.5-1.1.6-1.7.1-.4-.2-1.1-.4-1.1-.5-.1-1.1.1-1.6.2-.2.1-.3.4-.4.6-.5.8-1.1 1.1-2 .7-1-.5-1.7-.3-2.2.7-.2.3-.3.7-.6.8-.4.2-.9.5-1.3.4-1.6-.4-2-.3-2.7 1.3-.3.7-.8 1-1.6.5-1.6-.9-2.1-.7-2.6 1.1-.3 1.1-.7 1.3-1.8 1.1a1.91 1.91 0 0 0-1.3.2c-2.1 1.3-5.3.7-6.6-1.4-.3-.5-.4-1.4-.2-2 .1-.7.9-.9 1.6-.8.9.1 1.5-.2 1.9-1 .6-1 1.4-1 2.1-.2.3.3.8.7 1 .6.6-.2 1.1-.7.9-1.5-.2-.6 0-1.2.7-1.4.7-.3 1.2 0 1.5.6.2.3.6.7.6.7.7-.4 1.4-.8 1.9-1.4.5-.5-.1-.8-.4-1.1-.5-.4-.8-1-.1-1.3.4-.2 1.2-.3 1.6-.1.3.1.5.8.7 1.2.1.2.2.5.3.8.3-.1.7-.2.9-.4.5-.9 1.1-1.8.5-3-.4-.8 0-1.5.9-1.5.7 0 1.3.4 2 .4.6 0 1.2-.3 1.8-.7.1-.1 0-.7-.2-1-.4-.7-.2-1.2.5-1.5.9-.4 1.9-.1 2.6.8.3.4.7.9 1.1.3.5-.6 1-1.5 1-2.1-.1-.5-1-.9-1.7-1.3-.3-.2-.7-.2-1-.2-1.3.1-2.6.2-3.9.4-2.2.3-4.3.8-6.5.9-1.5.1-3.1-.1-4.4-.7-2.8-1.3-5.4-3.2-8.5-4-1.2-.3-1.2-1-.5-2.1.4-.7.7-1.4 1-2.2.9-2.7.3-5.4-.2-8.1-.1-.3-.4-.6-.5-.9-.2.3-.6.5-.7.8-.9 2-2.1 3.8-3.8 5.2-1.3 1.1-2.5 2.2-3.7 3.4a4.17 4.17 0 0 0-.8 1.8c-.2 1.1-.7 1.8-1.7 2.2-.7.3-1.5.4-2.2.7-1.3.5-1.7 1.2-1.7 2.6v1.7c-.2 1.3-1.5 2.4-2.7 2.4-.4 0-.9-.4-1.3-.6.3-.4.5-.8.8-1.1.4-.4 1.2-.8 1.3-1.2.1-1.1.3-2.4-.2-3.4-1.8-3.9-4.7-6.9-8.6-8.7-.5-.2-1.1-.1-1.6-.1.1.5.1 1.1.3 1.6.6 1.3 1.6 2.5 2 3.8.7 2.5 1 5 1.6 7.5.2.9.5 1.7.9 2.6.6 1.3 1.6 2.4 1.8 3.7.6 3.1 1.1 6.2 2.8 9l4.9 7.7c.7 1 1.1 1.9 1 3l-1 5.5c-.7 3.3-.9 6.7-.1 10 .5 2.1.9 4.4 2.1 6.4 1 1.8 1.8 3.8 3.2 5.4 1.7 2.2 3.7 4 6 5.6.3.2.8.1 1.1.1 0-.3 0-.7-.1-1-.5-1-1.2-1.9-1.5-2.9-1-3.1-1.9-6.2-1.6-9.5.3-2.9 1-5.4 3-7.6s4.7-3.1 7.6-3c1 0 2.1.6 2.8 1.2.6.5.9 1.6 1.1 2.4.1.3-.3 1-.6 1.1s-.9-.1-1.3-.3c-.3-.2-.5-.5-.8-.8-1.4-1.6-3.4-1.8-5.1-.5-2.3 1.7-3.3 4.2-3.6 6.9-.3 2.6 0 5.1.9 7.6.8 2.3 1.7 4.4 3.5 6.1 1.1 1.1 1.5 2.4 1.3 3.9-.1.7.3 1.5.6 2.2.2.5.8 1.1.2 1.5-.4.3-1.3.3-1.8.1-.9-.4-1.2-1.4-1.1-2.4 0-.4.1-.8.2-1.2.2-1.4-.1-1.8-1.6-1.8l-6 .3c-3.7.2-7.5.1-11.2-.6-1.5-.3-2.7.1-3.8 1-.5.4-.9.9-1.4 1.2-2 1.5-3.5 3.5-5.9 4.4-1.9.7-3.9 1.4-5.8 2-.8.2-1.5.4-1.9 1.3-.6 1.4.2 3.9 1.4 4.8.5.3.8.2 1-.3.1-.2.1-.5.2-.7.2-.3.5-.7.7-.7.3 0 .8.2 1 .5.4.6.7 1.3 1.1 1.8.4.6 1 1 1.5 1.5.2.1.7.1.8 0 .2-.1.2-.5.2-.8 0-.2-.1-.4-.2-.6-.2-.6-.4-1.3.3-1.8s1.2 0 1.7.4c.7.5 1.5 1.1 2.3 1.4.4.2.9-.1 1.4-.2-.2-.4-.3-.9-.6-1.2-1.1-1.4-1-3.8.3-4.8 2.4-1.7 5.5-.4 5.9 2.5 0 .4.4.7.6 1 .3-.3.7-.4.9-.8.8-1.3 1.1-2.6.2-4.1-.6-1-.1-1.8 1.1-1.8 1.1 0 2.2.2 3.2.4l4.8.9c.7.1 1.4.2 2.1.4 4.3 1.2 8.6 1.8 13 1.9 1.6 0 2.2-.7 1.8-2.3-.1-.5-.4-.9-.6-1.4-.2-.7-.5-1.4-.6-2.2l-.6-4.4c-.1-.8-.1-1.6-.1-2.4.1-1.6.3-3.1.6-4.7.5-2.4 1.8-4.4 3.9-5.6 2.5-1.4 5.2.7 4.9 3-.1.6-.1 1.2-.1 1.7.1 1.2-.4 2.2-1.3 3-.4.4-1 .9-1.5.3-.3-.3-.1-1.1 0-1.5.2-.7.8-1.3 1-2 .3-1.1-.3-2-1.2-2.3-.8-.3-2.1.1-2.5.9-.6 1.1-1.3 2.3-1.4 3.5-.2 2.8-.2 5.5-.2 8.3 0 1 .6 1.5 1.5 1.4 1.3-.1 2.7-.3 3.9-.8 2.3-1 4.5-2.1 6.6-3.4 2.7-1.6 5.6-3 7.9-5.1 4.3-3.8 8.1-8.1 12.2-12.2 1.5-1.5 2.9-3.3 5.2-3.9 1.9-.5 3.8-1.3 5.7-1.6 1-.2 2.3.2 3.1.8 2.5 1.8 4.9 3.9 7.4 5.8 1.5 1.2 3 2.4 4.6 3.2 3.1 1.6 6.2 3.2 9.8 3.3.5 0 1 .1 1.5.3.4.1.7.4 1.1.6-.4.3-.7.7-1.1.8-1.9.5-2.2.8-2 2.8.1 1.9.3 3.8.4 5.6h-.2c0 2.1.1 4.2 0 6.3-.1 1.8-.4 3.6-1.5 5.3-1.5 2.3-3.3 3.7-6.1 3.6-1.3 0-2.6-.1-3.9-.2-.8 0-1.5.3-1.5 1.2-.1 1.7-.2 3.5 1.1 5 .3.3.8.6 1.2.8.2-.4.5-.8.6-1.2.2-.8.5-1.5 1.4-1.5 1 0 1.3.7 1.3 1.5.1 1.2.7 2.2 1.7 2.9.4.3.9.3 1.4.4 0-.4.1-.8 0-1.2-.1-.7-.3-1.5.4-1.8.8-.4 1.3.3 1.7.8.2.2.3.5.4.7.5.5.9 1.1 1.5 1.6.2.2.7.2.9.1s.3-.6.2-.9c-.1-.5-.3-.9-.3-1.4-.2-1.5.6-2.6 2-3 2-.5 3.2 0 4.2 2 .4.9.8 1 1.4.2 1.4-1.7 1.5-2.7.1-4.5-1.3-1.7-1.9-3.5-1.2-5.5.2-.5.2-1.1.3-1.7.3-2.3.5-4.7 1.1-7 .6-2.4 1.4-4.8 2.3-7.2.5-1.4 1.2-2.7 1.9-4 .8-1.3.8-1.8-.4-2.8-2.4-2-4.4-4.3-5.9-7l-4.8-8.7c-.2-.4.1-.9.1-1.4.4.2.8.3 1.1.5 1.2 1.1 2.5 1.9 4.2 1.6 1-.1 2-.3 3-.5 1.5-.4 3.1-1.1 3.6-2.7a7.86 7.86 0 0 0-.5-6.2c-1.8-3.5-3.9-6.8-5.8-10.1-1.2-2.1-2.3-4.3-2.5-6.9-.2-2.4.8-4.2 2.7-5.3 2.8-1.6 5.4-1.1 7.9.7 1 .8 1.2 1.8.5 2.9s-.7 2.1-.2 3.3c1.3 2.9 3.8 4.8 6.2 6.7.7.6 1.3.3 1.3-.6.1-1.4.1-2.9.2-4.3 1-4.6-.6-8-3.5-10.8zm-106.7-7.7c1.5-1.7 3-3.3 4.5-4.8.2-.2.7-.3.9-.2.3.2.4.6.8 1.1-.4.5-.7 1-1.1 1.4s-1 .6-1.5.9c-.8.5-1.5.9-1.1 2.1.1.2-.5.9-.8.9-.6.1-1.3-.1-1.9-.3 0 0 0-.9.2-1.1zm2.1 16.8c-1.4-.1-3-1.7-2.9-3.2 0-1.6 1.4-2.7 3.3-2.6 1.8.1 2.5.9 2.5 2.9-.1 1.7-1.3 2.9-2.9 2.9zm3.6-7.3c-2-1.6-5.5-2-7.5-.1-.2.2-.5.4-.8.4-.2.1-.5 0-.6-.1s0-.5.1-.6c1-.8 1.8-1.8 3.3-1.5 1.1-.1 2.3-.3 3.4-.4.3 0 .7-.1.9 0 1.5.9 3.4 1.1 4.6 2.6.2.3.2.7.3 1.1-.4.1-1 .4-1.3.2-.9-.4-1.6-1-2.4-1.6zm66.2 63.1c2-3.4 3.5-7.2 6.4-10 .8-.8.6-1.6-.2-2.4-.7-.7-1.5-1.4-2-2.3-1.4-2.2-2.6-4.7-4.6-6.5-1.5-1.3-3-2.7-4.8-3.6-1.2-.6-2.7-.5-4-.9-1.6-.5-2.8.3-3.9 1-.3.2-.5 1-.3 1.4 1.7 3.3 3.5 6.4 5.8 9.2 1.1 1.3 2.6 2.4 3.9 3.6 1.4 1.3 2.1 1.3 3.6.1.3-.3.8-.5 1.2-.6.2-.1.7.1.8.3s0 .6-.1.8c-.8 1.3-2.9 2-4.4 1.5-1.4-.5-2.5.1-2.8 1.6-.4 1.8-.8 3.5-1.3 5.3a44.6 44.6 0 0 1-4.5 11.1c-.7 1.3-1.7 1.9-3.1 1.9-2-.1-3.7-1-5.2-2.2-.9-.7-2.1-.9-2.5 0-.8 1.5-2 2.9-1.7 4.8v.8a9.83 9.83 0 0 0 .5 1.6c.4-.4.7-.8 1.1-1.1.5-.3 1-.8 1.5-.8.4 0 .8.7 1 1.2.3.6.3 1.4.7 2 .3.5 1 .8 1.5 1.1.2-.5.4-1.1.6-1.6.1-.2 0-.4.1-.6.2-.8.7-1.1 1.4-1 .9.1 1.1.7 1.4 1.4.3.8.7 1.7 1.3 2.4.7.8 1.3.5 1.4-.5.6-3.5 2.9-4 5.5-3.4.6.1 1.1.9 1.6 1.4a4.44 4.44 0 0 1 .8 1.1c.4-.4.9-.6 1.1-1.1.5-.8.4-1.7-.2-2.5-.4-.5-.9-.9-1.3-1.5-.3-.5-.7-1.1-.7-1.7 0-.8.1-1.7.4-2.5 1.2-2.9 2.4-6 4-8.8zm-97.3-8.4c-.1-.4-.1-.8-.1-1.2-.1-.7-.3-1.5-.1-2.1.6-1.6 2.1-2.3 3.6-2 1.2.2 1.8 1.1 2.1 2.9.1.4.4 1 .7 1.1s1-.1 1.2-.4c.5-.7.9-1.4 1.2-2.2.4-1 .9-1.4 1.9-.9 2.1 1 4.2 2.2 6.4 3.1 1.9.8 3.8 1.3 5.7 1.9.3.1.9-.1 1.1-.4.1-.1-.1-.7-.3-1.1-1.1-1.8-2.4-3.6-3.3-5.5-.8-1.8-1.9-2.3-3.7-2.4-1.3 0-2.8-.2-4-.7-2.1-.8-4.1-1.9-6.1-3-.7-.4-1.4-.4-2 .2-.7.6-1.2 1.3-2 1.8-3.3 2.4-6.7 4.4-11 4.6-.7 0-1.5.2-2.2.5-.5.2-1 .4-1.3.8-1.7 2-.8 6.4 1.5 7.6.7.3 1 .1 1-.6 0-.5-.1-1-.2-1.7 0-.3 0-.7.2-1.2.3-1 1-1.2 1.7-.4.5.6.9 1.2 1.4 1.8.3.4.7.7 1.1 1 .2.1.7.1.8-.1.1-.1.1-.5.1-.8 0-.5 0-1.3.1-1.3.5-.2 1.2-.1 1.7 0s.8.7 1.3.8c.6 0 1.1-.1 1.5-.1z"/><path d="M270.4 279.1c-2.2-2.3-4.9-3.7-8.3-3.4-3.2.2-5.7 1.6-7.8 3.8-3.6 3.7-4.1 7.8-1.5 12.3l5.7 9.6c.7 1.2 1 2.4 1.1 3.7.1 1.1-.3 2.1-1.3 2.6-1.1.5-2.2.4-3.1-.4-.7-.6-1.3-1.3-1.8-1.9-2.4-2.6-4.6-5.4-7.3-7.7-2.9-2.4-6-4.4-9.7-4.8-6.1-.7-12.3-1.2-18.3 1.2-2.9 1.1-5.8 2.1-8.6 3.3-2.3 1-4.5 2.4-6.7 3.5l-13 6.3c-2.3 1.2-4.7 1.4-7.2 1.4-2.4 0-3.9-1.2-4.6-3.6-.1-.4-.5-.8-.7-1.2-.1-.3-.3-.7-.1-.8.6-.6 1.1-1.3 1.8-1.6a51.73 51.73 0 0 1 5.1-1.8c4.9-1.3 8.8-4 11.6-8.2.3-.5.5-1.1.6-1.7.1-.4-.2-1.1-.4-1.1-.5-.1-1.1.1-1.6.2-.2.1-.3.4-.4.6-.5.8-1.1 1.1-2 .7-1-.5-1.7-.3-2.2.7-.2.3-.3.7-.6.8-.4.2-.9.5-1.3.4-1.6-.4-2-.3-2.7 1.3-.3.7-.8 1-1.6.5-1.6-.9-2.1-.7-2.6 1.1-.3 1.1-.7 1.3-1.8 1.1a1.91 1.91 0 0 0-1.3.2c-2.1 1.3-5.3.7-6.6-1.4-.3-.5-.4-1.4-.2-2 .1-.7.9-.9 1.6-.8.9.1 1.5-.2 1.9-1 .6-1 1.4-1 2.1-.2.3.3.8.7 1 .6.6-.2 1.1-.7.9-1.5-.2-.6 0-1.2.7-1.4.7-.3 1.2 0 1.5.6.2.3.6.7.6.7.7-.4 1.4-.8 1.9-1.4.5-.5-.1-.8-.4-1.1-.5-.4-.8-1-.1-1.3.4-.2 1.2-.3 1.6-.1.3.1.5.8.7 1.2.1.2.2.5.3.8.3-.1.7-.2.9-.4.5-.9 1.1-1.8.5-3-.4-.8 0-1.5.9-1.5.7 0 1.3.4 2 .4.6 0 1.2-.4 1.8-.7.1-.1 0-.7-.2-1-.4-.7-.2-1.2.5-1.5.9-.4 1.9-.1 2.6.7.3.4.7.9 1.1.3.5-.6 1-1.5 1-2.1-.1-.5-1-.9-1.7-1.3-.3-.2-.7-.2-1-.2-1.3.1-2.6.2-3.9.4-2.2.3-4.3.8-6.5.9-1.5.1-3.1-.1-4.4-.7-2.8-1.3-5.4-3.2-8.5-4-1.2-.3-1.2-1-.5-2.1.4-.7.7-1.4 1-2.2.9-2.7.3-5.4-.2-8.1-.1-.3-.4-.6-.5-.9-.2.3-.6.5-.7.8-.9 2-2.1 3.8-3.8 5.2-1.3 1.1-2.5 2.2-3.7 3.4a4.17 4.17 0 0 0-.8 1.8c-.2 1.1-.7 1.8-1.7 2.2-.7.3-1.5.4-2.2.7-1.3.5-1.7 1.2-1.7 2.6v1.7c-.2 1.3-1.5 2.4-2.7 2.4-.4 0-.9-.4-1.3-.6.3-.4.5-.8.8-1.1.4-.4 1.2-.8 1.3-1.2.1-1.1.3-2.4-.2-3.4-1.8-3.9-4.7-6.9-8.6-8.7-.5-.2-1.1-.1-1.6-.1.1.5.1 1.1.3 1.6.6 1.3 1.6 2.5 2 3.8.7 2.5 1 5 1.6 7.5.2.9.5 1.7.9 2.6.6 1.3 1.6 2.4 1.8 3.7.6 3.1 1.1 6.2 2.8 9l4.9 7.7c.7 1 1.1 1.9 1 3l-1 5.5c-.7 3.3-.9 6.7-.1 10 .5 2.1.9 4.4 2.1 6.4 1 1.8 1.8 3.8 3.2 5.4 1.7 2.2 3.7 4 6 5.6.3.2.8.1 1.1.1 0-.3 0-.7-.1-1-.5-1-1.2-1.9-1.5-2.9-1-3.1-1.9-6.2-1.6-9.5.3-2.9 1-5.4 3-7.6s4.7-3.1 7.6-3c1 0 2.1.6 2.8 1.2.6.5.9 1.6 1.1 2.4.1.3-.3 1-.6 1.1s-.9-.1-1.3-.3c-.3-.2-.5-.5-.8-.8-1.4-1.6-3.4-1.8-5.1-.5-2.3 1.7-3.3 4.2-3.6 6.9-.3 2.6 0 5.1.9 7.6.8 2.3 1.7 4.4 3.5 6.1 1.1 1.1 1.5 2.4 1.3 3.9-.1.7.3 1.5.6 2.2.2.5.8 1.1.2 1.5-.4.3-1.3.3-1.8.1-.9-.4-1.2-1.4-1.1-2.4 0-.4.1-.8.2-1.2.2-1.4-.1-1.8-1.6-1.8l-6 .3c-3.7.2-7.5.1-11.2-.6-1.5-.3-2.7.1-3.8 1-.5.4-.9.8-1.4 1.2-2 1.5-3.5 3.5-5.9 4.4-1.9.7-3.9 1.4-5.8 2-.8.2-1.5.4-1.9 1.3-.6 1.4.2 3.9 1.4 4.8.5.3.8.2 1-.3.1-.2.1-.5.2-.7.2-.3.5-.7.7-.7.3 0 .8.2 1 .5.4.6.7 1.3 1.1 1.8.4.6 1 1 1.5 1.5.2.1.7.1.8 0 .2-.1.2-.5.2-.8 0-.2-.1-.4-.2-.6-.2-.6-.4-1.3.3-1.8s1.2 0 1.7.4c.7.5 1.5 1.1 2.3 1.4.4.2.9-.1 1.4-.2-.2-.4-.3-.9-.6-1.2-1.1-1.4-1-3.8.3-4.8 2.4-1.7 5.5-.4 5.9 2.5 0 .3.4.7.6 1 .3-.3.7-.4.9-.8.8-1.3 1.1-2.6.2-4.1-.6-1-.1-1.8 1.1-1.8 1.1 0 2.2.2 3.2.4l4.8.9c.7.1 1.4.2 2.1.4 4.3 1.2 8.6 1.8 13 1.9 1.6 0 2.2-.7 1.8-2.3-.1-.5-.4-.9-.6-1.4-.2-.7-.5-1.4-.6-2.2l-.6-4.4c-.1-.8-.1-1.6-.1-2.4.1-1.6.3-3.1.6-4.7.5-2.4 1.8-4.4 3.9-5.6 2.5-1.4 5.2.7 4.9 3-.1.6-.1 1.2-.1 1.7.1 1.2-.4 2.2-1.3 3-.4.4-1 .9-1.5.3-.3-.3-.1-1.1 0-1.5.2-.7.8-1.3 1-2 .3-1.1-.3-2-1.2-2.3-.8-.3-2.1.1-2.5.9-.6 1.1-1.3 2.3-1.4 3.5-.2 2.7-.2 5.5-.2 8.3 0 1 .6 1.5 1.5 1.4 1.3-.1 2.7-.3 3.9-.8 2.3-1 4.5-2.1 6.6-3.4 2.7-1.6 5.6-3 7.9-5.1 4.3-3.8 8.1-8.1 12.2-12.2 1.5-1.5 2.9-3.3 5.2-3.9 1.9-.5 3.8-1.3 5.7-1.6 1-.2 2.3.2 3.1.8 2.5 1.8 4.9 3.9 7.4 5.8 1.5 1.2 3 2.4 4.6 3.2 3.1 1.6 6.2 3.2 9.8 3.3.5 0 1 .1 1.5.3.4.1.7.4 1.1.6-.4.3-.7.7-1.1.8-1.9.5-2.2.8-2 2.8.1 1.9.3 3.8.4 5.6h-.2c0 2.1.1 4.2 0 6.3-.1 1.8-.4 3.6-1.5 5.3-1.5 2.3-3.3 3.7-6.1 3.6-1.3 0-2.6-.1-3.9-.2-.8 0-1.5.3-1.5 1.2-.1 1.7-.2 3.5 1.1 5 .3.4.8.6 1.2.8.2-.4.5-.8.6-1.2.2-.8.5-1.5 1.4-1.5 1 0 1.3.7 1.3 1.5.1 1.2.7 2.2 1.7 2.9.4.3.9.3 1.4.4 0-.4.1-.8 0-1.2-.1-.7-.3-1.5.4-1.8.8-.4 1.3.3 1.7.8.2.2.3.5.4.7.5.5.9 1.1 1.5 1.6.2.2.7.2.9.1s.3-.6.2-.9c-.1-.5-.3-.9-.3-1.4-.2-1.5.6-2.6 2-3 2-.5 3.2 0 4.2 2 .4.9.8.9 1.4.2 1.4-1.7 1.5-2.7.1-4.5-1.3-1.7-1.9-3.5-1.2-5.5.2-.5.2-1.1.3-1.7.3-2.3.5-4.7 1.1-7 .6-2.4 1.4-4.8 2.3-7.2.5-1.4 1.2-2.7 1.9-4 .8-1.4.8-1.8-.4-2.8-2.4-2-4.4-4.3-5.9-7l-4.8-8.7c-.2-.4.1-.9.1-1.4.4.2.8.3 1.1.5 1.2 1.2 2.5 1.9 4.2 1.6 1-.1 2-.3 3-.5 1.5-.4 3.1-1.1 3.6-2.7a7.86 7.86 0 0 0-.5-6.2c-1.8-3.5-3.9-6.8-5.8-10.1-1.2-2.1-2.3-4.3-2.5-6.9-.2-2.4.8-4.2 2.7-5.3 2.8-1.6 5.4-1.1 7.9.7 1 .8 1.2 1.8.5 2.9s-.7 2.1-.2 3.3c1.3 2.9 3.8 4.8 6.2 6.7.7.6 1.3.3 1.3-.6.1-1.4.1-2.9.2-4.3 1-4.5-.6-7.9-3.5-10.7zm-106.7-7.7l4.5-4.8c.2-.2.7-.3.9-.2.3.2.4.6.8 1.1-.4.5-.7 1-1.1 1.4s-1 .6-1.5.9c-.8.5-1.5.9-1.1 2.1.1.2-.5.9-.8.9-.6.1-1.3-.1-1.9-.3 0 0 0-.8.2-1.1zm2.1 16.8c-1.4-.1-3-1.7-2.9-3.2 0-1.6 1.4-2.7 3.3-2.6 1.8.1 2.5.9 2.5 2.9-.1 1.7-1.3 2.9-2.9 2.9zm3.6-7.3c-2-1.6-5.5-2-7.5-.1-.2.2-.5.4-.8.4-.2.1-.5 0-.6-.1s0-.5.1-.6c1-.8 1.8-1.8 3.3-1.5 1.1-.1 2.3-.3 3.4-.4.3 0 .7-.1.9 0 1.5.9 3.4 1.1 4.6 2.6.2.3.2.7.3 1.1-.4.1-1 .4-1.3.2-.9-.4-1.6-1-2.4-1.6zm66.2 63.1c2-3.4 3.5-7.2 6.4-10 .8-.8.6-1.6-.2-2.4-.7-.7-1.5-1.4-2-2.3-1.4-2.2-2.6-4.7-4.6-6.5-1.5-1.3-3-2.7-4.8-3.6-1.2-.6-2.7-.5-4-.9-1.6-.5-2.8.3-3.9 1-.3.2-.5 1-.3 1.4 1.7 3.3 3.5 6.4 5.8 9.2 1.1 1.3 2.6 2.4 3.9 3.6 1.4 1.3 2.1 1.3 3.6.1.3-.3.8-.5 1.2-.6.2-.1.7.1.8.3s0 .6-.1.8c-.8 1.3-2.9 2-4.4 1.5-1.4-.5-2.5.1-2.8 1.6-.4 1.8-.8 3.5-1.3 5.3a44.6 44.6 0 0 1-4.5 11.1c-.7 1.3-1.7 1.9-3.1 1.9-2-.1-3.7-1-5.2-2.2-.9-.7-2.1-.9-2.5 0-.8 1.5-2 2.9-1.7 4.8v.8a9.83 9.83 0 0 0 .5 1.6c.4-.4.7-.8 1.1-1.1.5-.3 1-.8 1.5-.8.4 0 .8.7 1 1.2.3.6.3 1.4.7 2 .3.5 1 .8 1.5 1.1.2-.5.4-1.1.6-1.6.1-.2 0-.4.1-.6.2-.8.7-1.1 1.4-1 .9.1 1.1.7 1.4 1.4.3.8.7 1.7 1.3 2.4.7.8 1.3.5 1.4-.5.6-3.5 2.9-4 5.5-3.4.6.1 1.1.9 1.6 1.4a4.44 4.44 0 0 1 .8 1.1c.4-.3.9-.6 1.1-1.1.5-.8.4-1.7-.2-2.5-.4-.5-.9-.9-1.3-1.5-.3-.5-.7-1.1-.7-1.7 0-.8.1-1.7.4-2.5 1.2-2.9 2.4-6 4-8.8zm-97.3-8.4c-.1-.4-.1-.8-.1-1.2-.1-.7-.3-1.5-.1-2.1.6-1.6 2.1-2.3 3.6-2 1.2.2 1.8 1.1 2.1 2.9.1.4.4 1 .7 1.1s1-.1 1.2-.4c.5-.7.9-1.4 1.2-2.2.4-1 .9-1.4 1.9-.9 2.1 1 4.2 2.2 6.4 3.1 1.9.8 3.8 1.3 5.7 1.9.3.1.9-.1 1.1-.4.1-.1-.1-.7-.3-1.1-1.1-1.8-2.4-3.6-3.3-5.5-.8-1.8-1.9-2.3-3.7-2.4-1.3 0-2.8-.2-4-.7-2.1-.8-4.1-1.9-6.1-3-.7-.4-1.4-.4-2 .2-.7.6-1.2 1.3-2 1.8-3.3 2.4-6.7 4.4-11 4.6-.7 0-1.5.2-2.2.5-.5.2-1 .4-1.3.8-1.7 2-.8 6.4 1.5 7.6.7.3 1 .1 1-.6 0-.5-.1-1-.2-1.7 0-.3 0-.7.2-1.2.3-1 1-1.2 1.7-.4.5.6.9 1.2 1.4 1.8.3.4.7.7 1.1 1 .2.1.7.1.8-.1.1-.1.1-.5.1-.8 0-.5 0-1.3.1-1.3.5-.2 1.2-.2 1.7 0 .5.1.8.7 1.3.8.6 0 1.1-.1 1.5-.1z"/><path d="M125.4 176.7l.2 4.3c.1.9.7 1.2 1.4.6 2.4-1.9 4.9-3.8 6.2-6.7.5-1.2.5-2.2-.2-3.3s-.5-2.1.5-2.9c2.5-1.8 5.1-2.3 7.9-.7 2 1.1 2.9 2.9 2.7 5.3-.2 2.5-1.3 4.7-2.5 6.9-1.9 3.4-4.1 6.7-5.8 10.1a7.86 7.86 0 0 0-.5 6.2c.6 1.6 2.1 2.3 3.6 2.7 1 .3 2 .4 3 .5 1.7.2 3-.5 4.2-1.6.3-.3.7-.4 1.1-.5 0 .5.3 1.1.1 1.4-1.5 2.9-3.1 5.9-4.8 8.7-1.5 2.7-3.6 5-6 7-1.2 1-1.2 1.5-.4 2.8.7 1.3 1.4 2.6 1.9 4 .9 2.4 1.7 4.7 2.3 7.2.5 2.3.7 4.7 1.1 7 .1.6.1 1.2.3 1.7.7 2.1.2 3.9-1.2 5.5-1.4 1.8-1.3 2.7.1 4.5.6.7 1 .7 1.4-.2.9-1.9 2.1-2.5 4.2-1.9 1.4.4 2.2 1.6 2 3-.1.5-.3.9-.3 1.4 0 .3 0 .8.2.9s.7.1.9-.1l1.5-1.5c.2-.2.3-.5.4-.7.4-.5.9-1.2 1.7-.8s.5 1.1.4 1.8c-.1.4 0 .8 0 1.2.5-.1 1-.2 1.4-.5 1-.7 1.5-1.7 1.7-2.9.1-.8.4-1.5 1.3-1.5s1.2.7 1.4 1.5c.1.4.4.8.6 1.2.4-.3.9-.5 1.2-.8 1.3-1.4 1.2-3.2 1.1-5 0-.9-.7-1.2-1.5-1.2-1.3 0-2.6.1-3.9.2-2.8.1-4.7-1.3-6.1-3.6-1-1.7-1.4-3.4-1.4-5.3-.1-2.1 0-4.2 0-6.3h-.2c.1-1.9.3-3.8.4-5.6.1-1.9-.2-2.3-2-2.8-.4-.1-.7-.5-1.1-.8.4-.2.7-.5 1.1-.6.5-.2 1-.3 1.5-.3 3.6-.1 6.8-1.6 9.8-3.3 1.6-.9 3.1-2.1 4.6-3.2 2.5-1.9 4.8-4 7.4-5.8.8-.6 2.1-.9 3.1-.8 1.9.3 3.8 1.1 5.7 1.6 2.3.6 3.6 2.4 5.2 3.9 4.1 4.1 7.9 8.3 12.2 12.2 2.3 2.1 5.2 3.5 7.9 5.1 2.1 1.3 4.4 2.4 6.7 3.4 1.2.5 2.6.6 3.9.8.9.1 1.5-.5 1.5-1.4 0-2.8 0-5.6-.2-8.3-.1-1.2-.8-2.4-1.4-3.5-.4-.8-1.8-1.2-2.5-.9-.9.3-1.5 1.2-1.2 2.3.2.7.7 1.3 1 2 .2.5.3 1.2 0 1.5-.5.6-1 .1-1.5-.3-.8-.8-1.3-1.8-1.3-3 0-.6 0-1.2-.1-1.7-.3-2.2 2.4-4.4 4.9-3a7.85 7.85 0 0 1 3.9 5.6c.3 1.5.5 3.1.6 4.7.1.8 0 1.6-.1 2.3-.1 1.5-.3 2.9-.6 4.4-.1.7-.4 1.4-.6 2.2-.2.5-.4.9-.6 1.4-.4 1.6.1 2.3 1.8 2.3 4.4-.1 8.8-.7 13-1.9.7-.2 1.4-.3 2.1-.4l4.8-.9c1.1-.2 2.2-.4 3.2-.4 1.2 0 1.7.7 1.1 1.8-.8 1.5-.6 2.8.2 4.1.2.3.6.5.9.8.2-.3.5-.6.6-1 .4-2.9 3.5-4.2 5.9-2.5 1.3 1 1.5 3.4.4 4.8-.3.3-.4.8-.6 1.2.5.1 1 .4 1.4.2.8-.3 1.6-.9 2.3-1.4.5-.4 1-.9 1.7-.4s.5 1.1.3 1.8c-.1.2-.2.4-.2.6 0 .3 0 .7.2.8s.7.2.8 0c.6-.4 1.1-.9 1.5-1.5s.7-1.3 1.1-1.8c.2-.3.7-.5 1-.5s.5.5.7.7c.1.2.1.5.2.7.2.6.5.7 1 .3 1.2-.8 1.9-3.4 1.4-4.8-.3-.9-1.1-1-1.9-1.3-1.9-.6-3.9-1.3-5.8-2-2.4-.9-3.9-2.9-5.9-4.4-.5-.4-.9-.8-1.4-1.2-1.1-.9-2.4-1.3-3.8-1-3.7.7-7.4.8-11.2.6l-6-.3c-1.4-.1-1.8.4-1.6 1.8.1.4.2.8.2 1.2 0 1-.2 1.9-1.1 2.4-.5.2-1.3.2-1.8-.1-.6-.4 0-1 .2-1.5.3-.7.7-1.5.6-2.2-.2-1.6.2-2.8 1.3-3.9 1.7-1.7 2.7-3.8 3.5-6.1.9-2.5 1.1-5 .9-7.6-.3-2.7-1.3-5.2-3.6-6.9-1.7-1.3-3.7-1.1-5.1.5-.3.3-.5.7-.8.8-.4.2-.9.5-1.3.3-.3-.2-.7-.8-.6-1.1.2-.9.5-1.9 1.1-2.4.7-.7 1.9-1.2 2.8-1.2 2.9 0 5.6.8 7.6 3 1.9 2.1 2.7 4.7 3 7.6.3 3.4-.6 6.5-1.6 9.5-.3 1-1 1.9-1.5 2.9-.1.3-.1.7-.1 1 .4 0 .9.1 1.1-.1 2.3-1.6 4.3-3.4 6-5.6 1.3-1.7 2.1-3.6 3.2-5.4 1.1-2 1.6-4.3 2.1-6.4.8-3.3.6-6.7-.1-10-.4-1.8-.7-3.6-1-5.5-.2-1.1.3-2 1-3 1.7-2.5 3.4-5.1 4.9-7.7 1.7-2.7 2.2-5.8 2.8-9 .2-1.3 1.2-2.5 1.8-3.7.4-.8.7-1.7.9-2.6.6-2.5.9-5.1 1.6-7.5.4-1.3 1.4-2.5 2-3.8.2-.5.2-1.1.3-1.6-.5 0-1.2-.1-1.6.1-4 1.8-6.8 4.8-8.6 8.7-.5 1-.3 2.3-.1 3.4.1.4.8.8 1.3 1.2a4.44 4.44 0 0 1 .8 1.1c-.4.2-.8.6-1.3.6-1.2.1-2.5-1.1-2.7-2.3-.1-.6 0-1.2 0-1.7 0-1.4-.4-2.1-1.7-2.6-.7-.3-1.5-.5-2.2-.7-1.1-.4-1.6-1.1-1.7-2.2a4.17 4.17 0 0 0-.8-1.8c-1.2-1.2-2.4-2.3-3.7-3.4-1.7-1.4-2.8-3.2-3.8-5.2-.1-.3-.5-.5-.7-.8-.2.3-.5.6-.5.9-.5 2.7-1 5.4-.2 8.1.2.8.5 1.5 1 2.2.7 1.1.7 1.8-.5 2.1-3.1.8-5.6 2.8-8.5 4.1-1.3.6-2.9.8-4.4.7-2.2-.1-4.3-.6-6.5-.9-1.3-.2-2.6-.3-3.9-.4-.3 0-.7 0-1 .2-.6.4-1.6.8-1.7 1.3-.1.7.5 1.5 1 2.1.4.6.8.1 1.1-.3.7-.9 1.7-1.2 2.6-.7.7.3.9.8.5 1.5-.2.3-.3.9-.2 1 .6.3 1.2.6 1.8.7.6 0 1.3-.4 2-.4.9 0 1.3.7.9 1.5-.6 1.2 0 2.1.5 3 .1.2.6.3.8.4.1-.3.1-.5.3-.8.2-.4.3-1.1.7-1.2.5-.2 1.2-.2 1.6.1.7.4.4.9-.1 1.3-.4.3-.9.7-.4 1.1.5.6 1.2 1 1.9 1.4 0 0 .5-.4.6-.7.4-.6.8-.9 1.5-.6.6.3.9.8.7 1.4-.2.8.2 1.3.9 1.5.3.1.8-.3 1-.6.7-.8 1.5-.8 2.1.2.5.8 1.1 1.1 2 1 .7 0 1.4.1 1.6.8.1.6.1 1.5-.2 2-1.3 2.1-4.5 2.7-6.6 1.4-.4-.2-.9-.3-1.3-.2-1 .2-1.5-.1-1.8-1.1-.4-1.8-.9-2-2.6-1.1-.7.4-1.2.2-1.6-.5-.7-1.6-1.1-1.7-2.7-1.3-.4.1-.9-.2-1.3-.4-.3-.2-.4-.5-.6-.8-.5-1-1.2-1.2-2.2-.7-.9.5-1.5.1-2-.7-.1-.2-.2-.5-.4-.6-.5-.2-1.1-.3-1.6-.2-.2 0-.4.7-.4 1.1.1.6.3 1.2.6 1.7 2.8 4.3 6.7 7 11.6 8.2 1.7.4 3.5 1.1 5.1 1.8.7.3 1.3 1 1.8 1.6.1.1 0 .6-.1.8-.2.4-.6.8-.7 1.2-.7 2.3-2.2 3.6-4.6 3.6-2.5 0-4.9-.2-7.2-1.4-4.3-2.2-8.7-4.1-13-6.2-2.3-1.1-4.4-2.5-6.7-3.5-2.8-1.2-5.7-2.2-8.6-3.3-6-2.4-12.1-1.9-18.3-1.2-3.7.4-6.8 2.4-9.7 4.8-2.8 2.3-5 5.1-7.3 7.7-.6.7-1.2 1.3-1.8 1.9-.9.8-2 .9-3.1.4s-1.4-1.5-1.3-2.6c.1-1.3.4-2.5 1.1-3.7l5.7-9.6c2.6-4.4 2.1-8.6-1.5-12.3-2.2-2.2-4.7-3.6-7.8-3.8-3.4-.3-6 1.2-8.2 3.4-2.7 2.9-4.3 6.3-4 10.4zm111.1-16.9c-.6.2-1.3.4-1.9.3-.3 0-.9-.7-.8-.9.4-1.2-.3-1.6-1.1-2.1-.5-.3-1.1-.5-1.5-.9s-.7-.9-1.1-1.4c.3-.5.5-.9.8-1.1.2-.1.7 0 .9.2l4.5 4.8c.2.2.2 1.1.2 1.1zm-5.1 12.7c-.1-2 .7-2.8 2.5-2.9 1.9-.1 3.3 1 3.3 2.6 0 1.4-1.5 3.1-2.9 3.2-1.7.1-2.9-1.2-2.9-2.9zm-3.2-2.8c-.3.2-.9-.1-1.3-.2.1-.4.1-.8.3-1.1 1.2-1.5 3.1-1.7 4.6-2.6.2-.1.6-.1.9 0 1.1.1 2.3.3 3.4.4 1.5-.4 2.3.7 3.3 1.5.1.1.2.5.1.6s-.4.2-.6.1c-.3-.1-.6-.2-.8-.4-2-1.9-5.5-1.5-7.5.1-.8.6-1.5 1.2-2.4 1.6zm-59.7 70.4c.3.8.4 1.7.4 2.5 0 .6-.4 1.2-.7 1.7-.4.5-.9 1-1.3 1.5-.6.8-.7 1.7-.2 2.5.3.4.8.7 1.1 1.1.3-.4.5-.8.8-1.1.5-.5 1-1.2 1.6-1.4 2.6-.6 4.9-.1 5.5 3.4.2 1 .8 1.3 1.4.5.6-.7 1-1.5 1.3-2.4.3-.7.5-1.4 1.4-1.4.7 0 1.3.3 1.4 1 0 .2 0 .4.1.6.2.5.4 1.1.6 1.6.5-.4 1.2-.6 1.5-1.1.4-.6.4-1.4.7-2 .2-.5.6-1.2 1-1.2.5 0 1.1.4 1.5.8.4.3.7.7 1.1 1.1a9.83 9.83 0 0 0 .5-1.6c.1-.2 0-.5 0-.8.3-1.8-.9-3.3-1.7-4.8-.4-.8-1.6-.7-2.5 0-1.5 1.2-3.2 2.1-5.2 2.2-1.5.1-2.4-.6-3.1-1.9-2-3.5-3.5-7.2-4.4-11.1l-1.3-5.3c-.3-1.5-1.4-2.2-2.8-1.6-1.4.5-3.6-.2-4.4-1.5-.1-.2-.2-.6-.1-.8s.5-.3.8-.3c.4.1.9.3 1.2.5 1.5 1.2 2.2 1.2 3.6-.1 1.3-1.2 2.7-2.3 3.9-3.6 2.4-2.8 4.2-6 5.8-9.3.2-.3 0-1.2-.3-1.4-1.2-.7-2.4-1.4-3.9-1-1.3.4-2.9.3-4 .9-1.7 1-3.3 2.3-4.8 3.6-2.1 1.8-3.2 4.2-4.6 6.5-.5.8-1.3 1.6-2 2.3-.8.8-1 1.6-.2 2.4 2.9 2.8 4.4 6.6 6.4 10 1.4 3 2.6 6 3.9 9zm94.5-17.3c.5-.2.8-.7 1.3-.8.5-.2 1.2-.2 1.7 0 .1 0 .1.9.1 1.3 0 .3-.1.7.1.8.2.2.6.2.8.1.4-.2.8-.6 1.2-1 .5-.6.9-1.2 1.4-1.8.7-.8 1.4-.7 1.7.4.1.4.1.9.2 1.2-.1.7-.2 1.2-.2 1.7 0 .7.3 1 1 .6 2.4-1.2 3.3-5.6 1.5-7.6-.3-.4-.8-.6-1.3-.8-.7-.2-1.5-.4-2.2-.5-4.2-.2-7.7-2.2-11-4.6-.7-.5-1.3-1.2-1.9-1.8-.6-.5-1.3-.5-2-.2-2 1-4 2.1-6.1 3-1.2.5-2.7.6-4 .7-1.8 0-2.9.6-3.7 2.4-.8 1.9-2.2 3.7-3.3 5.5-.2.3-.4.9-.3 1.1.3.3.8.5 1.1.4 1.9-.6 3.9-1.1 5.7-1.9 2.2-.9 4.2-2.1 6.4-3.1 1-.5 1.6-.1 1.9.9.3.8.7 1.6 1.2 2.2.2.3.9.5 1.2.4s.7-.7.7-1.1c.3-1.8.9-2.7 2.1-2.9 1.5-.2 2.9.5 3.6 2 .2.6-.1 1.4-.1 2.1 0 .4-.1.8-.2 1.2.5.1 1 .3 1.4.1z"/></g></g></svg>