<?xml version="1.0" encoding="utf-8"?>
<!-- Generator: Adobe Illustrator 23.0.0, SVG Export Plug-In . SVG Version: 6.00 Build 0)  -->
<svg version="1.1" id="Layer_1" xmlns="http://www.w3.org/2000/svg" xmlns:xlink="http://www.w3.org/1999/xlink" x="0px" y="0px"
	 viewBox="0 0 400 400" style="enable-background:new 0 0 400 400;" xml:space="preserve">
<style type="text/css">
	.st0{fill:#101006;}
	.st1{display:none;fill:#FCB600;}
	.st2{fill-rule:evenodd;clip-rule:evenodd;fill:#FCB600;}
</style>
<circle class="st0" cx="200" cy="200" r="191.5"/>
<g id="Layer_2">
	<rect class="st0" width="400" height="400"/>
</g>
<path d="M200,9c25.8,0,50.8,5,74.3,15c22.7,9.6,43.2,23.4,60.7,40.9s31.3,38,40.9,60.7c10,23.5,15,48.6,15,74.3s-5,50.8-15,74.3
	c-9.6,22.7-23.4,43.2-40.9,60.7s-38,31.3-60.7,40.9c-23.5,10-48.6,15-74.3,15s-50.8-5-74.3-15c-22.7-9.6-43.2-23.4-60.7-40.9
	s-31.3-38-40.9-60.7C14,250.8,9,225.8,9,200s5-50.8,15-74.3C33.6,103,47.4,82.5,64.9,65s38-31.3,60.7-40.9C149.2,14,174.2,9,200,9
	 M200,8C94,8,8,94,8,200s86,192,192,192s192-86,192-192S306,8,200,8L200,8z"/>
<g>
	<path class="st1" d="M207.8,0.2C147.8-2,96.1,19.1,54.7,62.7C18.3,101.1,0.1,147.4,0,200.4C-0.2,310.2,89.4,400.6,199.8,400
		c110.7,0.7,201.1-89.8,200.2-201.1C399.1,87.3,311,3.9,207.8,0.2z M200.1,381.2c-99,0-182.2-80.6-180.4-184.7
		C21.4,103.1,98.5,16.1,209,20.2c88.8,3.2,174.5,78.3,171.9,185.9C378.6,300.3,300.7,381.2,200.1,381.2L200.1,381.2z"/>
	<g>
		<path class="st2" d="M270.4,54.5c-2.2-2.3-4.9-3.7-8.3-3.4c-3.2,0.2-5.7,1.6-7.8,3.8c-3.6,3.7-4.1,7.8-1.5,12.3l5.7,9.6
			c0.7,1.2,1,2.4,1.1,3.7c0.1,1.1-0.3,2.1-1.3,2.6c-1.1,0.5-2.2,0.4-3.1-0.4c-0.7-0.6-1.3-1.3-1.8-1.9c-2.4-2.6-4.6-5.4-7.3-7.7
			c-2.9-2.4-6-4.4-9.7-4.8c-6.1-0.7-12.3-1.2-18.3,1.2c-2.9,1.1-5.8,2.1-8.6,3.3c-2.3,1-4.5,2.4-6.7,3.5l-13,6.3
			c-2.3,1.2-4.7,1.4-7.2,1.4c-2.4,0-3.9-1.2-4.6-3.6c-0.1-0.4-0.5-0.8-0.7-1.2c-0.1-0.3-0.3-0.7-0.1-0.8c0.6-0.6,1.1-1.3,1.8-1.6
			c1.7-0.7,3.4-1.3,5.1-1.8c4.9-1.3,8.8-4,11.6-8.2c0.3-0.5,0.5-1.1,0.6-1.7c0.1-0.4-0.2-1.1-0.4-1.1c-0.5-0.1-1.1,0.1-1.6,0.2
			c-0.2,0.1-0.3,0.4-0.4,0.6c-0.5,0.8-1.1,1.1-2,0.7c-1-0.5-1.7-0.3-2.2,0.7c-0.2,0.3-0.3,0.7-0.6,0.8c-0.4,0.2-0.9,0.5-1.3,0.4
			c-1.6-0.4-2-0.3-2.7,1.3c-0.3,0.7-0.8,1-1.6,0.5c-1.6-0.9-2.1-0.7-2.6,1.1c-0.3,1.1-0.7,1.3-1.8,1.1c-0.4-0.1-0.9,0-1.3,0.2
			c-2.1,1.3-5.3,0.7-6.6-1.4c-0.3-0.5-0.4-1.4-0.2-2c0.1-0.7,0.9-0.9,1.6-0.8c0.9,0.1,1.5-0.2,1.9-1c0.6-1,1.4-1,2.1-0.2
			c0.3,0.3,0.8,0.7,1,0.6c0.6-0.2,1.1-0.7,0.9-1.5c-0.2-0.6,0-1.2,0.7-1.4c0.7-0.3,1.2,0,1.5,0.6c0.2,0.3,0.6,0.7,0.6,0.7
			c0.7-0.4,1.4-0.8,1.9-1.4c0.5-0.5-0.1-0.8-0.4-1.1c-0.5-0.4-0.8-1-0.1-1.3c0.4-0.2,1.2-0.3,1.6-0.1c0.3,0.1,0.5,0.8,0.7,1.2
			c0.1,0.2,0.2,0.5,0.3,0.8c0.3-0.1,0.7-0.2,0.9-0.4c0.5-0.9,1.1-1.8,0.5-3c-0.4-0.8,0-1.5,0.9-1.5c0.7,0,1.3,0.4,2,0.4
			c0.6,0,1.2-0.3,1.8-0.7c0.1-0.1,0-0.7-0.2-1c-0.4-0.7-0.2-1.2,0.5-1.5c0.9-0.4,1.9-0.1,2.6,0.8c0.3,0.4,0.7,0.9,1.1,0.3
			c0.5-0.6,1-1.5,1-2.1c-0.1-0.5-1-0.9-1.7-1.3c-0.3-0.2-0.7-0.2-1-0.2c-1.3,0.1-2.6,0.2-3.9,0.4c-2.2,0.3-4.3,0.8-6.5,0.9
			c-1.5,0.1-3.1-0.1-4.4-0.7c-2.8-1.3-5.4-3.2-8.5-4c-1.2-0.3-1.2-1-0.5-2.1c0.4-0.7,0.7-1.4,1-2.2c0.9-2.7,0.3-5.4-0.2-8.1
			c-0.1-0.3-0.4-0.6-0.5-0.9c-0.2,0.3-0.6,0.5-0.7,0.8c-0.9,2-2.1,3.8-3.8,5.2c-1.3,1.1-2.5,2.2-3.7,3.4c-0.4,0.5-0.7,1.1-0.8,1.8
			c-0.2,1.1-0.7,1.8-1.7,2.2c-0.7,0.3-1.5,0.4-2.2,0.7c-1.3,0.5-1.7,1.2-1.7,2.6v1.7c-0.2,1.3-1.5,2.4-2.7,2.4
			c-0.4,0-0.9-0.4-1.3-0.6c0.3-0.4,0.5-0.8,0.8-1.1c0.4-0.4,1.2-0.8,1.3-1.2c0.1-1.1,0.3-2.4-0.2-3.4c-1.8-3.9-4.7-6.9-8.6-8.7
			c-0.5-0.2-1.1-0.1-1.6-0.1c0.1,0.5,0.1,1.1,0.3,1.6c0.6,1.3,1.6,2.5,2,3.8c0.7,2.5,1,5,1.6,7.5c0.2,0.9,0.5,1.7,0.9,2.6
			c0.6,1.3,1.6,2.4,1.8,3.7c0.6,3.1,1.1,6.2,2.8,9l4.9,7.7c0.7,1,1.1,1.9,1,3l-1,5.5c-0.7,3.3-0.9,6.7-0.1,10
			c0.5,2.1,0.9,4.4,2.1,6.4c1,1.8,1.8,3.8,3.2,5.4c1.7,2.2,3.7,4,6,5.6c0.3,0.2,0.8,0.1,1.1,0.1c0-0.3,0-0.7-0.1-1
			c-0.5-1-1.2-1.9-1.5-2.9c-1-3.1-1.9-6.2-1.6-9.5c0.3-2.9,1-5.4,3-7.6s4.7-3.1,7.6-3c1,0,2.1,0.6,2.8,1.2c0.6,0.5,0.9,1.6,1.1,2.4
			c0.1,0.3-0.3,1-0.6,1.1s-0.9-0.1-1.3-0.3c-0.3-0.2-0.5-0.5-0.8-0.8c-1.4-1.6-3.4-1.8-5.1-0.5c-2.3,1.7-3.3,4.2-3.6,6.9
			c-0.3,2.6,0,5.1,0.9,7.6c0.8,2.3,1.7,4.4,3.5,6.1c1.1,1.1,1.5,2.4,1.3,3.9c-0.1,0.7,0.3,1.5,0.6,2.2c0.2,0.5,0.8,1.1,0.2,1.5
			c-0.4,0.3-1.3,0.3-1.8,0.1c-0.9-0.4-1.2-1.4-1.1-2.4c0-0.4,0.1-0.8,0.2-1.2c0.2-1.4-0.1-1.8-1.6-1.8l-6,0.3
			c-3.7,0.2-7.5,0.1-11.2-0.6c-1.5-0.3-2.7,0.1-3.8,1c-0.5,0.4-0.9,0.9-1.4,1.2c-2,1.5-3.5,3.5-5.9,4.4c-1.9,0.7-3.9,1.4-5.8,2
			c-0.8,0.2-1.5,0.4-1.9,1.3c-0.6,1.4,0.2,3.9,1.4,4.8c0.5,0.3,0.8,0.2,1-0.3c0.1-0.2,0.1-0.5,0.2-0.7c0.2-0.3,0.5-0.7,0.7-0.7
			c0.3,0,0.8,0.2,1,0.5c0.4,0.6,0.7,1.3,1.1,1.8c0.4,0.6,1,1,1.5,1.5c0.2,0.1,0.7,0.1,0.8,0c0.2-0.1,0.2-0.5,0.2-0.8
			c0-0.2-0.1-0.4-0.2-0.6c-0.2-0.6-0.4-1.3,0.3-1.8s1.2,0,1.7,0.4c0.7,0.5,1.5,1.1,2.3,1.4c0.4,0.2,0.9-0.1,1.4-0.2
			c-0.2-0.4-0.3-0.9-0.6-1.2c-1.1-1.4-1-3.8,0.3-4.8c2.4-1.7,5.5-0.4,5.9,2.5c0,0.4,0.4,0.7,0.6,1c0.3-0.3,0.7-0.4,0.9-0.8
			c0.8-1.3,1.1-2.6,0.2-4.1c-0.6-1-0.1-1.8,1.1-1.8c1.1,0,2.2,0.2,3.2,0.4l4.8,0.9c0.7,0.1,1.4,0.2,2.1,0.4c4.3,1.2,8.6,1.8,13,1.9
			c1.6,0,2.2-0.7,1.8-2.3c-0.1-0.5-0.4-0.9-0.6-1.4c-0.2-0.7-0.5-1.4-0.6-2.2l-0.6-4.4c-0.1-0.8-0.1-1.6-0.1-2.4
			c0.1-1.6,0.3-3.1,0.6-4.7c0.5-2.4,1.8-4.4,3.9-5.6c2.5-1.4,5.2,0.7,4.9,3c-0.1,0.6-0.1,1.2-0.1,1.7c0.1,1.2-0.4,2.2-1.3,3
			c-0.4,0.4-1,0.9-1.5,0.3c-0.3-0.3-0.1-1.1,0-1.5c0.2-0.7,0.8-1.3,1-2c0.3-1.1-0.3-2-1.2-2.3c-0.8-0.3-2.1,0.1-2.5,0.9
			c-0.6,1.1-1.3,2.3-1.4,3.5c-0.2,2.8-0.2,5.5-0.2,8.3c0,1,0.6,1.5,1.5,1.4c1.3-0.1,2.7-0.3,3.9-0.8c2.3-1,4.5-2.1,6.6-3.4
			c2.7-1.6,5.6-3,7.9-5.1c4.3-3.8,8.1-8.1,12.2-12.2c1.5-1.5,2.9-3.3,5.2-3.9c1.9-0.5,3.8-1.3,5.7-1.6c1-0.2,2.3,0.2,3.1,0.8
			c2.5,1.8,4.9,3.9,7.4,5.8c1.5,1.2,3,2.4,4.6,3.2c3.1,1.6,6.2,3.2,9.8,3.3c0.5,0,1,0.1,1.5,0.3c0.4,0.1,0.7,0.4,1.1,0.6
			c-0.4,0.3-0.7,0.7-1.1,0.8c-1.9,0.5-2.2,0.8-2,2.8c0.1,1.9,0.3,3.8,0.4,5.6h-0.2c0,2.1,0.1,4.2,0,6.3c-0.1,1.8-0.4,3.6-1.5,5.3
			c-1.5,2.3-3.3,3.7-6.1,3.6c-1.3,0-2.6-0.1-3.9-0.2c-0.8,0-1.5,0.3-1.5,1.2c-0.1,1.7-0.2,3.5,1.1,5c0.3,0.3,0.8,0.6,1.2,0.8
			c0.2-0.4,0.5-0.8,0.6-1.2c0.2-0.8,0.5-1.5,1.4-1.5c1,0,1.3,0.7,1.3,1.5c0.1,1.2,0.7,2.2,1.7,2.9c0.4,0.3,0.9,0.3,1.4,0.4
			c0-0.4,0.1-0.8,0-1.2c-0.1-0.7-0.3-1.5,0.4-1.8c0.8-0.4,1.3,0.3,1.7,0.8c0.2,0.2,0.3,0.5,0.4,0.7c0.5,0.5,0.9,1.1,1.5,1.6
			c0.2,0.2,0.7,0.2,0.9,0.1s0.3-0.6,0.2-0.9c-0.1-0.5-0.3-0.9-0.3-1.4c-0.2-1.5,0.6-2.6,2-3c2-0.5,3.2,0,4.2,2
			c0.4,0.9,0.8,1,1.4,0.2c1.4-1.7,1.5-2.7,0.1-4.5c-1.3-1.7-1.9-3.5-1.2-5.5c0.2-0.5,0.2-1.1,0.3-1.7c0.3-2.3,0.5-4.7,1.1-7
			c0.6-2.4,1.4-4.8,2.3-7.2c0.5-1.4,1.2-2.7,1.9-4c0.8-1.3,0.8-1.8-0.4-2.8c-2.4-2-4.4-4.3-5.9-7l-4.8-8.7c-0.2-0.4,0.1-0.9,0.1-1.4
			c0.4,0.2,0.8,0.3,1.1,0.5c1.2,1.1,2.5,1.9,4.2,1.6c1-0.1,2-0.3,3-0.5c1.5-0.4,3.1-1.1,3.6-2.7c0.7-2,0.5-4.3-0.5-6.2
			c-1.8-3.5-3.9-6.8-5.8-10.1c-1.2-2.1-2.3-4.3-2.5-6.9c-0.2-2.4,0.8-4.2,2.7-5.3c2.8-1.6,5.4-1.1,7.9,0.7c1,0.8,1.2,1.8,0.5,2.9
			s-0.7,2.1-0.2,3.3c1.3,2.9,3.8,4.8,6.2,6.7c0.7,0.6,1.3,0.3,1.3-0.6c0.1-1.4,0.1-2.9,0.2-4.3C274.9,60.7,273.3,57.3,270.4,54.5
			L270.4,54.5z M163.7,46.8c1.5-1.7,3-3.3,4.5-4.8c0.2-0.2,0.7-0.3,0.9-0.2c0.3,0.2,0.4,0.6,0.8,1.1c-0.4,0.5-0.7,1-1.1,1.4
			s-1,0.6-1.5,0.9c-0.8,0.5-1.5,0.9-1.1,2.1c0.1,0.2-0.5,0.9-0.8,0.9c-0.6,0.1-1.3-0.1-1.9-0.3C163.5,47.9,163.5,47,163.7,46.8
			L163.7,46.8z M165.8,63.6c-1.4-0.1-3-1.7-2.9-3.2c0-1.6,1.4-2.7,3.3-2.6c1.8,0.1,2.5,0.9,2.5,2.9
			C168.6,62.4,167.4,63.6,165.8,63.6L165.8,63.6z M169.4,56.3c-2-1.6-5.5-2-7.5-0.1c-0.2,0.2-0.5,0.4-0.8,0.4
			c-0.2,0.1-0.5,0-0.6-0.1s0-0.5,0.1-0.6c1-0.8,1.8-1.8,3.3-1.5c1.1-0.1,2.3-0.3,3.4-0.4c0.3,0,0.7-0.1,0.9,0
			c1.5,0.9,3.4,1.1,4.6,2.6c0.2,0.3,0.2,0.7,0.3,1.1c-0.4,0.1-1,0.4-1.3,0.2C170.9,57.5,170.2,56.9,169.4,56.3z M235.6,119.4
			c2-3.4,3.5-7.2,6.4-10c0.8-0.8,0.6-1.6-0.2-2.4c-0.7-0.7-1.5-1.4-2-2.3c-1.4-2.2-2.6-4.7-4.6-6.5c-1.5-1.3-3-2.7-4.8-3.6
			c-1.2-0.6-2.7-0.5-4-0.9c-1.6-0.5-2.8,0.3-3.9,1c-0.3,0.2-0.5,1-0.3,1.4c1.7,3.3,3.5,6.4,5.8,9.2c1.1,1.3,2.6,2.4,3.9,3.6
			c1.4,1.3,2.1,1.3,3.6,0.1c0.3-0.3,0.8-0.5,1.2-0.6c0.2-0.1,0.7,0.1,0.8,0.3s0,0.6-0.1,0.8c-0.8,1.3-2.9,2-4.4,1.5
			c-1.4-0.5-2.5,0.1-2.8,1.6c-0.4,1.8-0.8,3.5-1.3,5.3c-1,3.9-2.5,7.6-4.5,11.1c-0.7,1.3-1.7,1.9-3.1,1.9c-2-0.1-3.7-1-5.2-2.2
			c-0.9-0.7-2.1-0.9-2.5,0c-0.8,1.5-2,2.9-1.7,4.8v0.8c0.1,0.5,0.3,1.1,0.5,1.6c0.4-0.4,0.7-0.8,1.1-1.1c0.5-0.3,1-0.8,1.5-0.8
			c0.4,0,0.8,0.7,1,1.2c0.3,0.6,0.3,1.4,0.7,2c0.3,0.5,1,0.8,1.5,1.1c0.2-0.5,0.4-1.1,0.6-1.6c0.1-0.2,0-0.4,0.1-0.6
			c0.2-0.8,0.7-1.1,1.4-1c0.9,0.1,1.1,0.7,1.4,1.4c0.3,0.8,0.7,1.7,1.3,2.4c0.7,0.8,1.3,0.5,1.4-0.5c0.6-3.5,2.9-4,5.5-3.4
			c0.6,0.1,1.1,0.9,1.6,1.4c0.3,0.3,0.6,0.7,0.8,1.1c0.4-0.4,0.9-0.6,1.1-1.1c0.5-0.8,0.4-1.7-0.2-2.5c-0.4-0.5-0.9-0.9-1.3-1.5
			c-0.3-0.5-0.7-1.1-0.7-1.7c0-0.8,0.1-1.7,0.4-2.5C232.8,125.3,234,122.2,235.6,119.4L235.6,119.4z M138.3,111
			c-0.1-0.4-0.1-0.8-0.1-1.2c-0.1-0.7-0.3-1.5-0.1-2.1c0.6-1.6,2.1-2.3,3.6-2c1.2,0.2,1.8,1.1,2.1,2.9c0.1,0.4,0.4,1,0.7,1.1
			s1-0.1,1.2-0.4c0.5-0.7,0.9-1.4,1.2-2.2c0.4-1,0.9-1.4,1.9-0.9c2.1,1,4.2,2.2,6.4,3.1c1.9,0.8,3.8,1.3,5.7,1.9
			c0.3,0.1,0.9-0.1,1.1-0.4c0.1-0.1-0.1-0.7-0.3-1.1c-1.1-1.8-2.4-3.6-3.3-5.5c-0.8-1.8-1.9-2.3-3.7-2.4c-1.3,0-2.8-0.2-4-0.7
			c-2.1-0.8-4.1-1.9-6.1-3c-0.7-0.4-1.4-0.4-2,0.2c-0.7,0.6-1.2,1.3-2,1.8c-3.3,2.4-6.7,4.4-11,4.6c-0.7,0-1.5,0.2-2.2,0.5
			c-0.5,0.2-1,0.4-1.3,0.8c-1.7,2-0.8,6.4,1.5,7.6c0.7,0.3,1,0.1,1-0.6c0-0.5-0.1-1-0.2-1.7c0-0.3,0-0.7,0.2-1.2
			c0.3-1,1-1.2,1.7-0.4c0.5,0.6,0.9,1.2,1.4,1.8c0.3,0.4,0.7,0.7,1.1,1c0.2,0.1,0.7,0.1,0.8-0.1c0.1-0.1,0.1-0.5,0.1-0.8
			c0-0.5,0-1.3,0.1-1.3c0.5-0.2,1.2-0.1,1.7,0s0.8,0.7,1.3,0.8C137.4,111.1,137.9,111,138.3,111L138.3,111z"/>
		<path class="st2" d="M270.4,279.1c-2.2-2.3-4.9-3.7-8.3-3.4c-3.2,0.2-5.7,1.6-7.8,3.8c-3.6,3.7-4.1,7.8-1.5,12.3l5.7,9.6
			c0.7,1.2,1,2.4,1.1,3.7c0.1,1.1-0.3,2.1-1.3,2.6c-1.1,0.5-2.2,0.4-3.1-0.4c-0.7-0.6-1.3-1.3-1.8-1.9c-2.4-2.6-4.6-5.4-7.3-7.7
			c-2.9-2.4-6-4.4-9.7-4.8c-6.1-0.7-12.3-1.2-18.3,1.2c-2.9,1.1-5.8,2.1-8.6,3.3c-2.3,1-4.5,2.4-6.7,3.5l-13,6.3
			c-2.3,1.2-4.7,1.4-7.2,1.4c-2.4,0-3.9-1.2-4.6-3.6c-0.1-0.4-0.5-0.8-0.7-1.2c-0.1-0.3-0.3-0.7-0.1-0.8c0.6-0.6,1.1-1.3,1.8-1.6
			c1.7-0.7,3.4-1.3,5.1-1.8c4.9-1.3,8.8-4,11.6-8.2c0.3-0.5,0.5-1.1,0.6-1.7c0.1-0.4-0.2-1.1-0.4-1.1c-0.5-0.1-1.1,0.1-1.6,0.2
			c-0.2,0.1-0.3,0.4-0.4,0.6c-0.5,0.8-1.1,1.1-2,0.7c-1-0.5-1.7-0.3-2.2,0.7c-0.2,0.3-0.3,0.7-0.6,0.8c-0.4,0.2-0.9,0.5-1.3,0.4
			c-1.6-0.4-2-0.3-2.7,1.3c-0.3,0.7-0.8,1-1.6,0.5c-1.6-0.9-2.1-0.7-2.6,1.1c-0.3,1.1-0.7,1.3-1.8,1.1c-0.4-0.1-0.9,0-1.3,0.2
			c-2.1,1.3-5.3,0.7-6.6-1.4c-0.3-0.5-0.4-1.4-0.2-2c0.1-0.7,0.9-0.9,1.6-0.8c0.9,0.1,1.5-0.2,1.9-1c0.6-1,1.4-1,2.1-0.2
			c0.3,0.3,0.8,0.7,1,0.6c0.6-0.2,1.1-0.7,0.9-1.5c-0.2-0.6,0-1.2,0.7-1.4c0.7-0.3,1.2,0,1.5,0.6c0.2,0.3,0.6,0.7,0.6,0.7
			c0.7-0.4,1.4-0.8,1.9-1.4c0.5-0.5-0.1-0.8-0.4-1.1c-0.5-0.4-0.8-1-0.1-1.3c0.4-0.2,1.2-0.3,1.6-0.1c0.3,0.1,0.5,0.8,0.7,1.2
			c0.1,0.2,0.2,0.5,0.3,0.8c0.3-0.1,0.7-0.2,0.9-0.4c0.5-0.9,1.1-1.8,0.5-3c-0.4-0.8,0-1.5,0.9-1.5c0.7,0,1.3,0.4,2,0.4
			c0.6,0,1.2-0.4,1.8-0.7c0.1-0.1,0-0.7-0.2-1c-0.4-0.7-0.2-1.2,0.5-1.5c0.9-0.4,1.9-0.1,2.6,0.7c0.3,0.4,0.7,0.9,1.1,0.3
			c0.5-0.6,1-1.5,1-2.1c-0.1-0.5-1-0.9-1.7-1.3c-0.3-0.2-0.7-0.2-1-0.2c-1.3,0.1-2.6,0.2-3.9,0.4c-2.2,0.3-4.3,0.8-6.5,0.9
			c-1.5,0.1-3.1-0.1-4.4-0.7c-2.8-1.3-5.4-3.2-8.5-4c-1.2-0.3-1.2-1-0.5-2.1c0.4-0.7,0.7-1.4,1-2.2c0.9-2.7,0.3-5.4-0.2-8.1
			c-0.1-0.3-0.4-0.6-0.5-0.9c-0.2,0.3-0.6,0.5-0.7,0.8c-0.9,2-2.1,3.8-3.8,5.2c-1.3,1.1-2.5,2.2-3.7,3.4c-0.4,0.5-0.7,1.1-0.8,1.8
			c-0.2,1.1-0.7,1.8-1.7,2.2c-0.7,0.3-1.5,0.4-2.2,0.7c-1.3,0.5-1.7,1.2-1.7,2.6v1.7c-0.2,1.3-1.5,2.4-2.7,2.4
			c-0.4,0-0.9-0.4-1.3-0.6c0.3-0.4,0.5-0.8,0.8-1.1c0.4-0.4,1.2-0.8,1.3-1.2c0.1-1.1,0.3-2.4-0.2-3.4c-1.8-3.9-4.7-6.9-8.6-8.7
			c-0.5-0.2-1.1-0.1-1.6-0.1c0.1,0.5,0.1,1.1,0.3,1.6c0.6,1.3,1.6,2.5,2,3.8c0.7,2.5,1,5,1.6,7.5c0.2,0.9,0.5,1.7,0.9,2.6
			c0.6,1.3,1.6,2.4,1.8,3.7c0.6,3.1,1.1,6.2,2.8,9l4.9,7.7c0.7,1,1.1,1.9,1,3l-1,5.5c-0.7,3.3-0.9,6.7-0.1,10
			c0.5,2.1,0.9,4.4,2.1,6.4c1,1.8,1.8,3.8,3.2,5.4c1.7,2.2,3.7,4,6,5.6c0.3,0.2,0.8,0.1,1.1,0.1c0-0.3,0-0.7-0.1-1
			c-0.5-1-1.2-1.9-1.5-2.9c-1-3.1-1.9-6.2-1.6-9.5c0.3-2.9,1-5.4,3-7.6s4.7-3.1,7.6-3c1,0,2.1,0.6,2.8,1.2c0.6,0.5,0.9,1.6,1.1,2.4
			c0.1,0.3-0.3,1-0.6,1.1s-0.9-0.1-1.3-0.3c-0.3-0.2-0.5-0.5-0.8-0.8c-1.4-1.6-3.4-1.8-5.1-0.5c-2.3,1.7-3.3,4.2-3.6,6.9
			c-0.3,2.6,0,5.1,0.9,7.6c0.8,2.3,1.7,4.4,3.5,6.1c1.1,1.1,1.5,2.4,1.3,3.9c-0.1,0.7,0.3,1.5,0.6,2.2c0.2,0.5,0.8,1.1,0.2,1.5
			c-0.4,0.3-1.3,0.3-1.8,0.1c-0.9-0.4-1.2-1.4-1.1-2.4c0-0.4,0.1-0.8,0.2-1.2c0.2-1.4-0.1-1.8-1.6-1.8l-6,0.3
			c-3.7,0.2-7.5,0.1-11.2-0.6c-1.5-0.3-2.7,0.1-3.8,1c-0.5,0.4-0.9,0.8-1.4,1.2c-2,1.5-3.5,3.5-5.9,4.4c-1.9,0.7-3.9,1.4-5.8,2
			c-0.8,0.2-1.5,0.4-1.9,1.3c-0.6,1.4,0.2,3.9,1.4,4.8c0.5,0.3,0.8,0.2,1-0.3c0.1-0.2,0.1-0.5,0.2-0.7c0.2-0.3,0.5-0.7,0.7-0.7
			c0.3,0,0.8,0.2,1,0.5c0.4,0.6,0.7,1.3,1.1,1.8c0.4,0.6,1,1,1.5,1.5c0.2,0.1,0.7,0.1,0.8,0c0.2-0.1,0.2-0.5,0.2-0.8
			c0-0.2-0.1-0.4-0.2-0.6c-0.2-0.6-0.4-1.3,0.3-1.8s1.2,0,1.7,0.4c0.7,0.5,1.5,1.1,2.3,1.4c0.4,0.2,0.9-0.1,1.4-0.2
			c-0.2-0.4-0.3-0.9-0.6-1.2c-1.1-1.4-1-3.8,0.3-4.8c2.4-1.7,5.5-0.4,5.9,2.5c0,0.3,0.4,0.7,0.6,1c0.3-0.3,0.7-0.4,0.9-0.8
			c0.8-1.3,1.1-2.6,0.2-4.1c-0.6-1-0.1-1.8,1.1-1.8c1.1,0,2.2,0.2,3.2,0.4l4.8,0.9c0.7,0.1,1.4,0.2,2.1,0.4c4.3,1.2,8.6,1.8,13,1.9
			c1.6,0,2.2-0.7,1.8-2.3c-0.1-0.5-0.4-0.9-0.6-1.4c-0.2-0.7-0.5-1.4-0.6-2.2l-0.6-4.4c-0.1-0.8-0.1-1.6-0.1-2.4
			c0.1-1.6,0.3-3.1,0.6-4.7c0.5-2.4,1.8-4.4,3.9-5.6c2.5-1.4,5.2,0.7,4.9,3c-0.1,0.6-0.1,1.2-0.1,1.7c0.1,1.2-0.4,2.2-1.3,3
			c-0.4,0.4-1,0.9-1.5,0.3c-0.3-0.3-0.1-1.1,0-1.5c0.2-0.7,0.8-1.3,1-2c0.3-1.1-0.3-2-1.2-2.3c-0.8-0.3-2.1,0.1-2.5,0.9
			c-0.6,1.1-1.3,2.3-1.4,3.5c-0.2,2.7-0.2,5.5-0.2,8.3c0,1,0.6,1.5,1.5,1.4c1.3-0.1,2.7-0.3,3.9-0.8c2.3-1,4.5-2.1,6.6-3.4
			c2.7-1.6,5.6-3,7.9-5.1c4.3-3.8,8.1-8.1,12.2-12.2c1.5-1.5,2.9-3.3,5.2-3.9c1.9-0.5,3.8-1.3,5.7-1.6c1-0.2,2.3,0.2,3.1,0.8
			c2.5,1.8,4.9,3.9,7.4,5.8c1.5,1.2,3,2.4,4.6,3.2c3.1,1.6,6.2,3.2,9.8,3.3c0.5,0,1,0.1,1.5,0.3c0.4,0.1,0.7,0.4,1.1,0.6
			c-0.4,0.3-0.7,0.7-1.1,0.8c-1.9,0.5-2.2,0.8-2,2.8c0.1,1.9,0.3,3.8,0.4,5.6h-0.2c0,2.1,0.1,4.2,0,6.3c-0.1,1.8-0.4,3.6-1.5,5.3
			c-1.5,2.3-3.3,3.7-6.1,3.6c-1.3,0-2.6-0.1-3.9-0.2c-0.8,0-1.5,0.3-1.5,1.2c-0.1,1.7-0.2,3.5,1.1,5c0.3,0.4,0.8,0.6,1.2,0.8
			c0.2-0.4,0.5-0.8,0.6-1.2c0.2-0.8,0.5-1.5,1.4-1.5c1,0,1.3,0.7,1.3,1.5c0.1,1.2,0.7,2.2,1.7,2.9c0.4,0.3,0.9,0.3,1.4,0.4
			c0-0.4,0.1-0.8,0-1.2c-0.1-0.7-0.3-1.5,0.4-1.8c0.8-0.4,1.3,0.3,1.7,0.8c0.2,0.2,0.3,0.5,0.4,0.7c0.5,0.5,0.9,1.1,1.5,1.6
			c0.2,0.2,0.7,0.2,0.9,0.1s0.3-0.6,0.2-0.9c-0.1-0.5-0.3-0.9-0.3-1.4c-0.2-1.5,0.6-2.6,2-3c2-0.5,3.2,0,4.2,2
			c0.4,0.9,0.8,0.9,1.4,0.2c1.4-1.7,1.5-2.7,0.1-4.5c-1.3-1.7-1.9-3.5-1.2-5.5c0.2-0.5,0.2-1.1,0.3-1.7c0.3-2.3,0.5-4.7,1.1-7
			c0.6-2.4,1.4-4.8,2.3-7.2c0.5-1.4,1.2-2.7,1.9-4c0.8-1.4,0.8-1.8-0.4-2.8c-2.4-2-4.4-4.3-5.9-7l-4.8-8.7c-0.2-0.4,0.1-0.9,0.1-1.4
			c0.4,0.2,0.8,0.3,1.1,0.5c1.2,1.2,2.5,1.9,4.2,1.6c1-0.1,2-0.3,3-0.5c1.5-0.4,3.1-1.1,3.6-2.7c0.7-2,0.5-4.3-0.5-6.2
			c-1.8-3.5-3.9-6.8-5.8-10.1c-1.2-2.1-2.3-4.3-2.5-6.9c-0.2-2.4,0.8-4.2,2.7-5.3c2.8-1.6,5.4-1.1,7.9,0.7c1,0.8,1.2,1.8,0.5,2.9
			s-0.7,2.1-0.2,3.3c1.3,2.9,3.8,4.8,6.2,6.7c0.7,0.6,1.3,0.3,1.3-0.6c0.1-1.4,0.1-2.9,0.2-4.3C274.9,285.3,273.3,281.9,270.4,279.1
			L270.4,279.1z M163.7,271.4l4.5-4.8c0.2-0.2,0.7-0.3,0.9-0.2c0.3,0.2,0.4,0.6,0.8,1.1c-0.4,0.5-0.7,1-1.1,1.4s-1,0.6-1.5,0.9
			c-0.8,0.5-1.5,0.9-1.1,2.1c0.1,0.2-0.5,0.9-0.8,0.9c-0.6,0.1-1.3-0.1-1.9-0.3C163.5,272.5,163.5,271.7,163.7,271.4L163.7,271.4z
			 M165.8,288.2c-1.4-0.1-3-1.7-2.9-3.2c0-1.6,1.4-2.7,3.3-2.6c1.8,0.1,2.5,0.9,2.5,2.9C168.6,287,167.4,288.2,165.8,288.2
			L165.8,288.2z M169.4,280.9c-2-1.6-5.5-2-7.5-0.1c-0.2,0.2-0.5,0.4-0.8,0.4c-0.2,0.1-0.5,0-0.6-0.1s0-0.5,0.1-0.6
			c1-0.8,1.8-1.8,3.3-1.5c1.1-0.1,2.3-0.3,3.4-0.4c0.3,0,0.7-0.1,0.9,0c1.5,0.9,3.4,1.1,4.6,2.6c0.2,0.3,0.2,0.7,0.3,1.1
			c-0.4,0.1-1,0.4-1.3,0.2C170.9,282.1,170.2,281.5,169.4,280.9z M235.6,344c2-3.4,3.5-7.2,6.4-10c0.8-0.8,0.6-1.6-0.2-2.4
			c-0.7-0.7-1.5-1.4-2-2.3c-1.4-2.2-2.6-4.7-4.6-6.5c-1.5-1.3-3-2.7-4.8-3.6c-1.2-0.6-2.7-0.5-4-0.9c-1.6-0.5-2.8,0.3-3.9,1
			c-0.3,0.2-0.5,1-0.3,1.4c1.7,3.3,3.5,6.4,5.8,9.2c1.1,1.3,2.6,2.4,3.9,3.6c1.4,1.3,2.1,1.3,3.6,0.1c0.3-0.3,0.8-0.5,1.2-0.6
			c0.2-0.1,0.7,0.1,0.8,0.3s0,0.6-0.1,0.8c-0.8,1.3-2.9,2-4.4,1.5c-1.4-0.5-2.5,0.1-2.8,1.6c-0.4,1.8-0.8,3.5-1.3,5.3
			c-1,3.9-2.5,7.6-4.5,11.1c-0.7,1.3-1.7,1.9-3.1,1.9c-2-0.1-3.7-1-5.2-2.2c-0.9-0.7-2.1-0.9-2.5,0c-0.8,1.5-2,2.9-1.7,4.8v0.8
			c0.1,0.5,0.3,1.1,0.5,1.6c0.4-0.4,0.7-0.8,1.1-1.1c0.5-0.3,1-0.8,1.5-0.8c0.4,0,0.8,0.7,1,1.2c0.3,0.6,0.3,1.4,0.7,2
			c0.3,0.5,1,0.8,1.5,1.1c0.2-0.5,0.4-1.1,0.6-1.6c0.1-0.2,0-0.4,0.1-0.6c0.2-0.8,0.7-1.1,1.4-1c0.9,0.1,1.1,0.7,1.4,1.4
			c0.3,0.8,0.7,1.7,1.3,2.4c0.7,0.8,1.3,0.5,1.4-0.5c0.6-3.5,2.9-4,5.5-3.4c0.6,0.1,1.1,0.9,1.6,1.4c0.3,0.3,0.6,0.7,0.8,1.1
			c0.4-0.3,0.9-0.6,1.1-1.1c0.5-0.8,0.4-1.7-0.2-2.5c-0.4-0.5-0.9-0.9-1.3-1.5c-0.3-0.5-0.7-1.1-0.7-1.7c0-0.8,0.1-1.7,0.4-2.5
			C232.8,349.9,234,346.8,235.6,344L235.6,344z M138.3,335.6c-0.1-0.4-0.1-0.8-0.1-1.2c-0.1-0.7-0.3-1.5-0.1-2.1
			c0.6-1.6,2.1-2.3,3.6-2c1.2,0.2,1.8,1.1,2.1,2.9c0.1,0.4,0.4,1,0.7,1.1s1-0.1,1.2-0.4c0.5-0.7,0.9-1.4,1.2-2.2
			c0.4-1,0.9-1.4,1.9-0.9c2.1,1,4.2,2.2,6.4,3.1c1.9,0.8,3.8,1.3,5.7,1.9c0.3,0.1,0.9-0.1,1.1-0.4c0.1-0.1-0.1-0.7-0.3-1.1
			c-1.1-1.8-2.4-3.6-3.3-5.5c-0.8-1.8-1.9-2.3-3.7-2.4c-1.3,0-2.8-0.2-4-0.7c-2.1-0.8-4.1-1.9-6.1-3c-0.7-0.4-1.4-0.4-2,0.2
			c-0.7,0.6-1.2,1.3-2,1.8c-3.3,2.4-6.7,4.4-11,4.6c-0.7,0-1.5,0.2-2.2,0.5c-0.5,0.2-1,0.4-1.3,0.8c-1.7,2-0.8,6.4,1.5,7.6
			c0.7,0.3,1,0.1,1-0.6c0-0.5-0.1-1-0.2-1.7c0-0.3,0-0.7,0.2-1.2c0.3-1,1-1.2,1.7-0.4c0.5,0.6,0.9,1.2,1.4,1.8
			c0.3,0.4,0.7,0.7,1.1,1c0.2,0.1,0.7,0.1,0.8-0.1c0.1-0.1,0.1-0.5,0.1-0.8c0-0.5,0-1.3,0.1-1.3c0.5-0.2,1.2-0.2,1.7,0
			c0.5,0.1,0.8,0.7,1.3,0.8C137.4,335.7,137.9,335.6,138.3,335.6L138.3,335.6z"/>
		<path class="st2" d="M125.4,176.7l0.2,4.3c0.1,0.9,0.7,1.2,1.4,0.6c2.4-1.9,4.9-3.8,6.2-6.7c0.5-1.2,0.5-2.2-0.2-3.3
			s-0.5-2.1,0.5-2.9c2.5-1.8,5.1-2.3,7.9-0.7c2,1.1,2.9,2.9,2.7,5.3c-0.2,2.5-1.3,4.7-2.5,6.9c-1.9,3.4-4.1,6.7-5.8,10.1
			c-1,1.9-1.2,4.2-0.5,6.2c0.6,1.6,2.1,2.3,3.6,2.7c1,0.3,2,0.4,3,0.5c1.7,0.2,3-0.5,4.2-1.6c0.3-0.3,0.7-0.4,1.1-0.5
			c0,0.5,0.3,1.1,0.1,1.4c-1.5,2.9-3.1,5.9-4.8,8.7c-1.5,2.7-3.6,5-6,7c-1.2,1-1.2,1.5-0.4,2.8c0.7,1.3,1.4,2.6,1.9,4
			c0.9,2.4,1.7,4.7,2.3,7.2c0.5,2.3,0.7,4.7,1.1,7c0.1,0.6,0.1,1.2,0.3,1.7c0.7,2.1,0.2,3.9-1.2,5.5c-1.4,1.8-1.3,2.7,0.1,4.5
			c0.6,0.7,1,0.7,1.4-0.2c0.9-1.9,2.1-2.5,4.2-1.9c1.4,0.4,2.2,1.6,2,3c-0.1,0.5-0.3,0.9-0.3,1.4c0,0.3,0,0.8,0.2,0.9
			s0.7,0.1,0.9-0.1l1.5-1.5c0.2-0.2,0.3-0.5,0.4-0.7c0.4-0.5,0.9-1.2,1.7-0.8s0.5,1.1,0.4,1.8c-0.1,0.4,0,0.8,0,1.2
			c0.5-0.1,1-0.2,1.4-0.5c1-0.7,1.5-1.7,1.7-2.9c0.1-0.8,0.4-1.5,1.3-1.5s1.2,0.7,1.4,1.5c0.1,0.4,0.4,0.8,0.6,1.2
			c0.4-0.3,0.9-0.5,1.2-0.8c1.3-1.4,1.2-3.2,1.1-5c0-0.9-0.7-1.2-1.5-1.2c-1.3,0-2.6,0.1-3.9,0.2c-2.8,0.1-4.7-1.3-6.1-3.6
			c-1-1.7-1.4-3.4-1.4-5.3c-0.1-2.1,0-4.2,0-6.3h-0.2c0.1-1.9,0.3-3.8,0.4-5.6c0.1-1.9-0.2-2.3-2-2.8c-0.4-0.1-0.7-0.5-1.1-0.8
			c0.4-0.2,0.7-0.5,1.1-0.6c0.5-0.2,1-0.3,1.5-0.3c3.6-0.1,6.8-1.6,9.8-3.3c1.6-0.9,3.1-2.1,4.6-3.2c2.5-1.9,4.8-4,7.4-5.8
			c0.8-0.6,2.1-0.9,3.1-0.8c1.9,0.3,3.8,1.1,5.7,1.6c2.3,0.6,3.6,2.4,5.2,3.9c4.1,4.1,7.9,8.3,12.2,12.2c2.3,2.1,5.2,3.5,7.9,5.1
			c2.1,1.3,4.4,2.4,6.7,3.4c1.2,0.5,2.6,0.6,3.9,0.8c0.9,0.1,1.5-0.5,1.5-1.4c0-2.8,0-5.6-0.2-8.3c-0.1-1.2-0.8-2.4-1.4-3.5
			c-0.4-0.8-1.8-1.2-2.5-0.9c-0.9,0.3-1.5,1.2-1.2,2.3c0.2,0.7,0.7,1.3,1,2c0.2,0.5,0.3,1.2,0,1.5c-0.5,0.6-1,0.1-1.5-0.3
			c-0.8-0.8-1.3-1.8-1.3-3c0-0.6,0-1.2-0.1-1.7c-0.3-2.2,2.4-4.4,4.9-3c2.1,1.2,3.5,3.2,3.9,5.6c0.3,1.5,0.5,3.1,0.6,4.7
			c0.1,0.8,0,1.6-0.1,2.3c-0.1,1.5-0.3,2.9-0.6,4.4c-0.1,0.7-0.4,1.4-0.6,2.2c-0.2,0.5-0.4,0.9-0.6,1.4c-0.4,1.6,0.1,2.3,1.8,2.3
			c4.4-0.1,8.8-0.7,13-1.9c0.7-0.2,1.4-0.3,2.1-0.4l4.8-0.9c1.1-0.2,2.2-0.4,3.2-0.4c1.2,0,1.7,0.7,1.1,1.8
			c-0.8,1.5-0.6,2.8,0.2,4.1c0.2,0.3,0.6,0.5,0.9,0.8c0.2-0.3,0.5-0.6,0.6-1c0.4-2.9,3.5-4.2,5.9-2.5c1.3,1,1.5,3.4,0.4,4.8
			c-0.3,0.3-0.4,0.8-0.6,1.2c0.5,0.1,1,0.4,1.4,0.2c0.8-0.3,1.6-0.9,2.3-1.4c0.5-0.4,1-0.9,1.7-0.4s0.5,1.1,0.3,1.8
			c-0.1,0.2-0.2,0.4-0.2,0.6c0,0.3,0,0.7,0.2,0.8c0.2,0.1,0.7,0.2,0.8,0c0.6-0.4,1.1-0.9,1.5-1.5s0.7-1.3,1.1-1.8
			c0.2-0.3,0.7-0.5,1-0.5s0.5,0.5,0.7,0.7c0.1,0.2,0.1,0.5,0.2,0.7c0.2,0.6,0.5,0.7,1,0.3c1.2-0.8,1.9-3.4,1.4-4.8
			c-0.3-0.9-1.1-1-1.9-1.3c-1.9-0.6-3.9-1.3-5.8-2c-2.4-0.9-3.9-2.9-5.9-4.4c-0.5-0.4-0.9-0.8-1.4-1.2c-1.1-0.9-2.4-1.3-3.8-1
			c-3.7,0.7-7.4,0.8-11.2,0.6l-6-0.3c-1.4-0.1-1.8,0.4-1.6,1.8c0.1,0.4,0.2,0.8,0.2,1.2c0,1-0.2,1.9-1.1,2.4
			c-0.5,0.2-1.3,0.2-1.8-0.1c-0.6-0.4,0-1,0.2-1.5c0.3-0.7,0.7-1.5,0.6-2.2c-0.2-1.6,0.2-2.8,1.3-3.9c1.7-1.7,2.7-3.8,3.5-6.1
			c0.9-2.5,1.1-5,0.9-7.6c-0.3-2.7-1.3-5.2-3.6-6.9c-1.7-1.3-3.7-1.1-5.1,0.5c-0.3,0.3-0.5,0.7-0.8,0.8c-0.4,0.2-0.9,0.5-1.3,0.3
			c-0.3-0.2-0.7-0.8-0.6-1.1c0.2-0.9,0.5-1.9,1.1-2.4c0.7-0.7,1.9-1.2,2.8-1.2c2.9,0,5.6,0.8,7.6,3c1.9,2.1,2.7,4.7,3,7.6
			c0.3,3.4-0.6,6.5-1.6,9.5c-0.3,1-1,1.9-1.5,2.9c-0.1,0.3-0.1,0.7-0.1,1c0.4,0,0.9,0.1,1.1-0.1c2.3-1.6,4.3-3.4,6-5.6
			c1.3-1.7,2.1-3.6,3.2-5.4c1.1-2,1.6-4.3,2.1-6.4c0.8-3.3,0.6-6.7-0.1-10c-0.4-1.8-0.7-3.6-1-5.5c-0.2-1.1,0.3-2,1-3
			c1.7-2.5,3.4-5.1,4.9-7.7c1.7-2.7,2.2-5.8,2.8-9c0.2-1.3,1.2-2.5,1.8-3.7c0.4-0.8,0.7-1.7,0.9-2.6c0.6-2.5,0.9-5.1,1.6-7.5
			c0.4-1.3,1.4-2.5,2-3.8c0.2-0.5,0.2-1.1,0.3-1.6c-0.5,0-1.2-0.1-1.6,0.1c-4,1.8-6.8,4.8-8.6,8.7c-0.5,1-0.3,2.3-0.1,3.4
			c0.1,0.4,0.8,0.8,1.3,1.2c0.3,0.3,0.6,0.7,0.8,1.1c-0.4,0.2-0.8,0.6-1.3,0.6c-1.2,0.1-2.5-1.1-2.7-2.3c-0.1-0.6,0-1.2,0-1.7
			c0-1.4-0.4-2.1-1.7-2.6c-0.7-0.3-1.5-0.5-2.2-0.7c-1.1-0.4-1.6-1.1-1.7-2.2c-0.1-0.7-0.4-1.3-0.8-1.8c-1.2-1.2-2.4-2.3-3.7-3.4
			c-1.7-1.4-2.8-3.2-3.8-5.2c-0.1-0.3-0.5-0.5-0.7-0.8c-0.2,0.3-0.5,0.6-0.5,0.9c-0.5,2.7-1,5.4-0.2,8.1c0.2,0.8,0.5,1.5,1,2.2
			c0.7,1.1,0.7,1.8-0.5,2.1c-3.1,0.8-5.6,2.8-8.5,4.1c-1.3,0.6-2.9,0.8-4.4,0.7c-2.2-0.1-4.3-0.6-6.5-0.9c-1.3-0.2-2.6-0.3-3.9-0.4
			c-0.3,0-0.7,0-1,0.2c-0.6,0.4-1.6,0.8-1.7,1.3c-0.1,0.7,0.5,1.5,1,2.1c0.4,0.6,0.8,0.1,1.1-0.3c0.7-0.9,1.7-1.2,2.6-0.7
			c0.7,0.3,0.9,0.8,0.5,1.5c-0.2,0.3-0.3,0.9-0.2,1c0.6,0.3,1.2,0.6,1.8,0.7c0.6,0,1.3-0.4,2-0.4c0.9,0,1.3,0.7,0.9,1.5
			c-0.6,1.2,0,2.1,0.5,3c0.1,0.2,0.6,0.3,0.8,0.4c0.1-0.3,0.1-0.5,0.3-0.8c0.2-0.4,0.3-1.1,0.7-1.2c0.5-0.2,1.2-0.2,1.6,0.1
			c0.7,0.4,0.4,0.9-0.1,1.3c-0.4,0.3-0.9,0.7-0.4,1.1c0.5,0.6,1.2,1,1.9,1.4c0,0,0.5-0.4,0.6-0.7c0.4-0.6,0.8-0.9,1.5-0.6
			c0.6,0.3,0.9,0.8,0.7,1.4c-0.2,0.8,0.2,1.3,0.9,1.5c0.3,0.1,0.8-0.3,1-0.6c0.7-0.8,1.5-0.8,2.1,0.2c0.5,0.8,1.1,1.1,2,1
			c0.7,0,1.4,0.1,1.6,0.8c0.1,0.6,0.1,1.5-0.2,2c-1.3,2.1-4.5,2.7-6.6,1.4c-0.4-0.2-0.9-0.3-1.3-0.2c-1,0.2-1.5-0.1-1.8-1.1
			c-0.4-1.8-0.9-2-2.6-1.1c-0.7,0.4-1.2,0.2-1.6-0.5c-0.7-1.6-1.1-1.7-2.7-1.3c-0.4,0.1-0.9-0.2-1.3-0.4c-0.3-0.2-0.4-0.5-0.6-0.8
			c-0.5-1-1.2-1.2-2.2-0.7c-0.9,0.5-1.5,0.1-2-0.7c-0.1-0.2-0.2-0.5-0.4-0.6c-0.5-0.2-1.1-0.3-1.6-0.2c-0.2,0-0.4,0.7-0.4,1.1
			c0.1,0.6,0.3,1.2,0.6,1.7c2.8,4.3,6.7,7,11.6,8.2c1.7,0.4,3.5,1.1,5.1,1.8c0.7,0.3,1.3,1,1.8,1.6c0.1,0.1,0,0.6-0.1,0.8
			c-0.2,0.4-0.6,0.8-0.7,1.2c-0.7,2.3-2.2,3.6-4.6,3.6c-2.5,0-4.9-0.2-7.2-1.4c-4.3-2.2-8.7-4.1-13-6.2c-2.3-1.1-4.4-2.5-6.7-3.5
			c-2.8-1.2-5.7-2.2-8.6-3.3c-6-2.4-12.1-1.9-18.3-1.2c-3.7,0.4-6.8,2.4-9.7,4.8c-2.8,2.3-5,5.1-7.3,7.7c-0.6,0.7-1.2,1.3-1.8,1.9
			c-0.9,0.8-2,0.9-3.1,0.4s-1.4-1.5-1.3-2.6c0.1-1.3,0.4-2.5,1.1-3.7l5.7-9.6c2.6-4.4,2.1-8.6-1.5-12.3c-2.2-2.2-4.7-3.6-7.8-3.8
			c-3.4-0.3-6,1.2-8.2,3.4C126.7,169.2,125.1,172.6,125.4,176.7L125.4,176.7z M236.5,159.8c-0.6,0.2-1.3,0.4-1.9,0.3
			c-0.3,0-0.9-0.7-0.8-0.9c0.4-1.2-0.3-1.6-1.1-2.1c-0.5-0.3-1.1-0.5-1.5-0.9s-0.7-0.9-1.1-1.4c0.3-0.5,0.5-0.9,0.8-1.1
			c0.2-0.1,0.7,0,0.9,0.2l4.5,4.8C236.5,158.9,236.5,159.8,236.5,159.8L236.5,159.8z M231.4,172.5c-0.1-2,0.7-2.8,2.5-2.9
			c1.9-0.1,3.3,1,3.3,2.6c0,1.4-1.5,3.1-2.9,3.2C232.6,175.5,231.4,174.2,231.4,172.5L231.4,172.5z M228.2,169.7
			c-0.3,0.2-0.9-0.1-1.3-0.2c0.1-0.4,0.1-0.8,0.3-1.1c1.2-1.5,3.1-1.7,4.6-2.6c0.2-0.1,0.6-0.1,0.9,0c1.1,0.1,2.3,0.3,3.4,0.4
			c1.5-0.4,2.3,0.7,3.3,1.5c0.1,0.1,0.2,0.5,0.1,0.6s-0.4,0.2-0.6,0.1c-0.3-0.1-0.6-0.2-0.8-0.4c-2-1.9-5.5-1.5-7.5,0.1
			C229.8,168.7,229.1,169.3,228.2,169.7L228.2,169.7z M168.5,240.1c0.3,0.8,0.4,1.7,0.4,2.5c0,0.6-0.4,1.2-0.7,1.7
			c-0.4,0.5-0.9,1-1.3,1.5c-0.6,0.8-0.7,1.7-0.2,2.5c0.3,0.4,0.8,0.7,1.1,1.1c0.3-0.4,0.5-0.8,0.8-1.1c0.5-0.5,1-1.2,1.6-1.4
			c2.6-0.6,4.9-0.1,5.5,3.4c0.2,1,0.8,1.3,1.4,0.5c0.6-0.7,1-1.5,1.3-2.4c0.3-0.7,0.5-1.4,1.4-1.4c0.7,0,1.3,0.3,1.4,1
			c0,0.2,0,0.4,0.1,0.6c0.2,0.5,0.4,1.1,0.6,1.6c0.5-0.4,1.2-0.6,1.5-1.1c0.4-0.6,0.4-1.4,0.7-2c0.2-0.5,0.6-1.2,1-1.2
			c0.5,0,1.1,0.4,1.5,0.8c0.4,0.3,0.7,0.7,1.1,1.1c0.2-0.5,0.4-1.1,0.5-1.6c0.1-0.2,0-0.5,0-0.8c0.3-1.8-0.9-3.3-1.7-4.8
			c-0.4-0.8-1.6-0.7-2.5,0c-1.5,1.2-3.2,2.1-5.2,2.2c-1.5,0.1-2.4-0.6-3.1-1.9c-2-3.5-3.5-7.2-4.4-11.1l-1.3-5.3
			c-0.3-1.5-1.4-2.2-2.8-1.6c-1.4,0.5-3.6-0.2-4.4-1.5c-0.1-0.2-0.2-0.6-0.1-0.8s0.5-0.3,0.8-0.3c0.4,0.1,0.9,0.3,1.2,0.5
			c1.5,1.2,2.2,1.2,3.6-0.1c1.3-1.2,2.7-2.3,3.9-3.6c2.4-2.8,4.2-6,5.8-9.3c0.2-0.3,0-1.2-0.3-1.4c-1.2-0.7-2.4-1.4-3.9-1
			c-1.3,0.4-2.9,0.3-4,0.9c-1.7,1-3.3,2.3-4.8,3.6c-2.1,1.8-3.2,4.2-4.6,6.5c-0.5,0.8-1.3,1.6-2,2.3c-0.8,0.8-1,1.6-0.2,2.4
			c2.9,2.8,4.4,6.6,6.4,10C166,234.1,167.2,237.1,168.5,240.1L168.5,240.1z M263,222.8c0.5-0.2,0.8-0.7,1.3-0.8
			c0.5-0.2,1.2-0.2,1.7,0c0.1,0,0.1,0.9,0.1,1.3c0,0.3-0.1,0.7,0.1,0.8c0.2,0.2,0.6,0.2,0.8,0.1c0.4-0.2,0.8-0.6,1.2-1
			c0.5-0.6,0.9-1.2,1.4-1.8c0.7-0.8,1.4-0.7,1.7,0.4c0.1,0.4,0.1,0.9,0.2,1.2c-0.1,0.7-0.2,1.2-0.2,1.7c0,0.7,0.3,1,1,0.6
			c2.4-1.2,3.3-5.6,1.5-7.6c-0.3-0.4-0.8-0.6-1.3-0.8c-0.7-0.2-1.5-0.4-2.2-0.5c-4.2-0.2-7.7-2.2-11-4.6c-0.7-0.5-1.3-1.2-1.9-1.8
			c-0.6-0.5-1.3-0.5-2-0.2c-2,1-4,2.1-6.1,3c-1.2,0.5-2.7,0.6-4,0.7c-1.8,0-2.9,0.6-3.7,2.4c-0.8,1.9-2.2,3.7-3.3,5.5
			c-0.2,0.3-0.4,0.9-0.3,1.1c0.3,0.3,0.8,0.5,1.1,0.4c1.9-0.6,3.9-1.1,5.7-1.9c2.2-0.9,4.2-2.1,6.4-3.1c1-0.5,1.6-0.1,1.9,0.9
			c0.3,0.8,0.7,1.6,1.2,2.2c0.2,0.3,0.9,0.5,1.2,0.4s0.7-0.7,0.7-1.1c0.3-1.8,0.9-2.7,2.1-2.9c1.5-0.2,2.9,0.5,3.6,2
			c0.2,0.6-0.1,1.4-0.1,2.1c0,0.4-0.1,0.8-0.2,1.2C262.1,222.8,262.6,223,263,222.8L263,222.8z"/>
	</g>
</g>
</svg>
