<?xml version="1.0" encoding="utf-8"?>
<!-- Generator: Adobe Illustrator 23.0.0, SVG Export Plug-In . SVG Version: 6.00 Build 0)  -->
<svg version="1.1" id="Layer_1" xmlns="http://www.w3.org/2000/svg" xmlns:xlink="http://www.w3.org/1999/xlink" x="0px" y="0px"
	 viewBox="0 0 493.2 405.7" style="enable-background:new 0 0 493.2 405.7;" xml:space="preserve">
<style type="text/css">
	.st0{fill:#C69B3C;}
</style>
<g>
	<polygon class="st0" points="394.1,0 318.6,56 354.9,99.5 381.5,79.7 426.5,142.9 366.2,251.7 285.7,227.7 277.6,201.7 
		317.6,213.2 365.1,174.6 317.6,136.1 283.3,146 304,73.8 246.6,3 189.2,73.8 209.9,146 175.6,136.1 128.1,174.6 175.6,213.2 
		215.6,201.7 207.5,227.7 127,251.7 66.7,142.9 111.7,79.7 138.3,99.5 174.6,56 99.1,0 0,139.2 96.9,313.8 396.3,313.8 493.2,139.2 
			"/>
	<rect x="97.8" y="334.6" class="st0" width="297.5" height="71.1"/>
</g>
</svg>
