<?xml version="1.0" encoding="utf-8"?>
<!-- Generator: Adobe Illustrator 23.0.0, SVG Export Plug-In . SVG Version: 6.00 Build 0)  -->
<svg version="1.1" id="Layer_2" xmlns="http://www.w3.org/2000/svg" xmlns:xlink="http://www.w3.org/1999/xlink" x="0px" y="0px"
	 viewBox="0 0 493.2 405.7" style="enable-background:new 0 0 493.2 405.7;" xml:space="preserve">
<g>
	<path d="M222.9,215.9c-4.2-8.3-19.1-13.7-23.1-2.3c-3.7,10.8,6.1,21,9.2,30.2c-4.9-6.1-12.1-2.6-17.2-6.7
		c-5.6-4.5-5.3-12.2-12.8-14.9c1.1,5.5,5.6,6.1,5.5,12.4c-1.3-6.5-13.5-6.7-16.6-2.1c3.9-0.9,9.4-0.2,12.1,3.9
		c-5.8-0.1-12.2,1.9-11.8,10.4c1.3-4.8,5.8-5,9.3-5.2c-4.7,2.4-2.3,11.8,0.5,15.2c-2-6.9,1.1-12.7,7.2-12.9
		c8.4-0.2,21.4,7.2,24.9,9.1c-0.3,0-0.6,0-0.8,0c0.9,0.5,2.6,0.9,3.7,1.3c-0.9-2.7-1.9-15.2-1.1-17.8c4.2,0.8,10,7.1,12.5,11
		C226.9,239.7,228.8,221.8,222.9,215.9z"/>
	<path d="M238.2,217.9c3.6-8.3,16.5-13.7,19.9-2.3c3.2,10.8-5.2,21-7.9,30.2c4.2-6.1,10.4-2.6,14.8-6.7c4.8-4.5,4.5-12.2,11-14.9
		c-1,5.5-4.9,6.1-4.7,12.4c1.1-6.5,11.6-6.7,14.3-2.1c-3.4-0.9-8.1-0.2-10.4,3.9c5-0.1,10.5,1.9,10.1,10.4c-1.1-4.8-5-5-8-5.2
		c4.1,2.4,2,11.8-0.4,15.2c1.7-6.9-0.9-12.7-6.2-12.9c-7.2-0.2-18.4,7.2-21.4,9.1c0.2,0,0.5,0,0.7,0c-0.8,0.5-2.3,0.9-3.2,1.3
		c0.8-2.7,1.7-15.2,1-17.8c-3.7,0.8-9.1,8.1-14.6,9.6C230.9,240.2,233.1,223.8,238.2,217.9z"/>
	<path d="M434.7,38.9C393.3,13,345.1,7.7,298.5,13c-10-6.1-20.6-4.1-31.5-0.7c6.5,0,11.5-0.3,16.8,2.7l0,0c-0.1,0-0.1,0-0.2,0
		c7.4,4.5,10.1,10.6,13,18.5c6.7,18.1,11.9,37.5,13.4,57.2c1.5,19.7-2.5,41.2-14.8,54.3c-12.2,12.9-29.3,9.5-45.1,5.1
		c-0.6-10.8,2.9-19.4,5.9-26.9c6-15,12-36.2,6.6-52.3c-2.3-6.9-10.6-19.6-23.4-19.9c-7-0.2-11.6,1.5-17.3,6.2
		c-0.4,0.4-0.9,0.7-1.2,1.1c-0.4-6.7,0.7-13.1,6-17c-3.3,1.9-6.2,3.9-8.8,10.7c-1.5,3.9-1.8,9.4-4.7,11.5c-2.7-10.4-0.5-25.5,4-34.8
		c-5.8,9.7-9.8,21.7-10.5,33.9c-0.7-1.2-1.3-2.5-1.6-3.7c-1.4-5.3-2.4-11-0.5-16.2c-1.2,3.1-1.7,6.5-1.7,9.9
		c0,7.2,1.6,13.1,3.9,19.3c0.1,0.9,0.2,1.8,0.3,2.8c0.8,6,6.4,34,13.7,29c-0.9-9.5,5.8-21.7,4.6-31.6c7-7.4,17.6-4.6,22.1,0.3
		c12.8,14.1-7.4,42.5-14.2,54c-2.6,4.3-9.3,13.8-13.9,22.4c-12.7,4.7-22.6,10.8-33-1c-11.5-13.1-15.2-34.6-13.8-54.3
		c1.4-19.7,10.8-52.9,10.8-52.9c5.5-12.4,6.9-18.3,13.7-22.8c0,0,0,0,0,0c3.6-2,7.1-3.3,11.6-4.5c-4.9-0.3-14.2-0.2-23.9,2.6
		c-43.9-5.6-89.4-0.5-128.3,25.7C41.2,51.5,24.6,66.5,11,79.6c4-2,10.9-4.5,15.7-4.2c21.7,1.4,36.9,23.8,38.3,50.3
		c-0.5,1-1,2-1.5,2.8c-0.6,1.1-1.1,2.2-1.6,3.1c-0.5,0.9-0.8,1.7-1.1,2.3c-0.6,1.3-0.9,1.9-0.9,1.9l0.5,0.4c0,0,0.4-0.6,1.3-1.6
		c0.8-1,2-2.6,3.6-4.6c0.1-0.2,0.3-0.4,0.5-0.6c0.6,0,1.3,0.1,2,0.1c0.4-0.7,0.9-1.3,1.3-2c1.9-2.9,4.1-6.3,6.5-9.8
		c1.2-1.8,2.5-3.6,3.9-5.5c1.4-1.9,2.7-3.8,4.2-5.8c0.7-1,1.5-2,2.2-3c0.8-1,1.6-2,2.3-3c1.6-2,3.2-4,4.9-6.1c3.4-4,7-8.1,10.8-12.1
		c3.8-4,7.7-8,11.7-11.7c4-3.8,8.1-7.5,12.2-11c4.1-3.5,8.2-6.8,12.2-9.9c2-1.6,4-3,6-4.5c2-1.4,3.9-2.8,5.8-4.1
		c1-0.6,1.9-1.3,2.8-1.9c0.9-0.6,1.9-1.2,2.8-1.8c1.8-1.2,3.6-2.2,5.3-3.3c1.7-1,3.4-2,4.9-2.9c1.6-0.9,3.1-1.7,4.5-2.5
		c2.8-1.5,5.3-2.7,7.4-3.7c2.1-1,3.7-1.7,4.8-2.2c1.1-0.5,1.7-0.8,1.7-0.8l0.1,0.2c0,0-0.6,0.3-1.7,0.8c-1.1,0.5-2.8,1.2-4.8,2.3
		c-2.1,1-4.5,2.3-7.3,3.9c-1.4,0.8-2.9,1.6-4.5,2.5c-1.5,0.9-3.2,1.9-4.9,3c-1.7,1.1-3.4,2.2-5.2,3.4c-0.9,0.6-1.8,1.2-2.7,1.8
		c-0.9,0.6-1.8,1.3-2.8,1.9c-1.9,1.3-3.8,2.7-5.8,4.2c-1.9,1.5-3.9,2.9-5.9,4.5c-4,3.1-8,6.5-12.1,10c-4,3.5-8.1,7.3-12,11.1
		c-4,3.8-7.8,7.9-11.5,11.9c-3.7,4-7.2,8.2-10.6,12.2c-3.4,4-6.6,8-9.6,11.8c-1.5,1.9-2.9,3.8-4.3,5.6c-1.4,1.8-2.7,3.6-4,5.3
		c-1.3,1.7-2.5,3.4-3.6,5c-1.1,1.6-2.2,3.1-3.2,4.5c-0.3,0.5-0.6,0.9-1,1.4c8.7,1.1,22.4,5.5,30.6,11c5.9,3.9,11.1,10,13.9,18
		c0.9,2.7,1.2,5.4,1.2,8.1c-0.3,1.5-0.7,2.9-1,4.2c-0.3,1.4-0.6,2.7-0.8,3.8c-0.5,2.3-0.9,4.1-1.1,5.4c-0.2,1.3-0.4,1.9-0.4,1.9
		l0.6,0.3c0,0,0.3-0.6,0.8-1.7c0.3-0.7,0.7-1.6,1.2-2.6c0,0.2,0,0.4,0,0.6c0.4-1.4,0.9-2.6,1.6-3.5c0.2-0.8,0.5-1.7,0.8-2.6
		c1-3.3,2.1-7,3.3-11c1.2-4,2.6-8.3,4.2-12.9c0.8-2.3,1.6-4.6,2.4-7c0.8-2.4,1.7-4.8,2.7-7.2c0.9-2.4,1.9-4.9,2.9-7.4
		c1-2.5,2.1-5,3.2-7.5c1.1-2.5,2.2-5,3.4-7.5c0.6-1.2,1.2-2.5,1.8-3.7c0.6-1.2,1.2-2.5,1.8-3.7c1.2-2.4,2.5-4.9,3.7-7.3
		c1.2-2.4,2.5-4.8,3.7-7.2c2.5-4.8,4.9-9.5,7.2-14c2.4-4.5,4.7-8.9,6.9-13c2.2-4.1,4.4-8,6.4-11.5c1-1.8,2-3.4,2.9-5
		c0.9-1.6,1.9-3.1,2.7-4.5c0.9-1.4,1.7-2.7,2.5-3.9c0.8-1.2,1.5-2.3,2.1-3.2c0.7-1,1.2-1.8,1.8-2.6c0.5-0.7,1-1.4,1.3-1.9
		c0.7-1,1.1-1.6,1.1-1.6l0.1,0.1c0,0-0.4,0.5-1.1,1.6c-0.4,0.5-0.8,1.1-1.3,1.9c-0.5,0.8-1.1,1.6-1.7,2.6c-0.6,1-1.3,2.1-2.1,3.3
		c-0.7,1.2-1.6,2.5-2.4,3.9c-0.8,1.4-1.7,2.9-2.6,4.5c-0.9,1.6-1.9,3.3-2.9,5.1c-2,3.6-4.1,7.5-6.2,11.6c-2.2,4.2-4.4,8.5-6.7,13.1
		c-2.3,4.6-4.7,9.3-7.1,14.1c-1.2,2.4-2.4,4.8-3.6,7.3c-1.2,2.4-2.4,4.9-3.6,7.3c-1.2,2.5-2.3,5-3.5,7.4c-1.1,2.5-2.2,5-3.2,7.5
		c-2.1,5-4,10-5.8,14.9c-3.7,9.7-6.9,18.9-9.6,26.8c-1.4,4.1-2.7,7.8-3.8,11.1c5.5-4.5,15.4-1.5,20.9,0.6
		c9.7,3.8,15.3,12.2,22.3,20.4c0.1,0.9,0.2,1.7,0.3,2.4c0.2,2,0.4,3.5,0.6,4.5c0.2,1,0.2,1.6,0.2,1.6l0.1,0c-0.1-1.9-0.2-4.3-0.2-7
		c-0.1-2.7-0.2-5.8-0.2-9.2c0-1.7,0-3.4-0.1-5.2c0-1.8,0-3.7,0-5.6c0-1.9,0-3.9,0-5.9c0-2,0.1-4.1,0.1-6.2c0.2-4.2,0.3-8.5,0.5-12.9
		c0.2-4.4,0.5-8.9,0.8-13.3c0.2-2.2,0.4-4.5,0.5-6.7c0.2-2.2,0.4-4.4,0.6-6.6c0.2-2.2,0.4-4.4,0.7-6.5c0.3-2.1,0.5-4.3,0.8-6.3
		c0.2-2.1,0.6-4.1,0.8-6.1c0.3-2,0.5-3.9,0.9-5.8c0.3-1.9,0.6-3.7,0.9-5.5c0.3-1.8,0.7-3.5,1-5.1c0.3-1.6,0.6-3.2,0.9-4.7
		c0.3-1.5,0.7-2.9,1-4.2c0.3-1.3,0.6-2.5,0.9-3.7c0.3-1.1,0.6-2.2,0.8-3.1c1-3.7,1.6-5.8,1.6-5.8l0.2,0.1c0,0-0.5,2.1-1.5,5.9
		c-0.2,0.9-0.5,2-0.7,3.1c-0.2,1.1-0.5,2.4-0.8,3.7c-0.3,1.3-0.6,2.7-0.9,4.2c-0.3,1.5-0.6,3.1-0.8,4.7c-0.3,1.6-0.6,3.3-0.9,5.1
		c-0.3,1.8-0.5,3.6-0.8,5.5c-0.3,1.9-0.5,3.8-0.8,5.8c-0.2,2-0.5,4-0.8,6.1c-0.2,2.1-0.4,4.2-0.7,6.3c-0.2,2.1-0.4,4.3-0.6,6.5
		c-0.2,2.2-0.4,4.4-0.5,6.6c-0.1,2.2-0.3,4.4-0.4,6.7c-0.2,4.5-0.4,8.9-0.6,13.3c-0.2,4.4-0.2,8.7-0.3,12.9
		c-0.2,8.4-0.4,16.2-0.5,22.9c-0.1,3.4-0.2,6.4-0.2,9.1c0,2.2-0.1,4.2-0.1,5.9c0-0.2,0-0.3,0.1-0.5c0.1-1,0.3-2.6,0.5-4.5
		c0.1-1,0.2-2.1,0.3-3.2c0.1-0.9,0.2-1.8,0.2-2.8c3.5-2.7,11.3-1.3,13.9-0.9c6.1,0.8,24.7,6.1,29.7,10.1c5.4,4.4,11,9.7,14.3,16.3
		c2.4,11.5,3.1,22.9-3.2,33.4c-8,13.3-19,22.5-17.8,40.4c1.1,17.1,9.5,24.3,17.8,30.1c2.8,1.9,6.6,2.8,6.6,2.8s2.4,4.7,4.5,12
		c2.7,9.2,5.6,19,5.2,29c-0.2,3.5-1,7.4-2.2,11.1c-1.7,1.7-3.5,2.5-5.8,1.6c0.6,10.4-10.6,17.2-16.8,19.8c5,0.2,12.8-6.1,16.5-9.7
		c0.2-0.2,0.4-0.4,0.6-0.6c0,0.1-0.1,0.1-0.1,0.2c15.6-15,10.1-43.9,5.9-63.6c13.3-1.9,29.8-11.1,28.8-30.1
		c-1.7-31-41.5-16.3-39.3,12.7c-7.9-6.4-9.9-17.2-5.9-26.8c7.5-18,23.1-26.6,22.8-49.8c-0.1-4.6,0-8.1,0.4-11
		c6.4-10.1,20-19.1,25.7-21.8c6-2.8,33.6-7.8,40.1-8.6c2.8-0.3,10.9-1.8,14.7,0.8c-0.1-2.8-0.1-5.9-0.2-9.3c-0.1-3.4-0.2-7-0.3-10.9
		c-0.1-3.9-0.2-7.9-0.3-12.2c-0.1-4.2-0.2-8.6-0.4-13c-0.1-4.4-0.4-8.9-0.7-13.4c-0.3-4.5-0.6-9-1.1-13.4c-0.2-2.2-0.4-4.4-0.6-6.5
		c-0.2-2.2-0.5-4.3-0.7-6.4c-0.2-2.1-0.6-4.1-0.8-6.1c-0.3-2-0.5-4-0.9-5.9c-0.3-1.9-0.6-3.7-0.9-5.5c-0.1-0.9-0.3-1.8-0.5-2.6
		c-0.2-0.9-0.3-1.7-0.5-2.5c-0.3-1.6-0.6-3.2-0.9-4.7c-0.3-1.5-0.7-2.9-1-4.2c-0.3-1.3-0.6-2.6-0.8-3.7c-0.3-1.1-0.6-2.2-0.8-3.1
		c-1-3.8-1.6-5.9-1.6-5.9l0.2-0.1c0,0,0.6,2.1,1.7,5.9c0.3,0.9,0.6,2,0.9,3.1c0.3,1.1,0.6,2.4,0.9,3.7c0.3,1.3,0.7,2.7,1.1,4.2
		c0.3,1.5,0.7,3.1,1,4.7c0.2,0.8,0.4,1.7,0.5,2.5c0.2,0.9,0.4,1.7,0.5,2.6c0.3,1.8,0.7,3.6,1,5.5c0.4,1.9,0.7,3.9,1,5.9
		c0.3,2,0.7,4,0.9,6.1c0.3,2.1,0.6,4.2,0.8,6.4c0.3,2.2,0.5,4.3,0.7,6.6c0.5,4.4,0.9,8.9,1.3,13.4c0.3,4.5,0.7,9,0.9,13.4
		c0.3,4.4,0.4,8.8,0.6,13c0,2.1,0.1,4.2,0.1,6.2c0,2,0.1,4,0.1,6c0,1.9,0,3.8,0,5.7c0,1.8,0,3.6-0.1,5.3c0,3.4-0.1,6.5-0.2,9.2
		c0,0.3,0,0.6,0,0.9c0.4,0.5,0.7,1,0.9,1.6c0,1.7,0.1,3.2,0.1,4.5c0.1,3.9,0.2,6.2,0.2,6.2l0.2,0c0,0,0.1-2.3,0.3-6.2
		c0-0.8,0.1-1.7,0.1-2.6c8-8.4,13.9-17.2,24.7-21.1c5.9-2.2,16.6-5.1,22.5-0.5c-0.5-1.4-1.1-2.9-1.6-4.5c-1.2-3.3-2.5-7-4-11
		c-1.4-4.1-3-8.4-4.8-13c-1.7-4.6-3.5-9.5-5.5-14.4c-1.9-5-4-10.1-6.2-15.2c-2.2-5.1-4.6-10.2-7.2-15.2l-1.9-3.7
		c-0.7-1.2-1.3-2.5-2-3.7c-1.3-2.5-2.6-4.9-3.9-7.4c-2.6-4.9-5.2-9.7-7.7-14.3c-2.5-4.6-5-9-7.4-13.2c-2.4-4.2-4.7-8-6.9-11.6
		c-1.1-1.8-2.2-3.4-3.2-5c-1-1.6-2-3.1-2.9-4.5c-1.9-2.8-3.5-5.2-4.9-7.1c-1.4-2-2.5-3.4-3.3-4.4c-0.8-1-1.2-1.6-1.2-1.6l0.1-0.2
		c0,0,0.4,0.5,1.2,1.5c0.8,1,2,2.4,3.4,4.4c1.4,1.9,3.1,4.3,5.1,7c0.9,1.4,2,2.9,3,4.4c1,1.6,2.1,3.2,3.2,5
		c2.2,3.5,4.6,7.3,7.1,11.5c2.5,4.1,5,8.5,7.6,13.1c2.6,4.6,5.2,9.3,7.9,14.1c1.3,2.4,2.7,4.8,4,7.3c0.7,1.2,1.4,2.4,2,3.7l2,3.7
		c2.6,5,5.2,10.1,7.5,15.2c1.2,2.5,2.3,5.1,3.4,7.6c1,2.6,2.1,5.1,3.1,7.6c0.5,1.2,1,2.5,1.5,3.7c0.5,1.2,0.9,2.5,1.4,3.7
		c0.9,2.4,1.8,4.8,2.6,7.1c1.6,4.7,3.1,9.1,4.5,13.2c1.4,4.1,2.5,7.9,3.6,11.2c0.7,2.3,1.4,4.4,2,6.3c0.9,1,1.6,2.3,2.1,3.9
		c0-0.4,0-0.7-0.1-1.1c0,0.1,0,0.1,0.1,0.2c1.6,4.5,2.6,7,2.6,7l0.2-0.1c0,0-0.8-2.6-2.2-7.2c-0.3-0.9-0.6-1.9-0.9-3
		c-0.5-5.3-1.1-10.6,0.8-15.8c3-8,8.5-14.1,14.9-18c9.8-6,26.7-10.8,35.6-11.2c0,0-0.1-0.1-0.1-0.1c-1.6-2.1-3.4-4.7-5.6-7.6
		c-1.1-1.4-2.3-3-3.5-4.6c-1.2-1.6-2.6-3.3-3.9-5c-2.8-3.5-5.8-7.2-9.1-11.1c-3.3-3.9-6.8-7.9-10.4-12c-3.7-4.1-7.5-8.2-11.5-12.3
		c-4-4.1-8.2-8-12.5-11.9c-4.3-3.8-8.7-7.5-13-11c-4.4-3.4-8.8-6.7-13.2-9.7c-4.4-3-8.6-5.7-12.7-8.1c-4.1-2.5-8.1-4.6-11.7-6.5
		c-1.9-0.9-3.6-1.8-5.3-2.6c-1.7-0.8-3.3-1.5-4.8-2.2c-1.5-0.7-3-1.3-4.3-1.8c-1.3-0.6-2.6-1-3.7-1.4c-2.2-0.9-4-1.5-5.2-1.9
		c-1.2-0.4-1.8-0.7-1.8-0.7l0.1-0.2c0,0,0.6,0.2,1.9,0.6c1.2,0.4,3,1,5.2,1.8c1.1,0.4,2.4,0.8,3.7,1.4c1.3,0.5,2.8,1.1,4.3,1.7
		c1.5,0.7,3.2,1.4,4.9,2.1c1.7,0.8,3.5,1.6,5.4,2.5c3.7,1.8,7.7,3.9,11.9,6.3c4.2,2.3,8.5,5.1,12.9,8c4.4,2.9,8.9,6.1,13.3,9.5
		c4.4,3.4,8.9,7.1,13.2,10.9c4.3,3.8,8.6,7.7,12.7,11.7c4.1,4,8,8.1,11.7,12.2c3.7,4.1,7.2,8.2,10.4,12.2c3.2,4,6.2,7.8,8.9,11.4
		c1.3,1.8,2.6,3.6,3.8,5.2c1.2,1.7,2.3,3.3,3.4,4.8c1,1.5,2,2.9,2.9,4.3c0.9,1.3,1.7,2.6,2.4,3.7c0.1,0.2,0.3,0.4,0.4,0.6
		c0.2,0,0.3,0,0.5,0c0-0.2,0-0.5,0-0.7c0.2,0.2,0.3,0.4,0.5,0.6c1.6,2.1,2.7,3.8,3.6,4.9c0.8,1.1,1.3,1.7,1.3,1.7l0.1-0.1
		c0,0-0.4-0.6-1.2-1.8c-0.8-1.2-1.9-3-3.3-5.2c-0.3-0.4-0.6-0.9-0.9-1.4c0.8-27.4,17.3-50.7,41.2-52.2c5.8-0.4,6.9-0.4,11.7,2.4
		l4.2,1.6C466.9,63.2,451.6,49.5,434.7,38.9z M215.3,86.8c-0.2-0.3-0.4-0.6-0.6-0.8c-1.2-0.7-0.1-4.5,0.3-5.6c0,1.2,0.8,2.1,0.8,3.2
		C215.8,84.7,215.1,85.7,215.3,86.8z M230.5,298.7c1.7-7.5,17-17.7,19.3-6.3c2.2,10.9-13,15-19.9,15.4
		C229.8,304.8,229.8,301.6,230.5,298.7z"/>
	<path d="M204.2,102.9c0,0,0,0.1,0,0.1"/>
	<g>
		<path d="M259.8,94.2c-0.2,0-0.4,0-0.5,0c0,0.1,0,0.2-0.1,0.3C259.4,94.4,259.6,94.3,259.8,94.2z"/>
		<path d="M248.1,102.3c-1.1-1.1-1-1.3,0.6-5.1c1-2.4,1.3-5.3,2.5-5.2c0.9,0.4,2.1,1.3,2.7,1.5c1.4,0.6,3.7,1.5,5.3,0.9
			c0-0.1,0-0.2,0.1-0.3c-1,0-1.9-0.1-2.9-0.3c-1.8-0.4-5.2-1.7-5.4-4.3c0-0.3,0-0.6,0-0.9c-2.3,13.7-13.3,29.5-17.9,37.4
			c-1.9,3.3-6.2,9.4-10.2,15.9c1-1.4,2-2.8,3-3.5c1-0.8,1.2-0.3,2.2,0.4c0.5,0.3,2.8,1.9,2.9,1.8c-0.4-0.3-0.8-0.6-1.2-0.9
			c-1.5-1.2-2.8-2.2-1.8-4c1-1.7,2-3.8,2.8-5.1c2.5-3.7,3.2-7.5,5.2-4.8c0.8,1.1,4.5,3,4.6,2.9c-2-1-3.3-2.2-4.6-3.9
			c-1-1.4,0.8-3.8,1.6-5.2c0.7-1.3,1.5-2.7,2.2-4c0.3-0.5,0.6-1.2,0.9-1.8c1.1-1,1.1-2.9,2.8-1.5c4,3.3,6.1,3.8,6.2,3.6
			c-0.8-0.2-1.7-0.5-2.6-1.2c-3.5-2.9-4.4-3.2-3.3-5.7c0.9-2.1,1.5-4.1,2.6-6c0.3-0.5,1-0.6,1.9-0.2c1,0.6,2,1.4,3,1.8
			c1.6,0.6,4.1,0.7,4.1,0.6c-1.3-0.1-2.8-0.3-3.9-0.8C250.4,103.8,249,103.2,248.1,102.3z"/>
		<path d="M242.2,68.6c0,0,0.1,0,0.1,0c0,0,0,0,0,0.1c1.9,0.9,3.6,2.1,4.8,3.4c3.9,4.3,4.7,9.9,3.8,15.9c0.1-0.7,0.3-1.5,0.4-2.2
			c0-0.7,0-2.3,0.6-2.8c1,0.2,1.7,0.2,3,0.1c0.7,0,2.2-0.2,2.9-0.4c0.3-0.1,1-0.2,1.4-0.7c-1,0.5-2,0.5-3.1,0.7
			c-1.2,0.1-2.5,0.1-3.7-0.2c-1-0.2-0.9-0.6-1.1-2.3c-0.1-0.9-0.4-2.4-0.6-3.3c-0.1-0.6,0.3-1,0.8-1.3c0.3-0.2,0.8-0.4,1.3-0.7
			c1.4-0.8,2.4-1.9,2.7-2.6c-0.9,1.1-1.5,1.5-2.9,2.3c-0.9,0.5-2.3,1.2-3,0.2c-0.3-0.5-1.1-1.7-1.5-2.3c-0.3-0.5-0.6-0.9-0.9-1.4
			c-0.2-0.4-0.2-0.5,0.1-0.9c0.2-0.3,0.6-0.5,0.8-0.7c0.5-0.5,1.4-1.5,1.4-2.3c-0.2,0.5-0.9,1.4-1.3,1.8c-1.4,1.4-2,1.4-3,0.8
			c-0.4-0.2-2-1-2.2-1.6c0,0,0.1-0.1,0.1-0.1c0.5-0.8,0.8-1.4,1.1-2.9c-0.8,2.3-0.8,3.7-3.9,2.4c-2.1-0.9-0.7-2.2-0.6-3.7
			c-0.1,0.8-0.8,2.8-1.1,3.1c-0.5,0.5-1.4,0.2-1.9,0.1c-1.9-0.1-1.4-1.3-1.4-3.5c-0.6,2.5,0.4,2.9-1.6,3.5c-2.6,0.7-1.8-1.2-2.3-2.9
			c0,1.8,0.3,3.4-1.2,4.1c-1.9,0.9-1.7-1.4-2.5-2.7c0.2,0.9,1,2.7,0.5,3.7c-0.8,0.3-1.8,1-2.2,1.1c-1.4,0.4-1.8-1.6-2.5-2.8
			c0.4,1.4,1.2,2.8,1.6,4.2C230.4,66.5,237.2,66.4,242.2,68.6z"/>
	</g>
	<g>
		<path d="M276.9,161.1c-2.2,0.5-4.6,0.7-6.9,0.8c-3.1,0.1-7.2,0.1-10.2-1.2c-1.3,4-4.6,5.2-6.4,5.2c1.6,1.5,2.4,8.8,0.5,13.1
			c0.9-1.5,1.5-3.3,1.7-5.5c0.1-1.2,0.2-3-0.2-4.9c1.4-0.5,2.3-1.3,3.3-2.4c1.8-1.8,2.1-4,2.1-4s3.9,0.4,5.6,0.5
			c2.8,0.2,6.5-0.3,9.3-1c2.6-0.6,6.2-1.6,8.5-3.3C282,160,279.3,160.5,276.9,161.1z"/>
		<path d="M215.9,208.7c-0.2-0.3-0.5-0.5-0.7-0.7C215.3,208.3,215.6,208.5,215.9,208.7z"/>
		<path d="M214.6,189.4c-1.1-6.2-2.9-11.1-2.2-17.6c0.1,0.1,0.2,0.1,0.3,0.2c0.2-2.2,0.2-2.7,0.5-5.3c-2.2,0.9-6.2,0.4-6.7-5.6
			c-7.9,1.1-16.8,0.8-22.2-6.7c4.7,8.6,16,8.4,21.9,7.6c0,6.4,3.6,8.5,5.7,9.5c0.2,7.6-0.1,13.2,2.1,20.6c1.5,5,3.6,12.1,3.3,17.5
			c-0.5-0.3-0.9-0.6-1.4-0.9c1.8,2,3.6,5.5,3.9,8.2c0.2-3.5-1-7.4-1.7-10.8C216.9,200.5,215.6,195.1,214.6,189.4z M211.9,171.6
			c0.1,0.1,0.2,0.1,0.3,0.2C212.1,171.8,212,171.7,211.9,171.6z"/>
		<path d="M247.3,189.4c-1.6-3.5-1.6-6.7-4.5-9c-2.9-2.3-7.1-3.2-10.3-1.3c4.4-0.6,8.7,0.7,11.2,5.5c4.4,8.4-0.8,17.7-2.3,26
			c-1.4,8.2-1.4,16.8-4.1,24.6c2-2.6,2.7-7,3.1-10.4c1.6-13.6,1-10.7,3-17.5c1.6-5.4,4.5-16.5,7.9-20.3c0.7-0.8,0.9-2,0.9-3.2
			C251.7,186.4,249.8,190.1,247.3,189.4z"/>
		<path d="M222.2,190.9c-0.1,4.8,0.8,10.2,2.2,14.6c0.2-7.5-1.4-20.6,3.9-24.8C224.9,183,222.3,185.1,222.2,190.9z"/>
		<path d="M228.3,180.7c0.2-0.1,0.4-0.3,0.6-0.4C228.7,180.4,228.5,180.5,228.3,180.7z"/>
		<path d="M222.2,241.6c0.7-3.6,0.4-8.6,1.5-12.2c-0.6-1.3-0.9-3.2-1.5-4.5C221.6,230.1,222.6,236.2,222.2,241.6z"/>
		<path d="M223.7,229.6v-0.4c0,0.1,0,0.2-0.1,0.2C223.7,229.5,223.7,229.5,223.7,229.6z"/>
	</g>
</g>
</svg>
