<?xml version="1.0" encoding="utf-8"?>
<!-- Generator: Adobe Illustrator 23.0.0, SVG Export Plug-In . SVG Version: 6.00 Build 0)  -->
<svg version="1.1" id="Layer_1" xmlns="http://www.w3.org/2000/svg" xmlns:xlink="http://www.w3.org/1999/xlink" x="0px" y="0px"
	 viewBox="0 0 400 400" style="enable-background:new 0 0 400 400;" xml:space="preserve">
<style type="text/css">
	.st0{fill:#101006;}
	.st1{fill:#101006;stroke:#000000;stroke-miterlimit:10;}
	.st2{display:none;fill:#F1CE56;}
	.st3{fill-rule:evenodd;clip-rule:evenodd;fill:#F1CE56;}
</style>
<circle class="st0" cx="200" cy="200" r="191.5"/>
<g id="Layer_2">
	<rect class="st1" width="400" height="400"/>
</g>
<path d="M200,9c25.8,0,50.8,5,74.3,15c22.7,9.6,43.2,23.4,60.7,40.9s31.3,38,40.9,60.7c10,23.5,15,48.6,15,74.3s-5,50.8-15,74.3
	c-9.6,22.7-23.4,43.2-40.9,60.7s-38,31.3-60.7,40.9c-23.5,10-48.6,15-74.3,15s-50.8-5-74.3-15c-22.7-9.6-43.2-23.4-60.7-40.9
	s-31.3-38-40.9-60.7C14,250.8,9,225.8,9,200s5-50.8,15-74.3C33.6,103,47.4,82.5,64.9,65s38-31.3,60.7-40.9C149.2,14,174.2,9,200,9
	 M200,8C94,8,8,94,8,200s86,192,192,192s192-86,192-192S306,8,200,8L200,8z"/>
<g>
	<path class="st2" d="M207.8,0.2C147.8-2,96.1,19.1,54.7,62.7C18.3,101.1,0.1,147.4,0,200.4C-0.2,310.2,89.4,400.6,199.8,400
		c110.7,0.7,201.1-89.8,200.2-201.1C399.1,87.3,311,3.9,207.8,0.2z M200.1,381.2c-99,0-182.2-80.6-180.4-184.7
		C21.4,103.1,98.5,16.1,209,20.2c88.8,3.2,174.5,78.3,171.9,185.9C378.6,300.3,300.7,381.2,200.1,381.2L200.1,381.2z"/>
	<path class="st3" d="M187.7,112.2c1.8,0,4,1.9,4.7,4.3c0.6,2.2,1,4.5,1.2,6.8c0.3,2.8,0.4,5.7,0.3,8.5c-0.1,1.9-0.6,3.8-0.9,5.7
		c-0.1,0.7-0.3,1.6,0,2.1c0.8,1.3,0,2.2-0.2,3.4c-0.4,1.7-0.1,3.4-0.2,5.2l-0.5,6c0,0.6,0.5,1.2,0.5,1.8l-0.5,7.5
		c0,0.2-0.1,0.4-0.1,0.7c0.4,2.5,1.1,5,1,7.5c-0.1,2.2,0.2,4.3,0.5,6.5c0.4,2.5,0.4,5.1,1.1,7.6c0.2,0.5,0.3,1.1,0.4,1.6
		c0.1,0.3-0.1,0.7,0,1c0.8,1.7,0.4,3.5,0.2,5.2c-0.1,0.8,0.2,1.8,1.3,1.7c0.6-0.1,1.5-0.4,1.8-0.8c0.7-1,1.1-2.1,1.6-3.2
		c0.4,1,0.6,2.2,1.2,3.1c0.5,0.7,1.5,1,2.3,1.5c0.3-0.7,1.1-1.4,1-2c-0.6-4,0.6-7.5,2-11.1c0.5-1.2,0.4-2.5,0.7-3.8
		c0.3-1.6,0.7-3.2,1-4.8c0.1-0.5-0.1-1-0.1-1.5s-0.2-1-0.2-1.5c0.2-2.2,0.6-4.4,0.6-6.6c0-2.8-0.2-5.5-0.3-8.3c-0.1-2.3,0-4.6,0-6.9
		c0-0.5,0-1.1-0.2-1.5c-0.7-1.3-0.4-2.6,0.2-3.8c0.8-1.8,0.4-3.4-0.6-5.1c-0.3-0.5-0.6-1.1-0.7-1.6c-0.4-1.5-0.7-3.1-1-4.6
		c-0.1-0.3,0-0.6,0-0.8c0-1.7-0.1-3.4,0-5.1c0-0.6,0.5-1.1,0.6-1.7c0.1-0.7,0.2-1.5,0.2-2.2c0-0.4-0.4-0.9-0.3-1.2
		c0.8-2.1,1.7-4.1,2.5-6.2c0.5-1.5,1.4-2.7,2.8-3.5c0.3-0.2,0.7-0.3,1-0.4c-0.8,3.2-1.8,6.1-2.2,9.2c-0.4,3.3-0.5,6.7-0.3,10
		c0.2,3.7,0.8,7.4,1.4,11.1c0.4,2.6,1,5.1,1.5,7.7c0.4,2.1,0.9,4.2,0.8,6.3c-0.1,5.1-0.3,10.2-0.7,15.3c-0.2,2.3-0.9,4.6-1.3,6.9
		c-0.3,1.4,0.2,2.5,1.6,3.2c1.7-0.6,2.3-1.8,2.5-3.5c0.1-0.7,0.5-1.4,0.8-2.1c0.8-1.9,2.2-3.8,2.4-5.7c0.3-2.7,2.4-4.6,2.4-7.5
		c0-2.4,1.5-4.7,2.1-7.1c0.7-2.3,1.1-4.6,1.7-6.9c0.3-1,0.8-1.9,1.2-2.8c0.1-0.3,0.4-0.6,0.5-0.9c0.3-3,2-5.4,3.1-8.1
		c0.3-0.9,0.4-1.8,0.7-2.7c0.2-0.6,0.2-1.2,0.6-1.7c0.8-1.1,1.8-2.1,2.7-3c2.3-2.2,4.2-4.9,7-6.4c1.6-0.9,3.6-1.1,5.9-1.8
		c-0.3,0.7-0.4,1.2-0.7,1.5c-2.1,2-4.5,3.7-6.4,5.9c-1.9,2.2-3.5,4.6-4.8,7.2c-1.7,3.4-3.1,7-4.3,10.7c-0.9,2.5-1.2,5.1-1.8,7.7
		c-0.7,3.2-1.2,6.4-2.2,9.5c-1.9,5.8-4.1,11.5-6.2,17.3l-1.6,4.3c-0.1,0.4,0,1.1,0.3,1.4c0.2,0.2,1,0.2,1.3,0
		c0.9-0.7,1.8-1.5,2.4-2.4c0.9-1.3,1.5-2.6,3.4-2.6c0.4,0,0.8-0.3,1.2-0.6c1.9-1.3,3.8-2.7,5.7-3.9c0.6-0.4,1.4-0.3,2.1-0.5
		c1.1-0.5,2.1-1,3.2-1.6c0.6-0.3,1.2-0.8,1.9-1c1.1-0.3,1.7-1,1.6-2c-0.3-4,0.6-7.9,1.5-11.7c1-4.4,2.3-8.8,4.4-13
		c1.8-3.6,3.8-6.9,6.7-9.6c2.5-2.3,5.2-4.3,8.3-5.9c4.1-2.1,8.3-3.1,12.8-3.1c4.4,0,8.7,0.7,12.6,3c3.5,2,7,3.9,10.4,6.1
		c4.4,2.9,8.6,6.2,13,9.2c3,2,6,4.1,9.3,5.6c3.5,1.6,7.5,2.3,11.3,1.5c4.5-1,8.3-3.3,10.9-7.3c1.6-2.6,1.8-5.6,1.9-8.5
		c0.1-2.6,0-5.2-0.4-7.7c-0.6-3.5-2.3-6.6-5.2-8.8c-2.4-1.8-4.9-3.5-7.5-4.7c-3.3-1.6-7-2.5-10.7-2c-2.9,0.4-5,2.3-6.9,4.4
		c-1.7,1.9-3.3,3.8-6.4,3.2c-2-0.4-4.1,0-6.1-0.2c-3-0.3-6-0.7-8.9-1.1c-2.4-0.3-4.8-0.7-7.2-1.3c-0.8-0.2-1.6-1.2-2.3-1.1
		c-2.1,0.2-3.2-1.4-4.7-2.3c-0.3-0.2-0.5-0.7-0.7-1c0.4-0.2,0.8-0.5,1.2-0.6c3.9-0.3,7.9-0.3,11.8-0.7c2-0.2,3.9-1,5.9-1.5l8.4-2.4
		c2.6-0.7,5.3-1.5,8-2.1c1.1-0.3,2.2-0.2,3.3-0.2c0.4,0,0.9,0.4,1.1,0.8c0.6,1.4,1.9,1.6,3.2,1.9c2.4,0.5,4.7,1.2,7,1.9
		c2.4,0.8,4.8,1.8,7.1,2.9c4.6,2.3,8.7,5.2,11.7,9.6c2.2,3.3,3.2,6.9,3.4,10.9c0.2,4.6-0.7,8.9-2.6,12.9c-1.6,3.5-4.5,5.9-8.2,7.4
		c-4.1,1.6-8.2,1.5-12.3,0.8c-2.4-0.4-4.6-1.5-6.9-2c-6.6-1.6-11.6-6-17.1-9.6c-3.8-2.5-7.7-4.7-11.7-6.9c-2.3-1.2-4.6-2.5-7-3.2
		c-3.3-1-6.7-1.7-10.3-1.6c-2.8,0.1-5.5,0.5-8.2,1.4c-3.4,1.1-6.1,3.2-8.6,5.8c-3.1,3.4-5.3,7.3-6.9,11.5c-1.7,4.5-2.8,9.1-2.5,14
		c0,0.6,0.2,1.5,0.6,1.7s1.3,0,1.8-0.3c1.4-0.8,2.6-1.8,4-2.7l0.2-0.2c3-0.2,3.6-3.4,5.7-4.8c0.8-0.5,1.1-1.9,1.7-2.9
		c1.1-1.8,2.3-3.5,3.3-5.3c0.8-1.5,1.2-3.2,1.9-4.8c0.6-1.4,1.5-2.7,2.2-4c0.2,0.1,0.5,0.2,0.7,0.3c-0.2,1.5-0.4,3.1-0.7,4.6
		c-1,5.3-3.2,10.2-6.1,14.8c-3.3,5.1-7.7,8.9-12.6,12.2c-1.8,1.2-2.7,4.4-2,7.3l1.9,7.5c0.5,2,1.7,2.7,3.8,3.1
		c2,0.4,3.9,1.3,5.9,1.7c1.5,0.3,3,0.5,4.5,0.5c2.4,0,4.8-0.2,7.2-0.3c0.5,0,1,0.2,1.5,0.2c0.9-0.1,1.8-0.2,2.6-0.5
		c1.7-0.6,3.3-1.3,4.9-2c0.1,0.2,0.3,0.5,0.4,0.7c-0.9,0.9-1.6,1.9-2.6,2.5c-1.8,1.1-3.6,2.2-5.5,3c-1.3,0.5-2.8,0.9-4.2,0.9
		c-4.2-0.1-8.5-0.4-12.7-0.6c-0.6,0-1.3,0.4-1.7,0.8c-0.3,0.3-0.3,1.1-0.1,1.5l5.7,13.9c1.3,3.1,2.6,6.1,3.7,9.2c0.7,1.9,1,4,1.5,6
		l1.2,4.1c1.8,6.4,2.9,13,2.5,19.6c-0.3,5-1.3,9.9-3.3,14.6c-1.4,3.4-3.2,6.5-5.5,9.1c-2.7,3-6.1,5.5-10.5,5.6
		c-2.7,0.1-5.3-0.1-8-0.4c-1.2-0.1-2.3-0.8-3.3-1.3c-3.1-1.6-6.2-3.2-8.5-5.9c-1.7-2-2.8-4.5-4-6.9c-2-4.2-1.5-8.7-0.8-13
		c0.5-3,1.8-6,2.9-8.9c0.8-2.2,1.9-4.4,2.6-6.6c1.4-4,2.8-7.9,3.8-12c1.3-5.1,1.7-10.3,0.2-15.4c-0.6-2.1-1.8-4.3-4.4-5
		c-2.2-0.6-4.4-1.4-6.7-1.9c-2.3-0.6-4.4,0.5-6.4,1.3c-1.4,0.5-2.7,1.3-3.8,2.1c-3.1,2.3-5.4,5.2-6.4,9c-0.2,0.6-0.2,1.3-0.1,2
		c0.2,1.6,1.8,2.4,3.2,1.6c2-1,3.9-2.4,6-3c2.8-0.8,5.9-1.1,8.7,0.1c1.4,0.6,2.6,1.5,3.9,2.2c-0.1,0.2-0.1,0.4-0.2,0.5
		c-0.8-0.2-1.6-0.3-2.4-0.5c-1.8-0.6-3.6-1.5-5.3-0.4c-1.5,1-2.8,2.5-4.1,3.9c-0.6,0.7-1.1,1.7-1.5,2.5c-1.8,4.2-1.1,8.6-0.9,12.9
		c0.2,4.5,0.8,8.9,1.2,13.3c0.3,3.4,1,6.9,1.1,10.3c0.2,4.1,0.1,8.2-0.1,12.3c-0.2,3.2-0.6,6.4-1.1,9.6c-0.2,1.6,0.7,2.6,1.6,3.6
		c1.5,1.7,3,3.5,4.4,5.3c0.1,0.2-0.4,1.2-0.9,1.4c-1.7,1-3.6,1.8-5.2,3s-2.9,2.7-2.9,5c0,2.8,1.5,6.3,3.7,7.7
		c1.7,1.1,3.6,1.8,5.7,2.1c1.3,0.1,1.3,0.8,0.7,1.9c-0.8,1.5-1.6,3.1-1.9,4.7c-0.5,2.7,1.2,4.6,2.8,6.4c0.9,1,2.1,1.8,3.1,2.6
		c0.8,0.7,0.6,1.4-0.6,1.8c-1.7,0.7-3.6,1.2-5.2,2.1c-3.5,2-4.1,4.3-1.1,7.3c0.2,0.2,0.4,0.5,0.9,1c-1.1-0.1-1.8-0.1-2.4-0.1
		c-3.6-0.1-7.2,0.1-10.2,2.3c-1.5,1.1-2.8,2.8-3.8,4.4c-1.5,2.4-2.7,5-4.1,7.7c-3.4-9.2-8.5-16-19.5-14.4c0.6-1.5,1.2-2.8,1.6-4.1
		c0.5-1.9,0.1-3.2-1.7-4c-1.7-0.9-3.5-1.5-5.4-2.1c-1.5-0.5-1.6-0.9-0.8-2.3c1.5-2.2,3-4.5,4-6.9c0.9-2.3,0.8-4.8-0.7-7
		c-0.5-0.8-0.5-1.7,0.9-1.7c3.5,0.1,6.2-1.4,8.1-4.1c3.1-4.3,2.3-8.6-2.8-11.4c-1.2-0.7-2.5-1.1-4.1-1.8c0.1-0.4,0.3-1.2,0.6-1.9
		c1.1-2.3,2.2-4.6,4.1-6.4c0.6-0.6,0.8-2,0.7-3l-0.7-15.4c-0.1-4.8,0.1-9.5,0.3-14.3l1.3-21.5c0.2-4.6-1.3-8.5-5-11.4
		c-1.6-1.2-3.3-2.2-5.5-1.1c-0.7,0.3-1.4,0.4-2.4,0.7c1.7-2.2,5.8-3.5,8.1-2.6c3.2,1.2,6.4,2.6,9.7,3.7c0.6,0.2,2-0.5,2.1-0.9
		c0.5-2.1,0.5-4.1-0.6-6.3s-2.4-4.1-4.3-5.6c-2-1.5-4-2.9-6.5-3.2c-1.2-0.2-2.3-0.9-3.4-1c-6-0.6-10.9,2.7-13,8.3
		c-1.8,4.8-0.7,9.4,1,13.9c1.1,2.8,2,5.7,3.1,8.5c0.9,2.3,1.9,4.5,2.8,6.8c0.8,2.3,1.6,4.6,2.2,7c0.7,2.8,1.6,5.6,1.9,8.4
		c0.2,2.9-0.1,5.9-0.6,8.8c-0.7,3.8-2.5,7.2-5.2,9.9c-1.9,1.9-4.3,3.3-7,4.3c-4.9,1.8-9.9,1.5-14.9,0.8c-2-0.3-4-1.6-5.8-2.6
		c-3.2-1.9-5.3-4.8-7-8.1c-1.5-2.8-2.4-5.8-2.7-8.9c-0.3-3-1-6-0.9-9c0-3.6,0.6-7.1,1.1-10.7c0.4-3.3,1-6.6,1.6-9.9
		c0.3-1.8,0.8-3.5,1.3-5.3l3.3-9.9l4.4-11.7c0.9-2.2,1.9-4.4,3-7c-0.6-0.2-1.4-0.6-2.2-0.6c-2.2,0.1-4.3,0.4-6.4,0.8
		c-3.8,0.7-7.5,0.6-11.2-0.3c-3.2-0.7-6-1.9-8.1-4.5c-0.4-0.5-0.7-1-1.1-1.7c2.1-0.6,2.6,1.3,3.9,1.8c0.6,0.3,1.2,0.7,1.8,0.8
		c2.2,0.1,4.5,0,6.7,0l7,0.3h0.3c1.5-0.7,2.9-1.4,4.6-1.5c0.9-0.1,1.6-1.4,2.6-0.2c0.1,0.1,0.4,0.1,0.5,0c1.1-1.3,2.4-2.3,4.1-2.8
		c0.1,0,0.2-0.2,0.2-0.2c0.8-2.4,1.9-4.7,2.4-7.1s0.6-4.9,0.7-7.3c0.1-1.6-1.5-2-2.5-2.6c-3.6-2.1-6.8-4.7-9.3-8.1
		c-1.4-1.9-3-3.7-4.3-5.7c-0.8-1.1-1.3-2.5-1.9-3.7c-0.7-1.6-1.6-3.2-2-4.9c-0.8-2.9-1.3-5.9-1.8-8.9c0-0.2,0.2-0.5,0.5-0.9
		c0.2,0.5,0.5,0.8,0.5,1.2c0.2,2.1,1.3,3.8,2.2,5.7c1,2,2.4,3.7,3.3,5.7c0.1,0.3,0.2,0.7,0.1,0.9c-0.4,0.9,0.1,1.4,0.8,1.7l0.1,0.1
		c1.3,2.2,3.5,3.6,4.8,5.7c0.4,0.6,1.2,1,2,1.4c0.4,0.2,1.2,0.1,1.2,0.3c0.7,2,2.7,2.3,4.3,3.2c1.1,0.6,1.9,0.4,2.1-0.8
		c0.2-0.9,0.1-1.8,0.1-2.7c0-5.4-0.9-10.7-3.3-15.5c-2.8-5.8-7.2-9.9-13.2-12.5c-4.7-2.1-9.5-3-14.6-2.6c-3.7,0.3-7.2,1.6-10.4,3.6
		c-3,1.8-5.9,3.7-8.7,5.7c-4,2.8-7.8,5.9-11.8,8.8c-3.6,2.6-7.3,4.9-11.6,6.4c-4.8,1.8-9.6,1.6-14.1,0.6c-4.1-0.9-7.9-3.3-10.2-7.3
		c-1.4-2.4-2.7-4.8-3.6-7.3c-1.5-4.3-1-8.9,0.2-13.1c0.7-2.3,2.3-4.5,3.8-6.4c1.6-2,3.5-3.9,5.5-5.4c2.4-1.7,5-3.3,7.8-4.4
		c4.2-1.6,8.6-2.6,13-3.9c0.5-0.2,1.2-0.4,1.4-0.8c1.5-2.5,3.8-1.9,5.9-1.5l10.7,2.4c2.5,0.6,5,1.5,7.5,2c3.7,0.7,7.4,1.2,11.2,1.7
		c1.4,0.2,2.9,0.3,4.3,0.5c-0.4,2.5-3.1,2.5-4.5,3.8c-1.5,1.4-3.3,1.3-5.2,1.5c-2,0.2-3.9,1.1-5.9,1.7c-0.5,0.2-1.1,0.2-1.6,0.2
		c-2.3,0.4-4.6,0.8-6.9,1c-1.4,0.2-2.9,0-4.4,0c-0.5,0-1.1-0.3-1.6-0.3c-3.3-0.1-5.9-1.5-7.7-4.3c-2-3.1-6.1-4.1-9.5-2.8
		c-4.5,1.7-8.6,3.9-12.4,6.8c-3.1,2.4-5.5,5.4-7,9c-0.4,0.8-0.5,1.9-0.4,2.8c0.2,3.3,0.1,6.6,1.1,9.9c0.6,2.1,1.6,4,3,5.6
		c2.1,2.5,4.9,4.2,8.3,4.3h3.5c5.8,0,10.8-2.2,15.3-5.5c4.1-3,8-6.4,12.2-9.4c3.1-2.2,6.5-4.3,9.9-6c3.3-1.6,6.8-3.2,10.4-3.8
		c3.9-0.7,8-1.4,12.1-0.3c2,0.5,4.2,0.5,6.1,1.2s3.7,1.7,5.4,2.9c3.3,2.1,6.3,4.7,8.3,8.1c2,3.3,3.6,6.8,4.5,10.6
		c0.7,2.8,1.6,5.6,2.1,8.5c0.4,2.7,0.5,5.5,0.6,8.3c0.1,2.6,0.2,2.9,2.7,3.7c0.2,0,0.4,0,0.5,0.1c1.1,1.6,2.7,2.2,4.6,2
		c0.2,0,0.6,0.4,0.7,0.6c0.5,1.4,1.6,1.6,2.9,1.7c0.5,0,1.3,0.1,1.5,0.5c1,1.5,2.5,1.9,4,2.4c1.7,0.5,1.6,2.5,2.6,3.6
		c0.3,0.3,0.4,0.9,0.8,1c0.6,0.3,1.3,0.4,2,0.5c0.2-0.7,0.7-1.6,0.5-2.2c-0.8-2.7-1.9-5.3-2.8-7.9c-0.7-1.9-1.5-3.7-2.1-5.6
		c-1-3.6-1.7-7.2-2.7-10.7c-0.7-2.6-1.6-5.1-2.3-7.7c-0.6-2-0.9-4.1-1.5-6.1c-0.8-2.6-1.9-5.2-2.9-7.7c-1.9-5-5.2-9-9-12.6
		c-1.3-1.2-2.8-2.3-4.3-3.4c0-0.2,0-0.4,0.1-0.5c2.1,0.2,4.2,0.3,6.3,0.6c0.3,0,0.5,0.5,0.7,0.9c0.2,0.3,0.2,0.8,0.5,0.9
		c2.4,0.8,3.5,3,5.2,4.6c0.5,0.5,1,1.2,1.4,1.7c0.4,0.4,0.8,0.8,1.2,1.3c0.2,0.2,0.4,0.3,0.5,0.6c1,1.9,2.1,3.8,3,5.8
		c0.4,0.9,0.1,2,0.5,2.9c0.7,1.9,1.7,3.7,2.3,5.6c0.7,2.3,1.1,4.8,1.7,7.1c0.2,0.9,0.5,1.7,0.8,2.6c0.1,0.2,0.2,0.3,0.3,0.4
		c0.5,2.3,1,4.5,1.6,6.8c0.2,0.7,0.6,1.3,0.8,2c0.5,1.7,1.4,3.3,1.4,5c0.1,2.7,0.9,5,2.1,7.3c0.6,1.2,1,2.6,1.7,3.7
		c0.4,0.6,1.3,0.9,2,1.4c0.3-0.7,0.9-1.4,0.9-2.1l-0.5-17.9c0.1-5.5,0.5-11.1,1-16.6c0.4-4.6,1.6-9.1,1.9-13.7
		c0.2-4.4,0.7-8.8-0.6-13.2C189.2,117,188.5,114.6,187.7,112.2L187.7,112.2z M137.6,255.3c0.8,4,1.3,8.3,2.6,12.4
		c0.8,2.6,2.6,5,5,6.7c2.5,1.8,5.4,2.4,8.4,2.7c3.3,0.3,6.6-0.1,9.3-1.9c3.1-2,4.7-5.3,5.1-9c0.3-3.2,0.3-6.5,0-9.7
		c-0.3-2.8-0.9-5.6-1.7-8.3c-0.7-2.4-2-4.6-2.9-7c-1.1-2.8-1.9-5.8-2.9-8.6c-1.2-3.4-2.3-6.8-2.2-10.5c0-0.5-0.2-1-0.2-1.5
		c-0.2-3.6-0.4-7.2,1.3-10.4c0.8-1.6,1.8-3.4,3.2-4.6c3.1-2.8,6.8-4.8,10.7-6.2c0.6-0.2,1-1,1.5-1.5c-0.7-0.5-1.4-1.3-2.2-1.4
		c-1.5-0.2-3,0.1-4.5-0.1c-4-0.6-7.9-0.1-11.8,0.5c-1.2,0.2-2.5,0.7-2.9,2.4c-0.5,2.2-1.5,4.2-2.2,6.3l-2.4,6.3
		c-0.4,1.2-0.9,2.4-1.3,3.5c-1.1,2.8-2.4,5.5-3.3,8.4c-1.6,5.3-3.1,10.6-4.2,16C139,244.7,138.4,249.8,137.6,255.3L137.6,255.3z
		 M262.3,252.2c-0.2-2.1-0.2-4.1-0.5-6.2c-0.5-3.4-1.2-6.7-1.9-10.1c-0.5-2.1-1.2-4.1-1.7-6.2c-0.6-2.1-1-4.3-1.7-6.4l-4.4-12
		l-2.6-6.9c-0.5-1.3-0.8-2.6-1.2-3.9c-0.9-3-2.4-4.1-5.6-4.2c-2.1-0.1-4.1-0.4-6.1-0.7c-3.7-0.6-7.2,0.1-10.6,1.5
		c-0.5,0.2-0.8,0.9-1.3,1.3c0.5,0.3,1,0.8,1.6,1c2.3,0.8,4.7,1.4,7,2.4c2.9,1.3,5.3,3.4,6.7,6.3c1.5,3,2.1,6.4,2.2,9.8
		c0.1,3.2-0.3,6.5-0.6,9.7c-0.3,2.7-0.6,5.4-1.5,7.9c-1.7,4.5-3.9,8.7-5.8,13.1c-0.6,1.4-1.3,2.8-1.6,4.3c-0.5,2.1-0.7,4.2-1.2,6.3
		c-0.8,4,0,7.7,2.5,10.9c1.7,2.2,3.7,4.3,6.5,5.1c7.2,2.1,16.1-2.3,19-9.2C261.3,261.6,262.6,257.1,262.3,252.2L262.3,252.2z
		 M187.1,290c-0.1,0.1-0.2,0.2-0.4,0.2c0,0.2-0.1,0.4-0.1,0.6c0.3,1.6,0.6,3.1,1,4.7c0.5,2,0.9,4,1.4,6c0.1,0.3,9.1,34.5,10,38.4
		c0.1,0.4,0.4,1.1,0.9,1.2s0.9-0.5,1-0.9c0.7-2.1,1.4-4.2,1.9-6.3c0.6-2.7,4.4-18.4,5.1-20.7l2.1-7.5c0.5-1.8,1.2-3.5,1.6-5.3
		c0.6-2.3,1-4.7,1.5-7.1c0.3-1.2,0.5-2.3,0.8-3.4c-0.1,0-0.3-0.1-0.4-0.1c-0.1,0.3-0.2,0.7-0.4,0.8c-1.6,1-2.5,7.3-2.9,8.3
		c-0.7,2.1-6.7,24.9-7.4,27.2c-0.8,2.6-1.4,5.2-2.2,7.9c-0.1,0.3-0.4,1.7-0.6,2.4c-0.2-1.4-11.3-42.9-12.1-45.2
		C187.8,290.9,187.4,290.5,187.1,290L187.1,290z M158.4,180.3c-0.3,0.8-0.6,1.3-0.8,1.9l-1.2,6c-0.4,2-0.1,2.4,1.9,2.4h10.9
		c1.2,0,2.5,0.1,3.7,0c0.5,0,0.9-0.5,1.4-0.7c-0.3-0.4-0.5-0.8-0.8-1l-6.4-3.9C164.3,183.4,161.5,181.9,158.4,180.3L158.4,180.3z
		 M225.7,190.1c0.9,0.2,1.7,0.6,2.4,0.5c1.4-0.1,2.8-0.6,4.3-0.6c3.1-0.1,6.2,0,9.3,0.2c1.4,0.1,2.4-0.6,2.1-2
		c-0.5-2.2-0.9-4.5-1.4-6.7c-0.2-0.7-0.5-1.6-1-1.9c-0.3-0.2-1.2,0.5-1.8,0.8c-3.1,1.9-6.1,3.8-9.1,5.8
		C228.9,187.4,226.4,187.4,225.7,190.1z M210.9,231.8c0.2-0.1,0.3-0.1,0.5-0.2c-0.8-1.9-1.4-3.8-2.4-5.5c-0.7-1.3-2-1.4-3.2-0.5
		c-0.9,0.7-1.3,2.7-0.5,3.3c1.9,1.3,2.3,3.1,2.5,5.1c0.1,1,0.6,1.2,1.5,0.9C210.8,234.3,211,233.2,210.9,231.8L210.9,231.8z
		 M194.4,227.1c-0.5-0.5-1.1-1.5-2-1.9c-0.4-0.2-1.6,0.3-2,0.8c-1.8,2.3-1.7,5.1-1.3,7.8c0.1,0.4,0.7,0.9,1.1,1.1
		c0.3,0.1,1.1-0.1,1.1-0.3c0.4-2.4,1.5-4.5,3-6.4C194.5,228,194.4,227.8,194.4,227.1L194.4,227.1z"/>
</g>
</svg>
