<svg xmlns="http://www.w3.org/2000/svg" viewBox="0 0 400 400"><circle cx="200" cy="200" r="191.5" fill="#101006"/><path d="M200 9c25.8 0 50.8 5 74.3 15 22.7 9.6 43.2 23.4 60.7 40.9s31.3 38 40.9 60.7c10 23.5 15 48.6 15 74.3s-5 50.8-15 74.3c-9.6 22.7-23.4 43.2-40.9 60.7s-38 31.3-60.7 40.9c-23.5 10-48.6 15-74.3 15s-50.8-5-74.3-15c-22.7-9.6-43.2-23.4-60.7-40.9s-31.3-38-40.9-60.7C14 250.8 9 225.8 9 200s5-50.8 15-74.3C33.6 103 47.4 82.5 64.9 65s38-31.3 60.7-40.9C149.2 14 174.2 9 200 9m0-1C94 8 8 94 8 200s86 192 192 192 192-86 192-192S306 8 200 8h0z"/><g fill="#f1ce56"><path d="M207.8.2C147.8-2 96.1 19.1 54.7 62.7 18.3 101.1.1 147.4 0 200.4-.2 310.2 89.4 400.6 199.8 400c110.7.7 201.1-89.8 200.2-201.1C399.1 87.3 311 3.9 207.8.2zm-7.7 381c-99 0-182.2-80.6-180.4-184.7C21.4 103.1 98.5 16.1 209 20.2c88.8 3.2 174.5 78.3 171.9 185.9-2.3 94.2-80.2 175.1-180.8 175.1z"/><path d="M187.7 112.2c1.8 0 4 1.9 4.7 4.3a38.72 38.72 0 0 1 1.2 6.8c.3 2.8.4 5.7.3 8.5-.1 1.9-.6 3.8-.9 5.7-.1.7-.3 1.6 0 2.1.8 1.3 0 2.2-.2 3.4-.4 1.7-.1 3.4-.2 5.2l-.5 6c0 .6.5 1.2.5 1.8l-.5 7.5c0 .2-.1.4-.1.7.4 2.5 1.1 5 1 7.5-.1 2.2.2 4.3.5 6.5.4 2.5.4 5.1 1.1 7.6.2.5.3 1.1.4 1.6.1.3-.1.7 0 1 .8 1.7.4 3.5.2 5.2-.1.8.2 1.8 1.3 1.7.6-.1 1.5-.4 1.8-.8.7-1 1.1-2.1 1.6-3.2.4 1 .6 2.2 1.2 3.1.5.7 1.5 1 2.3 1.5.3-.7 1.1-1.4 1-2-.6-4 .6-7.5 2-11.1.5-1.2.4-2.5.7-3.8.3-1.6.7-3.2 1-4.8.1-.5-.1-1-.1-1.5s-.2-1-.2-1.5c.2-2.2.6-4.4.6-6.6 0-2.8-.2-5.5-.3-8.3-.1-2.3 0-4.6 0-6.9 0-.5 0-1.1-.2-1.5-.7-1.3-.4-2.6.2-3.8.8-1.8.4-3.4-.6-5.1-.3-.5-.6-1.1-.7-1.6-.4-1.5-.7-3.1-1-4.6-.1-.3 0-.6 0-.8 0-1.7-.1-3.4 0-5.1 0-.6.5-1.1.6-1.7.1-.7.2-1.5.2-2.2 0-.4-.4-.9-.3-1.2.8-2.1 1.7-4.1 2.5-6.2.5-1.5 1.4-2.7 2.8-3.5.3-.2.7-.3 1-.4-.8 3.2-1.8 6.1-2.2 9.2-.4 3.3-.5 6.7-.3 10 .2 3.7.8 7.4 1.4 11.1.4 2.6 1 5.1 1.5 7.7.4 2.1.9 4.2.8 6.3-.1 5.1-.3 10.2-.7 15.3-.2 2.3-.9 4.6-1.3 6.9-.3 1.4.2 2.5 1.6 3.2 1.7-.6 2.3-1.8 2.5-3.5.1-.7.5-1.4.8-2.1.8-1.9 2.2-3.8 2.4-5.7.3-2.7 2.4-4.6 2.4-7.5 0-2.4 1.5-4.7 2.1-7.1.7-2.3 1.1-4.6 1.7-6.9.3-1 .8-1.9 1.2-2.8.1-.3.4-.6.5-.9.3-3 2-5.4 3.1-8.1.3-.9.4-1.8.7-2.7.2-.6.2-1.2.6-1.7.8-1.1 1.8-2.1 2.7-3 2.3-2.2 4.2-4.9 7-6.4 1.6-.9 3.6-1.1 5.9-1.8-.3.7-.4 1.2-.7 1.5-2.1 2-4.5 3.7-6.4 5.9a34.75 34.75 0 0 0-4.8 7.2c-1.7 3.4-3.1 7-4.3 10.7-.9 2.5-1.2 5.1-1.8 7.7-.7 3.2-1.2 6.4-2.2 9.5-1.9 5.8-4.1 11.5-6.2 17.3l-1.6 4.3c-.1.4 0 1.1.3 1.4.2.2 1 .2 1.3 0 .9-.7 1.8-1.5 2.4-2.4.9-1.3 1.5-2.6 3.4-2.6.4 0 .8-.3 1.2-.6 1.9-1.3 3.8-2.7 5.7-3.9.6-.4 1.4-.3 2.1-.5 1.1-.5 2.1-1 3.2-1.6.6-.3 1.2-.8 1.9-1 1.1-.3 1.7-1 1.6-2-.3-4 .6-7.9 1.5-11.7 1-4.4 2.3-8.8 4.4-13 1.8-3.6 3.8-6.9 6.7-9.6 2.5-2.3 5.2-4.3 8.3-5.9 4.1-2.1 8.3-3.1 12.8-3.1 4.4 0 8.7.7 12.6 3 3.5 2 7 3.9 10.4 6.1 4.4 2.9 8.6 6.2 13 9.2 3 2 6 4.1 9.3 5.6 3.5 1.6 7.5 2.3 11.3 1.5 4.5-1 8.3-3.3 10.9-7.3 1.6-2.6 1.8-5.6 1.9-8.5.1-2.6 0-5.2-.4-7.7-.6-3.5-2.3-6.6-5.2-8.8-2.4-1.8-4.9-3.5-7.5-4.7-3.3-1.6-7-2.5-10.7-2-2.9.4-5 2.3-6.9 4.4-1.7 1.9-3.3 3.8-6.4 3.2-2-.4-4.1 0-6.1-.2-3-.3-6-.7-8.9-1.1-2.4-.3-4.8-.7-7.2-1.3-.8-.2-1.6-1.2-2.3-1.1-2.1.2-3.2-1.4-4.7-2.3-.3-.2-.5-.7-.7-1 .4-.2.8-.5 1.2-.6 3.9-.3 7.9-.3 11.8-.7 2-.2 3.9-1 5.9-1.5l8.4-2.4c2.6-.7 5.3-1.5 8-2.1 1.1-.3 2.2-.2 3.3-.2.4 0 .9.4 1.1.8.6 1.4 1.9 1.6 3.2 1.9 2.4.5 4.7 1.2 7 1.9 2.4.8 4.8 1.8 7.1 2.9 4.6 2.3 8.7 5.2 11.7 9.6 2.2 3.3 3.2 6.9 3.4 10.9.2 4.6-.7 8.9-2.6 12.9-1.6 3.5-4.5 5.9-8.2 7.4-4.1 1.6-8.2 1.5-12.3.8-2.4-.4-4.6-1.5-6.9-2-6.6-1.6-11.6-6-17.1-9.6-3.8-2.5-7.7-4.7-11.7-6.9-2.3-1.2-4.6-2.5-7-3.2-3.3-1-6.7-1.7-10.3-1.6-2.8.1-5.5.5-8.2 1.4-3.4 1.1-6.1 3.2-8.6 5.8-3.1 3.4-5.3 7.3-6.9 11.5-1.7 4.5-2.8 9.1-2.5 14 0 .6.2 1.5.6 1.7s1.3 0 1.8-.3c1.4-.8 2.6-1.8 4-2.7l.2-.2c3-.2 3.6-3.4 5.7-4.8.8-.5 1.1-1.9 1.7-2.9 1.1-1.8 2.3-3.5 3.3-5.3.8-1.5 1.2-3.2 1.9-4.8.6-1.4 1.5-2.7 2.2-4 .2.1.5.2.7.3-.2 1.5-.4 3.1-.7 4.6-1 5.3-3.2 10.2-6.1 14.8-3.3 5.1-7.7 8.9-12.6 12.2-1.8 1.2-2.7 4.4-2 7.3l1.9 7.5c.5 2 1.7 2.7 3.8 3.1 2 .4 3.9 1.3 5.9 1.7 1.5.3 3 .5 4.5.5 2.4 0 4.8-.2 7.2-.3.5 0 1 .2 1.5.2.9-.1 1.8-.2 2.6-.5 1.7-.6 3.3-1.3 4.9-2 .1.2.3.5.4.7-.9.9-1.6 1.9-2.6 2.5-1.8 1.1-3.6 2.2-5.5 3-1.3.5-2.8.9-4.2.9-4.2-.1-8.5-.4-12.7-.6-.6 0-1.3.4-1.7.8-.3.3-.3 1.1-.1 1.5l5.7 13.9c1.3 3.1 2.6 6.1 3.7 9.2.7 1.9 1 4 1.5 6l1.2 4.1c1.8 6.4 2.9 13 2.5 19.6-.3 5-1.3 9.9-3.3 14.6-1.4 3.4-3.2 6.5-5.5 9.1-2.7 3-6.1 5.5-10.5 5.6-2.7.1-5.3-.1-8-.4-1.2-.1-2.3-.8-3.3-1.3-3.1-1.6-6.2-3.2-8.5-5.9-1.7-2-2.8-4.5-4-6.9-2-4.2-1.5-8.7-.8-13 .5-3 1.8-6 2.9-8.9.8-2.2 1.9-4.4 2.6-6.6 1.4-4 2.8-7.9 3.8-12 1.3-5.1 1.7-10.3.2-15.4-.6-2.1-1.8-4.3-4.4-5-2.2-.6-4.4-1.4-6.7-1.9-2.3-.6-4.4.5-6.4 1.3-1.4.5-2.7 1.3-3.8 2.1-3.1 2.3-5.4 5.2-6.4 9-.2.6-.2 1.3-.1 2 .2 1.6 1.8 2.4 3.2 1.6 2-1 3.9-2.4 6-3 2.8-.8 5.9-1.1 8.7.1 1.4.6 2.6 1.5 3.9 2.2-.1.2-.1.4-.2.5-.8-.2-1.6-.3-2.4-.5-1.8-.6-3.6-1.5-5.3-.4-1.5 1-2.8 2.5-4.1 3.9-.6.7-1.1 1.7-1.5 2.5-1.8 4.2-1.1 8.6-.9 12.9.2 4.5.8 8.9 1.2 13.3.3 3.4 1 6.9 1.1 10.3.2 4.1.1 8.2-.1 12.3-.2 3.2-.6 6.4-1.1 9.6-.2 1.6.7 2.6 1.6 3.6 1.5 1.7 3 3.5 4.4 5.3.1.2-.4 1.2-.9 1.4-1.7 1-3.6 1.8-5.2 3s-2.9 2.7-2.9 5c0 2.8 1.5 6.3 3.7 7.7 1.7 1.1 3.6 1.8 5.7 2.1 1.3.1 1.3.8.7 1.9-.8 1.5-1.6 3.1-1.9 4.7-.5 2.7 1.2 4.6 2.8 6.4.9 1 2.1 1.8 3.1 2.6.8.7.6 1.4-.6 1.8-1.7.7-3.6 1.2-5.2 2.1-3.5 2-4.1 4.3-1.1 7.3.2.2.4.5.9 1-1.1-.1-1.8-.1-2.4-.1-3.6-.1-7.2.1-10.2 2.3-1.5 1.1-2.8 2.8-3.8 4.4-1.5 2.4-2.7 5-4.1 7.7-3.4-9.2-8.5-16-19.5-14.4.6-1.5 1.2-2.8 1.6-4.1.5-1.9.1-3.2-1.7-4-1.7-.9-3.5-1.5-5.4-2.1-1.5-.5-1.6-.9-.8-2.3 1.5-2.2 3-4.5 4-6.9.9-2.3.8-4.8-.7-7-.5-.8-.5-1.7.9-1.7 3.5.1 6.2-1.4 8.1-4.1 3.1-4.3 2.3-8.6-2.8-11.4-1.2-.7-2.5-1.1-4.1-1.8.1-.4.3-1.2.6-1.9 1.1-2.3 2.2-4.6 4.1-6.4.6-.6.8-2 .7-3l-.7-15.4c-.1-4.8.1-9.5.3-14.3l1.3-21.5c.2-4.6-1.3-8.5-5-11.4-1.6-1.2-3.3-2.2-5.5-1.1-.7.3-1.4.4-2.4.7 1.7-2.2 5.8-3.5 8.1-2.6 3.2 1.2 6.4 2.6 9.7 3.7.6.2 2-.5 2.1-.9.5-2.1.5-4.1-.6-6.3s-2.4-4.1-4.3-5.6c-2-1.5-4-2.9-6.5-3.2-1.2-.2-2.3-.9-3.4-1-6-.6-10.9 2.7-13 8.3-1.8 4.8-.7 9.4 1 13.9 1.1 2.8 2 5.7 3.1 8.5.9 2.3 1.9 4.5 2.8 6.8.8 2.3 1.6 4.6 2.2 7 .7 2.8 1.6 5.6 1.9 8.4.2 2.9-.1 5.9-.6 8.8a18.69 18.69 0 0 1-5.2 9.9c-1.9 1.9-4.3 3.3-7 4.3-4.9 1.8-9.9 1.5-14.9.8-2-.3-4-1.6-5.8-2.6-3.2-1.9-5.3-4.8-7-8.1a23.57 23.57 0 0 1-2.7-8.9c-.3-3-1-6-.9-9 0-3.6.6-7.1 1.1-10.7.4-3.3 1-6.6 1.6-9.9.3-1.8.8-3.5 1.3-5.3l3.3-9.9 4.4-11.7c.9-2.2 1.9-4.4 3-7-.6-.2-1.4-.6-2.2-.6-2.2.1-4.3.4-6.4.8-3.8.7-7.5.6-11.2-.3-3.2-.7-6-1.9-8.1-4.5-.4-.5-.7-1-1.1-1.7 2.1-.6 2.6 1.3 3.9 1.8.6.3 1.2.7 1.8.8 2.2.1 4.5 0 6.7 0l7 .3h.3c1.5-.7 2.9-1.4 4.6-1.5.9-.1 1.6-1.4 2.6-.2.1.1.4.1.5 0 1.1-1.3 2.4-2.3 4.1-2.8.1 0 .2-.2.2-.2.8-2.4 1.9-4.7 2.4-7.1s.6-4.9.7-7.3c.1-1.6-1.5-2-2.5-2.6-3.6-2.1-6.8-4.7-9.3-8.1-1.4-1.9-3-3.7-4.3-5.7-.8-1.1-1.3-2.5-1.9-3.7-.7-1.6-1.6-3.2-2-4.9-.8-2.9-1.3-5.9-1.8-8.9 0-.2.2-.5.5-.9.2.5.5.8.5 1.2.2 2.1 1.3 3.8 2.2 5.7 1 2 2.4 3.7 3.3 5.7.1.3.2.7.1.9-.4.9.1 1.4.8 1.7l.1.1c1.3 2.2 3.5 3.6 4.8 5.7.4.6 1.2 1 2 1.4.4.2 1.2.1 1.2.3.7 2 2.7 2.3 4.3 3.2 1.1.6 1.9.4 2.1-.8.2-.9.1-1.8.1-2.7 0-5.4-.9-10.7-3.3-15.5-2.8-5.8-7.2-9.9-13.2-12.5-4.7-2.1-9.5-3-14.6-2.6-3.7.3-7.2 1.6-10.4 3.6a130.28 130.28 0 0 0-8.7 5.7c-4 2.8-7.8 5.9-11.8 8.8-3.6 2.6-7.3 4.9-11.6 6.4-4.8 1.8-9.6 1.6-14.1.6-4.1-.9-7.9-3.3-10.2-7.3-1.4-2.4-2.7-4.8-3.6-7.3-1.5-4.3-1-8.9.2-13.1.7-2.3 2.3-4.5 3.8-6.4 1.6-2 3.5-3.9 5.5-5.4 2.4-1.7 5-3.3 7.8-4.4 4.2-1.6 8.6-2.6 13-3.9.5-.2 1.2-.4 1.4-.8 1.5-2.5 3.8-1.9 5.9-1.5l10.7 2.4c2.5.6 5 1.5 7.5 2 3.7.7 7.4 1.2 11.2 1.7 1.4.2 2.9.3 4.3.5-.4 2.5-3.1 2.5-4.5 3.8-1.5 1.4-3.3 1.3-5.2 1.5-2 .2-3.9 1.1-5.9 1.7-.5.2-1.1.2-1.6.2-2.3.4-4.6.8-6.9 1-1.4.2-2.9 0-4.4 0-.5 0-1.1-.3-1.6-.3-3.3-.1-5.9-1.5-7.7-4.3-2-3.1-6.1-4.1-9.5-2.8-4.5 1.7-8.6 3.9-12.4 6.8-3.1 2.4-5.5 5.4-7 9-.4.8-.5 1.9-.4 2.8.2 3.3.1 6.6 1.1 9.9a13.79 13.79 0 0 0 3 5.6c2.1 2.5 4.9 4.2 8.3 4.3h3.5c5.8 0 10.8-2.2 15.3-5.5 4.1-3 8-6.4 12.2-9.4 3.1-2.2 6.5-4.3 9.9-6 3.3-1.6 6.8-3.2 10.4-3.8 3.9-.7 8-1.4 12.1-.3 2 .5 4.2.5 6.1 1.2s3.7 1.7 5.4 2.9c3.3 2.1 6.3 4.7 8.3 8.1 2 3.3 3.6 6.8 4.5 10.6.7 2.8 1.6 5.6 2.1 8.5.4 2.7.5 5.5.6 8.3.1 2.6.2 2.9 2.7 3.7.2 0 .4 0 .5.1 1.1 1.6 2.7 2.2 4.6 2 .2 0 .6.4.7.6.5 1.4 1.6 1.6 2.9 1.7.5 0 1.3.1 1.5.5 1 1.5 2.5 1.9 4 2.4 1.7.5 1.6 2.5 2.6 3.6.3.3.4.9.8 1 .6.3 1.3.4 2 .5.2-.7.7-1.6.5-2.2-.8-2.7-1.9-5.3-2.8-7.9-.7-1.9-1.5-3.7-2.1-5.6-1-3.6-1.7-7.2-2.7-10.7-.7-2.6-1.6-5.1-2.3-7.7-.6-2-.9-4.1-1.5-6.1-.8-2.6-1.9-5.2-2.9-7.7-1.9-5-5.2-9-9-12.6-1.3-1.2-2.8-2.3-4.3-3.4 0-.2 0-.4.1-.5 2.1.2 4.2.3 6.3.6.3 0 .5.5.7.9.2.3.2.8.5.9 2.4.8 3.5 3 5.2 4.6.5.5 1 1.2 1.4 1.7.4.4.8.8 1.2 1.3.2.2.4.3.5.6 1 1.9 2.1 3.8 3 5.8.4.9.1 2 .5 2.9.7 1.9 1.7 3.7 2.3 5.6.7 2.3 1.1 4.8 1.7 7.1.2.9.5 1.7.8 2.6a1.38 1.38 0 0 0 .3.4c.5 2.3 1 4.5 1.6 6.8.2.7.6 1.3.8 2 .5 1.7 1.4 3.3 1.4 5 .1 2.7.9 5 2.1 7.3.6 1.2 1 2.6 1.7 3.7.4.6 1.3.9 2 1.4.3-.7.9-1.4.9-2.1l-.5-17.9c.1-5.5.5-11.1 1-16.6.4-4.6 1.6-9.1 1.9-13.7.2-4.4.7-8.8-.6-13.2-1.1-2.3-1.8-4.7-2.6-7.1zm-50.1 143.1c.8 4 1.3 8.3 2.6 12.4.8 2.6 2.6 5 5 6.7 2.5 1.8 5.4 2.4 8.4 2.7 3.3.3 6.6-.1 9.3-1.9 3.1-2 4.7-5.3 5.1-9 .3-3.2.3-6.5 0-9.7-.3-2.8-.9-5.6-1.7-8.3-.7-2.4-2-4.6-2.9-7-1.1-2.8-1.9-5.8-2.9-8.6-1.2-3.4-2.3-6.8-2.2-10.5 0-.5-.2-1-.2-1.5-.2-3.6-.4-7.2 1.3-10.4.8-1.6 1.8-3.4 3.2-4.6 3.1-2.8 6.8-4.8 10.7-6.2.6-.2 1-1 1.5-1.5-.7-.5-1.4-1.3-2.2-1.4-1.5-.2-3 .1-4.5-.1-4-.6-7.9-.1-11.8.5-1.2.2-2.5.7-2.9 2.4-.5 2.2-1.5 4.2-2.2 6.3l-2.4 6.3c-.4 1.2-.9 2.4-1.3 3.5-1.1 2.8-2.4 5.5-3.3 8.4-1.6 5.3-3.1 10.6-4.2 16-1 4.9-1.6 10-2.4 15.5zm124.7-3.1c-.2-2.1-.2-4.1-.5-6.2-.5-3.4-1.2-6.7-1.9-10.1-.5-2.1-1.2-4.1-1.7-6.2-.6-2.1-1-4.3-1.7-6.4l-4.4-12-2.6-6.9c-.5-1.3-.8-2.6-1.2-3.9-.9-3-2.4-4.1-5.6-4.2-2.1-.1-4.1-.4-6.1-.7-3.7-.6-7.2.1-10.6 1.5-.5.2-.8.9-1.3 1.3.5.3 1 .8 1.6 1 2.3.8 4.7 1.4 7 2.4 2.9 1.3 5.3 3.4 6.7 6.3 1.5 3 2.1 6.4 2.2 9.8.1 3.2-.3 6.5-.6 9.7-.3 2.7-.6 5.4-1.5 7.9-1.7 4.5-3.9 8.7-5.8 13.1-.6 1.4-1.3 2.8-1.6 4.3-.5 2.1-.7 4.2-1.2 6.3-.8 4 0 7.7 2.5 10.9 1.7 2.2 3.7 4.3 6.5 5.1 7.2 2.1 16.1-2.3 19-9.2 1.8-4.4 3.1-8.9 2.8-13.8zM187.1 290a.76.76 0 0 1-.4.2c0 .2-.1.4-.1.6.3 1.6.6 3.1 1 4.7.5 2 .9 4 1.4 6 .1.3 9.1 34.5 10 38.4.1.4.4 1.1.9 1.2s.9-.5 1-.9c.7-2.1 1.4-4.2 1.9-6.3.6-2.7 4.4-18.4 5.1-20.7l2.1-7.5c.5-1.8 1.2-3.5 1.6-5.3.6-2.3 1-4.7 1.5-7.1.3-1.2.5-2.3.8-3.4-.1 0-.3-.1-.4-.1-.1.3-.2.7-.4.8-1.6 1-2.5 7.3-2.9 8.3-.7 2.1-6.7 24.9-7.4 27.2-.8 2.6-1.4 5.2-2.2 7.9-.1.3-.4 1.7-.6 2.4-.2-1.4-11.3-42.9-12.1-45.2-.1-.3-.5-.7-.8-1.2zm-28.7-109.7c-.3.8-.6 1.3-.8 1.9l-1.2 6c-.4 2-.1 2.4 1.9 2.4h10.9c1.2 0 2.5.1 3.7 0 .5 0 .9-.5 1.4-.7-.3-.4-.5-.8-.8-1l-6.4-3.9c-2.8-1.6-5.6-3.1-8.7-4.7zm67.3 9.8c.9.2 1.7.6 2.4.5 1.4-.1 2.8-.6 4.3-.6 3.1-.1 6.2 0 9.3.2 1.4.1 2.4-.6 2.1-2-.5-2.2-.9-4.5-1.4-6.7-.2-.7-.5-1.6-1-1.9-.3-.2-1.2.5-1.8.8-3.1 1.9-6.1 3.8-9.1 5.8-1.6 1.2-4.1 1.2-4.8 3.9zm-14.8 41.7c.2-.1.3-.1.5-.2-.8-1.9-1.4-3.8-2.4-5.5-.7-1.3-2-1.4-3.2-.5-.9.7-1.3 2.7-.5 3.3 1.9 1.3 2.3 3.1 2.5 5.1.1 1 .6 1.2 1.5.9 1.5-.6 1.7-1.7 1.6-3.1zm-16.5-4.7c-.5-.5-1.1-1.5-2-1.9-.4-.2-1.6.3-2 .8-1.8 2.3-1.7 5.1-1.3 7.8.1.4.7.9 1.1 1.1.3.1 1.1-.1 1.1-.3.4-2.4 1.5-4.5 3-6.4.2-.2.1-.4.1-1.1z" fill-rule="evenodd"/></g></svg>