<?xml version="1.0" encoding="utf-8"?>
<!-- Generator: Adobe Illustrator 23.0.0, SVG Export Plug-In . SVG Version: 6.00 Build 0)  -->
<svg version="1.1" id="Layer_2" xmlns="http://www.w3.org/2000/svg" xmlns:xlink="http://www.w3.org/1999/xlink" x="0px" y="0px"
	 viewBox="0 0 493.2 405.7" style="enable-background:new 0 0 493.2 405.7;" xml:space="preserve">
<g id="layer101">
	<path d="M50.2,411.4c-10.4-2.9-18.9-8.9-27.4-19.4c-8.3-10.2-14.3-22.5-18.4-37.9c-5.5-20.5-5.8-41-1.1-63.1
		c3.2-15,11.6-27.8,21.3-32.4c2.3-1.1,4.6-1.5,9.6-1.5c7.5,0,10.9,1.3,16.3,6.3c15.9,14.6,19.6,49.5,6.6,61.2c-2.2,1.9-8,4.6-9,4.1
		c-0.4-0.2,0.9-1.6,2.7-3.2c6.1-5.3,8.2-10,8.3-18.4c0-4.1-0.3-5.8-1.5-9.2c-3-8.3-9.8-15.3-17.4-17.6c-12.4-4-20.7,5.1-24,26.3
		c-5.3,33.7,11.4,69.6,37,79.7c5.1,2,15,2.8,19.6,1.6c4.1-1.1,9.5-4.3,19.1-11.2c3.8-2.7,8-5.6,9.4-6.3c6-3,15.1-2.9,20.7,0.4
		c1.5,0.9,4.8,3.8,7.2,6.4c9.5,10.5,13,11.1,6.3,1.2c-5.9-8.8-15.3-14.7-23.8-14.7c-6.5,0-13.2,3.3-24.1,11.6
		c-3.9,2.9-8.3,6.1-9.7,6.9c-8.6,4.8-16.6,3.8-25.7-3.2c-3.7-2.8-9.6-9.6-9.1-10.4c0.1-0.2,1.7,0.4,3.5,1.3c2.3,1.2,4.6,1.7,7.8,1.7
		c4.1,0.1,5-0.2,8.4-2.4c2.2-1.4,7.5-6.1,11.9-10.4c9.4-9.1,16.9-15,23.3-18.3c6.5-3.4,10.6-4.3,18-3.9c5.6,0.3,7.1,0.7,11.8,3.2
		c2.9,1.6,6.8,3.9,8.5,5.1c1.7,1.3,3.2,2.4,3.5,2.4c0.3,0,0.6-1.5,0.8-3.2c0.6-5.5,3.8-14.7,11.2-32.1c7.2-16.8,7.6-18.2,6.8-19.5
		c-0.8-1.2-8.1-3.5-21.3-6.8c-4.3-1.1-10.2-2.9-13.1-4c-15.4-5.7-27.6-18.9-33.1-35.8c-1.3-4-2.8-11.2-2.3-11.2c0.1,0,1.1,2,2.3,4.5
		c8.9,18.2,18.7,26.8,34.8,30.4c1.9,0.4,10.2,1.1,18.2,1.6c16,0.8,20.9,1.9,24.7,5.7l1.8,1.9l3.1-4.7l3.1-4.8l-3.7-5.8
		c-10.7-16.9-19.9-38.3-23.2-54.3c-1.1-5.4-2.5-17.9-2.5-22.8c0-10.8,3-28.9,7.1-42.2c1.1-3.6,2-7.1,2-7.6c0-3.3-8.4-1-17.3,4.8
		c-6.1,4-19.4,15.3-25.6,21.9c-5.8,6.1-15.9,22.1-20.5,32.2c-2.1,4.6-3.9,8.1-4,8c-0.3-0.4,1.6-11.2,3-17.1
		c3.9-17.2,13.2-38.3,23.5-52.9c6.5-9.2,15.5-18.7,23.4-24.6c10.4-7.8,18.2-11,28.7-11.9l6.3-0.5l2.3-5.5
		c7.9-18.5,10.3-34.4,7.6-50.6c-2.3-14-10.7-25.7-20.1-28.3c-3.9-1.1-9.9-0.4-13.7,1.6c-10.4,5.4-17.4,16.8-21.2,34.1l-1.4,6.7
		l0.2-6.2c1.3-36.1,23.6-57.5,46.8-44.8c7.1,3.8,14.2,12.6,18,22.2c4,10.2,6,25.1,5.1,38.6c-0.8,11.5-1.7,17.3-4.7,29.5l-1.3,5.3
		l2.1,0.8c15.9,5.9,28.6,19.3,38.8,41c10,21.3,15.1,50.7,13.4,77.1s-7.2,47.2-18.8,71.8l-1.5,3.3l2.1,4.5
		c11.7,25.4,18.7,63.1,18.1,97.6l-0.2,10.1l-2.6,0.2c-2.6,0.2-2.7,0.2-2.7-1.8c0-6.4-5.3-14-8.7-12.4c-3.1,1.5-6.5,7.8-6.5,12.4
		c0,1.9-0.1,1.9-3.5,1.9h-3.5l-0.3-20.3c-0.2-15.8-0.5-22.3-1.3-28.6c-1.8-14.9-4.4-25.8-7.1-29.9l-1.4-2l-1.4,2.6
		c-1.8,3.3-1.8,4.3,0.1,9.9c4.2,12.4,5.8,26.4,6.4,55l0.3,13.3h-5.5c-3,0-7.1-0.2-8.9-0.5l-3.5-0.5v-13c0-21.3-1.1-32.7-3.4-33.9
		c-0.7-0.4-1.9,4.6-3,12.2c-1.2,8.2-0.8,15.5,1.6,25.3c1,4.2,2,8.3,2.1,9.1c0.3,1.2-1.5,1.3-32.4,1.3l-32.7-0.1l-1.7-3.8
		c-2.1-4.7-5.2-9.2-8.4-12c-3.1-2.8-7.5-3.4-12-1.6c-3.2,1.2-10,6.1-14,10C79.7,410,63.7,415.1,50.2,411.4z M68.6,379.4
		c1-1.2,1.1-1.6,0.5-2.7c-0.9-1.7-3.2-1.6-4.7,0.2c-1,1.2-1.1,1.6-0.5,2.7C64.8,381.3,67.2,381.2,68.6,379.4z M81.5,373.5
		c3.1-3.2,2.2-7.1-1.5-6.4c-1.5,0.3-2.5,1.2-3.5,2.9c-1.4,2.4-1.4,2.5-0.5,4C77,375.8,79.4,375.6,81.5,373.5z M233.9,362.7
		c1.3-2.2,1.7-3.4,1.7-5.9c0-6.7-2.8-10.6-7.1-9.9c-4.3,0.7-6.7,7.4-4.8,13.3C225.7,366.8,230.7,368,233.9,362.7z M135.7,364.6
		c0.7-0.4,1.6-1.6,2.1-2.6c0.7-1.7,0.8-2.2,0.1-4.7c-1.4-5-6.3-6.8-8.7-3.2c-0.7,1-1.3,2.3-1.3,2.9c0,2.1,2.1,6.2,3.7,7.2
		C133.6,365.5,134.1,365.6,135.7,364.6z M98,362.2c2.4-1.9,3.1-4.7,1.8-7c-1.2-2-3.6-1.9-5.8,0.1c-2.1,1.9-2.5,2.8-2.5,5.1
		C91.4,363.9,94.7,364.8,98,362.2z M117.1,357.1c0.7-0.3,1.6-1.5,2-2.7c0.7-2,0.7-2.3-0.4-4.2c-1.5-2.6-4.6-3.4-6.9-1.6
		c-2,1.6-2.6,4.6-1.3,6.7c1,1.6,3.6,3.1,4.7,2.6C115.5,357.7,116.4,357.3,117.1,357.1z M220.6,324.2c4.4-3.3,5.1-11.5,1.6-16.9
		c-1-1.6-1.9-2.6-2-2.4c-0.1,0.2-2,3.6-4.2,7.6c-4.5,8.1-4.5,8.6-0.8,11.6C218,326.2,218,326.2,220.6,324.2z M184.6,258.8
		c1.9-2.9,2.2-5.4,1-9c-0.9-2.6-3.1-4.7-5-4.7c-1.5,0-4.3,3.4-4.9,6.1c-0.7,2.6,0.3,6.7,1.9,8.7
		C179.7,262.4,182.5,261.9,184.6,258.8z M196.4,234.1c16-44.4,12.2-69-14.4-92.5c-2.2-2-4.4-3.4-4.8-3.2c-1.9,1.1-7.3,16.1-8.5,23.7
		c-3.5,21.4,2.5,47.2,15.6,67.3c2.9,4.6,8.6,11.8,9.2,11.8C193.6,241.2,195,238,196.4,234.1z M170.5,234.5
		c2.5-4.3,0.6-11.2-3.1-11.2c-4.7,0-5.5,10.5-1.1,13.2C167.7,237.5,169.1,236.8,170.5,234.5z M161.9,209.9c2.9-2.4,3.5-9,1-12.8
		c-1.2-1.9-2-2.4-3.7-2.4c-5,0.1-7.3,8.2-3.7,13.7C157.5,211.3,159.5,211.7,161.9,209.9z M159.4,177.5c0.7-1.9,0.7-2.4,0-4.3
		c-1.6-4.3-5.7-2.8-5.7,1.9c0,3.5,1,5,3.1,4.7C158.2,179.6,158.8,179,159.4,177.5z M161,160c0.5-0.7,0.9-2,0.9-3
		c0-1.8-1.7-4.2-2.9-4.2c-0.9,0-2.7,2.9-2.7,4.3c0,1.6,1.8,4.3,2.9,4.3C159.7,161.3,160.5,160.8,161,160z M164.1,144.5
		c1.7-2.4,0.9-6.4-1.4-6.4c-2.2,0-3.1,4.1-1.5,6.5C162.3,146.1,162.9,146.1,164.1,144.5z M185.8,92.7c1.4-2.7-0.6-7.2-2.4-5.4
		c-1.8,1.7-1.2,6.5,0.9,6.5C184.8,93.8,185.5,93.3,185.8,92.7z M188.4,81.4c1.2-1,1.2-2.6,0.2-4.2c-0.6-0.9-1-1-1.8-0.5
		c-1.1,0.9-1.3,3.1-0.4,4.5C187.2,82.4,187.2,82.4,188.4,81.4z M192.1,69.2c0.5-1.9-1.1-4.3-2.3-3.3c-1.2,0.9-1.3,3.5-0.1,4.4
		C190.8,71.3,191.7,70.9,192.1,69.2z M191.8,58.5c0.1-0.9-0.2-1.9-0.6-2.1c-1-0.5-2,1.4-1.6,3C190,61.1,191.6,60.4,191.8,58.5z
		 M191.3,48.6c0.2-1.6-1.3-2.6-2-1.5c-0.8,1.2-0.1,3.4,1,3.1C190.7,50.1,191.2,49.4,191.3,48.6z M189.4,38.8c0-0.9-0.3-1.6-0.7-1.6
		c-0.9,0-1.5,1.2-1.1,2.3C188.1,40.9,189.4,40.4,189.4,38.8z"/>
	<path d="M303.5,405c-4.6-0.2-4.8-0.3-4.2-1.6c2.3-4.3,6.8-20,8.1-28.3c1.4-8.3,0.4-14.3-2.2-14.3c-1.5,0-9.6,9.3-12.6,14.4
		c-4,6.9-6.5,15.5-7.1,25.2l-0.3,4.6h-2h-2l0.2-7.5c0.1-4.2,0.1-6.5-0.1-5.1c-0.2,1.4-0.4,4.7-0.4,7.6l0,5.1h-6h-6.1l0.3-6.3
		c1.6-29.6,12.7-52.4,29.7-61.5c4.2-2.2,4.7-3.1,3.8-7.6c-0.9-5.1-4.8-17.5-11.7-37.3c-20.7-59.8-25.6-76.3-32.2-108.6
		c-4.6-22.8-6.9-52.2-5.8-73.5c1.8-35.5,7.9-59.6,20.3-80c8.6-14.2,18.9-23.3,32.1-28.3c4.7-1.8,19.5-2.4,25-1.1
		c20.3,4.8,37.2,21.4,49.9,49.1c7.5,16.4,11.7,31.1,14.7,51.4c0.4,3,0.6,9.9,0.6,20.8c0,18.7-0.8,25.7-4.2,37.6
		c-5.3,18.5-15.4,30.8-28.3,34.4c-4.4,1.1-5.7,1.2-9.3,0.4c-13.4-3.1-20.4-16.1-20.4-37.5c0-4.5,0.3-10.1,0.8-13.1
		c1.1-7.3,3.3-15.3,4.6-16.3c1.3-1.2,1.3-1-0.5,5.1c-1.3,4.2-1.6,6.2-1.8,12.6c-0.6,21.1,4.5,33.3,14.5,34.4
		c3.8,0.4,9.6-1.6,13.1-4.7c4.8-4.2,10.1-14.9,12.9-26.5c5.5-22.3,0.8-51.9-11.8-74.2c-10.5-18.8-26.7-29.4-39.3-26
		c-8.5,2.4-15.5,8.2-21.8,18.8c-4.1,6.7-6.4,12.1-9.4,21.8c-1.6,5.1-2.1,8-2.7,15c-0.9,10.9-0.9,15.5,0,27
		c1.3,16.4,5.4,35.8,11.5,55.3c4.3,13.7,7.6,22.9,15.8,43.8c13.5,34.6,18.2,47.1,20.7,55.4l1.2,3.9l1.7-4.6
		c8.1-22.5,18.2-38.1,30.9-48.5c13.2-10.7,18.5-12.1,44.8-11.3c18.6,0.7,26.5,0,35.1-2.8c13.9-4.6,22.6-16.1,26.8-35.5
		c1.3-6,2.6-16.5,2.2-17.2c-0.1-0.2-0.4,1.3-0.5,3.3c-0.2,2-0.9,6.3-1.5,9.4c-5.2,25.3-16.1,37.5-36.5,40.8
		c-4.4,0.7-11.1,0.9-23.1,0.6c-15.3-0.5-25.8,0-29.8,1.5c-4.8,1.7,6.5-5.2,15.9-9.7c8.4-4,12.3-5.1,29-7.8
		c16-2.7,23.2-6.4,28.8-14.6c6.1-9,9.5-23.2,10.2-42.5c0.3-10.8-0.6-18.8-3.4-27.6c-3.6-11.4-7.6-18.9-13.6-25.2
		c-14.3-14.8-32.4-11.1-44.7,9.1c-6.2,10.1-8.5,19.7-8,32.5c0.2,5,0.6,7.6,2,12.2c2.1,7.3,4.6,11.5,8.8,14.8c3,2.3,3.7,2.4,8.4,2.4
		c4.5,0.1,5.7-0.2,8.3-2.1c3.9-2.7,7.1-6.7,8.8-11.1c2-5.1,2.1-3.5,0.2,2c-5,14.5-14,21-23.4,16.9c-18.1-7.7-25-39.3-14.5-66.8
		c5.6-14.8,15.7-27,25.6-31c17.4-6.9,35.5,1.4,48.2,22.3c10.5,17.3,14.7,38,13.4,65.4c-1.6,32.6-11.1,54.9-29,69
		c-2.4,1.9-6.1,4.3-8,5.4c-2,1.1-3.6,2.1-3.6,2.4c0,0.2,1.2,0.9,2.7,1.4c6.2,2,15.5,10.3,21.6,19.1c3.5,5,7.9,14.1,10.6,22
		c7.8,23,9.9,53.1,5.3,76.6c-1.4,6.9-8,29.2-9.7,32.3c-1,1.9-1.2,2-1,0.8c1.1-7.4,1.9-20.5,1.9-33.5c0-12.6-0.1-15.8-1-22
		c-2.5-16.1-6.2-26.9-13.3-38.5l-4.5-7.3h-5.9l-5.9,0.1l-1.4-2.7c-0.8-1.5-1.4-3.3-1.4-4.1c0-2-1-3.4-2.4-3.4c-0.8,0-2,1.3-3.6,4.1
		c-2.1,3.6-2.6,4.1-4.4,4.1c-1.3,0-2.6-0.7-3.9-2c-1-1.1-2.2-2-2.7-2c-1.6,0-3.8,2.6-4.3,5.2c-1.4,6.1-2.1,7.9-3.6,9.6
		c-1.4,1.5-2.1,1.6-5.5,1.2c-4.8-0.7-6.2,0.3-6.7,4.3c-1.1,11.4-3.4,15.7-9,17.1c-1.7,0.5-3.5,1.2-3.9,1.8
		c-0.5,0.7-0.7,3.3-0.7,10.1c0,11.8-0.5,13.4-6.1,17.7c-4.7,3.8-5.5,5.8-4.1,10.1c1.5,4.7,11.8,14.9,21,21.1
		c3.7,2.4,10,4.6,13.6,4.6c5.4,0,11.1-3.3,14.1-8.2c2.9-4.7,3.8-8.5,3.8-15.8c0-5.6-0.2-7.3-1.4-11.2c-3.5-11.8-9.9-17.8-19.1-17.8
		c-2.3,0-4.1-0.3-4.1-0.7c0-0.9,5.5-2.5,8.2-2.5c3.1,0,8.3,2.1,11.1,4.5c4.1,3.4,7.5,9.3,9.4,16.1c1.5,5.2,1.6,6.6,1.6,12.8
		c0,9.1-1.3,14.8-4.7,20.9c-9.7,17.5-27.9,17.5-50-0.1c-3.6-2.9-6.9-5.2-7.2-5.2c-0.9,0-3.1,4.4-4.3,8.9c-0.9,3.2-3.4,14-3.4,14.5
		c0,0.2-2.6,0.2-5.7,0.2c-3.1,0-5.7-0.2-5.7-0.5s1.1-4,2.5-8.3c1.3-4.3,6.4-21,11.1-36.9c12.6-42,16.1-51.3,25.2-65.7
		c7.3-11.7,13.6-18.2,21.5-22.6c3.1-1.7,4.4-1.9,12.2-1.9l8.7,0.1l5.3,3c10.3,5.9,15.4,11.8,21.6,24.7c3.6,7.5,3.8,7.8,3,4.9
		c-1.2-4.6-4-11.4-6.4-15.4c-4.8-8.3-10.2-13.4-19.8-18.7c-4.7-2.5-5.2-2.7-12.8-2.7c-6.8,0-8.5,0.2-11.7,1.8
		c-16.7,8-31.1,31.3-44.8,72.5c-4,12.1-7.5,24.2-13.6,47c-2.6,9.6-4.9,17.8-5,18.1C362,404.7,312.3,405.5,303.5,405z M277.8,397
		c1.3-1.5,1.5-6,0.3-8c-1.1-2-3.5-1.6-4.4,0.5c-1.1,2.7-0.9,5.2,0.5,7.1C275.8,398.7,276.3,398.8,277.8,397z M280.9,377.9
		c0.8-2.7-0.2-5.8-1.8-5.5c-0.7,0.2-1.6,1-2,1.9c-0.6,1.5-0.5,2,0.1,3.5C278.2,380.1,280.2,380.1,280.9,377.9z M288.1,371.2l1.4-2.7
		l-1.6,2.4c-0.9,1.4-1.6,2.5-1.6,2.7C286.3,374.3,286.7,373.7,288.1,371.2z M286.3,364.5c0.4-0.9,0.5-1.6,0-2.9
		c-1-3.3-3.9-1.2-3.2,2.4C283.4,366,285.4,366.3,286.3,364.5z M293.8,353.8c0.8-1.7-0.1-5.3-1.4-5.3c-1.1,0-2.1,1.6-2.1,3.3
		C290.3,354.8,292.6,356.1,293.8,353.8z M325,348.3c0-18.5-3.8-35.7-18.9-85.7c-11.9-39.2-14.8-49.4-18.4-64.1
		c-10.9-44.6-13.1-78.4-7-107.9c3-15,5.4-21.4,11.5-31c2-3.3,2.6-4.5,1.5-3.3c-3.1,3.4-8,11.7-10.4,17.6
		c-10.8,26.6-10.4,72.8,1.1,122.7c3.5,15.3,6.7,26.8,17.8,64.1c9.2,31.2,11.1,38,14.4,51.4c3.9,16.1,6.4,29.5,7.2,38.9
		C324.3,356.8,325,355.1,325,348.3z M302.7,345.3c0-2.4-1.7-3.6-2.7-2c-1,1.6-1,1.9,0,3.7C301,348.8,302.7,347.7,302.7,345.3z
		 M335.7,308c1.5-4.2,2.7-7.8,2.7-8s-0.8-1.1-1.8-1.7c-4.5-3.1-9.4,4.8-7.6,12.3c0.8,3.6,3.1,7.3,3.6,6
		C332.8,316,334.2,312,335.7,308z M326,279.5c1.7-1.5,3-5.1,3-8.3c0-3.1-1.6-7.3-3.4-8.8c-1.9-1.6-2.6-1.6-4.7,0.1
		c-2.1,1.7-3.3,5-3.3,9.1c0,2.6,0.3,3.9,1.7,6.2C321.1,281.2,323.4,281.7,326,279.5z M315.1,244c2.1-3.8,2.3-8.6,0.5-12.7
		c-2.6-6-8.4-4.1-9.9,3.3c-0.4,2.2-0.4,3.4,0.3,6.1c1,4.4,2.3,5.8,5.3,5.8C313.3,246.5,313.9,246.1,315.1,244z M442.7,218.3
		c2.9-2.4,1-6.1-3.2-6.1c-4.2,0-6.1,3.6-3.3,6C437.8,219.9,440.8,219.9,442.7,218.3z M426.5,216.3c1.6-1,1.6-2,0-3.1
		c-2.5-2-9.2-0.7-9.2,1.6C417.3,216.8,423.9,217.9,426.5,216.3z M302.6,214.2c1.4-1.1,3-5.6,3-8.2s-1.6-7-3-8.2
		c-3.2-2.8-6.9-0.4-8.4,5.3c-0.8,3.3-0.3,6.2,1.7,9.6C297.8,215.8,300.2,216.3,302.6,214.2z M455.8,213.3c2.6-2,2.9-5.2,0.4-5.2
		c-2.6,0-6.2,3.8-5.4,5.7C451.3,215,453.9,214.8,455.8,213.3z M468.1,201.8c0.5-0.7,0.9-2.2,0.9-3.3c0-1.6-0.2-1.9-1.7-1.9
		c-1.9,0-4.3,3.1-4.3,5.6C463,205.2,466,204.8,468.1,201.8z M474.7,189.2c1.6-3.2,1.5-6.7-0.1-7.1c-0.8-0.2-1.4,0.5-2.1,2.4
		c-1.1,3.1-1.2,4.8-0.4,6.2C472.9,192.3,473.2,192,474.7,189.2z M294.8,182c2.3-3.8,1.7-9.1-1.2-11.1c-3-2.1-6,1.3-5.9,6.8
		C287.7,183.9,292,186.5,294.8,182z M479.9,170.5c0.8-3.2,0.2-5.9-1.1-5.6c-0.8,0.2-1.2,1.1-1.5,3.3
		C476.4,173.6,478.6,175.5,479.9,170.5z M290,157.1c1.9-3.1,1.5-7-1.1-9.3c-3.5-3-6.8,4.7-4,9.5C286.4,159.8,288.5,159.7,290,157.1z
		 M480.6,151.8c0-4.4-1.3-5.6-2.3-2.1c-0.8,2.7,0.1,6.5,1.4,6C480.4,155.4,480.6,154.6,480.6,151.8z M286.6,132.7
		c2.6-3.8,1.3-10.4-2.1-10.4c-3.4,0-4.9,6.3-2.4,10.2C283.6,135.1,284.9,135.2,286.6,132.7z M285.9,106.8c0.6-0.7,0.9-1.7,0.9-3.8
		c0-2.2-0.2-3-1.3-3.8c-1.5-1.2-2.7-0.2-3.4,2.9c-0.4,1.7-0.3,2.5,0.4,3.8C283.6,107.8,284.4,108.1,285.9,106.8z M291.3,86
		c0.7-1.6,0.3-5-0.8-5.6c-1.3-0.8-2.6,0.2-3,2.4c-0.4,2.4,0.5,4.4,2,4.4C290.1,87.2,290.9,86.7,291.3,86z M299.9,69
		c0.5-0.7,0.8-1.9,0.7-3.1c-0.2-2.5-2.3-3.2-3.2-1.1c-0.8,1.9-0.8,2.4,0.1,3.9C298.5,70.3,298.8,70.4,299.9,69z"/>
</g>
</svg>
