<svg xmlns="http://www.w3.org/2000/svg" viewBox="0 0 400 400"><circle cx="200" cy="200" r="191.5" fill="#a01830"/><path d="M200 9c25.8 0 50.8 5 74.3 15 22.7 9.6 43.2 23.4 60.7 40.9s31.3 38 40.9 60.7c10 23.5 15 48.6 15 74.3s-5 50.8-15 74.3c-9.6 22.7-23.4 43.2-40.9 60.7s-38 31.3-60.7 40.9c-23.5 10-48.6 15-74.3 15s-50.8-5-74.3-15c-22.7-9.6-43.2-23.4-60.7-40.9s-31.3-38-40.9-60.7C14 250.8 9 225.8 9 200s5-50.8 15-74.3C33.6 103 47.4 82.5 64.9 65s38-31.3 60.7-40.9C149.2 14 174.2 9 200 9m0-1C94 8 8 94 8 200s86 192 192 192 192-86 192-192S306 8 200 8h0z"/><g fill="#f1ce56"><path d="M207.8.2C147.8-2 96.1 19.1 54.7 62.7 18.3 101.1.1 147.4 0 200.4-.2 310.2 89.4 400.6 199.8 400c110.7.7 201.1-89.8 200.2-201.1C399.1 87.3 311 3.9 207.8.2zm-7.7 381c-99 0-182.2-80.6-180.4-184.7C21.4 103.1 98.5 16.1 209 20.2c88.8 3.2 174.5 78.3 171.9 185.9-2.3 94.2-80.2 175.1-180.8 175.1z"/><path d="M322 115.1c1.7-1.6 1.7-3.5 2-5.5-2 .3-2.2.4-2.4 2-.2 1.9-2.2 3.6-4 3.5-1 0-2.1-.2-3.1-.1-3.5.4-6.3-2.1-7-5.4-.1-.6-.8-1.2-1.4-1.4-1.3-.6-2.8-1-4.1-1.6-.6-.3-1.1-.7-1.6-1.1.6-.6 1-1.7 1.7-1.8 2.2-.6 3.3-1.7 4.2-3.8 1.6-3.9 1.7-4.2-1.1-7.2-.1.1-.3.3-.3.4-.8 4.1-2.7 5.9-6.7 6.3-.6.1-1.2.1-1.7.3l-5.7 2.4c-2.7 1.2-4.8-.8-6.9-1.8-2.4-1.1-4.9-1.5-7.3-2-4.2-.8-8.4.3-12.4 2.1-2.6 1.1-4.7 2.5-6.8 4.2-4 3-7.4 6.6-9.8 10.9-.6 1-1 2.1-1.5 3.1-1.2 2.6-2.6 5.1-2.4 8.1.1 1-.2 1.9-.3 2.9-.3 1.6-.7 3.2-.8 4.8-.1 2.5.5 4.9.8 7.3.5 3.9.9 7.8 1.8 11.6.6 2.1.9 4.3 1.7 6.4 1.2 3.2 2.6 6.4 3.9 9.6.6 1.5 1 3 1.7 4.9-5.4.1-11.4-1.3-14.3 4.7-3.5 7.1-3.5 10.9-.5 15.2.1-1 .1-1.6.2-2.3.2-1.1.2-2.3.7-3.2 1.4-2.5 4.8-3.7 7.7-2.9 2.1.6 3.2 2.5 2.1 3.9-.7.9-1.4 1.9-2 2.9-1.8 2.7-1.4 4.7 1.1 6.6.1-.4.2-.8.3-1.1.4-4 3.1-6.1 7.2-5.3.6.1 1.2.6 1.8.9-.4.7-.7 1.4-1.2 1.9-2.1 2.2-2.6 4.1-1.2 6.6.6-1.5 1.2-3.1 2.1-4.7.8-1.4 2.1-2.2 4-1.7 2 .5 4 .9 6 1.4.5.2 1.1.7 1.3 1.2.6 1.2 1.1 2.6 1.7 3.9.8 1.7 1.8 3.3 2.4 5 .2.6-.2 1.8-.8 2.3-.8.7-1.9 1.1-3 1.5-3.3 1.3-4.3 4.4-5.6 7.2-.2.4 0 1 .1 1.7 3.7-2.1 3.9-2.1 5.4-.9-2.3 2.9-5.1 4.7-8.9 4.9-2.9.1-5.9.8-8.6-1.3-1.4-1.1-2.4-4.1-1.7-5.7.4-.9.5-1.9.8-2.9l-.9-.3c-.7 1.5-1.4 2.9-1.9 4.5-.5 1.4-.7 2.9-.9 4.4-.1 1.3 0 2.7.1 4 .1.8.6 1.6.7 2.4.3 2.4 1.8 4.5 4.2 4.6 3.2.1 6.4.1 9.5-.5 4.5-.8 8.8.6 11.1 4.3 1.5 2.4 1.2 7.3-.9 9.4-2.9 3-6.9 4.4-10.8 5.1-5.6 1.1-11.2 1.2-16.5-2.2-3-1.9-4.6-4.2-5.3-7.4-.5-2.3-.9-4.6-1.7-6.8-.7-1.9-1.7-3.7-2.6-5.5-.5-1.1-1-2.2-1.6-3.2-.7-1.4-1.6-2.8-2.3-4.3-.7-1.7-1.1-3.5-1.8-5.1-.8-1.9-1.8-3.7-2.5-5.7-.9-2.5-1.6-5.2-2.3-7.8-1.2-4.5-2.3-9.1-3.3-13.6-.5-2.3-.7-4.6-1-6.3 1.3-1.7 2.8-3.2 3.5-4.9 1-2.8 1.1-5.7-.9-8.4-.9-1.3-1.5-2.9-1.7-4.5-.6-4 .1-4.5 3.8-3.2 3 1.1 6.7.4 8.5-1.9.5-.7 2.6-1.3 1.4-2.5-1.2.6-2.3 1.5-3.4 1.6-3.4.3-6.6-3.6-6.2-7.1s1.6-7 .1-10.6c-.2-.4-.1-1.1 0-1.5.1-.2.9-.4 1-.3.7.8 1.2 1.7 1.9 2.4.6.7 1.3 1.3 2 1.7 1.4.8 2.8 1.5 4.3 2.1.5.2 1.2.2 1.8.2-.3-.6-.4-1.1-.8-1.7-.6-.9-1.8-1.8-1.8-2.7-.2-3.5-.1-7-.1-10.6.6-.2 1.1-.4 1.6-.5 3.3-1.1 4.7-3.5 4.3-6.9-.3-2.8-2.1-4.6-3.7-6.7-.3-.4-.6-.9-.9-1.3.6-.1 1.2-.4 1.8-.4.8-.1 1.7-.1 2.5-.2v-.6c-.4-.3-1-.4-1.2-.8-1.5-3.1-3.3-6.2-3.3-9.8 0-1.2.4-1.5 1.6-1.7 1.6-.3 3.1-.9 4.7-1.4 0-.2 0-.4.1-.6-2.4 0-4.9-.6-5.7-2.7-.7-1.9-3.5-3-2.8-5.4 1.9.2 3.6.3 5.3.4l.3-.6c-.4-.6-.8-1.2-1.3-1.7-.6-.7-1.4-1.2-2-1.8-1.3-1.2-2.3-2.9-3.8-3.7-1.7-.8-1.8-1.7-1.4-3.2s.5-2.9-.3-3.8c-1.6 1.3-3.2 2.4-4.7 3.6l-.5-.5c.3-1.6.9-3.3.8-4.8s-1-3-1.5-4.5c-.2.1-.3.1-.5.2-.3 1.5-.2 3.2-.9 4.4s-2.1 1.9-3.2 2.8l-.9-.6c.3-1 .8-1.9 1-2.9.2-.6.3-1.3.1-1.9-.2-.9-.6-1.9-1.2-2.7-.5-.8-1.3-1.3-1.9-2-.1.7-.2 1.5-.4 2.2-.3 1.1-.3 2.4-1 3.1-1.9 1.8-4.4 1.9-6.9 1.7a229.09 229.09 0 0 0-11.7-.6c-1.5 0-2.7.7-3.6 2.1-.8 1.2-2.3 2.3-3.6 2.7-2.5.8-5.2 1-7.9 1.4-1.3.2-2.7 0-3.9.4-1.1.4-2.8.4-2.9 2.2 0 1.8-.1 3.6.2 5.4.4 2.2 1.1 4.4 1.6 6.6.1.5.2 1.1.4 1.8-.5.1-1.2.3-1.9.4-2.7.4-5.2-.4-7.7-1.3-1.1-.4-2.4-.4-2.6-1.9-.2-1.4-.4-2.8 1.1-3.8.3-.2.5-1 .3-1.1-.8-.6-1.7-1.5-2.6-1.6-3-.6-5.9.2-8 2.5-.9 1-1.6 2.5-1.7 3.8-.1 2.7 3.3 5.9 5.9 6.2.6.1 1.2.4 1.9.5 1.6.2 3.3.6 4.8.3 3.1-.5 6.1-1.6 9.2-2 3.3-.4 6.6-.4 10-.5 2.1 0 3.2 2.1 2.1 3.9-.2.4-1.1.7-1.4.5-1-.6-1.8-1.4-2.7-2.2 0 0-.1 0-.1.1-2.3 1-2.8 1.9-4.6-.6-.1-.1-1.1 0-1.3.3-.6 1.1-1 2.3-1.5 3.5l-2.6 5.8c4.5.5 8.8-.8 12.8.5-1 6-5.1 7.5-9.4 6.6-1.6-.3-3-1.1-4.6-1.4-4.5-.9-8.3.7-11.5 3.8-1.2 1.2-2 1-2.8-.2-1.9-2.9-4.2-5.6-6.7-8.1-1-1-2.2-2-3.1-3.2-1.3-1.8-2.4-3.7-3.6-5.5-.8-1.1-1.4-2.9-2.4-3.2-1.7-.5-1.9-1.9-2.6-2.9-1.2-1.5-2.2-3.1-3.3-4.7-.4-.7-1.2-1.4-1.2-2.1 0-3.4.1-6.8.3-10.2s.6-6.8.8-10.3c0-.5-.1-1-.3-1.5l-2.6-8.3c-.1-.4-.2-.9-.1-1.3.4-1.4.2-2.6-.9-3.5-.8-.7-1.7-1.2-2.5-1.8-1.6 1.6-.1 2.2.7 2.9-1 1-5.3 1.3-6.2.4-.2-.2-.3-.7-.4-1.1-.6-2.9-2.7-3.7-5.5-2.1.6.6 1.6 1.1 1.9 1.8.3.9.4 2.1 0 2.9s-1.5 1.3-2 2.1c-1 1.5-2.1.9-3.2.4-1.2-.6-2.3-1.6-3.2-2.2l-3.9 2 4.1 2.5c0 1.6.1 3.3 0 4.9-.3 2.5.7 4.6 2.9 5.8 3.2 1.8 3.6 2.9 2.5 6.5-.3.9-.2 2-.3 3.2h-3.8c.1-1 .3-1.9.3-2.8 0-.4-.1-.9-.3-1.2-.1-.2-.7 0-1 .1-2.4.9-3.6 4.3-2.4 6.6.5 1 .7 2.3 1 3.5.2 1.1-.1 2.6.5 3.2 1.5 1.3 2.2 3.3 4.3 4.1.9.3 2.6 1.4 1.6 3.2-1.9-.2-3.8-.5-5.7-.6-1.2 0-3.1 2.7-3 3.9.3 0 .5 0 .8-.1 1.2-.3 2.1-1.4 3.5-.5 2.1 1.4 4.4 2.4 6.4 3.9.7.5 1.4 1.6.1 2.6-.5.4-.9 1-1.1 1.5-1.1 3.2 0 5.9 3.2 7.3.9.4 2.1.3 2-1-.3-3 2-2.6 3.6-2.9 1.9-.3 2.5.6 2.4 2.5-.1 1.2 0 2.7.6 3.7 1 1.6 1.1 3.1.3 4.7-.3.6-.6 1.5-.4 2 .8 1.5 1.9 2.8 3 4.5.4-1.3.7-2 .9-2.7 2.7-.4 2.7-.4 2.7 2.2 0 .7.1 1.5 0 2.2-.1.5-.3 1-.6 1.3-1.5 1.3-2.9 2.7-4.5 3.7-1 .6-2.5.6-3.6.3-.6-.2-1-1.5-1.4-2.3-.3-.7-.2-1.5-.3-2.2-.1 0-.3.1-.4.1-.5.9-.9 1.8-1.5 2.7.1.3.5.7.6 1.2.8 2.5 2.2 3.8 4.9 3.5 2.2-.2 4.7-.5 6.4-1.8 1.6-1.2 2.8-.9 4.5-.8 0 .9-.1 1.6-.1 2.4-1 .4-2 .7-2.9 1-1.5.5-1.6 1.2-.4 2.3 2.5 2.5 5.6 2.9 8.9 2.6.5 0 1.1.3 1.7.5-.4.4-.9.9-1.4 1-2.3.5-4.7.9-7 1.4-.1 1.1-.1 1.9-.2 2.8h4.5c-.1 1 0 1.9-.4 2.4-2.5 3.3-6.6 3.4-9.9.5-.2-.2-.7-.2-1.1-.3 0 .4-.2.9-.1 1 .7.6 1.5 1.5 2.4 1.7 2 .3 1.8 1.4 1.4 2.8-2.4.3-4.9-.4-6.8 1.7-.3.3-1.1.2-1.7.3-.8.1-1.5.1-2.3.2-.1.8-.2 1.4-.3 2.1-1 .1-1.9.4-2.8.4-2.5-.1-5.1-.1-7.6-.5-2.1-.4-4-1.7-6-2-3-.5-5.9-1.1-8.4-3-.9-.7-1.9-1.5-2.9-1.6-2.1-.4-4.3-.3-6.4-.4-1.2-.1-2.8.5-3.6-.1-2.5-1.7-4.5-.8-6.3.9-.5.5-.8 1.2-1.2 1.9.7 0 1.4 0 2 .1.7.1 1.4.3 2.2.5-.3.6-.4 1.5-.9 1.8-1.2.9-2.5 1.6-3.7 2.4-1.5 1-1.7 4.2-.3 5.6.2-.4.3-1 .6-1.2.6-.3 1.4-.5 2.1-.6.3 0 .9.6.8.8-.2 1.2-.5 2.4-1 3.5s-1.6 2-1.9 3.2c-.5 2 .3 3.7 2.3 4.8.1-.3.3-.7.4-1 .5-2.6 1.3-3.2 3.8-2.6 1.8.4 3.5.6 4.9-.9.2-.2.4-.3.7-.3 3.3.1 6.5-.1 9.5-1.5.3-.2 1.5.5 1.5.8-.1.7-.4 1.5-.9 1.9s-1.3.3-2.1.5c-.6 4-3.6 2.3-6.1 2.3.2.9.2 1.7.5 2.3.7 1.5 2.8 2.2 3.8 1.7 1.1-.5 2.3-1.1 3.5-1 2.9.3 5.6-.3 7.9-1.8 1.9-1.2 3.4-3.1 5-4.7 1.3 2.3.9 5.2-1.2 6.6-1.3.8-.9 1.4-.5 2.3 1.8-.5 3.6-.6 5.1-1.4s2.6-2.2 4.2-3.6c0 2.7 1 4.5 3.4 4.9 2.1.4 4.3.3 6.6.4-.2-.6-.2-.7-.3-.8s-.2-.2-.3-.2c-1.4-1.5-3-2.8-2.4-5.2.3-1.3.9-2.3 2.4-1.7.9.4 1.6 1.3 2.5 1.9 1.7 1.1 3.3 2.3 5.1 3.1 1 .4 2.4.1 3.1.1v-6.6c3.6-.7 4.8-.5 5.5.9 1.4 3-.1 5.1-2.8 6.7.6.3.9.4 1.3.6 3.8 1.6 4.1 1.2 6.3-2.2.8-1.3.9-2.3 1.1-3.6.1-.4.6-1 1-1.2.8-.3 2-.7 2.6-.3 1.1.7 1.9 1.9 3.1 3.1.1-1 .1-2 .4-2.9.4-1 1-2.1 1.8-2.8.4-.4 1.5 0 2.3.1-.1.7-.2 1.4-.5 2.1-.2.6-.5 1.1-.8 1.7.1.2.3.3.4.5 1.1-.3 2.2-.7 3.2-1l8 12c2.1 3.1 4.5 5.9 7.3 8.3 5.3 4.5 10.7 8.8 14.9 14.4 1.8 2.5 3.7 4.9 4.5 8.1.4 1.5.8 3.1 1.8 4.2 1.5 1.6.6 3.1.7 5.1l-7.5-5.2c-1.4-1-2.7-2.2-4.1-3.2-1.2-.7-2.5-1.6-3.8-1.7-5.2-.3-10.4-.2-15.7-.4-1.5-.1-3-.6-4.5-.7-.9-.1-1.8 0-3.2 0a63.36 63.36 0 0 1 2.4 2c-2.6.7-4.7 1.4-6.9 1.8-2.1.4-4.5-.4-6.9.6 1 .6 1.7.9 2.4 1.3-.3.3-.3.6-.5.6-3.9 1.5-6.9 4.1-9.6 7.2-2.2 2.5-4.6 4.7-8.4 4.5-3.7-.3-3.7-.1-5.1-3.4-.6.4-1.3.8-2 1.2.4.4.8.7 1 1.1 1.3 2.5 2.8 4.5 5.6 5.6.8.3 2.5 1.4 1.4 2.8-1.9 2.7-4.1 5.2-7.8 5.5-.5 0-.9.2-1.4.3 5.1 1.6 10.1 2.3 15.2-.5-.3 2.5 2.5 4 1 6.4-1.1 1.8-1.8 3.9-2.7 6 .8.3 1.4.4 2.3.7-.7 1.2-1.2 2.2-1.6 2.9.5.8 1.2 1.5 1.3 2.2 0 .8-.5 1.7-.9 2.6.3 0 .8.2 1 .1l5-3.1c.2.6.4 1.1.7 1.6 2 2.9 1.1 6.3-2.2 7.4a21.99 21.99 0 0 1-6.1 1.2c-4.4.2-8.7 1-12.5 3.2-1.9 1.1-3.6 2.7-5.1 4.3s-2.6 3.7-4.1 5.3c-2.3 2.4-2.6 4.1-.6 7 .9-1.3 1.7-2.6 2.5-3.9.7 1.4 1.3 2.5-.1 3.6-.4.3-.7 1.2-.6 1.9 0 .9.4 1.9.6 2.8.7.1 1.3.2 1.9.2.1-.6.1-1.2.4-1.6.6-.8 1.1-2.1 1.9-2.3.7-.2 2 .6 2.5 1.3.7.9.9 2.2 1.2 3.4.2.7.1 1.6.3 2.3.6 1.8 2.5 2.6 4 1.7-1.7-.9-1.4-2.1-.4-3.1.7-.7 1.6-1.3 2.6-1.5 2.2-.5 3.7-1.8 5.1-3.3l4.3-4.5c.3-.3.8-.4 1.2-.5.1.5.4 1 .3 1.4-.5 1.7-.6 3.3-.1 5.1.2.6-.3 1.7-.8 2.1-.9.8-2.1 1.3-3.4 2 1.1.6 2.1 1.4 3.1 1.4 1.1 0 2.8-.5 3.3-1.3 1.2-2.3 3.6-2.5 5.5-3.5 2.8-1.5 3.7-4.1 5-6.6.8-1.5 1.1-3.3 1.9-4.7.6-1.1 1.6-2.1 2.6-2.9.5-.4 1.4-.5 2.1-.7.2.6.5 1.3.5 1.9 0 1.4-.4 2.7-.3 4.1.1 1.5.4 3 .7 4.5.3.1.6.1.9.2 0-3.8 2.6-5.2 5.4-6.4.8-.4 1.6-1.1 2-1.8.9-1.4 1.5-2.9 2.4-4.7l4.2 2.6c-.4-2-1-3.5-1-5 .1-4.6-2.2-7.3-6.3-9.1-1.7-.7-3.2-1.9-4.7-3-.2-.2-.3-.9-.1-1.2.1-.2.8-.3 1.1-.2.5.2.8.6 1.3.9 2.2 1.5 4.6 2.5 7 1.7-.5-1.2-1.2-2.3-1.4-3.5-.2-1.5.3-3 .3-4.5 0-.4-.4-.8-.7-1.3-.8-1.5-1.8-2.9-2.4-4.4-.2-.4.7-1.6 1.2-1.7 1.8-.3 3.5 1.5 3.5 3.4v3.1c.7-.3 1.1-.4 1.4-.7 1.6-1.5 3-3.1 2.7-5.5 0-.5.3-1.5.5-1.5a3.29 3.29 0 0 1 2 .4c.4.3.5 1 .7 1.5.3-.2.5-.4.8-.5 0-.5.1-.9.1-1.4-.1-3 1.2-4.4 4.1-4.3.6 0 1.7.4 1.7.8.1.7-.2 1.6-.6 2.3-.6 1.2-1.5 2.3-2.1 3.5-.9 1.8-1.7 3.7-2.3 5.6-.7 2.4-2.2 4.7-1.5 7.4.2.6.1 1.3 0 2-.4 2.2-.9 4.3-1.4 6.6.5.2 1.1.5 2 .9-.7 2.1-1.5 4.2-2.1 6.3-.1.6.3 1.3.6 1.9s1 1.2.9 1.7c-.2 1.5-.7 2.9-1 3.8.1 1.6.6 2.9.2 3.9-.8 1.8-2.1 3.4-3.2 5.1 1.1.6 2 1.1 2.8 1.6.5-.7 1-1.7 1.7-2.4 2.4-2.3 5.7-3.6 7.5-6.8.5-.9 2.7-.7 3.1.2.5 1.5.3 3.5 2.5 3.9.1 0 .3.4.2.5-.5 2.3 1.1 2.3 2.5 2.3.2 1 .4 1.9.6 2.6.9.1 2.1 0 2.2.3.9 2.2 4.2 2.3 4.5 5.1 0 .2.5.3.7.5.7.9 1.5 1.9 2.1 2.9 1.2 2.2.7 4.6.2 6.8-.5 1.9-1 4-2 5.7-2.8 4.6-7.7 6.9-11.9 9.9-2 1.4-4.1 2.7-6.2 4.1-1.6 1.1-2.8 2.5-3.1 4.6-.1 1-.7 2-1.3 2.8-1.7 2.4-1.9 4.1-.4 6.7 1.3-1.1.5-3.9 3.4-4v7.6c0 1.9 2 3.6 4.1 3.5 0-.6.1-1.3 0-1.9-.3-1.3-.3-2.6 1.3-3 1.5-.4 3.3.8 3.5 2.3.4 4.6 5.2 5.8 8.5 3.6-.6-.2-1.2-.3-1.8-.4-1.5-.3-2.2-2-1.2-3.1.7-.8 1.7-1.4 2.4-2.3 1.1-1.2 2.3-2.4 3-3.8.7-1.2 1.3-2.2 2.8-2.5 1.9-.3 4.3-3.1 4.3-5 0-2.8 1.6-4.6 3.9-6 .2.9.3 1.8-.1 2.4-1.2 1.7-1.4 3.2.2 4.8.2.2.3.7.4 1.1.2 2 .3 4-2 5.4.9.2 1.9.4 2.4 0 .9-.7 1.8-1.6 2.4-2.6 1.1-1.6 1.6-3.8 3-5 2-1.8 2.9-3.9 2.8-6.5 0-.8-.3-1.6-.3-2.3.1-.6.5-1.1.8-1.6.6.4 1.4.6 1.9 1.1.6.8.9 1.8 1.5 2.6.2.3 1.1.5 1.2.4 1.5-1.9 3.1-3.7 4.2-5.8.4-.8-.5-2.3-.9-3.4-.3-1-.8-1.9-1.2-2.8-.6-1.4 0-2.7 1.2-3.1.7-.2 2 .4 2.6 1.1 1.9 1.9 2.2 4 .4 6.2-.1.1 0 .5.1 1.2.6-.7.8-1.1 1-1.2 3-1.1 4.3-3.3 4.2-6.4 0-.4.4-1 .8-1.3l4.5-3.8c1.4-1.2 2.1-2.9 1.9-4.8a1.78 1.78 0 0 0-.4-1c-.2-.1-.8.1-1 .3-1.4 2-3.5 1.1-5.2.9-.8-.1-1.8-1.4-2.1-2.4-.5-1.5 1.2-3.2 3-3.3l2.3-.3c0-.2.1-.3.1-.5-1-.8-2.1-1.4-2.9-2.3-2.2-2.4-4.7-4-8.1-3.6-1.5.2-2.7-.3-3.7-1.5-.8-1-1-2.8 0-3.7 1.1-1.1 2.3-.9 3.4.1.8.8 1.7 1.4 2.6 2.2.2-.1.5-.3.7-.4-.4-1.4-.5-2.9-1.1-4.1-1.2-2.2-3.3-2.8-5.7-2.8-1.1 0-2.3-.8-3.4-1.4-.1-.1-.1-1 .2-1.3 1.1-1.1 2.3-1.9 3.3-3.1.6-.7.6-1.9 1.3-2.5 1.1-.9.8-1.7.4-2.5-1.8.8-3.4 1.8-5.1 2.1-4.4.8-7.7-2.6-7.7-7.2 0-1.4 1.8-2.9 3.6-2.8 1.4.1 2.7.5 2.6 2.4 0 .4.3.8.6 1.4 2.1-2.5 3.1-3.5 1-6.3-.6-.9-.9-2.1.7-2.8 1.4-.7 2.4-1.9 1.5-3.5-.9.4-2 .6-2.4 1.2-1.2 1.7-1.8-.1-2.5-.3-1.9-.5-2.3-3-1.2-4.6 1.4-1.9 2.6-4 3.7-6.1 1-1.9 2.2-2.6 3.5-1.8 1.9 1.1 3.7 2.5 5.8 3.4 4.2 1.9 8.6 3.1 13.1 3.2 5.5.1 10.3-2.1 14.9-5.2 4.4-3 7.4-7 10.1-11.3 1.4.2 2.8.5 4.2.4 2-.2 4-.6 5.9-1.1.7-.2 1.6-.9 1.7-1.4.3-2.5 2.2-3.8 3.8-5.2.7-.6.9-.9.2-1.5a2.73 2.73 0 0 1-.7-1.3c-.1-1.3 0-2.6 0-3.9 0-3.6-1.1-6.7-4.1-9.1-1.2-1-2.4-2.3-2.8-3.7-1.1-3.5-3.4-5.8-6.5-7-2.3-.9-3-2.5-3.8-4.4-.7-1.8-1.5-3.6-2.2-5.3-1.2-2.9-2.7-5.7-3.4-8.8-.7-3-.7-6.2 1.3-9 .3-.4-.3-2.1-.7-2.2-3.3-.6-3.4-3.7-4.6-5.8-.7-1.2.2-2.6.7-4 1.1-2.8 3.7-3 5.6-4.4.4-.3 1.4.3 2.1.5.4.1.7.5 1.1.6 1.6.4 3 2.3 3.2 3.9.4 2.9-1.2 4.9-3.5 7 .7.1 1.3.4 1.6.2 3.4-2 5.7-4.8 5.7-8.9 0-1.4-.6-2.8-1.2-4.1-.5-1.3-1.2-2.6-2.2-3.5-1.8-1.9-4.3-2.6-6.8-3.6-3.3-1.3-6 .1-8.5 1s-4.4 3.3-6.7 4.9c-1.2.8-1.7 3.2-3.7 1.9-.7-2.2-1.5-4.1-2.1-6.2-.9-2.7-1.8-5.4-2.4-8.1s-.9-5.5-1.2-8.3c-.9-9.7-.2-19.1 4.9-27.7 1.7-2.9 3.8-5.2 6.7-7 4.4-2.7 9-4.2 14.2-3.5 2.3.3 3.2 2.2 2 4.3-.5.9-1 1.8-1.1 2.8-.3 2.8-1.9 4.9-3.9 6.6-1.7 1.5-4.2 1.5-5.7.4-.5-.4-.9-1-1.6-1.8-.3 2.8 1.4 5.2 3.7 5.9 4.4 1.4 9.4-.9 12.4-5.8.6.4 1.5.6 1.7 1.2.7 1.4 1.4 2.9 1.5 4.4.3 2.7.9 5.4-.9 8.2-1.1 1.8-2.5 2.4-4.1 2.9-1.8.5-4-1.1-3.3-3.6.2-.8.3-1.6.5-2.4-.2-.1-.4-.3-.6-.4-.7.8-1.5 1.5-2.2 2.4-1.5 1.7-2.6 3.7-1.5 5.8 1.2 2.4 2.5 4.9 6 4.7 1.6-.1 3.2 0 5.3 0-.7 1.4-1.5 2.4-1.6 3.4-.2 2.7-.1 5.5-.1 8.2 0 .3.2.8.5 1 2 1.7 3.9 3.4 6 4.9.5.4 1.4.2 2.1.3 0-.2.1-.4.1-.6-.5-.2-1.2-.3-1.5-.6-2.4-2.2-2.3-7.8.3-9.9 3.6-2.8 5.6-6.3 5.4-11 0-.5.2-1.1.3-2 .9.4 1.8.5 2.2 1 1 1.2 1.9 2.4 2.6 3.8 1.6 3.5 1.3 8.1-4.1 8.5-.7 0-1.3.2-2 .2a.9.9 0 0 0 .1.5c2.9.4 6.1 1.6 8.6-1.1 1.7-1.9 4.7-2.3 5.6-5.1.5-1.4 1.6-2.6 2.1-4.1.3-1-.1-2.2-.3-3.4-.3-1.7-.8-3.3-1.1-5 0-.2.6-.7 1.1-.9 1.4-.7 2.8-1.4 4.4-2.1 0 0 3.5 8.5 3.7 9.7.9-1 2.2-1.8 2.3-2.7.4-3.3 1.3-6.8-1.2-9.7-.6-.7-1.4-1.4-1.8-2.3-.3-.6-.5-1.7-.1-2.2.5-1.9 1.7-3.5 3.1-4.8zM185.5 97.7c-.1.2-.4.4-.6.4-1.7 0-3.4-.1-5.5-.2.8-1.4 1.3-2 1.6-2.8.7-1.6 1.9-2.1 3.2-1.4 1.1.7 1.9 3 1.3 4zm10.3-14.1c-1.4.1-2.9.1-4.7.1l.6-1.2c1.6-2.7 1.6-2.8 4.4-1.4.5.2.9 1 .9 1.6.1.2-.7.8-1.2.9zm-14.3 19.2c0-.1.1-.1 0 0zm133.7.4c-.2.1-.3.1-.4.2s-.1.2-.2.3c-.4 2.5-1.9 4-4.4 4.7-.6.2-1 .8-1.8 1.6 5.2.4 8.4-3 6.8-6.8zm-167.8 121c2.6 1.3 3.6 1.2 4.7 0h-4.7z" fill-rule="evenodd"/></g></svg>