<?xml version="1.0" encoding="utf-8"?>
<!-- Generator: Adobe Illustrator 23.0.0, SVG Export Plug-In . SVG Version: 6.00 Build 0)  -->
<svg version="1.1" id="Layer_1" xmlns="http://www.w3.org/2000/svg" xmlns:xlink="http://www.w3.org/1999/xlink" x="0px" y="0px"
	 viewBox="0 0 400 400" style="enable-background:new 0 0 400 400;" xml:space="preserve">
<style type="text/css">
	.st0{fill:#A01830;}
	.st1{fill:#A01830;stroke:#000000;stroke-miterlimit:10;}
	.st2{display:none;fill:#F1CE56;}
	.st3{fill-rule:evenodd;clip-rule:evenodd;fill:#F1CE56;}
</style>
<circle class="st0" cx="200" cy="200" r="191.5"/>
<g id="Layer_2">
	<rect class="st1" width="400" height="400"/>
</g>
<path class="st0" d="M200,9c25.8,0,50.8,5,74.3,15c22.7,9.6,43.2,23.4,60.7,40.9s31.3,38,40.9,60.7c10,23.5,15,48.6,15,74.3
	s-5,50.8-15,74.3c-9.6,22.7-23.4,43.2-40.9,60.7s-38,31.3-60.7,40.9c-23.5,10-48.6,15-74.3,15s-50.8-5-74.3-15
	c-22.7-9.6-43.2-23.4-60.7-40.9s-31.3-38-40.9-60.7C14,250.8,9,225.8,9,200s5-50.8,15-74.3C33.6,103,47.4,82.5,64.9,65
	s38-31.3,60.7-40.9C149.2,14,174.2,9,200,9 M200,8C94,8,8,94,8,200s86,192,192,192s192-86,192-192S306,8,200,8L200,8z"/>
<g>
	<path class="st2" d="M207.8,0.2C147.8-2,96.1,19.1,54.7,62.7C18.3,101.1,0.1,147.4,0,200.4C-0.2,310.2,89.4,400.6,199.8,400
		c110.7,0.7,201.1-89.8,200.2-201.1C399.1,87.3,311,3.9,207.8,0.2z M200.1,381.2c-99,0-182.2-80.6-180.4-184.7
		C21.4,103.1,98.5,16.1,209,20.2c88.8,3.2,174.5,78.3,171.9,185.9C378.6,300.3,300.7,381.2,200.1,381.2L200.1,381.2z"/>
	<path class="st3" d="M322,115.1c1.7-1.6,1.7-3.5,2-5.5c-2,0.3-2.2,0.4-2.4,2c-0.2,1.9-2.2,3.6-4,3.5c-1,0-2.1-0.2-3.1-0.1
		c-3.5,0.4-6.3-2.1-7-5.4c-0.1-0.6-0.8-1.2-1.4-1.4c-1.3-0.6-2.8-1-4.1-1.6c-0.6-0.3-1.1-0.7-1.6-1.1c0.6-0.6,1-1.7,1.7-1.8
		c2.2-0.6,3.3-1.7,4.2-3.8c1.6-3.9,1.7-4.2-1.1-7.2c-0.1,0.1-0.3,0.3-0.3,0.4c-0.8,4.1-2.7,5.9-6.7,6.3c-0.6,0.1-1.2,0.1-1.7,0.3
		l-5.7,2.4c-2.7,1.2-4.8-0.8-6.9-1.8c-2.4-1.1-4.9-1.5-7.3-2c-4.2-0.8-8.4,0.3-12.4,2.1c-2.6,1.1-4.7,2.5-6.8,4.2
		c-4,3-7.4,6.6-9.8,10.9c-0.6,1-1,2.1-1.5,3.1c-1.2,2.6-2.6,5.1-2.4,8.1c0.1,1-0.2,1.9-0.3,2.9c-0.3,1.6-0.7,3.2-0.8,4.8
		c-0.1,2.5,0.5,4.9,0.8,7.3c0.5,3.9,0.9,7.8,1.8,11.6c0.6,2.1,0.9,4.3,1.7,6.4c1.2,3.2,2.6,6.4,3.9,9.6c0.6,1.5,1,3,1.7,4.9
		c-5.4,0.1-11.4-1.3-14.3,4.7c-3.5,7.1-3.5,10.9-0.5,15.2c0.1-1,0.1-1.6,0.2-2.3c0.2-1.1,0.2-2.3,0.7-3.2c1.4-2.5,4.8-3.7,7.7-2.9
		c2.1,0.6,3.2,2.5,2.1,3.9c-0.7,0.9-1.4,1.9-2,2.9c-1.8,2.7-1.4,4.7,1.1,6.6c0.1-0.4,0.2-0.8,0.3-1.1c0.4-4,3.1-6.1,7.2-5.3
		c0.6,0.1,1.2,0.6,1.8,0.9c-0.4,0.7-0.7,1.4-1.2,1.9c-2.1,2.2-2.6,4.1-1.2,6.6c0.6-1.5,1.2-3.1,2.1-4.7c0.8-1.4,2.1-2.2,4-1.7
		c2,0.5,4,0.9,6,1.4c0.5,0.2,1.1,0.7,1.3,1.2c0.6,1.2,1.1,2.6,1.7,3.9c0.8,1.7,1.8,3.3,2.4,5c0.2,0.6-0.2,1.8-0.8,2.3
		c-0.8,0.7-1.9,1.1-3,1.5c-3.3,1.3-4.3,4.4-5.6,7.2c-0.2,0.4,0,1,0.1,1.7c3.7-2.1,3.9-2.1,5.4-0.9c-2.3,2.9-5.1,4.7-8.9,4.9
		c-2.9,0.1-5.9,0.8-8.6-1.3c-1.4-1.1-2.4-4.1-1.7-5.7c0.4-0.9,0.5-1.9,0.8-2.9l-0.9-0.3c-0.7,1.5-1.4,2.9-1.9,4.5
		c-0.5,1.4-0.7,2.9-0.9,4.4c-0.1,1.3,0,2.7,0.1,4c0.1,0.8,0.6,1.6,0.7,2.4c0.3,2.4,1.8,4.5,4.2,4.6c3.2,0.1,6.4,0.1,9.5-0.5
		c4.5-0.8,8.8,0.6,11.1,4.3c1.5,2.4,1.2,7.3-0.9,9.4c-2.9,3-6.9,4.4-10.8,5.1c-5.6,1.1-11.2,1.2-16.5-2.2c-3-1.9-4.6-4.2-5.3-7.4
		c-0.5-2.3-0.9-4.6-1.7-6.8c-0.7-1.9-1.7-3.7-2.6-5.5c-0.5-1.1-1-2.2-1.6-3.2c-0.7-1.4-1.6-2.8-2.3-4.3c-0.7-1.7-1.1-3.5-1.8-5.1
		c-0.8-1.9-1.8-3.7-2.5-5.7c-0.9-2.5-1.6-5.2-2.3-7.8c-1.2-4.5-2.3-9.1-3.3-13.6c-0.5-2.3-0.7-4.6-1-6.3c1.3-1.7,2.8-3.2,3.5-4.9
		c1-2.8,1.1-5.7-0.9-8.4c-0.9-1.3-1.5-2.9-1.7-4.5c-0.6-4,0.1-4.5,3.8-3.2c3,1.1,6.7,0.4,8.5-1.9c0.5-0.7,2.6-1.3,1.4-2.5
		c-1.2,0.6-2.3,1.5-3.4,1.6c-3.4,0.3-6.6-3.6-6.2-7.1s1.6-7,0.1-10.6c-0.2-0.4-0.1-1.1,0-1.5c0.1-0.2,0.9-0.4,1-0.3
		c0.7,0.8,1.2,1.7,1.9,2.4c0.6,0.7,1.3,1.3,2,1.7c1.4,0.8,2.8,1.5,4.3,2.1c0.5,0.2,1.2,0.2,1.8,0.2c-0.3-0.6-0.4-1.1-0.8-1.7
		c-0.6-0.9-1.8-1.8-1.8-2.7c-0.2-3.5-0.1-7-0.1-10.6c0.6-0.2,1.1-0.4,1.6-0.5c3.3-1.1,4.7-3.5,4.3-6.9c-0.3-2.8-2.1-4.6-3.7-6.7
		c-0.3-0.4-0.6-0.9-0.9-1.3c0.6-0.1,1.2-0.4,1.8-0.4c0.8-0.1,1.7-0.1,2.5-0.2v-0.6c-0.4-0.3-1-0.4-1.2-0.8c-1.5-3.1-3.3-6.2-3.3-9.8
		c0-1.2,0.4-1.5,1.6-1.7c1.6-0.3,3.1-0.9,4.7-1.4c0-0.2,0-0.4,0.1-0.6c-2.4,0-4.9-0.6-5.7-2.7c-0.7-1.9-3.5-3-2.8-5.4
		c1.9,0.2,3.6,0.3,5.3,0.4l0.3-0.6c-0.4-0.6-0.8-1.2-1.3-1.7c-0.6-0.7-1.4-1.2-2-1.8c-1.3-1.2-2.3-2.9-3.8-3.7
		c-1.7-0.8-1.8-1.7-1.4-3.2s0.5-2.9-0.3-3.8c-1.6,1.3-3.2,2.4-4.7,3.6l-0.5-0.5c0.3-1.6,0.9-3.3,0.8-4.8s-1-3-1.5-4.5
		c-0.2,0.1-0.3,0.1-0.5,0.2c-0.3,1.5-0.2,3.2-0.9,4.4s-2.1,1.9-3.2,2.8l-0.9-0.6c0.3-1,0.8-1.9,1-2.9c0.2-0.6,0.3-1.3,0.1-1.9
		c-0.2-0.9-0.6-1.9-1.2-2.7c-0.5-0.8-1.3-1.3-1.9-2c-0.1,0.7-0.2,1.5-0.4,2.2c-0.3,1.1-0.3,2.4-1,3.1c-1.9,1.8-4.4,1.9-6.9,1.7
		c-3.9-0.3-7.8-0.5-11.7-0.6c-1.5,0-2.7,0.7-3.6,2.1c-0.8,1.2-2.3,2.3-3.6,2.7c-2.5,0.8-5.2,1-7.9,1.4c-1.3,0.2-2.7,0-3.9,0.4
		c-1.1,0.4-2.8,0.4-2.9,2.2c0,1.8-0.1,3.6,0.2,5.4c0.4,2.2,1.1,4.4,1.6,6.6c0.1,0.5,0.2,1.1,0.4,1.8c-0.5,0.1-1.2,0.3-1.9,0.4
		c-2.7,0.4-5.2-0.4-7.7-1.3c-1.1-0.4-2.4-0.4-2.6-1.9c-0.2-1.4-0.4-2.8,1.1-3.8c0.3-0.2,0.5-1,0.3-1.1c-0.8-0.6-1.7-1.5-2.6-1.6
		c-3-0.6-5.9,0.2-8,2.5c-0.9,1-1.6,2.5-1.7,3.8c-0.1,2.7,3.3,5.9,5.9,6.2c0.6,0.1,1.2,0.4,1.9,0.5c1.6,0.2,3.3,0.6,4.8,0.3
		c3.1-0.5,6.1-1.6,9.2-2c3.3-0.4,6.6-0.4,10-0.5c2.1,0,3.2,2.1,2.1,3.9c-0.2,0.4-1.1,0.7-1.4,0.5c-1-0.6-1.8-1.4-2.7-2.2
		c0,0-0.1,0-0.1,0.1c-2.3,1-2.8,1.9-4.6-0.6c-0.1-0.1-1.1,0-1.3,0.3c-0.6,1.1-1,2.3-1.5,3.5l-2.6,5.8c4.5,0.5,8.8-0.8,12.8,0.5
		c-1,6-5.1,7.5-9.4,6.6c-1.6-0.3-3-1.1-4.6-1.4c-4.5-0.9-8.3,0.7-11.5,3.8c-1.2,1.2-2,1-2.8-0.2c-1.9-2.9-4.2-5.6-6.7-8.1
		c-1-1-2.2-2-3.1-3.2c-1.3-1.8-2.4-3.7-3.6-5.5c-0.8-1.1-1.4-2.9-2.4-3.2c-1.7-0.5-1.9-1.9-2.6-2.9c-1.2-1.5-2.2-3.1-3.3-4.7
		c-0.4-0.7-1.2-1.4-1.2-2.1c0-3.4,0.1-6.8,0.3-10.2s0.6-6.8,0.8-10.3c0-0.5-0.1-1-0.3-1.5l-2.6-8.3c-0.1-0.4-0.2-0.9-0.1-1.3
		c0.4-1.4,0.2-2.6-0.9-3.5c-0.8-0.7-1.7-1.2-2.5-1.8c-1.6,1.6-0.1,2.2,0.7,2.9c-1,1-5.3,1.3-6.2,0.4c-0.2-0.2-0.3-0.7-0.4-1.1
		c-0.6-2.9-2.7-3.7-5.5-2.1c0.6,0.6,1.6,1.1,1.9,1.8c0.3,0.9,0.4,2.1,0,2.9s-1.5,1.3-2,2.1c-1,1.5-2.1,0.9-3.2,0.4
		c-1.2-0.6-2.3-1.6-3.2-2.2l-3.9,2l4.1,2.5c0,1.6,0.1,3.3,0,4.9c-0.3,2.5,0.7,4.6,2.9,5.8c3.2,1.8,3.6,2.9,2.5,6.5
		c-0.3,0.9-0.2,2-0.3,3.2h-3.8c0.1-1,0.3-1.9,0.3-2.8c0-0.4-0.1-0.9-0.3-1.2c-0.1-0.2-0.7,0-1,0.1c-2.4,0.9-3.6,4.3-2.4,6.6
		c0.5,1,0.7,2.3,1,3.5c0.2,1.1-0.1,2.6,0.5,3.2c1.5,1.3,2.2,3.3,4.3,4.1c0.9,0.3,2.6,1.4,1.6,3.2c-1.9-0.2-3.8-0.5-5.7-0.6
		c-1.2,0-3.1,2.7-3,3.9c0.3,0,0.5,0,0.8-0.1c1.2-0.3,2.1-1.4,3.5-0.5c2.1,1.4,4.4,2.4,6.4,3.9c0.7,0.5,1.4,1.6,0.1,2.6
		c-0.5,0.4-0.9,1-1.1,1.5c-1.1,3.2,0,5.9,3.2,7.3c0.9,0.4,2.1,0.3,2-1c-0.3-3,2-2.6,3.6-2.9c1.9-0.3,2.5,0.6,2.4,2.5
		c-0.1,1.2,0,2.7,0.6,3.7c1,1.6,1.1,3.1,0.3,4.7c-0.3,0.6-0.6,1.5-0.4,2c0.8,1.5,1.9,2.8,3,4.5c0.4-1.3,0.7-2,0.9-2.7
		c2.7-0.4,2.7-0.4,2.7,2.2c0,0.7,0.1,1.5,0,2.2c-0.1,0.5-0.3,1-0.6,1.3c-1.5,1.3-2.9,2.7-4.5,3.7c-1,0.6-2.5,0.6-3.6,0.3
		c-0.6-0.2-1-1.5-1.4-2.3c-0.3-0.7-0.2-1.5-0.3-2.2c-0.1,0-0.3,0.1-0.4,0.1c-0.5,0.9-0.9,1.8-1.5,2.7c0.1,0.3,0.5,0.7,0.6,1.2
		c0.8,2.5,2.2,3.8,4.9,3.5c2.2-0.2,4.7-0.5,6.4-1.8c1.6-1.2,2.8-0.9,4.5-0.8c0,0.9-0.1,1.6-0.1,2.4c-1,0.4-2,0.7-2.9,1
		c-1.5,0.5-1.6,1.2-0.4,2.3c2.5,2.5,5.6,2.9,8.9,2.6c0.5,0,1.1,0.3,1.7,0.5c-0.4,0.4-0.9,0.9-1.4,1c-2.3,0.5-4.7,0.9-7,1.4
		c-0.1,1.1-0.1,1.9-0.2,2.8h4.5c-0.1,1,0,1.9-0.4,2.4c-2.5,3.3-6.6,3.4-9.9,0.5c-0.2-0.2-0.7-0.2-1.1-0.3c0,0.4-0.2,0.9-0.1,1
		c0.7,0.6,1.5,1.5,2.4,1.7c2,0.3,1.8,1.4,1.4,2.8c-2.4,0.3-4.9-0.4-6.8,1.7c-0.3,0.3-1.1,0.2-1.7,0.3c-0.8,0.1-1.5,0.1-2.3,0.2
		c-0.1,0.8-0.2,1.4-0.3,2.1c-1,0.1-1.9,0.4-2.8,0.4c-2.5-0.1-5.1-0.1-7.6-0.5c-2.1-0.4-4-1.7-6-2c-3-0.5-5.9-1.1-8.4-3
		c-0.9-0.7-1.9-1.5-2.9-1.6c-2.1-0.4-4.3-0.3-6.4-0.4c-1.2-0.1-2.8,0.5-3.6-0.1c-2.5-1.7-4.5-0.8-6.3,0.9c-0.5,0.5-0.8,1.2-1.2,1.9
		c0.7,0,1.4,0,2,0.1c0.7,0.1,1.4,0.3,2.2,0.5c-0.3,0.6-0.4,1.5-0.9,1.8c-1.2,0.9-2.5,1.6-3.7,2.4c-1.5,1-1.7,4.2-0.3,5.6
		c0.2-0.4,0.3-1,0.6-1.2c0.6-0.3,1.4-0.5,2.1-0.6c0.3,0,0.9,0.6,0.8,0.8c-0.2,1.2-0.5,2.4-1,3.5s-1.6,2-1.9,3.2
		c-0.5,2,0.3,3.7,2.3,4.8c0.1-0.3,0.3-0.7,0.4-1c0.5-2.6,1.3-3.2,3.8-2.6c1.8,0.4,3.5,0.6,4.9-0.9c0.2-0.2,0.4-0.3,0.7-0.3
		c3.3,0.1,6.5-0.1,9.5-1.5c0.3-0.2,1.5,0.5,1.5,0.8c-0.1,0.7-0.4,1.5-0.9,1.9s-1.3,0.3-2.1,0.5c-0.6,4-3.6,2.3-6.1,2.3
		c0.2,0.9,0.2,1.7,0.5,2.3c0.7,1.5,2.8,2.2,3.8,1.7c1.1-0.5,2.3-1.1,3.5-1c2.9,0.3,5.6-0.3,7.9-1.8c1.9-1.2,3.4-3.1,5-4.7
		c1.3,2.3,0.9,5.2-1.2,6.6c-1.3,0.8-0.9,1.4-0.5,2.3c1.8-0.5,3.6-0.6,5.1-1.4s2.6-2.2,4.2-3.6c0,2.7,1,4.5,3.4,4.9
		c2.1,0.4,4.3,0.3,6.6,0.4c-0.2-0.6-0.2-0.7-0.3-0.8s-0.2-0.2-0.3-0.2c-1.4-1.5-3-2.8-2.4-5.2c0.3-1.3,0.9-2.3,2.4-1.7
		c0.9,0.4,1.6,1.3,2.5,1.9c1.7,1.1,3.3,2.3,5.1,3.1c1,0.4,2.4,0.1,3.1,0.1v-6.6c3.6-0.7,4.8-0.5,5.5,0.9c1.4,3-0.1,5.1-2.8,6.7
		c0.6,0.3,0.9,0.4,1.3,0.6c3.8,1.6,4.1,1.2,6.3-2.2c0.8-1.3,0.9-2.3,1.1-3.6c0.1-0.4,0.6-1,1-1.2c0.8-0.3,2-0.7,2.6-0.3
		c1.1,0.7,1.9,1.9,3.1,3.1c0.1-1,0.1-2,0.4-2.9c0.4-1,1-2.1,1.8-2.8c0.4-0.4,1.5,0,2.3,0.1c-0.1,0.7-0.2,1.4-0.5,2.1
		c-0.2,0.6-0.5,1.1-0.8,1.7c0.1,0.2,0.3,0.3,0.4,0.5c1.1-0.3,2.2-0.7,3.2-1l8,12c2.1,3.1,4.5,5.9,7.3,8.3
		c5.3,4.5,10.7,8.8,14.9,14.4c1.8,2.5,3.7,4.9,4.5,8.1c0.4,1.5,0.8,3.1,1.8,4.2c1.5,1.6,0.6,3.1,0.7,5.1l-7.5-5.2
		c-1.4-1-2.7-2.2-4.1-3.2c-1.2-0.7-2.5-1.6-3.8-1.7c-5.2-0.3-10.4-0.2-15.7-0.4c-1.5-0.1-3-0.6-4.5-0.7c-0.9-0.1-1.8,0-3.2,0
		c0.8,0.6,1.6,1.3,2.4,2c-2.6,0.7-4.7,1.4-6.9,1.8c-2.1,0.4-4.5-0.4-6.9,0.6c1,0.6,1.7,0.9,2.4,1.3c-0.3,0.3-0.3,0.6-0.5,0.6
		c-3.9,1.5-6.9,4.1-9.6,7.2c-2.2,2.5-4.6,4.7-8.4,4.5c-3.7-0.3-3.7-0.1-5.1-3.4c-0.6,0.4-1.3,0.8-2,1.2c0.4,0.4,0.8,0.7,1,1.1
		c1.3,2.5,2.8,4.5,5.6,5.6c0.8,0.3,2.5,1.4,1.4,2.8c-1.9,2.7-4.1,5.2-7.8,5.5c-0.5,0-0.9,0.2-1.4,0.3c5.1,1.6,10.1,2.3,15.2-0.5
		c-0.3,2.5,2.5,4,1,6.4c-1.1,1.8-1.8,3.9-2.7,6c0.8,0.3,1.4,0.4,2.3,0.7c-0.7,1.2-1.2,2.2-1.6,2.9c0.5,0.8,1.2,1.5,1.3,2.2
		c0,0.8-0.5,1.7-0.9,2.6c0.3,0,0.8,0.2,1,0.1l5-3.1c0.2,0.6,0.4,1.1,0.7,1.6c2,2.9,1.1,6.3-2.2,7.4c-2,0.7-4,1.1-6.1,1.2
		c-4.4,0.2-8.7,1-12.5,3.2c-1.9,1.1-3.6,2.7-5.1,4.3s-2.6,3.7-4.1,5.3c-2.3,2.4-2.6,4.1-0.6,7c0.9-1.3,1.7-2.6,2.5-3.9
		c0.7,1.4,1.3,2.5-0.1,3.6c-0.4,0.3-0.7,1.2-0.6,1.9c0,0.9,0.4,1.9,0.6,2.8c0.7,0.1,1.3,0.2,1.9,0.2c0.1-0.6,0.1-1.2,0.4-1.6
		c0.6-0.8,1.1-2.1,1.9-2.3c0.7-0.2,2,0.6,2.5,1.3c0.7,0.9,0.9,2.2,1.2,3.4c0.2,0.7,0.1,1.6,0.3,2.3c0.6,1.8,2.5,2.6,4,1.7
		c-1.7-0.9-1.4-2.1-0.4-3.1c0.7-0.7,1.6-1.3,2.6-1.5c2.2-0.5,3.7-1.8,5.1-3.3l4.3-4.5c0.3-0.3,0.8-0.4,1.2-0.5
		c0.1,0.5,0.4,1,0.3,1.4c-0.5,1.7-0.6,3.3-0.1,5.1c0.2,0.6-0.3,1.7-0.8,2.1c-0.9,0.8-2.1,1.3-3.4,2c1.1,0.6,2.1,1.4,3.1,1.4
		c1.1,0,2.8-0.5,3.3-1.3c1.2-2.3,3.6-2.5,5.5-3.5c2.8-1.5,3.7-4.1,5-6.6c0.8-1.5,1.1-3.3,1.9-4.7c0.6-1.1,1.6-2.1,2.6-2.9
		c0.5-0.4,1.4-0.5,2.1-0.7c0.2,0.6,0.5,1.3,0.5,1.9c0,1.4-0.4,2.7-0.3,4.1c0.1,1.5,0.4,3,0.7,4.5c0.3,0.1,0.6,0.1,0.9,0.2
		c0-3.8,2.6-5.2,5.4-6.4c0.8-0.4,1.6-1.1,2-1.8c0.9-1.4,1.5-2.9,2.4-4.7l4.2,2.6c-0.4-2-1-3.5-1-5c0.1-4.6-2.2-7.3-6.3-9.1
		c-1.7-0.7-3.2-1.9-4.7-3c-0.2-0.2-0.3-0.9-0.1-1.2c0.1-0.2,0.8-0.3,1.1-0.2c0.5,0.2,0.8,0.6,1.3,0.9c2.2,1.5,4.6,2.5,7,1.7
		c-0.5-1.2-1.2-2.3-1.4-3.5c-0.2-1.5,0.3-3,0.3-4.5c0-0.4-0.4-0.8-0.7-1.3c-0.8-1.5-1.8-2.9-2.4-4.4c-0.2-0.4,0.7-1.6,1.2-1.7
		c1.8-0.3,3.5,1.5,3.5,3.4v3.1c0.7-0.3,1.1-0.4,1.4-0.7c1.6-1.5,3-3.1,2.7-5.5c0-0.5,0.3-1.5,0.5-1.5c0.7-0.1,1.4,0.1,2,0.4
		c0.4,0.3,0.5,1,0.7,1.5c0.3-0.2,0.5-0.4,0.8-0.5c0-0.5,0.1-0.9,0.1-1.4c-0.1-3,1.2-4.4,4.1-4.3c0.6,0,1.7,0.4,1.7,0.8
		c0.1,0.7-0.2,1.6-0.6,2.3c-0.6,1.2-1.5,2.3-2.1,3.5c-0.9,1.8-1.7,3.7-2.3,5.6c-0.7,2.4-2.2,4.7-1.5,7.4c0.2,0.6,0.1,1.3,0,2
		c-0.4,2.2-0.9,4.3-1.4,6.6c0.5,0.2,1.1,0.5,2,0.9c-0.7,2.1-1.5,4.2-2.1,6.3c-0.1,0.6,0.3,1.3,0.6,1.9s1,1.2,0.9,1.7
		c-0.2,1.5-0.7,2.9-1,3.8c0.1,1.6,0.6,2.9,0.2,3.9c-0.8,1.8-2.1,3.4-3.2,5.1c1.1,0.6,2,1.1,2.8,1.6c0.5-0.7,1-1.7,1.7-2.4
		c2.4-2.3,5.7-3.6,7.5-6.8c0.5-0.9,2.7-0.7,3.1,0.2c0.5,1.5,0.3,3.5,2.5,3.9c0.1,0,0.3,0.4,0.2,0.5c-0.5,2.3,1.1,2.3,2.5,2.3
		c0.2,1,0.4,1.9,0.6,2.6c0.9,0.1,2.1,0,2.2,0.3c0.9,2.2,4.2,2.3,4.5,5.1c0,0.2,0.5,0.3,0.7,0.5c0.7,0.9,1.5,1.9,2.1,2.9
		c1.2,2.2,0.7,4.6,0.2,6.8c-0.5,1.9-1,4-2,5.7c-2.8,4.6-7.7,6.9-11.9,9.9c-2,1.4-4.1,2.7-6.2,4.1c-1.6,1.1-2.8,2.5-3.1,4.6
		c-0.1,1-0.7,2-1.3,2.8c-1.7,2.4-1.9,4.1-0.4,6.7c1.3-1.1,0.5-3.9,3.4-4v7.6c0,1.9,2,3.6,4.1,3.5c0-0.6,0.1-1.3,0-1.9
		c-0.3-1.3-0.3-2.6,1.3-3c1.5-0.4,3.3,0.8,3.5,2.3c0.4,4.6,5.2,5.8,8.5,3.6c-0.6-0.2-1.2-0.3-1.8-0.4c-1.5-0.3-2.2-2-1.2-3.1
		c0.7-0.8,1.7-1.4,2.4-2.3c1.1-1.2,2.3-2.4,3-3.8c0.7-1.2,1.3-2.2,2.8-2.5c1.9-0.3,4.3-3.1,4.3-5c0-2.8,1.6-4.6,3.9-6
		c0.2,0.9,0.3,1.8-0.1,2.4c-1.2,1.7-1.4,3.2,0.2,4.8c0.2,0.2,0.3,0.7,0.4,1.1c0.2,2,0.3,4-2,5.4c0.9,0.2,1.9,0.4,2.4,0
		c0.9-0.7,1.8-1.6,2.4-2.6c1.1-1.6,1.6-3.8,3-5c2-1.8,2.9-3.9,2.8-6.5c0-0.8-0.3-1.6-0.3-2.3c0.1-0.6,0.5-1.1,0.8-1.6
		c0.6,0.4,1.4,0.6,1.9,1.1c0.6,0.8,0.9,1.8,1.5,2.6c0.2,0.3,1.1,0.5,1.2,0.4c1.5-1.9,3.1-3.7,4.2-5.8c0.4-0.8-0.5-2.3-0.9-3.4
		c-0.3-1-0.8-1.9-1.2-2.8c-0.6-1.4,0-2.7,1.2-3.1c0.7-0.2,2,0.4,2.6,1.1c1.9,1.9,2.2,4,0.4,6.2c-0.1,0.1,0,0.5,0.1,1.2
		c0.6-0.7,0.8-1.1,1-1.2c3-1.1,4.3-3.3,4.2-6.4c0-0.4,0.4-1,0.8-1.3l4.5-3.8c1.4-1.2,2.1-2.9,1.9-4.8c0-0.4-0.2-0.7-0.4-1
		c-0.2-0.1-0.8,0.1-1,0.3c-1.4,2-3.5,1.1-5.2,0.9c-0.8-0.1-1.8-1.4-2.1-2.4c-0.5-1.5,1.2-3.2,3-3.3l2.3-0.3c0-0.2,0.1-0.3,0.1-0.5
		c-1-0.8-2.1-1.4-2.9-2.3c-2.2-2.4-4.7-4-8.1-3.6c-1.5,0.2-2.7-0.3-3.7-1.5c-0.8-1-1-2.8,0-3.7c1.1-1.1,2.3-0.9,3.4,0.1
		c0.8,0.8,1.7,1.4,2.6,2.2c0.2-0.1,0.5-0.3,0.7-0.4c-0.4-1.4-0.5-2.9-1.1-4.1c-1.2-2.2-3.3-2.8-5.7-2.8c-1.1,0-2.3-0.8-3.4-1.4
		c-0.1-0.1-0.1-1,0.2-1.3c1.1-1.1,2.3-1.9,3.3-3.1c0.6-0.7,0.6-1.9,1.3-2.5c1.1-0.9,0.8-1.7,0.4-2.5c-1.8,0.8-3.4,1.8-5.1,2.1
		c-4.4,0.8-7.7-2.6-7.7-7.2c0-1.4,1.8-2.9,3.6-2.8c1.4,0.1,2.7,0.5,2.6,2.4c0,0.4,0.3,0.8,0.6,1.4c2.1-2.5,3.1-3.5,1-6.3
		c-0.6-0.9-0.9-2.1,0.7-2.8c1.4-0.7,2.4-1.9,1.5-3.5c-0.9,0.4-2,0.6-2.4,1.2c-1.2,1.7-1.8-0.1-2.5-0.3c-1.9-0.5-2.3-3-1.2-4.6
		c1.4-1.9,2.6-4,3.7-6.1c1-1.9,2.2-2.6,3.5-1.8c1.9,1.1,3.7,2.5,5.8,3.4c4.2,1.9,8.6,3.1,13.1,3.2c5.5,0.1,10.3-2.1,14.9-5.2
		c4.4-3,7.4-7,10.1-11.3c1.4,0.2,2.8,0.5,4.2,0.4c2-0.2,4-0.6,5.9-1.1c0.7-0.2,1.6-0.9,1.7-1.4c0.3-2.5,2.2-3.8,3.8-5.2
		c0.7-0.6,0.9-0.9,0.2-1.5c-0.3-0.4-0.6-0.8-0.7-1.3c-0.1-1.3,0-2.6,0-3.9c0-3.6-1.1-6.7-4.1-9.1c-1.2-1-2.4-2.3-2.8-3.7
		c-1.1-3.5-3.4-5.8-6.5-7c-2.3-0.9-3-2.5-3.8-4.4c-0.7-1.8-1.5-3.6-2.2-5.3c-1.2-2.9-2.7-5.7-3.4-8.8c-0.7-3-0.7-6.2,1.3-9
		c0.3-0.4-0.3-2.1-0.7-2.2c-3.3-0.6-3.4-3.7-4.6-5.8c-0.7-1.2,0.2-2.6,0.7-4c1.1-2.8,3.7-3,5.6-4.4c0.4-0.3,1.4,0.3,2.1,0.5
		c0.4,0.1,0.7,0.5,1.1,0.6c1.6,0.4,3,2.3,3.2,3.9c0.4,2.9-1.2,4.9-3.5,7c0.7,0.1,1.3,0.4,1.6,0.2c3.4-2,5.7-4.8,5.7-8.9
		c0-1.4-0.6-2.8-1.2-4.1c-0.5-1.3-1.2-2.6-2.2-3.5c-1.8-1.9-4.3-2.6-6.8-3.6c-3.3-1.3-6,0.1-8.5,1s-4.4,3.3-6.7,4.9
		c-1.2,0.8-1.7,3.2-3.7,1.9c-0.7-2.2-1.5-4.1-2.1-6.2c-0.9-2.7-1.8-5.4-2.4-8.1s-0.9-5.5-1.2-8.3c-0.9-9.7-0.2-19.1,4.9-27.7
		c1.7-2.9,3.8-5.2,6.7-7c4.4-2.7,9-4.2,14.2-3.5c2.3,0.3,3.2,2.2,2,4.3c-0.5,0.9-1,1.8-1.1,2.8c-0.3,2.8-1.9,4.9-3.9,6.6
		c-1.7,1.5-4.2,1.5-5.7,0.4c-0.5-0.4-0.9-1-1.6-1.8c-0.3,2.8,1.4,5.2,3.7,5.9c4.4,1.4,9.4-0.9,12.4-5.8c0.6,0.4,1.5,0.6,1.7,1.2
		c0.7,1.4,1.4,2.9,1.5,4.4c0.3,2.7,0.9,5.4-0.9,8.2c-1.1,1.8-2.5,2.4-4.1,2.9c-1.8,0.5-4-1.1-3.3-3.6c0.2-0.8,0.3-1.6,0.5-2.4
		c-0.2-0.1-0.4-0.3-0.6-0.4c-0.7,0.8-1.5,1.5-2.2,2.4c-1.5,1.7-2.6,3.7-1.5,5.8c1.2,2.4,2.5,4.9,6,4.7c1.6-0.1,3.2,0,5.3,0
		c-0.7,1.4-1.5,2.4-1.6,3.4c-0.2,2.7-0.1,5.5-0.1,8.2c0,0.3,0.2,0.8,0.5,1c2,1.7,3.9,3.4,6,4.9c0.5,0.4,1.4,0.2,2.1,0.3
		c0-0.2,0.1-0.4,0.1-0.6c-0.5-0.2-1.2-0.3-1.5-0.6c-2.4-2.2-2.3-7.8,0.3-9.9c3.6-2.8,5.6-6.3,5.4-11c0-0.5,0.2-1.1,0.3-2
		c0.9,0.4,1.8,0.5,2.2,1c1,1.2,1.9,2.4,2.6,3.8c1.6,3.5,1.3,8.1-4.1,8.5c-0.7,0-1.3,0.2-2,0.2c0,0.2,0,0.3,0.1,0.5
		c2.9,0.4,6.1,1.6,8.6-1.1c1.7-1.9,4.7-2.3,5.6-5.1c0.5-1.4,1.6-2.6,2.1-4.1c0.3-1-0.1-2.2-0.3-3.4c-0.3-1.7-0.8-3.3-1.1-5
		c0-0.2,0.6-0.7,1.1-0.9c1.4-0.7,2.8-1.4,4.4-2.1c0,0,3.5,8.5,3.7,9.7c0.9-1,2.2-1.8,2.3-2.7c0.4-3.3,1.3-6.8-1.2-9.7
		c-0.6-0.7-1.4-1.4-1.8-2.3c-0.3-0.6-0.5-1.7-0.1-2.2C319.4,118,320.6,116.4,322,115.1L322,115.1z M185.5,97.7
		c-0.1,0.2-0.4,0.4-0.6,0.4c-1.7,0-3.4-0.1-5.5-0.2c0.8-1.4,1.3-2,1.6-2.8c0.7-1.6,1.9-2.1,3.2-1.4
		C185.3,94.4,186.1,96.7,185.5,97.7z M195.8,83.6c-1.4,0.1-2.9,0.1-4.7,0.1l0.6-1.2c1.6-2.7,1.6-2.8,4.4-1.4c0.5,0.2,0.9,1,0.9,1.6
		C197.1,82.9,196.3,83.5,195.8,83.6z M181.5,102.8C181.5,102.7,181.6,102.7,181.5,102.8z M315.2,103.2c-0.2,0.1-0.3,0.1-0.4,0.2
		s-0.1,0.2-0.2,0.3c-0.4,2.5-1.9,4-4.4,4.7c-0.6,0.2-1,0.8-1.8,1.6C313.6,110.4,316.8,107,315.2,103.2z M147.4,224.2
		c2.6,1.3,3.6,1.2,4.7,0H147.4z"/>
</g>
</svg>
