<?xml version="1.0" encoding="utf-8"?>
<!-- Generator: Adobe Illustrator 23.0.0, SVG Export Plug-In . SVG Version: 6.00 Build 0)  -->
<svg version="1.1" id="Layer_1" xmlns="http://www.w3.org/2000/svg" xmlns:xlink="http://www.w3.org/1999/xlink" x="0px" y="0px"
	 viewBox="0 0 739 75.3" style="enable-background:new 0 0 739 75.3;" xml:space="preserve">
<style type="text/css">
	.st0{fill:#FFFFFF;}
	.st1{fill:none;}
	.st2{display:none;fill:#00A4CA;}
	.st3{fill:#821528;}
</style>
<g>
	<g>
		<path class="st0" d="M58.8,49.3c0-7.3-0.5-8.3-4-9.3c-0.7-0.2-2.3-0.3-3.1-0.3c-0.4,0-0.7-0.2-0.7-0.5c0-0.5,0.4-0.7,1.4-0.7
			c4,0,9.7,0.3,10.2,0.3s6.1-0.3,8.8-0.3c1,0,1.4,0.2,1.4,0.7c0,0.4-0.4,0.5-0.7,0.5c-0.6,0-1.2,0.1-2.3,0.3c-2.4,0.5-3.1,2-3.3,5.1
			c-0.2,2.9-0.2,5.6-0.2,9.4v10.1c0,4-0.1,4.2-1.2,4.9c-5.8,3.1-13.9,4-19.1,4c-6.8,0-19.6-0.9-29.6-9.6C11,59.1,5.8,49.5,5.8,38.3
			c0-14.4,7-24.6,15-29.6c8.1-5,17-5.7,23.9-5.7c5.7,0,12.1,1.2,13.8,1.5c1.9,0.5,5,0.8,7.3,0.9c0.9,0.1,1.1,0.5,1.1,0.8
			c0,1.3-0.6,3.8-0.6,12.8c0,1.4-0.2,1.9-0.8,1.9c-0.4,0-0.5-0.5-0.6-1.3c-0.1-1.3-0.5-3.8-1.9-5.9c-2.2-3.4-9.5-7.3-21.1-7.3
			c-5.7,0-12.4,0.5-19.3,5.9c-5.2,4.1-8.9,12.3-8.9,22.9C13.6,47.8,20,57,23.1,60c7.1,6.9,15.3,9.6,23.6,9.6c3.2,0,7.9-0.5,10.3-1.9
			c1.2-0.6,1.8-1.6,1.8-3.2V49.3z"/>
		<path class="st0" d="M106.6,6.5c1.1-3,1.4-3.5,2-3.5c0.5,0,0.9,0.5,2,3.2c1.4,3.4,15.5,40.6,21,54.3c3.2,8,5.9,9.4,7.7,10
			c1.4,0.5,2.7,0.5,3.6,0.5c0.5,0,0.9,0.1,0.9,0.5c0,0.5-0.8,0.7-1.8,0.7c-1.3,0-7.9,0-14.1-0.2c-1.7-0.1-2.7-0.1-2.7-0.6
			c0-0.4,0.3-0.5,0.6-0.6c0.5-0.2,1.1-1,0.5-2.4l-8.4-22.1c-0.2-0.4-0.4-0.5-0.8-0.5H97.7c-0.5,0-0.7,0.3-0.9,0.7l-5.4,15.9
			c-0.8,2.3-1.3,4.4-1.3,6c0,1.8,1.9,2.6,3.4,2.6h0.9c0.6,0,0.9,0.2,0.9,0.5c0,0.5-0.5,0.7-1.4,0.7c-2.2,0-6-0.3-7-0.3
			s-5.9,0.3-10.2,0.3c-1.2,0-1.7-0.2-1.7-0.7c0-0.4,0.4-0.5,0.8-0.5c0.6,0,1.9-0.1,2.6-0.2c4.1-0.5,5.9-4,7.6-8.5L106.6,6.5z
			 M115.9,42.5c0.5,0,0.5-0.3,0.4-0.6l-8.5-24.3c-0.5-1.4-0.9-1.4-1.4,0l-7.9,24.3c-0.2,0.4,0,0.6,0.3,0.6H115.9z"/>
		<path class="st0" d="M223.6,60.7c0.4,3.2,1,8.3,4.9,9.5c2.6,0.8,4.9,0.8,5.8,0.8c0.5,0,0.7,0.1,0.7,0.5c0,0.5-0.8,0.8-1.9,0.8
			c-2,0-11.7-0.3-15-0.5c-2.1-0.2-2.5-0.5-2.5-0.9s0.2-0.5,0.6-0.6c0.4-0.1,0.5-1.6,0.4-3.2l-4.3-46.4H212l-22,46.8
			c-1.9,4-2.2,4.8-3,4.8c-0.6,0-1.1-0.9-2.8-4.1c-2.3-4.4-10.1-20-10.5-20.9c-0.8-1.6-10.9-23.2-11.9-25.6h-0.4l-3.6,41.8
			c-0.1,1.4-0.1,3.1-0.1,4.6c0,1.3,1,2.5,2.3,2.8c1.5,0.4,2.9,0.4,3.4,0.4c0.4,0,0.7,0.2,0.7,0.5c0,0.6-0.5,0.8-1.6,0.8
			c-3.3,0-7.6-0.3-8.4-0.3c-0.8,0-5.1,0.3-7.6,0.3c-0.9,0-1.5-0.2-1.5-0.8c0-0.3,0.4-0.5,0.9-0.5c0.7,0,1.3,0,2.7-0.3
			c3-0.5,3.2-4,3.6-7.5l6.5-58.7c0.1-1,0.5-1.6,1-1.6s0.9,0.4,1.3,1.3l27.5,56.6L215,4.6c0.4-0.8,0.7-1.4,1.3-1.4s0.9,0.7,1.1,2.4
			L223.6,60.7z"/>
		<path class="st0" d="M251.1,30.3c0-14,0-16.6-0.2-19.4c-0.2-3.1-0.9-4.5-3.9-5.1c-0.7-0.2-2.3-0.3-3.1-0.3c-0.4,0-0.7-0.2-0.7-0.5
			c0-0.5,0.5-0.7,1.4-0.7c2.1,0,4.5,0,6.5,0.1l3.7,0.2c0.6,0,18.5,0,20.6-0.1c1.7-0.1,3.1-0.3,3.9-0.4c0.4-0.1,0.8-0.5,1.3-0.5
			c0.3,0,0.4,0.4,0.4,0.8c0,0.6-0.4,1.7-0.7,4.2c-0.1,0.9-0.3,4.9-0.5,5.9c-0.1,0.5-0.3,1-0.6,1c-0.5,0-0.7-0.5-0.7-1.2
			c0-0.6-0.1-2.2-0.5-3.2c-0.6-1.4-1.5-2.5-6.4-3.1c-1.5-0.2-11.3-0.3-12.3-0.3c-0.4,0-0.5,0.3-0.5,0.9v24.8c0,0.6,0.1,0.9,0.5,0.9
			c1.2,0,12.2,0,14.3-0.2c2.2-0.2,3.4-0.4,4.2-1.3c0.6-0.7,1-1.2,1.4-1.2c0.3,0,0.4,0.2,0.4,0.7s-0.4,2.1-0.7,5
			c-0.2,1.8-0.4,5.1-0.4,5.8s0,1.7-0.6,1.7c-0.4,0-0.6-0.4-0.6-0.8c0-0.9,0-1.8-0.4-3c-0.4-1.3-1.2-2.8-4.7-3.1
			c-2.4-0.3-11.3-0.5-12.9-0.5c-0.4,0-0.6,0.3-0.6,0.6v7.9c0,3.1-0.1,13.5,0,15.4c0.3,6.2,1.6,7.4,10.4,7.4c2.3,0,6.3,0,8.6-1
			s3.4-2.8,4-6.5c0.2-1,0.4-1.3,0.8-1.3c0.5,0,0.5,0.7,0.5,1.3c0,0.7-0.7,6.8-1.2,8.7c-0.6,2.3-1.4,2.3-4.9,2.3
			c-6.7,0-11.7-0.2-15.2-0.3c-3.5-0.2-5.7-0.3-7-0.3c-0.2,0-1.7,0-3.6,0.1c-1.8,0-3.9,0.2-5.2,0.2c-1,0-1.4-0.2-1.4-0.7
			c0-0.3,0.2-0.5,0.7-0.5c0.8,0,1.9-0.2,2.7-0.4c1.8-0.4,2.3-2.3,2.6-5c0.5-3.8,0.5-10.9,0.5-19.5V30.3H251.1z"/>
		<path class="st0" d="M423,30.3c0-14,0-16.6-0.2-19.4c-0.2-3.1-0.9-4.5-3.9-5.1c-0.7-0.2-2.3-0.3-3.1-0.3c-0.4,0-0.7-0.2-0.7-0.5
			c0-0.5,0.5-0.7,1.4-0.7c2.1,0,4.5,0,6.5,0.1l3.7,0.2c1.8,0.1,20.1,0,22.1-0.1c1.7-0.1,3.1-0.1,4-0.4c0.5-0.2,0.9-0.5,1.3-0.5
			s0.5,0.4,0.5,0.8c0,0.6-0.5,1.7-0.7,4.2c-0.1,0.9-0.3,4.9-0.5,5.9c-0.1,0.5-0.3,1-0.7,1c-0.5,0-0.6-0.5-0.6-1.1
			c0-0.7-0.3-2.3-0.8-3.4s-2.6-2.8-6.1-2.9l-13.9-0.3c-0.5,0-0.8,0.3-0.8,1v24.8c0,0.5,0.1,0.8,0.6,0.8l11.5-0.1c1.5,0,2.8,0,4-0.1
			c2.2-0.2,3.3-0.4,4.1-1.6c0.4-0.5,0.6-0.9,1-0.9s0.5,0.3,0.5,0.7c0,0.5-0.5,2.1-0.7,5c-0.2,1.8-0.4,5.4-0.4,6c0,0.8,0,1.7-0.6,1.7
			c-0.5,0-0.6-0.4-0.6-0.8c-0.1-0.9-0.2-2.2-0.5-3.2c-0.5-1.3-1.9-2.9-4.7-3.2c-2.3-0.3-12.1-0.3-13.6-0.3c-0.5,0-0.6,0.2-0.6,0.8
			V46c0,8.6,0,15.7,0.5,19.5c0.3,2.6,0.8,4.6,3.5,5c1.3,0.2,3.2,0.4,4,0.4c0.5,0,0.7,0.3,0.7,0.5c0,0.5-0.5,0.7-1.4,0.7
			c-5,0-10.6-0.3-11.1-0.3c-0.4,0-6.1,0.3-8.8,0.3c-1,0-1.4-0.2-1.4-0.7c0-0.3,0.2-0.5,0.7-0.5c0.8,0,1.9-0.2,2.7-0.4
			c1.8-0.4,2.3-2.3,2.6-5C423,61.7,423,54.6,423,46V30.3z"/>
		<path class="st0" d="M505.5,30.3c0-14,0-16.6-0.2-19.4c-0.2-3.1-0.9-4.5-3.9-5.1c-0.7-0.2-2.3-0.3-3.1-0.3c-0.4,0-0.7-0.2-0.7-0.5
			c0-0.5,0.5-0.7,1.4-0.7c4,0,9.7,0.3,10.2,0.3c1.1,0,6.8-0.3,12.1-0.3c8.9,0,25.4-0.8,36.1,10.3c4.5,4.7,8.7,12.1,8.7,22.9
			c0,11.3-4.7,20.1-9.7,25.4c-3.9,4-12,10.3-27.3,10.3c-3.9,0-8.6-0.3-12.5-0.5c-4-0.3-7-0.5-7.5-0.5c-0.2,0-1.7,0-3.6,0.1
			c-1.8,0-3.9,0.2-5.2,0.2c-1,0-1.4-0.2-1.4-0.7c0-0.3,0.2-0.5,0.7-0.5c0.8,0,1.9-0.2,2.7-0.4c1.8-0.4,2.3-2.3,2.6-5
			c0.5-3.8,0.5-10.9,0.5-19.5V30.3H505.5z M513.1,40.1c0,9.5,0.1,17.8,0.2,19.5c0.1,2.3,0.3,5.9,1,6.8c1.2,1.7,4.7,3.6,15.3,3.6
			c8.4,0,16.1-3.1,21.4-8.4c4.7-4.6,7.2-13.2,7.2-21.5c0-11.4-4.9-18.8-8.6-22.7c-8.5-8.9-18.7-10.2-29.4-10.2
			c-1.8,0-5.1,0.3-5.8,0.6c-0.8,0.4-1.1,0.8-1.1,1.8c-0.1,3.1-0.1,12.2-0.1,19.2v11.3H513.1z"/>
		<path class="st0" d="M595.6,46.2c0,8.6,0,15.7,0.5,19.5c0.3,2.6,0.8,4.6,3.5,5c1.3,0.2,3.2,0.4,4,0.4c0.5,0,0.7,0.3,0.7,0.5
			c0,0.5-0.5,0.7-1.4,0.7c-5,0-10.6-0.3-11.1-0.3c-0.4,0-6.1,0.3-8.8,0.3c-1,0-1.4-0.2-1.4-0.7c0-0.3,0.2-0.5,0.7-0.5
			c0.8,0,1.9-0.2,2.7-0.4c1.8-0.4,2.3-2.3,2.6-5c0.5-3.8,0.5-10.9,0.5-19.5V30.3c0-14,0-16.6-0.2-19.4c-0.2-3.1-1.1-4.6-3.1-5
			c-1-0.3-2.2-0.4-2.8-0.4c-0.4,0-0.7-0.2-0.7-0.5c0-0.5,0.5-0.7,1.4-0.7c3,0,8.6,0.3,9.1,0.3s6.1-0.3,8.8-0.3c1,0,1.4,0.2,1.4,0.7
			c0,0.4-0.4,0.5-0.7,0.5c-0.6,0-1.2,0.1-2.3,0.3c-2.4,0.5-3.1,2-3.3,5.1c-0.2,2.9-0.2,5.4-0.2,19.4L595.6,46.2L595.6,46.2z"/>
		<path class="st0" d="M628.3,63.8c-8.7-7.8-10.9-18.1-10.9-26.6c0-6,2.1-16.6,10.1-24.6c5.4-5.4,13.6-9.6,27.4-9.6
			c3.6,0,8.6,0.3,13,1.1c3.4,0.6,6.3,1.2,9.2,1.3c1,0.1,1.2,0.5,1.2,1c0,0.7-0.3,1.8-0.5,5c-0.2,3-0.2,7.9-0.3,9.3
			c-0.1,1.4-0.3,1.9-0.8,1.9c-0.6,0-0.7-0.6-0.7-1.9c0-3.5-1.4-7.2-3.8-9.2c-3.1-2.7-10.1-5.1-18-5.1c-12,0-17.5,3.5-20.7,6.6
			c-6.6,6.3-8.1,14.3-8.1,23.5c0,17.2,13.2,32.9,32.5,32.9c6.8,0,12.1-0.8,15.7-4.5c1.9-2,3.1-5.9,3.3-7.6c0.2-1,0.4-1.3,0.9-1.3
			s0.6,0.6,0.6,1.3c0,0.6-1.1,8.5-2,11.5c-0.5,1.7-0.7,1.9-2.3,2.6c-3.6,1.4-10.4,2.1-16.2,2.1C644.5,73.5,635.4,70.2,628.3,63.8z"
			/>
		<path class="st0" d="M700.1,30.3c0-14,0-16.6-0.2-19.4c-0.2-3.1-0.9-4.5-3.9-5.1c-0.7-0.2-2.3-0.3-3.1-0.3c-0.4,0-0.7-0.2-0.7-0.5
			c0-0.5,0.5-0.7,1.4-0.7c2.1,0,4.5,0,6.5,0.1l3.7,0.2c0.6,0,18.5,0,20.6-0.1c1.7-0.1,3.2-0.3,3.9-0.4c0.5-0.1,0.8-0.5,1.3-0.5
			c0.3,0,0.4,0.4,0.4,0.8c0,0.6-0.5,1.7-0.7,4.2c-0.1,0.9-0.3,4.9-0.4,5.9c-0.1,0.5-0.3,1-0.6,1c-0.5,0-0.7-0.5-0.7-1.2
			c0-0.6-0.1-2.2-0.5-3.2c-0.6-1.4-1.5-2.5-6.4-3.1c-1.5-0.2-11.3-0.3-12.3-0.3c-0.4,0-0.5,0.3-0.5,0.9v24.8c0,0.6,0.1,0.9,0.5,0.9
			c1.2,0,12.2,0,14.3-0.2c2.2-0.2,3.4-0.4,4.2-1.3c0.6-0.7,1-1.2,1.3-1.2s0.5,0.2,0.5,0.7s-0.5,2.1-0.7,5c-0.2,1.8-0.4,5.1-0.4,5.8
			s0,1.7-0.6,1.7c-0.5,0-0.6-0.4-0.6-0.8c0-0.9,0-1.8-0.4-3c-0.4-1.3-1.2-2.8-4.7-3.1c-2.4-0.3-11.3-0.5-12.9-0.5
			c-0.5,0-0.6,0.3-0.6,0.6v7.9c0,3.1-0.1,13.5,0,15.4c0.3,6.2,1.6,7.4,10.4,7.4c2.3,0,6.3,0,8.6-1s3.4-2.8,4-6.5
			c0.2-1,0.4-1.3,0.8-1.3c0.5,0,0.5,0.7,0.5,1.3c0,0.7-0.7,6.8-1.2,8.7c-0.6,2.3-1.3,2.3-4.9,2.3c-6.8,0-11.7-0.2-15.2-0.3
			c-3.5-0.2-5.7-0.3-7-0.3c-0.2,0-1.7,0-3.6,0.1c-1.8,0-3.9,0.2-5.2,0.2c-1,0-1.4-0.2-1.4-0.7c0-0.3,0.2-0.5,0.7-0.5
			c0.8,0,1.9-0.2,2.7-0.4c1.8-0.4,2.2-2.3,2.6-5c0.5-3.8,0.5-10.9,0.5-19.5L700.1,30.3L700.1,30.3z"/>
	</g>
	<g>
		<rect x="603" y="117" class="st1" width="0.6" height="3.3"/>
	</g>
</g>
<g>
	<g id="dice_2_">
		<ellipse class="st0" cx="369" cy="37.3" rx="36" ry="35.3"/>
		<path class="st2" d="M369.7-1.4c-19.5,0-35.3-15.8-35.3-35.3S350.2-72,369.7-72"/>
		<g transform="rotate(-13.163 356.66 374.48)">
			<g id="XMLID_1_">
				<g>
					<path class="st3" d="M472.1,44c-0.8,0-1.6,0.4-2.6,1c-1.8,1.4-2.8,3.8-2.3,5.1c0.6,1.5,2.5,1.5,4.3,0.1
						c1.8-1.4,2.8-3.8,2.3-5.1C473.5,44.4,472.9,44,472.1,44z M469.1,69.9l-26.6,10c-0.5,0.3-0.4,0.1-0.4-0.4l6.6-30.1
						c0.1-0.4,0.1-0.5,0.6-0.8l27-9.5c0.1,0,0.3,0,0.3,0c0.1,0,0.1,0,0,0.3l-6.9,29.8C469.8,69.6,469.6,69.6,469.1,69.9z
						 M446.1,75.5c0.6,1.4,2.5,1.4,4.3,0c1.8-1.4,2.8-3.8,2.3-5.1c-0.3-0.8-0.9-1.1-1.6-1.1c-0.8,0-1.6,0.4-2.6,1.1
						C446.6,71.8,445.6,74.1,446.1,75.5z M461.4,62.7c1.8-1.4,2.8-3.8,2.3-5.1c-0.3-0.8-0.9-1.1-1.6-1.1c-0.1,0-0.1,0-0.4,0
						c-0.6,0-1.5,0.4-2.3,1c-1.8,1.4-2.8,3.8-2.3,5.1C457.8,64.1,459.6,64.1,461.4,62.7z"/>
					<path class="st3" d="M464.4,37.7c2.4,0.6,4.5,0,4.8-1.3c0.3-1.3-1.4-2.6-3.6-3.1c-0.5-0.1-1.1-0.1-1.6-0.1
						c-1.6,0-2.8,0.6-3.1,1.4C460.5,35.8,462.1,37.2,464.4,37.7z M461.3,30.7c0.3-1.3-1.4-2.6-3.6-3.1c-0.5-0.1-1.1-0.3-1.6-0.3
						c-1.5,0-2.8,0.6-3.1,1.5c-0.3,1.3,1.4,2.6,3.6,3.1C458.9,32.5,461,32,461.3,30.7z M448.9,26.2c2.4,0.5,4.5,0,4.8-1.3
						c0.4-1.3-1.4-2.6-3.6-3.1c-0.5-0.1-1.1-0.1-1.6-0.1c-1.6,0-2.9,0.5-3.1,1.4C444.9,24.3,446.6,25.7,448.9,26.2z M445.7,39.6
						c-0.3,1.3,1.4,2.6,3.6,3.1c2.4,0.5,4.5,0,4.8-1.3c0.3-1.3-1.4-2.6-3.6-3.1c-0.5-0.1-1.1-0.1-1.6-0.1
						C447.4,38.2,446.1,38.8,445.7,39.6z M433.9,30.7c2.4,0.6,4.5,0,4.8-1.3c0.3-1.3-1.4-2.6-3.6-3.1c-0.5-0.1-1.1-0.1-1.6-0.1
						c-1.5,0-2.8,0.6-3.1,1.4C430,28.8,431.6,30.2,433.9,30.7z M441,32.2c-1.5,0-2.8,0.6-3.1,1.4c-0.3,1.3,1.4,2.6,3.6,3.1
						c2.4,0.5,4.5,0,4.8-1.3c0.3-1.3-1.4-2.6-3.6-3.1C442.1,32.2,441.5,32.2,441,32.2z M447.7,46.4l-23.5-18.8
						c-0.3-0.1-0.3-0.3,0-0.3l26.5-7.8c0.3-0.1,0.5-0.1,0.6-0.1c0.3,0,0.5,0.1,0.9,0.5l23.1,16.9c0.6,0.4,0.6,0.4,0,0.6L449,46.6
						C448.4,46.7,448.1,46.7,447.7,46.4z"/>
					<path class="st3" d="M441.7,54.9c1.3-0.9,1.5-3.4,0.6-5.5c-0.8-1.8-1.9-2.8-3-2.8c0,0-0.1,0-0.3,0.1c-0.3,0-0.5,0.1-0.8,0.3
						c-1.3,0.8-1.5,3.3-0.6,5.4C438.6,54.6,440.5,55.7,441.7,54.9z M437.6,74.4c1.3-0.9,1.5-3.4,0.6-5.5c-0.8-1.6-1.9-2.8-3-2.8
						c-0.1,0-0.1,0-0.3,0c-0.3,0-0.5,0.1-0.8,0.4c-1.3,0.9-1.5,3.4-0.6,5.5C434.6,74.1,436.4,75.3,437.6,74.4z M439.4,79.1
						l-22.6-19.5c-0.3-0.3-0.4-0.4-0.3-0.6l6-29.9c0-0.1,0.1-0.3,0.1-0.3s0.1,0,0.3,0.1l23.6,18.9c0.3,0.3,0.4,0.5,0.3,0.9L440.1,79
						C440,79.6,439.9,79.6,439.4,79.1z M420.5,53.6c-0.1,0-0.1,0-0.3,0c-0.3,0-0.5,0.1-0.9,0.3c-1.3,0.9-1.5,3.4-0.6,5.5
						c0.9,2.1,2.8,3.3,4,2.4c1.3-0.8,1.5-3.3,0.6-5.4C422.7,54.7,421.6,53.6,420.5,53.6z M427.4,37.1c-0.8-1.6-1.9-2.8-3-2.8
						c-0.1,0-0.1,0-0.3,0c-0.3,0-0.5,0.1-0.8,0.4c-1.3,0.9-1.5,3.4-0.6,5.5c0.9,2.1,2.8,3.3,4,2.4C428,41.7,428.2,39.2,427.4,37.1z
						 M432.1,58.4c1.3-0.9,1.5-3.4,0.6-5.5c-0.8-1.8-1.9-2.8-3-2.8c-0.1,0-0.1,0-0.3,0.1c-0.3,0-0.5,0.1-0.8,0.3
						c-1.3,0.8-1.5,3.3-0.6,5.4C429,58.1,430.9,59.2,432.1,58.4z"/>
				</g>
			</g>
		</g>
	</g>
</g>
</svg>
