<svg xmlns="http://www.w3.org/2000/svg" viewBox="0 0 400 400"><circle cx="200" cy="200" r="191.5" fill="#60af43"/><path d="M200 9c25.8 0 50.8 5 74.3 15 22.7 9.6 43.2 23.4 60.7 40.9s31.3 38 40.9 60.7c10 23.5 15 48.6 15 74.3s-5 50.8-15 74.3c-9.6 22.7-23.4 43.2-40.9 60.7s-38 31.3-60.7 40.9c-23.5 10-48.6 15-74.3 15s-50.8-5-74.3-15c-22.7-9.6-43.2-23.4-60.7-40.9s-31.3-38-40.9-60.7C14 250.8 9 225.8 9 200s5-50.8 15-74.3C33.6 103 47.4 82.5 64.9 65s38-31.3 60.7-40.9C149.2 14 174.2 9 200 9m0-1C94 8 8 94 8 200s86 192 192 192 192-86 192-192S306 8 200 8h0z"/><g fill="#101006"><path d="M207.8.2C147.8-2 96.1 19.1 54.7 62.7 18.3 101.1.1 147.4 0 200.4-.2 310.2 89.4 400.6 199.8 400c110.7.7 201.1-89.8 200.2-201.1C399.1 87.3 311 3.9 207.8.2zm-7.7 381c-99 0-182.2-80.6-180.4-184.7C21.4 103.1 98.5 16.1 209 20.2c88.8 3.2 174.5 78.3 171.9 185.9-2.3 94.2-80.2 175.1-180.8 175.1z"/><g fill-rule="evenodd"><path d="M288.4 151.5c-.3-.2-2 .2-2.4.5-.8.4-1.5 1-2.3 1.6-1-1.3-.3-2.3.4-3.4.3-.6.9-1.6.9-2.3-1-.2-2.4.3-3.1.7-.8.3-2 1.3-2.7 1.7-.2-.1.5-3.7 1.1-5.1-1.9.5-4.1 2-5.5 3.6-.5-1.8-.3-3.1 0-4.6-.6 0-3.5 1.9-3.4 3.7.1.8 0 1.9-.5 2.4-1.6 1.7-1.7 3.8-1.2 5.8.5 2.1 1.3 4.2 2.1 6.2 1 2.6.3 5.8-1.6 7.8-1.7 1.8-3.9 1.8-6 2.1-1.4.3-1.9-.7-1.8-2.1.1-.8-.2-1.6-.3-2.5l-5 2.2c0-2 1.9-3.5.6-4.9-1.6.3-2.9.8-4.1.7-.9-.1-2-.7-2.4-1.4-.7-1.1.7-1.4 1.2-2.1.1-.1.1-.2.1-.5-1.2-1.3-2.8-.6-4.3-.6-.9 0-1.9.1-2.6-.3-3.8-2.4-6.5-5.8-9.2-9.3-2.5-3.2-4.7-6.6-7.1-9.9-1.6-2.2-3.2-4.3-5-6.4-2.3-2.6-4.6-5.2-7.1-7.6-1.9-1.8-4.3-3.2-6.2-4.9-2.4-2.1-4.6-4.4-6.7-6.7-1.3-1.4-2.4-2.9-3.6-4.4-1.8-2.3-1.4-5.1-1.8-7.7-.6-4.9 4.2-9.9 9.2-10.1 5.4-.2 10.7-1 16.1-1.5.3 0 .6-.1.8-.1 1.3-.4 2.2-1.9 1.8-3.1s-.8-2.4-1.5-3.3c-.4-.5-2.1-.6-2.1-.5-.6 1.6-2.2 1.8-3.4 2-3.2.7-6.5 1.2-9.5-1-1.7-1.3-2.6-3.8-1.8-5.3 1.4-2.4 3.2-4.5 5.9-5.7 3.1-1.4 5.7-.6 7.1 2.5.1.3.3 1 .4 1.3.2-.1.9-2.4 1-3.2 0-1 .7-1.3 1.5-.5.6.7 1 1.6 1.5 2.4.2.3.3.6.7 1.3.2-1.2.3-1.9.6-2.6.2-.5.5-1.2 1-1.4 2-.9 3.3-2.8 3.4-5 .1-2.5.4-5 2.3-7 .6-.7.8-2 1-3s-.4-1.7-1.4-1.8c-1.9-.2-3.9-.7-5.6-.3-4.7 1.2-9.2.1-13.7-.9-.6-.1-1.3-.8-1.6-1.4-.9-1.5-1.6-3.2-2.6-4.7-.3-.5-1.1-1.1-1.7-1.1-2.4-.3-4.9-.4-7.4-.5-4.4-.3-8.8-.2-13 1.7-1.7.7-2.1.5-2-1.3.2-3-4.9-5.8-7.2-5.2-3.8.9-6.8 3.3-9.9 5.3-3 2-3 6.3-.4 8.3.6.5 1.5.8 2.4 1.3-.5.8-.7 1.6-1.3 2-3.7 2.6-7.3 5.3-10.3 8.8-3.5 4-6.8 8.1-8.8 13.1-2.7 6.8-4.1 13.8-4.3 21-.1 2-.8 3.5-2.3 4.7-2.6 2.3-4.4 5.2-4.7 8.6-.3 2.9.1 5.8.2 8.7 0 .5-.1 1-.4 1.4-1.6 2.6-4 3.6-7 3.4-1.5-.1-2.2.7-1.7 1.8.9 2.1 1.2 4.8 4.2 5.4.5.1 1.3 1.5 1.2 1.7-1.1 1.3-1.2 3.5-3.3 4.1-1.2.3-2.2 1.1-3.4 1.7 1.7 2.4 3.7 3.8 6.6 3.8 1.3 0 1.7.6 1.2 1.9-.8 1.7-1.3 3.5-2.1 5.2-.6 1.2-1.5 2.1-2.3 3.2-.3.5-.8 1.1-.7 1.7.1.5.7 1.1 1.1 1.2 1.2.3 2.5.4 3.7.4 2.2 0 2.6.6 1.8 2.7-.3.9-.8 2.1-.4 2.7 1.2 1.8.3 3.1-.5 4.5-.4.7-.3 1.5-.5 2.3.9.1 1.8.4 2.6.1 1.2-.4 2.2-1.1 3.7-1.9l3.5 7c1.7 3.6 2.7 7.4 2.2 11.3-.6 4.4-2.1 8.7-3.1 13-.8 3-1.8 6-2.1 9.1-.4 4.8-.4 9.7-.4 14.6 0 1.9-.8 3.2-2 4.5-2.1 2.4-3.5 5-3.3 8.5.2 3.2-.1 6.5-.5 9.7-.1 1-.9 2.1-1.6 3-1.5 1.8-3.1 3.4-4.7 5.1 1.2 1.1 7.7 1.2 9.3.1 1.3-.9 2.2-.7 2.3.9.1 1.7-.5 3.4-.6 5.1-.1 1.1-.1 2.4.4 3.2 1 1.3 1.1 2.4.1 3.7.8 1.2 1.9 2.4.3 3.5-1.3.9-.8 1.4.2 1.9 1.5.6 1.9 1.7 1.8 3.2-.1 1.4-.2 2.7-.2 4.1 0 1.2.1 2.2 1.8 2 .3-.1 1.2.8 1.1 1.1-.1.9-.6 1.7-.9 2.6-.2.7-.5 1.4-.4 2 0 .3 1 .4 1.5.5.6.2 1.3.2 1.7.6 1.3 1.1 1.8 2.7 1.5 4.3-.6 3.2-3.1 4.5-5.7 5.8-1.5.7-3 1.3-4.6 2 2.8 3.3 6.9 3 10.5 4.6-1 .8-1.7 1.6-2.5 2-1.1.5-2.4.6-3.6.9-.6.1-1.2.1-1.8.2.2.7.3 1.6.8 2.2 1.5 1.9 3.5 2.8 5.8 3.1.7.1 1.3 1.3 2 1.9-.6.4-1.2.6-1.7 1.1-.4.3-1 1-.9 1.3.2.6.7 1.3 1.2 1.5 1.2.4 2.5.5 3.6.9.5.2.7 1.1 1.1 1.7-.6.2-1.1.5-1.7.7-.5.2-1.3.4-1.3.6 0 .6.1 1.5.6 1.8 1 .7 2.3 1.1 3.4 1.7 1 .5 2 1 2.7 1.7.4.3.3 1.2.3 1.9 0 .1-.9.3-1.3.3-.6 0-1.1-.1-2.2-.3.8 1.3 1.2 2.7 2 3.2 2.3 1.3 4.8 2.4 7.2 3.4 3 1.3 5.5 3.2 6.3 6.4.8 3.3 1 6.8 1.7 10.2.3 1.6.6 3.4 1.4 4.8 1.5 2.8 5.6 3.3 7.8 1.1 2.8-2.8 5.5-5.8 8.4-8.6 2.9-2.7 5.9-5.5 9.9-6.7 1.9-.6 3.8-1.4 5.8-1.8 3.2-.7 6.5-1.1 9.7-1.7 1.4-.2 3-.2 4-.9 1.9-1.3 5-3 7.9-1.8-.4-2.1-1.6-3.8-4-4.1-1.5-.2-1.1-1.5-.8-2.3 1-2.5 4.9-2.1 4.9-2.1-1.6-2.8-3.3-3.7-5.1-3.6 1.1-3.6 4.9-2.3 6.1-2.5-2.2-2.5-4-4.2-7.4-3.6-1 .2-1.5-.7-1.5-1.7 0-1.6 2.2-3.7 3.7-4-.9-.7-3.8-1-4.8-.7-.8.2-1.6.7-2.3 1.2-.8.6-1.2 1.8-2.1 2.2-3.9 1.9-6 5.7-9.1 8.4-2.2 1.9-4.4 3.8-6.8 5.3-1 .6-2.5.7-3.7-.5-3.4-3.4-4.7-7.8-5.7-12.2-1.1-4.7-1-9.7-.3-14.5.1-1-.5-2-.6-3-.2-1.3-.8-3-.3-4 .7-1.4 2.2-1.7 4-.8 1.3.7 3 .6 4.5.7.4 0 .9-.3 1.5-.6-3.1-2.7-2.9-4 .5-5.6 2.1-1 2.4-1.7 1.2-3.7-.2-.3-.3-.7-.4-1.2 1.7-1 4.4-.2 4.9-3.1-1-.3-2.1-.7-3.1-1v-.5c1.3-.6 2.7-1.2 4-1.9 2.1-1.2 2.8-2.1 1.8-4-.8-1.3-1.3-2.8-2-4.1-2.3-4.3-.4-9.1 4.5-10.8 4.3-1.5 10.9.6 13.7 4.2 1.7 2.2 3.4 4.4 4.9 6.8 1.7 2.6 2.6 5.4 3.6 8.2 1.3 3.6 1.9 7.4 2.9 11.1.5 2.1 2.1 3.1 4.3 3.5 2.4.4 4.1-1 5.8-2.1 3.9-2.5 5.4-6.9 7.7-10.7 1.2-2 2.2-4.2 3.9-5.6 3-2.6 6.4-4.6 9.5-7 1.2-.9 2.1-2 3.1-3 .4-.4.9-.7 1.4-1 1.8-1.1 3.1-2.3 5.2-2a29.85 29.85 0 0 0 2.1.3c-.4-1.4-1.9-4-3.9-4.3-.3 0-.6-.4-1.4-1l6.8-2.8c-1.6-1-3-1.9-4.4-2.6-.5-.3-1.3-.1-1.9-.1-.4 0-.8.2-1.1.1-.2-.1-.3-.6-.2-.9.2-.5.5-1.2.9-1.5 1.3-.8 2.6-1.4 3.9-2.1-1.2-2.2-3.8-3.3-6.2-2.6-1.4.4-1.7-.2-1.6-1.3 0-.5.3-1.1.6-1.5 1.1-1.3 2.2-2.5 3.6-4l-3.8-.3c-3.2-.4-5.4 2.4-6.6 4.5-.4.8-1.2 1.7-2 1.9-1.8.5-2.4 1.5-2.2 3.3.5 4.1-2.2 6.8-4.8 9.1-3.2 2.9-11.1 2.6-14.5-.3-1.4-1.2-2.8-2.5-3.7-4-.8-1.5-1.4-3.5-1.2-5.2.3-3.5 3-5.1 6.5-4.6 1.6.2 3.3-.2 4.8-.6.5-.1.9-1.2 1.3-1.8-.6-.3-1.1-.6-1.7-.8-.5-.2-1.1-.4-1.7-.5 0-.2 0-.4.1-.6l1.4-.3c.6-.2 1.2-.5 1.8-.8-.4-.6-.7-1.3-1.2-1.9-1-1.2-2.2-2.2-3-3.5s-.1-2.4 1.5-2.9c2-.7 4.3-1 5.7-2.9.2-.3.4-1 .2-1.3-.3-.4-.9-.6-1.4-.6-.9 0-2 .6-2.6.2-1.8-1-3.5-2.2-4.9-3.7-2.3-2.5-4.1-5.3-6.4-7.8-1.2-1.2-2.9-2.2-4.5-2.7-5.3-1.4-10.4-.3-15.2 2.1-1.5.8-2.9.3-3.2-1.3-.3-1.9-.3-3.9-.4-5.8 0-.5.4-1 .8-1.5 1.5-1.8 3.1-3.4 4.6-5.2 2.8-3.5 5.3-7.1 4.9-12-.1-1.6 1.7-2.6 2.8-1.6.7.5 1.2 1.4 1.5 2.2.5 1.4 3.1 3.5 4.6 3.5.3 0 .6-.2 1-.3-.3-.4-.5-.8-.7-1.1-.9-1.4-.7-3.6.3-4.4 1.6-1.2 2.5-1.2 4.1.5.6.6.8 1.7.9 2.6.1 1.7.5 2.2 2 1.4 1.6-.8 2.4-2.2 2.5-4 .1-1.4 1.6-2.1 2.4-1.3.9 1 1.8 2.2 1.2 3.7-.7 1.5.2 1.8 1.3 1.6.8-.1 1.6-.6 2.3-1 .8-.5 1.6-1 2.6-1.7.3 1.4.6 2.5.9 3.8 1.4-.8 2.6-1.7 3.9-2.2 1.8-.8 3.6-1.6 5.4-1.9 3.5-.7 6.5 1.2 9.2 3 2.5 1.7 5.2 1.9 8.1 1.6 2.8-.3 5.2-3.1 5.2-5.7 0-3-.7-5.9-.6-8.9.1-2.9.4-5.8 1.2-8.6.6-2 2.4-3.7 3.3-5.7.7-1.4 1-3.1 1-4.6-.1-2.8-1.2-5.6.2-8.4.5-1.1.6-2.4.6-2.4zm-89.3-88c.2-3.1 2.5-5.4 5.3-5.1 1.9.2 5.3 3.1 5 5.6-.3 2.7-2.9 4.9-5.9 4.8-2.9-.2-4.6-2.1-4.4-5.3z"/><path d="M231.6 110.3c-1.1.9-2 2.1-3.1 3.1-.3.3-.8.7-1.3.7-2.3.1-4.5.6-6.7 1.5s-4.6 1.2-6.9 1.8c-.1 0-.1.2-.4.5.7 1.1 1.3 2.4 2.2 3.4 2.1 2.1 4.2 4.3 6.6 6 1.9 1.4 4.3 2.3 6.4 3.4 1.1.6 1.4 1.5 1.7 2.8a23.9 23.9 0 0 0 2.1 6.2c1.3 2.5 3.3 4.4 5.7 6 2 1.3 1.9 1.5 2.8-.7 1.7-4.1 3.7-4.5 7.1-1.6.2.2 1.1.1 1.4-.2 2-1.8 1.6-4.3 1.7-6.5.1-2.1.7-2.7 2.7-2 1.3.5 1.8-.2 2.2-1.2.2-.6.1-1.3.3-1.9.3-1 .9-1.3 1.8-.7 1.4 1.1 1.7 1 2.6-.5.3-.6.9-1.3 1.4-1.4 2.6-.6 2.7-.5 2.4-3.4-.3-3 1.4-4.5 4.4-3.6 1.1.3 2-.3 1.7-1.3-.5-1.6-.1-2.9.6-4.4 1.5-3.3 4.2-5.1 7.4-6.4 1.8-.7 3.7-1.4 3.6-3.9-.1-1.6 0-3.3-.3-4.9-.4-2.2-1.2-4.2-1.5-6.4-.3-2.1-.1-4.2-.1-6.4 0-1-.1-2.2.4-3 1.4-2.7 2.5-5.6 3.2-8.6.4-1.6.4-3.1-.1-4.7-.3-1.2-.5-2.6-.1-3.9.3-1.1.9-2.4 2.1-3.2-1.7-1.1-2.9-.8-4 .9-.4.6-1.2.8-1.8 1.2-.6-.5-.8-1.3-.8-1.9 0-.8.2-1.5.3-2.3s.6-1.5 1.1-2.4c-.5 0-1.9-.2-2.3 0-1.2.9-2.8 1.9-2.8 4.9-.3 0-.5.1-.8.1a7.13 7.13 0 0 1-1.4-2.9c-.2-.7 0-2.1.4-3-.7.2-2.1.3-2.6.8-.6.5-1 1.4-1.3 2.1s-.4 1.4-.8 2.1c-.2.3-.7.7-1.1.7-.7 0-1.3-1.9-1.5-2.6-.2-.6.2-1.9.6-2.5-1.2.1-2.3.9-2.7 1.5-.3.5-.4 1.3-.4 2l.3 9.1c0 .6.3 1.1.4 1.7l.9 3.3.7 5.1c1 5.9.3 11.5-2.4 16.8-1.4 2.7-4.1 4.3-6.6 5.7-2 1.1-4.5 1.5-6.8 2.2-5.2 1.5-10.5 2.2-15.9 2.2-.9-.3-2 0-2.7.6zm-11.8-30.1c-3.6-.1-6.2 1.4-8.3 4.5.8-.2 1.6-.1 2.2-.5 2.6-1.5 5.3-2.6 8.4-2.1l8.2.9c1.2.1 2.5.1 3.5-.3 1.6-.6 3.1-1.7 4.5-2.6.2-.1.5-.5.4-.6-.1-.2-.5-.6-.7-.6-.6 0-1.1.2-1.6.4-.9.3-1.9 1-2.8 1-4.5.1-9.2.1-13.8-.1zm-15.6-13.5c1.1 0 3.1-2.1 3.1-3.3s-1.9-3-3.2-3c-1.2 0-3.2 1.8-3.2 3s2.2 3.4 3.3 3.3z"/></g></g></svg>