<?xml version="1.0" encoding="utf-8"?>
<!-- Generator: Adobe Illustrator 23.0.0, SVG Export Plug-In . SVG Version: 6.00 Build 0)  -->
<svg version="1.1" id="Layer_1" xmlns="http://www.w3.org/2000/svg" xmlns:xlink="http://www.w3.org/1999/xlink" x="0px" y="0px"
	 viewBox="0 0 493.2 405.7" style="enable-background:new 0 0 493.2 405.7;" xml:space="preserve">
<style type="text/css">
	.st0{display:none;}
	.st1{display:inline;}
	.st2{fill:#1A1A1A;}
</style>
<g class="st0">
	<g class="st1">
		<path class="st2" d="M327.7,141.2c0,0,0.2-1.2,4.6-5.9s12-1.4,12-1.4s-4.4-6.8-11-6.4c-6.6,0.5-10.2,7.3-10.2,7.3
			s-2.7-6.1,1.7-11.5c4.4-5.4,14.2-2,14.2-2s-1.2-10.3-16.4-6.8c-15.2,3.5-11,23.2-11,23.2s-2.4-1-4.2-4.4s1-9.5,1-9.5
			s-7.9,2.4-8.3,12.7c-0.5,10.3,7.3,12.3,7.3,12.3s4.4,21.7-5.1,29.3s-28.1-2-28.1-2c3.9-4.9,4.2-12,4.2-12v-28.2
			c0,0,17.6-4.6,19.1-18.9c1.5-14-6.3-25-6.3-25c2.2,20.5-15.7,26.4-15.7,26.4h-28.9h-28.9c0,0-17.9-5.8-15.7-26.4
			c0,0-7.8,11-6.4,25.2c1.4,14.2,19.1,18.9,19.1,18.9v28.1c0,0,0.2,7.1,4.2,12c0,0-18.6,9.5-28.1,2s-5.1-29.3-5.1-29.3
			s7.8-2,7.3-12.3s-8.3-12.7-8.3-12.7s2.7,6.1,1,9.5s-4.2,4.4-4.2,4.4s4.2-19.8-11-23.2c-15.2-3.4-16.4,6.8-16.4,6.8s9.8-3.4,14.2,2
			c4.4,5.4,1.7,11.5,1.7,11.5s-3.6-6.8-10.3-7.3c-6.6-0.5-11,6.4-11,6.4s7.6-3.2,12,1.4s4.6,5.9,4.6,5.9s-9.5-0.5-12.5,4.2
			c-2.9,4.6-1.2,9.3-1.2,9.3s1-5.4,6.6-4.9s7.8,1.7,7.8,1.7s-4.2,26.4-2.7,37.2c1.4,10.8,11,18.3,11,18.3l-2.4-9.3
			c0,0,4.6,5.1,12.7,7.6s27.9-0.8,27.9-0.8l1.1,26.4c0,0-33-4.7-42.2,8.8c-9.2,13.6-1.4,31.2-1.4,31.2l2.2-9.2c0,0,1.1,8.4,7.3,19.4
			s6.2,11,6.2,11s-8.8,2.5-11.4,8.8c-2.5,6.2-2.2,12.8-2.2,12.8l39.6-19.1c0,0-13.7-21.1-14.2-25.5s0-7.9,0-7.9s25.3,2.5,48.9,2.5
			s48.9-2.5,48.9-2.5s0.5,3.5,0,7.9s-14.2,25.5-14.2,25.5l39.6,19.1c0,0,0.3-6.6-2.2-12.8s-11.4-8.8-11.4-8.8s0,0,6.2-11
			s7.3-19.4,7.3-19.4l2.2,9.2c0,0,7.7-17.6-1.4-31.2c-9.2-13.6-42.2-8.8-42.2-8.8l1.1-26.4c0,0,19.8,3.2,27.9,0.8s12.7-7.6,12.7-7.6
			l-2.4,9.3c0,0,9.5-7.6,11-18.3c1.4-10.8-2.7-37.2-2.7-37.2s2.2-1.2,7.8-1.7c5.6-0.5,6.6,4.9,6.6,4.9s1.7-4.6-1.2-9.3
			C337.3,140.6,327.7,141.2,327.7,141.2z"/>
	</g>
	<g class="st1">
		<path class="st2" d="M169.2,287.9c0,0-4.3,13.3,0,18s36.6,10.6,39.3,6.3c2.7-4.3-19.6-15.3-19.6-15.3l2-8.3l52.6-5.3
			c0,0,1.2,6,2.7,12.5l-3.7,13.4c0.5,0,2.2-3.6,4.7-9.3c1.4,5.8,3,11.1,4,11.8c2.3,1.7,37.6-3.7,37.6-9.7s-23.3-10.6-23.3-10.6
			s-1.7-15.3-4.1-27.6c7.5-20,15.1-41.3,17.9-51.3c2.2-7.8,6.5-21.6,11.4-36.7c3.7,0.8,7.3,2,9,0.8c3.3-2.3,3.3-8.7,3.3-10
			c0-0.9-3.2-4.2-7.1-6.5c7.4-22,15.2-43.2,19.3-49.6c8-12.4,11.1-12,18.2-19.1s8.9-11.1,9.8-17.7c0.9-6.7-2.2-12.4-6.2-16.9
			c-4-4.4-13.3-4.9-20.9,4c-7.5,8.9-13.3,15.5-16.9,43.5l-15.3,55.2c-6.1,3-13.9,9.9-21.9,13.6c-5.4,2.5-13.3,2.4-19.5,1.7
			c-0.4-7.9,0.9-13.6,0.9-17.5c0-5.3-3.3-10.8-3.3-10.8l2-7.2c0,0,7.2,3.5,7.8,2.8c0.7-0.7-1-13.8-1-13.8s15.8,5.5,21.3,8.2
			s2.7-4.8-4.3-10.8s-16.8-15-16.8-15s2.3-65.2-3.3-73.6c-5.7-8.3-44.9-4.3-47.3,0c-2.3,4.3,23.3,8,27.3,11.6
			c4,3.7-21.6,52.9-21.6,52.9s-34.9,9.7-35.9,14s28.3,4,28.3,4l-3.3,9c0,0-11.3,3.3-13,14c-1.7,10.6-2.7,21.6-7,30.6s-8.7,9-8.7,9
			s7.3,5.7,13,3c0,0-2,17-7,21.6s-11.3,3.7-11.3,3.7s12.6,9.7,20,2.7L150,288.1h19.2V287.9z M239.4,200.4c0,0,7.3,9,12.6,10.3
			c5.3,1.3,10.6,0.3,10.6,0.3s-11.3-9.7-16.6-20.4c15.8-1.1,26.7-8,32.5-12.2l-20.3,73.3c-0.4-1.1-0.8-1.9-1.2-2.5
			c-4.3-5.7-16-12.6-16-12.6L239.4,200.4z"/>
	</g>
</g>
<g>
	<g id="layer101">
		<path d="M213.7,480.3c-9.5-0.3-10.1-0.7-7.1-4.6c1.6-1.9,2.2-2,8.1-2h6.4v-52.7v-52.6l-7.1-0.3l-7.1-0.3v-72.1
			c0-68.3,0.1-72.2,1.6-76.9c2-6.5,7.8-15,12.7-18.9c3.9-3,3.9-3,2.3-4.5c-3.6-3.2-4.8-7.7-4.8-17.5v-9.2l-7.1-0.4
			c-5.3-0.3-8.2-1-11.6-2.6c-5.2-2.6-11.3-8.5-13.6-13.7c-1.9-4-2.3-4.3-4.2-2.3c-0.7,0.9-3.3,3.3-5.9,5.8c-4,3.9-4.5,4.6-3.6,5.9
			c0.9,1.4-0.4,3-13.9,16.3c-8.1,8.1-15.3,14.9-15.9,14.9s-1.2-0.6-1.4-1.2c-0.4-1-5.6-1.2-39.2-1.2H63.8V188v-2.3H39.6H15.8l-2.6-2
			c-2.7-2-5.8-6.2-5.8-7.9c0-1.2,2.2-1.2,3,0.3c1.2,2,4.2,2.9,9.8,2.9c3.2,0,5.8-0.1,5.8-0.4c0-0.3-0.9-1.7-2-3.5
			c-2.3-3.5-4-11.1-3.3-14.2c0.6-2.6,5.5-7.7,7.4-7.7c1.3,0,1.3,0.1,0.3,1.7c-3,4.8-2,12.4,2.5,17.5c3.3,4,5.3,4.3,4,0.7
			c-1.7-4.9,1.2-13.3,5.8-16.6c2.7-2,9.7-3.3,9.7-1.9c0,0.4-1.2,1.7-2.6,2.5c-3,1.9-7.1,9-7.1,12.6c0,1.6,0.9,3.2,2.6,4.9
			c1.4,1.4,3,2.6,3.3,2.6s1.7-1.2,2.9-2.5c2.2-2.3,2.6-2.5,7.7-2.5h5.3L62,169c-0.3-1.9-0.6-4-0.7-4.8c-0.6-2.5-3.9-6.2-5.9-7.1
			c-1-0.4-1.9-1.3-1.9-2c0-1.7,3.6-1.6,7.8,0.6c4.2,2,7.7,8.1,7.7,13.3c0,3.3,0.1,3.3,2.6,3.3c1.4,0,3.6-0.6,4.6-1.4
			c1.9-1.2,5.1-1.3,31.9-1.6L138,169l1.6-3.3c0.9-1.7,5.2-6.8,9.5-11.3c6.8-6.6,8.4-7.9,9.7-7.4c1.2,0.6,2.2,0.1,3.9-1.6
			c1.3-1.3,2.3-2.5,2.2-2.6c-0.1-0.1-2.5-1.9-5.2-3.9c-9.8-7.2-16.6-18.5-18.2-30.8c-0.6-4.8-0.7-6.9-0.1-7.7
			c0.6-0.6,11.3-0.9,32.5-0.7c28.8,0.1,31.9,0.1,35,1.6c3.9,1.7,10.7,8.7,11.4,11.8c2,8.2,1.9,8.1,4.6,7.7c1.4-0.3,2.9-0.9,3.2-1.3
			c1.2-1.9,0.6-8.5-1-11.1c-1.2-1.9-1.6-4-1.6-7.5s-0.3-5.1-1.2-5.3c-0.6-0.3-1.7-2-2.6-4c-0.9-2-2.2-3.9-3-4.2
			c-0.9-0.3-2.3-1.4-3.3-2.6c-1.9-2-2-2.9-2-9.7c0-7.4,0-7.5,1.9-6.9c1,0.3,2.2,0.9,2.5,1.3c1.6,1.3,2.2,0.7,2.2-2.3
			c0-1.7,0.6-5.2,1.2-7.7c0.6-2.6,1.2-7.2,1.2-10.3c0-4.9,0.3-5.8,2.2-7.7c2.6-2.6,3.9-2.3,4.2,1c0.1,1.6,0.7,2.6,1.4,2.6
			c0.6,0,1.2-0.3,1.2-0.7s1.2-1.2,2.5-1.7c2.2-0.9,2.5-1.4,2.5-4c0-3.2,1.9-5.6,4.3-5.6c1,0,1.3,0.7,1.3,3.2v3.2h4.9h4.9v-2.9
			c0-2.6,0.3-3.2,1.4-3.2c2.3,0,4.2,2.6,4.2,5.8c0,2.5,0.4,3,2.5,3.9c1.3,0.6,2.5,1.3,2.5,1.7s0.4,0.7,1.2,0.7s1.3-1,1.4-2.6
			c0.3-3.2,1.4-3.6,3.9-1.3c1.7,1.4,2,2.6,2.5,8.7c0.4,6.1,2.3,19.5,2.7,20.1c0.1,0.1,1.2-0.3,2.5-1c1.3-0.6,2.6-1.2,3-1.2
			c0.3,0,0.6,3.3,0.6,7.5c0,6.8-0.1,7.7-2,9.5c-1,1.2-2.6,2.3-3.3,2.6c-0.9,0.3-2.2,2.2-3,4.2c-0.9,2-2,3.9-2.6,4
			c-0.9,0.3-1.2,1.9-1.2,5.3s-0.4,5.6-1.6,7.5c-1.6,2.6-2.2,9.2-1,11.1c0.3,0.4,1.7,1,3.2,1.3c2.9,0.4,2.6,0.6,4.6-7.7
			c0.7-3.3,7.4-10.3,11.4-11.8c3.2-1.3,6.4-1.4,35-1.6c21.1-0.1,31.9,0.1,32.5,0.7c0.6,0.6,0.6,2.9-0.1,7.7
			c-1.6,12.3-8.4,23.6-18.2,30.8c-2.7,2-5.1,3.8-5.2,3.9c-0.1,0.1,0.9,1.3,2.2,2.6c1.9,1.7,2.7,2.2,3.9,1.6c1.3-0.6,2.9,0.7,9.7,7.4
			c4.5,4.5,8.8,9.5,9.5,11.3l1.6,3.3l29.9,0.3c26.9,0.3,30.1,0.4,31.9,1.7c1,0.7,3.2,1.3,4.6,1.3c2.6,0,2.6-0.1,2.6-3.3
			c0-5.3,3.3-11.4,7.7-13.3c4-2,7.8-2.3,7.8-0.6c0,0.7-0.9,1.6-1.9,2c-2.2,0.9-5.3,4.6-5.9,7.1c-0.1,0.7-0.4,2.9-0.7,4.8l-0.4,3.3
			h5.3c5.1,0,5.6,0.1,7.7,2.5c1.2,1.3,2.6,2.5,3,2.5c1.7,0,5.9-5.3,5.9-7.5c0-3.6-3.9-10.8-7.1-12.6c-1.4-0.9-2.6-2-2.6-2.5
			c0-1.6,6.9-0.3,9.7,1.9c4.6,3.3,7.5,11.7,5.8,16.6c-1.3,3.6,0.6,3.3,4-0.7c4.5-5.1,5.5-12.9,2.5-17.5c-1-1.7-1-1.9,0.3-1.9
			c1.9,0,6.6,5.2,7.4,7.7c0.9,3-1,10.7-3.3,14.2c-1.2,1.7-2,3.2-2,3.5c0,0.3,2.6,0.4,5.8,0.4c5.6,0,8.7-0.9,9.8-2.9
			c0.9-1.3,3-1.4,3-0.3c0,1.7-3,5.9-5.8,7.9l-2.6,2h-24h-24.1v2.3v2.2h-38.7c-33.5,0-38.7,0.1-39.2,1.2c-0.3,0.6-0.9,1.2-1.4,1.2
			s-7.8-6.6-15.9-14.9c-13.4-13.3-14.7-14.9-13.9-16.3c0.9-1.3,0.4-2-3.6-5.9c-2.6-2.5-5.2-5.1-5.9-5.8c-1.9-2-2.3-1.9-4.2,2.2
			c-2.5,5.2-8.4,11.1-13.6,13.7c-3.3,1.6-6.2,2.3-11.4,2.6l-7.1,0.4v9.2c0,7.9-0.3,9.7-1.7,12.9c-1,1.9-2.5,4-3.2,4.8
			c-1.3,1.2-1.2,1.4,2.5,4.3c4.6,3.6,10.5,12.3,12.7,18.5c1.4,4.2,1.6,8.1,1.6,76.9v72.4l-7.1,0.3l-7.1,0.3v52.6v52.7h6.4
			c5.9,0,6.5,0.1,8.1,2c3.2,4,2.9,4-14.7,4.8c-9.1,0.3-17.2,0.3-18.1,0.1c-0.9-0.3-1.9-1.3-2.2-2.5c-0.3-1.2-0.4-26.3-0.4-56.1
			v-54.2h-4h-4l-0.1,55.8c-0.3,48.4-0.4,55.8-1.4,56.5C239.4,480.7,233.2,480.9,213.7,480.3z"/>
	</g>
</g>
</svg>
