<?xml version="1.0" encoding="utf-8"?>
<!-- Generator: Adobe Illustrator 23.0.0, SVG Export Plug-In . SVG Version: 6.00 Build 0)  -->
<svg version="1.1" id="Layer_1" xmlns="http://www.w3.org/2000/svg" xmlns:xlink="http://www.w3.org/1999/xlink" x="0px" y="0px"
	 viewBox="0 0 400 400" style="enable-background:new 0 0 400 400;" xml:space="preserve">
<style type="text/css">
	.st0{fill:#FEF5CC;}
	.st1{fill:#999B9A;}
	.st2{fill-rule:evenodd;clip-rule:evenodd;fill:#999B9A;}
</style>
<circle class="st0" cx="200" cy="200" r="191.5"/>
<path d="M200,9c25.8,0,50.8,5,74.3,15c22.7,9.6,43.2,23.4,60.7,40.9s31.3,38,40.9,60.7c10,23.5,15,48.6,15,74.3s-5,50.8-15,74.3
	c-9.6,22.7-23.4,43.2-40.9,60.7s-38,31.3-60.7,40.9c-23.5,10-48.6,15-74.3,15s-50.8-5-74.3-15c-22.7-9.6-43.2-23.4-60.7-40.9
	s-31.3-38-40.9-60.7C14,250.8,9,225.8,9,200s5-50.8,15-74.3C33.6,103,47.4,82.5,64.9,65s38-31.3,60.7-40.9C149.2,14,174.2,9,200,9
	 M200,8C94,8,8,94,8,200s86,192,192,192s192-86,192-192S306,8,200,8L200,8z"/>
<g>
	<path class="st1" d="M207.8,0.2C147.8-2,96.1,19.1,54.7,62.7C18.3,101.1,0.1,147.4,0,200.4C-0.2,310.2,89.4,400.6,199.8,400
		c110.7,0.7,201.1-89.8,200.2-201.1C399.1,87.3,311,3.9,207.8,0.2z M200.1,381.2c-99,0-182.2-80.6-180.4-184.7
		C21.4,103.1,98.5,16.1,209,20.2c88.8,3.2,174.5,78.3,171.9,185.9C378.6,300.3,300.7,381.2,200.1,381.2L200.1,381.2z"/>
	<path class="st2" d="M64.2,212.3c0.5-0.6,0.9-1.3,1.5-1.9c0.4-0.5,1-0.9,1.3-1.4c0.5-0.9,0.1-1.8-0.9-2c-5.4-1.4-10.4-3.6-15.1-6.6
		c-2-1.3-3.7-3.1-5.5-4.7c-0.3-0.2-0.3-0.7-0.4-1.1c0.4-0.1,0.8-0.3,1.1-0.3l6.7,0.1c6.8-0.2,12.8-2.9,18.2-6.9
		c1.5-1.1,1.4-1.8-0.3-2.7c-2.8-1.5-5.7-3-8.4-4.7c-1-0.6-1.7-1.7-2.7-2.9c0.8-0.1,1-0.2,1.2-0.2c3.5,1.3,6.9,0.6,10.4,0.1
		c3.7-0.5,7.4-0.9,10.9-1.9c3.4-1,6.6-2.6,9.8-4c1.1-0.5,0.9-1.3,0-1.8c-1.3-0.8-2.7-1.4-4-2.2c-2.3-1.5-4.5-3.2-6.7-4.8
		c-0.4-0.3-0.6-0.7-1.2-1.4c0.8-0.1,1.3-0.1,1.8-0.1c3.6,0.2,7.2,0.7,10.8,0.5c4.2-0.2,8.4-0.6,12.5-1.5c3.6-0.8,7.1-2.4,10.6-3.7
		c0.5-0.2,0.9-0.8,1.3-1.3c-0.5-0.4-0.9-0.9-1.5-1.1c-2.5-1.1-5.1-2.1-7.5-3.4c-1.9-0.9-3.6-2.2-5.4-3.3c-0.4-0.2-0.6-0.6-0.9-0.9
		c0.1-0.1,0.1-0.2,0.2-0.4c0.4,0,0.8,0,1.1,0.2c2.9,1.5,6,1.9,9.3,1.5c5.5-0.6,11.1-1.2,16.4-3.1c2.8-1.1,5.5-2.3,8.2-3.7
		c1.4-0.7,1.3-1.4-0.1-2.2c-3.4-1.9-6.7-4.1-9.5-6.9c-0.3-0.3-0.4-0.8-0.7-1.2c0.5-0.1,1-0.3,1.4-0.2c2.2,0.5,4.3,1.1,6.5,1.5
		c2,0.4,4.1,0.8,6.1,0.7c5.3-0.2,10.7-0.6,16-1.2c2.3-0.3,4.5-1.4,6.8-2.2c1.4-0.5,1.4-1.5,0.3-2.4c-1.4-1.1-2.9-2.2-4.3-3.4
		c-1.6-1.5-3.1-3.1-4.6-4.7c-0.3-0.3-0.4-0.8-0.7-1.3c0.1-0.1,0.2-0.2,0.2-0.3c0.8,0.2,1.7,0.3,2.5,0.6c2.8,0.8,5.4,2,8.3,2.5
		c8.1,1.5,16.2,2.1,24.2,0.1c1.8-0.5,1.9-1.2,0.6-2.7c-2.5-3-4.9-6-7.2-9.1c-0.8-1-1.1-2.4-1.6-3.6c0.1-0.1,0.2-0.3,0.4-0.4
		c0.5,0.3,1.2,0.5,1.6,1c2.7,2.6,5.8,4.6,9.3,5.9c2.6,0.9,5.3,1.9,8,2.7c5.8,1.7,11.7,1.5,17.6,1.2c3.8-0.2,7.6-0.8,11.4-1.5
		c1.6-0.3,3.1-1.3,4.7-1.8c1-0.3,2.2-0.7,3.2-0.4c5.2,1.6,10.4,3,15.8,3.9c2.9,0.5,5.7,1.7,8.6,2.6l6.5,1.9c4,1,8,1.8,12.1,2.7
		c1.3,0.3,2.7,0.4,4,0.6c1.2,0.1,2.1,0.6,2.9,1.5c2.9,3.2,5.8,6.3,8.9,9.3c0.7,0.7,1.8,0.9,2.8,1.1c4.3,0.8,8.6,1.3,12.9,2.2
		c6.3,1.3,12.5,3.2,18.5,5.7c2.4,1,5.2,1.2,7.8,1.5c2.4,0.3,4.8,0.4,7.1,0.7c1.7,0.2,2.4,0.9,2.2,2.7c-0.3,3-1.3,5.8-3.5,8
		c-1.4,1.4-2.3,3-2.7,4.8c-1,3.9-3.3,6.6-6.5,8.9c-1.4,1-2.2,2.7-3.5,4c-1.6,1.5-3.2,3-5,4.2c-1.1,0.8-2,1.6-2.5,2.9
		c-1.6,3.9-3.8,7.3-7.5,9.7c-2,1.3-4.2,1.3-6.3,1.4c-1.1,0.1-1-0.8-0.5-1.5c0.9-1.4,1.9-2.8,2.7-4.3c0.4-0.8,0.6-1.9,0.6-2.8
		c0-1-0.6-1.3-1.5-0.7c-1.2,0.8-2.5,1.6-3.8,2.4c-1.7,1.1-3.7,1-5.6,1c-1.2,0-1.8-0.5-1.7-1.8c0.1-0.9,0-1.9-0.1-2.8
		c-0.3-2.2-2.5-3.4-4.5-2.3c-0.8,0.5-1.5,1.2-2.3,1.8c-0.8,0.7-1.5,1.5-2.4,2.1c-1.3,0.9-2.1,0.5-2.6-1c-0.4-1.5-0.8-3-1.4-4.4
		c-0.6-1.7-1.8-2-3.2-0.8c-0.9,0.8-1.8,1.8-2.6,2.7c-2.1,2.3-3.8,2.7-5.9,0.3c-1-1.2-1.9-2.6-2.7-4s-1.9-1.9-3.2-1.1
		c-1.2,0.8-2.3,1.8-3.2,2.9c-1.2,1.5-2,1.7-3.3,0.3c-1.2-1.4-2.2-3-3.2-4.5c-0.3-0.5-0.5-1.1-0.8-1.6c-0.5-0.8-1-0.9-1.9-0.4
		c-2.1,1.3-3.5,3.1-3.5,5.7c0,4.4,3.4,6.5,7.6,5.8c0.8-0.1,1.5-0.4,2.2-0.8c1.5-0.9,2.7-0.4,3,1.4c0.1,0.9-0.1,1.8,0,2.6
		c0.1,0.9,0.3,2.5,0.5,2.5c1.1,0,2.3-0.2,3.4-0.5c0.4-0.1,0.8-0.7,1.1-1c0.8-1,1.5-0.8,2.2,0.1c1.4,1.9,2.2,4.2,2.3,6.5
		c0.1,2.3,0.9,2.8,3,2c2.1-0.7,4.1-1.5,5.8-3c0.7-0.7,1.7-0.4,2,0.5c0.6,1.5,0.9,3.2,1.4,4.8c0.2,0.7,0.5,1.4,0.8,2.1
		c0.7-0.3,1.4-0.6,2-1c0.2-0.1,0.4-0.4,0.5-0.6c1.5-1.9,1.6-2,3.3-0.3c0.9,0.8,1.5,2,2,3.1c0.8,1.5,1.5,1.9,2.9,1
		c1.3-0.9,2.6-1.9,3.7-3c1.4-1.4,2.8-2.7,4.9-3.1c1.2-0.2,1.9,0.2,2,1.3c0.1,1.5,0.1,3-0.2,4.4c-0.9,4.1-3.5,7.2-6.5,9.9
		c-1.3,1.2-2.2,2.5-2.5,4.4c-0.9,4.9-3.2,9.1-7.4,11.9c-2.5,1.6-5.1,3.1-7.7,4.5c-1.3,0.8-2.5,1.6-3.1,3.1c-0.1,0.4-0.6,0.6-0.9,0.9
		c-0.3-0.4-0.8-0.7-0.9-1.1c-0.3-2.4-0.7-4.8,0.2-7.2c0.7-1.9,0.2-2.5-1.8-2.6c-2.9-0.1-5.6,0.4-8,2c-0.3,0.2-0.8,0.2-1.6,0.4
		l1.1-2.2c2.2-3.8,1.8-7.3-1.2-10.5c-4.2-4.5-9.4-5-15-3.6c-7.6,1.9-13.5,6.4-17.8,12.8c-2.5,3.8-4.4,7.9-5.4,12.4
		c-0.7,2.9-1.1,5.8-1.7,8.7c-0.1,0.4-0.5,0.8-0.7,1.3c-0.4-0.2-1-0.4-1.2-0.7c-1.2-2-2.4-4.1-3.5-6.2c-0.8-1.7-1.4-1.9-2.6-0.4
		c-2.5,3.1-4.4,6.6-5.7,10.4c-1.8,4.9-2.4,10-1.9,15.2c0,0.3,0,0.6-0.1,0.8c0,0.1-0.1,0.3-0.3,0.7c-0.5-0.5-1.1-0.8-1.4-1.3
		l-4.1-9.1c-0.6-1.4-1.5-1.9-2.5-0.9c-3.4,3.6-6.1,7.7-7.7,12.4c-1.8,5.1-2,10.5-1.4,16c0.1,1.3,0.3,2.5,0.4,3.8
		c0,0.4-0.2,0.7-0.3,1.1c-0.4-0.2-0.8-0.2-1.1-0.5c-2.2-2.6-4-5.5-5.2-8.7c-0.2-0.4-0.3-0.9-0.6-1.3c-0.7-1.1-1.5-1.2-2.4-0.2
		c-2.9,3.1-5,6.7-6.3,10.7c-1.8,5.6-2.6,11.4-2.6,17.3c0,0.4-0.4,0.9-0.5,1.3c-0.4-0.3-1-0.4-1.2-0.8c-1.6-2.8-3.1-5.5-4.5-8.4
		c-0.8-1.7-1.9-2.1-3.3-0.8c-2.7,2.6-4.4,5.7-5.9,9.1c-2.4,5.5-2.9,11.2-3,17c0,0.5-0.4,1-0.6,1.4c-0.4-0.2-0.9-0.3-1.1-0.7
		c-1.9-3.3-4.1-6.4-5.7-9.8c-2.4-5.1-3.7-10.6-4-16.2c-0.2-3-0.2-6.1-0.3-9.1c0-1.1-0.6-1.8-1.6-1.6c-3.9,0.8-7.7,0-11.6-0.1h-0.4
		c-2.2-0.1-4.3,0-6.2,1.4c-0.4,0.3-1.2,0.1-1.8,0.2c0.1-0.5,0.1-1.1,0.3-1.5c1.3-1.8,1.4-3.7,1.1-5.8c-0.4-3.9-0.5-7.8,0.3-11.6
		c0.1-0.3,0.2-0.6,0.2-1v-1.5c-0.6,0-1.3-0.2-1.8,0c-3.1,1.3-6.3,1.7-9.6,1.5c-4.2-0.3-8.4,0-12.3,2.1c-0.4,0.2-1,0-1.5,0
		c0-0.5-0.1-1.1,0.1-1.6c0.4-0.9,1.1-1.6,1.6-2.5c1.1-2.1,1.4-4.4,1.4-6.8c0.1-3.2,0.3-6.4,0.5-9.7c0.1-1.6-0.5-2.1-2-1.9
		c-3.1,0.4-6.2,0.6-9.3,1.1c-2.7,0.4-5.3,1-7.9,1.6c-0.5,0.1-1.1,0.1-1.6,0.1c0.1-0.5,0-1,0.2-1.4c1.2-3,1.8-6,1.3-9.2
		c-0.6-3.7-0.3-7.3,1.3-10.7c0.6-1.3,0-1.9-1.4-1.9l-8.8,0.5c-2.8,0.1-5.5,0.7-8,1.9c-0.7,0.3-1.5,0.6-2.3,0.7
		c-0.3,0.1-0.8-0.1-1-0.4c-0.1-0.2,0-0.8,0.2-1c1.8-1.7,2.1-4,2.2-6.3c0.1-3.2,0-6.4,1.4-9.4c0.2-0.5,0.2-1.6-0.1-1.8
		c-0.5-0.3-1.3-0.2-1.9,0c-1.3,0.4-2.6,0.9-3.9,1.4C64.5,212.6,64.3,212.5,64.2,212.3L64.2,212.3z M232.5,164.3
		c0.1-0.1,0.2-0.2,0.2-0.4c-0.3-0.4-0.5-0.9-0.8-1.3c-0.2-0.3-0.4-0.5-0.6-0.8c-3.2-3.1-7.1-3.8-11.3-3.3c-3.4,0.4-6.8,1.2-10.3,1.4
		c-5.7,0.5-10.8-1.2-15-5.2c-1.8-1.7-3.6-3.4-5.3-5.2c-3.9-3.9-8.1-7.5-13.2-9.8c-0.9-0.4-1.9-0.8-2.8-1.3c-0.8-0.4-1.8-0.6-1.6-1.8
		s1.3-1.2,2.2-1.3c0.6-0.1,1.3,0,2,0c7.3-0.1,14.3-1.6,20.8-5c3.2-1.7,6.6-3.1,10.3-3.6c3.2-0.4,6.3-0.1,9.3,0.5
		c3.3,0.7,6.3,2.1,8.6,4.6c2,2.2,3.9,4.4,5.8,6.6c0.2,0.2,0.6,0.4,0.9,0.5c0.1-0.4,0.4-0.7,0.4-1.1s-0.1-0.8-0.3-1.2
		c-2.3-4.5-5.3-8.3-9.6-11.1c-1.8-1.1-3.6-2.5-3.1-5.2c0.1-0.3-0.3-1-0.5-1c-0.5-0.1-1.2,0-1.5,0.3c-0.6,0.7-1.2,1.5-1.5,2.3
		c-0.4,1.3-1.1,1.7-2.3,1.3c-4.4-1.7-8.6-0.7-12.9,0.6c-3.8,1.2-7.6,2.4-11.7,1.8c-0.6-0.1-1.4,0.3-2,0.5c0.3,0.6,0.4,1.4,0.8,1.9
		c0.8,1.1,0.8,1.3-0.4,2c-2.6,1.3-5.5,1.1-8.3,1.2c-1.6,0.1-3.2-0.1-4.8,0.1c-3.2,0.5-4.4,2.3-4.2,5.5c0.2,2.3,1.7,3.3,3.5,4.4
		c2.5,1.5,5.1,2.9,7.2,4.7c4.8,4.1,9.3,8.7,14.2,12.8c5.1,4.3,10.9,6.4,17.7,5l10.2-2.2c2.4-0.5,4.7,0,6.9,1.2
		C230.4,163.5,231.5,163.8,232.5,164.3L232.5,164.3z M274.9,137.8v-0.1c-1.5,0.2-3.1,0.3-4.6,0.5c-0.4,0.1-0.7,0.6-1,1
		c0.3,0.3,0.6,0.8,1,1c1,0.5,2,0.8,3,1.2c1.3,0.5,2.6,1.1,3.9,1.4c1.5,0.4,2.6-0.3,2.8-1.9c0.3-2-0.3-3-2-3.1
		C277,137.7,275.9,137.8,274.9,137.8L274.9,137.8z"/>
</g>
</svg>
