<?xml version="1.0" encoding="utf-8"?>
<!-- Generator: Adobe Illustrator 23.0.0, SVG Export Plug-In . SVG Version: 6.00 Build 0)  -->
<svg version="1.1" xmlns="http://www.w3.org/2000/svg" xmlns:xlink="http://www.w3.org/1999/xlink" x="0px" y="0px"
	 viewBox="0 0 400 400" style="enable-background:new 0 0 400 400;" xml:space="preserve">
<style type="text/css">
	.st0{fill:#101006;}
	.st1{fill-rule:evenodd;clip-rule:evenodd;fill:#821528;}
</style>
<g id="Layer_2">
	<rect x="0" y="0" class="st0" width="400" height="400"/>
</g>
<g id="Layer_1">
	<circle class="st0" cx="200" cy="200" r="191.5"/>
	<path d="M200,9c25.8,0,50.8,5,74.3,15c22.7,9.6,43.2,23.4,60.7,40.9s31.3,38,40.9,60.7c10,23.5,15,48.6,15,74.3s-5,50.8-15,74.3
		c-9.6,22.7-23.4,43.2-40.9,60.7s-38,31.3-60.7,40.9c-23.5,10-48.6,15-74.3,15s-50.8-5-74.3-15c-22.7-9.6-43.2-23.4-60.7-40.9
		s-31.3-38-40.9-60.7C14,250.8,9,225.8,9,200s5-50.8,15-74.3C33.6,103,47.4,82.5,64.9,65s38-31.3,60.7-40.9C149.2,14,174.2,9,200,9
		 M200,8C94,8,8,94,8,200s86,192,192,192s192-86,192-192S306,8,200,8L200,8z"/>
	<g>
		<path class="st0" d="M207.8,0.2C147.8-2,96.1,19.1,54.7,62.7C18.3,101.1,0.1,147.4,0,200.4C-0.2,310.2,89.4,400.6,199.8,400
			c110.7,0.7,201.1-89.8,200.2-201.1C399.1,87.3,311,3.9,207.8,0.2z M200.1,381.2c-99,0-182.2-80.6-180.4-184.7
			C21.4,103.1,98.5,16.1,209,20.2c88.8,3.2,174.5,78.3,171.9,185.9C378.6,300.3,300.7,381.2,200.1,381.2L200.1,381.2z"/>
		<g>
			<path class="st1" d="M32,221.1v-3.8c0.3,0.1,0.6,0.2,0.8,0.4l4.8,3.4c0.2,0.2,0.5,0.3,1,0.6c-0.2-0.5-0.2-0.8-0.3-1.1l-1.3-3.7
				c-0.9-3.5-1.3-7.1-1.4-10.7c0-1.2-0.1-2.3-0.4-3.4c-0.5-1.8-0.8-3.6-0.8-5.5c0-1.1,0.1-2.2,0.1-3.3c0.1-2,0.6-3.9,1-6h5.1
				c0.6,0,1.1-0.1,1.6-0.5c1.5-1,3.1-1.9,4.6-2.8c0.2-0.1,0.4-0.1,0.7-0.3c-0.8,3.9-1.4,7.8-1.3,11.8H43c0.6,0.9,1.2,1.6,1.6,2.3
				c0.4,0.6,0.8,1.3,1,2c0.4,1.5,0.1,2.9-1,4.2c-0.7-0.3-1.2-1-2.1-1.2c0.8,1.4,1.4,2.6,2.2,3.7c0.9,1.2,0.7,2.5,0.7,3.9
				c-0.7,0-1.1-0.6-1.9-0.6c0.8,0.7,1.4,1.3,2,1.9c0.2,0.2,0.4,0.5,0.4,0.7v2.7c-1-0.1-1.7-0.6-2.8-0.5c1.1,1,2,1.9,2.9,2.8
				c0.3,0.3,0.6,0.6,0.6,0.9c0.2,1.3,0.3,2.6,0.5,3.9c-0.7,0-1.2,0.1-1.7,0.1c1.7,1.2,3.6,2.1,4.1,4.3c-0.7,0-1.4,0.1-2,0.1
				c0,0.1-0.1,0.1-0.1,0.2c2.1,1.3,4.4,2.2,5.6,4.6c-0.3,0.2-0.6,0.3-1.1,0.6c1.4,0.2,2.6,0.4,3.7,0.7c0.3,0,0.6,0.1,0.8,0.3
				c0.6,0.8,1.2,1.7,1.9,2.7c-1,0.4-2,0.7-2.9,1v0.2c1.1,0.1,2.2,0.2,3.3,0.2c1.4,0,2,0.8,2.8,1.8c-0.9,0.2-1.7,0.4-2.5,0.6
				c0.3,0.3,0.7,0.4,1.1,0.5c1.6,0.4,3.2,0.5,4.8,0.4c0.9,0,1.5,0.2,1.9,1c0.2,0.5,0.6,0.9,1,1.4c0.4-0.6,0.7-1.1,1.1-1.6
				c0.2-0.2,0.4-0.5,0.6-0.5c1.2-0.2,2.5-0.3,3.8-0.5c0.2,1.4-0.1,2.7,0.2,4.1c0.2-0.3,0.3-0.4,0.4-0.6L76,241
				c0.2-0.3,0.5-0.6,0.8-0.6c0.9-0.1,1.7,0,2.6,0c0.1,0.6,0.1,1,0.2,1.4h0.2l0.9-3.9c0.6,0.2,1.2,0.3,1.7,0.4
				c0.6,0.1,1.2,0.3,1.9,0.4v-3.8c0.8,0.1,1.4,0.2,2.2,0.4v-5.4c1,0.1,1.9,0.3,3,0.4c-0.9-2.1-1.7-3.9-2.5-6
				c1.2,0.2,2.1,0.4,3.1,0.5c0-0.1,0.1-0.1,0.1-0.2l-4.1-5.1l0.1-0.1c1.4,0.3,2.7,0.7,4.3,1.1c-0.4-0.6-0.7-1.1-0.9-1.5
				c-0.3-0.5-0.6-0.7-1.2-0.8l-4.3-0.6c-0.3,0-0.7-0.2-0.9-0.4c-0.6-0.9-1.1-1.8-1.7-2.9h2.4c0.7,0,1.4,0.2,2.2-0.2
				c-1.8-1.7-4.1-1.5-6.3-1.9c0-0.6-0.1-1.2-0.1-1.8c-1.5,0.3-2.9,0.7-4.4,1c-0.3-0.8-0.5-1.4-0.8-2.1c0.9-0.4,1.6-0.9,2.6-1.3
				c-2.6-0.3-2.6-0.3-4.1,1.4c-0.1,0.1-0.2,0.3-0.3,0.3c-0.2,0.1-0.4,0.3-0.6,0.3h-1.8v-2.5c-0.1,0-0.1,0-0.2-0.1l-3.3,3.6
				c-1.4-1-3.1-1.4-3.5-3.2c0,0-0.1,0-0.3-0.1c-0.1,0.4-0.1,0.8-0.2,1.1c-0.2,2.1-0.9,4-2.1,5.7c-0.3,0.4-0.6,0.7-1.2,0.8
				c-0.1-0.9,0-1.7-0.1-2.5c-0.6,1-1,1.9-1.5,2.8c-0.6,0.9-1.8,1.1-2.8,1.5l0.3,8.4l-2.6-2.8c-0.1,0-0.2,0.1-0.2,0.1l1.2,7.6
				c-0.1,0-0.1,0-0.2,0.1c-0.5-0.7-1.1-1.4-1.5-2.1c-1.1-2-2.2-4-2.8-6.3c-0.5-2-1.2-3.9-1.6-5.9c-0.3-1.3-0.2-2.6-0.4-3.9
				c-0.1-0.5,0.1-0.8,0.4-1.2c1.6-1.9,2.6-4,3.4-6.3c0.3-0.9,0.7-1.7,1.2-2.5c1.8-2.8,4.3-4.9,7.1-6.7c1.6-1,3.2-1.8,5.1-1.9
				c1.2-0.1,2.4-0.3,3.6-0.5c0,0.1,0.1,0.1,0.1,0.2l-4.7,5.6l0.2,0.2c0.4-0.2,0.8-0.4,1.1-0.6c3-1.7,6.4-2.4,9.8-2.7
				c2-0.2,4.1,0,6.1,0.1c1.6,0.1,2.7,1.1,3.8,1.9c-0.9,0.1-1.7,0.1-2.5,0.1c-1.7,0.1-3.5,0.2-5.2,0.7c-0.6,0.2-1.3,0.4-1.9,1.1h12.6
				c0.6,0,1.1,0.1,1.5,0.5c1.1,0.9,2.1,1.7,3.2,2.5c1.5,1.2,2.6,2.7,3.5,4.2c0.3,0.7,0.6,1.4,0.9,2.1l-5.9-1.9
				c0,0.1-0.1,0.1-0.1,0.2c0.3,0.2,0.5,0.3,0.8,0.5c2.1,1.1,3.9,2.7,5.6,4.4c1.5,1.5,2.5,3.3,3.3,5.3c1,2.6,1.8,5.2,1.7,8.1
				l-0.2,8.7l-0.1,7.3c0,1.4-0.2,2.5-0.9,3.7c-0.5,0.9-1,1.7-1.5,2.7c-0.1-0.3-0.2-0.5-0.2-0.7c-0.7-2.4-1.5-4.7-2.1-7.1
				c-0.3-1.3-1.3-1.9-2.4-2.9c0.9,9-3.4,15.1-11,19.7l2.4-8.8c-0.3,0-0.4,0-0.5,0.1c-1.7,0.8-3.4,1.7-5.2,2.5
				c-0.4,0.2-0.6,0.5-0.6,0.9c-0.1,0.7-0.3,1.4-0.4,2.2s-0.5,1.1-1.3,1.3l-8.6,2.2c-1.1,0.3-2.2,0.5-3.3,0.8l-0.1-0.1
				c1.6-1.6,3.2-3.1,4.9-4.7c-0.2-0.1-0.3-0.1-0.3-0.1c-0.2,0-0.4,0.1-0.6,0.1c-2.2,0.5-4.5,0.5-6.7,0c-2-0.5-4-1.1-6-1.6
				c-0.4-0.1-0.8-0.4-1.4,0c1,0.1,1.5,0.6,1.9,1.2c0.5,0.7,1.1,1.3,1.6,1.9c0.2,0.2,0.3,0.4,0.5,0.7c-1.5-0.4-2.6-1.2-4-1.3
				c2,1.8,3.9,3.7,5.2,6.3c-1.2-0.4-2.2-0.7-3.4-1c0.2,0.3,0.3,0.4,0.4,0.5c0.2,0.2,0.4,0.5,0.7,0.7c2.1,1.7,4,3.7,5.5,5.9
				c0.5,0.8,0.9,1.6,1.2,2.6c-1.8-0.6-3.2-1.6-5-2c3.1,2.8,6.4,5.5,8.3,9.3c-1.7-0.4-3.3-1.3-5.1-1.7c2.7,2.5,5.6,4.7,8.4,7.3
				c-0.7,0-1.2,0.1-1.8,0.1c2,1.5,3.9,2.8,5.7,4.3s3.3,3.3,4.5,5.7c-0.7-0.2-1.1-0.4-1.6-0.6c-0.4-0.2-0.9-0.3-1.3-0.5
				c-0.4-0.1-0.8-0.3-1.2-0.4c3,1.9,5.7,4,7.6,7c-0.6,0.2-1.2,0-1.8,0.3c2.7,1.8,5.3,3.6,7.4,6.2l-3.2-0.3c0.9,1.1,1.6,2,2.3,2.9
				c0.1,0,0.1,0,0.2-0.1c0-0.5,0.1-1,0.1-1.8c1.4,2.2,2.6,4.2,4.3,5.9c1,1,2.1,1.9,3.4,2.3c0.9,0.3,1.5,0.7,2.1,1.4
				c1.9,2.2,4.4,3.1,7.3,3c0.8,0,1.6-0.2,2.3-0.3c0.6,1,1,2.1,1.8,2.8s2,1.1,3,1.7l11.2,5.7c1.7,0.9,3.4,1.8,5.3,2.5l17.3,6.4
				c1.7,0.6,3.4,0.9,5.2,0.9c2.6,0,5.2,0.1,7.7,0.2c1.3,0,2.7,0.1,4,0.2c0.4,0,0.8,0,1.2-0.1c1.3-0.7,2.8-0.9,4.2-1.1
				c3.6-0.4,7.2-0.7,10.8-1l7.5-0.5c0.6,0,1.3-0.2,1.9-0.4l22.2-7.2c1.3-0.4,2.5-0.9,3.7-1.5l11.5-5.6c0.9-0.4,1.7-1.1,2.4-1.8
				c0.6-0.6,1.2-1.3,1.8-2l8.1-8.4c0.9-1,1.7-2,2.3-3.3c0.9-1.8,1.9-3.6,2.9-5.3c0.6-1.2,1.1-2.3,1.1-3.7c0-0.4,0.1-0.9,0.2-1.4
				c0.5-3.2,1.6-6.3,2.8-9.4c0.3-0.7,0.3-1.3,0.3-2.1c-0.1-1.2-0.1-2.3-0.2-3.5c-0.1-1.9-0.1-3.8-0.2-5.7c0-0.2-0.1-0.3-0.1-0.5
				h-0.2c-0.4,2.1-0.8,4.1-1.3,6.2c-0.1-0.7,0-1.3,0-1.9L247,266c0-2-0.5-3.8-1.6-5.5c-0.5-0.8-1.1-1.3-2.2-1.2
				c-0.2,0-0.3-0.1-0.6-0.1v-2.5c-2.2,0.1-3.9,0.9-5.6,2.1c-2,1.4-2.9,3.4-3.5,5.5c-0.8,2.9-1.1,5.8-1,8.7c0,0.7,0.1,1.3,0.4,1.9
				c0.8,2.2,1,4.4,1,6.7c-0.1,1.6-0.7,3.1-1.3,4.5c-0.1,0.4-0.3,0.7-0.3,1.1c0,0.7,0.2,1.4,0.2,2.1c0.2,1.9,0.1,3.9-0.6,5.7
				c-1.3,3.5-4.9,5.4-9,5.4c1.5-1.6,2.9-3.2,3.1-5.4s-0.7-4.1-2.1-5.8l-1.2,0.3c-2.3,0.8-4.7,1.6-7.1,2.2c-3.5,0.8-7,1.5-10.5,2.2
				c-4.1,0.8-8.2,1.1-12.3,1.1c-3.1,0.1-6.2-0.1-9.2-0.3c-2.8-0.2-5.6-0.5-8.3-1.1c-2.2-0.5-4.3-0.9-6.5-1.5c-2-0.5-3.9-1.2-5.9-1.8
				c-0.3-0.1-0.5-0.1-0.8-0.2c-0.1,0.9-0.1,1.6-0.2,2.4l-1.2,4.8c-0.1,0.4-0.1,0.8-0.1,1.1l0.3,1.9c0.2,2.5-0.1,4.8-2,6.7
				c-0.3,0.3-0.5,0.7-0.5,1.1c-0.4,1.5-1,2.9-1.8,4.3c-0.8,1.3-1.9,2.2-3.4,2.7c-2,0.6-3.9,0.6-5.9,0.3c-0.7-0.1-1.4-0.1-2.1-0.5
				c0.7-0.4,1.3-0.8,1.9-1.2c1.3-1,2.5-2.1,3.2-3.7c0.5-1.2,0.5-2.4-0.3-3.6c-0.8-1-1.2-2.2-1.3-3.4c-0.2-2-0.3-4.1-0.4-6.1
				c-0.1-2.6-1.1-4.7-3.3-6.2l-7.5-5.1c-0.5-0.4-1.1-0.5-1.7-0.5c-1.7,0-3.4,0.1-5.1,0c-1.4-0.1-2.5,0.2-3.6,1.1
				c-1,0.8-2.2,1.4-3.6,1.6c-1.3,0.2-2.1-0.1-2.7-1.3c-0.2-0.4-0.4-0.9-0.5-1.3c-1.6-0.4-2.7,0.3-3.4,1.5c-0.5,0.9-0.9,1.8-1.4,2.7
				c-0.2,0.3-0.3,0.6-0.5,1c-1.1-1.9-1.8-4-2-6c-0.2-1.9,0.3-3.8,1.7-5.2c0.9-0.9,2-1.7,3.2-2.3c1.1-0.5,2-1.2,2.9-2
				c0.7-0.7,1.4-1.3,2.1-2c0.2-0.2,0.3-0.4,0.6-0.7c-0.5,0.1-1.1,0.2-1.6,0.4c-0.7-0.8-1.4-1.6-2.1-2.3l-4.7,2.9
				c-0.3-1.2-0.2-2.4,0-3.5c0.4-2.3,1.6-4.1,3.6-5.2c1.6-0.9,3.5-1.3,5.3-1.3c0.6,0,1.1-0.1,1.5-0.5c1.1-1.1,2.6-1,3.5-0.2
				c0.7,0.5,1.4,0.4,2.3,0.3c-0.6-0.8-1.2-1.4-1.7-2.1c-0.3-0.4-0.6-0.5-1.1-0.6c-1.3,0-2.7-0.1-4-0.2c-0.5,0-0.9-0.1-1.5-0.1
				c1.2-1.5,2.2-2.9,3.3-4.3c0.3-0.5,0.7-0.6,1.3-0.6h5.9c0.7,0,1.1,0.2,1.5,0.8c1.6,2.4,3.5,4.4,6,5.8c0.5,0.3,0.8,0.6,1,1.1
				c1.5,2.7,3,5.5,5.2,7.8c1.2,1.3,2.4,2.6,3.7,3.7s2.8,2.1,4.2,3.2c1.6,1.2,3.4,2.1,5.5,2.3c0.3,0,0.6,0.2,0.9,0.2
				c4.3,1.1,8.7,1.7,13.1,2c4.8,0.3,9.6,0.2,14.4-0.5c6-0.9,11.7-2.6,17-5.3c0.8-0.4,1.4-0.9,1.6-1.7c0.1-0.4,0.3-0.9,0.3-1.3
				c0.2-1.6,0.2-3.2-1.4-4.3l-0.3-0.3c-3.1-4-5.5-8.4-6.8-13.2c-1.4-5-2-10.2-2-15.4v-3c0-0.3-0.1-0.5-0.1-0.8
				c-1.2-0.1-2.2-0.2-3,0.8c-2.1,2.4-4.4,4.7-6.6,7c-0.8,0.8-1.5,1.7-1.5,2.9c0,0.3-0.2,0.6-0.3,0.9c-1.1,3.1-2.9,5.7-5.3,8
				c-1.7,1.5-3.2,3.1-4.5,5c-2.1,2.9-5.1,4.1-8.6,4.5c-0.7,0.1-1.3,0.1-2,0.1c-0.1-0.7-0.2-1.2-0.3-1.8c0.4-0.2,0.8-0.3,1.1-0.4
				c1.2-0.3,2.2-0.8,3.1-1.5c0.9-0.6,1.8-1.4,1.9-2.5c0.2-1.7,0-3.4,0-5.2c-0.8-0.2-1.6-0.5-2.4-0.7c-2.8-0.8-5.7-1.4-8.4-2.7
				c-2.4-1.1-4.8-2.3-7.1-3.4c-4-2-7.7-4.6-11.1-7.4c-2.5-2.1-4.8-4.5-7.1-6.8c-3.1-3.1-5.9-6.5-8.5-10.2c-0.8-1.2-1.8-2.4-2.6-3.6
				l-2.6,0.6c0.1,1.2,0.1,2.2,0.2,3.3c0.1,2.3-0.1,4.5-1,6.7c-0.3,0.7-0.6,1.3-1.3,1.8c-0.4-0.3-0.8-0.6-1.2-1c-0.7,1-1.2,2-2,2.8
				c-1.2,1.4-2.8,2.3-4.8,2.3c-2.2,0.1-4-0.8-5.9-1.8c-0.6-0.3-1.1-0.8-1.7-1.2c0.6-0.1,1-0.2,1.5-0.3c1.8-0.3,3.6-0.8,5.2-1.7
				c0.7-0.4,1.2-0.8,1.4-1.6c-0.2-0.2-0.3-0.4-0.5-0.6c-0.6-0.7-1.2-1.3-1.7-2c-0.9-1.3-1.4-2.8-1.3-4.5c0.2-1.8,0.7-3.3,1.7-4.8
				c0.2-0.3,0.5-0.7,0.5-1.1c0-1.9,0.4-3.8,0-5.8c-0.6-2.8-1.4-5.4-3.1-7.8c-1.1-1.5-2.3-2.9-3.8-4c-0.6-0.5-1.2-1.1-2-1.4
				c-2.4-1-4.7-2.1-6.8-3.5c-1.9-1.2-3.5-2.6-4.9-4.3c-0.5-0.6-0.9-1.4-1.6-1.7c-0.6-0.3-1.5-0.1-2.3-0.1c-1-0.1-1.7,0.2-2.4,0.8
				c-1.3,1.1-2.9,1.8-4.8,2.1c0.2-0.4,0.4-0.7,0.6-1c0.6-1.2,1.4-2.3,1.9-3.5c0.6-1.4,1.4-2.7,2.4-3.8c1.4-1.5,3.1-2.3,5.2-1.9
				c0.8,0.2,1.6,0.3,2.4,0.4c0.3-1.3,0.6-2.6,1.8-3.4s2.5-0.9,4.1-0.9c-0.3-0.3-0.4-0.5-0.6-0.7c-0.6-0.6-1.2-1.1-1.8-1.7
				c-0.6-0.7-1.3-0.8-2.1-0.6c-1,0.2-2.1,0.2-3.2,0.4c0.2-1.7,1-2.8,2.3-3.7c1.6-1,3.4-1.3,5.3-1.5c0.7-0.1,1.5-0.1,2.3,0
				c1.9,0.2,3.3,1.4,4.4,2.8c0.3,0.3,0.5,0.7,0.7,1c0.3-0.2,0.5-0.2,0.7-0.3c1.4-0.7,2.5-0.5,3.4,0.7c0.4,0.5,0.6,1.1,0.8,1.6
				c0.1,0.3,0.3,0.6,0.4,1c1.3-0.9,1.4-1.1,1.4-2.5c0-1.5-0.7-2.9-1.8-4c-0.2-0.2-0.6-0.3-0.9-0.3h-2.4c0.3-0.7,0.5-1.4,0.7-2.1
				c1.7,0,3.3,0.1,4.9,0c1.9-0.1,3.5,0.5,4.9,1.6c0.4,0.3,0.9,0.8,1.1,1.3c0.8,1.7,1.3,3.6,1,5.5c0,0.2,0,0.4,0.1,0.6
				c0.2,0.1,0.4,0.2,0.5,0.2c1.9,0.6,1.9,1.3,2,2.5c0,0.6,0,1.1,0.1,1.7l0.8,10c0.2,2.3,0.3,4.7,0.5,7c0,0.5,0.2,1,0.5,1.5l4.1,6.2
				c4.1,6.1,8.8,11.8,14,17c3.5,3.5,7.5,6.5,12.1,8.7c0.9,0.4,1.8,0.7,2.7,1.1c0.1-0.3,0.2-0.4,0.2-0.6c0.3-1.5-0.2-2.7-1.3-3.7
				c-1.5-1.4-3.2-2.7-4.4-4.3c-0.8-1-1.9-1.7-3.2-2.1c-0.1-0.5-0.2-0.9-0.3-1.3c-0.4-1.3-0.8-2.6-1.8-3.6c-0.4-0.4-0.6-0.9-0.6-1.4
				c-0.3-1.9-0.5-3.9-0.9-5.8c-0.3-1.3-0.8-2.6-2.2-3.4c-0.3-0.2-0.4-0.5-0.4-0.8c-0.2-1.5-0.3-3.1-0.7-4.6
				c-0.6-2.8-1.7-5.5-3.5-7.8c-0.3-0.4-0.6-0.8-0.9-1.3c0.7,0.1,1.3,0.1,1.9,0.1c0.1-0.3,0.2-0.5,0.2-0.8c0.2-2,0-4-0.6-5.9
				c-0.3-0.8-0.5-1.6-1.2-2.2c-1.5-1.2-3-2.5-4.5-3.8c-0.4-0.4-0.9-0.5-1.5-0.5h-3.1c0.2-0.3,0.3-0.6,0.4-0.7c1-1.2,1.9-2.5,3-3.6
				c0.9-0.9,1.4-1.9,1.2-3.2c-0.1-0.6,0-1.1,0-1.7c0-0.4-0.1-0.7-0.4-1l-3.4-3.6c-0.6-0.6-1.2-1-2.1-0.9c-0.2,0-0.5-0.1-0.8-0.1
				c1.3-1.4,1.1-2.8,0.9-4.3c-0.3-0.1-0.6-0.1-0.9-0.2c0.1-0.9,0.2-1.7,0.4-2.5c0.2-0.7,0.1-1.4-0.4-2c-0.5-0.7-1-1.5-1.5-2.3
				c-0.3-0.4-0.6-0.6-1.1-0.5h-5.3c0.3-0.4,0.4-0.6,0.6-0.7c0.9-0.7,1.5-1.7,2.1-2.7c0.5-0.9,0.6-1.7,0.2-2.7
				c-0.4-1.2-1.4-1.8-2.4-2.4c-2.1-1.3-4.5-2-6.9-2.5c-1-0.2-2-0.4-3-0.7v-2.5c0-0.3,0-0.7-0.2-0.9c-0.6-0.9-1.3-1.8-2.1-2.8
				c-1.6,0.8-3.1,1.5-4.7,2.2l-3.7-3.3c-0.7-0.6-1.2-1.3-2-1.6c-0.7-0.2-1.6,0-2.4,0.1h-0.5c-1.7,0.2-3.4,0.3-4.9,1.1
				c-1.2,0.7-2.5,1.2-3.8,1.7c-0.1,0.5-0.1,0.9-0.1,1.4l-4.7-2.1c-0.2,0.1-0.3,0.2-0.4,0.3c-2,1.7-4.1,3.3-6.1,5
				c-0.5,0.4-0.9,0.5-1.5,0.5h-3.4c-0.6,0-1.3-0.1-1.8,0.2c-1.1,0.5-2.1,1.2-3.2,1.8c0.4,0.2,0.6,0.3,0.9,0.3
				c1.6-0.1,3.3-0.1,4.9-0.2c1.7,0,3.3-0.2,4.9-0.8s3.3-1.1,4.9-1.7c0.8-0.3,1.6-0.5,2.4-0.8c-0.8,1.8-1.2,2.3-2.6,3.1l-10.1,5.7
				c-1.5,0.8-2.9,1.7-4.4,2.5v4.3c0.1,0,0.1,0,0.2,0.1c2.2-2.2,4.5-4.3,6.8-6.5c0.5,0.3,0.9,0.5,1.4,0.8l-3.5,5.2
				c-1.1,1.7-2.4,3.3-3.3,5.1c0.6-0.5,1.1-1.1,1.7-1.7c0.2-0.3,0.5-0.6,0.8-0.7c1.9-0.7,3.9-1.3,6.1-2c-0.3,0.3-0.4,0.5-0.5,0.6
				c-2,2.1-4,4.2-5.9,6.4c-1.7,1.9-3,4.1-4.1,6.3c-0.3,0.6-0.3,1.1,0.1,1.7c0.5,0.6,0.9,1.3,1.3,2c0.3,0.5,0.7,0.8,1.4,0.9
				s1.5,0.3,2.4,0.5c-0.7,1.1-1.4,2.1-2.2,3.2c2.1,0.2,4.1,0,6.3,0.1c-1.7,1.4-3.4,2.5-5.4,2.9c-1.2,0.2-2.4,0.4-3.4-0.4l-0.6-0.3
				c-1.3-0.6-2.6-0.4-3.9,0c-1.4,0.4-2.7,0.1-3.9-0.6c-0.3-0.2-0.8-0.4-0.9-0.9H55c0.6,0,1.2,0,1.6-0.7c0.3-0.4,0.8-0.7,1.2-1
				c0.6-0.4,1.3-0.8,2.1-1.3l-4.2-1.2c1-0.4,2-0.7,3-1v-1.4c0-0.5-0.2-0.8-0.7-0.9c-0.2,0-0.4-0.1-0.6-0.2c-1.1-0.3-2.3-0.7-3.6-1
				c1.5-0.9,3-1.4,4.4-2.4c-1.2-0.5-2.2-1-3.3-1.5c0.4-0.2,0.8-0.3,1.1-0.4c1.7-0.3,1.7-0.3,1.5-2c0-0.1-0.1-0.1-0.2-0.3h-2.9
				c0.9-0.9,1.5-1.6,2.3-2.3c-0.6-0.4-0.9-1-1.6-0.8c-0.8,0.2-2.2,1.8-2.2,2.7c-0.1,1.3-0.2,2.6-0.2,3.9c-0.1,2-0.2,4.1-0.2,6.1
				c0,0.4-0.1,0.8-0.1,1.2h-2l1.1-16.1h-0.9c0,0.6-0.1,1.2-0.1,1.9c-0.7-0.1-1.4-0.1-2.3-0.2l1.9,3.9l-0.1,0.1
				c-0.9-0.5-1.7-1-2.6-1.5c-0.3,0.5-0.5,0.9-0.8,1.3s-0.3,0.8,0.1,1.2c0.5,0.6,0.9,1.2,1.3,1.8l-0.1,0.1c-0.7-0.4-1.3-0.8-2.1-1.3
				c-0.4,0.6-0.8,1.3-1.2,1.9c1.2,1.1,2.3,2.2,3.4,3.3c0,0.1-0.1,0.1-0.1,0.2l-3.6-0.6c-0.2,0.5-0.4,0.9-0.5,1.3c1,1,2.1,2,3.1,3
				c-0.7-0.1-1.4-0.6-2-0.6s-1.2,0.4-2.1,0.8c2.1,1.4,4,2.8,6,4.2l-3.4,0.9l-2.1-2.1c-0.4-0.5-0.8-0.7-1.5-0.5
				c-0.9,0.2-1.9,0.3-2.9,0.4c-0.4-0.9-0.8-1.8-1.1-2.7c-0.5-1.9-0.5-3.9-0.5-5.8c0-1.3,0.3-2.2,1.6-2.7c0.8-0.3,1-1,1.1-1.8
				c0.4-3.9,1.3-7.7,3.5-11.2c0.3-0.4,0.3-0.8,0-1.3c-0.7-1.1-1-2.4-1.2-3.7c-0.1-1.4,0-2.7,0.6-4c2.5-4.6,5.1-9.2,8.6-13.1
				c1.5-1.7,2.5-3.5,3-5.6c0-0.1,0.1-0.3,0.1-0.4c0.9-3.3,2.1-6.6,4-9.5c1-1.5,2.1-2.9,3.7-3.9c0.5-0.4,0.9-0.8,1.2-1.3
				c0.6-1.2,1.2-2.3,1.7-3.5c0.2-0.3,0.3-0.7,0.3-1.1c0.1-1.6,0.2-3.1,0.4-4.7c0.1-0.9-0.1-1.9,0.3-2.9c1.3,1.9,2.5,3.9,3.6,5.9
				c0.1,0.2,0.1,0.6,0.1,0.9c-0.1,1.1-0.2,2.2-0.2,3.3c0,1.5-0.5,2.8-1.7,3.9c-0.8,0.8-1.5,1.7-2.2,2.6c0.6,1,1.1,2,1.7,3l-0.8,0.8
				l-3.7,3.6c-0.3,0.3-0.5,0.6-0.5,1c0.1,0.9,0.1,1.8,0.2,2.7c0,0.4,0.1,0.8,0.3,1.4c0.3-0.5,0.6-0.8,0.7-1.1c0.3-0.6,0.8-1,1.5-0.9
				c0.5,0.1,0.9-0.1,1.3-0.5l4.1-3.6l7.7-6.7c1.8-1.6,1.8-1.6,4.2-1.6h3.8v0.2l-7.8,4.5v4.5c1.5-0.5,2.8-1.1,4.2-1.5
				c0.6-0.2,1-0.5,1.2-1.1c0.8-2.2,2.4-4,4.3-5.4c1-0.7,1.9-1.2,3.2-1.4c1.8-0.2,3.5-0.5,5.3-0.7c0.3,0,0.7,0,0.9,0.1
				c0.7,0.6,1.3,1.2,2,1.9l-9.8,4.2v0.2c0.3,0,0.5,0.1,0.8,0.1c2.2-0.2,4.4-0.3,6.6-0.5c0.6,0,1.2-0.3,1.7-0.7c1.3-1,2.6-2,3.9-3.1
				c0.7-0.6,1.3-1,2.3-0.8c0.6,0.1,1.2,0.1,1.8,0.2c2.8,0.2,5.5,0.3,8.3,0.4c0.1,0,0.3,0.1,0.7,0.2l-11.4,3.6c2.2,1,4.4,1.8,6.7,2.5
				c0.3,0.1,0.7,0,1-0.2l3.2-1.5c0.4-0.2,0.8-0.3,1.2-0.3h5.6c0.3,0,0.6,0,0.8,0.2c0.8,0.7,1.7,1.4,2.4,2.4l-8.8,0.9
				c0.1,0.2,0.1,0.3,0.1,0.3l4,2.7c0.2,0.2,0.6,0.2,0.9,0.2c1.8-0.2,3.5-0.4,5.3-0.5c1.8-0.2,3.6-0.3,5.4-0.5
				c0.9,1.6,1.9,3.1,2.8,4.9h-7.4c0,0.2-0.1,0.2,0,0.3c0.6,1.3,1.3,2.5,2,3.7c0.1,0.2,0.4,0.3,0.7,0.4l3.4,0.6l7.7,1.3
				c0.4,0.1,0.7,0.1,0.9,0.5l1.2,4.3l-7.6-1.3c0.9,1.4,1.8,2.7,2.6,3.9c0.1,0.2,0.4,0.4,0.7,0.5c1,0.5,2,1,3,1.4
				c0.9,0.4,1.9,0.6,3,0.9c-0.1-0.5-0.1-0.8-0.2-1c-0.3-0.9-0.2-1.8,0.2-2.6c0.6-1.2,0.9-2.5,0.9-3.8c0-1.5,0-2.9-0.1-4.4
				c0-0.7-0.1-1.4-0.2-2.2l3.6,2.8c0.6-1.9,0.6-2.3,0.4-3.1c-0.3,0.2-0.6,0.4-0.9,0.7c-0.8-1.2-1.7-2.3-2.4-3.4
				c-0.6-0.9-0.6-1.8,0-2.7c1.1-1.7,2-3.4,3.1-5.1c0.4-0.6,0.6-1.3,0.6-2c0.1-1.4,0.4-2.8,1-4l1.2-2.8c0.1-0.3,0.3-0.7,0.3-1
				c0.1-1.3,0.1-2.6,0.1-3.9c-0.1-1.9-0.6-3.6-2.6-4.7c-0.9-0.5-1.7-1.2-2.7-2c1.1-0.3,2.1-0.5,3-0.7c0.5,0.6,0.9,1.1,1.4,1.8
				c0.1-1.5,0.5-2.7,1.3-3.8c0.3-0.4,0.3-0.8,0.2-1.3c-0.5-1.5-1-3-1.4-4.5c-0.2-0.8-0.7-1.4-1.3-2c-1.2-0.9-2.2-2-2.8-3.3l-0.9-2.4
				c-0.9-0.1-1.8-0.3-2.8-0.3s-1.6-0.4-2.2-1.1c-1.8-2.3-3.7-4.6-5.6-6.9c-0.4-0.5-0.8-0.7-1.5-0.5c-2.3,0.7-4.6,1.2-7,1.8
				c-0.4,0.1-0.7,0.2-1.3,0.4l9.8,6c0,0.1,0,0.1-0.1,0.2c-6.5,0.3-13,1-19.6,2.3c3.3,2,6.9,1.7,10.4,2.1c-0.8,0.6-1.5,1.1-2.3,1.6
				c-3.4,1.8-7,3.2-10.7,4.5c-0.3,0.1-0.7,0.3-1,0.4c0.3,0.2,0.6,0.2,0.8,0.2c1.7-0.1,3.3-0.2,5-0.2c1.3,0,2.7,0.1,4,0.8
				c-0.7,0.3-1.3,0.6-2,0.9l-14,6.2c-0.5,0.2-0.6,0.5-0.7,1c0,1.1-0.1,2.2-0.2,3.4c-0.1,0.5,0.1,0.9,0.5,1.3c0.7,0.6,1.3,1.2,2,1.9
				c-1.2,0.4-2.2,0.8-3.2,1.2c-1.1-1.2-1.7-2.5-2.7-3.6c-0.1,0-0.1,0-0.2,0.1v3.2h-2.2c0.3-1.2,0.6-2.3,1-3.6h-2.8
				c-1.4,0-2.7-0.3-3.8-1c-0.9-0.6-1.6-1.3-2-2.4c0.5,0.1,0.8,0.1,1.2,0.1c2.2,0.2,4.4,0.3,6.6,0.4c0.3,0,0.7,0,0.8-0.3
				c0.4-0.8,0.9-1.7,1.4-2.5c-1-0.6-1.9-1.2-2.9-1.7c0.7-0.1,1.4-0.1,2,0c0.8,0,1.5,0,2.3,0.2c0.7,0.1,1.1-0.1,1.4-0.6
				c1.2-1.9,2.5-3.6,3.6-5.5c0.9-1.6,1.6-3.3,1.8-5.3c-0.4,0.2-0.6,0.4-0.9,0.6l-8.9,7.1l-0.6,0.6C99.6,95,98.4,96.1,97,97
				c-2.6,1.7-5.3,3.3-7.3,5.6c-1,1.2-2.4,2-3.9,2.5c-2.4,0.8-4.9,1.3-7.4,0.7c-1.1-0.3-2.2-0.6-3.1-1.3c-1.7-1.3-2.9-2.9-3.8-4.9
				l6.4,0.6c-0.3-0.4-0.4-0.7-0.6-1l-2.4-3.5c-0.4-0.6-1.1-1.3-1.2-2s0.4-1.5,0.6-2.3c0.4-1.1,0.8-2.2,1.1-3.4
				c0.4,1.5,0.6,2.9,0.8,4.4c0,0.3,0,0.6,0.1,0.9c0.2,0.6,0.3,1.2,0.6,1.8c0.7,1.2,1.4,2.3,2.1,3.4c0.6,0.9,3.9,2.7,5,2.8h5.4
				c0.6,0,1-0.2,1.4-0.6l4.6-4.8l4.2-4.2c1.4-1.4,2.9-2.7,4.3-4.2c2-2.2,4-4.5,5.7-6.9c0.1-0.2,0.2-0.4,0.4-0.7
				c-2.2-0.4-4,0.1-5.8,1.3l0.6,3.3c-1-1-2.2-0.6-3.3-0.6l-0.3,2.4c0,0.3,0,0.8-0.5,0.8c-0.6,0.1-0.7,0.5-0.8,0.9l-1.3,2.6
				c-0.2-0.6-0.4-1-0.5-1.4c-0.2-0.4-0.4-0.9-0.7-1.3c-0.6-0.8-1.1-0.9-2-0.5l0.6,6.3c-1.8-1.5-2.4-3.4-3-5.7l-1.9,1.9
				c0.9,1.8,1,3.4,0.3,5.3l-2.5-3.3L87,93l3.3,7.3c-1.4-0.4-2.4-0.9-3.3-1.8c-1.1-1-2.2-2.1-3-3.3c-0.4-0.6-0.9-0.9-1.7-0.8
				c-0.5,0.1-1.1,0-1.6,0c-0.3,0-0.6-0.2-0.7-0.3c-0.5-0.6-0.9-1.3-1.4-1.9c1.3-2.3,2.8-4.4,4.7-6.1c0.8-0.7,1.5-1.5,2.4-1.9
				c0.8-0.3,1.9-0.2,2.9-0.1c0.8,0,1.4-0.2,1.9-0.8c1.8-1.8,3.7-3.5,5.8-4.9c1.3-0.9,2.7-1.7,4.2-2.6l-0.6-5l1.2-0.6l10.7-5.2
				c3-1.5,6-3.1,8.6-5.2c1.5-1.3,2.9-2.6,3.8-4.4c0.3-0.6,0.7-0.9,1.3-1.1l7.6-3c4.4-1.8,7.8-4.6,10.3-8.6c0.2-0.4,0.5-0.7,0.7-1.1
				c0.1,0.4,0.1,0.7,0.1,1.1c-0.4,1.9-1.1,3.5-2.3,5.1c-2.4,3-4.9,6-7.8,8.7c-0.1,0.1-0.3,0.3-0.5,0.6c0.6,0.3,1.2,0.6,1.7,0.8
				c0.7-0.5,1.5-0.9,2.2-1.4c0.9-0.7,1.8-0.9,2.9-0.7c1.4,0.3,2.7,0.5,4.1,0.7v0.2l-5.2,3c0.2,0.1,0.3,0.2,0.4,0.2l5.1,1.2
				c0.3,0.1,0.7,0,1.1-0.1c1.1-0.2,2.2-0.5,3.3-0.8c0.5-0.1,0.8-0.1,1.2,0.2c1.9,1.1,3.5,2.4,4.9,4c0.1,0.1,0.1,0.3,0.3,0.5h-4.4
				c1,0.9,1.7,1.6,2.5,2.4c0.4,0.4,0.8,0.6,1.4,0.6c1.1-0.1,2.1,0,3.1,0.3c2.8,0.7,5,2.2,6.9,4.2c1.1,1.1,1.9,2.4,2.4,4.1
				c-0.4-0.2-0.6-0.3-0.7-0.4c-1.4-0.9-2.9-1.7-4.3-2.7c-1-0.7-1.9-0.2-3,0c0.4,0.4,0.6,0.7,0.9,0.9l7.6,7.4c0.6,0.6,1.2,1,2.1,0.8
				c0.5-0.1,1.1,0.1,1.3,0.6c0.9,1.3,1.9,2.6,2.7,3.9c2,3.2,2.9,6.6,2.7,10.3c-0.1,1.6-0.6,3-1.4,4.7c-1.1-4-2.5-7.7-5.2-10.8
				c-0.1,0.3-0.1,0.6-0.1,0.8l0.4,7c0,1.6,0.2,3.1,1,4.5c0.2,0.4,0.4,0.8,0.5,1.2s0.2,0.7,0.2,1.1v5.9c0,0.2-0.1,0.4-0.1,0.7
				c-0.5-0.4-1-0.7-1.4-1c-0.7-0.4-1-0.9-0.9-1.7c0-0.2,0-0.7-0.2-0.8c-0.6-0.3-1.2-0.9-2-0.9c-0.2,1.4-0.1,7.9,0.1,8.7
				c0.5-0.2,1-0.4,1.5-0.5c2.5-1,4.4-2.6,5.7-4.9c0.7-1.2,1.2-2.5,1.6-3.8s0.7-2.7,1-4.1c0.7,0.4,1.4,0.9,2.1,1
				c3.4,0.9,6.7-0.6,7.8-4c0.4-1.3,0.8-2.6,0.4-3.9v-0.6l8.3,2c1.7-0.8,2-2,1.8-3.5c-0.1-0.9,0-1.7,0-2.6c0.5,0,0.8-0.1,1.2-0.1h5.1
				c0.4,0,0.8-0.1,1.1-0.3c1.3-0.9,2.6-2,3.9-2.9c0.4-0.3,0.5-0.6,0.5-1.1v-2c0.4-0.2,0.8-0.5,1.1-0.7c0.8-0.5,1.7-1,2.5-1.4
				c0.5-0.3,0.8-0.6,0.8-1.2c-0.1-0.5,0-1.1,0-1.6s0.2-0.9,0.5-1.3c1-1.2,2.1-2.4,3.1-3.7c1.1-1.2,1-2.7-0.1-3.8l-1.2-1.2
				c-0.6-0.5-0.7-1-0.7-1.7v-5.6c0-0.8-0.3-1.3-0.9-1.8l-8.8-6.5c-0.8-0.6-1.7-1.2-2.5-1.8c-0.1,0.4-0.1,0.7,0.1,1
				c0.8,1.4,1.6,2.9,2.6,4.1c1.5,1.8,3.2,3.5,5.1,5c0.2,0.1,0.3,0.3,0.5,0.6c-1.9-0.2-3.7-0.3-5.3-1c-2.3-1.1-4.6-2.3-6.4-4.1
				c-0.4-0.4-0.8-0.6-1.3-0.6l-6.3-0.3c0,0-0.1,0.1-0.1,0.2l9.6,7.5c-5.1-2.5-10.5-3.2-16.3-2.7c0.3,0.2,0.4,0.3,0.6,0.4
				c1.5,1,3,1.9,4.6,2.9c0.8,0.6,1.8,0.9,2.8,1c0.7,0,1.4,0.3,2.2,0.3c1.4,0,2,1,3,2c-0.4-0.1-0.6-0.1-0.8-0.2l-7.6-2.1
				c-0.8-0.2-1.6-0.5-2.4-0.6l-7.2-1c-1.4-0.2-2.8-0.2-4.1,0.2c-1,0.2-1.7,0.7-2.2,1.5c-0.4,0.8-0.2,1.2,0.6,1.5
				c0.7,0.2,1.3,0.6,1.8,1c0.5,0.4,0.3,1.1-0.4,1.2c-0.5,0.1-1.1,0.1-1.6,0c-1.4-0.3-2.6-1-3.8-1.8c-0.4-0.3-0.8-0.6-1.4-1v2.6
				c0,0.3,0,0.7-0.1,1c-0.1,0.3-0.4,0.6-0.7,0.7c-0.4,0.1-0.7-0.1-0.9-0.5c-0.7-1.4-1-2.8-0.5-4.3c0.3-0.9,0.1-1.6-0.4-2.3
				c-0.6-0.8-1-1.7-1.5-2.6l0.1-0.1c1.1,1.1,2.1,2.2,3.2,3.3c1-0.5,2-0.9,3.2-1.4c-1-0.3-1.7-0.6-2.4-0.8c0.1-1.6,0.3-3.1,0.4-4.5
				c0.1,0,0.2-0.1,0.2-0.1c0.1,2.1,1.7,3.4,2.9,4.8c0.8-0.3,0.8-0.8,0.7-1.4c-0.1-1.3-0.1-2.7-0.2-4c0-0.5-0.1-0.9-0.1-1.4h0.2
				l2.6,5.1c1.9-0.7,2.1-0.9,1.6-2.6c-0.5,0-1-0.1-1.5-0.1V56l4.1,4.5c0.5-0.3,0.9-0.6,1.3-0.8l-1.4-4.7c0.8,0.5,1.4,1.1,2,1.7
				c1.3,1.3,1.3,1.3,1.6,2.9c0.6-0.3,1.1-0.6,1.7-0.9c-0.6-1.6-1.1-3.1-1.6-4.6c0.1,0,0.1-0.1,0.2-0.1c1.2,0.9,2.3,1.8,3.5,2.8
				c0.9-0.6,1.7-1.1,2.5-1.7c0.2-0.2,0.5-0.5,0.5-0.8c0.4-1.5,0.4-3.1,0.1-4.7c-0.1-0.4-0.3-0.6-0.6-0.8l-3.5-1.5
				c-0.4-0.1-0.8-0.2-1.2-0.2c-0.5,0-1,0.1-1.5,0.1c-2.4,0.1-4.9,0.2-7.3,0.6c-0.5,0.1-0.8,0.3-0.9,0.8c-0.2,0.6-0.4,1.2-0.7,1.9
				l-0.7-2.2h-1.6l-1.9,4.1c-0.5-1.4-1-2.6-1.5-3.8h-1.5c0.2,0.7,0.4,1.3,0.7,1.9c-0.7,0.9-1.5,1.8-2.2,2.8
				c-0.3-1.6-0.1-3.1-0.3-4.8c-1.8,0.3-3.4-0.3-5.1-0.8c-2-0.7-2-0.6-2.1-2.7v-0.4l3-1.5c0.9-0.5,1.8-0.6,2.7-0.5s1.7,0.4,2.6,0.4
				l8.3,0.8c0.9,0.1,1.6-0.1,2.1-0.8c0.9-1.1,2.1-1.4,3.4-1.5c1.4-0.1,2.8,0,4.2,0.3c0.3,0.1,0.6,0.1,0.8,0.1
				c0.5-0.9,0.9-1.8,1.4-2.6c1-1.7,2.7-2.3,4.6-1.8c0.6,0.2,1.3,0.2,1.9,0.2c0.9,0.1,1.7,0.1,2.6,0.3c2.5,0.4,4.7,1.3,6.9,2.6
				c0.3,0.2,0.8,0.4,1.2,0.4l8.2,0.2c1,0,1.7-0.2,2.4-0.9c0.5-0.6,1.1-1.3,1.8-1.6c1.3-0.7,2.7-1.2,4.1-1.7c0.7-0.2,1.5-0.2,2.2,0.1
				c1.9,0.8,3.8,1.6,5.6,2.5c0.9,0.4,1.7,0.4,2.6,0.4c2.3-0.1,4.6-0.4,6.8-0.9c1.6-0.4,3.4-0.3,4.7-1.6l5.7-2.1
				c-0.1,0.2-0.2,0.3-0.2,0.4l-3.7,4.2c-0.3,0.3-0.6,0.5-1.1,0.4c-0.7-0.1-1.2,0.2-1.8,0.4c-1.3,0.6-2.6,1.3-3.9,1.8
				c-4.3,1.5-8.6,2.2-13.2,1.5c-1.1-0.2-2.1-0.1-3.1,0.5c-0.5,0.3-1,0.5-1.6,0.7c-0.3,0.1-0.6,0.2-0.9,0.2l-7.2-0.7h-1
				c0.5,0.6,1.1,1.1,1.7,1.6c0.5,0.4,1,0.6,1.6,0.5h1.6c0,0.3,0.1,0.6,0.1,0.8c-0.3,1.8,0.3,3.1,1.9,4.1c0.8,0.5,1.4,1.2,2.1,1.8
				c-0.1-0.4-0.3-0.8-0.5-1.1c-0.7-0.9-1.3-1.9-2-2.7c-0.9-1-0.6-2.1-0.6-3.3c2.4,0.9,4.7,1.6,6.8,2.9c0.5,0.4,1.2,0.6,1.9,0.8
				c1.3,0.3,2.5,0.7,3.6,1.5c0.9,0.7,2,1.4,2.4,2.5c0.2,0.5,0.5,0.7,1.1,0.7c0.2,0,0.3,0.1,0.6,0.1c0.2,0.9,0.5,1.8,0.8,2.9
				c-0.8-0.3-1.4-0.6-1.9-0.8c-0.6-0.3-1.1-0.5-1.7-0.8s-1.2-0.6-1.8-0.8s-1.1-0.7-1.8-0.6c0.2,0.3,0.3,0.6,0.5,0.8
				c0.7,1,1.5,2,2.1,3.1c0.7,1.2,1.7,2,3,2.3c1,0.2,1.5,0.9,1.9,1.7c1.5,2.7,2.6,5.5,3.4,8.5c0.3,1,0.5,1.9,0.7,2.9
				c-0.1,0-0.1,0-0.2,0.1c-0.6-0.9-1.2-1.9-1.7-2.8c-0.8-1.5-1.8-2.9-3.4-3.9c-0.3-0.2-0.6-0.5-1-0.7c-0.1,0.3,0,0.5,0.1,0.7
				c0.7,0.9,1,1.9,0.8,3.1c-0.2,1.4,0.2,2.7,0.5,4c1.3,4.2,1.6,8.4,1.2,12.7c-0.1,1.2-0.8,1.9-1.8,2.7c-0.1-0.2-0.1-0.3-0.1-0.5
				l-0.6-5.8c0-0.4-0.1-0.7-0.4-1c-0.6-0.5-1.3-0.9-2-1.4c-0.1,0.3-0.2,0.6-0.3,0.8c-0.5,1.7-0.9,3.3-1.3,5
				c-0.1,0.4-0.1,0.9-0.1,1.3c0.1,1.5,0.3,3,0.5,4.5c0,0.3,0.1,0.7-0.1,1c-1,2.6-2.2,5.1-3.9,7.4c-0.4,0.6-1,1.1-1.5,1.8
				c0-0.3-0.1-0.4-0.1-0.5l1.4-9.1c0.1-0.4,0.2-0.8-0.1-1.3c-1.2,1.2-2.3,2.3-3.5,3.3c-0.4,0.4-0.6,0.8-0.6,1.4v4.4
				c0,0.5-0.1,1-0.3,1.4c-0.9,1.9-2.1,3.6-3.6,5.1c-1,1-2.1,1.8-3.7,2.2l3.6-9.9c-0.3,0.1-0.5,0.1-0.6,0.2c-1.8,1.1-3.6,2.2-5.5,3.2
				c-0.4,0.2-0.5,0.5-0.5,0.9v3.4c0,0.6-0.1,1.1-0.4,1.6c-0.2,0.2-0.3,0.5-0.4,0.7c-1.2,2.4-2.9,4.4-5,6.2c-0.8,0.7-1.9,1.2-3.1,1.8
				l5-11.1c-0.3,0.1-0.4,0.2-0.5,0.2c-2,1.4-4,2.9-5.9,4.3c-0.4,0.3-0.5,0.6-0.5,1l-0.3,3.4c0,0.9-0.3,1.7-0.9,2.4
				c-0.7,0.9-1.4,1.8-2,2.7c-0.5,0.7-1.1,1.2-1.8,1.7l-3.3,2.1l-1.5,0.9c0.4-1.3,0.9-2.6,1.4-3.8c0.5-1.3,1.1-2.5,1.6-3.8
				c0.5-1.2,1.1-2.4,1.5-3.9c-0.5,0.2-0.7,0.3-0.9,0.4c-1.1,0.7-1.9,1.6-2.6,2.7c-0.5,0.8-1.2,1.2-2.2,1.3c-0.6,0.1-1.2,0.3-1.9,0.4
				c0.2,4.7-1.2,8.6-4.7,11.8c0-0.6,0-1.2,0.1-1.7c0.2-1.6,0.3-3.1-0.1-4.7c-0.1-0.5-0.4-1-1.2-1.1c-0.8,0.7-1.5,1.6-2.3,2.3
				c-0.6,0.5-0.7,1.1-0.6,1.9c0.5,2.9,0.6,5.8,0.2,8.8c-0.3,2-0.4,4-0.5,6.1c0,0.3-0.1,0.6-0.2,1.2c-0.2-0.4-0.4-0.5-0.5-0.7
				c-0.6-1.1-1.2-2.2-1.9-3.3c-0.3-0.5-0.4-1-0.4-1.5v-3.9c0-0.2-0.1-0.4-0.1-0.7c-1,0.6-1.6,1.4-2.1,2.2c-0.6,1-1.1,2-1.7,2.9
				c-0.4,0.6-0.4,1.1-0.1,1.8l4.1,9.4c0.4,0.8,0.7,1.7,1.1,2.7c-1.4-0.5-2.5-0.9-3.7-1.4c-0.4-0.2-0.9-0.5-1.2-0.8
				c-0.8-0.7-1.6-1.5-2.4-2.3c-0.2-0.2-0.4-0.2-0.6-0.4c0.1,1.1,0.2,2,0.2,2.9c-0.1,1.4,0.4,2.2,1.7,3c2.6,1.6,5.1,3.3,7.6,5.1
				c1.2,0.8,1.7,2.5,1.1,3.7c-3.1-1.7-6.5-2.6-9.5-5c0,0.4,0,0.5,0.1,0.6c1.3,2.9,3,5.7,5.3,8.1c0.3,0.4,0.7,0.5,1.2,0.5h2.1
				c0.5,0,0.8-0.1,1.2-0.4c2.2-1.8,3-4,2.6-6.7c-0.1-0.3-0.1-0.6-0.1-0.9c0.3,0.2,0.4,0.4,0.6,0.6c1.6,2.2,3.2,4.4,5.3,6.3
				c1.7,1.6,3.7,2.1,6,1.6c1.3-0.3,1.8-1,1.7-2.3c-0.1-0.8-0.4-1.5-0.6-2.2c-0.2-0.6-0.3-1.2-0.5-1.9c0.8,0.8,1.4,1.5,2,2.3
				c1.6,1.8,3.4,2.8,5.9,2.4h1c1.6,0,3.1-0.4,4.4-1.5c1.7-1.4,3-3,4.1-4.9c0.4-0.7,0.5-1.3,0.5-2.1l-0.3-6.2
				c-0.1-1.2-0.2-2.4-0.9-3.5c-0.3-0.4-0.5-0.9-0.8-1.4c-1.9-3.7-4.1-7.1-6.5-10.5c-0.6-0.8-1.3-1.1-2.2-1.2
				c-1.6-0.1-3.2-0.1-4.8-0.3c-3-0.4-3.3-0.4-6,0.9c-0.2,0.1-0.5,0.2-0.7,0.3l-4,1.8v-0.3l8.7-10.8c0.3-0.3,0.6-0.6,1-0.8l16.3-10
				c0.7-0.4,1.4-0.7,2.2-0.9l20.6-3.7c0.8-0.1,1.6-0.3,2.4-0.3c1.5,0,3,0.2,4.5,0.3l5.8,0.3c3.8,0.2,7.5,0.5,11.3,0.8l7.9,0.5
				c0.7,0.1,1.4,0.2,2.1,0.5l17.9,7.1l20.7,8.2c0.3,0.1,0.6,0.3,0.8,0.5l8.3,7.6l6,5.5l8.7,7.9l4.7,4.2c0.8,0.7,1.6,1.4,2.1,2.4
				c1.9,4.2,3.9,8.3,5.9,12.4l13.3,27.9c0.3,0.6,0.5,1.2,0.5,1.8c0.2,1.7,0.3,3.4,0.4,5.1l0.9,10.1l0.5,6.2l1,11.1
				c0.2,2.3,0.3,4.5,0.6,6.8c0.1,0.7,0,1.4-0.3,2l-4.6,12.5l-8.3,22.3c-0.6,1.5-1,3-2,4.4l-25,35.3c-0.3,0.4-0.6,0.7-1,1l-9.7,7.1
				L277,345.4c-0.4,0.3-0.9,0.5-1.3,0.7l-44.8,17.6c-0.8,0.3-1.7,0.6-2.6,0.7c-1.5,0.2-3,0.3-4.5,0.4l-14,1.3
				c-3.8,0.3-7.6,0.7-11.4,1.1l-12.7,1.1c-0.2,0-0.5,0.1-0.7,0.2h-2.6c-0.1-0.1-0.2-0.2-0.3-0.2l-4.4-0.9c-1.7-0.4-3.4-0.7-5.1-1
				c1.4-0.3,2.7-0.5,4.1-0.6l12.6-1.5c1.3-0.2,2.7-0.3,4-0.5l16.5-3.7l31.3-7c0.7-0.2,1.2-0.5,1.7-1l4.1-4.5
				c0.5-0.5,0.7-1.1,0.7-1.8v-9.4l5.2-3c0.3,0.5,0.4,0.9,0.6,1.2c0.2,0,0.3,0,0.4-0.1l21.7-6.2c0.4-0.1,0.8-0.3,1.1-0.6l8.4-6.8
				c0.3-0.2,0.5-0.5,0.6-0.8c1.4-4.4-0.4-8.8-3.3-11.3c-0.6-0.5-1.1-1-1.7-1.5l6.1-4.8l13.9-10.8c0.3-0.3,0.6-0.6,0.8-0.9
				c1.8-3.7,2.8-7.6,3-11.6c0.1-2.2,0-4.4-1.6-6.3c-0.9-1.1-1.7-2.4-2.5-3.7c-1.3,0.2-2.4,0.5-3.6,0.7c-1.5,0.3-3,0.4-4.5,0.1
				c-0.4-0.1-0.8-0.1-1.3-0.5c0.6-0.5,1.2-1,1.7-1.6c2.3-2.2,4.2-4.7,5.6-7.6c0.7-1.5,1.2-3.1,1.1-4.8c-0.1-1.2-0.2-2.3-0.2-3.5
				l-0.3-8.3c-0.2-2.9-1.2-5.5-3.8-7.3c-1.2-0.8-2.5-1.6-3.8-2.3c-0.3-0.2-0.8-0.2-1.1-0.2c-2.2,0.4-4.4,0.9-6.6,1.3
				c-0.9,0.2-1.8,0.4-2.9,0.6c0.4,0.8,0.8,1.5,1.2,2.1c1.2,2.3,1.5,4.6,0.7,7.1c-0.2,0.5-0.4,1-0.6,1.7c0.6,0.6,1.3,1.2,1.9,1.7
				c1.6,1.3,2.8,3,3.8,4.7c1.9,3.3,2.7,6.8,2.2,10.6c-0.2,1.4-0.5,2.7-1.2,4.2c-1.3-3.5-3.7-6-6-8.6c0,0.3,0.1,0.6,0.2,0.9
				c1.4,2.9,2.3,6,3.2,9.1c1,3.7,1.5,7.5,1.7,11.3c0,0.6-0.1,1.2-0.4,1.7c-0.6,1.1-1.1,2.3-1.7,3.4s-1.1,2.2-1.7,3.3
				c-0.8-0.3-1.3-0.7-1.6-1.3c-0.6-1-1-2-1.3-3.1c-0.4-1.6-0.8-3.2-1.3-4.8c-0.3-1.1-1.2-1.6-2.5-2c0.2,0.4,0.2,0.7,0.4,1
				c1,1.9,1.7,4,2,6.1c0.3,2.4,0.2,4.8-0.6,7.1c-0.7,1.7-1.5,3.3-2.6,4.7c-0.4,0.5-0.7,1.1-0.7,1.8l-0.7,8.4c0,0.5-0.2,1-0.3,1.7
				c-0.7-0.9-1.2-1.7-1.4-2.7c-0.2-1.4-0.3-2.8-0.4-4.3c0-0.8,0.3-1.7,0-2.4s-1.2-1.2-1.9-1.7l-1.5-1.2c0.4,2.6,0.9,5,1.5,7.4
				c0.2,0.7,0.1,1.2-0.3,1.9l-6.5,10.1c-1.4,2.2-2.7,4.5-3.3,7c-0.1,0.3-0.2,0.7-0.4,1.2c-1.7-3.6-2.4-7.3-2.3-11.3
				c-0.7,0.7-1,1.3-1.1,1.9c-0.2,1-0.4,1.9-0.5,2.9c-0.2,2.1-0.2,4.1-0.7,6.2c-0.1,0.4-0.2,0.8-0.5,1c-2,1.6-3.5,3.6-5.1,5.5
				c-0.9,0.9-1.8,1.8-2.9,2.6c-1,0.8-2.3,1.2-3.7,1.2l1.6-7.9c-1.3,0.8-2.5,1.4-3.6,2.1v3.7c0,0.4-0.1,0.7-0.4,1.1l-7.9,9.4
				c-0.2,0.3-0.7,0.5-1.1,0.6l-4.4,0.6c-0.5,0.1-1.1,0.1-1.6,0.1l0.8-7.4c-0.1,0-0.2,0-0.3-0.1c-0.3,0.6-0.6,1.2-0.9,1.9
				c-0.7,1.7-1.1,3.5-1.3,5.3c-0.1,0.7-0.3,1.1-1,1.5l-3.5,2.1c-0.4,0.2-0.7,0.3-1.2,0.2c-1.1-0.2-2.2-0.3-3.3-0.5
				c-0.5-0.1-1,0-1.4,0.4l-10.7,7.9l-2.2,1.6c0.1-2,0.4-3.8,1.1-5.5s1.6-3.3,2.5-5.2c-1,0.3-1.8,0.6-2.6,0.9
				c-0.2,0.1-0.4,0.4-0.5,0.7c-0.5,1.2-0.9,2.4-1.2,3.6c-0.2,0.7-0.6,1.1-1.4,1.2c-2.3,0.5-4.7,1-7,1.6c-4.2,1.1-8.2,2.5-11.9,4.7
				c-2,1.2-4.2,2-6.3,2.8c-0.2,0.1-0.4,0.1-0.7,0.2v-4.2c0-0.7,0.2-1.2,0.8-1.7c2.5-1.9,4.9-3.9,7.4-5.9c0.2-0.1,0.3-0.3,0.6-0.6
				h-2.8c-0.8-0.1-1.3,0.2-1.8,0.7c-1.9,1.9-3.7,3.8-5.6,5.8c-0.6,0.6-1.2,0.8-2,0.9c-2.9,0.1-5.8,0.3-8.7,0.5l-8.8,0.6
				c-0.7,0-1.3,0.1-2.1,0.1c0-0.3,0-0.6-0.1-0.9c-0.2-1,0.2-1.6,1.1-2.2c1.9-1.3,3.7-2.8,5.5-4.2c0.3-0.2,0.5-0.5,0.8-0.7
				c-0.1-0.1-0.1-0.1-0.1-0.2c-0.3,0.2-0.6,0.3-0.9,0.5c-0.8,0.4-1.7,0.9-2.6,1c-1,0.1-1.9,0.2-2.9,0.2c-2.5,0.2-5,0.2-7.4,1
				c-0.5,0.2-1,0.2-1.5,0.2c-1.7-0.1-3.5-0.4-5.1-1.1c-0.7-0.3-1.4-0.4-2.2-0.4h-8.8c-0.3,0-0.8,0-1-0.2c-0.6-0.5-1.1-1-1.7-1.6
				c1.3-0.5,2.4-1,3.5-1.5c0-0.6,0.1-1.1,0.1-1.6c0.9-0.1,1.8-0.3,2.7-0.4c1.4-0.2,2.7-0.5,3.9-1.3c0.4-0.3,0.8-0.6,0.7-1.2
				c-3.9,0-7.7-0.5-10.9-2.9c-0.3,0.5-0.6,0.9-1,1.4l-3.5-2.3c-0.3-0.2-0.7-0.5-1-0.5c-3-0.6-6-1.3-9.1-1.8c-2-0.3-4-0.5-5.8-1.5
				c-0.9-0.5-1.5-1.2-1.5-2.4c1.2-0.3,2.3-0.7,3.5-0.8c1.2-0.2,2.4,0.1,3.7-0.1c-0.7-1-1.4-1.7-2.6-1.4c-0.8,0.1-1.4-0.2-2-0.7
				s-1.2-0.9-1.8-1.4c-0.8-0.7-1.6-1-2.8-0.9c-0.9,0.1-1.9,0-2.9,0c-0.5-0.6-0.9-1.3-1.3-1.9c-0.3-0.4-0.6-0.6-1.1-0.6h-3.7
				c-0.8,0-1.5-0.2-2.2-0.6c-1.7-1.1-3.5-2.2-5.3-3.3c-0.2-0.1-0.4-0.3-0.7-0.6h3.2c1,0,1.9,0.1,3-0.1c-1.3-1.4-2.6-2.7-3.7-4.1
				c-0.8-1-1.9-1.7-3-2.4c-1.1-0.6-2.1-1.2-3.1-2c-2.5-1.9-5-3.9-7.4-5.9c-1.1-0.9-2.2-2-3.2-3.1c2.2,0.4,4.2,1.2,6.5,1.7
				c-0.2-0.3-0.3-0.5-0.4-0.6c-1.3-1.7-2.7-3.3-4-5c-0.7-0.9-1.5-1.6-2.5-2.2c-1.7-1.1-3.3-2.3-4.8-3.6c-2.1-1.8-4-3.7-5.9-5.6
				l-0.7-0.7c2.3,0.6,4.3,1.4,6.4,2v-0.3c-0.1-0.2-0.2-0.3-0.3-0.5c-1.4-2.1-3-4-4.9-5.6c-0.8-0.7-1.7-1.2-2.5-1.9
				c-0.4-0.3-0.8-0.6-1.1-1l-3.4-5.5c-0.8-1.3-1.6-2.6-2.3-3.9c2.5,2,4.6,4.4,8.1,5.3c-1-2-2-3.8-3.5-5.3c-0.9-0.9-1.8-1.8-3-2.2
				c-0.6-0.2-0.9-0.5-1.2-1l-6.5-11.9c-0.2-0.3-0.4-0.6-0.5-1c2.1,1.4,4.1,3,6.3,4.7c-0.1-1.4-0.2-2.6-0.4-3.7
				c0-0.3-0.3-0.6-0.6-0.8c-0.8-0.6-1.6-1.1-2.4-1.7c-0.3-0.2-0.6-0.5-0.7-0.9l-3.3-7c-0.2-0.3-0.3-0.7-0.3-1.1
				c-0.1-1.4-0.3-2.9-0.4-4.3c-0.1-1-0.1-2-0.2-3.3c0.5,0.6,0.9,1,1.3,1.4c2.6,2.9,5.3,5.6,8.5,7.8c2.2,1.5,4.5,2.5,7.2,2.7
				c0.5,0,1.1-0.1,1.7-0.2v-0.3c-3.8-0.9-7-3-10.1-5.3c-3-2.3-5.8-4.8-8.5-7.8H45c-0.9-3-2.4-4.7-7-5.1c-0.2-0.2-0.3-0.5-0.5-0.8
				l-4-7C32.6,221.7,32.3,221.4,32,221.1L32,221.1z M54.9,133.5h-1.1c-1-0.1-1.6,0.2-2.2,1c-1.1,1.4-2.3,2.6-3.4,3.9
				c-0.4,0.5-0.8,0.8-1.5,0.7c-0.2,0-0.5,0.1-0.6,0.3c-0.7,1.1-1.2,2.3-1.2,3.7c0.1,1.9,1,3.6,2.1,5.2c0.2,0.3,0.5,0.5,0.7,0.7
				c0.1,0,0.1-0.1,0.2-0.1v-6.6c0-0.6,0.1-1,0.5-1.4l2.7-3C52.4,136.5,53.6,135.1,54.9,133.5L54.9,133.5z M112,70.3L101.8,73v2.3
				c0,0.7-0.1,1.5,0.1,2.3c0.3-0.2,0.6-0.3,0.8-0.4l8.5-4.9C112.1,71.9,112.4,71.4,112,70.3z M198.3,44.6c-1-1.3-2.9-2.2-4.5-2.4
				l-5-0.6c-0.2,0-0.6,0-0.7,0.2c-0.5,0.8-0.9,1.6-1.4,2.5L198.3,44.6L198.3,44.6z M54.5,252.1l-3-3c-0.8,0.4-1.7,0.8-2.6,1.6
				C50.9,251.2,52.7,251.8,54.5,252.1z"/>
			<path class="st1" d="M270.7,76.3l3.9,0.7c2.7,0.5,5.3,1.2,7.8,2.3c0.8,0.3,1.2,0.7,1.1,1.5c-0.1,0.9,0,1.8,0,2.7
				c0,0.2,0.1,0.5,0.1,0.8c1.4-0.7,2.8-1.2,4.4-1.1c0,0.3,0.1,0.6,0.1,0.8v4.6c0,0.5-0.2,0.8-0.5,1.2l-4.3,4.6
				c-0.1,0.1-0.1,0.2-0.2,0.4l5-0.3c-0.6,1.1-1.4,1.9-2.3,2.7c-2.7,2.3-5.9,3.9-9.1,5.3c-0.4,0.2-0.7,0.3-1.2,0.5c1,1.8,2,3.4,3,5.2
				c-0.3,0.1-0.4,0.1-0.6,0.1c-2-0.1-4-0.2-6-0.4c-0.5,0-1-0.2-1.5-0.3c-0.4-0.1-0.8-0.3-1.2-0.5c-1.4-0.8-2.7-0.7-4,0.1
				c-0.1,0.1-0.3,0.1-0.5,0.2l-4-2.6c0.2,1.5,0.4,2.8,0.5,4.2c-1.1-0.2-2.1-0.4-3.1-0.5c-0.7-0.1-1.4-0.3-2.1-0.4
				c-1.7-0.2-2.9-1.2-4-2.2c-2.2-1.9-3.8-4.1-5.2-6.6c-0.2-0.4-0.5-0.8-0.8-1.3c-0.7,1.6-1,3.3-2.4,4.5c-0.3-0.7-0.6-1.3-0.9-1.8
				c-1-2.2-1.5-4.5-2-6.8c0-0.2-0.1-0.5-0.2-0.7c-0.8-2.4-0.6-4.9-0.3-7.4c0.1-0.7,0-1.5,0-2.4c-1.1,0.5-2.1,1-3.2,1.6
				c0.4-1.6,0.3-3,1.4-4.3c2.7-3,5-6.2,6.9-9.7c0.1-0.1,0.2-0.3,0.2-0.5v-0.2l-4.9-2.5c0.3-0.2,0.5-0.3,0.7-0.4l3.3-1.5
				c0.8-0.4,1.7-0.7,2.7-0.7c3-0.1,6.1-0.4,9.1-0.7c1.8-0.2,3.7-0.5,5.5-0.9c-1.8-0.8-3.7-1.2-5.5-1.8c-1.9-0.6-3.8-0.1-5.9-0.4
				c0.4-1.1,0.7-2.3,1.2-3.6c-1,0.6-1.7,1-2.4,1.5c-0.4,0.3-0.8,0.4-1.3,0.4h-4.4l0.6-5c-0.9,0.7-1.7,1.2-2.4,1.9
				c-0.4,0.3-0.8,0.4-1.3,0.2l-3.2-0.9c-0.4-0.1-0.7-0.3-0.8-0.6l-2.5-7c1.3-0.4,2.5-0.3,3.8-0.4c2.7-0.2,5.4-0.3,8.2-0.4
				c0.9,0,1.8-0.2,2.7-0.2c0.5,0,0.9,0.2,1.4,0.3l19,7.7c0.9,0.4,1.8,0.6,2.8,0.6h1c0,0.3,0,0.6-0.1,0.9c-0.2,1-0.5,1.9-0.7,2.9
				c-0.3,1-0.3,1-1.3,1.2c-1.5,0.2-3.1,0.4-4.6,0.8c2,1,4.2,1.6,6.3,2.4c2.1,0.8,4.3,1.5,6.6,2.3v-7.9l17.4,15.7l-0.5-8.4
				c0.1,0,0.1,0,0.1-0.1l16.7,21.8c0.1,0,0.1,0,0.2-0.1l1.8-8.4h0.2l10,23.2h0.2c0.6-2.5,0.9-5.1,1.5-7.6h0.2l9.3,22.3
				c0.7-1.2,1.1-2.3,1.5-3.4l1.5-3.4c1.5,7.8,2.7,15.6,4.1,23.3h0.3l4.5-7.3c0.1,0.4,0.2,0.5,0.2,0.7c0.2,2.9,0.3,5.9,0.4,8.8
				c0.1,3.4,0.7,6.7,1.4,10c0,0,0.1,0,0.2,0.1c1.1-3.5,1.9-7,3.1-10.7l2,3.9c0.1,0.3,0.1,0.7,0.1,1v19.9c0.5,0,0.9,0,1.3,0.1
				c0.6,0.1,0.9-0.2,1.2-0.6c1-1.5,2.1-3,3.2-4.5c0.1-0.2,0.2-0.3,0.5-0.6c0.1,0.4,0.2,0.6,0.2,0.8c0.1,1.8,0.2,3.6,0.2,5.4l0.4,7.1
				l0.3,5.9l0.4,6.9l0.3,5.9l0.4,6.8l0.3,5.9l0.4,7.4l0.3,5.9l0.4,7.1c0.1,2.4,0.2,4.9,0.1,7.4c-0.2-1-0.4-2.1-0.7-3.1l-5.2-26.1
				c-0.3-1.3-0.5-2.6-0.8-3.9c-0.3-1.5-1.1-2.8-1.7-4.2l-7.3-15l-5.4-11c-0.2-0.4-0.3-0.8-0.6-1.3c1.7,0.5,3.2,0.9,4.7,1.3
				c0-0.1,0.1-0.1,0.1-0.2c-0.5-0.8-1.1-1.6-1.6-2.5c-0.8-1.2-1.7-2.4-2.8-3.4c-1.9-1.7-3.6-3.6-5.5-5.3c-1.1-1-1.4-2.2-1.6-3.6
				c1.5,1,2.9,1.8,4.4,2.8c0.3-0.9,0.7-1.7,1-2.6c-1.3-0.7-2.6-1.4-3.9-2.1c-0.2-0.1-0.4-0.3-0.7-0.3c-1.7-0.7-2.9-1.8-3.7-3.5
				c-1.1-2-2.3-3.9-3.5-5.9c-0.1-0.2-0.2-0.3-0.3-0.6l6.1,1.9l0.1-0.1c-0.2-0.2-0.3-0.4-0.5-0.6l-4.3-4.2c-0.6-0.6-1.4-1-2.2-1.4
				c-2.4-1.2-4.5-2.7-6.1-4.8c-0.7-0.8-1.2-1.8-2-2.9c1.3,0.3,2.4,0.6,3.5,0.7s2.3,0,3.6,0c-0.2-0.5-0.4-0.8-0.5-1.1
				c-0.7-1.6-1.9-2.7-3.5-3.5c-4.6-2.4-9.1-4.9-13.7-7.4c-0.4-0.2-0.8-0.5-1.3-0.8l1.5-2.4c1.7,0.2,3.4,0.5,5.1,0.7
				c0-0.1,0.1-0.1,0.1-0.2c-0.2-0.1-0.3-0.3-0.5-0.4l-9.9-5.6c-0.4-0.2-0.8-0.3-1.2-0.3c-0.7-0.1-1.4,0-2.2,0v-2.3l7.3-1.5
				c-0.3-0.3-0.4-0.5-0.6-0.6l-3-2.4c-0.5-0.4-1-0.6-1.7-0.7l-9.2-1.8l-1.2-0.3v-2.3c1.7-0.3,3.3-0.5,5-0.7V91l-7.4-4l0.7-6.1h-5.6
				c0.8-1.3,1.5-2.3,2.3-3.5c-1-0.3-1.9-0.1-2.8-0.2h-6c-0.2-1.1-0.5-2.2-0.8-3.3c-1.4,0.5-2.7,1.1-4.2,1.6c0-0.8-0.1-1.5-0.1-2.2
				l-7.4,1.7v-2.6c-1,0.1-1.5,0.8-2.3,1.1c-0.7,0.4-1.4,0.9-2.1,1.3l-2.3,1.3v-3.5c-0.1,0-0.2-0.1-0.2-0.1c-0.7,0.9-1.2,1.9-1.8,2.9
				c-0.6,0.9-1.2,1.9-1.8,2.9c-1.1-0.8-2.2-1.5-3.4-2.3c0,2.4,0.4,4.6,0.4,7.1c-1-1-1.9-1.8-2.8-2.7c-0.1,0-0.1,0.1-0.2,0.1l1.8,5.9
				c-1.1-0.6-2.1-1.2-3-1.7l-0.2,0.2l3.9,4.7l-2.2,2.2c2.1,0.8,4.2,1.5,6.3,2.2l-2.9,1.7c1.3,0.5,2.5,0.1,3.7,0.5
				c0.3-0.6,0.7-0.7,1.4-0.7c1,0,2.1,0,3.1,0.3c0.8,0.3,1.6,0.1,2.4,0c0.5-0.1,0.9-0.1,1.5-0.2c0.1,0.6,0.1,1.1,0.2,1.9
				c0.4-0.4,0.8-0.6,1-1c1-1.3,1.7-2.7,2.3-4.2c0.1-0.4,0.3-0.7,0.7-1.1l1.6,5.7l0.4-0.8c0.8-2.7,1.5-5.4,2.4-8
				c0.5-1.5,0.5-2.9,0.2-4.4c-0.2-1.1-0.4-2.3-0.5-3.4c-0.1-0.7-0.4-1.2-0.9-1.6c-1.1-0.8-2.1-1.7-3.1-2.6
				C270.7,76.5,270.7,76.4,270.7,76.3L270.7,76.3z M146.2,47.2c0.6,1.7,1.8,3,2.9,4.3l1.7,2.1c0-0.5,0.1-0.7,0-0.8
				c-0.2-2,0.1-4,0.9-5.9c0.1-0.2,0.2-0.6,0.4-0.7c0.9-0.8,1.9-1.5,3-2.2c-0.3,0.9-0.5,1.9-1,2.8c-0.8,1.3-0.9,2.6-1,4
				c-0.1,1.9,0.6,3.6,2.1,4.9c1.3,1.1,2.8,1.6,4.5,1.6c2.2,0,4.3-0.2,6.3-0.9l4.7-1.7c1.2-0.5,2.2-1.2,3.4-1.7
				c3-1.3,6.1-2.2,9.5-2.2l4,0.1c0.8,1.8,0.5,3.1-0.7,4.3l-2-1.4c-0.8-0.6-1.6-0.8-2.5-0.6c-1.7,0.3-3.4,0.7-5.1,1.2l-7.4,2.1
				c-0.7,0.2-1.4,0.5-2,0.8c-2.4,1.5-5.1,2.3-7.9,2.3c-2.5,0-5.1,0-7.5-0.9c-2.1-0.7-3.6-2.1-5-3.8c-0.3-0.4-0.5-0.9-0.8-1.2
				c-0.6-0.8-0.9-1.6-0.8-2.6c0.2-1.2,0.2-2.3,0.3-3.5C146.1,47.5,146.2,47.3,146.2,47.2L146.2,47.2z M50.3,176.6
				c-0.1,1.6-1,2.9-1.9,4.1c-1.3,1.8-3,3.1-4.8,4.4c-1.9,1.4-3.8,2-6.2,1.7c-0.7-0.1-1.4,0-2.3,0c0.2-0.5,0.6-0.8,1-1.1
				c1.6-1,3.3-1.8,5.2-1.9c0.2,0,0.5-0.1,0.9-0.2c-1.6-1.2-3.3-1-5.1-1.1l-2.7-5.4c0.1,0,0.1-0.1,0.2-0.1l1.3,0.9l3.2,2.3
				c0.4,0.3,0.8,0.5,1.4,0.5H44c0.5,0,0.9-0.1,1.2-0.5l3.1-3.1C48.8,176.5,49.4,176.3,50.3,176.6L50.3,176.6z"/>
		</g>
	</g>
</g>
</svg>
