<svg xmlns="http://www.w3.org/2000/svg" viewBox="0 0 400 400"><circle cx="200" cy="200" r="191.5" fill="#101006"/><path d="M200 9c25.8 0 50.8 5 74.3 15 22.7 9.6 43.2 23.4 60.7 40.9s31.3 38 40.9 60.7c10 23.5 15 48.6 15 74.3s-5 50.8-15 74.3c-9.6 22.7-23.4 43.2-40.9 60.7s-38 31.3-60.7 40.9c-23.5 10-48.6 15-74.3 15s-50.8-5-74.3-15c-22.7-9.6-43.2-23.4-60.7-40.9s-31.3-38-40.9-60.7C14 250.8 9 225.8 9 200s5-50.8 15-74.3C33.6 103 47.4 82.5 64.9 65s38-31.3 60.7-40.9C149.2 14 174.2 9 200 9m0-1C94 8 8 94 8 200s86 192 192 192 192-86 192-192S306 8 200 8h0z"/><g fill="#821528"><path d="M207.8.2C147.8-2 96.1 19.1 54.7 62.7 18.3 101.1.1 147.4 0 200.4-.2 310.2 89.4 400.6 199.8 400c110.7.7 201.1-89.8 200.2-201.1C399.1 87.3 311 3.9 207.8.2zm-7.7 381c-99 0-182.2-80.6-180.4-184.7C21.4 103.1 98.5 16.1 209 20.2c88.8 3.2 174.5 78.3 171.9 185.9-2.3 94.2-80.2 175.1-180.8 175.1z"/><g fill-rule="evenodd"><path d="M32 221.1v-3.8c.3.1.6.2.8.4l4.8 3.4c.2.2.5.3 1 .6-.2-.5-.2-.8-.3-1.1l-1.3-3.7c-.9-3.5-1.3-7.1-1.4-10.7 0-1.2-.1-2.3-.4-3.4-.5-1.8-.8-3.6-.8-5.5 0-1.1.1-2.2.1-3.3.1-2 .6-3.9 1-6h5.1c.6 0 1.1-.1 1.6-.5 1.5-1 3.1-1.9 4.6-2.8.2-.1.4-.1.7-.3-.8 3.9-1.4 7.8-1.3 11.8H43c.6.9 1.2 1.6 1.6 2.3.4.6.8 1.3 1 2 .4 1.5.1 2.9-1 4.2-.7-.3-1.2-1-2.1-1.2.8 1.4 1.4 2.6 2.2 3.7.9 1.2.7 2.5.7 3.9-.7 0-1.1-.6-1.9-.6.8.7 1.4 1.3 2 1.9.2.2.4.5.4.7v2.7c-1-.1-1.7-.6-2.8-.5 1.1 1 2 1.9 2.9 2.8.3.3.6.6.6.9.2 1.3.3 2.6.5 3.9-.7 0-1.2.1-1.7.1 1.7 1.2 3.6 2.1 4.1 4.3-.7 0-1.4.1-2 .1 0 .1-.1.1-.1.2 2.1 1.3 4.4 2.2 5.6 4.6-.3.2-.6.3-1.1.6 1.4.2 2.6.4 3.7.7.3 0 .6.1.8.3.6.8 1.2 1.7 1.9 2.7-1 .4-2 .7-2.9 1v.2c1.1.1 2.2.2 3.3.2 1.4 0 2 .8 2.8 1.8-.9.2-1.7.4-2.5.6.3.3.7.4 1.1.5 1.6.4 3.2.5 4.8.4.9 0 1.5.2 1.9 1 .2.5.6.9 1 1.4.4-.6.7-1.1 1.1-1.6.2-.2.4-.5.6-.5 1.2-.2 2.5-.3 3.8-.5.2 1.4-.1 2.7.2 4.1.2-.3.3-.4.4-.6L76 241c.2-.3.5-.6.8-.6.9-.1 1.7 0 2.6 0 .1.6.1 1 .2 1.4h.2l.9-3.9c.6.2 1.2.3 1.7.4.6.1 1.2.3 1.9.4v-3.8c.8.1 1.4.2 2.2.4v-5.4c1 .1 1.9.3 3 .4-.9-2.1-1.7-3.9-2.5-6 1.2.2 2.1.4 3.1.5 0-.1.1-.1.1-.2l-4.1-5.1.1-.1c1.4.3 2.7.7 4.3 1.1-.4-.6-.7-1.1-.9-1.5-.3-.5-.6-.7-1.2-.8l-4.3-.6c-.3 0-.7-.2-.9-.4-.6-.9-1.1-1.8-1.7-2.9h2.4c.7 0 1.4.2 2.2-.2-1.8-1.7-4.1-1.5-6.3-1.9 0-.6-.1-1.2-.1-1.8-1.5.3-2.9.7-4.4 1-.3-.8-.5-1.4-.8-2.1.9-.4 1.6-.9 2.6-1.3-2.6-.3-2.6-.3-4.1 1.4-.1.1-.2.3-.3.3-.2.1-.4.3-.6.3h-1.8v-2.5c-.1 0-.1 0-.2-.1l-3.3 3.6c-1.4-1-3.1-1.4-3.5-3.2 0 0-.1 0-.3-.1-.1.4-.1.8-.2 1.1-.2 2.1-.9 4-2.1 5.7-.3.4-.6.7-1.2.8-.1-.9 0-1.7-.1-2.5-.6 1-1 1.9-1.5 2.8-.6.9-1.8 1.1-2.8 1.5l.3 8.4-2.6-2.8c-.1 0-.2.1-.2.1l1.2 7.6c-.1 0-.1 0-.2.1-.5-.7-1.1-1.4-1.5-2.1-1.1-2-2.2-4-2.8-6.3-.5-2-1.2-3.9-1.6-5.9-.3-1.3-.2-2.6-.4-3.9-.1-.5.1-.8.4-1.2 1.6-1.9 2.6-4 3.4-6.3.3-.9.7-1.7 1.2-2.5 1.8-2.8 4.3-4.9 7.1-6.7 1.6-1 3.2-1.8 5.1-1.9 1.2-.1 2.4-.3 3.6-.5 0 .1.1.1.1.2l-4.7 5.6.2.2c.4-.2.8-.4 1.1-.6 3-1.7 6.4-2.4 9.8-2.7 2-.2 4.1 0 6.1.1 1.6.1 2.7 1.1 3.8 1.9-.9.1-1.7.1-2.5.1-1.7.1-3.5.2-5.2.7-.6.2-1.3.4-1.9 1.1h12.6c.6 0 1.1.1 1.5.5 1.1.9 2.1 1.7 3.2 2.5 1.5 1.2 2.6 2.7 3.5 4.2a22.02 22.02 0 0 1 .9 2.1l-5.9-1.9c0 .1-.1.1-.1.2.3.2.5.3.8.5 2.1 1.1 3.9 2.7 5.6 4.4 1.5 1.5 2.5 3.3 3.3 5.3 1 2.6 1.8 5.2 1.7 8.1l-.2 8.7-.1 7.3c0 1.4-.2 2.5-.9 3.7-.5.9-1 1.7-1.5 2.7-.1-.3-.2-.5-.2-.7-.7-2.4-1.5-4.7-2.1-7.1-.3-1.3-1.3-1.9-2.4-2.9.9 9-3.4 15.1-11 19.7l2.4-8.8c-.3 0-.4 0-.5.1-1.7.8-3.4 1.7-5.2 2.5-.4.2-.6.5-.6.9-.1.7-.3 1.4-.4 2.2s-.5 1.1-1.3 1.3l-8.6 2.2c-1.1.3-2.2.5-3.3.8l-.1-.1c1.6-1.6 3.2-3.1 4.9-4.7-.2-.1-.3-.1-.3-.1-.2 0-.4.1-.6.1a15.15 15.15 0 0 1-6.7 0c-2-.5-4-1.1-6-1.6-.4-.1-.8-.4-1.4 0 1 .1 1.5.6 1.9 1.2.5.7 1.1 1.3 1.6 1.9.2.2.3.4.5.7-1.5-.4-2.6-1.2-4-1.3 2 1.8 3.9 3.7 5.2 6.3-1.2-.4-2.2-.7-3.4-1 .2.3.3.4.4.5.2.2.4.5.7.7 2.1 1.7 4 3.7 5.5 5.9.5.8.9 1.6 1.2 2.6-1.8-.6-3.2-1.6-5-2 3.1 2.8 6.4 5.5 8.3 9.3-1.7-.4-3.3-1.3-5.1-1.7 2.7 2.5 5.6 4.7 8.4 7.3-.7 0-1.2.1-1.8.1 2 1.5 3.9 2.8 5.7 4.3s3.3 3.3 4.5 5.7c-.7-.2-1.1-.4-1.6-.6-.4-.2-.9-.3-1.3-.5-.4-.1-.8-.3-1.2-.4 3 1.9 5.7 4 7.6 7-.6.2-1.2 0-1.8.3 2.7 1.8 5.3 3.6 7.4 6.2l-3.2-.3c.9 1.1 1.6 2 2.3 2.9.1 0 .1 0 .2-.1 0-.5.1-1 .1-1.8 1.4 2.2 2.6 4.2 4.3 5.9 1 1 2.1 1.9 3.4 2.3.9.3 1.5.7 2.1 1.4 1.9 2.2 4.4 3.1 7.3 3 .8 0 1.6-.2 2.3-.3.6 1 1 2.1 1.8 2.8s2 1.1 3 1.7l11.2 5.7c1.7.9 3.4 1.8 5.3 2.5l17.3 6.4c1.7.6 3.4.9 5.2.9 2.6 0 5.2.1 7.7.2 1.3 0 2.7.1 4 .2.4 0 .8 0 1.2-.1 1.3-.7 2.8-.9 4.2-1.1 3.6-.4 7.2-.7 10.8-1l7.5-.5c.6 0 1.3-.2 1.9-.4l22.2-7.2c1.3-.4 2.5-.9 3.7-1.5l11.5-5.6c.9-.4 1.7-1.1 2.4-1.8.6-.6 1.2-1.3 1.8-2l8.1-8.4c.9-1 1.7-2 2.3-3.3.9-1.8 1.9-3.6 2.9-5.3.6-1.2 1.1-2.3 1.1-3.7 0-.4.1-.9.2-1.4.5-3.2 1.6-6.3 2.8-9.4.3-.7.3-1.3.3-2.1-.1-1.2-.1-2.3-.2-3.5-.1-1.9-.1-3.8-.2-5.7 0-.2-.1-.3-.1-.5h-.2c-.4 2.1-.8 4.1-1.3 6.2-.1-.7 0-1.3 0-1.9l.2-11.6c0-2-.5-3.8-1.6-5.5-.5-.8-1.1-1.3-2.2-1.2-.2 0-.3-.1-.6-.1v-2.5c-2.2.1-3.9.9-5.6 2.1-2 1.4-2.9 3.4-3.5 5.5-.8 2.9-1.1 5.8-1 8.7 0 .7.1 1.3.4 1.9.8 2.2 1 4.4 1 6.7-.1 1.6-.7 3.1-1.3 4.5-.1.4-.3.7-.3 1.1 0 .7.2 1.4.2 2.1.2 1.9.1 3.9-.6 5.7-1.3 3.5-4.9 5.4-9 5.4 1.5-1.6 2.9-3.2 3.1-5.4s-.7-4.1-2.1-5.8l-1.2.3c-2.3.8-4.7 1.6-7.1 2.2-3.5.8-7 1.5-10.5 2.2-4.1.8-8.2 1.1-12.3 1.1-3.1.1-6.2-.1-9.2-.3-2.8-.2-5.6-.5-8.3-1.1-2.2-.5-4.3-.9-6.5-1.5-2-.5-3.9-1.2-5.9-1.8-.3-.1-.5-.1-.8-.2-.1.9-.1 1.6-.2 2.4l-1.2 4.8c-.1.4-.1.8-.1 1.1l.3 1.9c.2 2.5-.1 4.8-2 6.7-.3.3-.5.7-.5 1.1-.4 1.5-1 2.9-1.8 4.3-.8 1.3-1.9 2.2-3.4 2.7-2 .6-3.9.6-5.9.3-.7-.1-1.4-.1-2.1-.5.7-.4 1.3-.8 1.9-1.2 1.3-1 2.5-2.1 3.2-3.7.5-1.2.5-2.4-.3-3.6-.8-1-1.2-2.2-1.3-3.4-.2-2-.3-4.1-.4-6.1-.1-2.6-1.1-4.7-3.3-6.2l-7.5-5.1c-.5-.4-1.1-.5-1.7-.5-1.7 0-3.4.1-5.1 0-1.4-.1-2.5.2-3.6 1.1-1 .8-2.2 1.4-3.6 1.6-1.3.2-2.1-.1-2.7-1.3-.2-.4-.4-.9-.5-1.3-1.6-.4-2.7.3-3.4 1.5-.5.9-.9 1.8-1.4 2.7-.2.3-.3.6-.5 1-1.1-1.9-1.8-4-2-6-.2-1.9.3-3.8 1.7-5.2a12.44 12.44 0 0 1 3.2-2.3c1.1-.5 2-1.2 2.9-2 .7-.7 1.4-1.3 2.1-2 .2-.2.3-.4.6-.7a9.36 9.36 0 0 0-1.6.4c-.7-.8-1.4-1.6-2.1-2.3l-4.7 2.9c-.3-1.2-.2-2.4 0-3.5.4-2.3 1.6-4.1 3.6-5.2 1.6-.9 3.5-1.3 5.3-1.3.6 0 1.1-.1 1.5-.5 1.1-1.1 2.6-1 3.5-.2.7.5 1.4.4 2.3.3-.6-.8-1.2-1.4-1.7-2.1-.3-.4-.6-.5-1.1-.6-1.3 0-2.7-.1-4-.2-.5 0-.9-.1-1.5-.1 1.2-1.5 2.2-2.9 3.3-4.3.3-.5.7-.6 1.3-.6h5.9c.7 0 1.1.2 1.5.8 1.6 2.4 3.5 4.4 6 5.8.5.3.8.6 1 1.1 1.5 2.7 3 5.5 5.2 7.8 1.2 1.3 2.4 2.6 3.7 3.7s2.8 2.1 4.2 3.2c1.6 1.2 3.4 2.1 5.5 2.3.3 0 .6.2.9.2 4.3 1.1 8.7 1.7 13.1 2 4.8.3 9.6.2 14.4-.5 6-.9 11.7-2.6 17-5.3.8-.4 1.4-.9 1.6-1.7.1-.4.3-.9.3-1.3.2-1.6.2-3.2-1.4-4.3l-.3-.3c-3.1-4-5.5-8.4-6.8-13.2-1.4-5-2-10.2-2-15.4v-3c0-.3-.1-.5-.1-.8-1.2-.1-2.2-.2-3 .8-2.1 2.4-4.4 4.7-6.6 7-.8.8-1.5 1.7-1.5 2.9 0 .3-.2.6-.3.9-1.1 3.1-2.9 5.7-5.3 8-1.7 1.5-3.2 3.1-4.5 5-2.1 2.9-5.1 4.1-8.6 4.5-.7.1-1.3.1-2 .1-.1-.7-.2-1.2-.3-1.8.4-.2.8-.3 1.1-.4 1.2-.3 2.2-.8 3.1-1.5.9-.6 1.8-1.4 1.9-2.5.2-1.7 0-3.4 0-5.2-.8-.2-1.6-.5-2.4-.7-2.8-.8-5.7-1.4-8.4-2.7-2.4-1.1-4.8-2.3-7.1-3.4-4-2-7.7-4.6-11.1-7.4-2.5-2.1-4.8-4.5-7.1-6.8-3.1-3.1-5.9-6.5-8.5-10.2-.8-1.2-1.8-2.4-2.6-3.6l-2.6.6c.1 1.2.1 2.2.2 3.3.1 2.3-.1 4.5-1 6.7-.3.7-.6 1.3-1.3 1.8-.4-.3-.8-.6-1.2-1-.7 1-1.2 2-2 2.8-1.2 1.4-2.8 2.3-4.8 2.3-2.2.1-4-.8-5.9-1.8-.6-.3-1.1-.8-1.7-1.2.6-.1 1-.2 1.5-.3 1.8-.3 3.6-.8 5.2-1.7.7-.4 1.2-.8 1.4-1.6-.2-.2-.3-.4-.5-.6-.6-.7-1.2-1.3-1.7-2-.9-1.3-1.4-2.8-1.3-4.5.2-1.8.7-3.3 1.7-4.8.2-.3.5-.7.5-1.1 0-1.9.4-3.8 0-5.8-.6-2.8-1.4-5.4-3.1-7.8-1.1-1.5-2.3-2.9-3.8-4-.6-.5-1.2-1.1-2-1.4-2.4-1-4.7-2.1-6.8-3.5-1.9-1.2-3.5-2.6-4.9-4.3-.5-.6-.9-1.4-1.6-1.7-.6-.3-1.5-.1-2.3-.1-1-.1-1.7.2-2.4.8-1.3 1.1-2.9 1.8-4.8 2.1.2-.4.4-.7.6-1 .6-1.2 1.4-2.3 1.9-3.5.6-1.4 1.4-2.7 2.4-3.8 1.4-1.5 3.1-2.3 5.2-1.9.8.2 1.6.3 2.4.4.3-1.3.6-2.6 1.8-3.4s2.5-.9 4.1-.9c-.3-.3-.4-.5-.6-.7-.6-.6-1.2-1.1-1.8-1.7-.6-.7-1.3-.8-2.1-.6-1 .2-2.1.2-3.2.4.2-1.7 1-2.8 2.3-3.7 1.6-1 3.4-1.3 5.3-1.5.7-.1 1.5-.1 2.3 0 1.9.2 3.3 1.4 4.4 2.8.3.3.5.7.7 1 .3-.2.5-.2.7-.3 1.4-.7 2.5-.5 3.4.7.4.5.6 1.1.8 1.6.1.3.3.6.4 1 1.3-.9 1.4-1.1 1.4-2.5 0-1.5-.7-2.9-1.8-4-.2-.2-.6-.3-.9-.3h-2.4a25.79 25.79 0 0 0 .7-2.1c1.7 0 3.3.1 4.9 0 1.9-.1 3.5.5 4.9 1.6.4.3.9.8 1.1 1.3.8 1.7 1.3 3.6 1 5.5 0 .2 0 .4.1.6.2.1.4.2.5.2 1.9.6 1.9 1.3 2 2.5 0 .6 0 1.1.1 1.7l.8 10c.2 2.3.3 4.7.5 7 0 .5.2 1 .5 1.5l4.1 6.2c4.1 6.1 8.8 11.8 14 17 3.5 3.5 7.5 6.5 12.1 8.7.9.4 1.8.7 2.7 1.1.1-.3.2-.4.2-.6.3-1.5-.2-2.7-1.3-3.7-1.5-1.4-3.2-2.7-4.4-4.3-.8-1-1.9-1.7-3.2-2.1-.1-.5-.2-.9-.3-1.3-.4-1.3-.8-2.6-1.8-3.6-.4-.4-.6-.9-.6-1.4-.3-1.9-.5-3.9-.9-5.8-.3-1.3-.8-2.6-2.2-3.4-.3-.2-.4-.5-.4-.8-.2-1.5-.3-3.1-.7-4.6-.6-2.8-1.7-5.5-3.5-7.8-.3-.4-.6-.8-.9-1.3.7.1 1.3.1 1.9.1.1-.3.2-.5.2-.8.2-2 0-4-.6-5.9-.3-.8-.5-1.6-1.2-2.2-1.5-1.2-3-2.5-4.5-3.8-.4-.4-.9-.5-1.5-.5h-3.1c.2-.3.3-.6.4-.7 1-1.2 1.9-2.5 3-3.6.9-.9 1.4-1.9 1.2-3.2-.1-.6 0-1.1 0-1.7 0-.4-.1-.7-.4-1l-3.4-3.6c-.6-.6-1.2-1-2.1-.9-.2 0-.5-.1-.8-.1 1.3-1.4 1.1-2.8.9-4.3-.3-.1-.6-.1-.9-.2.1-.9.2-1.7.4-2.5.2-.7.1-1.4-.4-2-.5-.7-1-1.5-1.5-2.3-.3-.4-.6-.6-1.1-.5h-5.3c.3-.4.4-.6.6-.7.9-.7 1.5-1.7 2.1-2.7.5-.9.6-1.7.2-2.7-.4-1.2-1.4-1.8-2.4-2.4-2.1-1.3-4.5-2-6.9-2.5-1-.2-2-.4-3-.7v-2.5c0-.3 0-.7-.2-.9-.6-.9-1.3-1.8-2.1-2.8-1.6.8-3.1 1.5-4.7 2.2l-3.7-3.3c-.7-.6-1.2-1.3-2-1.6-.7-.2-1.6 0-2.4.1h-.5c-1.7.2-3.4.3-4.9 1.1-1.2.7-2.5 1.2-3.8 1.7-.1.5-.1.9-.1 1.4l-4.7-2.1c-.2.1-.3.2-.4.3-2 1.7-4.1 3.3-6.1 5-.5.4-.9.5-1.5.5h-3.4c-.6 0-1.3-.1-1.8.2-1.1.5-2.1 1.2-3.2 1.8.4.2.6.3.9.3 1.6-.1 3.3-.1 4.9-.2 1.7 0 3.3-.2 4.9-.8s3.3-1.1 4.9-1.7c.8-.3 1.6-.5 2.4-.8-.8 1.8-1.2 2.3-2.6 3.1l-10.1 5.7c-1.5.8-2.9 1.7-4.4 2.5v4.3c.1 0 .1 0 .2.1 2.2-2.2 4.5-4.3 6.8-6.5.5.3.9.5 1.4.8l-3.5 5.2c-1.1 1.7-2.4 3.3-3.3 5.1.6-.5 1.1-1.1 1.7-1.7.2-.3.5-.6.8-.7 1.9-.7 3.9-1.3 6.1-2-.3.3-.4.5-.5.6-2 2.1-4 4.2-5.9 6.4-1.7 1.9-3 4.1-4.1 6.3-.3.6-.3 1.1.1 1.7.5.6.9 1.3 1.3 2 .3.5.7.8 1.4.9s1.5.3 2.4.5c-.7 1.1-1.4 2.1-2.2 3.2 2.1.2 4.1 0 6.3.1-1.7 1.4-3.4 2.5-5.4 2.9-1.2.2-2.4.4-3.4-.4l-.6-.3c-1.3-.6-2.6-.4-3.9 0-1.4.4-2.7.1-3.9-.6-.3-.2-.8-.4-.9-.9h.7c.6 0 1.2 0 1.6-.7.3-.4.8-.7 1.2-1 .6-.4 1.3-.8 2.1-1.3l-4.2-1.2a52.67 52.67 0 0 1 3-1v-1.4c0-.5-.2-.8-.7-.9-.2 0-.4-.1-.6-.2-1.1-.3-2.3-.7-3.6-1 1.5-.9 3-1.4 4.4-2.4-1.2-.5-2.2-1-3.3-1.5.4-.2.8-.3 1.1-.4 1.7-.3 1.7-.3 1.5-2 0-.1-.1-.1-.2-.3h-2.9c.9-.9 1.5-1.6 2.3-2.3-.6-.4-.9-1-1.6-.8-.8.2-2.2 1.8-2.2 2.7-.1 1.3-.2 2.6-.2 3.9-.1 2-.2 4.1-.2 6.1 0 .4-.1.8-.1 1.2h-2l1.1-16.1h-.9c0 .6-.1 1.2-.1 1.9-.7-.1-1.4-.1-2.3-.2l1.9 3.9-.1.1c-.9-.5-1.7-1-2.6-1.5-.3.5-.5.9-.8 1.3s-.3.8.1 1.2c.5.6.9 1.2 1.3 1.8l-.1.1c-.7-.4-1.3-.8-2.1-1.3-.4.6-.8 1.3-1.2 1.9 1.2 1.1 2.3 2.2 3.4 3.3 0 .1-.1.1-.1.2l-3.6-.6c-.2.5-.4.9-.5 1.3 1 1 2.1 2 3.1 3-.7-.1-1.4-.6-2-.6s-1.2.4-2.1.8c2.1 1.4 4 2.8 6 4.2l-3.4.9-2.1-2.1c-.4-.5-.8-.7-1.5-.5-.9.2-1.9.3-2.9.4-.4-.9-.8-1.8-1.1-2.7-.5-1.9-.5-3.9-.5-5.8 0-1.3.3-2.2 1.6-2.7.8-.3 1-1 1.1-1.8.4-3.9 1.3-7.7 3.5-11.2.3-.4.3-.8 0-1.3-.7-1.1-1-2.4-1.2-3.7-.1-1.4 0-2.7.6-4 2.5-4.6 5.1-9.2 8.6-13.1 1.5-1.7 2.5-3.5 3-5.6 0-.1.1-.3.1-.4.9-3.3 2.1-6.6 4-9.5 1-1.5 2.1-2.9 3.7-3.9.5-.4.9-.8 1.2-1.3.6-1.2 1.2-2.3 1.7-3.5.2-.3.3-.7.3-1.1.1-1.6.2-3.1.4-4.7.1-.9-.1-1.9.3-2.9a134.18 134.18 0 0 1 3.6 5.9c.1.2.1.6.1.9-.1 1.1-.2 2.2-.2 3.3 0 1.5-.5 2.8-1.7 3.9-.8.8-1.5 1.7-2.2 2.6.6 1 1.1 2 1.7 3l-.8.8-3.7 3.6c-.3.3-.5.6-.5 1 .1.9.1 1.8.2 2.7 0 .4.1.8.3 1.4.3-.5.6-.8.7-1.1.3-.6.8-1 1.5-.9.5.1.9-.1 1.3-.5l4.1-3.6 7.7-6.7c1.8-1.6 1.8-1.6 4.2-1.6h3.8v.2l-7.8 4.5v4.5c1.5-.5 2.8-1.1 4.2-1.5.6-.2 1-.5 1.2-1.1.8-2.2 2.4-4 4.3-5.4 1-.7 1.9-1.2 3.2-1.4 1.8-.2 3.5-.5 5.3-.7.3 0 .7 0 .9.1.7.6 1.3 1.2 2 1.9l-9.8 4.2v.2c.3 0 .5.1.8.1 2.2-.2 4.4-.3 6.6-.5.6 0 1.2-.3 1.7-.7 1.3-1 2.6-2 3.9-3.1.7-.6 1.3-1 2.3-.8.6.1 1.2.1 1.8.2 2.8.2 5.5.3 8.3.4.1 0 .3.1.7.2l-11.4 3.6c2.2 1 4.4 1.8 6.7 2.5.3.1.7 0 1-.2l3.2-1.5c.4-.2.8-.3 1.2-.3h5.6c.3 0 .6 0 .8.2.8.7 1.7 1.4 2.4 2.4l-8.8.9c.1.2.1.3.1.3l4 2.7c.2.2.6.2.9.2 1.8-.2 3.5-.4 5.3-.5 1.8-.2 3.6-.3 5.4-.5.9 1.6 1.9 3.1 2.8 4.9h-7.4c0 .2-.1.2 0 .3.6 1.3 1.3 2.5 2 3.7.1.2.4.3.7.4l3.4.6 7.7 1.3c.4.1.7.1.9.5l1.2 4.3-7.6-1.3c.9 1.4 1.8 2.7 2.6 3.9.1.2.4.4.7.5 1 .5 2 1 3 1.4.9.4 1.9.6 3 .9-.1-.5-.1-.8-.2-1-.3-.9-.2-1.8.2-2.6a8.49 8.49 0 0 0 .9-3.8c0-1.5 0-2.9-.1-4.4 0-.7-.1-1.4-.2-2.2l3.6 2.8c.6-1.9.6-2.3.4-3.1-.3.2-.6.4-.9.7-.8-1.2-1.7-2.3-2.4-3.4-.6-.9-.6-1.8 0-2.7 1.1-1.7 2-3.4 3.1-5.1.4-.6.6-1.3.6-2 .1-1.4.4-2.8 1-4l1.2-2.8c.1-.3.3-.7.3-1 .1-1.3.1-2.6.1-3.9-.1-1.9-.6-3.6-2.6-4.7-.9-.5-1.7-1.2-2.7-2 1.1-.3 2.1-.5 3-.7.5.6.9 1.1 1.4 1.8.1-1.5.5-2.7 1.3-3.8.3-.4.3-.8.2-1.3-.5-1.5-1-3-1.4-4.5-.2-.8-.7-1.4-1.3-2-1.2-.9-2.2-2-2.8-3.3l-.9-2.4c-.9-.1-1.8-.3-2.8-.3s-1.6-.4-2.2-1.1c-1.8-2.3-3.7-4.6-5.6-6.9-.4-.5-.8-.7-1.5-.5-2.3.7-4.6 1.2-7 1.8-.4.1-.7.2-1.3.4l9.8 6c0 .1 0 .1-.1.2-6.5.3-13 1-19.6 2.3 3.3 2 6.9 1.7 10.4 2.1-.8.6-1.5 1.1-2.3 1.6-3.4 1.8-7 3.2-10.7 4.5-.3.1-.7.3-1 .4.3.2.6.2.8.2 1.7-.1 3.3-.2 5-.2 1.3 0 2.7.1 4 .8-.7.3-1.3.6-2 .9l-14 6.2c-.5.2-.6.5-.7 1 0 1.1-.1 2.2-.2 3.4-.1.5.1.9.5 1.3.7.6 1.3 1.2 2 1.9-1.2.4-2.2.8-3.2 1.2-1.1-1.2-1.7-2.5-2.7-3.6-.1 0-.1 0-.2.1v3.2h-2.2c.3-1.2.6-2.3 1-3.6h-2.8c-1.4 0-2.7-.3-3.8-1-.9-.6-1.6-1.3-2-2.4.5.1.8.1 1.2.1 2.2.2 4.4.3 6.6.4.3 0 .7 0 .8-.3.4-.8.9-1.7 1.4-2.5-1-.6-1.9-1.2-2.9-1.7.7-.1 1.4-.1 2 0 .8 0 1.5 0 2.3.2.7.1 1.1-.1 1.4-.6 1.2-1.9 2.5-3.6 3.6-5.5.9-1.6 1.6-3.3 1.8-5.3-.4.2-.6.4-.9.6l-8.9 7.1-.6.6c-.9 1.3-2.1 2.4-3.5 3.3-2.6 1.7-5.3 3.3-7.3 5.6-1 1.2-2.4 2-3.9 2.5-2.4.8-4.9 1.3-7.4.7-1.1-.3-2.2-.6-3.1-1.3-1.7-1.3-2.9-2.9-3.8-4.9l6.4.6c-.3-.4-.4-.7-.6-1l-2.4-3.5c-.4-.6-1.1-1.3-1.2-2s.4-1.5.6-2.3c.4-1.1.8-2.2 1.1-3.4.4 1.5.6 2.9.8 4.4 0 .3 0 .6.1.9.2.6.3 1.2.6 1.8.7 1.2 1.4 2.3 2.1 3.4.6.9 3.9 2.7 5 2.8h5.4c.6 0 1-.2 1.4-.6l4.6-4.8 4.2-4.2c1.4-1.4 2.9-2.7 4.3-4.2 2-2.2 4-4.5 5.7-6.9.1-.2.2-.4.4-.7-2.2-.4-4 .1-5.8 1.3l.6 3.3c-1-1-2.2-.6-3.3-.6l-.3 2.4c0 .3 0 .8-.5.8-.6.1-.7.5-.8.9l-1.3 2.6c-.2-.6-.4-1-.5-1.4-.2-.4-.4-.9-.7-1.3-.6-.8-1.1-.9-2-.5l.6 6.3c-1.8-1.5-2.4-3.4-3-5.7l-1.9 1.9c.9 1.8 1 3.4.3 5.3l-2.5-3.3L87 93l3.3 7.3c-1.4-.4-2.4-.9-3.3-1.8-1.1-1-2.2-2.1-3-3.3-.4-.6-.9-.9-1.7-.8-.5.1-1.1 0-1.6 0-.3 0-.6-.2-.7-.3-.5-.6-.9-1.3-1.4-1.9 1.3-2.3 2.8-4.4 4.7-6.1.8-.7 1.5-1.5 2.4-1.9.8-.3 1.9-.2 2.9-.1.8 0 1.4-.2 1.9-.8 1.8-1.8 3.7-3.5 5.8-4.9 1.3-.9 2.7-1.7 4.2-2.6l-.6-5 1.2-.6 10.7-5.2c3-1.5 6-3.1 8.6-5.2 1.5-1.3 2.9-2.6 3.8-4.4.3-.6.7-.9 1.3-1.1l7.6-3c4.4-1.8 7.8-4.6 10.3-8.6.2-.4.5-.7.7-1.1.1.4.1.7.1 1.1-.4 1.9-1.1 3.5-2.3 5.1-2.4 3-4.9 6-7.8 8.7-.1.1-.3.3-.5.6.6.3 1.2.6 1.7.8.7-.5 1.5-.9 2.2-1.4.9-.7 1.8-.9 2.9-.7 1.4.3 2.7.5 4.1.7v.2l-5.2 3c.2.1.3.2.4.2l5.1 1.2c.3.1.7 0 1.1-.1 1.1-.2 2.2-.5 3.3-.8.5-.1.8-.1 1.2.2 1.9 1.1 3.5 2.4 4.9 4 .1.1.1.3.3.5h-4.4c1 .9 1.7 1.6 2.5 2.4.4.4.8.6 1.4.6 1.1-.1 2.1 0 3.1.3 2.8.7 5 2.2 6.9 4.2 1.1 1.1 1.9 2.4 2.4 4.1-.4-.2-.6-.3-.7-.4-1.4-.9-2.9-1.7-4.3-2.7-1-.7-1.9-.2-3 0 .4.4.6.7.9.9l7.6 7.4c.6.6 1.2 1 2.1.8a1.14 1.14 0 0 1 1.3.6c.9 1.3 1.9 2.6 2.7 3.9 2 3.2 2.9 6.6 2.7 10.3-.1 1.6-.6 3-1.4 4.7-1.1-4-2.5-7.7-5.2-10.8-.1.3-.1.6-.1.8l.4 7c0 1.6.2 3.1 1 4.5.2.4.4.8.5 1.2s.2.7.2 1.1v5.9c0 .2-.1.4-.1.7-.5-.4-1-.7-1.4-1-.7-.4-1-.9-.9-1.7 0-.2 0-.7-.2-.8-.6-.3-1.2-.9-2-.9-.2 1.4-.1 7.9.1 8.7.5-.2 1-.4 1.5-.5 2.5-1 4.4-2.6 5.7-4.9.7-1.2 1.2-2.5 1.6-3.8s.7-2.7 1-4.1c.7.4 1.4.9 2.1 1 3.4.9 6.7-.6 7.8-4 .4-1.3.8-2.6.4-3.9v-.6l8.3 2c1.7-.8 2-2 1.8-3.5-.1-.9 0-1.7 0-2.6.5 0 .8-.1 1.2-.1h5.1c.4 0 .8-.1 1.1-.3 1.3-.9 2.6-2 3.9-2.9.4-.3.5-.6.5-1.1v-2c.4-.2.8-.5 1.1-.7.8-.5 1.7-1 2.5-1.4.5-.3.8-.6.8-1.2-.1-.5 0-1.1 0-1.6s.2-.9.5-1.3c1-1.2 2.1-2.4 3.1-3.7 1.1-1.2 1-2.7-.1-3.8l-1.2-1.2c-.6-.5-.7-1-.7-1.7v-5.6c0-.8-.3-1.3-.9-1.8l-8.8-6.5c-.8-.6-1.7-1.2-2.5-1.8-.1.4-.1.7.1 1 .8 1.4 1.6 2.9 2.6 4.1 1.5 1.8 3.2 3.5 5.1 5 .2.1.3.3.5.6-1.9-.2-3.7-.3-5.3-1-2.3-1.1-4.6-2.3-6.4-4.1-.4-.4-.8-.6-1.3-.6l-6.3-.3s-.1.1-.1.2l9.6 7.5c-5.1-2.5-10.5-3.2-16.3-2.7.3.2.4.3.6.4 1.5 1 3 1.9 4.6 2.9a5.93 5.93 0 0 0 2.8 1c.7 0 1.4.3 2.2.3 1.4 0 2 1 3 2-.4-.1-.6-.1-.8-.2l-7.6-2.1c-.8-.2-1.6-.5-2.4-.6l-7.2-1c-1.4-.2-2.8-.2-4.1.2-1 .2-1.7.7-2.2 1.5-.4.8-.2 1.2.6 1.5a6.37 6.37 0 0 1 1.8 1c.5.4.3 1.1-.4 1.2-.5.1-1.1.1-1.6 0-1.4-.3-2.6-1-3.8-1.8-.4-.3-.8-.6-1.4-1v2.6c0 .3 0 .7-.1 1a1.21 1.21 0 0 1-.7.7c-.4.1-.7-.1-.9-.5-.7-1.4-1-2.8-.5-4.3.3-.9.1-1.6-.4-2.3-.6-.8-1-1.7-1.5-2.6l.1-.1c1.1 1.1 2.1 2.2 3.2 3.3 1-.5 2-.9 3.2-1.4-1-.3-1.7-.6-2.4-.8.1-1.6.3-3.1.4-4.5.1 0 .2-.1.2-.1.1 2.1 1.7 3.4 2.9 4.8.8-.3.8-.8.7-1.4-.1-1.3-.1-2.7-.2-4 0-.5-.1-.9-.1-1.4h.2l2.6 5.1c1.9-.7 2.1-.9 1.6-2.6-.5 0-1-.1-1.5-.1V56l4.1 4.5c.5-.3.9-.6 1.3-.8l-1.4-4.7c.8.5 1.4 1.1 2 1.7 1.3 1.3 1.3 1.3 1.6 2.9.6-.3 1.1-.6 1.7-.9-.6-1.6-1.1-3.1-1.6-4.6.1 0 .1-.1.2-.1 1.2.9 2.3 1.8 3.5 2.8.9-.6 1.7-1.1 2.5-1.7.2-.2.5-.5.5-.8.4-1.5.4-3.1.1-4.7-.1-.4-.3-.6-.6-.8l-3.5-1.5c-.4-.1-.8-.2-1.2-.2-.5 0-1 .1-1.5.1-2.4.1-4.9.2-7.3.6-.5.1-.8.3-.9.8-.2.6-.4 1.2-.7 1.9l-.7-2.2h-1.6l-1.9 4.1c-.5-1.4-1-2.6-1.5-3.8h-1.5c.2.7.4 1.3.7 1.9-.7.9-1.5 1.8-2.2 2.8-.3-1.6-.1-3.1-.3-4.8-1.8.3-3.4-.3-5.1-.8-2-.7-2-.6-2.1-2.7v-.4l3-1.5c.9-.5 1.8-.6 2.7-.5s1.7.4 2.6.4l8.3.8c.9.1 1.6-.1 2.1-.8.9-1.1 2.1-1.4 3.4-1.5 1.4-.1 2.8 0 4.2.3.3.1.6.1.8.1.5-.9.9-1.8 1.4-2.6 1-1.7 2.7-2.3 4.6-1.8.6.2 1.3.2 1.9.2.9.1 1.7.1 2.6.3 2.5.4 4.7 1.3 6.9 2.6.3.2.8.4 1.2.4l8.2.2c1 0 1.7-.2 2.4-.9.5-.6 1.1-1.3 1.8-1.6 1.3-.7 2.7-1.2 4.1-1.7.7-.2 1.5-.2 2.2.1 1.9.8 3.8 1.6 5.6 2.5.9.4 1.7.4 2.6.4a38.36 38.36 0 0 0 6.8-.9c1.6-.4 3.4-.3 4.7-1.6l5.7-2.1c-.1.2-.2.3-.2.4l-3.7 4.2c-.3.3-.6.5-1.1.4-.7-.1-1.2.2-1.8.4-1.3.6-2.6 1.3-3.9 1.8-4.3 1.5-8.6 2.2-13.2 1.5-1.1-.2-2.1-.1-3.1.5-.5.3-1 .5-1.6.7-.3.1-.6.2-.9.2l-7.2-.7h-1c.5.6 1.1 1.1 1.7 1.6.5.4 1 .6 1.6.5h1.6c0 .3.1.6.1.8-.3 1.8.3 3.1 1.9 4.1.8.5 1.4 1.2 2.1 1.8-.1-.4-.3-.8-.5-1.1-.7-.9-1.3-1.9-2-2.7-.9-1-.6-2.1-.6-3.3 2.4.9 4.7 1.6 6.8 2.9.5.4 1.2.6 1.9.8 1.3.3 2.5.7 3.6 1.5.9.7 2 1.4 2.4 2.5.2.5.5.7 1.1.7.2 0 .3.1.6.1.2.9.5 1.8.8 2.9-.8-.3-1.4-.6-1.9-.8-.6-.3-1.1-.5-1.7-.8s-1.2-.6-1.8-.8-1.1-.7-1.8-.6c.2.3.3.6.5.8.7 1 1.5 2 2.1 3.1.7 1.2 1.7 2 3 2.3 1 .2 1.5.9 1.9 1.7 1.5 2.7 2.6 5.5 3.4 8.5.3 1 .5 1.9.7 2.9-.1 0-.1 0-.2.1-.6-.9-1.2-1.9-1.7-2.8-.8-1.5-1.8-2.9-3.4-3.9-.3-.2-.6-.5-1-.7-.1.3 0 .5.1.7.7.9 1 1.9.8 3.1-.2 1.4.2 2.7.5 4 1.3 4.2 1.6 8.4 1.2 12.7-.1 1.2-.8 1.9-1.8 2.7-.1-.2-.1-.3-.1-.5l-.6-5.8a1.53 1.53 0 0 0-.4-1c-.6-.5-1.3-.9-2-1.4-.1.3-.2.6-.3.8-.5 1.7-.9 3.3-1.3 5-.1.4-.1.9-.1 1.3.1 1.5.3 3 .5 4.5 0 .3.1.7-.1 1-1 2.6-2.2 5.1-3.9 7.4-.4.6-1 1.1-1.5 1.8 0-.3-.1-.4-.1-.5l1.4-9.1c.1-.4.2-.8-.1-1.3-1.2 1.2-2.3 2.3-3.5 3.3-.4.4-.6.8-.6 1.4v4.4c0 .5-.1 1-.3 1.4-.9 1.9-2.1 3.6-3.6 5.1-1 1-2.1 1.8-3.7 2.2l3.6-9.9c-.3.1-.5.1-.6.2-1.8 1.1-3.6 2.2-5.5 3.2-.4.2-.5.5-.5.9v3.4c0 .6-.1 1.1-.4 1.6-.2.2-.3.5-.4.7-1.2 2.4-2.9 4.4-5 6.2-.8.7-1.9 1.2-3.1 1.8l5-11.1c-.3.1-.4.2-.5.2-2 1.4-4 2.9-5.9 4.3-.4.3-.5.6-.5 1l-.3 3.4c0 .9-.3 1.7-.9 2.4-.7.9-1.4 1.8-2 2.7-.5.7-1.1 1.2-1.8 1.7l-3.3 2.1-1.5.9c.4-1.3.9-2.6 1.4-3.8.5-1.3 1.1-2.5 1.6-3.8.5-1.2 1.1-2.4 1.5-3.9-.5.2-.7.3-.9.4-1.1.7-1.9 1.6-2.6 2.7-.5.8-1.2 1.2-2.2 1.3-.6.1-1.2.3-1.9.4.2 4.7-1.2 8.6-4.7 11.8 0-.6 0-1.2.1-1.7.2-1.6.3-3.1-.1-4.7-.1-.5-.4-1-1.2-1.1-.8.7-1.5 1.6-2.3 2.3-.6.5-.7 1.1-.6 1.9.5 2.9.6 5.8.2 8.8-.3 2-.4 4-.5 6.1 0 .3-.1.6-.2 1.2-.2-.4-.4-.5-.5-.7-.6-1.1-1.2-2.2-1.9-3.3-.3-.5-.4-1-.4-1.5v-3.9c0-.2-.1-.4-.1-.7-1 .6-1.6 1.4-2.1 2.2-.6 1-1.1 2-1.7 2.9-.4.6-.4 1.1-.1 1.8l4.1 9.4c.4.8.7 1.7 1.1 2.7-1.4-.5-2.5-.9-3.7-1.4-.4-.2-.9-.5-1.2-.8-.8-.7-1.6-1.5-2.4-2.3-.2-.2-.4-.2-.6-.4.1 1.1.2 2 .2 2.9-.1 1.4.4 2.2 1.7 3 2.6 1.6 5.1 3.3 7.6 5.1 1.2.8 1.7 2.5 1.1 3.7-3.1-1.7-6.5-2.6-9.5-5 0 .4 0 .5.1.6 1.3 2.9 3 5.7 5.3 8.1.3.4.7.5 1.2.5h2.1c.5 0 .8-.1 1.2-.4 2.2-1.8 3-4 2.6-6.7-.1-.3-.1-.6-.1-.9.3.2.4.4.6.6 1.6 2.2 3.2 4.4 5.3 6.3 1.7 1.6 3.7 2.1 6 1.6 1.3-.3 1.8-1 1.7-2.3-.1-.8-.4-1.5-.6-2.2-.2-.6-.3-1.2-.5-1.9.8.8 1.4 1.5 2 2.3 1.6 1.8 3.4 2.8 5.9 2.4h1c1.6 0 3.1-.4 4.4-1.5 1.7-1.4 3-3 4.1-4.9.4-.7.5-1.3.5-2.1l-.3-6.2c-.1-1.2-.2-2.4-.9-3.5-.3-.4-.5-.9-.8-1.4-1.9-3.7-4.1-7.1-6.5-10.5-.6-.8-1.3-1.1-2.2-1.2-1.6-.1-3.2-.1-4.8-.3-3-.4-3.3-.4-6 .9-.2.1-.5.2-.7.3l-4 1.8v-.3l8.7-10.8c.3-.3.6-.6 1-.8l16.3-10c.7-.4 1.4-.7 2.2-.9l20.6-3.7c.8-.1 1.6-.3 2.4-.3 1.5 0 3 .2 4.5.3l5.8.3c3.8.2 7.5.5 11.3.8l7.9.5c.7.1 1.4.2 2.1.5l17.9 7.1 20.7 8.2c.3.1.6.3.8.5l8.3 7.6 6 5.5 8.7 7.9 4.7 4.2c.8.7 1.6 1.4 2.1 2.4 1.9 4.2 3.9 8.3 5.9 12.4l13.3 27.9c.3.6.5 1.2.5 1.8.2 1.7.3 3.4.4 5.1l.9 10.1.5 6.2 1 11.1c.2 2.3.3 4.5.6 6.8.1.7 0 1.4-.3 2l-4.6 12.5-8.3 22.3c-.6 1.5-1 3-2 4.4l-25 35.3a4.74 4.74 0 0 1-1 1l-9.7 7.1-32.4 23.6c-.4.3-.9.5-1.3.7l-44.8 17.6c-.8.3-1.7.6-2.6.7-1.5.2-3 .3-4.5.4l-14 1.3c-3.8.3-7.6.7-11.4 1.1l-12.7 1.1c-.2 0-.5.1-.7.2h-2.6c-.1-.1-.2-.2-.3-.2l-4.4-.9c-1.7-.4-3.4-.7-5.1-1 1.4-.3 2.7-.5 4.1-.6l12.6-1.5c1.3-.2 2.7-.3 4-.5l16.5-3.7 31.3-7c.7-.2 1.2-.5 1.7-1l4.1-4.5c.5-.5.7-1.1.7-1.8v-9.4l5.2-3c.3.5.4.9.6 1.2.2 0 .3 0 .4-.1l21.7-6.2c.4-.1.8-.3 1.1-.6l8.4-6.8c.3-.2.5-.5.6-.8 1.4-4.4-.4-8.8-3.3-11.3-.6-.5-1.1-1-1.7-1.5l6.1-4.8 13.9-10.8c.3-.3.6-.6.8-.9 1.8-3.7 2.8-7.6 3-11.6.1-2.2 0-4.4-1.6-6.3-.9-1.1-1.7-2.4-2.5-3.7-1.3.2-2.4.5-3.6.7-1.5.3-3 .4-4.5.1-.4-.1-.8-.1-1.3-.5.6-.5 1.2-1 1.7-1.6 2.3-2.2 4.2-4.7 5.6-7.6.7-1.5 1.2-3.1 1.1-4.8-.1-1.2-.2-2.3-.2-3.5l-.3-8.3c-.2-2.9-1.2-5.5-3.8-7.3-1.2-.8-2.5-1.6-3.8-2.3-.3-.2-.8-.2-1.1-.2-2.2.4-4.4.9-6.6 1.3-.9.2-1.8.4-2.9.6.4.8.8 1.5 1.2 2.1 1.2 2.3 1.5 4.6.7 7.1-.2.5-.4 1-.6 1.7.6.6 1.3 1.2 1.9 1.7 1.6 1.3 2.8 3 3.8 4.7 1.9 3.3 2.7 6.8 2.2 10.6-.2 1.4-.5 2.7-1.2 4.2-1.3-3.5-3.7-6-6-8.6 0 .3.1.6.2.9 1.4 2.9 2.3 6 3.2 9.1 1 3.7 1.5 7.5 1.7 11.3 0 .6-.1 1.2-.4 1.7-.6 1.1-1.1 2.3-1.7 3.4s-1.1 2.2-1.7 3.3c-.8-.3-1.3-.7-1.6-1.3-.6-1-1-2-1.3-3.1-.4-1.6-.8-3.2-1.3-4.8-.3-1.1-1.2-1.6-2.5-2 .2.4.2.7.4 1 1 1.9 1.7 4 2 6.1.3 2.4.2 4.8-.6 7.1-.7 1.7-1.5 3.3-2.6 4.7-.4.5-.7 1.1-.7 1.8l-.7 8.4c0 .5-.2 1-.3 1.7-.7-.9-1.2-1.7-1.4-2.7-.2-1.4-.3-2.8-.4-4.3 0-.8.3-1.7 0-2.4s-1.2-1.2-1.9-1.7l-1.5-1.2c.4 2.6.9 5 1.5 7.4.2.7.1 1.2-.3 1.9l-6.5 10.1c-1.4 2.2-2.7 4.5-3.3 7-.1.3-.2.7-.4 1.2-1.7-3.6-2.4-7.3-2.3-11.3-.7.7-1 1.3-1.1 1.9-.2 1-.4 1.9-.5 2.9-.2 2.1-.2 4.1-.7 6.2-.1.4-.2.8-.5 1-2 1.6-3.5 3.6-5.1 5.5-.9.9-1.8 1.8-2.9 2.6-1 .8-2.3 1.2-3.7 1.2l1.6-7.9c-1.3.8-2.5 1.4-3.6 2.1v3.7c0 .4-.1.7-.4 1.1l-7.9 9.4c-.2.3-.7.5-1.1.6l-4.4.6c-.5.1-1.1.1-1.6.1l.8-7.4c-.1 0-.2 0-.3-.1-.3.6-.6 1.2-.9 1.9-.7 1.7-1.1 3.5-1.3 5.3-.1.7-.3 1.1-1 1.5l-3.5 2.1c-.4.2-.7.3-1.2.2-1.1-.2-2.2-.3-3.3-.5-.5-.1-1 0-1.4.4l-10.7 7.9-2.2 1.6c.1-2 .4-3.8 1.1-5.5s1.6-3.3 2.5-5.2c-1 .3-1.8.6-2.6.9-.2.1-.4.4-.5.7a25.33 25.33 0 0 0-1.2 3.6c-.2.7-.6 1.1-1.4 1.2-2.3.5-4.7 1-7 1.6-4.2 1.1-8.2 2.5-11.9 4.7-2 1.2-4.2 2-6.3 2.8-.2.1-.4.1-.7.2v-4.2c0-.7.2-1.2.8-1.7 2.5-1.9 4.9-3.9 7.4-5.9.2-.1.3-.3.6-.6h-2.8c-.8-.1-1.3.2-1.8.7-1.9 1.9-3.7 3.8-5.6 5.8-.6.6-1.2.8-2 .9-2.9.1-5.8.3-8.7.5l-8.8.6c-.7 0-1.3.1-2.1.1 0-.3 0-.6-.1-.9-.2-1 .2-1.6 1.1-2.2 1.9-1.3 3.7-2.8 5.5-4.2.3-.2.5-.5.8-.7-.1-.1-.1-.1-.1-.2-.3.2-.6.3-.9.5-.8.4-1.7.9-2.6 1-1 .1-1.9.2-2.9.2-2.5.2-5 .2-7.4 1-.5.2-1 .2-1.5.2-1.7-.1-3.5-.4-5.1-1.1-.7-.3-1.4-.4-2.2-.4h-8.8c-.3 0-.8 0-1-.2-.6-.5-1.1-1-1.7-1.6 1.3-.5 2.4-1 3.5-1.5 0-.6.1-1.1.1-1.6.9-.1 1.8-.3 2.7-.4 1.4-.2 2.7-.5 3.9-1.3.4-.3.8-.6.7-1.2-3.9 0-7.7-.5-10.9-2.9-.3.5-.6.9-1 1.4l-3.5-2.3c-.3-.2-.7-.5-1-.5-3-.6-6-1.3-9.1-1.8-2-.3-4-.5-5.8-1.5-.9-.5-1.5-1.2-1.5-2.4 1.2-.3 2.3-.7 3.5-.8 1.2-.2 2.4.1 3.7-.1-.7-1-1.4-1.7-2.6-1.4-.8.1-1.4-.2-2-.7s-1.2-.9-1.8-1.4c-.8-.7-1.6-1-2.8-.9-.9.1-1.9 0-2.9 0-.5-.6-.9-1.3-1.3-1.9-.3-.4-.6-.6-1.1-.6h-3.7c-.8 0-1.5-.2-2.2-.6-1.7-1.1-3.5-2.2-5.3-3.3-.2-.1-.4-.3-.7-.6h3.2c1 0 1.9.1 3-.1-1.3-1.4-2.6-2.7-3.7-4.1-.8-1-1.9-1.7-3-2.4-1.1-.6-2.1-1.2-3.1-2-2.5-1.9-5-3.9-7.4-5.9-1.1-.9-2.2-2-3.2-3.1 2.2.4 4.2 1.2 6.5 1.7-.2-.3-.3-.5-.4-.6-1.3-1.7-2.7-3.3-4-5a8.81 8.81 0 0 0-2.5-2.2 42.91 42.91 0 0 1-4.8-3.6c-2.1-1.8-4-3.7-5.9-5.6l-.7-.7c2.3.6 4.3 1.4 6.4 2v-.3c-.1-.2-.2-.3-.3-.5-1.4-2.1-3-4-4.9-5.6-.8-.7-1.7-1.2-2.5-1.9-.4-.3-.8-.6-1.1-1l-3.4-5.5c-.8-1.3-1.6-2.6-2.3-3.9 2.5 2 4.6 4.4 8.1 5.3-1-2-2-3.8-3.5-5.3-.9-.9-1.8-1.8-3-2.2-.6-.2-.9-.5-1.2-1l-6.5-11.9a4.67 4.67 0 0 1-.5-1c2.1 1.4 4.1 3 6.3 4.7-.1-1.4-.2-2.6-.4-3.7 0-.3-.3-.6-.6-.8-.8-.6-1.6-1.1-2.4-1.7-.3-.2-.6-.5-.7-.9l-3.3-7c-.2-.3-.3-.7-.3-1.1-.1-1.4-.3-2.9-.4-4.3-.1-1-.1-2-.2-3.3.5.6.9 1 1.3 1.4 2.6 2.9 5.3 5.6 8.5 7.8 2.2 1.5 4.5 2.5 7.2 2.7.5 0 1.1-.1 1.7-.2v-.3c-3.8-.9-7-3-10.1-5.3-3-2.3-5.8-4.8-8.5-7.8H45c-.9-3-2.4-4.7-7-5.1-.2-.2-.3-.5-.5-.8l-4-7c-.9 0-1.2-.3-1.5-.6zm22.9-87.6h-1.1c-1-.1-1.6.2-2.2 1-1.1 1.4-2.3 2.6-3.4 3.9-.4.5-.8.8-1.5.7-.2 0-.5.1-.6.3-.7 1.1-1.2 2.3-1.2 3.7.1 1.9 1 3.6 2.1 5.2.2.3.5.5.7.7.1 0 .1-.1.2-.1v-6.6c0-.6.1-1 .5-1.4l2.7-3c1.3-1.4 2.5-2.8 3.8-4.4zM112 70.3L101.8 73v2.3c0 .7-.1 1.5.1 2.3.3-.2.6-.3.8-.4l8.5-4.9c.9-.4 1.2-.9.8-2zm86.3-25.7c-1-1.3-2.9-2.2-4.5-2.4l-5-.6c-.2 0-.6 0-.7.2-.5.8-.9 1.6-1.4 2.5l11.6.3zM54.5 252.1l-3-3c-.8.4-1.7.8-2.6 1.6 2 .5 3.8 1.1 5.6 1.4z"/><path d="M270.7 76.3l3.9.7c2.7.5 5.3 1.2 7.8 2.3.8.3 1.2.7 1.1 1.5-.1.9 0 1.8 0 2.7 0 .2.1.5.1.8 1.4-.7 2.8-1.2 4.4-1.1 0 .3.1.6.1.8v4.6c0 .5-.2.8-.5 1.2l-4.3 4.6c-.1.1-.1.2-.2.4l5-.3c-.6 1.1-1.4 1.9-2.3 2.7-2.7 2.3-5.9 3.9-9.1 5.3-.4.2-.7.3-1.2.5 1 1.8 2 3.4 3 5.2-.3.1-.4.1-.6.1-2-.1-4-.2-6-.4-.5 0-1-.2-1.5-.3-.4-.1-.8-.3-1.2-.5-1.4-.8-2.7-.7-4 .1-.1.1-.3.1-.5.2l-4-2.6c.2 1.5.4 2.8.5 4.2-1.1-.2-2.1-.4-3.1-.5-.7-.1-1.4-.3-2.1-.4-1.7-.2-2.9-1.2-4-2.2-2.2-1.9-3.8-4.1-5.2-6.6-.2-.4-.5-.8-.8-1.3-.7 1.6-1 3.3-2.4 4.5-.3-.7-.6-1.3-.9-1.8-1-2.2-1.5-4.5-2-6.8 0-.2-.1-.5-.2-.7-.8-2.4-.6-4.9-.3-7.4.1-.7 0-1.5 0-2.4-1.1.5-2.1 1-3.2 1.6.4-1.6.3-3 1.4-4.3 2.7-3 5-6.2 6.9-9.7.1-.1.2-.3.2-.5v-.2l-4.9-2.5c.3-.2.5-.3.7-.4l3.3-1.5c.8-.4 1.7-.7 2.7-.7 3-.1 6.1-.4 9.1-.7 1.8-.2 3.7-.5 5.5-.9-1.8-.8-3.7-1.2-5.5-1.8-1.9-.6-3.8-.1-5.9-.4.4-1.1.7-2.3 1.2-3.6-1 .6-1.7 1-2.4 1.5-.4.3-.8.4-1.3.4h-4.4l.6-5c-.9.7-1.7 1.2-2.4 1.9-.4.3-.8.4-1.3.2l-3.2-.9c-.4-.1-.7-.3-.8-.6l-2.5-7c1.3-.4 2.5-.3 3.8-.4 2.7-.2 5.4-.3 8.2-.4.9 0 1.8-.2 2.7-.2.5 0 .9.2 1.4.3l19 7.7a6.71 6.71 0 0 0 2.8.6h1c0 .3 0 .6-.1.9-.2 1-.5 1.9-.7 2.9-.3 1-.3 1-1.3 1.2-1.5.2-3.1.4-4.6.8 2 1 4.2 1.6 6.3 2.4s4.3 1.5 6.6 2.3v-7.9l17.4 15.7-.5-8.4c.1 0 .1 0 .1-.1l16.7 21.8c.1 0 .1 0 .2-.1l1.8-8.4h.2l10 23.2h.2c.6-2.5.9-5.1 1.5-7.6h.2l9.3 22.3c.7-1.2 1.1-2.3 1.5-3.4l1.5-3.4c1.5 7.8 2.7 15.6 4.1 23.3h.3l4.5-7.3c.1.4.2.5.2.7.2 2.9.3 5.9.4 8.8.1 3.4.7 6.7 1.4 10 0 0 .1 0 .2.1 1.1-3.5 1.9-7 3.1-10.7l2 3.9c.1.3.1.7.1 1v19.9c.5 0 .9 0 1.3.1.6.1.9-.2 1.2-.6 1-1.5 2.1-3 3.2-4.5.1-.2.2-.3.5-.6.1.4.2.6.2.8.1 1.8.2 3.6.2 5.4l.4 7.1.3 5.9.4 6.9.3 5.9.4 6.8.3 5.9.4 7.4.3 5.9.4 7.1c.1 2.4.2 4.9.1 7.4-.2-1-.4-2.1-.7-3.1l-5.2-26.1c-.3-1.3-.5-2.6-.8-3.9-.3-1.5-1.1-2.8-1.7-4.2l-7.3-15-5.4-11c-.2-.4-.3-.8-.6-1.3 1.7.5 3.2.9 4.7 1.3 0-.1.1-.1.1-.2-.5-.8-1.1-1.6-1.6-2.5-.8-1.2-1.7-2.4-2.8-3.4-1.9-1.7-3.6-3.6-5.5-5.3-1.1-1-1.4-2.2-1.6-3.6 1.5 1 2.9 1.8 4.4 2.8.3-.9.7-1.7 1-2.6a68.93 68.93 0 0 1-3.9-2.1c-.2-.1-.4-.3-.7-.3-1.7-.7-2.9-1.8-3.7-3.5-1.1-2-2.3-3.9-3.5-5.9-.1-.2-.2-.3-.3-.6l6.1 1.9.1-.1c-.2-.2-.3-.4-.5-.6l-4.3-4.2c-.6-.6-1.4-1-2.2-1.4-2.4-1.2-4.5-2.7-6.1-4.8-.7-.8-1.2-1.8-2-2.9 1.3.3 2.4.6 3.5.7s2.3 0 3.6 0c-.2-.5-.4-.8-.5-1.1-.7-1.6-1.9-2.7-3.5-3.5-4.6-2.4-9.1-4.9-13.7-7.4-.4-.2-.8-.5-1.3-.8l1.5-2.4c1.7.2 3.4.5 5.1.7 0-.1.1-.1.1-.2-.2-.1-.3-.3-.5-.4l-9.9-5.6c-.4-.2-.8-.3-1.2-.3-.7-.1-1.4 0-2.2 0v-2.3l7.3-1.5c-.3-.3-.4-.5-.6-.6l-3-2.4c-.5-.4-1-.6-1.7-.7l-9.2-1.8-1.2-.3v-2.3c1.7-.3 3.3-.5 5-.7V91l-7.4-4 .7-6.1h-5.6c.8-1.3 1.5-2.3 2.3-3.5-1-.3-1.9-.1-2.8-.2h-6c-.2-1.1-.5-2.2-.8-3.3-1.4.5-2.7 1.1-4.2 1.6 0-.8-.1-1.5-.1-2.2l-7.4 1.7v-2.6c-1 .1-1.5.8-2.3 1.1-.7.4-1.4.9-2.1 1.3l-2.3 1.3v-3.5c-.1 0-.2-.1-.2-.1-.7.9-1.2 1.9-1.8 2.9-.6.9-1.2 1.9-1.8 2.9-1.1-.8-2.2-1.5-3.4-2.3 0 2.4.4 4.6.4 7.1-1-1-1.9-1.8-2.8-2.7-.1 0-.1.1-.2.1l1.8 5.9c-1.1-.6-2.1-1.2-3-1.7l-.2.2 3.9 4.7-2.2 2.2a116.55 116.55 0 0 0 6.3 2.2l-2.9 1.7c1.3.5 2.5.1 3.7.5.3-.6.7-.7 1.4-.7 1 0 2.1 0 3.1.3.8.3 1.6.1 2.4 0 .5-.1.9-.1 1.5-.2.1.6.1 1.1.2 1.9.4-.4.8-.6 1-1 1-1.3 1.7-2.7 2.3-4.2.1-.4.3-.7.7-1.1l1.6 5.7.4-.8c.8-2.7 1.5-5.4 2.4-8 .5-1.5.5-2.9.2-4.4-.2-1.1-.4-2.3-.5-3.4-.1-.7-.4-1.2-.9-1.6-1.1-.8-2.1-1.7-3.1-2.6-.6.4-.6.3-.6.2zM146.2 47.2c.6 1.7 1.8 3 2.9 4.3l1.7 2.1c0-.5.1-.7 0-.8-.2-2 .1-4 .9-5.9.1-.2.2-.6.4-.7.9-.8 1.9-1.5 3-2.2-.3.9-.5 1.9-1 2.8-.8 1.3-.9 2.6-1 4-.1 1.9.6 3.6 2.1 4.9 1.3 1.1 2.8 1.6 4.5 1.6 2.2 0 4.3-.2 6.3-.9l4.7-1.7c1.2-.5 2.2-1.2 3.4-1.7 3-1.3 6.1-2.2 9.5-2.2l4 .1c.8 1.8.5 3.1-.7 4.3l-2-1.4c-.8-.6-1.6-.8-2.5-.6-1.7.3-3.4.7-5.1 1.2l-7.4 2.1c-.7.2-1.4.5-2 .8-2.4 1.5-5.1 2.3-7.9 2.3-2.5 0-5.1 0-7.5-.9-2.1-.7-3.6-2.1-5-3.8-.3-.4-.5-.9-.8-1.2-.6-.8-.9-1.6-.8-2.6.2-1.2.2-2.3.3-3.5-.1-.1 0-.3 0-.4zM50.3 176.6c-.1 1.6-1 2.9-1.9 4.1-1.3 1.8-3 3.1-4.8 4.4-1.9 1.4-3.8 2-6.2 1.7-.7-.1-1.4 0-2.3 0 .2-.5.6-.8 1-1.1 1.6-1 3.3-1.8 5.2-1.9.2 0 .5-.1.9-.2-1.6-1.2-3.3-1-5.1-1.1l-2.7-5.4c.1 0 .1-.1.2-.1l1.3.9 3.2 2.3c.4.3.8.5 1.4.5H44c.5 0 .9-.1 1.2-.5l3.1-3.1c.5-.6 1.1-.8 2-.5z"/></g></g></svg>