<?xml version="1.0" encoding="utf-8"?>
<!-- Generator: Adobe Illustrator 23.0.0, SVG Export Plug-In . SVG Version: 6.00 Build 0)  -->
<svg version="1.1" id="Calque_1" xmlns="http://www.w3.org/2000/svg" xmlns:xlink="http://www.w3.org/1999/xlink" x="0px" y="0px"
	 viewBox="0 0 370.1 477.7" style="enable-background:new 0 0 370.1 477.7;" xml:space="preserve">
<style type="text/css">
	.st0{fill:#282520;}
	.st1{fill:#1A1810;}
	.st2{fill:#1F1C1A;}
	.st3{fill:#221F1D;}
	.st4{fill:#4F4645;}
	.st5{fill:#38332F;}
	.st6{fill:#1F1C1D;}
	.st7{fill:#35302C;}
	.st8{fill:#1A1815;}
	.st9{fill:#1C1917;}
	.st10{fill:#48413E;}
	.st11{fill:#151515;}
	.st12{fill:#12100D;}
	.st13{fill:#2E2925;}
	.st14{fill:#0E0B0A;}
	.st15{fill:#171412;}
	.st16{fill:#110E0E;}
	.st17{fill:#2D2823;}
	.st18{fill:#23211C;}
	.st19{opacity:0.55;fill:#828485;enable-background:new    ;}
	.st20{opacity:0.86;fill:#828485;enable-background:new    ;}
	.st21{opacity:0.7;fill:#828485;enable-background:new    ;}
	.st22{opacity:0.49;fill:#828485;enable-background:new    ;}
	.st23{opacity:0.3;fill:#828485;enable-background:new    ;}
	.st24{opacity:0.52;fill:#828485;enable-background:new    ;}
	.st25{display:none;fill:#B6A366;}
	.st26{display:none;fill:#282520;}
</style>
<title>alonewebsite_header_1</title>
<polygon class="st0" points="185.5,0.3 178.9,27.3 177.6,146.3 159.8,29.3 148.6,17.4 140.1,33.9 129.2,20.1 125,37.8 148,152.2 
	115.1,55.6 103.9,44.4 103.3,60.2 130.9,152.2 103.3,89.1 92.7,80.6 90.8,94.4 79.9,80.2 77.9,95.4 94.7,187.8 59.2,114.1 
	42.1,101.6 42.1,123.3 98,240.4 46,161.5 28.3,150.3 30.9,165.4 85.5,252.2 21,193 0,183.8 5.3,199.6 38.1,229.9 28.9,227.2 
	30.9,236.4 52.6,256.8 52,260.1 25.6,239.7 17.1,237.7 20.4,245.6 76.3,295.6 27.6,265.7 14.8,261.2 20.4,272.6 77.3,318 
	80.2,300.9 92.8,292.9 108,294 110.6,341 188.4,339 "/>
<polygon class="st0" points="185.4,0 191.2,25.5 194.2,148 211.3,28.3 221.5,16.6 228.4,30.9 222.6,76 231,32.4 241.4,21 
	244.5,35.7 225.1,154.2 255,57.7 266.2,45.7 268.8,61.5 240,154.2 266.7,89.1 278.3,79.2 280,92.6 289,80.4 292.5,99 276.2,186 
	312.9,111.6 328.2,101.4 328.2,121.3 272.6,240.5 324.5,159.6 341.6,150.4 336.1,169.4 286.1,247.4 354.3,188.1 370.1,184.8 
	362.4,200.6 331,228.4 341.3,227.6 338.4,236.3 295.4,282 342.1,239.6 352,235.9 348.9,246.5 298.9,292.5 340.8,263.9 355,260.9 
	349.9,273.6 292.8,317.6 291.8,302.9 275.1,291.5 261.6,292.7 259.1,340.7 187.6,338.7 "/>
<polygon class="st1" points="40,477.7 21.8,477.7 38.3,429.3 51.1,385.9 60.7,353.4 67.3,346.8 74.3,343.8 79.6,344.6 60.7,477.7 
	"/>
<polygon class="st1" points="333.4,477.7 350.8,477.7 333.9,431 321.1,387.6 311.5,355.2 304.9,348.6 297.9,345.5 289.3,346.3 
	311.8,477.7 "/>
<polygon class="st2" points="39.8,477.7 69.4,391.6 76,356.1 76.2,303.2 101.9,302.9 98.3,387 185.8,387 184.7,477.7 "/>
<path class="st3" d="M98.9,367.7c2.2,0,170.8-1.3,170.8-1.3l3.2,22.3l-175.8,0.7L98.9,367.7z"/>
<polygon class="st4" points="262.4,293.4 269.9,303.3 292,303 276.5,292.8 "/>
<polygon class="st5" points="259.2,341.3 270.7,369.6 269.9,303.3 262.4,293.4 "/>
<polygon class="st6" points="124,346.9 82.6,291.6 75.7,296.9 72.1,293.3 78.3,286.4 67.1,272.6 68.8,270.9 78,281.8 81.6,284.7 
	93.4,276.5 97,281.1 88.5,287.4 132.9,346.2 "/>
<polygon class="st6" points="127.6,303.8 110.2,253.8 116.4,252.8 115.1,245.9 106.6,246.6 100,225.5 94.4,226.2 101.6,253.5 
	99.7,262 "/>
<polygon class="st6" points="249.3,253.5 255.2,255.8 263.4,235.7 260.8,233.1 263.1,230.1 270.7,235.4 269.4,238 265.4,239 
	258.5,257.1 266.7,277.8 251.3,275.9 239.8,308.7 244.7,270.3 "/>
<polygon class="st6" points="237.8,346.9 265.4,316 260.1,305.8 225.6,347.5 "/>
<polygon class="st6" points="260.5,175.2 260.5,174.9 264.1,156.2 267.4,153.2 261,151.6 261.5,155 260.8,159 257.1,175.2 
	247.3,174.2 245.7,179.8 254.9,182.1 238.4,236.7 243.7,251.2 249,234.1 260.5,183.1 269,183.1 269.7,179.5 "/>
<path class="st6" d="M230.9,184.8l-25.6-5.9l-1-8.2h0.7v-24.5c1.4-1.1,2.8-2.2,4.1-3.5c0.7-0.8-10.5-0.5-10.5-0.5l2.8,4.1v24.3h0.8
	l-0.1,9.2l-26.6,4.6l3.3,5.6l21-2.3l0.3,52.6l7.2,1.6l-1.3-55.2l22.7,5.3L230.9,184.8z"/>
<polygon class="st6" points="153.9,228.2 150.3,182.1 141.1,181.5 140.5,174.9 150.3,173.9 149.3,144.6 152.9,144.3 155.9,170.6 
	165.8,172.9 164.5,182.1 159.9,183.5 160.5,225.2 "/>
<path class="st6" d="M150.3,152.7l-2.6-2.1l-0.2-3.1c0,0,0.5-2.8,1-2.8c0.5,0,4.4-0.3,4.4-0.3l1.3,7.1L150.3,152.7z"/>
<path class="st6" d="M128.6,225.5c0-1.3-6.6-28.3-6.6-28.3l-17.1,1.3V193l16.4-2.3l-4.9-33.5l3.3,0.3l4.6,15.5l5.9,14.1
	c0,0,12.8-3.9,13.8,0.3c0.6,2.4,0,5-1.6,6.9l-8.5,1.6l-1,29.3L128.6,225.5z"/>
<polygon class="st6" points="121,163.2 122.7,160.3 121.5,157.5 116.4,157.1 113.3,160.3 115.8,164 118.1,164.4 "/>
<polygon class="st7" points="283.3,277.2 293.2,284.8 296.4,281.5 286.3,271.3 302,250.6 304.6,249.1 305,247.1 303.9,244.5 
	301.7,243.8 299.7,244.6 298.5,247.5 281.1,266.6 270.5,256.7 265.9,262 274.4,268.9 216.9,339.1 231.3,339.8 "/>
<polygon class="st7" points="240,159.6 245.5,161.6 243.5,165.9 240.7,169.3 238.9,197.3 256.5,204 256.5,210.8 239.1,209.1 
	217,339.8 204,339.4 226.1,206.7 208.6,203.7 208.5,199.3 229.4,196.5 237.3,167.2 236.3,160.1 "/>
<path class="st7" d="M197.6,337.9l-4.9-144.5l7.4,3.9l-1-9.5l-10.2-2.6l-2-26.8l3.9-1.2l-4.1-3.8l-3.9-0.2l-4.4,5.1l3.3,0.2L182,186
	c0,0-11,3.9-11.2,4.4c-0.2,0.5,1,8.1,1,8.1l7.6-3.9l5.3,143.7L197.6,337.9z"/>
<polygon class="st7" points="163.4,339.1 142.1,206 155.5,203.7 153.7,198.3 139.3,199.4 135.5,172 138.1,170.8 134.8,165.7 
	124.8,168 124.6,174.3 127.9,173.3 132.7,200.6 117.2,203.4 118.7,209 132.4,207.5 154.2,339.6 "/>
<polygon class="st7" points="139.1,311.4 103.6,253.5 110.7,248.9 109.2,245.3 99.8,249.1 82.9,226.1 84.2,225.1 80.7,221 
	76.9,223.4 79.1,229.5 80.7,228.7 94.7,252.4 87.3,259.1 89.3,262.4 96.7,258.3 142.3,334 "/>
<polygon class="st8" points="196.3,338.6 196.3,296.9 206.5,296.9 207.2,292.7 199.5,288.2 192.4,287.1 191.3,263 192.5,261.4 
	192.6,259.2 189.4,257.1 187,256.9 184.4,258.1 182.8,260.1 183.9,262.4 185.1,263.3 185.6,287.3 180.8,288.4 174.8,291 
	171.4,293.6 171,297.9 182.1,297.9 184.1,338.7 "/>
<polygon class="st8" points="222.7,339.6 236.5,265.5 223.8,263.5 225.4,254.1 241.1,256.6 248.3,224.5 245.5,223.7 253.1,215.3 
	256.3,225.8 254.1,225.8 248,257.7 262.3,260.3 261,270.1 246.3,267 234.3,339.4 "/>
<polygon class="st8" points="177.7,338.7 171.7,229.4 184,228.3 182.9,218.2 170.8,219.3 164.5,181.8 167.3,181 166.6,175.9 
	155.5,176.8 156.1,181.8 159.6,181.6 160.9,220 147.1,221.7 148.4,231.2 162.3,229.6 169,339.1 "/>
<polygon class="st8" points="154.3,339.4 141.1,257.1 154.6,254.2 151.3,246 138.8,246.9 134.9,231.2 133.5,225.2 128.9,225.6 
	132.2,249.2 117.4,254.2 116.8,260.8 133.2,257.5 143.3,339.9 "/>
<polygon class="st9" points="212.7,338.9 215.1,244 219.3,243.6 224.3,234.4 211.4,233.4 210.5,199.6 213.7,199.6 215.1,189.7 
	202.6,189.7 202.2,199.6 207.5,199.6 205.2,233.1 191.1,234.4 194,242 200.3,243.6 200.5,338.7 "/>
<polygon class="st10" points="99.1,368.2 269.7,367.1 259.5,340.3 187.8,338.7 110.8,340.9 "/>
<polygon class="st3" points="185.8,368 269.6,368 271.3,388 185.5,389.3 "/>
<polygon class="st4" points="261.2,292.8 268.9,303.3 292.2,303 275.2,291.3 "/>
<polygon class="st2" points="292.3,302.8 297.3,393.5 322.2,477.7 184.5,477.7 184.7,388.9 269.9,388.2 268.9,303.2 "/>
<polygon class="st5" points="258.2,341.3 269.6,367.2 268.9,303.3 261.3,292.9 "/>
<polygon class="st5" points="108,294 101.2,303.2 98.8,369 111.1,341.2 "/>
<polygon class="st4" points="90.4,292.2 108.8,293.7 101.7,303.2 76.4,303.1 "/>
<polygon class="st0" points="127.5,477.7 121.4,413.2 128.2,397.3 134.4,411.7 142.2,477.7 "/>
<polygon class="st0" points="168.3,477.7 166,415.8 172.4,395.3 179.8,413.1 184.3,477.7 "/>
<polygon class="st0" points="208.4,412.2 202.7,425.2 205.6,474.9 218.1,474.7 214.5,423.4 "/>
<polygon class="st11" points="237.3,414.9 238.4,410.3 247.8,411.4 249.6,403.2 254,405.9 254.6,411.4 267.1,412.9 266.7,417.3 
	255.9,416.6 253.7,427.8 248.3,427.4 248.9,417.7 "/>
<polygon class="st11" points="104.3,421 96.6,421 96.4,415.8 103,416 105.9,412.9 105.6,400.9 103,397.8 103.7,394.3 106.5,393.6 
	110,394.1 112.2,398.3 109.8,400.9 110.9,416.2 119.2,414.3 120.3,419.7 110.5,421.9 "/>
<polygon class="st11" points="142.5,416 148.4,415.6 148.6,403.3 146.6,401.1 146.6,398.3 149.7,397.4 153,398.9 153.2,401.5 
	151.9,403.3 152.1,414.5 160.7,417.1 165.3,418.9 164.4,423.5 154.3,423 155.8,437.3 149.9,438.6 148.8,424.8 148.2,421.7 
	143.1,421.9 "/>
<polygon class="st11" points="191,477.7 189.6,427.2 183.9,422.4 183.9,419.7 190.5,420.2 190.5,400.2 186.1,399.6 186.3,396.5 
	198.1,396.9 197.9,400.7 193.3,400.4 194.4,419.3 204.3,420.8 202.3,425.9 195.1,427.4 196.6,477.7 "/>
<polygon class="st11" points="212.6,477.7 213.5,416 209.3,415.4 212.2,408.1 215.9,407.9 215.7,397.8 213.3,397.2 213.3,394.3 
	221.4,394.7 220.7,397.4 218.5,397.8 219.2,407.9 222,408.1 225.5,414.7 221.6,415.1 222.7,477.7 "/>
<path class="st12" d="M45.8,406.8l-5.8-14.6c0,0,5.3-0.7,5.1-1.8s-9.9-32.1-9.9-32.1l8.5-1.3l10,27.8l-6.4,22.4L45.8,406.8z"/>
<path class="st13" d="M49.5,477.7l7.1-67.9l6.1-14c0,0,5.1,10.4,5.4,11.5s-2.9,70.4-2.9,70.4L49.5,477.7z"/>
<path class="st13" d="M72.8,477.7c0,0,1.8-77.3,2.3-77.8s8.1-11,8.1-11l8.2,10.9l0.7,78H72.8z"/>
<polygon class="st12" points="122.4,477.7 114.4,421.9 106.8,412.2 99.1,424.2 101.8,477.7 "/>
<polygon class="st12" points="127.4,477.7 121.6,436.5 122.9,422.2 132.5,433.1 142.6,477.7 "/>
<polygon class="st12" points="166.9,477.7 166.8,472.4 170.3,472.4 170,465.8 164.5,465.5 161.1,449.9 162.4,449 161.1,443.3 
	153.5,443.9 153.7,448.5 155.3,448.9 156.3,466 148.2,467 148.7,473.2 152.7,473 153.6,477.7 "/>
<polygon class="st12" points="175.4,477.7 175.2,462.8 169,462.4 165.2,456.9 177.2,456.9 178.3,437.4 176.7,434 177,430.2 
	181,427.3 184.4,431.4 185.1,434 183.6,437 184.3,456 194.3,456.5 194.3,458.8 193.5,460.6 186.2,461.1 186.2,477.7 "/>
<polygon class="st12" points="199.7,477.7 199.1,474.6 192.5,471.8 192.5,469 200.5,469.8 202.8,452.4 201.2,451.6 202.2,443.5 
	212.2,445 211.1,453.7 209.1,453.4 208.6,470.5 217.8,473.3 217.1,474.8 210.9,474.8 210.1,477.7 "/>
<polygon class="st12" points="247.3,477.7 246.6,431.9 242.1,431.3 241.5,423.4 249.5,423.1 249.7,404 245.7,403.7 246.4,392.5 
	257.4,393 257.3,404.2 255.4,404.2 255.1,422.4 261.4,422.6 261.9,431.9 258.2,432.6 259.1,477.7 "/>
<polygon class="st14" points="329.4,477.7 316,430.6 306.1,417.6 302.8,437 313.7,477.7 "/>
<polygon class="st15" points="80.7,393.4 83.8,341.5 79.6,341.2 79.6,334.4 84.2,334.4 85.5,317.8 82,317.3 82.9,307 95.2,307.3 
	95.4,318.7 91,318.2 90.4,334.4 97.2,334.9 96.7,340.6 92.3,341.2 90.8,413.4 "/>
<polygon class="st12" points="242.2,477.7 239.5,418.1 231.6,410.6 223.6,418.8 222.1,477.7 "/>
<polygon class="st16" points="146.4,465 150.5,456.3 145.9,424.2 150.7,424.2 150.5,417.6 143.6,416.2 142.2,402.2 145.8,401.9 
	144.6,392.8 135.1,393 133.6,402.7 136.4,402.2 137.7,417 131.5,418.8 131.1,424.4 136.7,424 138.7,445.8 "/>
<path class="st14" d="M277,460.9c0-0.8-0.2-27-0.2-27l-5.4-7.1l-6.7,7.2l-2.2,43.6l15,0L277,460.9z"/>
<polygon class="st14" points="290.3,425 291.9,420.4 287.2,329.5 290,329 289.2,321.1 284.4,320.8 283.4,314.2 284.2,312.1 
	283.7,309.6 282.2,307.8 279.1,307.6 277.1,309.6 277.1,313.1 279.5,314.9 279,321.3 272.1,321.6 272.5,329.5 275.7,329.8 
	278.8,406.1 "/>
<polygon class="st14" points="325.2,446.5 334.1,462.7 340.1,455.2 338.3,451.7 345.5,444.5 347.3,446.2 351.2,441 347.3,435.1 
	341.2,437.5 342.3,439.7 333.5,446 331.7,441.6 "/>
<polygon class="st14" points="318.1,435.7 321.9,431.8 323.4,439.2 329.8,437.3 327.6,426.3 345.3,417.1 348.8,417.1 352.3,413.6 
	351.5,409.6 347.3,407.9 342.3,409.4 341.6,412 342.5,413.4 328.5,419.6 326.7,420.4 323.8,416.2 319.2,412.3 314,411.2 312.2,414 
	320.1,423 313.3,425.6 "/>
<polygon class="st14" points="330,409.4 328.4,429.1 323.6,424.1 319.7,398 320.8,386.8 328.7,387.7 328,400.2 333.9,400.9 
	333.5,408.5 "/>
<path class="st14" d="M294.7,365.4l6.6-9.9l-4.6-3.3l4.8-7.2l5.3,3.5l7-10.1l-0.7-2.4l1.3-2.6l3.5-0.2l2.2,1.5l0.7,2.6
	c0,0-0.7,2.6-1.3,2.8s-2.2,0.7-2.2,0.7l-4.4,10.5l5.9,5l-3.9,6.4l-5.5-2.6l-7.7,11L294.7,365.4z"/>
<polygon class="st0" points="76.2,321 73.4,321.6 71.1,312.7 62.7,306.5 66.4,324.1 57.2,326.9 59.1,335.3 63.1,334.4 66.4,350.7 
	76.6,345.8 "/>
<polygon class="st13" points="66.7,375.2 63.7,391.5 54.2,375.4 48.9,378.3 45,372.9 51.4,368 43.5,349.7 41.7,350.6 36.8,344.1 
	46.8,339 50.7,346.1 49.1,347.4 58.8,363.1 67,358.3 70,364.7 63.4,369.8 "/>
<polygon class="st13" points="51.1,407 38.9,402.8 40.7,400.4 34.8,395.9 28.2,402.5 4.9,398.7 3.7,403.8 24.6,414.4 25.6,424.5 
	33.6,423.7 34.1,419 48.8,423.9 "/>
<polygon class="st13" points="39.9,455.5 26.7,444.6 23.9,448.5 16.1,441.6 21,436.2 8.7,422.9 6.7,424.5 2.2,420.8 8.8,414.2 
	13.3,418.3 11.5,420.1 25.6,431.3 30.7,426.8 36.8,433.4 34.3,435.9 43,445.4 "/>
<path class="st17" d="M298.6,398.8l4.6,0.7l3.9,3.7l2.4,3.1l2.8-5.3l-2-4.2l-5.7-5l-2.6-2.2l2.8-21.9l1.5-0.7l0.9-3.3l-0.7-2.8
	l-2.6-2.4l-2.4,1.1c0,0-1.8,3.5-1.5,4.2c0.2,0.8,0.2,1.6,0.2,2.4l-5,16L298.6,398.8z"/>
<polygon class="st17" points="308.9,375.8 313.9,378.4 318.1,382.3 321.4,388.7 322.3,395.3 328.8,393.9 327.7,387.8 324.7,380.6 
	332.6,375.3 337.4,371.6 340.2,368.1 345.1,367.9 347.9,363.3 347.2,359.1 344,356.5 338,357.3 336.3,360 335.8,363.3 330.8,366.8 
	326.2,370.3 322.9,373.1 320.7,375.8 316.6,373.3 312.4,371.6 308.7,370.3 "/>
<path class="st13" d="M301.4,477.7l-15.2-65.5c0,0-7.7-10.9-7.7-10.2s-2.6,13-2.6,13l13.3,62.7L301.4,477.7z"/>
<polygon class="st18" points="206.1,398.3 199.8,397.2 138.6,439.3 132.2,430.7 129.4,432.5 130,445.8 115.8,457.9 113.2,458.1 
	110.8,459.4 111,462.5 113.2,464.9 115.8,464.7 117.3,462 133.8,449.8 149.1,457.2 150.9,454.4 143.6,446 203.7,405.5 "/>
<polygon class="st18" points="169.9,411 171.3,416.7 254.4,459.2 252.4,463.4 248.4,466.2 249.7,468.8 254.1,466.9 257,464.2 
	259.2,460.3 279.1,468.4 281.1,471.9 284.6,473.2 287.9,471.5 289.6,467.7 288.3,464.5 284.8,463.1 281.5,463.6 262,452.8 
	264.7,444.7 260.1,441.4 258.7,445.4 257.6,449.6 179.6,411.8 "/>
<polygon class="st19" points="16.5,262.9 24.9,267.8 76.1,300.8 78.8,299.1 25.7,266.2 "/>
<polygon class="st19" points="19,239.3 24.4,242.8 57.3,269.1 52.2,261.8 25.6,240.9 "/>
<polygon class="st19" points="30.7,228.9 38.6,235.1 43.4,236.4 38.8,231.1 "/>
<polygon class="st19" points="2.9,186.4 84.5,254.2 20.8,194.7 "/>
<polygon class="st19" points="29.5,152.6 79.3,215.5 45.4,163.7 "/>
<polygon class="st19" points="44.4,106.8 56.9,116.1 100.3,207.5 55.6,119.3 "/>
<polygon class="st19" points="88.5,259.4 95,252.7 98.4,252.4 99.5,249.8 108.7,246.1 109.2,247.6 89.2,260.4 "/>
<polygon class="st19" points="77.8,223.9 78.6,225.6 81.7,223.4 80.5,222 "/>
<polygon class="st19" points="117.8,257.5 118.3,254.7 133,250.3 139.9,248.8 150.5,247.6 151.6,250.3 140.4,250.4 133.1,252 "/>
<polygon class="st19" points="148.5,222.8 162,221.2 166.8,221.9 170.2,220.5 181.8,219.3 182.2,221.8 170.3,222.6 167.5,224.7 
	161.7,222.7 148.9,224.8 "/>
<polygon class="st19" points="125.4,171.1 125.5,168.9 134.2,167 135.9,169.1 "/>
<polygon class="st20" points="118.4,204.4 133.6,201.7 140,200.6 153,199.2 153.7,201.3 118.8,206.4 "/>
<polygon class="st19" points="156.9,177.7 157.2,179.7 166.1,179 165.7,177.4 "/>
<polygon class="st19" points="204.4,193.8 204.5,191.4 213.3,191.4 212.8,193.5 "/>
<path class="st19" d="M192.9,235.9l13.3-0.8l3.5,1c0,0,1-1,1.5-1s11.2,0.3,11.2,0.3l-1.3,3l-9-0.7l-2.8,1.3l-2.8-2.3l-12.3,1.2
	L192.9,235.9z"/>
<polygon class="st19" points="173,295.9 179.7,291.6 186.8,290.2 192.5,290 207.7,294.6 208,292.8 196.8,289.3 192.4,288.5 
	185.5,288.5 177.9,290.3 170.8,294.8 "/>
<polygon class="st19" points="184.1,260.2 186,258.3 188.8,258.3 191.5,260.1 190.4,261.6 188.3,259.3 "/>
<polygon class="st19" points="226.1,256 260.4,261.4 259.9,264.5 225.7,258.8 "/>
<polygon class="st19" points="248.9,221.8 252.9,217.8 254,223.6 "/>
<polygon class="st19" points="181,157.2 183.2,154.5 185.6,154.4 188.1,157 "/>
<polygon class="st19" points="172.3,191.7 182.8,186.8 187.4,186.3 199.9,190 199.9,192.7 187.8,188.6 182.7,188.2 172.8,194.6 "/>
<path class="st21" d="M215.2,198.9c1.2-0.2,14.3-1.6,14.3-1.6l9.2,0.8l17.8,5.9l-0.7,2.3l-17.3-6.2l-9.2-0.5l-14.3,1.8L215.2,198.9z
	"/>
<polygon class="st19" points="237.9,160.4 241.4,159.8 243,160.3 243.3,163.1 238.7,162.4 "/>
<polygon class="st19" points="271.3,257.8 281,266.8 294.8,280.1 294,281.5 269.6,260.4 "/>
<polygon class="st19" points="301.4,244.6 303.8,244.5 305.3,246.4 304.8,248.4 302.5,247.4 "/>
<polygon class="st19" points="80.6,84.8 90.8,96.7 90.4,99.9 80.9,89.7 "/>
<polygon class="st19" points="94.4,85.1 101.9,91.1 130.9,159.1 100.3,94 "/>
<polygon class="st22" points="269.3,365.3 100.4,365.7 99.2,368.5 269.3,367.6 "/>
<polygon class="st19" points="129.9,24.6 139.4,36.8 166.1,154.9 137.5,38.1 "/>
<polygon class="st19" points="149.6,20.7 158,29.9 175.9,147.3 155.5,31.5 "/>
<polygon class="st19" points="105.3,47.5 112.1,56.9 146,155.8 114.1,55.9 "/>
<polygon class="st19" points="261.8,293.6 275.1,293 291.7,302.4 275.3,291.4 261.2,293.1 "/>
<polygon class="st23" points="56.2,411.2 62.8,396.3 68.5,405.9 67.6,429.6 65.4,406.4 62.8,401.1 "/>
<polygon class="st22" points="205.8,398.9 199.5,397.4 138.5,439.4 139.2,440.5 199.5,398.4 "/>
<polygon class="st22" points="115.7,458.1 130.2,446.1 131,447.3 116.3,459.1 "/>
<polygon class="st22" points="129.4,432.5 132.2,430.8 133.2,432.1 129.7,434.6 "/>
<polygon class="st22" points="171.7,411.2 178.8,411.3 177,412.9 "/>
<polygon class="st22" points="189.6,415.2 257.2,449.8 257,451.4 187.5,416 "/>
<polygon class="st22" points="260.2,441.8 264.7,444.8 264.1,446.6 259.5,443.5 "/>
<polygon class="st22" points="262.4,453.2 262,454.5 281.5,464.9 285.6,464.6 288.5,464.6 284.9,463.5 281.4,463.6 "/>
<polygon class="st23" points="135.8,393.4 144.1,393.4 144.3,396.5 135.2,396.5 "/>
<polygon class="st23" points="131.5,420.5 150.6,419.8 150.4,417.8 143.4,416.1 137.7,416.8 131.4,418.9 "/>
<polygon class="st22" points="5,398.7 28,402.4 27.5,404.6 4.7,400.3 "/>
<path class="st23" d="M33.6,397.4l5.3,5.4c0,0,2.1-2.3,1.5-2.6s-5.4-4.4-5.4-4.4L33.6,397.4z"/>
<polygon class="st23" points="41.1,403.8 51.2,407.1 50.7,410.1 40.4,406.1 "/>
<polygon class="st22" points="3.4,421.7 2.3,420.8 8.8,414.1 9.8,415.2 "/>
<polygon class="st22" points="16.1,441.6 30.6,426.8 32.2,428.3 17.5,442.9 "/>
<polygon class="st23" points="41,393 52.9,387.1 52.2,390.4 41.7,396 "/>
<polyline class="st22" points="35.2,358.2 43.8,357 45.3,360.8 36.3,361.6 35.8,359.8 "/>
<polygon class="st23" points="37.6,344.4 46.5,339.9 47.5,341.9 39.3,346.8 "/>
<polygon class="st23" points="45,372.9 66.9,358.2 68.2,361.1 47,375.7 "/>
<polygon class="st22" points="76.5,345.9 65.3,351.3 60.6,353.4 59.2,358.6 62.7,354.2 69.7,351.5 76.1,349.2 "/>
<polygon class="st22" points="60.1,328.2 76.9,322.6 76.9,325.3 60.4,330.2 "/>
<polygon class="st23" points="106.8,412.5 101.1,424.6 100,440.3 99.1,424.3 "/>
<polygon class="st23" points="109.6,415.6 114.4,421.9 117,440.5 112.7,423.6 "/>
<polygon class="st23" points="121.7,434.1 123,422.3 128.8,428.8 124,425.9 "/>
<polygon class="st23" points="166.7,457.8 194.3,456.8 193.3,458.8 167.3,460.1 "/>
<polygon class="st23" points="177.5,431.8 179.9,429 181.1,427.5 184.7,432.5 181.1,430.2 "/>
<polygon class="st23" points="203.5,445.3 210.7,446.6 210.1,448.6 203.5,447.3 "/>
<polygon class="st23" points="276.8,454.5 276.8,434.1 271.6,427.2 264.7,434.3 264.3,442.9 265.2,435.1 271.4,428.2 275.8,434.3 
	"/>
<polygon class="st23" points="72.9,469.6 74.6,406.9 80.3,392.9 90.9,413.5 91.3,447.7 88.7,414.4 80.8,397.7 76.8,407.4 
	74.6,468.3 "/>
<polygon class="st22" points="326.4,446.9 330.9,443.3 332.2,445.8 327.4,448.6 "/>
<polygon class="st22" points="343.9,440.7 346.5,439 346.2,437.1 342.6,438 "/>
<polygon class="st23" points="301.5,347.6 316.3,356.8 315.6,358.5 301.2,349.3 "/>
<polygon class="st22" points="273.2,322.3 287.9,322 288.1,324 273.3,324.5 "/>
<polygon class="st22" points="310,374.6 316.9,376.9 322.2,382.5 323.8,382.5 320.1,376.4 311.7,372.2 "/>
<polygon class="st22" points="323,375.5 324.6,376 336.3,367.7 334.7,365.7 328.1,369.6 "/>
<polygon class="st22" points="337.1,361.5 341.4,360.2 344.7,364.2 345.7,360.8 343.5,358.1 338.6,358.6 "/>
<polygon class="st23" points="242.5,424.2 260.5,423.6 260.3,426 242.6,426.3 "/>
<polygon class="st23" points="246.9,394.6 255.8,395 255.8,396.9 246.9,396.6 "/>
<polygon class="st23" points="224.8,433 225.8,420.6 231.4,414 237.3,419.6 238.9,440.3 240.6,441.3 239.4,418.1 231.6,410.6 
	223.7,418.8 223.2,432.3 "/>
<path class="st23" d="M305.7,446.6l-2.9-9.5L306,418l9.9,13c0,0,4.9,17.3,3.3,14.3s-5.6-14.8-5.6-14.8L307,422l-1.3,13.2
	L305.7,446.6z"/>
<polygon class="st23" points="283.4,450.1 275.8,414.9 278.5,401.9 286.3,412.3 297.5,460.3 284.7,415.2 280.1,407 278.1,414.6 "/>
<polygon class="st23" points="313.2,414.2 318.9,415.4 323.5,421.3 327.8,434.1 326.9,427 325,420.1 318.6,412.9 313.3,411.8 "/>
<polygon class="st22" points="328.1,421.1 341.3,415 341.6,416.2 329.1,422.6 "/>
<polygon class="st22" points="342.7,412.1 343.4,410.1 347,409.1 350.6,410.9 346.6,410.8 344.5,412.1 343.5,414.2 "/>
<polygon class="st22" points="301.2,363.2 302.7,360.3 304.6,360.7 306.4,362.1 303.3,362.4 301.8,365.1 "/>
<polygon class="st24" points="301.1,293.9 339.8,266.6 352,263.9 340.3,269.7 "/>
<polygon class="st24" points="295.8,282.8 341.2,241.6 349.3,238.5 347.1,241.8 342.2,243 "/>
<polygon class="st24" points="336.6,232.4 330.2,232.5 319,240.2 329.9,230.3 338.9,229.6 "/>
<polygon class="st24" points="365.1,190.4 354.5,193.3 286.8,248.3 353.9,190.2 367.3,187.2 "/>
<polygon class="st24" points="274.5,240 327.1,164.1 338.6,154 324.6,161.6 "/>
<polygon class="st24" points="326,105.3 315.1,116.1 273.2,197.4 313.1,113.7 "/>
<polygon class="st24" points="285.9,89.5 281.1,97 278.9,95.7 287.6,83.3 "/>
<polygon class="st24" points="276.3,83.1 267.2,91 244.3,143.5 269.7,93.4 "/>
<polygon class="st24" points="225,154 255.4,59.5 264.6,49.2 267,62.8 265.7,66.4 263.6,52.3 257,60.7 "/>
<polygon class="st24" points="240.2,24 235.5,35.4 211.4,143.1 231.6,34.2 "/>
<polygon class="st24" points="220.8,17.3 212.2,29.7 193.8,151 215.1,31.3 "/>
<polygon class="st24" points="177.6,145.3 179.2,29.7 184.9,5.3 189.3,26.8 192.5,144.4 187,27.2 184.8,10.6 181.3,30.1 "/>
<polygon class="st23" points="298.3,388.4 303.1,391.7 308.2,396.5 311.2,400.7 310.8,402.9 307.1,397.8 301.8,393.7 297.6,392.9 
	296.1,387.5 "/>
<path class="st22" d="M80.4,335.1c0.3,0.1,16.1,0.3,16.1,0.3l-0.2,1.8l-16-0.2L80.4,335.1z"/>
<polygon class="st19" points="83.7,308.3 94.2,308.6 94.3,312.2 83.5,312.1 "/>
<polygon class="st22" points="314.4,338.2 313.9,336.1 314.8,334.1 317.7,333.9 319.9,335 317,335.1 315.2,335.2 314.9,336.2 "/>
<polygon class="st22" points="278.1,312.8 278,309.9 279.5,308.4 281.9,308.4 283.2,310 281.3,309.1 279.6,309.2 278.9,310.3 "/>
<polygon class="st19" points="297.8,248.6 282,265.6 283.1,266.5 298.1,249.5 "/>
<polygon class="st19" points="76.9,302.9 90.4,292.4 108.6,293.9 90.9,294.3 "/>
<polygon class="st25" points="239,505.3 232.5,505.3 232.5,505.3 232.5,506.7 232.5,529.9 232.5,529.9 232.5,505.3 231.6,505.3 
	231.6,528.4 220,506.7 220,506.7 219.3,505.3 212.7,505.3 212.7,542.2 212.7,542.2 212.7,542.2 219.3,542.2 219.3,540.9 
	219.3,517.6 231.7,540.9 232.5,542.2 232.5,542.2 239,542.2 239,542.2 239,540.9 239,540.9 "/>
<polygon class="st25" points="151.1,505.3 151.1,505.3 131.3,505.3 124.8,505.3 124.8,505.3 124.8,505.3 124.8,514.7 124.8,542.2 
	131.3,542.2 151.1,542.2 151.1,542.2 151.1,540.9 151.1,534.2 151.1,532.8 151.1,532.8 132.5,532.8 132.5,528.5 151.1,528.5 
	151.1,520.3 151.1,520.3 151.1,519.4 151.1,519 151.1,519 151.1,518.9 132.5,518.9 132.5,515.2 151.1,515.2 151.1,514.7 
	151.1,505.3 151.1,505.3 "/>
<polygon class="st25" points="180.4,505.3 180.4,505.3 154.1,505.3 154.1,505.3 154.1,505.3 154.1,506.7 154.1,506.7 154.1,514.7 
	154.1,514.7 154.1,515.2 154.1,515.2 154.1,515.2 155.3,515.2 161.7,515.2 161.7,532.8 161.7,532.8 154.1,532.8 154.1,542.2 
	154.1,542.2 154.1,542.2 154.1,542.2 154.1,542.2 180.4,542.2 180.4,542.2 180.4,540.9 180.4,534.2 180.4,534.2 180.4,533.5 
	180.4,532.8 180.4,532.8 172.8,532.8 172.8,515.2 180.5,515.2 180.5,514.7 180.5,505.3 180.4,505.3 "/>
<path class="st25" d="M209.7,505.3L209.7,505.3l-26.3,0v36.9h26.4v-23.3h-13.2v1.4h0v8.7h5.7v3.8h-11.5v-17.6h19L209.7,505.3
	L209.7,505.3L209.7,505.3z M197.7,528.5L197.7,528.5l5.4,0v0H197.7z"/>
<polygon class="st25" points="268.3,518.3 268.3,518.3 268.3,505.3 261.7,505.3 261.7,505.3 242,505.3 242,505.3 242,505.3 
	242,514.7 259.5,532.8 248.5,532.8 248.5,529.7 248.5,528.5 248.5,528.3 243.2,528.3 242,528.3 242,528.3 242,528.5 242,529.7 
	242,540.9 242,540.9 242,542.2 242,542.2 248.5,542.2 268.3,542.2 268.3,542.2 268.3,540.9 268.3,532.8 251.5,515.2 261.7,515.2 
	261.7,518.3 261.7,519.1 261.7,519.4 261.7,519.6 261.7,519.6 268.3,519.6 268.3,519.6 268.3,519.6 "/>
<path class="st25" d="M121.7,505.3L121.7,505.3L121.7,505.3l-26.4,0v36.9h6.6v-13.8h5.9l6.8,12.7l0.6,1h6.6l-0.6-1.1l-0.1-0.3h0
	l-6.6-12.4h7.3l0-13.8h0L121.7,505.3L121.7,505.3L121.7,505.3L121.7,505.3z M102.7,518.9l0-3.7h12.4v3.8h0v-0.1L102.7,518.9z"/>
<rect x="289" y="519.7" class="st26" width="117.5" height="8.4"/>
<rect x="-43.2" y="519.7" class="st26" width="117.5" height="8.4"/>
</svg>
