<?xml version="1.0" encoding="utf-8"?>
<!-- Generator: Adobe Illustrator 23.0.0, SVG Export Plug-In . SVG Version: 6.00 Build 0)  -->
<svg version="1.1" xmlns="http://www.w3.org/2000/svg" xmlns:xlink="http://www.w3.org/1999/xlink" x="0px" y="0px"
	 viewBox="0 0 400 400" style="enable-background:new 0 0 400 400;" xml:space="preserve">
<style type="text/css">
	.st0{fill:#821528;stroke:#821528;stroke-miterlimit:10;}
	.st1{fill:#002B4B;stroke:#821528;stroke-miterlimit:10;}
	.st2{display:none;fill:#821528;}
	.st3{display:none;}
	.st4{display:inline;fill:#002B4B;}
	.st5{fill:#002B4B;}
	.st6{fill:#FEF5CC;}
	.st7{display:none;fill:#FEF5CC;}
	.st8{fill-rule:evenodd;clip-rule:evenodd;fill:#FEF5CC;}
</style>
<g id="Layer_2">
	<rect class="st0" width="400" height="400"/>
</g>
<g id="Layer_3">
	<path class="st1" d="M399.9,261.4c-4.2-1.6-7.8-4.6-12.1-7c-1.7-0.9-2.4-2.4-2.4-3.8c-0.4-0.1-0.8-0.2-1.2-0.4c-0.3,0-0.7,0-1-0.1
		c-6-1-11.9-2.4-17.7-4.3c-1.2-0.2-2.3-0.4-3.5-0.7c-16.9-3.3-34-5.7-51.3-6.2c-17-0.5-33.4,1.1-50.1,3.8c-6.5,1-12.9,2-19.4,2.7
		c-7.8,3.3-16.3,5.4-24.6,7.5c0.1,1.6-0.6,3.2-2.5,4.2c-9.5,4.9-19.7,8.1-30,10.5c0.5,2.3-0.5,4.8-3.5,5.4c-3.2,0.6-6.4,1.1-9.6,1.5
		c-4.3,1.9-9.3,2.6-13.9,3.1c-10.9,1.3-22,0.8-33-0.3c-1.5-0.2-2.7-0.8-3.5-1.6c-6.6-0.1-13.2-0.4-19.8-1c-12-1.1-23.9-3-36-4
		c-9.7-0.8-19.3-2-28.4-5.4c-10.3,0.4-20.5,1.5-30.6,3.5c-0.9,0.3-1.7,0.5-2.6,0.5c-1,0.1-1.9,0-2.7-0.3c-0.8,0-1.6,0-2.3,0v135.4
		h404.8V263.3c-0.3-0.1-0.5-0.3-0.8-0.4C401.3,262.4,400.6,261.9,399.9,261.4z"/>
</g>
<g id="Layer_1">
	<circle class="st2" cx="200" cy="200" r="191.5"/>
	<path class="st3" d="M200,9c25.8,0,50.8,5,74.3,15c22.7,9.6,43.2,23.4,60.7,40.9s31.3,38,40.9,60.7c10,23.5,15,48.6,15,74.3
		s-5,50.8-15,74.3c-9.6,22.7-23.4,43.2-40.9,60.7s-38,31.3-60.7,40.9c-23.5,10-48.6,15-74.3,15s-50.8-5-74.3-15
		c-22.7-9.6-43.2-23.4-60.7-40.9s-31.3-38-40.9-60.7C14,250.8,9,225.8,9,200s5-50.8,15-74.3C33.6,103,47.4,82.5,64.9,65
		s38-31.3,60.7-40.9C149.2,14,174.2,9,200,9 M200,8C94,8,8,94,8,200s86,192,192,192s192-86,192-192S306,8,200,8L200,8z"/>
	<g class="st3">
		<path class="st4" d="M48.9,298c11.2,0.1,22.4,0.8,33.4,2.4c5.3,0.8,10.6,1.8,15.9,3c3.7,0.8,8.7,1.4,10.8,4.9
			c4,6.6,14.4,0.6,10.4-6.1c-6-9.9-19.7-11.1-30.1-12.8c-13.4-2.2-26.9-3.4-40.4-3.5C41.2,285.9,41.1,297.9,48.9,298
			C48.9,298,48.9,298,48.9,298z"/>
		<path class="st5" d="M46,291.6c8-7.5,21.6-8.7,32-8.9c12-0.2,23.9,1.7,35.6,4.2c21.7,4.6,43.2,11.2,65.6,11.6
			c10.8,0.2,21.9-1.1,32.2-4.9c10.5-3.8,19.4-10.3,28.8-16c19-11.6,40.6-14.5,62.5-15.2c20.1-0.6,45.3-1.9,60,14.3
			c5.2,5.7,13.7-2.8,8.5-8.5c-13.8-15.2-35.1-17.9-54.5-18c-22.5-0.2-46.1,0.8-67.2,9.3c-10.9,4.4-20.1,11.1-30.1,17.1
			c-10.2,6-21.3,9.3-33.1,9.8c-24.3,1.2-47.7-6.5-71.2-11.4c-13.3-2.8-27-4.9-40.7-4.2c-12.8,0.7-27.2,3.2-36.8,12.3
			C31.9,288.4,40.4,296.9,46,291.6L46,291.6L46,291.6z"/>
		<path class="st4" d="M358.2,283.5c-2.3,13.6-17.3,18.2-27.7,24.1c-11.7,6.6-20.2,16.7-24.3,29.5c-1.4,4.4,3.1,8.6,7.4,7.4
			c13-3.8,23.7-11.7,31.4-22.8c4-5.8-4.6-11.7-9.4-7.3l-27.6,25c-8.1,7.4-16.2,14.2-26.1,19c-20,9.7-43.5,14.5-65.5,16.8
			c-22.8,2.4-46.1,1.6-68.5-3.2c-10.9-2.4-20.6-6.2-29.9-12.4c-9.5-6.3-18.5-13.3-27.7-20.1c-15.3-11.2-47.4-30-38.6-53.4
			c2.7-7.2-8.9-10.4-11.6-3.2c-8.5,22.6,11.8,42.7,28,55.1c10.3,7.9,20.9,15.4,31.4,23.1c9.5,7,18.9,13.8,30,18.1
			c22.8,8.7,49.7,10.2,73.8,9c24.8-1.2,50.2-5.8,73.5-14.7c12.8-4.9,23.9-11.6,34.1-20.7l33.1-30l-9.4-7.3
			c-5.9,8.5-14.4,14.4-24.2,17.3l7.4,7.4c4.5-14.1,15.3-20.6,27.8-27c10.9-5.6,22.1-13.6,24.3-26.6
			C371,279.1,359.5,275.9,358.2,283.5L358.2,283.5L358.2,283.5z"/>
		<path class="st4" d="M51,303.6c16.3,18.7,41.7,24.2,59.5,40.9l2.6-10c-8,2.5-19.2,0.7-24.7-5.7c-6.8-7.9-13.1-16.3-19.3-24.6
			l-8.2,8.2c11.3,8.7,21.8,18.2,31.7,28.3l4.2-10.2c-7.4,0.2-13.6-4-17.9-9.8c-2.4-3.3-4.2-7-5.6-10.8c-0.8-2.2-1.5-4.4-2.2-6.6
			c-0.4-1.4-0.6-3.7-1.4-5c-0.1-2-0.5-2.2-1.4-0.5c1-0.3,2-0.5,3-0.7c1.7-0.2,3.4-0.2,5.1-0.1c4,0.3,8,1.5,11.7,3
			c7.8,3.2,14.7,8.3,21.8,12.7c14.2,8.9,29.1,13.3,45.8,12.7c17.9-0.6,35.2-5.8,52.6-9.2c7.6-1.5,4.3-12.8-3.2-11.6l-66.9,10.9
			c-6.7,1.1-5,11.9,1.6,11.8c34.8-0.6,69.4-5.5,103.8-10.4c7-1,4.8-11.4-1.6-11.8c-27.8-1.8-55.7-1.8-83.6-0.2v12l73.1-6.3
			c7.6-0.7,7.8-12.2,0-12c-22.5,0.7-44.8,2.4-67.1,5.3c-7.4,1-7.9,12.5,0,12l88.3-6.6c7.6-0.6,7.8-12.3,0-12
			c-28.7,1.2-57.4,3.1-86,5.5c-7.6,0.6-7.8,12.3,0,12l75-3.3l-1.6-11.8c-4.4,1.2-8.6,1.8-13.2,1.9c-7.7,0.1-7.7,12.1,0,12
			c5.6-0.1,11-0.8,16.4-2.3c6.4-1.7,5.3-12.1-1.6-11.8l-75,3.3v12c28.6-2.4,57.3-4.2,86-5.5v-12l-88.3,6.6v12
			c22.3-2.9,44.7-4.7,67.1-5.3v-12l-73.1,6.3c-7.6,0.7-7.8,12.4,0,12c27.8-1.6,55.7-1.5,83.6,0.2l-1.6-11.8
			c-33.4,4.8-66.8,9.4-100.6,10l1.6,11.8l66.9-10.9l-3.2-11.6c-16.1,3.2-32.1,8-48.5,8.7c-7.7,0.3-15.3-0.2-22.7-2.4
			c-7.3-2.1-13.8-6-20.1-10.1c-12.3-7.8-25.6-16.6-40.8-16c-6.3,0.3-14.3,2-15.7,9.3c-0.6,3.2,0.7,6.6,1.5,9.7
			c1.1,3.9,2.3,7.7,3.8,11.5c5.8,14.3,17.5,27.3,34.1,27c5.2-0.1,7.9-6.5,4.2-10.2C90.5,321.3,79.1,311.3,67,302
			c-4.7-3.6-11.7,3.5-8.2,8.2c4,5.5,8.2,10.9,12.4,16.2c3.8,4.8,7.4,10.2,12,14.2c4.2,3.7,9.3,4.9,14.7,5.8c6.2,1,12.3,1.6,18.5-0.4
			c4.2-1.3,6.1-6.8,2.6-10c-17.7-16.7-43.4-22.4-59.5-40.9C54.4,289.3,46,297.8,51,303.6L51,303.6L51,303.6z"/>
		<path class="st4" d="M241.7,316.9c-24.3,10-50.5,12-76.4,13.7c-7.6,0.5-7.8,12.4,0,12c35.6-1.7,71.1-5.2,106.3-10.6
			c6.7-1,5.1-12-1.6-11.8l-105.2,4v12c29.8-2.2,59.5-4.9,89.2-8.2c7.5-0.8,7.9-11.7,0-12c-25.6-1-51.2-0.2-76.7,2.4
			c-7.6,0.8-7.8,11.4,0,12c15.5,1.1,30.9-0.5,46.3-1.9l45.9-4.6c7.5-0.8,7.9-11.9,0-12c-18.5-0.3-37.3-0.3-55.2,5.3
			c-5.2,1.6-6.2,10.5,0,11.6c14,2.3,28.1,3,42.2,1.6c7.6-0.8,7.7-12.8,0-12c-13,1.3-26.1,1-39.1-1.2v11.6c16.9-5.3,34.5-5.1,52-4.8
			v-12l-45.9,4.6c-15.4,1.4-30.8,3.1-46.3,1.9v12c25.5-2.6,51.1-3.4,76.7-2.4v-12c-29.7,3.3-59.4,6-89.2,8.2c-7.6,0.6-7.8,12.3,0,12
			l105.2-4l-1.6-11.8c-34.2,5.2-68.6,8.6-103.1,10.2v12c26.9-1.7,54.4-3.7,79.6-14.1C252,325.6,248.9,314,241.7,316.9L241.7,316.9
			L241.7,316.9z"/>
		<path class="st4" d="M268.2,324.2c12.6-1.2,24.9-3.9,36.7-8.4c4.3-1.6,5.8-6.4,2.6-10c-6.5-7.4-19.7-6.1-28.6-6.4
			c-12.2-0.4-24.3-0.2-36.5,0v12c20.8-1.4,41.5-3.3,62.2-5.8c7.4-0.9,7.9-12.2,0-12c-25.2,0.5-50.3,1.2-75.2,5
			c-6.9,1.1-4.9,11.6,1.6,11.8c14.4,0.4,28.7-1,42.8-4c7.5-1.6,4.4-13.2-3.2-11.6c-13.1,2.8-26.3,4-39.6,3.6l1.6,11.8
			c23.8-3.7,48-4.1,72-4.6v-12c-20.7,2.5-41.4,4.4-62.2,5.8c-7.6,0.5-7.8,12.1,0,12c10.2-0.2,20.4-0.3,30.6-0.1
			c4.9,0.1,9.9,0.3,14.8,0.6c3.4,0.2,8.7-0.4,11.2,2.4l2.6-10c-10.8,4.1-22,6.9-33.5,8C260.5,312.9,260.5,324.9,268.2,324.2
			L268.2,324.2L268.2,324.2z"/>
		<path class="st4" d="M253.6,316.4c17.1-2.8,32.8-10.2,46.3-20.9c3.1-2.5,1.7-7.6-1.2-9.4c-5.5-3.4-11.7-4.2-18.1-4.6
			c-7.7-0.4-15.5-0.4-23.2-0.2c-15.4,0.5-30.7,2.4-45.8,5.3c-7,1.4-4.8,11.3,1.6,11.8c20.2,1.4,40.3-1.8,60.1-5.1
			c6.7-1.1,5.1-12.2-1.6-11.8c-27.9,1.7-55.6,4.8-83.2,9.2c-6.7,1.1-5.1,12,1.6,11.8c22.6-0.8,45-4.1,67.3-7.4
			c6.7-1,5.1-12.1-1.6-11.8c-27.1,1.5-54,4.6-80.7,9.5c-6.6,1.2-5.2,12.4,1.6,11.8c17.8-1.5,35.5-3.3,53.2-5.6l-1.6-11.8l-17,2.7
			c-7.6,1.2-4.4,12.8,3.2,11.6l17-2.7c6.6-1,5.1-12.6-1.6-11.8c-17.7,2.2-35.4,4.1-53.2,5.6l1.6,11.8c25.6-4.7,51.5-7.7,77.5-9.1
			l-1.6-11.8c-21.3,3.2-42.6,6.2-64.1,7l1.6,11.8c26.5-4.3,53.2-7.2,80-8.8l-1.6-11.8c-18.9,3.1-37.8,6-56.9,4.6l1.6,11.8
			c13.4-2.6,27-4.3,40.6-4.8c6.4-0.3,12.9-0.3,19.3-0.1c6,0.2,12.5-0.1,17.8,3.2l-1.2-9.4c-11.9,9.5-26.1,15.4-41,17.9
			C242.8,306.1,246,317.7,253.6,316.4L253.6,316.4L253.6,316.4z"/>
		<path class="st4" d="M235.8,304.1c14.3-9.8,29.9-16.9,46.7-21.1c6.8-1.7,5-11.4-1.6-11.8c-18.8-1.2-37.4,1.8-55.9,4.9
			c-6.6,1.1-5.1,12.5,1.6,11.8c20.3-2.1,40.3-5.7,59.9-11.1c6.4-1.8,5.3-12-1.6-11.8c-13.6,0.4-27.2,2.3-40.4,5.6
			c-6.4,1.6-5.3,12.3,1.6,11.8c17.9-1.4,35.5-4.5,52.7-9.4c6.4-1.8,5.3-11.9-1.6-11.8c-13.8,0.2-27.6,2.2-40.9,5.9
			c-6.3,1.8-5.3,12.3,1.6,11.8l53.8-4.3l-1.6-11.8c-11.9,2.7-23.6,6-35.2,9.9c-6.1,2.1-5.5,12.1,1.6,11.8c16-0.7,32-2.3,47.8-4.7
			c4.9-0.7,5.2-7,2.6-10c-0.1-0.1-0.2-0.3-0.3-0.4c-1.3-1.5-4-2.2-5.8-1.5c-2.7,0.9-4.1,2.3-5,5c-0.7,1.9,0.1,4.5,1.5,5.8
			c3.5,3.3,8.1,2.8,12.7,3l15.8,0.9c6,0.3,8-8.3,3-11.2c-13.2-7.5-28.1-11.2-43.2-10.4v12c18.2-1.9,36.2,1.2,52.5,9.7l4.6-11
			c-10.6-3.8-21.5-6.2-32.7-7.6v12c9.4,0.4,17.9,4.3,24.4,11.2l4.2-10.2c-18.6,0.1-37.1-0.7-55.7-2.3c-7.8-0.7-7.5,11,0,12
			c13.5,1.8,27.1,1.9,40.6,0.4c6.8-0.8,8.1-9.3,1.6-11.8c-13.1-5-28.1-5.6-41.5-1.1c-5.9,2-11,6-8.9,12.9c1.9,6.3,8.9,9.9,14.6,12.2
			c8.6,3.5,29.9,6.5,30.5-8.1c0.2-6.1-4.9-10.3-10.1-12.3c-6.6-2.5-13.6-1.6-19.9,1.4c-3.4,1.6-4,7-1.2,9.4
			c14.4,12.6,34.5,15.3,51.7,7.1c4.5-2.1,3.2-7.9,0-10.4c-10-7.6-25.6-5.7-36.6-1.1c-5.3,2.2-8.9,8.1-5.4,13.5
			c3.7,5.7,12.3,6.7,18.4,5.2c5.6-1.3,11.3-6.4,9.4-12.7c-2.1-6.8-10.6-6.9-16.5-6.4c-9.5,0.8-32.9,8.2-26.3,22
			c3,6.4,12.2,8.1,18.6,8.5c7.9,0.5,15.9-1.9,22.5-6.2c4.5-2.9,3.5-9.2-1.4-11c-10.2-3.7-24.2-1.4-25.6,11.5
			c-1.3,12,12.4,16.9,21.8,12c10.4-5.4,11-19.6,0.5-25.2s-24.8-6.6-36.1-3.3c-5,1.5-9.5,4.6-9.9,10.2c-0.4,5.4,3.7,10,8.2,12.4
			c10,5.1,23.1,1.9,31.5-4.9c4.3-3.5,7.1-9.3,3.7-14.4c-3-4.7-9.3-5.5-13.4-1.6c-7.6,7.2-2,19.9,7,22.5c9.1,2.7,32.1-5.4,23.8-18.1
			c-7.2-11.1-26-0.8-33.7,4.1c-5.6,3.6-2.1,12.9,4.6,11c8.9-2.5,12.6-13.3,8.4-21.3c-4.8-9.1-16-11.4-25.4-12.2
			c-10.2-0.8-24.8-0.2-32.6,7.3c-7,6.8-4.5,17.9,5,20.5c8.7,2.4,21.7-1.6,21.9-12.1c0.2-12.1-12.8-16.7-22.7-18.4
			c-11.1-2-22.7-1.3-33.3,2.6c-4.5,1.6-9.8,3.5-12.9,7.3c-3.4,4.1-3.2,10,0.5,13.9c3.8,4,10,5.8,15.1,7.4c6.7,2,13.9,3.1,21,3.2
			c10.9,0.2,24.1-1.4,30.1-11.8c1.6-2.8,0.7-6.6-2.2-8.2c-12.5-7.1-32.9-8.6-43.6,2.9c-5,5.4-4.3,13.2,1.1,18
			c5.7,5,14.1,5.7,21.3,5.8c6.7,0.1,19.5,0.2,23.6-6c4.9-7.4-3.5-13.7-9.6-16c-14.4-5.3-30.2-2-42.1,7.4c-3.8,3-1.2,8.8,2.6,10
			c20.8,6.6,43.1,7.2,64.3,1.8c4.6-1.2,5.5-6.8,2.6-10c-9-10.2-26.7-8.5-38.7-6.5c-11.6,1.9-30.8,6.4-32,20.8
			c-1.3,15,18.8,18.5,30,19.2c9,0.5,30.9-0.3,30.9-13.5c0-13.9-22.4-14-31.1-10c-5.2,2.4-10.6,6.8-10.8,13
			c-0.2,6.3,5.1,10.5,10.9,11.6c6,1.1,12.5,0.1,18.1-2c5-1.9,11.7-5.4,14.4-10.3c2.9-5.3-0.2-11-5.6-13c-5.8-2.1-13.2-0.7-18.8,1.3
			c-6.3,2.3-13.7,6.4-16.8,12.6c-3.5,7.1,1.2,13.4,8.3,14.7c15.2,2.8,31.7-1.3,44.7-9.2c5.4-3.3,2.7-10.7-3-11.2
			c-19.2-1.7-38.5,2.5-55.4,11.8c-4.3,2.4-3.7,9.9,1.4,11c12.7,2.6,31.3,0.1,39.4-11.6c3.7-5.3,2.9-12.2-1.5-16.8
			c-4.8-5-11.7-6.1-18.2-4.5c-5.5,1.4-13.4,4.3-16.1,9.8c-2.9,5.9,0.8,11.9,6.6,14c5.9,2.1,13.3,0.7,19.1-1.2
			c7.2-2.4,13.6-6.4,19.1-11.6c3.7-3.5,1-10.4-4.2-10.2c-13.7,0.5-26.5,6.1-36,16.1c-3.5,3.7-1.1,10.3,4.2,10.2
			c8.6-0.1,17-2.6,23.9-7.7c3-2.2,5.6-4.7,6-8.5c0.4-4.1-2.2-7.4-5.9-8.8c-6.3-2.2-15.1-1.6-21.6-0.8c-7.7,1-14.8,3.7-20.2,9.4
			c-2.9,3.1-2,9.1,2.6,10c10.3,2.1,21,1.8,31-1.4c7.5-2.4,22.8-8,19.6-18.4c-0.8-2.7-3.1-4.2-5.8-4.4c-8.6-0.7-31.8,6.1-24.4,19
			c3,5.3,10.1,5.7,15.5,4.8c6.2-1,11.8-4.2,15.7-9.1c3.1-3.9,1.4-10.3-4.2-10.2c-8.4,0-16.1,3.3-21.8,9.5c-2.8,3.1-2,9.1,2.6,10
			c12.3,2.4,24.1-0.7,33.7-8.8c3.8-3.2,0.9-10.9-4.2-10.2c-16.7,2.1-32.4,7.9-46.2,17.6c-6.4,4.5-1,13.6,6.1,10.4
			c9.9-4.5,18.6-11.2,25.7-19.5c4-4.8,0.1-11-5.8-10c-8.1,1.3-15.7,4.6-22.3,9.5c-5.5,4.1-13.3,10.7-12.9,18.3s7.9,10.7,14.5,11.2
			c9.4,0.7,18.9-2,27.2-6.2c5.5-2.8,2.7-11.1-3-11.2c-13.2-0.2-25.9,2.6-38,8c-4.9,2.2-3.1,9.7,1.4,11c9.6,2.7,19.6,0.1,26.6-7
			c3-3.1,1.9-9.1-2.6-10c-13.8-3-27.9-0.7-40,6.7c-5.4,3.3-2.6,10.5,3,11.2c7.6,0.9,15.3,1,23,0.2c5.7-0.6,12.1-1.1,16.5-5.3
			c4.3-4,4.2-9.9,1-14.4c-4-5.8-9.4-11.1-14-16.4c-4.3-5-10.9,0.6-10,5.8c1,6.1-6.8,10.4-11.7,11.6c-7.8,1.9-16.1,0.7-24,1.8
			c-6.8,0.9-13.9,3.2-18,9.1c-3.6,5.2-4.1,12.2-0.3,17.4c7.9,10.7,24.4,6.1,34.4,1.7c5.8-2.6,12.5-6.3,15.7-12
			c2.9-5.2,2.3-12.4-2.6-16.2c-5.6-4.4-15-3.3-21.2-1c-7.2,2.6-13.1,7.3-17.3,13.7c-2.3,3.5,0.2,7.6,3.6,8.8
			c19.8,7.2,41.8,5.2,60.2-4.8c4.1-2.2,3.7-8.1,0-10.4c-8.4-5.2-18.8-2.7-27.8-0.4c-10.1,2.7-19.9,6.7-29.1,11.7
			c-4.4,2.4-3.6,9.9,1.4,11c14.5,3,29.3,2.1,43.2-3.1c6.2-2.3,5.4-11.4-1.6-11.8c-11.9-0.6-23.6,2.2-34,8c-4.9,2.7-3.1,12,3,11.2
			c10-1.3,19.6-3.5,29-6.9c5.9-2.2,5.6-12.2-1.6-11.8c-12.8,0.8-25.5,2.8-37.8,6.2l3.2,11.6c9.1-2.6,18.3-4.7,27.7-6.4l-3.2-11.6
			c-11.5,3.2-22.7,7.2-33.6,12c-6.7,2.9-1.6,12.1,4.6,11c12.9-2.3,25.7-5.4,38.2-9.3c7.5-2.3,4.3-12.8-3.2-11.6l-42.3,7.2l4.6,11
			l25.6-13.9c2.3-1.3,3.4-4.2,2.8-6.8c-1.8-7-8.6-9-15.1-9.1c-9.2-0.1-18.5,1.1-27.6,2.4l3.2,11.6c9.9-4,19.1-8.9,27.8-15
			c5.8-4.1,2.1-11.9-4.6-11c-11.2,1.5-22.1,4.5-32.6,8.8c-7.1,2.9-4.5,12.9,3.2,11.6c13-2.2,25.9-4.7,38.7-7.6
			c6.6-1.5,5.2-12-1.6-11.8c-14.5,0.4-28.7,3.2-42.2,8.5c-6.1,2.4-5.6,11.6,1.6,11.8c17.9,0.5,35.7-1.8,53-6.7
			c6.7-1.9,5.1-11.4-1.6-11.8l-27.9-1.5l1.6,11.8c10.9-2.4,21.4-5.8,31.7-10.1c5.9-2.5,5.7-11.6-1.6-11.8
			c-11.6-0.3-23.2,1.2-34.3,4.6c-5.3,1.6-6.1,10.4,0,11.6l12.1,2.3l-1.4-11l-17.7,13.2c-4.5,3.3-12.4,7.2-13.8,13.2
			c-3.4,14.1,21.5,13.6,29.3,12c6.2-1.3,5.2-9.8,0-11.6c-13.9-4.6-28.6-5.2-42.9-1.9c-7.1,1.6-4.6,11,1.6,11.8
			c14.3,1.7,28.7,1.9,43,0.6c7.6-0.7,7.8-11.5,0-12c-11.6-0.7-23,0.1-34.4,2c-6.1,1-5.4,10.1,0,11.6L217,372l1.6-11.8
			c-13.8,1.3-27.5,3.6-41,6.8c-7.2,1.7-4.6,11,1.6,11.8c13.3,1.8,26.7,2.1,40.2,1.1c7.7-0.6,7.7-11.4,0-12
			c-16.8-1.3-33.5-0.6-50.2,1.7c-7.1,1-4.7,11.3,1.6,11.8c13.7,1,27.4,1.2,41.1,0.5c7.7-0.4,7.7-11.6,0-12
			c-11.3-0.6-22.5-0.2-33.7,1.3c-3,0.4-5.5,2-5.9,5.2c-0.4,2.6,1.3,6.2,4.3,6.6c10.9,1.5,21.8,1.9,32.7,0.6
			c6.1-0.7,8.9-10.5,1.6-11.8l-52.6-9.3l-1.6,11.8l30.5-0.2c6.5,0,8.5-10.7,1.6-11.8c-19-3-38.1-3.9-57.3-2.4
			c-6.2,0.5-8.7,10.7-1.6,11.8c14.5,2.3,29.1,3.4,43.9,3.1c7.8-0.2,7.6-11.3,0-12c-14-1.3-27.9-1.3-41.9-0.2c-7.7,0.6-7.8,11.5,0,12
			l30.7,2v-12c-17.6,2.3-32.6-8.4-46.2-18.2l-6.1,10.4c12.7,9.1,27.3,15.1,42.7,17.5c5.6,0.9,10.4-5.4,5.8-10
			c-13.7-13.9-31.3-23.4-50.4-27c-5.5-1-10.5,5.6-5.8,10c9,8.5,19.4,14.8,31.1,18.8c5.5,1.9,10.5-6.2,5.8-10
			c-10.1-8.4-21-15.4-33-20.7c-5.4-2.4-11.1,2.6-8.2,8.2c4.4,8.6,11.8,14.6,20.9,17.6c6,2,9.6-5.8,5.8-10
			c-10.2-11.4-22.2-20.9-35.6-28.3c-4-2.2-9,0.6-9,5.2c-0.1,10.7,8.1,18.9,18.6,19.8c4.7,0.4,7.3-5.3,5.2-9
			c-7-12.4-16.6-22.9-28.2-31.2c-5.8-4.2-11.6,4.6-7.3,9.4c4.2,4.7,8.8,8.7,13.9,12.5l6.1-10.4c-7.9-4.9-15.6-10.1-23.1-15.6
			c-5.4-4-10.3,3.4-8.2,8.2c1.5,3.4,3.6,6.3,6.3,8.8l7.3-9.4l-17.2-12.8c-1.3-1-2.6-1.9-3.9-2.9c-0.6-0.5-2.6-2.7-3.4-2.7
			c-0.2,1.5,0,1.9,0.8,1.2c0.6-0.4,1.2-0.8,1.8-1.1c1.1-0.6,2.2-0.9,3.3-1.2c10.6-2.9,22.4,1.2,33.2,1c7.9-0.1,7.5-11.2,0-12
			l-18.5-2.1v12l120,11v-12l-73.3,1.5c-7.7,0.2-7.7,11.7,0,12l47.9,1.6c7.7,0.3,7.7-11.6,0-12c-17.4-0.9-34.8-1.2-52.2-1
			c-7.9,0.1-7.5,11.2,0,12c16.1,1.6,32.2,2.5,48.4,2.6c7.7,0.1,7.7-11.8,0-12c-19.9-0.6-39.8,0-59.7,1.7c-7.6,0.7-7.8,11.6,0,12
			c19.6,1.1,39.2,1.4,58.8,1.1c7.7-0.1,7.7-12.1,0-12c-13.7,0.2-27.3,0.9-40.9,2.1c-7.6,0.7-7.8,12.2,0,12l54.2-1.5
			c7.7-0.2,7.7-12,0-12c-16.4-0.1-32.7,0.7-49,2.2c-7.6,0.7-7.8,11.7,0,12c21.3,0.7,42.5,0.9,63.8,0.5c7.7-0.1,7.7-12,0-12
			c-13.9,0-27.7,0.6-41.5,1.9c-7.6,0.7-7.8,12.6,0,12c24.7-1.9,49.4-4.3,74-7.1c6.2-0.7,8.7-10.1,1.6-11.8c-2.3-0.5-4.3-0.8-6.6-0.5
			c-7.5,0.8-7.9,11.6,0,12c8.8,0.5,17.6,0.3,26.3-0.4c7.6-0.6,7.8-12.4,0-12l-37.4,1.7l1.6,11.8l37.7-6.6c6.6-1.2,5.2-12.4-1.6-11.8
			l-35.3,3.2v12l32.8-3.3v-12c-10.9,1.2-21.6,3-32.3,5.4c-6.7,1.5-5.1,11.8,1.6,11.8c8,0,15.8-0.9,23.6-2.5
			c6.7-1.4,5.1-11.8-1.6-11.8h-46l1.6,11.8c7.1-2.4,14.4-4.3,21.8-5.3l-1.6-11.8c-10.6,1.5-21.2,3.5-31.6,6c-6.3,1.5-5,9.5,0,11.6
			l7.2,3v-11.6c-33.4,7.6-67.7,7.3-101.8,6.9c-6.6-0.1-8.3,10.3-1.6,11.8c8.3,1.8,16.6,2.7,25.1,2.7l-3-11.2l-9.1,5.6
			c-2.6,1.6-4.1,5.5-2.2,8.2c3.9,5.5,8.2,10.4,13.2,14.9l5.8-10c-11.9-3.3-23.2-7.9-34-13.9c-6.8-3.8-12.4,6.1-6.1,10.4
			s12.3,9,17.8,14.2l7.3-9.4l-13.9-9.5c-5.1-3.5-11.1,3.3-8.2,8.2c2.4,4.1,5.2,8,8.2,11.7l8.5-8.5l-15.5-12.8
			c-5.1-4.2-12.8,1-9.4,7.3c2.4,4.5,6,8,10.5,10.1c4.6,2.1,10.3-1.4,8.8-6.8c-1.4-5-3.5-9.6-6.4-13.8c-4.3-6.3-14.4-0.7-10.4,6.1
			c2.7,4.5,5.9,8.6,9.5,12.4c3.4,3.5,10.7,1,10.2-4.2c-0.8-8.9-1.2-17.8-1-26.7l-11.2,3c2.7,4.9,5,9.9,6.9,15.2l11-4.6
			c-2.9-6-8.5-10.2-15.1-11.3c-4.7-0.8-8.2,2.6-7.4,7.4c1.3,7.7,7.6,14,15.4,15.2c4,0.6,7.4-1.6,7.6-5.8l1-17.6l-9,5.2
			c5.8,3.7,11.9,6.6,18.3,9c4.7,1.7,9.9-4.7,6.8-8.8c-4.2-5.5-9.4-9.4-16.2-11c-7.7-1.8-10.2,8.8-3.2,11.6
			c6.7,2.7,14.2,3.6,19.8-1.9c2.9-2.9,1.9-9.3-2.6-10l-63.2-10L39,297.2c23.7-0.1,44.9,11.7,64.2,24.3s38,26.2,60.1,33.7
			c6.3,2.1,10.9-8.3,4.6-11c-12.4-5.2-25.4-7.5-38.9-5.9c-6.9,0.8-8,9.1-1.6,11.8c6.9,2.9,15.6,3.6,22.5,0.3
			c5.5-2.6,9.7-8.2,8.1-14.5c-1.7-6.7-8.4-9.9-14.3-12.1c-7.9-2.9-16.4-3.6-24.7-2.6c-4.7,0.6-8.5,6.4-4.2,10.2
			c9.5,8.6,24.1,10.1,34.7,2.6c3.5-2.5,4.2-8,0-10.4c-9.8-5.4-20.7-8.4-31.9-8.4c-8.7,0-24.1,0.6-24.9,11.9c-0.1,1.9,1.2,4.4,3,5.2
			c9.3,4.2,19.5,4,28.3-1.4c2.5-1.6,4.2-5.6,2.2-8.2c-7-9.1-20.1-12.4-29.9-5.4c-3.2,2.3-4.5,8.4,0,10.4
			c14.6,6.3,32.5,12.7,46.7,1.8c3.2-2.4,4.6-8.3,0-10.4c-10-4.6-21.8-6-32.2-1.6c-4.4,1.8-8.3,5.5-8.1,10.6c0.2,5.2,4.6,8.3,9.1,9.8
			c11.4,3.9,24.5,4.7,36.4,3.6c8.9-0.8,23.1-1.7,25.7-12.3c0.7-2.6-0.5-5.4-2.8-6.8c-12.2-7.5-27.1-7.9-39.8-1.5
			c-5.2,2.6-2.9,9.2,1.4,11c12.3,5.2,26.1,5.6,38.8,1.6c6-1.9,5.3-9.4,0-11.6c-15.6-6.3-32.4-7.6-48.9-4.4c-2.8,0.6-4.1,3.3-4.4,5.8
			c-0.2,1.3-0.3,2.6-0.5,3.8c-0.3,2.6,2.1,5.1,4.4,5.8c9.5,2.6,19,2.9,28.6,0.9c1.8-0.4,3.9-2.3,4.2-4.2
			c1.8-12.5-15.3-14.9-24.5-16.7c-10.6-2-21.5-3.4-30.5,3.7c-3.1,2.5-1.8,7.6,1.2,9.4c12.5,7.6,28,9.1,41.6,3.6
			c4.3-1.7,6.5-8.4,1.4-11c-8.1-4-17.9-2.7-24,4.2c-3.1,3.6-1.7,8.4,2.6,10c22.4,8.3,46.6,9.8,70,4.9c6-1.3,5.4-9.9,0-11.6
			c-11-3.4-22.6-3.3-33.5,0.4c-5.4,1.8-6,10.1,0,11.6c20,4.9,41,4,60.4-3.1c3.1-1.1,5-4,4.2-7.4c-2.2-8.9-11.9-10.2-19.7-9.9
			c-11.1,0.4-21.9,2.7-32.2,6.7c-2.4,0.9-4.6,3-4.4,5.8c0.1,1.3,0.1,2.7,0.2,4c0.2,2.9,1.8,4.8,4.4,5.8c22,8.6,46.3,7.6,67.9-1.7
			c4.9-2.1,3.2-9.7-1.4-11c-19.3-5.2-40.2-1.7-56.5,9.8c-3.3,2.3-4.5,8.4,0,10.4c19.3,8.6,42.2,4.8,57.2-10.3c2.2-2.2,2.5-6.3,0-8.5
			c-14-12.1-31.3-5.6-45.6,2.1c-1.7,0.9-3.1,3.2-3,5.2c0.7,8.9,9,12.7,17.2,12.3c9.8-0.5,18.7-4.4,26.1-10.7c2-1.7,2.2-5.1,0.9-7.3
			c-4-6.7-11.2-7.7-18.4-8c-9.3-0.3-18.7,0.1-28,1v12c12.3-1.4,23.9-5.2,34.4-11.9c4.1-2.6,3.9-9.9-1.4-11c-13.8-2.7-27.8-1.9-41,3
			c-7.4,2.7-4.4,12.6,3.2,11.6c9.7-1.4,19.3-3.3,28.7-5.7l-4.6-11L185,321.4c-5.7,2.8-2.5,10.9,3,11.2c4.9,0.2,9.3-0.9,13.7-3.1
			c6.1-3,1.8-13.1-4.6-11c-15.7,5.3-30.8,12-45.1,20.2c-3.7,2.1-4.1,8.4,0,10.4c12.9,6.3,26.9,6.3,41,5.7c6.4-0.3,8.6-10.7,1.6-11.8
			c-12.8-2-25.6-1-37.8,3.6c-5.6,2.1-5.8,9.5,0,11.6c9.2,3.3,19.1,3.5,28.5,1c5.4-1.5,6-10.5,0-11.6c-11.7-2.2-22.8-0.8-33.7,4
			c-5,2.2-3,9.5,1.4,11c15.7,5,32.3,5.5,48.4,1.8c4.3-1,5.9-7,2.6-10c-8.7-8.2-20.3-7.3-31.3-5.4c-7,1.2-12.6,1.4-19.4-0.7
			c-6-1.9-11.7-3.4-18-1.8c-5.2,1.3-5.6,8.3-1.4,11c8.2,5.3,17.7,8.5,27.5,9c3.9,0.2,8.3-0.8,10.2-4.6c2.1-4.1,0.4-8-3-10.5l-3,11.2
			c13.5-0.3,26.9-1.6,40.3-3.9c6.9-1.2,4.9-11.6-1.6-11.8c-5-0.2-10,1.1-14.2,3.9c-4.7,3-3.2,11.5,3,11.2l28-1.4l-1.6-11.8l-9.3,3.1
			c-7.3,2.4-4.4,13.3,3.2,11.6l16.5-3.8c7.5-1.7,4.3-13.3-3.2-11.6l-16.5,3.8l3.2,11.6l9.3-3.1c6.1-2,5.5-12.1-1.6-11.8l-28,1.4
			l3,11.2c2.7-1.7,5-2.4,8.1-2.3l-1.6-11.8c-12.3,2.1-24.6,3.2-37.1,3.4c-6.3,0.1-7.7,7.8-3,11.2c0.2,0.2,0.5,0.3,0.7,0.5
			c-0.9-1.2-1.8-2.4-2.8-3.6c2.9-3.2,2.9-4.6,0.1-4.2c-1.1-0.1-2.3-0.2-3.4-0.4c-1.9-0.3-3.9-0.8-5.7-1.4c-4.1-1.3-7.9-3.2-11.5-5.5
			l-1.4,11c5-1.3,10.1,1.5,14.9,2.8c5.2,1.4,10.3,1.5,15.6,0.8c8.1-1,19.6-5.3,26.5,1.2l2.6-10c-14,3.3-28.3,2.6-42-1.8l1.4,11
			c7.7-3.4,16.2-4.3,24.4-2.8v-11.6c-7.5,2.1-14.8,1.7-22.1-1v11.6c10.1-3.8,20.7-5.2,31.4-3.6l1.6-11.8c-11.7,0.5-24.1,1.2-34.9-4
			v10.4c13.5-7.7,27.6-14.1,42.3-19l-4.6-11c-2.5,1.2-4.9,1.5-7.6,1.4l3,11.2l22.8-11.1c6.3-3,1.8-12.6-4.6-11
			c-9.5,2.4-19,4.3-28.7,5.7l3.2,11.6c11.2-4.1,22.9-5.3,34.6-3l-1.4-11c-8.6,5.5-18.2,9.1-28.3,10.2c-7.6,0.9-7.7,12.8,0,12
			c6.8-0.7,13.7-1.1,20.5-1.1c3.4,0,13.4-1.4,15.5,2.2l0.9-7.3c-3.7,3.2-8.1,5.4-12.8,6.5c-2,0.5-4.2,0.8-6.3,0.7
			c-0.9,0-1.7-0.3-2.6-0.4c-1.3-0.2-1-1.2-0.9,0.1l-3,5.2c8.8-4.6,22-11.8,31.1-3.9v-8.5c-10.9,11-28.3,14.7-42.6,8.4v10.4
			c13.9-9.7,30.9-13,47.3-8.5l-1.4-11c-18.7,8.1-39.8,7.9-58.7,0.5c1.5,1.9,2.9,3.9,4.4,5.8c-0.1-1.3-0.1-2.7-0.2-4
			c-1.5,1.9-2.9,3.9-4.4,5.8c7-2.7,14.2-4.8,21.7-5.7c2-0.3,14.8-2.2,15.5,0.5l4.2-7.4c-17.5,6.3-36,7.5-54,3.1v11.6
			c9-3,18.1-3.2,27.2-0.4v-11.6c-21.3,4.5-43.2,2.7-63.6-4.9l2.6,10c2.4-2.8,6-4.1,9.4-2.4l1.4-11c-10.8,4.4-22.3,3.7-32.3-2.4
			l1.2,9.4c4.3-3.5,12-1.8,16.9-1c3.1,0.5,6.2,1.2,9.3,2c2.1,0.6,8.5,1.5,9.4,3.6l-0.6-4.6c-0.1,0.4-0.1,0.8-0.2,1.2l4.2-4.2
			c-7.5,1.5-14.9,1.2-22.2-0.9c1.5,1.9,2.9,3.9,4.4,5.8c0.2-1.3,0.3-2.6,0.5-3.8c-1.5,1.9-2.9,3.9-4.4,5.8
			c14.4-2.9,28.9-1.2,42.5,4.4v-11.6c-10.9,3.5-21.9,2.8-32.4-1.6l1.4,11c8.9-4.5,19.3-3.7,27.7,1.5c-0.9-2.3-1.8-4.5-2.8-6.8
			c-0.7,3-12.5,3.4-15.1,3.6c-6.9,0.6-13.9,0.5-20.8-0.6c-3.1-0.5-6.1-1.1-9.1-1.9c-0.8-0.2-1.6-0.4-2.4-0.7
			c-1.3-0.6-1.5,0.3-0.6,2.7c0.2,0.1,3.7-1.4,4.1-1.5c6.2-1.5,12.7-0.8,18.4,1.9v-10.4c-10.6,8.1-23.7,2.9-34.6-1.8v10.4
			c4-2.8,10.2-3.2,13.5,1.1l2.2-8.2c-4.9,3.1-10.7,3.9-16.1,1.4l3,5.2c-1,2-0.6,2.5,1.2,1.5c0.5-0.1,1.1-0.2,1.6-0.4
			c1.7-0.3,3.3-0.6,5-0.8c3.6-0.3,7.3-0.3,10.9,0.1c7.1,0.7,13.8,3,20,6.5v-10.4c-6.2,4.4-14.4,4.5-20.2-0.7l-4.2,10.2
			c8.1-1,17.4-0.5,24.7,3.6c0.1,0.1,2.7,1.6,2.7,1.7c-0.1,1-3,1.6-3.6,1.7c-4.2,0.9-8.3-0.1-12.2-1.7l-1.6,11.8
			c11.2-1.3,22.4-0.1,32.8,4.3l4.6-11c-44.7-15.1-77.3-58.6-127.5-58.4c-6.5,0-8.5,10.7-1.6,11.8l63.2,10l-2.6-10
			c-1.8,1.8-6.3-0.4-8.1-1.2l-3.2,11.6c3.6,0.9,6.8,2.5,9.1,5.5l6.8-8.8c-5.4-2-10.5-4.7-15.4-7.8c-4-2.6-8.8,0.9-9,5.2l-1,17.6
			l7.6-5.8c-4.1-0.6-6.3-2.7-7-6.8l-7.4,7.4c3.8,0.6,6.2,2.3,7.9,5.8c3,6.1,13.2,1.8,11-4.6c-2.2-6.3-4.9-12.3-8.1-18.1
			c-3-5.3-11.1-2.8-11.2,3c-0.2,8.9,0.2,17.8,1,26.7l10.2-4.2c-3-3.1-5.4-6.3-7.6-10l-10.4,6.1c2.4,3.5,4,6.9,5.1,11l8.8-6.8
			c-2.9-1.3-4.7-3-6.2-5.8l-9.4,7.3l15.5,12.8c6,4.9,13.5-2.5,8.5-8.5c-2.4-2.9-4.5-6-6.4-9.2l-8.2,8.2l13.9,9.5
			c5.6,3.8,12.2-4.8,7.3-9.4c-6.3-5.9-13.1-11.3-20.3-16.1l-6.1,10.4c11.6,6.5,24,11.6,36.9,15.1c5.6,1.5,10.4-5.9,5.8-10
			c-4.2-3.8-8-7.8-11.3-12.5l-2.2,8.2l9.1-5.6c5-3.1,3-11.2-3-11.2c-7.4,0-14.6-0.7-21.9-2.3l-1.6,11.8c35.1,0.4,70.5,0.6,105-7.3
			c6.4-1.5,5-9.5,0-11.6l-7.2-3V305c10.4-2.5,21-4.5,31.6-6c6.6-0.9,5.1-12.7-1.6-11.8c-8.6,1.1-16.8,2.9-25,5.7
			c-6.2,2.1-5.5,11.8,1.6,11.8h46l-1.6-11.8c-6.8,1.4-13.5,2-20.4,2l1.6,11.8c9.6-2.1,19.3-3.8,29.1-4.9c7.6-0.9,7.7-12.8,0-12
			l-32.8,3.3c-7.6,0.8-7.7,12.7,0,12l35.3-3.2l-1.6-11.8l-37.7,6.6c-6.7,1.2-5.1,12.1,1.6,11.8l37.4-1.7v-12
			c-8.8,0.7-17.5,0.9-26.3,0.4v12c1.1-0.3,2.3-0.2,3.4,0.1l1.6-11.8c-24.6,2.8-49.3,5.1-74,7.1v12c13.8-1.3,27.7-2,41.5-1.9v-12
			c-21.3,0.4-42.5,0.2-63.8-0.5v12c16.3-1.5,32.7-2.2,49-2.2v-12l-54.2,1.5v12c13.6-1.2,27.2-1.9,40.9-2.1v-12
			c-19.6,0.3-39.2-0.1-58.8-1.1v12c19.8-1.8,39.7-2.4,59.7-1.7v-12c-16.2-0.1-32.3-1-48.4-2.6v12c17.4-0.2,34.8,0.1,52.2,1v-12
			l-47.9-1.6v12l73.3-1.5c7.8-0.2,7.6-11.3,0-12l-120-11c-7.7-0.7-7.6,11.1,0,12l18.5,2.1v-12c-15.1,0.2-33.3-6.5-46.3,4.4
			c-6.6,5.5-5.2,13.1,1,18.1c7.9,6.4,16.5,12.3,24.7,18.4c5.5,4.1,12.2-4.8,7.3-9.4c-2.1-1.9-3.3-3.8-4.5-6.4l-8.2,8.2
			c7.5,5.5,15.2,10.7,23.1,15.6c6.7,4.2,12.1-5.9,6.1-10.4c-4.2-3.1-8-6.7-11.5-10.6l-7.3,9.4c9.9,7.1,17.9,16.3,23.9,26.9l5.2-9
			c-4-0.3-6.7-4-6.6-7.8l-9,5.2c12.5,7,23.6,15.8,33.1,26.4l5.8-10c-6.2-2.1-10.8-6.3-13.7-12.1l-8.2,8.2
			c11,4.9,21.3,11.1,30.6,18.8l5.8-10c-9.6-3.3-18.5-8.6-25.8-15.7l-5.8,10c17.3,3.2,32.8,11.3,45.1,23.9l5.8-10
			c-14.5-2.2-27.9-7.7-39.8-16.2c-6.3-4.5-12.3,5.9-6.1,10.4c15.2,10.9,32.6,22.3,52.2,19.8c7.5-1,7.9-11.5,0-12l-30.7-2v12
			c14-1.1,28-1.1,41.9,0.2v-12c-13.6,0.3-27.2-0.6-40.7-2.7l-1.6,11.8c18.1-1.4,36.2-0.9,54.1,1.9l1.6-11.8l-30.5,0.2
			c-6.5,0-8.5,10.6-1.6,11.8l52.6,9.3l1.6-11.8c-9.8,1.1-19.7,1.2-29.5-0.2l-1.6,11.8c11.2-1.4,22.4-1.9,33.7-1.3v-12
			c-13.7,0.7-27.4,0.5-41.1-0.5l1.6,11.8c15.6-2.2,31.4-2.6,47-1.3v-12c-13.4,1-26.8,0.7-40.2-1.1l1.6,11.8c12.5-3,25-5.2,37.8-6.4
			c6.4-0.6,8.5-9.9,1.6-11.8l-11.5-3.1v11.6c10.3-1.7,20.8-2.2,31.2-1.6v-12c-14.3,1.3-28.7,1.1-43-0.6l1.6,11.8
			c12.3-2.8,24.6-2.1,36.5,1.9v-11.6c-4.3,0.9-8.6,0.9-12.8-0.3c-0.8-0.2-1.6-0.4-2.3-0.7c-1.9-0.9-1.7,0.5,0.5,4.1
			c0.7,0.2,4.6-3.5,5.3-4l20.8-15.4c3.7-2.7,4.2-9.9-1.4-11l-12.1-2.3v11.6c10.2-3.1,20.5-4.4,31.1-4.1l-1.6-11.8
			c-10.3,4.3-20.8,7.7-31.7,10.1c-6.9,1.5-4.9,11.4,1.6,11.8l27.9,1.5l-1.6-11.8c-16.3,4.7-32.9,6.8-49.8,6.3l1.6,11.8
			c12.5-4.9,25.5-7.7,39-8l-1.6-11.8c-12.8,2.9-25.8,5.4-38.7,7.6l3.2,11.6c10.5-4.3,21.3-7.3,32.6-8.8l-4.6-11
			c-7.8,5.5-16.1,10.2-25,13.8c-7.2,2.9-4.5,12.7,3.2,11.6c5.6-0.8,11.3-1.4,16.9-1.7c2.5-0.1,5-0.3,7.4-0.3c0.9,0,1.7,0.2,2.6,0.2
			c1,0,1.1,0.7,0.9,0.1c0.9-2.3,1.8-4.5,2.8-6.8l-25.6,13.9c-6.4,3.4-1.7,12,4.6,11l42.3-7.2l-3.2-11.6c-12.5,3.9-25.3,7-38.2,9.3
			l4.6,11c10-4.3,20.3-7.9,30.7-10.8c7.6-2.1,4.3-12.9-3.2-11.6c-9.4,1.6-18.6,3.7-27.7,6.4c-7.4,2.1-4.3,13.6,3.2,11.6
			c11.4-3.1,22.9-5.1,34.6-5.8l-1.6-11.8c-8.4,3.1-17,5.4-25.8,6.5l3,11.2c8.7-4.8,18.1-6.8,28-6.4l-1.6-11.8
			c-11.9,4.4-24.4,5.6-36.8,3.1l1.4,11c7.3-4,14.8-7.2,22.8-9.5c6.3-1.9,15.9-5.6,22-1.8v-10.4c-15.8,8.6-34.1,9.7-51,3.6l3.6,8.8
			c3.2-4.8,8.1-8.1,13.7-9.2c0.9-0.2,6.6-1,6.9-0.2c0.8,1.7-3.9,4.4-5,5.1c-5.1,3.2-11.1,5.8-17.1,6.5c-3.2,0.4-11.4,0.2-7.7-5
			c3.5-5,12.8-4.4,18.1-4.5c6.6-0.2,13.6-0.1,19.9-2.4c11-3.9,19.2-13.5,17.3-25.5l-10,5.8l9.8,11.4c1,1.2,2.1,2.4,3.1,3.7
			c0.8-1.6,0.6-1.8-0.6-0.8c-0.7,0.3-1.3,0.5-2,0.6c-9,2.2-19.2,1.6-28.2,0.5l3,11.2c9.3-5.7,20-7.8,30.7-5.5l-2.6-10
			c-4,4.1-9.4,5.5-14.9,3.9l1.4,11c10.1-4.5,20.9-6.5,31.9-6.3l-3-11.2c-4.9,2.5-10.2,4.1-15.8,4.5c-2.2,0.2-4.7,0.3-6.9-0.2
			c-0.4-0.1-0.7-0.2-1-0.3c-0.6-0.2-0.5-0.3,0.1-0.1c-0.1,0.5,2.5-2.3,2.5-2.2c6.3-6.9,14.7-11,23.8-12.5l-5.8-10
			c-6.5,7.6-14.2,13.5-23.2,17.6l6.1,10.4c12-8.4,25.6-14,40.1-15.9l-4.2-10.2c-6.1,5.1-14.2,7.2-22,5.7l2.6,10c3.6-3.9,8-6,13.3-6
			l-4.2-10.2c-1.5,1.9-3.2,3.6-5.5,4.7c-1.2,0.6-2.7,1-4,1.2c-0.9,0.1-2.8-0.4-3.5-0.1c-1.1-0.4-1,0.2,0.5,1.7
			c0.4,2.1,1.1,2.4,2.3,0.9c1.1-0.2,2.4-1.3,3.5-1.7c2.8-1,5.5-1.1,8.4-0.9c-1.9-1.5-3.9-2.9-5.8-4.4c1.2-2.5,0.9-2.9-0.7-1.4
			c-0.5,0.3-0.9,0.6-1.4,0.9c-1.4,0.8-2.9,1.6-4.4,2.3c-3,1.4-6.3,2.4-9.5,3.1c-6.5,1.5-13.3,1.5-19.9,0.1l2.6,10
			c5.9-6.2,14.7-6.6,22.8-6.3c1.3,0.1,4.5,0.9,5.7,0.3c1.2,0.2,1.1-0.5-0.3-2.1c-0.1-2.4-0.9-2.8-2.2-1.2c-0.9,0.3-1.8,1.2-2.7,1.7
			c-4.3,2.4-9,3.4-13.8,3.4l4.2,10.2c7.3-7.7,16.9-12.2,27.5-12.6l-4.2-10.2c-5.2,5-11.4,8.4-18.5,9.8c-1.6,0.3-3.2,0.6-4.8,0.6
			c0.2,0-3.1-0.2-2.8-0.5c-0.3,2.7,0.3,3.4,1.6,2.3l1.2-0.6c1.8-0.9,3.6-1.7,5.5-2.2c1.8-0.5,7.3-1.4,7.7,1.9
			c0.2,1.8-4.6,4.1-5.8,4.7c-6.4,3.3-13.7,4.3-20.8,2.9l1.4,11c15.2-8.3,32.1-11.7,49.3-10.1l-3-11.2c-7.7,4.7-16.3,7.6-25.4,8.2
			c-2.2,0.1-4.5,0.1-6.7,0c-1.1-0.1-2.2-0.1-3.3-0.3c-1.8-0.7-2-0.1-0.5,1.7c0.1,0,4.2-3.5,4.7-3.7c1.8-1.1,3.7-2,5.7-2.6
			s4-1.1,6.1-1.3c1-0.1,2.1-0.1,3.1-0.1c1.7,0.5,1.6-0.6-0.5-3.5c-0.5-0.1-4.4,3.1-5.2,3.5c-1.9,0.9-3.8,1.6-5.9,2.1
			c-2,0.5-4.1,0.7-6.1,0.6c-0.8,0-1.6,0-2.4-0.2c-0.9-0.5-1.2-0.3-0.8,0.7c1.1-2.9,7.4-3.9,10-4c1.8,0,3.5,0.2,5.2,0.7
			c1,0.3,1.9,0.7,2.8,1.2c0.9-2.6,0.7-3.3-0.7-2.2c-1.6-0.1-4.4,1.3-6,1.6c-2.3,0.4-4.7,0.7-7.1,0.7c-4,0.1-24.5-0.8-23.2-7.1
			c0.8-3.7,7.5-5.5,10.5-6.5c4.7-1.6,9.6-2.7,14.6-3.3c7.3-0.9,19.5-2.5,25,3.7l2.6-10c-19.2,4.8-39,4.1-57.9-1.8l2.6,10
			c6.1-4.8,14.2-6.9,21.9-6.3c1.9,0.2,3.8,0.5,5.7,1.1c0.6,0.2,4.9,2.3,5.1,2.2c0.4-1.5,0.7-2.9,1.1-4.4c-0.6,0.1-1.2,0.3-1.7,0.4
			c-1.1-0.1-2.4,0.5-3.5,0.6c-2.7,0.4-5.4,0.5-8.2,0.5c-4,0-8.7,0-12.3-1.7c-3.9-1.8-1.5-2.9,1.5-4.3c8.1-3.6,17.5-2.7,25.1,1.6
			l-2.2-8.2c-3.3,5.8-12.1,5.8-18,5.9c-7.8,0-15.6-1.3-23-3.9c-1-0.4-4.8-2.7-5.7-2.5c-0.5-0.6-0.7-0.4-0.4,0.6
			c-0.2,1.2,0.1,1.3,0.9,0.3c1.3,0,3.8-1.9,5.1-2.4c1.9-0.7,3.7-1.3,5.7-1.8c7.4-2,15.4-2.3,22.9-0.9c3.4,0.7,7.3,1.4,10.4,3.2
			c3.6,2.1,3.2,3.8-0.8,4.2c-0.9,0.1-2.3,0.3-3.2-0.2c-0.7-0.4-0.9,0.4,0.3-0.5c2.5-2,5.7-2.5,8.7-3.1c7.5-1.4,15.9-1.5,23.3,0.6
			c2.4,0.7,5.9,1.9,6.9,4.5c0.5,1.3,0.6,3.6-1,4.1l4.6,11c4.7-3,10.6-6.4,16.2-7.1c0.5-0.1,1.8,0.1,2-0.1c1.4,0.3,1.1-0.8-0.9-3.4
			c-0.4,0.2-0.8,0.5-1.2,0.7c-2.6,0.2-4.6,2.4-7.5,2.2c-2.2-0.2-2-0.9-3.1-2.2c-4-5.1-6.5-1.7-10,0.1c-4.1,2.1-9.9,3.5-14.3,1.5
			c-0.9-0.4-1.4-1-2.2-1.5c-0.5,1.2-0.4,1.5,0.4,1.1c0.7-0.2,1.5-0.4,2.3-0.6c2.8-0.7,5.7-0.9,8.6-0.9c5.4,0,11,0.9,15.9,3.2
			c7,3.1-2.8,6.2-3.6,4.9c-0.7-1,1.1-2.4,1.9-2.8c2.6-1.2,6.2,0.1,8.6,1l-1.4-11c-6.3,4.1-13.8,5.8-21.1,3.7c-1-0.3-1.9-0.6-2.9-1
			c-0.5,2-0.2,2.2,0.9,0.7c1.3-0.4,2.8-1.8,4.1-2.4c3.7-1.8,7.8-2.9,11.9-3.1c1.1,0,4.5,0.7,5.3,0.2c0.4-4.3-0.6-5.8-3.1-4.6
			c-1,0.2-1.9,0.2-2.9,0.1c-0.8,0-1.6-0.2-2.3-0.5c-1.7,3.7-1.6,5,0.4,4.1c1.3,0.2,3.8-1.1,5.2-1.4c7-1.7,14.3-2.6,20.4,2v-10.4
			c-12.1,5.7-27.1,3.6-37.1-5.2l-1.2,9.4c2.8-1.4,6.1-1.7,9.1-0.7c0.7,0.2,1.3,0.5,2,0.9c0.7,0.6,1.2,0.2,1.4-1.3
			c-0.3-0.1-2.2,0.7-2.7,0.7c-3.1,0.3-6.3-0.3-9.2-1.2c-1.7-0.5-3.3-1.1-4.8-1.9c-1.2-0.6-3-2.4-4.3-2.6c-1-1.1-1.7-0.5-2.1,1.7
			c0.5-0.2,1.1-0.4,1.6-0.6c1.5,0,3.4-1,4.9-1.4c3.4-0.8,6.7-1.2,10.2-1.2c6.9-0.1,13.5,1.3,20,3.7l1.6-11.8
			c-13.6,1.5-27.1,1.4-40.6-0.4v12c18.5,1.6,37.1,2.3,55.7,2.3c5.3,0,7.8-6.5,4.2-10.2c-8.7-9.1-20.3-14.2-32.9-14.7
			c-7.9-0.3-7.4,11.1,0,12c10.1,1.3,19.9,3.8,29.5,7.2c6.4,2.3,10.6-7.8,4.6-11c-18-9.4-38.3-13.5-58.5-11.3c-7.5,0.8-7.8,12.4,0,12
			c13.1-0.7,25.7,2.2,37.2,8.8l3-11.2l-16.8-0.9c-0.8,0-4.9-1-3.2,0.5l1.5,5.8c0.1-0.2,0.1-0.4,0.2-0.6l-4.2,4.2
			c0.2-0.1,0.4-0.1,0.6-0.2l-5.8-1.5c0.1,0.1,0.2,0.3,0.3,0.4l2.6-10c-14.8,2.2-29.7,3.6-44.6,4.2l1.6,11.8
			c11.6-3.9,23.3-7.2,35.2-9.9c6.5-1.5,5.2-12.3-1.6-11.8l-53.8,4.3l1.6,11.8c12.4-3.4,24.9-5.3,37.7-5.5l-1.6-11.8
			c-16.2,4.6-32.7,7.6-49.5,9l1.6,11.8c12.2-3,24.6-4.7,37.2-5.1l-1.6-11.8c-18.6,5.1-37.5,8.7-56.7,10.7l1.6,11.8
			c17.5-2.9,35-5.6,52.7-4.4l-1.6-11.8c-17.7,4.5-34.5,12-49.6,22.4C223.4,298.1,229.4,308.5,235.8,304.1L235.8,304.1L235.8,304.1z"
			/>
	</g>
	<path class="st6" d="M254.2,237.8L254.2,237.8c-41.3,9.9-73,37.3-112.7,38c-56.8,0.9-113.7-37.4-172.7,6.7c0.2,0.4,0.5,0.8,0.7,1.2
		c63.7-26.7,118,15.9,178,12.7c38.8-2.1,72.1-30,117.7-41.3c58.4-14.4,109.1-4.1,141,14.6l0.1-0.1c0.1-1.4,0.4-2.6,0.6-3.9
		C377.8,233.8,315.4,223.1,254.2,237.8z"/>
	<path class="st7" d="M207.8,0.2C147.8-2,96.1,19.1,54.7,62.7C18.3,101.1,0.1,147.4,0,200.4C-0.2,310.2,89.4,400.6,199.8,400
		c110.7,0.7,201.1-89.8,200.2-201.1C399.1,87.3,311,3.9,207.8,0.2z M200.1,381.2c-99,0-182.2-80.6-180.4-184.7
		C21.4,103.1,98.5,16.1,209,20.2c88.8,3.2,174.5,78.3,171.9,185.9C378.6,300.3,300.7,381.2,200.1,381.2L200.1,381.2z"/>
	<path class="st8" d="M56,188.6c-0.6,0.2-1.2,0.5-1.7,0.5c-3.9,0.1-7.7-0.1-11.4-1.7c-2.1-0.9-2.7-2.8-3.7-4.4
		c-0.5-0.8-0.7-1.7-0.9-2.7c-0.5-2.4-0.5-4.5,1.3-6.7c2.8-3.6,5.3-7.4,7.9-11.2l6.9-9.8c2.1-2.9,4.1-5.8,6.1-8.8
		c0.5-0.7,1.1-1,2-0.6c1.3,0.7,2.5,0.4,4-0.1c5.1-1.8,10.4-2,15.7-2c4.1,0,7.8,1.2,11.4,2.6c3.5,1.3,7.1,3.1,9.1,6.7
		c0.9,1.6,1.2,3.1,1,4.8c-0.1,1.5-0.1,3-0.5,4.4c-0.5,1.8-1.3,3.6-2.1,5.3c-1,2.1-2,4.3-3.4,6.1c-1.8,2.5-4,4.6-5.9,7
		c-0.9,1.2-1.6,2.5-2.2,3.8c-0.4,0.9,0.4,1.4,1.3,1.3c1.6-0.1,2.7-1,3.7-2.2c1.2-1.6,2.5-3.1,3.6-4.7c1.3-1.8,2.4-3.7,3.5-5.6
		c1.4-2.4,2.7-4.9,3.9-7.4c0.5-1,0.6-2.1,0.9-3.2s0.6-2.2,0.8-3.3c0.2-0.9,0.4-1.7,0.3-2.6c-0.5-6.1-4.4-9.7-9.6-12.3
		c-0.3-0.1-0.6-0.2-0.8-0.3c-0.7-0.4-2-0.4-1.7-1.7c0.2-1,1.8-1.8,2.9-1.6c3,0.7,5.8,1.9,8.5,3.4c3.5,1.9,5.2,4.8,6.5,8.3
		c1.9,4.9,0.8,9.4-1.2,13.8c-1.3,2.9-2.8,5.6-4.1,8.5c-0.1,0.3,0,0.7,0,1.1c0.4-0.1,0.8-0.2,1.1-0.4c2.2-1.8,4.1-4,5.6-6.4
		c2.1-3.5,4-7.2,4.2-11.2c0.2-5.6-1.9-10.5-6.3-14.5c-2.4-2.2-5.1-3.8-8.1-5.1c-1.6-0.7-1.6-1.1-0.1-2c3.2-1.9,6.4-4,9.7-5.6
		c4.3-2.1,8.7-3.9,13.1-5.7c3.8-1.6,7.6-3.2,11.5-4.4c4.8-1.5,9.6-2.9,14.5-3.9c7.1-1.5,14.2-2.8,21.4-3.6
		c5.8-0.6,11.8-0.5,17.7-0.4c13.8,0.4,27.4,2.1,40.8,4.8c4.6,0.9,9.1,2.3,13.6,3.6c2.7,0.7,5.4,1.6,8.1,2.5c1.6,0.5,3.2,1.2,4.8,1.8
		c5.5,2.1,10.7,4.8,15.9,7.5c2.9,1.5,5.8,3.2,8.7,4.8l8.6,4.7c2.1,1.2,4.1,2.7,6.2,4l7,4.7c2.4,1.7,4.7,3.5,7,5.2
		c0.5,0.4,1,0.7,1.6,0.8c1,0.3,2.3,0.4,2.6-0.7c0.2-0.6-0.4-1.7-0.9-2.3c-2.5-2.9-5.9-4.7-9-6.9c-2.4-1.7-4.9-3.4-7.5-5l-7.5-4.7
		l-6-3.6c-3.5-2-6.9-4-10.5-5.8c-4.6-2.3-9.3-4.4-14-6.5c-5-2.2-10.1-4.3-15.4-5.8c-9-2.5-18.2-4.2-27.4-5.7
		c-9.3-1.4-18.7-2-28.1-2.2c-11.5-0.3-22.9,0.7-34.2,2.8c-4.7,0.9-9.4,2-14,3.3c-3.7,1.1-7.4,2.4-10.9,3.8c-4.8,1.9-9.5,3.8-14.1,6
		c-4.5,2.1-8.9,4.4-13.2,6.8c-4.2,2.4-8.5,4.6-12.2,7.6c-2.6,2.1-4.8,2.5-7.8,1.8c-5-1.1-10.1-0.7-15.1,0.3
		c-0.7,0.1-1.4,0.6-2.2,0.7c-0.5,0.1-1-0.2-1.4-0.3c0.1-0.4,0.2-0.9,0.5-1.2l11.7-11.7c6.2-5.7,12.6-11.1,19.6-15.9
		c2.4-1.7,4.8-3.4,7.1-5.2c0.4-0.3,0.9-0.8,1.1-1.2c1.4-3.8,4.3-6.7,6.6-10c2-2.9,4.2-5.8,6.4-8.6l9.2-12.2l4.2-5.5
		c0.8-1.2,1.9-1.7,3.3-1.5c2.7,0.5,5.4,1.2,8.1,1.8c1.7,0.4,3.5,0.8,5.1,1.3c6.8,2.1,12.8,5.6,18.7,9.4c0.9,0.6,1.9,1,2.8,1.7
		c0.5,0.4,0.9,1.1,0.8,1.6c0,0.4-0.8,0.8-1.4,1c-4.1,1.4-8.1,2.9-11.6,5.3l-3.7,2.4c-0.4,0.3-0.9,0.6-1.1,1.1
		c-0.3,0.8-0.6,1.8-0.3,2.5c0.2,0.4,1.5,0.6,2.3,0.5c3.7-0.5,7.4-1.5,11.2-1.8c5-0.5,10-0.7,15.1-0.7c7.2,0,14.4,0.1,21.6,0.7
		c5.8,0.5,11.5,1.4,17.2,2.6c5.8,1.2,11.4,2.9,17.1,4.4c3.9,1,7.7,2.4,11.7,2.8c5.3,0.5,10.7,0.3,16.1,0.2c4.4-0.1,8.8-0.5,13.2-0.8
		c1.2-0.1,1.9,0.5,2.1,1.6c0.4,2.2,0.7,4.3,1,6.5c0.1,0.9-0.5,1.2-1.2,1.4c-1,0.3-2.1,0.3-3,0.8c-0.7,0.4-1.6,1.1-1.7,1.8
		s0.6,1.7,1.2,2.1c1.9,1.1,4.1,1.8,6.1,2.8c4.1,2.1,8.1,4.1,12.1,6.4c1.4,0.8,2.6,2.1,3.7,3.3c2.6,2.7,5,5.5,7.7,8.1
		c1.4,1.3,3.2,2.3,4.9,3.4c3.6,2.1,7.5,1.9,11.5,2c6.2,0.3,12.4,0.9,18.6,1.4c3.7,0.3,6.8,2.1,10,3.8c5.1,2.6,9.1,6.4,12.6,10.8
		c0.2,0.3,0.5,0.6,0.6,0.9c1.1,1.8,0.5,3.3-1.4,4.3c-1.7,0.9-3.3,1.9-4.7,3.1c-3.4,2.7-6.4,6.2-11,7.1l-8.2,1.6
		c-2.8,0.5-3.9,1.6-3.7,4.3c0.3,3.9-1.4,7.3-2.8,10.8c-1.4,3.7-3.5,6.9-6,10c-2.4,2.9-4.9,5.6-7.5,8.3c-0.9,1-1.7,0.9-2.1-0.3
		c-1.2-3.7-3.6-6.7-6.2-9.5c-3-3.3-5-7-6.7-11c-2.2-5.1-3.3-10.5-3.5-16.1c-0.1-3.2,0.3-6.3,0.1-9.5c-0.2-4.2-1.1-8.2-4.6-11.1
		l-6.1-5.1c-0.4-0.4-1-0.6-1.5-0.8c-1.6-0.5-2.8,0.3-2.7,1.9c0.1,1,0.5,2,1,3c0.6,1.2,1.4,2.3,2,3.6s0.2,2-1.3,2.1
		c-1.2,0.1-2.5-0.1-3.7-0.1c-3.6-0.1-7.2-0.3-10.8-0.2c-1.6,0-3-0.2-4.3-1.2c-2-1.5-3.7-3.1-5.1-5.2c-1.6-2.4-3.5-4.6-5.2-6.9
		c-1-1.4-1.8-2.8-2.7-4.3c-0.6-1-1.1-2-1.8-2.9c-1.2-1.6-2.7-2.6-4.9-2.5l-9.2,0.4l-12.7,0.2c-1.3,0-2-0.8-2.3-1.9
		c-0.3-0.9-0.4-1.8-1.7-1.7s-1.5,1-1.6,2c-1.1,6.5-3,12.8-6.1,18.7c-0.7,1.3-1.3,2.6-2.3,3.7c-0.5,0.6-1.6,1.1-2.5,1.1
		c-1.3,0-2.6-0.3-3.8-0.8c-2.4-0.9-4.8-1.9-7.1-3c-3.8-1.9-7.6-3.8-10.5-7c-0.1-0.1-0.1-0.2-0.2-0.2c-1.7-0.7-3.2-1.5-3.9-3.3
		c-0.1-0.2-1.2,0-1.9,0.1c0.1,0.5,0.3,1.1,0.5,1.6c0.1,0.2,0.4,0.2,0.6,0.3c1.8,0.8,2,1.9,0.4,3c-2.8,2-5.7,3.9-8.6,5.8l-5.7,3.8
		c-2.4,1.6-4.8,3.2-7.3,4.7c-0.5,0.3-1.2,0.5-1.9,0.7c-0.9,0.3-1.6,0-2.1-0.9c-0.2-0.5-0.8-0.8-1.3-1.1c-0.3,0.5-0.7,1.1-0.7,1.6
		c-0.1,2-0.5,3.8-1.7,5.4c-0.4,0.5-0.5,1.2-0.7,1.8c-0.2,0.5-0.2,1-0.4,1.5l-4,12.9c-0.5,1.5-1.4,2-2.8,1.4
		c-4.2-1.7-8.4-3.3-12.4-5.1c-3-1.3-5.9-2.9-8.7-4.5c-0.6-0.3-0.9-1-1.4-1.4c-0.2-0.2-0.6-0.3-0.9-0.2c-0.1,0-0.3,0.4-0.3,0.7
		c-0.1,1.9-0.4,2.2-2.2,2.9l-11.4,4.5c-1.8,0.7-3.7,1.4-5.4,2.3c-3.7,2-7.8,2.7-11.8,3.8c-2.7,0.7-5.5,1.2-8.3,1.7
		c-1.4,0.2-2.5,0.8-3.3,1.9c-1.3,1.7-2.6,3.5-4.2,4.9c-1.6,1.5-3.6,2.8-5.4,4.1l-8.5,5.7c-1.7,1.2-3.4,1.9-5.5,1.9
		c-1.3,0-2.4-0.3-3.1-1.5c-0.2-0.4-0.3-0.9-0.2-1.3c0.1-0.2,0.7-0.2,1.1-0.3h0.3c2.5,1,4.4,0.1,6.1-1.6c3.6-3.6,7.3-7.1,10.6-11
		c1.6-1.9,2.5-4.4,3.5-6.8c0.5-1.2-0.3-2.7-1.5-3c-0.4-0.1-1.1,0.1-1.4,0.4c-0.6,0.6-1.1,1.4-1.5,2.2c-1.5,3.2-3.6,6.1-6.2,8.5
		c-2.2,2.1-4.6,4.1-6.9,6.1c-0.5,0.4-1.2,0.6-1.8,0.6c-0.5,0-1.3-0.2-1.5-0.6c-0.2-0.3,0.1-1,0.4-1.5c1.4-2.2,2.9-4.3,4.3-6.4
		c0.7-1.1,1.8-1.2,2.9-1c1.7,0.2,4.1-0.8,4.6-2.3c0.3-0.9,0.2-2-0.1-2.9c-0.3-1-1.4-1.3-2.5-1.2c-1,0.1-2.1,0.3-3.1,0.5
		c-3.2,0.6-6.3,0.2-9.3-0.9c-0.7-0.3-1.5-0.5-2.2-0.6c-1.1-0.1-2.2,0.1-2.6,1.3c-0.4,1,0.3,2.4,1.5,2.9c1.6,0.7,3.2,1.2,4.8,1.9
		c0.5,0.2,1,0.5,1.5,0.7C56,188.3,56,188.5,56,188.6L56,188.6z M75.8,159.7c-0.1-2.2-0.1-2.2-1.7-4.5c-1.9-2.6-5.5-3.5-8.3-1.9
		c-1,0.6-1.7,0.2-2-0.8c-0.1-0.6,0-1.4,0.1-2c0.1-0.7,0.4-1.4,0.4-2c0-0.4-0.4-0.9-0.8-1c-0.3-0.1-0.9,0.1-1.1,0.3
		c-0.8,0.9-1.7,1.7-2.1,2.8c-0.9,2.3-1.6,4.8-2.4,7.1c-0.7,2.1-1.2,4.4-2.4,6.2c-1.8,2.8-4.1,5.4-7,7.4c-0.4,0.3-0.7,1.1-0.7,1.6
		c0.1,0.3,1,0.8,1.4,0.7c1.2-0.2,2.5-0.4,3.6-0.9c3.7-1.4,7.4-2.4,11.5-1c1.7,0.6,3.4,0.9,5.1,1.3c3.9,0.8,7,3,10.1,5.3
		c0.4,0.3,1.1,0.3,1.7,0.4c0.1-0.6,0.3-1.2,0.2-1.7c-0.5-1.5-1.7-2.5-3.2-3.3c-2.4-1.2-4.7-2.6-7.3-3.5c-2-0.7-4.3-0.8-6.5-1.1
		c-0.4-0.1-0.8-0.1-1.1-0.2c-0.9-0.3-1.1-0.8-0.3-1.4c1.3-1,2.8-1.7,4.5-1.2C72.2,167.6,76.1,163.2,75.8,159.7L75.8,159.7z
		 M95.7,158c-0.3-0.5-0.7-1.6-1.5-2.1c-1-0.7-2.2,0.1-2.7,0.9c-0.9,1.5-1.7,3.2-2.1,4.9c-0.3,1.6,1.7,2.7,3,1.8
		C94.3,162.4,95.4,160.7,95.7,158L95.7,158z M68.2,156.5c2.1,0.1,3.5,1.5,3.4,3.7c0,1.2-1.9,2.7-3.4,2.7c-1.7,0-3.6-1.7-3.6-3.2
		C64.6,158,66.4,156.4,68.2,156.5z"/>
</g>
</svg>
