<svg xmlns="http://www.w3.org/2000/svg" viewBox="0 0 400 400"><circle cx="200" cy="200" r="191.5" fill="#98b797"/><path d="M200 9c25.8 0 50.8 5 74.3 15 22.7 9.6 43.2 23.4 60.7 40.9s31.3 38 40.9 60.7c10 23.5 15 48.6 15 74.3s-5 50.8-15 74.3c-9.6 22.7-23.4 43.2-40.9 60.7s-38 31.3-60.7 40.9c-23.5 10-48.6 15-74.3 15s-50.8-5-74.3-15c-22.7-9.6-43.2-23.4-60.7-40.9s-31.3-38-40.9-60.7C14 250.8 9 225.8 9 200s5-50.8 15-74.3C33.6 103 47.4 82.5 64.9 65s38-31.3 60.7-40.9C149.2 14 174.2 9 200 9m0-1C94 8 8 94 8 200s86 192 192 192 192-86 192-192S306 8 200 8h0z"/><g fill="#f1ce56"><path d="M207.8.2C147.8-2 96.1 19.1 54.7 62.7 18.3 101.1.1 147.4 0 200.4-.2 310.2 89.4 400.6 199.8 400c110.7.7 201.1-89.8 200.2-201.1C399.1 87.3 311 3.9 207.8.2zm-7.7 381c-99 0-182.2-80.6-180.4-184.7C21.4 103.1 98.5 16.1 209 20.2c88.8 3.2 174.5 78.3 171.9 185.9-2.3 94.2-80.2 175.1-180.8 175.1z"/><g fill-rule="evenodd"><path d="M272.3 324.3c-.1-1 .2-1.8 1.3-2.1 1.4-.3 1.2-1 .5-1.8-.4-.5-.8-.9-1.3-1.3L263 311c-3.2-2.7-6.7-5.3-9.5-8.4-3.3-3.6-3.8-8-2.1-12.5 2.2-5.8 5.5-10.9 10.6-14.8 4.8-3.8 10-6.5 16.4-6h.9c3.8.1 7 1.7 9.9 3.9 5 3.9 7.7 9.3 10.1 14.8 1.7 3.7 2.9 7.6 4.4 11.5.3.8.8 1.5 1.4 2.2.2.3.9.4 1.3.3 1.1-.2 2.1-.6 3.2-.9 1.9-.4 3.7-1 5.3-2.3 5.5-4.3 7.9-10.5 10.4-16.5 1.2-2.8 2.4-5.7 2.5-8.8 0-.4.3-.7.4-1.1.3-1.2.9-2.3.9-3.5.2-7.2.8-14.3-1.3-21.4-.8-2.8-.9-5.7-2-8.5s-.3-4.9 2.1-7c3.4-2.8 6.6-5.8 9.5-9.1 4.9-5.6 9.3-11.5 11.7-18.7 1.3-3.9 2-7.8 2.7-11.8 1.3-7.5 0-14.9-3.9-21.6-.5-.8-.8-1.8.2-2.4s1.9-.2 2.6.6c.5.5.9 1 1.5 1.6.3-2.1-.7-4.5-2.3-5.1-.7-.3-1.7-.2-2.3.1-1.3.7-2.5 1.6-3.6 2.6l-14.6 13.5c-3.1 2.8-6.8 4.8-10.9 5.8-5 1.2-9.9.9-14.6-1.5-2.6-1.4-4.6-3.3-6.4-5.4-3.9-4.9-7-10.1-6.7-16.7 0-.9.1-1.7 0-2.6-.2-3.1.5-6 2-8.7 2.1-3.9 5.2-6.7 9.2-8.7 4.9-2.5 10.5-2.2 15.7-3.4 3.3-.8 6.8-.4 10.2-.4 2.8 0 5.4-.3 7.9-1.8 1.8-1.1 2.9-2.4 3-4.6.1-3.4-1.6-6.3-2.9-9.3-.5-1.2-1.4-2.3-2.2-3.5-.2.1-.3.2-.5.3 0 .4.1.7.1 1.1.2 3.9.6 7.7.6 11.6 0 1.1-.8 2.2-1.5 3.2-.3.4-1.3.7-1.8.5s-1-1.1-1-1.7c-.1-1 .1-2.1.4-3.1.9-2.9 1.2-5.7-.3-8.5-.2-.4-.2-.9-.3-1.3-.2-2.7-1.4-5-3.1-7-3-3.7-6.9-6.6-11-9.2-3.6-2.4-7.6-3.6-11.6-4.8-3.5-1.1-7-2.8-10.9-2.3-1.3.2-2.7-.4-4-.5l-8.1-.9c-1-.1-2.1 0-3.1-.2-1.2-.1-1.9-.9-2.2-2-1.2-3.7-2.3-7.5-3.8-11.1-2.3-5.4-6.1-9.7-10.1-13.9-4.4-4.6-10.1-7.6-16-10.3-1.8-.8-3.7-1.6-5.6-2.2-1.7-.5-3.4-.9-5.1-1.1-1.1-.2-2.3-.3-3.3 0-3.1.7-5.3 2.6-6.2 5.8-.4 1.4-1.1 2.7-2.6 3.5-.3.1-.6.6-.5.9.2 2.2.4 4.4.9 6.6.9 3.6 2 7.1 2.9 10.7.3 1.4.2 2.9.5 4.4.6 4.2-.9 7.8-3.5 10.9-3.8 4.5-9.2 6.2-14.9 6.9-3.2.4-6.5.1-9.8.1-.9 0-1.8-.1-2.6-.4-2.5-.8-5-1.8-7.6-2.7-4.3-1.5-7.6-4.1-10.1-7.8-2.8-4.1-3.7-8.4-1.9-13.2 1.2-3.2 2-6.6 3.1-9.8.9-2.7 1.5-5.6 2.7-8.2 1.1-2.3 1.3-4.6 1-6.9-.1-1-.9-2.1-1.7-2.7-2.4-1.6-5.2-1.2-8-.7-.4.1-.9.4-1.1.8-1.5 2.1-3.6 2.9-6.1 3.1-.5 0-1 .2-1.5.4-4.3 1.8-8.8 3.2-13 5.4-3.7 1.9-7.3 4.2-10.3 7-5.3 4.8-9.4 10.6-13.1 16.7-1.6 2.6-2.7 5.4-4.3 8-.9 1.5-2.2 2.9-3.6 3.8-1.9 1.1-4.1 1.5-6.2 2.2s-4.2 1.3-6.3 2.1l-8.4 3.3c-1.8.7-3.6 1.3-5.3 2.2-3.5 1.8-6.9 3.7-10.3 5.5-4.3 2.3-7.9 5.4-10.8 9.2-1 1.3-1.9 2.8-2.5 4.3-1 2.7-1.6 5.5-2.5 8.2-.2.5-1 1.3-1.4 1.3-.6 0-1.4-.7-1.7-1.2s-.2-1.3-.1-1.9c.8-2.7 1.5-5.3 2.5-7.9 1.9-4.6 5.2-8.4 9.2-11.2 4.2-3 9-5.3 13.5-7.9 1.5-.8 3.2-1.5 4.8-2.2 2.7-1.1 5.4-2.3 8.1-3.3 2.3-.9 4.6-1.7 7-2.5 2.4-.9 4.7-1.9 7.1-2.6 1.7-.4 2.7-1.3 3.5-2.7l4.8-8.3c4.1-6.9 9-13.2 15.1-18.6 2.2-1.9 4.7-3.5 7-5.2.5-.4 1-.8 1.5-1.3-.1-.1-.2-.3-.3-.4-.5.2-1.1.4-1.6.6l-2.1.9-11.7 4.3c-1.5.6-3.2 1-4.6 1.7-2.4 1.2-4.8 2.4-7 3.8-6.9 4.4-13.9 8.7-20.4 13.5-8.2 6-15.4 13.2-22.1 20.8-5.3 6-10 12.5-13.7 19.6-1.6 3-3.1 6.1-2.8 9.8.3 3.1 1.8 5.1 4.8 6.4 4 1.7 8.3 2.1 12.5 2.8 4.7.9 9.7.9 14.4 2.3 2.1.6 4.4 1.3 6.2 2.6 5.3 3.9 8.1 9.2 8.5 15.7.1 1.3-.2 2.6-.2 3.9 0 3.8-1.2 7.3-3.1 10.5-1.4 2.3-3.2 4.4-5.1 6.3-1.4 1.4-3.2 2.7-5.1 3.3-3.7 1.2-7.5 2.2-11.3.4-.3-.1-.6-.2-.9-.2-2.6 0-4.7-1.5-6.8-2.6-5.9-3.1-11.7-6.5-17.6-9.6-1.6-.8-3.6-.9-5.4-1-1.6-.1-2.9 1.5-3.1 3.1 1.3.1 2.8.2 2.7 2.1-.1.6-.3 1.3-.5 1.9-.4 1.5-1 3-1.2 4.5-.9 5.3-.8 10.6.1 15.9.2 1 .2 2.2.5 3.1.9 2.5 1.9 4.9 2.9 7.3 1.8 4.2 4.3 8 7.3 11.4 4.1 4.7 8.2 9.5 13.6 13 2.4 1.5 2.9 3.7 2.8 6.4-.2 8.5-1.9 17-.9 25.5.6 5 .3 10 2 14.9 1.7 5 4.4 9.1 8.7 12.2 2 1.4 4.4 2.4 6.6 3.6.6.4.9 1.2 1.4 1.8-.6.4-1.3 1.2-1.9 1.2-1.3-.1-2.6-.6-3.8-1-.8-.3-1.5-.7-2.3-1-.1.1-.2.3-.3.4.4.4.6.9 1.1 1.1 1 .7 2.2 1.1 3.2 1.8 3.5 2.6 7.7.6 9.8-1.9 1.7-2.1 2.9-4.5 4.1-6.9 1.6-3.2 3-6.4 4.7-9.6 1.6-3.1 3.2-6.1 5-9 2.1-3.4 4.9-6.2 9-6.9 5.5-1.1 11-.3 15.9 2.3 2.7 1.4 5.4 3.1 7.7 5.1 5.2 4.4 10 9.1 11.3 16.3.8 4.7-.3 8.6-3.4 12-4.3 4.9-9.6 8.5-14.7 12.6-2.1 1.7-4 3.7-5.7 5.7-1.3 1.5-1 2.4.6 3.6.6.4 1 1 1.4 1.6 4.3 6 10.1 9.7 17.5 10.1 7 .4 14 .6 20.9-1.3 6.1-1.7 12.2-3.2 17.7-6.3 2.5-1.4 5.3-2.6 7.6-4.4 2.6-2 5.1-1.6 7.5-.5 3.8 1.8 7.5 4.1 11.3 5.9 5 2.3 10 4.4 15.6 4.8.7.1 1.4.1 2 .3 2.9 1 5.8.8 8.7.2 2.4-.5 4.9-.5 7.2-1.3 4.2-1.5 8.3-3.1 12.3-5.1 3.7-2.2 6.4-4.7 6-9.2zM243.5 269c-5.5 3.7-11.4 6.8-18.3 7.3-2.3.2-4.7.9-7 1.3-.8.1-1.6.1-2.5.1-1.8 0-2.5.7-2.3 2.4 0 .4.1.8.2 1.2.5 2.7.4 2.7-1.9 4.2-1.1.7-1.8 2-2.5 3.1-.6 1-1.1 2-2.5 1.9s-1.8-1-2.4-2-1.5-1.9-2.4-2.6c-1.3-.9-2-1.9-1.7-3.5.5-3-1.2-4.6-4.3-4.3-2.2.3-4.3 1-6.4.9-4.6-.2-9.1-.9-13.5-2.4-2.1-.7-4.2-1.3-6.1-2.3-3.9-2-7.9-4.1-11.6-6.4-9.1-5.8-16.1-13.7-22.6-22-1.4-1.8-2.8-3.7-4.1-5.7-.4-.6-.5-1.4-.7-2.1-.3-1.2-1-1.5-2.1-1.2-.5.2-1 .4-1.6.7-1.9.9-3.7.8-5.5-.5-.9-.6-2.2-.9-3.3-1-2.9-.4-3.8-2.3-2-4.5 1-1.2 1.7-2.3 2-3.8.2-.7 1.1-1.4 1.9-1.8 1.1-.6 2.3-.8 3.5-1.4 1.5-.7 1.9-1.8 1.2-3.3-.9-2-1.9-3.9-2.7-5.9-.4-1.1-.6-2.2-.8-3.4-.9-6.2-.5-12.3 0-18.5.4-4.7 1.8-9.1 3.3-13.5 1-2.8 1.8-5.7 3.2-8.3 1.9-3.7 4.1-7.3 6.2-10.8 1.3-2.2 2.7-4.3 4.3-6.3 1.7-2.2 3.6-4.2 5.4-6.2.5-.5 1.3-.9 1.9-1.2 1.4-.8 1.7-1.9.6-3.1-.5-.6-1.2-1.2-1.8-1.7-1-.8-1.3-1.9-.6-3 1-1.8 1.2-3.5 0-5.3-.3-.5-.2-1.7.3-2.2.4-.5 1.5-.8 2.2-.7 2.3.3 4.6.7 6.8 1.1.7.1 1.3.7 1.9 1.2s1 1.3 1.6 1.9c1.5 1.5 2.4 1.2 4-.1 3-2.4 5.8-5.1 9.6-6.6 4.8-2 9.8-3.5 14.9-4.4l15.2-2.7c3.6-.6 7.2-.4 10.8.5 1.1.3 2.2.4 3.4.6 1.8.4 3.7.9 5.5 1.4.4.1.8.3 1.2.3 5.3.9 10.2 3.1 15 5.5.6.3 1.1.9 1.6 1.4 1 1.2 1.8 1.3 2.8.1.7-.8 1.2-1.8 1.8-2.7.7-1.1 1.7-1.6 3.1-1.5 1.1 0 2.3-.4 3.4-.9 1.2-.5 2.4-1.7 3.5-.7.8.7 1 2.1 1.5 3.2-.2.1-.5.2-.7.3.4 1.2 1 2.3 1.2 3.5.2.9.3 2 0 2.8-.2.8-.8 1.5-1.4 2.2-1.1 1.2-.7 2 .4 2.9 2.4 1.9 4.7 3.9 7 6 6.6 6 12.2 12.8 16.3 20.7 1.6 2.9 2.7 6.1 3.9 9.2.9 2.2 1.6 4.6 2.3 6.9 1.6 4.9 1.6 9.8 1.3 14.9-.1 2.4 0 4.8-.1 7.1s-.4 4.5-1.9 6.5c-.7.9-.4 1.7.5 2.2.9.4 1.9.7 2.9.9 1.4.2 2.2 1 2.7 2.3.4 1.1 1.3 2.1 2 3.1.4.6 1 1.1 1.3 1.7.7 1.6 0 2.8-1.7 3-1.6.2-2.9.7-4.1 1.9-1.1 1.1-2.4 1.2-3.9.8-1-.3-2.1-.7-3.1-.8-1.3-.2-2.1.3-2.2 1.7-.2 3.9-1.8 7.4-3.7 10.8-3.8 6.8-9.2 12.2-14.6 17.6-4.8 4.4-9.6 8.5-15 12zM140 314.1c1.2-2.4 2-5 3-7.4.7-1.8 1.7-3.2 3.9-3.4.5 0 1.2-.5 1.4-1l2.1-7.1c.3-1.5.7-2.7 2.5-3 1.3-.2 1.6-1.2 1-2.2-1.6-2.9-3.4-5.6-6-7.8-1.1-.9-2.3-1-3.4-.2-4 2.6-7.4 5.6-7.2 10.9 0 1-.1 2-.3 3-.4 1.9-.5 4.1-1.5 5.7-2.3 3.7-5.7 6.6-9.8 8.3-4 1.7-7.1 4.1-7.6 8.7-.2 2-.7 4.2-1.7 6-1 1.7-2.6 3.2-4.1 4.6-.9.8-2.1.1-2.1-1.2 0-.6.4-1.4.8-1.9 1.9-1.7 2.6-3.9 3.1-6.3.5-2.3 1.2-4.6 2.1-6.8 1.3-3.1 4.1-4.8 7.1-5.8 2.4-.8 4.3-2.2 6.2-3.7 2.5-2.1 4.1-4.6 3.9-8-.1-1.6 0-3.4.4-5 .5-2.3 1-4.8 3-6.6l4.3-3.9c.7-.6 1.5-1.5.3-2.2-2.1-1.3-4.3-2.5-6.9-2.5-1.6 0-2.3.7-2.1 2 .4 2.4-.2 3.2-2.3 4.3-2.9 1.5-5.7 3.2-8.6 4.8-1 .5-1.2 1.2-.5 2.2 1.1 1.5.5 3.2-1.2 3.8-3.4 1.2-6.2 3.3-8.7 5.7-2.6 2.5-4.7 5.5-6.9 8.3-1.1 1.3-.9 1.8.5 2.8l1.8 1.2c1.3.8 1.8 2 1.4 3.4-.6 2.1-1.3 4.2-2.3 6.2-.6 1.3-1.6 2.4-2.5 3.6-.7.8-.7 1.4.1 2.2.5.6.9 1.6.7 2.4-.6 2.7-1.4 5.3-2 7.9-.1.6-.1 1.5.2 2 .3.3 1.3.4 1.8.2 2.7-1.4 5.4-2.8 8.1-4.4 1-.6 1.7-.9 2.7-.2 1.2.9 2 .5 2.8-.6 1.8-2.5 3.9-4.8 6.7-6.5 1.9-1.2 2.9-1.2 4.6.2.3.3.6.5 1 .8.7.5 1 .3 1.5-.4l5.5-8c1-1.7 2.3-3.3 3.2-5.1z"/><path d="M187.3 81.3c.2.8.1 2.1-.4 2.5-2.1 1.9-1.4 3.8-.5 5.8l2 4.3c.6 1.2.5 2.3-.2 3.4-.9 1.3-.7 2.3.7 3 2.1 1.1 4.2 2.1 6.7 2.2 2.4.1 2.8-.2 2.9-2.5.1-3.6-.3-7.2 1.7-10.5.3-.6.3-1.4.4-2.1.8-4-1.2-7.4-2.8-10.8-1.7-3.7-1.6-7.4-.4-11.2.4-1.4.9-2.8 1.3-4.2.3-1.1.7-2.1 1-3.2.2-.9.6-1.8.6-2.6 0-3.1.4-6.2-1.2-9.2-.8-1.5-.3-3.2.7-3.5 1.7-.4 2.3 1 2.7 2.1a18.62 18.62 0 0 1 .9 4.7c.3 4.4.5 8.7-1.5 12.9-1 2-1.3 4.2-1.9 6.4-.2.6-.2 1.4-.1 2 .6 2.2 1.3 4.4 2 6.5.8 2.3 1.8 4.5 2.6 6.8.3.8.4 1.8.2 2.7-.6 2.4-1.2 4.8-2.2 7.1-1.4 3-1.2 5.7.4 8.5.7 1.2 1.7 1.7 3 1.4 2.2-.5 4.4-.9 6.5-1.6 2.2-.7 2.7-3.7 1.1-5.1-1.4-1.3-1.5-2.6-.7-4.4 1.4-3 2.7-6.1 4.1-9.2.5-1.2.3-2.1-1.1-2.6-1.5-.6-1.9-1.5-1.5-3 .2-.8.6-1.5 1-2.2 1.4-2.8 2.7-5.6 2.7-8.8v-9.2c.1-2.3-.6-2.9-2.9-2.4-2.2.4-4-.6-4.8-2.6-1.3-3-2.4-6-2.1-9.4.1-1-.4-1.7-1.6-1.9-1.3-.1-1.7-1-2.1-2.1-.9-2.5-1.9-5-3-7.4-.9-1.9-1.8-2-2.8-.1-1.1 2.1-2.1 4.3-2.9 6.5-.6 1.6-1.3 2.9-3.1 3.5-.5.2-.9.9-1 1.5-.5 3.1-.9 6.2-1.5 9.2-.2 1-1 2.1-1.9 2.8-1.2 1-1.7 2-1.7 3.5-.1 3.1-.1 6.1-1.6 9-.5 1-.3 2.5 0 3.7.4 3.3 1.4 6.5 2.3 9.8zm120.5 241.6c1.4-.9.9-1.7.1-2.7-1-1.2-2.1-2.3-2.7-3.7-1.2-2.5-2.4-5.1-1.2-8 .2-.5-.1-1.4-.4-2-1.3-2.5-2.8-4.9-3.6-7.7-.5-1.6-1.6-3.2-2.8-4.4-2.6-2.5-5.6-4.7-8.2-7.2-.6-.5-1.1-1.7-.9-2.5.3-1.6-.3-2.6-1.6-3.4-1.6-1-3.1-2-4.8-2.9s-2.6-2-2.6-3.9c0-1.6-.7-2.1-2.4-2.2-.1 0-.4 0-.7.1l-10.1 3.7c-1.3.6-1.8 2-1.4 3.4.3.9.9 1.7 1.4 2.5 2.7 3.6 6.8 5.5 10.4 8.1 4.5 3.3 7.8 7.5 9.7 12.7l3 7.8c.4 1 .8 2.2 1.6 2.9 2.3 2.3 4.7 4.4 7.1 6.6.6.6 1.4 1.1 1.8 1.8.3.4.3 1.3 0 1.6-.3.4-1.2.7-1.6.5-.9-.3-1.7-.9-2.5-1.5-.7-.5-1.1-1.2-1.8-1.6-3.1-1.8-5.3-4.6-7-7.6-2-3.6-3.6-7.5-4.9-11.4-1.4-4.2-4.3-7.1-7.8-9.5-2.1-1.5-4.4-2.6-6.3-4.2-2-1.7-3.7-3.7-5.4-5.6-.7-.8-1.6-1.6-2.4-.6-1.4 1.5-2.8 3.1-3 5.3-.1 1.5.4 2.1 1.9 2 1.3-.1 2.1.5 2.3 1.7l2 9.2c.4 2.1 1.3 2.9 3.5 3 1.4 0 2.1.7 2.4 1.9l.3 1.8c.7 3 1.6 5.7 4.2 7.9 2.7 2.3 5.5 4.5 6.8 7.9.4 1 1.2.7 2.1.7 1.6 0 3.4-.2 4.6.4 2.8 1.4 5.4 3.1 6.8 6 .6 1.3 1.6 1.9 3 1.3 1.3-.5 2.3-.1 3.4.7 1.9 1.4 3.8 2.8 5.8 4 1.7 1 2.8.4 2.6-1.5-.3-2.8-.8-5.6-1.4-8.3-.2-1.1-.5-2.3.7-3.1zm55-182c-2.7-.1-5.5 0-8.2-.2-1-.1-2.3-.4-2.9-1.1-1-1.2-1.9-1.2-3.2-.7l-5.4 1.7c-4.4.9-8.8 1.6-13.2 2.4-.2 0-.3.1-.4.1-2.4.3-4.9.8-7.3 1-2.2.1-4 .7-5.7 2.1-1.4 1.2-3 2.4-4.6 3.3-.7.4-2 .7-2.7.4-1.7-.7-2.9-.2-4.1.9-1.5 1.4-2.9 3-4.5 4.4-.7.6-1.9 1.3-2.8 1.2-2.2-.1-3.4.5-3.6 2.7-.2 2.1-.2 4.2 0 6.2.3 2.6 2.5 4 5.2 3.4 1.6-.4 3.2-.6 4.8-1 .8-.2 1.8-.4 2.4-.9l8.7-7c2.1-1.6 4-3.7 6.4-4.4 3-.9 6.3-.7 9.5-1l7.2-.7c2.9-.3 5-2.4 7.5-3.6 2.4-1.2 4.6-2.8 7.5-2.5.7.1 1.9.8 1.9 1.3 0 .7-.7 1.5-1.3 2.1-.2.3-.9.3-1.3.4-2.8.5-5.3 1.5-7.6 3.3-2 1.5-4.3 2.8-7.1 2.9l-11 .2c-3 0-5.5 1.1-7.7 2.8-2.3 1.9-4.3 4.1-6.6 6-1.8 1.5-3.8 3.1-5.9 4-2.4 1-5.1 1.2-7.6 1.8-1.9.4-2.4 1.4-1.3 2.9s2.3 2.9 3.6 4.4c1 1.1 2.3 1.4 3.8 1.3 1.1-.1 1.8-.4 1.6-1.7-.2-1.4.7-2 2-2.1h1.4l10.6.1c1.1 0 1.9-.3 2.1-1.5.3-2.3.8-2.7 3.2-2.7h2v.1c1.6-.1 3.2-.2 4.8-.4 1.7-.2 3-1.1 4.2-2.3 2.2-2.2 4.5-4.2 6.7-6.3.9-.9 1.9-1.8 2.6-2.8 2.3-3 4.8-5.7 8.7-6.8 1.3-.4 2.1-1.3 1.8-2.7-.3-1.3.4-2.1 1.4-2.9 2-1.6 3.9-3.3 5.8-5.1.5-.5.6-1.4.9-2.1-.8-.4-1.6-.9-2.3-.9zM54.5 170.7c-1 2-.7 2.6 1.6 2.6 3.3.1 6 1.5 8.7 3 .9.5 1.9 1 2.8 1.1 4 .3 7.9.7 11.8 1.6 1.3.3 2.4.7 2.7 2.1.3 1.2 1.1 1.6 2.3 1.6l6.5-.2c1.4-.1 2.7.1 3.7 1.1 1.5 1.5 1.9 1.5 3.5.2.4-.3.8-.7 1.2-1 2.6-2.4 4.2-5.2 4.7-8.6.2-1.1 0-2.2-1.2-2.5-3.3-1-6.5-2.8-10.2-2.4-2.3.2-4.6.6-6.9.7-2.5.1-5 .5-7.4 0-4.9-.9-8.8-4-12.4-7.1-2.7-2.3-5.6-3.7-9.3-3.6-1.6.1-3.2.2-4.8.2-1.7-.1-3.4-.2-5-.6-1.1-.3-2.1-1.1-1.8-2.5.3-1.3 1.6-1.1 2.6-1 .5 0 .9.2 1.4.2 1.5 0 3 .3 4.5 0 4.4-.7 8.4.5 12.1 2.7 1.7 1 3.2 2.2 4.7 3.5 3.6 3.1 7.6 4.8 12.5 4.4 3.3-.3 6.5-.3 9.8-.4 3.1-.1 6.2-.1 9.1 1.6.7.4 1.7.6 2.5.5.5-.1 1.4-.9 1.3-1.2-.3-1.6-.7-3.2-1.3-4.8-.1-.4-.9-.7-1.4-.7-1.4 0-2.3-.7-3.2-1.6-2.3-2.3-4.7-4.5-7.1-6.8-.8-.7-1.6-1.1-2.6-.3-1.9 1.6-3.4 1.4-4.9-.6-1.9-2.5-4.4-3.7-7.6-4.1-3.5-.4-7-1.4-10.4-2.4-1.3-.4-2.1-.5-3 .4-1.8 1.7-4 2.4-6.4 1.8-2.2-.5-4.4-1.2-6.6-1.8-.9-.3-1.7-.5-2.3.5-.8 1.6-2.3 1.9-3.9 1.7l-3.8-.3c-1.4.1-2.5.1-3.6.2-1.9.2-2.3 1.1-1 2.5 1.8 1.9 3.6 3.8 5.6 5.5 1.1.9 1.8 1.8 1.7 3.3-.2 1.8.4 2.4 2.3 2.8 3.2.7 5.7 2.5 8.1 4.6.9 1.3 1.1 2.6.4 4.1zm301.8 21h-.6l-.4 3.1c-.9 3.6-1.5 7.2-2.7 10.7-1.3 3.4-3.2 6.7-5 9.9-3 5.2-6.8 9.8-11.2 13.9-2 1.8-4.1 3.5-6.2 5.3-.9.8-1.4 1.7-.9 3 .5 1.4.7 2.8 1.1 4.2l.9 3.6c.3 1 .8 2.1.8 3.1-.1 5.9 2.4 11.8.6 17.7-.1.5-.1 1-.1 1.5.3 4.5-2 8.6-2.5 13a.76.76 0 0 1-.2.4c-1 2.3-2.3 4.5-3.1 6.9-1.3 3.9-3.4 7.4-6.3 10.3-3.3 3.3-6.5 6.7-11.9 5.9-.4 0-1.2.5-1.1.7.1.6.4 1.4.8 1.6 1.6.9 3.3.8 4.9 0 1.5-.7 3-1.6 4.2-2.6 6.7-6 12.8-12.7 18-20 2.6-3.7 5-7.4 7.2-11.3 2.2-3.8 4-7.8 5.9-11.8.8-1.7 1.6-3.5 2.1-5.3.9-2.6 1.6-5.3 2.3-8 1-3.7 2.2-7.4 2.9-11.1.8-4.1 1.3-8.2 1.6-12.3.9-9.7 1.2-19.4-.4-29-.2-1.2-.5-2.3-.7-3.4zM75.1 281.5c0-.5-.2-1.1-.3-1.6-.4-2.8-1.1-5.7-1.1-8.5-.2-8.4-.5-16.9 1.3-25.2.5-2.3-.3-3.9-2.2-5.4-5.5-4.2-10.4-9.1-14.7-14.6-3.4-4.4-6.2-9.2-8.2-14.4-.6-1.6-1.4-3.2-2.1-4.9h-.5c0 .7-.1 1.4 0 2.1.4 4.9 1 9.8 1.2 14.6.2 6.2 2 12.2 3.3 18.2 1.2 5.3 3.2 10.5 4.8 15.8 1.8 5.8 4.6 11.1 7.5 16.4 3.9 7.2 8.8 13.7 14.2 19.9.3.3.7.6 1.1.9.1-.1.2-.2.4-.3-.4-.9-.7-1.8-1.2-2.7-1.7-3.2-3.4-6.5-3.5-10.3zM262 66.7c3.2 3 6.6 5.8 8.8 9.7 1.4 2.4 2.9 4.8 4.1 7.3 1.3 2.8 2.4 5.8 3.4 8.7.4 1.4 1.1 2.1 2.5 2.2 1.1 0 2.2.1 3.3 0 6-.4 11.7 1.3 17.4 2.6 6.9 1.6 13.3 4.5 19.2 8.6 1.6 1.1 3.3 2.2 5 3.3.1-.1.2-.1.3-.2-.3-.4-.5-.8-.8-1.2-1.9-2.6-3.7-5.3-5.8-7.7-3.3-3.9-6.5-7.9-10.3-11.3-5.6-5-11.5-9.6-18.1-13.2-3.8-2.1-7.5-4.5-11.4-6.5-6.1-3-12.4-5.7-18.6-8.6-1.5-.7-3.1-1.3-4.7-1.9l-10.9-3.8c-1.1-.4-2.2-.8-3.6.2 2.4 1 4.5 1.7 6.5 2.7 4.9 2.6 9.7 5.4 13.7 9.1zm-10.1 275.4c-5.1 1.7-10.2 1.4-15.4.6-6.1-.9-11.9-3.1-17.5-5.5-4-1.7-7.8-4-11.6-6.1-1.5-.8-2.5-.7-4 .2-2.4 1.6-4.9 3.3-7.5 4.6-3.3 1.6-6.8 2.9-10.2 4.3-4.3 1.7-8.7 3-13.3 3.2-1.4.1-2.9.4-4.3.7-4.2.7-8.4 1.3-12.6-.1-.6-.2-1.3-.1-1.9-.1 0 .1-.1.3-.1.4.9.5 1.7 1.2 2.6 1.5 5.1 1.7 10.1 3.5 15.5 4 1.7.1 3.3.3 5 .3 6.2.3 12.4 1 18.6.9 7.4-.1 14.8-.8 22.2-1.2 1.9-.1 3.8 0 5.6-.5 5.7-1.7 11.8-.9 17.6-2.9 4.2-1.4 8.8-1.6 12.9-3.7.5-.3 1.2-.2 1.8-.4.7-.2 1.5-.5 2.2-.8-.1-.1-.1-.3-.2-.5-1.9.5-3.8.5-5.4 1.1z"/><path d="M232.7 53c-2.2-1.2-7-.7-8.8.8-2 1.6-3.4 5.9-2.6 8.4 2.4-5 5.8-8.2 11.4-9.2zm36.8 282.9c7.3-2.3 9.6-7.9 7.2-11.5-1.1 4.7-3.4 8.5-7.2 11.5zm-25.3-87.3c2.7-.4 5.2-1 7.8-1.9 3.2-1.1 6.3-2.1 9.2-4 2.4-1.6 4-3.6 5.6-5.7 2.8-3.9 2.7-4.8.7-7.8-.7-.9-1.5-1.4-2.6-1.3h-4.2v-.1c-1.6 0-3.1.2-4.7 0-1.4-.2-3-.5-4-1.3-2.7-2-4.3-4.7-3.9-8.3.1-1.1.1-2.2 0-3.3-.2-3 .7-5.7 2.3-8 1.5-2 3.6-3.1 6.1-4.1 3.7-1.5 6.9-.1 10.1 1 2.1.7 4 2.2 6 3.5 2.2 1.4 4.1.8 4.3-1.8.2-2.2-.3-4.5-.6-6.7-.2-1.1-.5-2.2-1-3.2-1.5-2.9-2.6-6-4.7-8.4-2.3-2.6-5.4-4.7-8.3-6.8-2.3-1.6-2.7-3.2-1.7-5.9 1.7-4.1 1.2-8.4.8-12.7 0-.2-.2-.4-.2-.5-1-2.2-2.3-4.4-2.9-6.7-1-3.6-3.6-5.5-6.7-7.1-.9-.5-1.7-.2-1.6.8.2 2.4-.1 4.7-1.6 6.8-.1.1 0 .2-.1.3-.5 3.1-1.5 5.7-4 7.9-1.9 1.6-3.7 2.7-6.1 2.8-1.5 0-3.1.2-4.6 0-1.3-.2-2.7-.6-3.7-1.3-2.1-1.5-4-3.2-5.9-4.9-1.9-1.6-2.6-3.8-2.7-6.2-.1-2.6.6-4.7 2.2-6.7 1.7-2.2 3.2-4.6 5.6-6.2 2.2-1.5 2.5-2.8.9-4.8-.9-1.1-2.5-1.6-3.4-2.6-1.2-1.6-2.6-1.8-4.3-1.4-.6.1-1.3-.2-2-.1-2.9.3-6.1 0-8.7 1-3.4 1.3-6.5 3.6-9.7 5.6-1.5.9-3.1 1.4-4.7.5-2.1-1.1-4.1-2.5-6.2-3.6-1.2-.6-2.6-1.3-4-1.3-3.6-.1-7.2 0-10.8.1-.7 0-1.5.4-2.1.7-1 .4-2 .8-2.9 1.4-.7.4-1.6.9-1.8 1.6-.8 2.3 0 4.2 2 5.5 3.3 2.3 6.5 4.7 8.4 8.3 1.2 2.2 1.5 4.6.2 6.5-3.1 4.5-5.7 9.9-12.5 10.1 0 0-.1 0-.1.1-3.7 1.7-7.1 1.7-10.5-.8-1.6-1.2-2.9-2.3-3.7-4.1-.9-2-.8-4.3-2.5-5.9-.2-.2-.2-.7-.2-1 .1-1.7-1-2.7-2.2-3.6-1-.7-1.7-.5-2.3.7-.7 1.4-1.5 2.9-2.4 4.2-3 4.1-4.6 8.8-4.9 13.8-.2 2.6 0 5.3.1 7.9.1 1 .3 2.1.7 3 .6 1.3.8 2.5.1 3.8l-5.9 9.4c-.7 1.1-1.3 2.3-1.8 3.5-1 2.1-1.9 4.2-2.8 6.3-.1.2-.1.5-.1.8 0 1.9-.3 3.9.1 5.8.3 1.6 1.3 3.1 2.2 4.5.2.3 1.4.4 1.9.2 2.1-1.1 4.2-2.1 6-3.5 4.1-3.3 8.4-2.1 12.8-1.2.2 0 .5.2.6.4 2.8 2.7 5.2 5.8 7.1 9.2.2.4.3 1 .3 1.5-.1 1.3-.3 2.5-.4 3.8-.4 3.9-6.7 9.8-11.8 9-.8-.1-1.7 0-2.4.2-1.9.4-3.7 1-5.5 1.4-1 .2-1.6.8-1 1.7 2 2.8 2.9 6.4 5.9 8.6 1.5 1.1 3.1 2.1 4.7 2.9 2.9 1.5 5.8 2.7 9.3 2.5 1.5-.1 3 .1 4.5.4 2.5.5 4.8 1.3 6.2 3.6.9 1.5 2 2.8 3.1 4.1 1.7 2.2 3.5 4.4 5.3 6.5 1.3 1.4 2.5 3 4.2 4 3 1.9 6.5 2.2 10 1.6 1.4-.3 1.9-1 1.5-2.4-.2-.8-.5-1.5-.7-2.3-.4-1.8-.8-3.6-1.3-5.4-.6-2.3-1.6-4.6-.5-7 1.7-3.9 4.4-6.6 8.7-7.8 5.1-1.5 10-1.8 14.8 1.1 2.1 1.3 4.4 2.8 4.7 5.2.5 3.8.9 7.7-1 11.4-.4.9-.6 1.9-.6 2.9-.2 2.2.4 2.7 2.6 2.8h3c1.7.1 3.2-.4 4.6-1.4 2.8-2 5.5-3.9 7.7-6.7 2.4-3.2 4.9-6.3 5.8-10.3-.1-2.9.8-4.9 2.8-5.1zm-15.4-47.9h-.1c0 .8-.1 1.6 0 2.4.4 3.9-1.3 7.1-3.6 10-2 2.5-3.9 5.2-6.3 7.2-3.9 3.3-8.4 5.7-13.9 5.5-1.3-.1-2.7-.1-4 0-4 .2-7.3-1.5-10.8-3.2-3.3-1.6-5.7-4.1-7.8-6.8-3.2-4.1-5.9-8.6-5.5-14.1.1-1.7-.2-3.5.1-5.1.2-1.6.8-3.1 1.3-4.6.8-2.2 1.7-4.4 3.4-6.2 4.7-5.1 10-9.4 17.3-10.5 6.2-.9 12.2.1 17.4 3.6 3.3 2.2 6.7 4.5 8.6 8.3 1 2.2 2.4 4.2 3.5 6.3.3.6.4 1.4.5 2-.1 1.7-.1 3.5-.1 5.2zm38-23.3l6 4.1c.7.5 1.2 1.2 1.6 1.9l3.8 6.3c.2.3.5.4.8.7 1.9-5.4-7.5-27.6-12.9-31 .2 1.1.5 2 .6 3 .1 1.8.3 3.5.1 5.3-.2 2.1-.5 4.3-1 6.4-.4 1.5-.3 2.5 1 3.3zm-114.6-28.9l3.6 6.2c.4.7 1 1.3 1.6 1.8l3.7 3 4.1 3.5c.8.7 1.7.7 2.5 0s.9-1.4.5-2.4c-1.3-3.1-3.7-5.1-6.7-6.6-2-1-3.8-2.2-4-4.6-.2-2.5-1.2-4.3-3.6-5.4-.6-.3-1.1-.8-1.6-1.1-2.3-1.7-2.4-2.7-.1-4.6.1-.1.2-.3.4-.6l-2.8-1.3c-1.4-.7-1.9-.5-1.9 1 0 1.8.3 3.3 1.4 5 1.2 1.7 1.8 4 2.9 6.1zm13 110.2c-.3-.5-.9-.9-1.5-1-.9-.2-1.9-.2-2.9-.2-2.6.1-5.3.5-7.6-1.3-.2-.1-.4-.2-.6-.2-.5 0-1 .1-1.5.2.2.4.2 1 .5 1.3l2.5 2c2.9 2.3 5.7 4.6 8.7 6.7 1.2.9 2.6 1.6 4 2.3 2.1 1.1 4.1 2.6 7.2 2.3-1.1-1.4-2.1-2.4-2.9-3.5-2-2.8-3.9-5.7-5.9-8.6zm63.5-101.2c.2.2 1 .1 1.3-.2 2.3-1.7 3.5-4.1 4.6-6.6l1.9-3.7c.6-1 1.5-1.9 2.1-2.9l3.2-6.3c.7-1.2 1.6-2.2 2.7-3.1 1.4-1.2 2.7-.8 3.4.9.2.4.3.8.5 1.2 1.6-.7 2.1-4.3 1-5.2-.2-.1-.4-.3-.5-.2-2 .3-4.2.1-5.6 1.9-.9 1.1-1.6 2.4-2.6 3.3l-5.4 4.7c-1.4 1.3-2.2 2.8-2.6 4.7-.2 1.1-.6 2.2-1.3 3-2 2-2 4.8-3.2 7.1-.3.2.1 1 .5 1.4zm-83.4 72.8c.4-.4 1-.5 1.6-.5 2.2 0 3.8-1.1 5.5-2.2 1.4-.9 1.7-2.3 1.3-3.7-.1-.4-.8-1-1.2-1-2.7.2-5.2.9-7.6 2.3-3.1 1.8-6 4.1-9.9 4-2.7-.1-4.8 1-6.7 2.8-.6.5-1 1.4-.1 1.5 1.9.2 4.2.6 5.7-.2 2.3-1.3 4.6-1.5 7-1.7 1.6.1 3.1-.1 4.4-1.3z"/><path d="M211.7 260.1c.2 0 .4-.1.5-.1l-1.3-6.6c-.2-.6-1.3-1.3-2-1.3-.5 0-1.5 1-1.5 1.5 0 2.2-.3 4.6.5 6.5 1.4 3.4 1.1 6.6.4 9.9-.5 2.3-.7 4.8-.6 7.2 0 2 .8 4.1-2 5-.3.1-.5 1.1-.3 1.6.1.5.7.9 1.2 1.2.2.1.9-.2 1-.5 1.1-2.1 2.6-4.1 2.5-6.7 0-.8.4-1.9 1-2.5.8-.8 1.1-1.6.9-2.7-.3-2.2-.5-4.3.5-6.4.3-.7 0-1.7-.1-2.5-.1-1.2-.4-2.4-.7-3.6zm65.1-45.8l-7.3-3.6c-.4-.2-1-.4-1.5-.4-2 .1-3.9-.4-5.4-1.6-2.4-1.9-4.6-.5-6.8.2-.4.1-.6.8-.8 1.3.5.1 1 .3 1.4.2 1.3-.4 2 0 2.8 1 1.1 1.5 2.7 3.1 4.5 2.7 2.6-.5 5-.3 7.5.4.4.1.8 0 1.2 0 .5.1 1 .1 1.3.3l5.7 3.5c1.6 1 1.6 1.9.5 3.4-.4.5-.3 1.2-.5 1.8.7-.1 1.4-.1 2.1-.3 1-.4 1.9-.9 2.8-1.3.1.1.1.2.2.3.6-.3 2.4.3 1.5-1.1-.9-1.5-2.7-2.6-4.2-3.7-1.2-.9-2.5-1.5-3.8-2.2-.3-.2-.7-.7-1.2-.9zM134 180.7c-.5-2.1-.8-4.2-1.1-6.3-.1-.6-.2-1.2-.2-1.8-.2 0-.3-.1-.5-.1-.6 1.1-1.3 2.1-1.7 3.3-1 2.5-2.3 5-2.3 7.8 0 .3-.3.7-.4 1l-1.3 5.1-.9 6.2-.3 2.6c.2.1.4.1.5.2l1-1.5c2.1-3.5 4-7.1 6.4-10.4 1.4-2.1 1.3-3.9.8-6.1zm64.4-47.6c.6.3 1.6 0 2.3-.3l5.2-3.2c1.3-.7 2.7-1.1 4.1-1.8l1.8-1c-.7-.3-1.3-.6-2-.8h-.3c-4.5 0-9.1-.1-13.6.2-2.4.2-4.7 1.2-7.1 1.9-.1 0-.1.2-.3.5.4.3.7.5 1 .7 3 1.2 6 2.6 8.9 3.8zm4.1 120.1c.1-.3-.5-.8-.7-1.2-.4.3-1 .5-1.3.8-.2.2-.1.7-.2 1-.4 1.6-.7 3.3-1.5 4.7-.5 1-.8 1.8-.2 2.8 1 1.5.8 2.9 0 4.5-.4.8-.7 1.8-1 2.6.1 0 .2.1.2.1l.3 4.2c.1.9.4 1.9 1.5 1.8.8 0 1.9-.4 2.3-1 2.5-3.6 2.5-7.8 1.4-11.7-.6-2.8-1.8-5.5-.8-8.6zm54.5-2.6c-1.5 1.1-3.2.8-4.9 1.1-4 .7-7.3 1.7-7.7 6.1-.1.6-.6 1.2-1 1.8l-4.7 6.7c-.1.1 0 .3 0 .6.3 0 .5.1.6 0l5.7-4.6c.5-.4 1.1-.9 1.7-1.2s1.3-.5 1.8-.9l8.1-7c.5-.4 1-.9 1.4-1.4.2-.3.1-.8 0-1.1-.2-.2-.8-.2-1-.1zm18.7-28.8c-.2-.1-.5-.2-.7-.3-2-1-4.6-.9-6.1-3-.2-.2-.8-.3-1.2-.3-2.1-.1-4.3 0-6.4-.3-1.1-.1-2.1-.8-3.2-1.2l-2.4-1-2.2 1.2c.6.5 1.1 1.1 1.7 1.6.7.6 1.4 1 2.1 1.6 1.2 1.1 2.5 1.9 4.3 1.9.7 0 1.5.4 2.2.5l5 1.2c1.1.2 2.3.2 3.3.5 1.4.4 2.5-.1 3.6-.9.8-.5.8-1 0-1.5zm-113.9-75c.2 1.4 1.3 3.1 2.5 3.8 3.2 1.8 5.8 4.1 7.8 7 .2.3.8.5 1.2.7 0-.5.2-1.1 0-1.5-.4-1.1-1.2-2.2-1.5-3.3-.4-1.6-1.1-2.8-2.7-3.5-.5-.2-1-.8-1.2-1.3-1.2-3-3.6-5.3-5.6-7.7a2.61 2.61 0 0 0-1.7-.7c-1-.1-2 .1-3 .1.2.2.4.6.7.8 1.8 1.4 3.1 3.1 3.5 5.6z"/><path d="M248 139.4c.2-.1.1-.5.2-.8-.2-.1-.3-.2-.5-.3-.5.6-1 1.1-1.3 1.7l-4.5 7.2c-2 2.7-2.8 5.9-4 9-.5 1.4-.8 2.8-2.7 3.1-.3 0-.9.7-.8.9.1.4.6.8 1 1 .8.4 1.5 0 1.6-.8.2-1.1.8-1.6 1.9-1.9 2.1-.6 3.5-1.8 3.7-4.1 0-.5.2-1 .5-1.4 1.4-1.9 1.3-4.1 1.3-6.3 0-.7 0-1.6.5-2.2 1.1-1.6 1.1-3.9 3.1-5.1zm-110.2 83.8c2.7-1.2 5.1-2.8 7.8-4.1.9-.4 1.9-.6 2.9-.8l2.2-.3v-.6c-.5 0-1-.2-1.5-.1l-4.2.2c-.9.1-1.7.5-2.5.8-1 .4-2 .9-3.1 1.2-.4.1-1-.1-1.4 0l-8.6 2.6c-.5.2-.5 1.6-.8 2.5l2-.2 3-.7c1.4-.1 2.9 0 4.2-.5zm-14.8 7.7c-.9.5-1.7 1.2-2.7 2.1 1.6.8 2.7.5 3.7-.1.3-.2.5-1 .3-1.4s-1.1-.8-1.3-.6zm100.8-35.4c-.3-4.1-2.8-7.1-5.4-9.8-4.1-4.4-9.5-6.2-15.5-6.2-2.6 0-5.4.3-7.8 1.1-5.1 1.8-9.1 5.1-11.7 9.9-.6 1.1-1 2.2-1.4 3.3-.4 1.3-.5 2.7-.9 4-.7 2-.6 3.8.1 5.8.4 1 .5 2.2.7 3.2.2.8.2 1.7.6 2.3 1.9 3 3.5 6.3 6.6 8.3 1.2.8 2.5 1.3 3.8 2 3 1.6 6.3 2.5 10.2 2.8 6.1-1.1 12.3-2.8 16.5-8.3 1.5-2 2.7-4.3 3.7-6.6.7-1.5 1-3.2 1.1-4.8.2-1.5 0-3-.1-4.5.1-.9-.4-1.7-.5-2.5zm-20.6 20.2c-8.2 1-15.8-7.6-15.7-15.2.1-8.3 7.5-15.3 16-15.4 7.3 0 15.7 7 15.5 15.8-.2 7.4-7.9 15.7-15.8 14.8zm7-23.9c-2.3-1.8-4.6-2-7.3-2.2-1.7.3-3.7.2-5 1-1.8 1.1-3.3 2.9-4.7 4.5-1.5 1.7-1.6 8-.5 9.9.8 1.3 1.4 3.1 2.7 3.8 3.2 1.6 6.4 4.3 10.5 2.3.5-.3 1.2-.2 1.8-.4.7-.2 1.5-.5 2.1-1 2.6-2.2 4.3-4.9 4.3-8.4s-.6-6.9-3.9-9.5z"/></g></g></svg>