<?xml version="1.0" encoding="utf-8"?>
<!-- Generator: Adobe Illustrator 23.0.0, SVG Export Plug-In . SVG Version: 6.00 Build 0)  -->
<svg version="1.1" xmlns="http://www.w3.org/2000/svg" xmlns:xlink="http://www.w3.org/1999/xlink" x="0px" y="0px"
	 viewBox="0 0 400 400" style="enable-background:new 0 0 400 400;" xml:space="preserve">
<style type="text/css">
	.st0{fill:#98B797;}
	.st1{fill-rule:evenodd;clip-rule:evenodd;fill:#F1CE56;}
</style>
<g id="Layer_2">
	<rect x="0" class="st0" width="400" height="400"/>
</g>
<g id="Layer_1">
	<circle class="st0" cx="200" cy="200" r="191.5"/>
	<path d="M200,9c25.8,0,50.8,5,74.3,15c22.7,9.6,43.2,23.4,60.7,40.9s31.3,38,40.9,60.7c10,23.5,15,48.6,15,74.3s-5,50.8-15,74.3
		c-9.6,22.7-23.4,43.2-40.9,60.7s-38,31.3-60.7,40.9c-23.5,10-48.6,15-74.3,15s-50.8-5-74.3-15c-22.7-9.6-43.2-23.4-60.7-40.9
		s-31.3-38-40.9-60.7C14,250.8,9,225.8,9,200s5-50.8,15-74.3C33.6,103,47.4,82.5,64.9,65s38-31.3,60.7-40.9C149.2,14,174.2,9,200,9
		 M200,8C94,8,8,94,8,200s86,192,192,192s192-86,192-192S306,8,200,8L200,8z"/>
	<g>
		<path class="st0" d="M207.8,0.2C147.8-2,96.1,19.1,54.7,62.7C18.3,101.1,0.1,147.4,0,200.4C-0.2,310.2,89.4,400.6,199.8,400
			c110.7,0.7,201.1-89.8,200.2-201.1C399.1,87.3,311,3.9,207.8,0.2z M200.1,381.2c-99,0-182.2-80.6-180.4-184.7
			C21.4,103.1,98.5,16.1,209,20.2c88.8,3.2,174.5,78.3,171.9,185.9C378.6,300.3,300.7,381.2,200.1,381.2L200.1,381.2z"/>
		<g>
			<path class="st1" d="M272.3,324.3c-0.1-1,0.2-1.8,1.3-2.1c1.4-0.3,1.2-1,0.5-1.8c-0.4-0.5-0.8-0.9-1.3-1.3L263,311
				c-3.2-2.7-6.7-5.3-9.5-8.4c-3.3-3.6-3.8-8-2.1-12.5c2.2-5.8,5.5-10.9,10.6-14.8c4.8-3.8,10-6.5,16.4-6h0.9c3.8,0.1,7,1.7,9.9,3.9
				c5,3.9,7.7,9.3,10.1,14.8c1.7,3.7,2.9,7.6,4.4,11.5c0.3,0.8,0.8,1.5,1.4,2.2c0.2,0.3,0.9,0.4,1.3,0.3c1.1-0.2,2.1-0.6,3.2-0.9
				c1.9-0.4,3.7-1,5.3-2.3c5.5-4.3,7.9-10.5,10.4-16.5c1.2-2.8,2.4-5.7,2.5-8.8c0-0.4,0.3-0.7,0.4-1.1c0.3-1.2,0.9-2.3,0.9-3.5
				c0.2-7.2,0.8-14.3-1.3-21.4c-0.8-2.8-0.9-5.7-2-8.5s-0.3-4.9,2.1-7c3.4-2.8,6.6-5.8,9.5-9.1c4.9-5.6,9.3-11.5,11.7-18.7
				c1.3-3.9,2-7.8,2.7-11.8c1.3-7.5,0-14.9-3.9-21.6c-0.5-0.8-0.8-1.8,0.2-2.4s1.9-0.2,2.6,0.6c0.5,0.5,0.9,1,1.5,1.6
				c0.3-2.1-0.7-4.5-2.3-5.1c-0.7-0.3-1.7-0.2-2.3,0.1c-1.3,0.7-2.5,1.6-3.6,2.6l-14.6,13.5c-3.1,2.8-6.8,4.8-10.9,5.8
				c-5,1.2-9.9,0.9-14.6-1.5c-2.6-1.4-4.6-3.3-6.4-5.4c-3.9-4.9-7-10.1-6.7-16.7c0-0.9,0.1-1.7,0-2.6c-0.2-3.1,0.5-6,2-8.7
				c2.1-3.9,5.2-6.7,9.2-8.7c4.9-2.5,10.5-2.2,15.7-3.4c3.3-0.8,6.8-0.4,10.2-0.4c2.8,0,5.4-0.3,7.9-1.8c1.8-1.1,2.9-2.4,3-4.6
				c0.1-3.4-1.6-6.3-2.9-9.3c-0.5-1.2-1.4-2.3-2.2-3.5c-0.2,0.1-0.3,0.2-0.5,0.3c0,0.4,0.1,0.7,0.1,1.1c0.2,3.9,0.6,7.7,0.6,11.6
				c0,1.1-0.8,2.2-1.5,3.2c-0.3,0.4-1.3,0.7-1.8,0.5s-1-1.1-1-1.7c-0.1-1,0.1-2.1,0.4-3.1c0.9-2.9,1.2-5.7-0.3-8.5
				c-0.2-0.4-0.2-0.9-0.3-1.3c-0.2-2.7-1.4-5-3.1-7c-3-3.7-6.9-6.6-11-9.2c-3.6-2.4-7.6-3.6-11.6-4.8c-3.5-1.1-7-2.8-10.9-2.3
				c-1.3,0.2-2.7-0.4-4-0.5l-8.1-0.9c-1-0.1-2.1,0-3.1-0.2c-1.2-0.1-1.9-0.9-2.2-2c-1.2-3.7-2.3-7.5-3.8-11.1
				c-2.3-5.4-6.1-9.7-10.1-13.9c-4.4-4.6-10.1-7.6-16-10.3c-1.8-0.8-3.7-1.6-5.6-2.2c-1.7-0.5-3.4-0.9-5.1-1.1
				c-1.1-0.2-2.3-0.3-3.3,0c-3.1,0.7-5.3,2.6-6.2,5.8c-0.4,1.4-1.1,2.7-2.6,3.5c-0.3,0.1-0.6,0.6-0.5,0.9c0.2,2.2,0.4,4.4,0.9,6.6
				c0.9,3.6,2,7.1,2.9,10.7c0.3,1.4,0.2,2.9,0.5,4.4c0.6,4.2-0.9,7.8-3.5,10.9c-3.8,4.5-9.2,6.2-14.9,6.9c-3.2,0.4-6.5,0.1-9.8,0.1
				c-0.9,0-1.8-0.1-2.6-0.4c-2.5-0.8-5-1.8-7.6-2.7c-4.3-1.5-7.6-4.1-10.1-7.8c-2.8-4.1-3.7-8.4-1.9-13.2c1.2-3.2,2-6.6,3.1-9.8
				c0.9-2.7,1.5-5.6,2.7-8.2c1.1-2.3,1.3-4.6,1-6.9c-0.1-1-0.9-2.1-1.7-2.7c-2.4-1.6-5.2-1.2-8-0.7c-0.4,0.1-0.9,0.4-1.1,0.8
				c-1.5,2.1-3.6,2.9-6.1,3.1c-0.5,0-1,0.2-1.5,0.4c-4.3,1.8-8.8,3.2-13,5.4c-3.7,1.9-7.3,4.2-10.3,7c-5.3,4.8-9.4,10.6-13.1,16.7
				c-1.6,2.6-2.7,5.4-4.3,8c-0.9,1.5-2.2,2.9-3.6,3.8c-1.9,1.1-4.1,1.5-6.2,2.2s-4.2,1.3-6.3,2.1l-8.4,3.3c-1.8,0.7-3.6,1.3-5.3,2.2
				c-3.5,1.8-6.9,3.7-10.3,5.5c-4.3,2.3-7.9,5.4-10.8,9.2c-1,1.3-1.9,2.8-2.5,4.3c-1,2.7-1.6,5.5-2.5,8.2c-0.2,0.5-1,1.3-1.4,1.3
				c-0.6,0-1.4-0.7-1.7-1.2s-0.2-1.3-0.1-1.9c0.8-2.7,1.5-5.3,2.5-7.9c1.9-4.6,5.2-8.4,9.2-11.2c4.2-3,9-5.3,13.5-7.9
				c1.5-0.8,3.2-1.5,4.8-2.2c2.7-1.1,5.4-2.3,8.1-3.3c2.3-0.9,4.6-1.7,7-2.5c2.4-0.9,4.7-1.9,7.1-2.6c1.7-0.4,2.7-1.3,3.5-2.7
				l4.8-8.3c4.1-6.9,9-13.2,15.1-18.6c2.2-1.9,4.7-3.5,7-5.2c0.5-0.4,1-0.8,1.5-1.3c-0.1-0.1-0.2-0.3-0.3-0.4
				c-0.5,0.2-1.1,0.4-1.6,0.6l-2.1,0.9L133.1,67c-1.5,0.6-3.2,1-4.6,1.7c-2.4,1.2-4.8,2.4-7,3.8c-6.9,4.4-13.9,8.7-20.4,13.5
				c-8.2,6-15.4,13.2-22.1,20.8c-5.3,6-10,12.5-13.7,19.6c-1.6,3-3.1,6.1-2.8,9.8c0.3,3.1,1.8,5.1,4.8,6.4c4,1.7,8.3,2.1,12.5,2.8
				c4.7,0.9,9.7,0.9,14.4,2.3c2.1,0.6,4.4,1.3,6.2,2.6c5.3,3.9,8.1,9.2,8.5,15.7c0.1,1.3-0.2,2.6-0.2,3.9c0,3.8-1.2,7.3-3.1,10.5
				c-1.4,2.3-3.2,4.4-5.1,6.3c-1.4,1.4-3.2,2.7-5.1,3.3c-3.7,1.2-7.5,2.2-11.3,0.4c-0.3-0.1-0.6-0.2-0.9-0.2c-2.6,0-4.7-1.5-6.8-2.6
				c-5.9-3.1-11.7-6.5-17.6-9.6c-1.6-0.8-3.6-0.9-5.4-1c-1.6-0.1-2.9,1.5-3.1,3.1c1.3,0.1,2.8,0.2,2.7,2.1c-0.1,0.6-0.3,1.3-0.5,1.9
				c-0.4,1.5-1,3-1.2,4.5c-0.9,5.3-0.8,10.6,0.1,15.9c0.2,1,0.2,2.2,0.5,3.1c0.9,2.5,1.9,4.9,2.9,7.3c1.8,4.2,4.3,8,7.3,11.4
				c4.1,4.7,8.2,9.5,13.6,13c2.4,1.5,2.9,3.7,2.8,6.4c-0.2,8.5-1.9,17-0.9,25.5c0.6,5,0.3,10,2,14.9c1.7,5,4.4,9.1,8.7,12.2
				c2,1.4,4.4,2.4,6.6,3.6c0.6,0.4,0.9,1.2,1.4,1.8c-0.6,0.4-1.3,1.2-1.9,1.2c-1.3-0.1-2.6-0.6-3.8-1c-0.8-0.3-1.5-0.7-2.3-1
				c-0.1,0.1-0.2,0.3-0.3,0.4c0.4,0.4,0.6,0.9,1.1,1.1c1,0.7,2.2,1.1,3.2,1.8c3.5,2.6,7.7,0.6,9.8-1.9c1.7-2.1,2.9-4.5,4.1-6.9
				c1.6-3.2,3-6.4,4.7-9.6c1.6-3.1,3.2-6.1,5-9c2.1-3.4,4.9-6.2,9-6.9c5.5-1.1,11-0.3,15.9,2.3c2.7,1.4,5.4,3.1,7.7,5.1
				c5.2,4.4,10,9.1,11.3,16.3c0.8,4.7-0.3,8.6-3.4,12c-4.3,4.9-9.6,8.5-14.7,12.6c-2.1,1.7-4,3.7-5.7,5.7c-1.3,1.5-1,2.4,0.6,3.6
				c0.6,0.4,1,1,1.4,1.6c4.3,6,10.1,9.7,17.5,10.1c7,0.4,14,0.6,20.9-1.3c6.1-1.7,12.2-3.2,17.7-6.3c2.5-1.4,5.3-2.6,7.6-4.4
				c2.6-2,5.1-1.6,7.5-0.5c3.8,1.8,7.5,4.1,11.3,5.9c5,2.3,10,4.4,15.6,4.8c0.7,0.1,1.4,0.1,2,0.3c2.9,1,5.8,0.8,8.7,0.2
				c2.4-0.5,4.9-0.5,7.2-1.3c4.2-1.5,8.3-3.1,12.3-5.1C270,331.3,272.7,328.8,272.3,324.3L272.3,324.3z M243.5,269
				c-5.5,3.7-11.4,6.8-18.3,7.3c-2.3,0.2-4.7,0.9-7,1.3c-0.8,0.1-1.6,0.1-2.5,0.1c-1.8,0-2.5,0.7-2.3,2.4c0,0.4,0.1,0.8,0.2,1.2
				c0.5,2.7,0.4,2.7-1.9,4.2c-1.1,0.7-1.8,2-2.5,3.1c-0.6,1-1.1,2-2.5,1.9s-1.8-1-2.4-2s-1.5-1.9-2.4-2.6c-1.3-0.9-2-1.9-1.7-3.5
				c0.5-3-1.2-4.6-4.3-4.3c-2.2,0.3-4.3,1-6.4,0.9c-4.6-0.2-9.1-0.9-13.5-2.4c-2.1-0.7-4.2-1.3-6.1-2.3c-3.9-2-7.9-4.1-11.6-6.4
				c-9.1-5.8-16.1-13.7-22.6-22c-1.4-1.8-2.8-3.7-4.1-5.7c-0.4-0.6-0.5-1.4-0.7-2.1c-0.3-1.2-1-1.5-2.1-1.2c-0.5,0.2-1,0.4-1.6,0.7
				c-1.9,0.9-3.7,0.8-5.5-0.5c-0.9-0.6-2.2-0.9-3.3-1c-2.9-0.4-3.8-2.3-2-4.5c1-1.2,1.7-2.3,2-3.8c0.2-0.7,1.1-1.4,1.9-1.8
				c1.1-0.6,2.3-0.8,3.5-1.4c1.5-0.7,1.9-1.8,1.2-3.3c-0.9-2-1.9-3.9-2.7-5.9c-0.4-1.1-0.6-2.2-0.8-3.4c-0.9-6.2-0.5-12.3,0-18.5
				c0.4-4.7,1.8-9.1,3.3-13.5c1-2.8,1.8-5.7,3.2-8.3c1.9-3.7,4.1-7.3,6.2-10.8c1.3-2.2,2.7-4.3,4.3-6.3c1.7-2.2,3.6-4.2,5.4-6.2
				c0.5-0.5,1.3-0.9,1.9-1.2c1.4-0.8,1.7-1.9,0.6-3.1c-0.5-0.6-1.2-1.2-1.8-1.7c-1-0.8-1.3-1.9-0.6-3c1-1.8,1.2-3.5,0-5.3
				c-0.3-0.5-0.2-1.7,0.3-2.2c0.4-0.5,1.5-0.8,2.2-0.7c2.3,0.3,4.6,0.7,6.8,1.1c0.7,0.1,1.3,0.7,1.9,1.2s1,1.3,1.6,1.9
				c1.5,1.5,2.4,1.2,4-0.1c3-2.4,5.8-5.1,9.6-6.6c4.8-2,9.8-3.5,14.9-4.4l15.2-2.7c3.6-0.6,7.2-0.4,10.8,0.5
				c1.1,0.3,2.2,0.4,3.4,0.6c1.8,0.4,3.7,0.9,5.5,1.4c0.4,0.1,0.8,0.3,1.2,0.3c5.3,0.9,10.2,3.1,15,5.5c0.6,0.3,1.1,0.9,1.6,1.4
				c1,1.2,1.8,1.3,2.8,0.1c0.7-0.8,1.2-1.8,1.8-2.7c0.7-1.1,1.7-1.6,3.1-1.5c1.1,0,2.3-0.4,3.4-0.9c1.2-0.5,2.4-1.7,3.5-0.7
				c0.8,0.7,1,2.1,1.5,3.2c-0.2,0.1-0.5,0.2-0.7,0.3c0.4,1.2,1,2.3,1.2,3.5c0.2,0.9,0.3,2,0,2.8c-0.2,0.8-0.8,1.5-1.4,2.2
				c-1.1,1.2-0.7,2,0.4,2.9c2.4,1.9,4.7,3.9,7,6c6.6,6,12.2,12.8,16.3,20.7c1.6,2.9,2.7,6.1,3.9,9.2c0.9,2.2,1.6,4.6,2.3,6.9
				c1.6,4.9,1.6,9.8,1.3,14.9c-0.1,2.4,0,4.8-0.1,7.1s-0.4,4.5-1.9,6.5c-0.7,0.9-0.4,1.7,0.5,2.2c0.9,0.4,1.9,0.7,2.9,0.9
				c1.4,0.2,2.2,1,2.7,2.3c0.4,1.1,1.3,2.1,2,3.1c0.4,0.6,1,1.1,1.3,1.7c0.7,1.6,0,2.8-1.7,3c-1.6,0.2-2.9,0.7-4.1,1.9
				c-1.1,1.1-2.4,1.2-3.9,0.8c-1-0.3-2.1-0.7-3.1-0.8c-1.3-0.2-2.1,0.3-2.2,1.7c-0.2,3.9-1.8,7.4-3.7,10.8
				c-3.8,6.8-9.2,12.2-14.6,17.6C253.7,261.4,248.9,265.5,243.5,269L243.5,269z M140,314.1c1.2-2.4,2-5,3-7.4
				c0.7-1.8,1.7-3.2,3.9-3.4c0.5,0,1.2-0.5,1.4-1l2.1-7.1c0.3-1.5,0.7-2.7,2.5-3c1.3-0.2,1.6-1.2,1-2.2c-1.6-2.9-3.4-5.6-6-7.8
				c-1.1-0.9-2.3-1-3.4-0.2c-4,2.6-7.4,5.6-7.2,10.9c0,1-0.1,2-0.3,3c-0.4,1.9-0.5,4.1-1.5,5.7c-2.3,3.7-5.7,6.6-9.8,8.3
				c-4,1.7-7.1,4.1-7.6,8.7c-0.2,2-0.7,4.2-1.7,6c-1,1.7-2.6,3.2-4.1,4.6c-0.9,0.8-2.1,0.1-2.1-1.2c0-0.6,0.4-1.4,0.8-1.9
				c1.9-1.7,2.6-3.9,3.1-6.3c0.5-2.3,1.2-4.6,2.1-6.8c1.3-3.1,4.1-4.8,7.1-5.8c2.4-0.8,4.3-2.2,6.2-3.7c2.5-2.1,4.1-4.6,3.9-8
				c-0.1-1.6,0-3.4,0.4-5c0.5-2.3,1-4.8,3-6.6l4.3-3.9c0.7-0.6,1.5-1.5,0.3-2.2c-2.1-1.3-4.3-2.5-6.9-2.5c-1.6,0-2.3,0.7-2.1,2
				c0.4,2.4-0.2,3.2-2.3,4.3c-2.9,1.5-5.7,3.2-8.6,4.8c-1,0.5-1.2,1.2-0.5,2.2c1.1,1.5,0.5,3.2-1.2,3.8c-3.4,1.2-6.2,3.3-8.7,5.7
				c-2.6,2.5-4.7,5.5-6.9,8.3c-1.1,1.3-0.9,1.8,0.5,2.8l1.8,1.2c1.3,0.8,1.8,2,1.4,3.4c-0.6,2.1-1.3,4.2-2.3,6.2
				c-0.6,1.3-1.6,2.4-2.5,3.6c-0.7,0.8-0.7,1.4,0.1,2.2c0.5,0.6,0.9,1.6,0.7,2.4c-0.6,2.7-1.4,5.3-2,7.9c-0.1,0.6-0.1,1.5,0.2,2
				c0.3,0.3,1.3,0.4,1.8,0.2c2.7-1.4,5.4-2.8,8.1-4.4c1-0.6,1.7-0.9,2.7-0.2c1.2,0.9,2,0.5,2.8-0.6c1.8-2.5,3.9-4.8,6.7-6.5
				c1.9-1.2,2.9-1.2,4.6,0.2c0.3,0.3,0.6,0.5,1,0.8c0.7,0.5,1,0.3,1.5-0.4l5.5-8C137.8,317.5,139.1,315.9,140,314.1L140,314.1z"/>
			<path class="st1" d="M187.3,81.3c0.2,0.8,0.1,2.1-0.4,2.5c-2.1,1.9-1.4,3.8-0.5,5.8l2,4.3c0.6,1.2,0.5,2.3-0.2,3.4
				c-0.9,1.3-0.7,2.3,0.7,3c2.1,1.1,4.2,2.1,6.7,2.2c2.4,0.1,2.8-0.2,2.9-2.5c0.1-3.6-0.3-7.2,1.7-10.5c0.3-0.6,0.3-1.4,0.4-2.1
				c0.8-4-1.2-7.4-2.8-10.8c-1.7-3.7-1.6-7.4-0.4-11.2c0.4-1.4,0.9-2.8,1.3-4.2c0.3-1.1,0.7-2.1,1-3.2c0.2-0.9,0.6-1.8,0.6-2.6
				c0-3.1,0.4-6.2-1.2-9.2c-0.8-1.5-0.3-3.2,0.7-3.5c1.7-0.4,2.3,1,2.7,2.1c0.5,1.5,0.8,3.1,0.9,4.7c0.3,4.4,0.5,8.7-1.5,12.9
				c-1,2-1.3,4.2-1.9,6.4c-0.2,0.6-0.2,1.4-0.1,2c0.6,2.2,1.3,4.4,2,6.5c0.8,2.3,1.8,4.5,2.6,6.8c0.3,0.8,0.4,1.8,0.2,2.7
				c-0.6,2.4-1.2,4.8-2.2,7.1c-1.4,3-1.2,5.7,0.4,8.5c0.7,1.2,1.7,1.7,3,1.4c2.2-0.5,4.4-0.9,6.5-1.6c2.2-0.7,2.7-3.7,1.1-5.1
				c-1.4-1.3-1.5-2.6-0.7-4.4c1.4-3,2.7-6.1,4.1-9.2c0.5-1.2,0.3-2.1-1.1-2.6c-1.5-0.6-1.9-1.5-1.5-3c0.2-0.8,0.6-1.5,1-2.2
				c1.4-2.8,2.7-5.6,2.7-8.8v-9.2c0.1-2.3-0.6-2.9-2.9-2.4c-2.2,0.4-4-0.6-4.8-2.6c-1.3-3-2.4-6-2.1-9.4c0.1-1-0.4-1.7-1.6-1.9
				c-1.3-0.1-1.7-1-2.1-2.1c-0.9-2.5-1.9-5-3-7.4c-0.9-1.9-1.8-2-2.8-0.1c-1.1,2.1-2.1,4.3-2.9,6.5c-0.6,1.6-1.3,2.9-3.1,3.5
				c-0.5,0.2-0.9,0.9-1,1.5c-0.5,3.1-0.9,6.2-1.5,9.2c-0.2,1-1,2.1-1.9,2.8c-1.2,1-1.7,2-1.7,3.5c-0.1,3.1-0.1,6.1-1.6,9
				c-0.5,1-0.3,2.5,0,3.7C185.4,74.8,186.4,78,187.3,81.3L187.3,81.3z M307.8,322.9c1.4-0.9,0.9-1.7,0.1-2.7c-1-1.2-2.1-2.3-2.7-3.7
				c-1.2-2.5-2.4-5.1-1.2-8c0.2-0.5-0.1-1.4-0.4-2c-1.3-2.5-2.8-4.9-3.6-7.7c-0.5-1.6-1.6-3.2-2.8-4.4c-2.6-2.5-5.6-4.7-8.2-7.2
				c-0.6-0.5-1.1-1.7-0.9-2.5c0.3-1.6-0.3-2.6-1.6-3.4c-1.6-1-3.1-2-4.8-2.9s-2.6-2-2.6-3.9c0-1.6-0.7-2.1-2.4-2.2
				c-0.1,0-0.4,0-0.7,0.1l-10.1,3.7c-1.3,0.6-1.8,2-1.4,3.4c0.3,0.9,0.9,1.7,1.4,2.5c2.7,3.6,6.8,5.5,10.4,8.1
				c4.5,3.3,7.8,7.5,9.7,12.7l3,7.8c0.4,1,0.8,2.2,1.6,2.9c2.3,2.3,4.7,4.4,7.1,6.6c0.6,0.6,1.4,1.1,1.8,1.8c0.3,0.4,0.3,1.3,0,1.6
				c-0.3,0.4-1.2,0.7-1.6,0.5c-0.9-0.3-1.7-0.9-2.5-1.5c-0.7-0.5-1.1-1.2-1.8-1.6c-3.1-1.8-5.3-4.6-7-7.6c-2-3.6-3.6-7.5-4.9-11.4
				c-1.4-4.2-4.3-7.1-7.8-9.5c-2.1-1.5-4.4-2.6-6.3-4.2c-2-1.7-3.7-3.7-5.4-5.6c-0.7-0.8-1.6-1.6-2.4-0.6c-1.4,1.5-2.8,3.1-3,5.3
				c-0.1,1.5,0.4,2.1,1.9,2c1.3-0.1,2.1,0.5,2.3,1.7l2,9.2c0.4,2.1,1.3,2.9,3.5,3c1.4,0,2.1,0.7,2.4,1.9l0.3,1.8
				c0.7,3,1.6,5.7,4.2,7.9c2.7,2.3,5.5,4.5,6.8,7.9c0.4,1,1.2,0.7,2.1,0.7c1.6,0,3.4-0.2,4.6,0.4c2.8,1.4,5.4,3.1,6.8,6
				c0.6,1.3,1.6,1.9,3,1.3c1.3-0.5,2.3-0.1,3.4,0.7c1.9,1.4,3.8,2.8,5.8,4c1.7,1,2.8,0.4,2.6-1.5c-0.3-2.8-0.8-5.6-1.4-8.3
				C306.9,324.9,306.6,323.7,307.8,322.9L307.8,322.9z M362.8,140.9c-2.7-0.1-5.5,0-8.2-0.2c-1-0.1-2.3-0.4-2.9-1.1
				c-1-1.2-1.9-1.2-3.2-0.7l-5.4,1.7c-4.4,0.9-8.8,1.6-13.2,2.4c-0.2,0-0.3,0.1-0.4,0.1c-2.4,0.3-4.9,0.8-7.3,1
				c-2.2,0.1-4,0.7-5.7,2.1c-1.4,1.2-3,2.4-4.6,3.3c-0.7,0.4-2,0.7-2.7,0.4c-1.7-0.7-2.9-0.2-4.1,0.9c-1.5,1.4-2.9,3-4.5,4.4
				c-0.7,0.6-1.9,1.3-2.8,1.2c-2.2-0.1-3.4,0.5-3.6,2.7c-0.2,2.1-0.2,4.2,0,6.2c0.3,2.6,2.5,4,5.2,3.4c1.6-0.4,3.2-0.6,4.8-1
				c0.8-0.2,1.8-0.4,2.4-0.9l8.7-7c2.1-1.6,4-3.7,6.4-4.4c3-0.9,6.3-0.7,9.5-1l7.2-0.7c2.9-0.3,5-2.4,7.5-3.6
				c2.4-1.2,4.6-2.8,7.5-2.5c0.7,0.1,1.9,0.8,1.9,1.3c0,0.7-0.7,1.5-1.3,2.1c-0.2,0.3-0.9,0.3-1.3,0.4c-2.8,0.5-5.3,1.5-7.6,3.3
				c-2,1.5-4.3,2.8-7.1,2.9l-11,0.2c-3,0-5.5,1.1-7.7,2.8c-2.3,1.9-4.3,4.1-6.6,6c-1.8,1.5-3.8,3.1-5.9,4c-2.4,1-5.1,1.2-7.6,1.8
				c-1.9,0.4-2.4,1.4-1.3,2.9s2.3,2.9,3.6,4.4c1,1.1,2.3,1.4,3.8,1.3c1.1-0.1,1.8-0.4,1.6-1.7c-0.2-1.4,0.7-2,2-2.1h1.4l10.6,0.1
				c1.1,0,1.9-0.3,2.1-1.5c0.3-2.3,0.8-2.7,3.2-2.7h2v0.1c1.6-0.1,3.2-0.2,4.8-0.4c1.7-0.2,3-1.1,4.2-2.3c2.2-2.2,4.5-4.2,6.7-6.3
				c0.9-0.9,1.9-1.8,2.6-2.8c2.3-3,4.8-5.7,8.7-6.8c1.3-0.4,2.1-1.3,1.8-2.7c-0.3-1.3,0.4-2.1,1.4-2.9c2-1.6,3.9-3.3,5.8-5.1
				c0.5-0.5,0.6-1.4,0.9-2.1C364.3,141.4,363.5,140.9,362.8,140.9L362.8,140.9z M54.5,170.7c-1,2-0.7,2.6,1.6,2.6
				c3.3,0.1,6,1.5,8.7,3c0.9,0.5,1.9,1,2.8,1.1c4,0.3,7.9,0.7,11.8,1.6c1.3,0.3,2.4,0.7,2.7,2.1c0.3,1.2,1.1,1.6,2.3,1.6l6.5-0.2
				c1.4-0.1,2.7,0.1,3.7,1.1c1.5,1.5,1.9,1.5,3.5,0.2c0.4-0.3,0.8-0.7,1.2-1c2.6-2.4,4.2-5.2,4.7-8.6c0.2-1.1,0-2.2-1.2-2.5
				c-3.3-1-6.5-2.8-10.2-2.4c-2.3,0.2-4.6,0.6-6.9,0.7c-2.5,0.1-5,0.5-7.4,0c-4.9-0.9-8.8-4-12.4-7.1c-2.7-2.3-5.6-3.7-9.3-3.6
				c-1.6,0.1-3.2,0.2-4.8,0.2c-1.7-0.1-3.4-0.2-5-0.6c-1.1-0.3-2.1-1.1-1.8-2.5c0.3-1.3,1.6-1.1,2.6-1c0.5,0,0.9,0.2,1.4,0.2
				c1.5,0,3,0.3,4.5,0c4.4-0.7,8.4,0.5,12.1,2.7c1.7,1,3.2,2.2,4.7,3.5c3.6,3.1,7.6,4.8,12.5,4.4c3.3-0.3,6.5-0.3,9.8-0.4
				c3.1-0.1,6.2-0.1,9.1,1.6c0.7,0.4,1.7,0.6,2.5,0.5c0.5-0.1,1.4-0.9,1.3-1.2c-0.3-1.6-0.7-3.2-1.3-4.8c-0.1-0.4-0.9-0.7-1.4-0.7
				c-1.4,0-2.3-0.7-3.2-1.6c-2.3-2.3-4.7-4.5-7.1-6.8c-0.8-0.7-1.6-1.1-2.6-0.3c-1.9,1.6-3.4,1.4-4.9-0.6c-1.9-2.5-4.4-3.7-7.6-4.1
				c-3.5-0.4-7-1.4-10.4-2.4c-1.3-0.4-2.1-0.5-3,0.4c-1.8,1.7-4,2.4-6.4,1.8c-2.2-0.5-4.4-1.2-6.6-1.8c-0.9-0.3-1.7-0.5-2.3,0.5
				c-0.8,1.6-2.3,1.9-3.9,1.7l-3.8-0.3c-1.4,0.1-2.5,0.1-3.6,0.2c-1.9,0.2-2.3,1.1-1,2.5c1.8,1.9,3.6,3.8,5.6,5.5
				c1.1,0.9,1.8,1.8,1.7,3.3c-0.2,1.8,0.4,2.4,2.3,2.8c3.2,0.7,5.7,2.5,8.1,4.6C55,167.9,55.2,169.2,54.5,170.7z M356.3,191.7h-0.6
				l-0.4,3.1c-0.9,3.6-1.5,7.2-2.7,10.7c-1.3,3.4-3.2,6.7-5,9.9c-3,5.2-6.8,9.8-11.2,13.9c-2,1.8-4.1,3.5-6.2,5.3
				c-0.9,0.8-1.4,1.7-0.9,3c0.5,1.4,0.7,2.8,1.1,4.2l0.9,3.6c0.3,1,0.8,2.1,0.8,3.1c-0.1,5.9,2.4,11.8,0.6,17.7
				c-0.1,0.5-0.1,1-0.1,1.5c0.3,4.5-2,8.6-2.5,13c0,0.2-0.1,0.3-0.2,0.4c-1,2.3-2.3,4.5-3.1,6.9c-1.3,3.9-3.4,7.4-6.3,10.3
				c-3.3,3.3-6.5,6.7-11.9,5.9c-0.4,0-1.2,0.5-1.1,0.7c0.1,0.6,0.4,1.4,0.8,1.6c1.6,0.9,3.3,0.8,4.9,0c1.5-0.7,3-1.6,4.2-2.6
				c6.7-6,12.8-12.7,18-20c2.6-3.7,5-7.4,7.2-11.3c2.2-3.8,4-7.8,5.9-11.8c0.8-1.7,1.6-3.5,2.1-5.3c0.9-2.6,1.6-5.3,2.3-8
				c1-3.7,2.2-7.4,2.9-11.1c0.8-4.1,1.3-8.2,1.6-12.3c0.9-9.7,1.2-19.4-0.4-29C356.8,193.9,356.5,192.8,356.3,191.7L356.3,191.7z
				 M75.1,281.5c0-0.5-0.2-1.1-0.3-1.6c-0.4-2.8-1.1-5.7-1.1-8.5c-0.2-8.4-0.5-16.9,1.3-25.2c0.5-2.3-0.3-3.9-2.2-5.4
				c-5.5-4.2-10.4-9.1-14.7-14.6c-3.4-4.4-6.2-9.2-8.2-14.4c-0.6-1.6-1.4-3.2-2.1-4.9h-0.5c0,0.7-0.1,1.4,0,2.1
				c0.4,4.9,1,9.8,1.2,14.6c0.2,6.2,2,12.2,3.3,18.2c1.2,5.3,3.2,10.5,4.8,15.8c1.8,5.8,4.6,11.1,7.5,16.4
				c3.9,7.2,8.8,13.7,14.2,19.9c0.3,0.3,0.7,0.6,1.1,0.9c0.1-0.1,0.2-0.2,0.4-0.3c-0.4-0.9-0.7-1.8-1.2-2.7
				C76.9,288.6,75.2,285.3,75.1,281.5z M262,66.7c3.2,3,6.6,5.8,8.8,9.7c1.4,2.4,2.9,4.8,4.1,7.3c1.3,2.8,2.4,5.8,3.4,8.7
				c0.4,1.4,1.1,2.1,2.5,2.2c1.1,0,2.2,0.1,3.3,0c6-0.4,11.7,1.3,17.4,2.6c6.9,1.6,13.3,4.5,19.2,8.6c1.6,1.1,3.3,2.2,5,3.3
				c0.1-0.1,0.2-0.1,0.3-0.2c-0.3-0.4-0.5-0.8-0.8-1.2c-1.9-2.6-3.7-5.3-5.8-7.7c-3.3-3.9-6.5-7.9-10.3-11.3
				c-5.6-5-11.5-9.6-18.1-13.2c-3.8-2.1-7.5-4.5-11.4-6.5c-6.1-3-12.4-5.7-18.6-8.6c-1.5-0.7-3.1-1.3-4.7-1.9l-10.9-3.8
				c-1.1-0.4-2.2-0.8-3.6,0.2c2.4,1,4.5,1.7,6.5,2.7C253.2,60.2,258,63,262,66.7z M251.9,342.1c-5.1,1.7-10.2,1.4-15.4,0.6
				c-6.1-0.9-11.9-3.1-17.5-5.5c-4-1.7-7.8-4-11.6-6.1c-1.5-0.8-2.5-0.7-4,0.2c-2.4,1.6-4.9,3.3-7.5,4.6c-3.3,1.6-6.8,2.9-10.2,4.3
				c-4.3,1.7-8.7,3-13.3,3.2c-1.4,0.1-2.9,0.4-4.3,0.7c-4.2,0.7-8.4,1.3-12.6-0.1c-0.6-0.2-1.3-0.1-1.9-0.1c0,0.1-0.1,0.3-0.1,0.4
				c0.9,0.5,1.7,1.2,2.6,1.5c5.1,1.7,10.1,3.5,15.5,4c1.7,0.1,3.3,0.3,5,0.3c6.2,0.3,12.4,1,18.6,0.9c7.4-0.1,14.8-0.8,22.2-1.2
				c1.9-0.1,3.8,0,5.6-0.5c5.7-1.7,11.8-0.9,17.6-2.9c4.2-1.4,8.8-1.6,12.9-3.7c0.5-0.3,1.2-0.2,1.8-0.4c0.7-0.2,1.5-0.5,2.2-0.8
				c-0.1-0.1-0.1-0.3-0.2-0.5C255.4,341.5,253.5,341.5,251.9,342.1z"/>
			<path class="st1" d="M232.7,53c-2.2-1.2-7-0.7-8.8,0.8c-2,1.6-3.4,5.9-2.6,8.4C223.7,57.2,227.1,54,232.7,53L232.7,53z
				 M269.5,335.9c7.3-2.3,9.6-7.9,7.2-11.5C275.6,329.1,273.3,332.9,269.5,335.9z M244.2,248.6c2.7-0.4,5.2-1,7.8-1.9
				c3.2-1.1,6.3-2.1,9.2-4c2.4-1.6,4-3.6,5.6-5.7c2.8-3.9,2.7-4.8,0.7-7.8c-0.7-0.9-1.5-1.4-2.6-1.3h-4.2v-0.1c-1.6,0-3.1,0.2-4.7,0
				c-1.4-0.2-3-0.5-4-1.3c-2.7-2-4.3-4.7-3.9-8.3c0.1-1.1,0.1-2.2,0-3.3c-0.2-3,0.7-5.7,2.3-8c1.5-2,3.6-3.1,6.1-4.1
				c3.7-1.5,6.9-0.1,10.1,1c2.1,0.7,4,2.2,6,3.5c2.2,1.4,4.1,0.8,4.3-1.8c0.2-2.2-0.3-4.5-0.6-6.7c-0.2-1.1-0.5-2.2-1-3.2
				c-1.5-2.9-2.6-6-4.7-8.4c-2.3-2.6-5.4-4.7-8.3-6.8c-2.3-1.6-2.7-3.2-1.7-5.9c1.7-4.1,1.2-8.4,0.8-12.7c0-0.2-0.2-0.4-0.2-0.5
				c-1-2.2-2.3-4.4-2.9-6.7c-1-3.6-3.6-5.5-6.7-7.1c-0.9-0.5-1.7-0.2-1.6,0.8c0.2,2.4-0.1,4.7-1.6,6.8c-0.1,0.1,0,0.2-0.1,0.3
				c-0.5,3.1-1.5,5.7-4,7.9c-1.9,1.6-3.7,2.7-6.1,2.8c-1.5,0-3.1,0.2-4.6,0c-1.3-0.2-2.7-0.6-3.7-1.3c-2.1-1.5-4-3.2-5.9-4.9
				c-1.9-1.6-2.6-3.8-2.7-6.2c-0.1-2.6,0.6-4.7,2.2-6.7c1.7-2.2,3.2-4.6,5.6-6.2c2.2-1.5,2.5-2.8,0.9-4.8c-0.9-1.1-2.5-1.6-3.4-2.6
				c-1.2-1.6-2.6-1.8-4.3-1.4c-0.6,0.1-1.3-0.2-2-0.1c-2.9,0.3-6.1,0-8.7,1c-3.4,1.3-6.5,3.6-9.7,5.6c-1.5,0.9-3.1,1.4-4.7,0.5
				c-2.1-1.1-4.1-2.5-6.2-3.6c-1.2-0.6-2.6-1.3-4-1.3c-3.6-0.1-7.2,0-10.8,0.1c-0.7,0-1.5,0.4-2.1,0.7c-1,0.4-2,0.8-2.9,1.4
				c-0.7,0.4-1.6,0.9-1.8,1.6c-0.8,2.3,0,4.2,2,5.5c3.3,2.3,6.5,4.7,8.4,8.3c1.2,2.2,1.5,4.6,0.2,6.5c-3.1,4.5-5.7,9.9-12.5,10.1
				c0,0-0.1,0-0.1,0.1c-3.7,1.7-7.1,1.7-10.5-0.8c-1.6-1.2-2.9-2.3-3.7-4.1c-0.9-2-0.8-4.3-2.5-5.9c-0.2-0.2-0.2-0.7-0.2-1
				c0.1-1.7-1-2.7-2.2-3.6c-1-0.7-1.7-0.5-2.3,0.7c-0.7,1.4-1.5,2.9-2.4,4.2c-3,4.1-4.6,8.8-4.9,13.8c-0.2,2.6,0,5.3,0.1,7.9
				c0.1,1,0.3,2.1,0.7,3c0.6,1.3,0.8,2.5,0.1,3.8l-5.9,9.4c-0.7,1.1-1.3,2.3-1.8,3.5c-1,2.1-1.9,4.2-2.8,6.3
				c-0.1,0.2-0.1,0.5-0.1,0.8c0,1.9-0.3,3.9,0.1,5.8c0.3,1.6,1.3,3.1,2.2,4.5c0.2,0.3,1.4,0.4,1.9,0.2c2.1-1.1,4.2-2.1,6-3.5
				c4.1-3.3,8.4-2.1,12.8-1.2c0.2,0,0.5,0.2,0.6,0.4c2.8,2.7,5.2,5.8,7.1,9.2c0.2,0.4,0.3,1,0.3,1.5c-0.1,1.3-0.3,2.5-0.4,3.8
				c-0.4,3.9-6.7,9.8-11.8,9c-0.8-0.1-1.7,0-2.4,0.2c-1.9,0.4-3.7,1-5.5,1.4c-1,0.2-1.6,0.8-1,1.7c2,2.8,2.9,6.4,5.9,8.6
				c1.5,1.1,3.1,2.1,4.7,2.9c2.9,1.5,5.8,2.7,9.3,2.5c1.5-0.1,3,0.1,4.5,0.4c2.5,0.5,4.8,1.3,6.2,3.6c0.9,1.5,2,2.8,3.1,4.1
				c1.7,2.2,3.5,4.4,5.3,6.5c1.3,1.4,2.5,3,4.2,4c3,1.9,6.5,2.2,10,1.6c1.4-0.3,1.9-1,1.5-2.4c-0.2-0.8-0.5-1.5-0.7-2.3
				c-0.4-1.8-0.8-3.6-1.3-5.4c-0.6-2.3-1.6-4.6-0.5-7c1.7-3.9,4.4-6.6,8.7-7.8c5.1-1.5,10-1.8,14.8,1.1c2.1,1.3,4.4,2.8,4.7,5.2
				c0.5,3.8,0.9,7.7-1,11.4c-0.4,0.9-0.6,1.9-0.6,2.9c-0.2,2.2,0.4,2.7,2.6,2.8h3c1.7,0.1,3.2-0.4,4.6-1.4c2.8-2,5.5-3.9,7.7-6.7
				c2.4-3.2,4.9-6.3,5.8-10.3C241.3,250.8,242.2,248.8,244.2,248.6L244.2,248.6z M228.8,200.7h-0.1c0,0.8-0.1,1.6,0,2.4
				c0.4,3.9-1.3,7.1-3.6,10c-2,2.5-3.9,5.2-6.3,7.2c-3.9,3.3-8.4,5.7-13.9,5.5c-1.3-0.1-2.7-0.1-4,0c-4,0.2-7.3-1.5-10.8-3.2
				c-3.3-1.6-5.7-4.1-7.8-6.8c-3.2-4.1-5.9-8.6-5.5-14.1c0.1-1.7-0.2-3.5,0.1-5.1c0.2-1.6,0.8-3.1,1.3-4.6c0.8-2.2,1.7-4.4,3.4-6.2
				c4.7-5.1,10-9.4,17.3-10.5c6.2-0.9,12.2,0.1,17.4,3.6c3.3,2.2,6.7,4.5,8.6,8.3c1,2.2,2.4,4.2,3.5,6.3c0.3,0.6,0.4,1.4,0.5,2
				C228.8,197.2,228.8,199,228.8,200.7L228.8,200.7z M266.8,177.4l6,4.1c0.7,0.5,1.2,1.2,1.6,1.9l3.8,6.3c0.2,0.3,0.5,0.4,0.8,0.7
				c1.9-5.4-7.5-27.6-12.9-31c0.2,1.1,0.5,2,0.6,3c0.1,1.8,0.3,3.5,0.1,5.3c-0.2,2.1-0.5,4.3-1,6.4
				C265.4,175.6,265.5,176.6,266.8,177.4z M152.2,148.5l3.6,6.2c0.4,0.7,1,1.3,1.6,1.8l3.7,3l4.1,3.5c0.8,0.7,1.7,0.7,2.5,0
				s0.9-1.4,0.5-2.4c-1.3-3.1-3.7-5.1-6.7-6.6c-2-1-3.8-2.2-4-4.6c-0.2-2.5-1.2-4.3-3.6-5.4c-0.6-0.3-1.1-0.8-1.6-1.1
				c-2.3-1.7-2.4-2.7-0.1-4.6c0.1-0.1,0.2-0.3,0.4-0.6l-2.8-1.3c-1.4-0.7-1.9-0.5-1.9,1c0,1.8,0.3,3.3,1.4,5
				C150.5,144.1,151.1,146.4,152.2,148.5L152.2,148.5z M165.2,258.7c-0.3-0.5-0.9-0.9-1.5-1c-0.9-0.2-1.9-0.2-2.9-0.2
				c-2.6,0.1-5.3,0.5-7.6-1.3c-0.2-0.1-0.4-0.2-0.6-0.2c-0.5,0-1,0.1-1.5,0.2c0.2,0.4,0.2,1,0.5,1.3l2.5,2c2.9,2.3,5.7,4.6,8.7,6.7
				c1.2,0.9,2.6,1.6,4,2.3c2.1,1.1,4.1,2.6,7.2,2.3c-1.1-1.4-2.1-2.4-2.9-3.5C169.1,264.5,167.2,261.6,165.2,258.7L165.2,258.7z
				 M228.7,157.5c0.2,0.2,1,0.1,1.3-0.2c2.3-1.7,3.5-4.1,4.6-6.6l1.9-3.7c0.6-1,1.5-1.9,2.1-2.9l3.2-6.3c0.7-1.2,1.6-2.2,2.7-3.1
				c1.4-1.2,2.7-0.8,3.4,0.9c0.2,0.4,0.3,0.8,0.5,1.2c1.6-0.7,2.1-4.3,1-5.2c-0.2-0.1-0.4-0.3-0.5-0.2c-2,0.3-4.2,0.1-5.6,1.9
				c-0.9,1.1-1.6,2.4-2.6,3.3l-5.4,4.7c-1.4,1.3-2.2,2.8-2.6,4.7c-0.2,1.1-0.6,2.2-1.3,3c-2,2-2,4.8-3.2,7.1
				C227.9,156.3,228.3,157.1,228.7,157.5L228.7,157.5z M145.3,230.3c0.4-0.4,1-0.5,1.6-0.5c2.2,0,3.8-1.1,5.5-2.2
				c1.4-0.9,1.7-2.3,1.3-3.7c-0.1-0.4-0.8-1-1.2-1c-2.7,0.2-5.2,0.9-7.6,2.3c-3.1,1.8-6,4.1-9.9,4c-2.7-0.1-4.8,1-6.7,2.8
				c-0.6,0.5-1,1.4-0.1,1.5c1.9,0.2,4.2,0.6,5.7-0.2c2.3-1.3,4.6-1.5,7-1.7C142.5,231.7,144,231.5,145.3,230.3L145.3,230.3z"/>
			<path class="st1" d="M211.7,260.1c0.2,0,0.4-0.1,0.5-0.1l-1.3-6.6c-0.2-0.6-1.3-1.3-2-1.3c-0.5,0-1.5,1-1.5,1.5
				c0,2.2-0.3,4.6,0.5,6.5c1.4,3.4,1.1,6.6,0.4,9.9c-0.5,2.3-0.7,4.8-0.6,7.2c0,2,0.8,4.1-2,5c-0.3,0.1-0.5,1.1-0.3,1.6
				c0.1,0.5,0.7,0.9,1.2,1.2c0.2,0.1,0.9-0.2,1-0.5c1.1-2.1,2.6-4.1,2.5-6.7c0-0.8,0.4-1.9,1-2.5c0.8-0.8,1.1-1.6,0.9-2.7
				c-0.3-2.2-0.5-4.3,0.5-6.4c0.3-0.7,0-1.7-0.1-2.5C212.3,262.5,212,261.3,211.7,260.1L211.7,260.1z M276.8,214.3l-7.3-3.6
				c-0.4-0.2-1-0.4-1.5-0.4c-2,0.1-3.9-0.4-5.4-1.6c-2.4-1.9-4.6-0.5-6.8,0.2c-0.4,0.1-0.6,0.8-0.8,1.3c0.5,0.1,1,0.3,1.4,0.2
				c1.3-0.4,2,0,2.8,1c1.1,1.5,2.7,3.1,4.5,2.7c2.6-0.5,5-0.3,7.5,0.4c0.4,0.1,0.8,0,1.2,0c0.5,0.1,1,0.1,1.3,0.3l5.7,3.5
				c1.6,1,1.6,1.9,0.5,3.4c-0.4,0.5-0.3,1.2-0.5,1.8c0.7-0.1,1.4-0.1,2.1-0.3c1-0.4,1.9-0.9,2.8-1.3c0.1,0.1,0.1,0.2,0.2,0.3
				c0.6-0.3,2.4,0.3,1.5-1.1c-0.9-1.5-2.7-2.6-4.2-3.7c-1.2-0.9-2.5-1.5-3.8-2.2C277.7,215,277.3,214.5,276.8,214.3L276.8,214.3z
				 M134,180.7c-0.5-2.1-0.8-4.2-1.1-6.3c-0.1-0.6-0.2-1.2-0.2-1.8c-0.2,0-0.3-0.1-0.5-0.1c-0.6,1.1-1.3,2.1-1.7,3.3
				c-1,2.5-2.3,5-2.3,7.8c0,0.3-0.3,0.7-0.4,1l-1.3,5.1l-0.9,6.2l-0.3,2.6c0.2,0.1,0.4,0.1,0.5,0.2l1-1.5c2.1-3.5,4-7.1,6.4-10.4
				C134.6,184.7,134.5,182.9,134,180.7L134,180.7z M198.4,133.1c0.6,0.3,1.6,0,2.3-0.3l5.2-3.2c1.3-0.7,2.7-1.1,4.1-1.8l1.8-1
				c-0.7-0.3-1.3-0.6-2-0.8h-0.3c-4.5,0-9.1-0.1-13.6,0.2c-2.4,0.2-4.7,1.2-7.1,1.9c-0.1,0-0.1,0.2-0.3,0.5c0.4,0.3,0.7,0.5,1,0.7
				C192.5,130.5,195.5,131.9,198.4,133.1L198.4,133.1z M202.5,253.2c0.1-0.3-0.5-0.8-0.7-1.2c-0.4,0.3-1,0.5-1.3,0.8
				c-0.2,0.2-0.1,0.7-0.2,1c-0.4,1.6-0.7,3.3-1.5,4.7c-0.5,1-0.8,1.8-0.2,2.8c1,1.5,0.8,2.9,0,4.5c-0.4,0.8-0.7,1.8-1,2.6
				c0.1,0,0.2,0.1,0.2,0.1l0.3,4.2c0.1,0.9,0.4,1.9,1.5,1.8c0.8,0,1.9-0.4,2.3-1c2.5-3.6,2.5-7.8,1.4-11.7
				C202.7,259,201.5,256.3,202.5,253.2z M257,250.6c-1.5,1.1-3.2,0.8-4.9,1.1c-4,0.7-7.3,1.7-7.7,6.1c-0.1,0.6-0.6,1.2-1,1.8
				l-4.7,6.7c-0.1,0.1,0,0.3,0,0.6c0.3,0,0.5,0.1,0.6,0l5.7-4.6c0.5-0.4,1.1-0.9,1.7-1.2s1.3-0.5,1.8-0.9l8.1-7
				c0.5-0.4,1-0.9,1.4-1.4c0.2-0.3,0.1-0.8,0-1.1C257.8,250.5,257.2,250.5,257,250.6z M275.7,221.8c-0.2-0.1-0.5-0.2-0.7-0.3
				c-2-1-4.6-0.9-6.1-3c-0.2-0.2-0.8-0.3-1.2-0.3c-2.1-0.1-4.3,0-6.4-0.3c-1.1-0.1-2.1-0.8-3.2-1.2l-2.4-1l-2.2,1.2
				c0.6,0.5,1.1,1.1,1.7,1.6c0.7,0.6,1.4,1,2.1,1.6c1.2,1.1,2.5,1.9,4.3,1.9c0.7,0,1.5,0.4,2.2,0.5l5,1.2c1.1,0.2,2.3,0.2,3.3,0.5
				c1.4,0.4,2.5-0.1,3.6-0.9C276.5,222.8,276.5,222.3,275.7,221.8L275.7,221.8z M161.8,146.8c0.2,1.4,1.3,3.1,2.5,3.8
				c3.2,1.8,5.8,4.1,7.8,7c0.2,0.3,0.8,0.5,1.2,0.7c0-0.5,0.2-1.1,0-1.5c-0.4-1.1-1.2-2.2-1.5-3.3c-0.4-1.6-1.1-2.8-2.7-3.5
				c-0.5-0.2-1-0.8-1.2-1.3c-1.2-3-3.6-5.3-5.6-7.7c-0.5-0.4-1.1-0.7-1.7-0.7c-1-0.1-2,0.1-3,0.1c0.2,0.2,0.4,0.6,0.7,0.8
				C160.1,142.6,161.4,144.3,161.8,146.8L161.8,146.8z"/>
			<path class="st1" d="M248,139.4c0.2-0.1,0.1-0.5,0.2-0.8c-0.2-0.1-0.3-0.2-0.5-0.3c-0.5,0.6-1,1.1-1.3,1.7l-4.5,7.2
				c-2,2.7-2.8,5.9-4,9c-0.5,1.4-0.8,2.8-2.7,3.1c-0.3,0-0.9,0.7-0.8,0.9c0.1,0.4,0.6,0.8,1,1c0.8,0.4,1.5,0,1.6-0.8
				c0.2-1.1,0.8-1.6,1.9-1.9c2.1-0.6,3.5-1.8,3.7-4.1c0-0.5,0.2-1,0.5-1.4c1.4-1.9,1.3-4.1,1.3-6.3c0-0.7,0-1.6,0.5-2.2
				C246,142.9,246,140.6,248,139.4L248,139.4z M137.8,223.2c2.7-1.2,5.1-2.8,7.8-4.1c0.9-0.4,1.9-0.6,2.9-0.8l2.2-0.3v-0.6
				c-0.5,0-1-0.2-1.5-0.1l-4.2,0.2c-0.9,0.1-1.7,0.5-2.5,0.8c-1,0.4-2,0.9-3.1,1.2c-0.4,0.1-1-0.1-1.4,0l-8.6,2.6
				c-0.5,0.2-0.5,1.6-0.8,2.5l2-0.2l3-0.7C135,223.6,136.5,223.7,137.8,223.2L137.8,223.2z M123,230.9c-0.9,0.5-1.7,1.2-2.7,2.1
				c1.6,0.8,2.7,0.5,3.7-0.1c0.3-0.2,0.5-1,0.3-1.4S123.2,230.7,123,230.9z M223.8,195.5c-0.3-4.1-2.8-7.1-5.4-9.8
				c-4.1-4.4-9.5-6.2-15.5-6.2c-2.6,0-5.4,0.3-7.8,1.1c-5.1,1.8-9.1,5.1-11.7,9.9c-0.6,1.1-1,2.2-1.4,3.3c-0.4,1.3-0.5,2.7-0.9,4
				c-0.7,2-0.6,3.8,0.1,5.8c0.4,1,0.5,2.2,0.7,3.2c0.2,0.8,0.2,1.7,0.6,2.3c1.9,3,3.5,6.3,6.6,8.3c1.2,0.8,2.5,1.3,3.8,2
				c3,1.6,6.3,2.5,10.2,2.8c6.1-1.1,12.3-2.8,16.5-8.3c1.5-2,2.7-4.3,3.7-6.6c0.7-1.5,1-3.2,1.1-4.8c0.2-1.5,0-3-0.1-4.5
				C224.4,197.1,223.9,196.3,223.8,195.5L223.8,195.5z M203.2,215.7c-8.2,1-15.8-7.6-15.7-15.2c0.1-8.3,7.5-15.3,16-15.4
				c7.3,0,15.7,7,15.5,15.8C218.8,208.3,211.1,216.6,203.2,215.7L203.2,215.7z M210.2,191.8c-2.3-1.8-4.6-2-7.3-2.2
				c-1.7,0.3-3.7,0.2-5,1c-1.8,1.1-3.3,2.9-4.7,4.5c-1.5,1.7-1.6,8-0.5,9.9c0.8,1.3,1.4,3.1,2.7,3.8c3.2,1.6,6.4,4.3,10.5,2.3
				c0.5-0.3,1.2-0.2,1.8-0.4c0.7-0.2,1.5-0.5,2.1-1c2.6-2.2,4.3-4.9,4.3-8.4S213.5,194.4,210.2,191.8L210.2,191.8z"/>
		</g>
	</g>
</g>
</svg>
