<?xml version="1.0" encoding="utf-8"?>
<!-- Generator: Adobe Illustrator 23.0.0, SVG Export Plug-In . SVG Version: 6.00 Build 0)  -->
<svg version="1.1" id="Layer_2" xmlns="http://www.w3.org/2000/svg" xmlns:xlink="http://www.w3.org/1999/xlink" x="0px" y="0px"
	 viewBox="0 0 493.2 405.7" style="enable-background:new 0 0 493.2 405.7;" xml:space="preserve">
<style type="text/css">
	.st0{fill:#270A00;}
</style>
<g>
	<path class="st0" d="M371.9,260.6l6.8-2.8c0,0-16-3.6-22.7-18.5c-5.9-13-26-35.2-31.2-40.8c-8.2-9.4-17.7-12.8-22.5-13.9
		c-9.4-2.1-9-1.7-45.1-15c-16.7-14.6-31.5-20.5-31.5-20.5l8.1-0.5c-4.1-1.4-17.3-7.9-17.3-7.9s1.4-0.3,8.1,0
		c-5.4-1.9-15.3-10.9-15.3-10.9c3.2,1.4,8.9,0.1,11.8-0.8c0.8-0.2,1-1.3,0.3-1.8c-2.5-1.8-8-5.6-17-11
		c-6.2-24.8-10.7-28.1-15.9-29.3c-1-1-12.6-22-12.6-22s-1.8-5.4-3.7-6c-1.9-0.6-4.5-1.9-6.2,2.3c-1.5,2.9-2.3,6-2.5,9l-4.2,3.4
		l4.1,1.1c0.7,10.1,5.4,19.2,3.7,20.4c-2,1.4-7.3-0.8-14.6-4v-5.1l-3.7,3.5c-0.6-0.2-1.1-0.5-1.7-0.7c-0.6-0.3-1.4,0-1.7,0.7
		c-1.5,4.1,2.3,7.6,6.9,11c5.1,3.7,5.4,10.6,5.4,10.6s-0.2,28.8-12.7,49l10.1-10l1.4,15.6l3.4-13c0.4,32.1,23.4,57.6,23.4,57.6
		l9.3,30.7c0,0,2.5,23.3-3.5,33c-6.9-2.9-9.7,1.1-10.9,4.7c-0.8,2.4,0.9,5,3.4,5.5l12.7,2.4c0,0,0,0,0,0.1c-0.6,1.8,0.5,3.7,2.3,4.2
		l12.9,2.9c1.5,0.3,3-0.4,3.6-1.8c1.6-3.7,5.7-11.2,15.4-20.8c0.5-0.5,0.9-1.2,0.9-2c2.8-26.3,14.1-40.9,14.1-40.9l21.9,5.6
		c10.7,46.8,28.8,50.2,28.8,50.2l-2,20.9c-5.1-1.9-7.8,1.5-9.2,4.5c-0.8,1.8,0.5,3.8,2.5,3.8h14.3c1.2,0,2.3-0.8,2.6-2l6.1-23.2
		c0.2-0.6,0.1-1.2-0.1-1.8c-1.3-2.9-5.6-13.7-9.8-35.7c5.3,14.1,29.1,20.3,29.1,20.3l12.9,30.1l-3.4,14.2c-10.1-5-12.8,2.9-13.5,7.4
		c-0.2,1.5,0.9,3,2.4,3.1l17.3,1.7c1.1,0.1,2.2-0.5,2.7-1.6l6.7-14.4c0.2-0.5,0.3-1.1,0.2-1.6l-7.3-41.1c-6.5-4.2-7.2-11.5-6.9-18.6
		c5.5,11.5,14.6,22.9,14.6,22.9l-0.3-12.4c0.8,7.5,10.2,22.8,10.2,22.8v-10.4c0,0,11.7,4.6,24.5,24.2
		C389,284.8,371.9,260.6,371.9,260.6z M216,264.4l-6.9,15c-5.6-2.4-9.2-0.7-11.5,1.9c0.8-4.5,2.6-12.5,6.7-26.6l5.7-32.4l3.9,11.9
		l4.6-7.5L216,264.4z"/>
	<polygon class="st0" points="119.5,271.8 162,271.8 225.3,299.7 266.8,309.9 321.4,309.9 378.5,347.4 104.9,347.4 134,310.6 	"/>
</g>
</svg>
